<svg xmlns="http://www.w3.org/2000/svg" width="72" height="72" viewBox="0 0 72 72"><g fill="none" fill-rule="evenodd"><path fill="#FF5607" d="M8 72h56a8 8 0 008-8V8a8 8 0 00-8-8H8a8 8 0 00-8 8v56a8 8 0 008 8z"/><path fill="#FFF" d="M44.513 47.303H28.44c-1.51 0-2.732-1.233-2.732-2.706 0-1.489 1.223-2.707 2.732-2.707h16.072a2.72 2.72 0 012.715 2.707c0 1.473-1.222 2.706-2.715 2.706M28.44 25.623h7.908c1.509 0 2.731 1.217 2.731 2.705a2.735 2.735 0 01-2.731 2.721H28.44a2.735 2.735 0 01-2.732-2.72c0-1.489 1.223-2.706 2.732-2.706m29.411 5.788c-.95-.407-5.024.045-6.156-.978-.8-.736-.85-2.07-1.162-3.848-.522-2.979-.74-3.654-1.283-4.827C47.275 17.578 42.538 14 38.235 14H28.26C20.412 14 14 20.405 14 28.223v16.584C14 52.61 20.412 59 28.26 59h16.388c7.848 0 14.217-6.39 14.262-14.193L59 33.32s0-1.42-1.148-1.91"/></g></svg>