<svg xmlns="http://www.w3.org/2000/svg" width="72" height="72" viewBox="0 0 72 72"><g fill="none" fill-rule="evenodd"><path fill="#0B0B0A" d="M8 72h56a8 8 0 008-8V8a8 8 0 00-8-8H8a8 8 0 00-8 8v56a8 8 0 008 8z"/><path fill="#FFF" d="M59.982 28.419c-.005-.032-.012-.06-.017-.09a2.064 2.064 0 00-.036-.172c-.009-.035-.022-.068-.032-.101a2.531 2.531 0 00-.053-.15 1.027 1.027 0 00-.047-.1 1.065 1.065 0 00-.07-.137c-.018-.033-.039-.064-.058-.096a2.025 2.025 0 00-.261-.327c-.028-.027-.053-.055-.081-.08a3.42 3.42 0 00-.117-.099l-.093-.07-.035-.026-21.938-14.624a2.063 2.063 0 00-2.288 0L12.918 26.97l-.034.026c-.033.023-.063.047-.093.07-.04.032-.08.065-.117.1-.029.023-.056.052-.083.079-.036.036-.07.074-.101.113a1.326 1.326 0 00-.158.214l-.06.096a1.664 1.664 0 00-.07.136c-.015.032-.032.067-.045.101a1.68 1.68 0 00-.054.15c-.011.033-.023.066-.032.1a2.064 2.064 0 00-.036.173c-.006.03-.013.058-.016.09-.012.087-.02.177-.02.268v14.625c0 .09.008.18.02.27.003.029.01.059.016.089.01.059.021.115.036.172.009.035.021.068.032.101.016.05.033.1.054.151.013.034.03.066.045.1.022.046.045.091.07.138.02.031.039.063.06.094a1.824 1.824 0 00.26.325 1.853 1.853 0 00.293.25c.011.009.021.019.033.027l21.936 14.624a2.061 2.061 0 002.29 0L59.082 45.03c.012-.008.023-.019.035-.026l.093-.07a3.42 3.42 0 00.117-.1c.028-.025.053-.052.08-.08a1.812 1.812 0 00.262-.326l.058-.094c.027-.047.05-.092.07-.139.017-.033.034-.066.047-.099.02-.05.036-.102.053-.151.01-.033.023-.066.032-.1.015-.058.026-.114.036-.173l.017-.088c.012-.09.018-.18.018-.27V28.687c0-.091-.006-.181-.018-.268zm-21.92-10.502L54.224 28.69l-7.218 4.829-8.944-5.982v-9.62zm-4.124 0v9.62l-8.942 5.982-7.22-4.828 16.162-10.773zM16.125 32.549L21.287 36l-5.162 3.452v-6.904zm17.813 21.535L17.776 43.31l7.22-4.828 8.942 5.981v9.62zM36 40.88L28.706 36 36 31.12 43.296 36 36 40.88zm2.063 13.203v-9.62l8.942-5.98 7.218 4.827-16.16 10.773zm17.812-14.631L50.715 36l5.16-3.452v6.904z"/></g></svg>