<svg xmlns="http://www.w3.org/2000/svg" width="72" height="72" viewBox="0 0 72 72"><g fill="none" fill-rule="evenodd"><path fill="#005089" d="M8 72h56a8 8 0 008-8V8a8 8 0 00-8-8H8a8 8 0 00-8 8v56a8 8 0 008 8z"/><path fill="#FFF" d="M33.84 31.458l5.934 1.446.007 6.936h-2.93l-.047-6.919-2.955.01-.008 9.862 5.94.021v2.966l-5.932.022-.006 2.928 8.879.023.033-18.806-8.946-.007.031 1.518zm-9.899-1.88l-.025.356-.364.008L18 29.94v12.874h8.921L26.913 24h-2.97l-.002 5.579zm-2.96 3.338l2.959.007.001 6.918-2.97-.036.01-6.889zm7.944 9.891l2.912.002.024-12.854-2.916-.015c-.116.448-.137 12.097-.02 12.867zm-.04-15.845l2.978.004-.006-2.949L28.938 24l-.052 2.962zm15.847 4.125v.201c.108.329 5.006 1.366 5.936 1.642l.004 6.88-2.969.016-.002-6.917h-2.95c-.117 2.019-.02 7.533-.02 9.905l5.897.001.048 2.932-5.94.04-.003 2.92 8.87.047c.131-.997.042-16.455.04-18.814h-8.975l.064 1.147z"/></g></svg>