<svg xmlns="http://www.w3.org/2000/svg" width="72" height="72" viewBox="0 0 72 72"><g fill="none" fill-rule="evenodd"><path fill="#EC4989" d="M8 72h56a8 8 0 008-8V8a8 8 0 00-8-8H8a8 8 0 00-8 8v56a8 8 0 008 8z"/><path fill="#FFF" d="M47.455 52.999c-.21-1.237-1.302-7.253-3.991-14.638 6.618-1.059 12.35.756 12.774.894-.912 5.712-4.183 10.636-8.783 13.744zM36 56.498a20.416 20.416 0 01-13.059-4.699c.271.22.46.359.46.359s3.93-8.568 16.085-12.804c.045-.017.093-.028.138-.042 2.885 7.492 4.073 13.768 4.378 15.56A20.43 20.43 0 0136 56.498zm-20.498-20.5c0-.217.01-.431.016-.646.365.009 10.491.237 21.044-2.92a67.612 67.612 0 011.662 3.485c-.27.073-.539.155-.807.245-11.06 3.573-16.671 13.523-16.671 13.523s.008.009.008.012a20.417 20.417 0 01-5.252-13.698zm11.752-18.532c.274.364 4.064 5.503 7.612 11.808-9.842 2.616-18.385 2.511-18.924 2.503 1.33-6.35 5.594-11.613 11.312-14.31zM31.09 16.1l-.002.006s-.026.006-.062.011c.022-.005.042-.008.064-.017zm18.447 4.521c-.05.077-2.969 4.521-10.708 7.42-3.502-6.438-7.352-11.551-7.66-11.958a20.498 20.498 0 014.832-.578c5.188 0 9.927 1.936 13.536 5.116zm6.955 15.174c-.297-.065-7.234-1.557-14.276-.671-.146-.35-.29-.703-.443-1.056a61.6 61.6 0 00-1.363-2.974c8.094-3.305 11.38-8.054 11.42-8.11a20.415 20.415 0 014.662 12.811zm3.023-4.625a24.084 24.084 0 00-1.403-4.512 23.714 23.714 0 00-2.213-4.075 23.986 23.986 0 00-6.48-6.48 23.928 23.928 0 00-4.076-2.215A24.047 24.047 0 0036.001 12a24.081 24.081 0 00-9.344 1.888A24.06 24.06 0 0016.1 22.583 23.877 23.877 0 0012 35.999c-.001 1.63.163 3.256.484 4.837a23.76 23.76 0 001.403 4.506 23.765 23.765 0 002.213 4.081 24.462 24.462 0 002.927 3.55 24.046 24.046 0 007.629 5.139 23.618 23.618 0 004.51 1.397c1.58.327 3.206.491 4.834.491a23.87 23.87 0 004.832-.491 23.637 23.637 0 004.51-1.397A23.914 23.914 0 0049.42 55.9a24.368 24.368 0 003.553-2.927 24.28 24.28 0 002.927-3.55 23.965 23.965 0 003.615-8.587 24.283 24.283 0 000-9.666z"/></g></svg>