<svg xmlns="http://www.w3.org/2000/svg" width="72" height="72" viewBox="0 0 72 72"><g fill="none" fill-rule="evenodd"><path fill="#000" d="M8 72h56a8 8 0 008-8V8a8 8 0 00-8-8H8a8 8 0 00-8 8v56a8 8 0 008 8z"/><path fill="#FFF" d="M18 26.162v20.386c0 1.109.812 2.007 1.93 2.007h31.815c1.117 0 1.93-.909 1.93-2.007V26.162c0-1.217-.727-2.162-1.93-2.162H19.93c-1.25 0-1.93.969-1.93 2.162m2.933 1.776c0-.491.298-.772.773-.772.293 0 11.854 7.325 12.554 7.755l1.81 1.125c.573-.384 1.15-.713 1.744-1.111 1.213-.776 12.011-7.77 12.308-7.77.477 0 .773.282.773.773 0 .52-1.002 1.037-1.655 1.435-4.1 2.5-8.2 5.224-12.26 7.816-.237.16-.695.503-1.04.45-.382-.059-12.146-7.617-14.287-8.875-.321-.19-.72-.363-.72-.826"/></g></svg>