<svg xmlns="http://www.w3.org/2000/svg" width="72" height="72" viewBox="0 0 72 72"><g fill="none" fill-rule="evenodd"><path fill="#3E75C3" d="M8 72h56a8 8 0 008-8V8a8 8 0 00-8-8H8a8 8 0 00-8 8v56a8 8 0 008 8z"/><path fill="#FFF" d="M35.998 12C22.746 12 12 22.787 12 36.097a24.089 24.089 0 0016.415 22.861c1.2.222 1.637-.522 1.637-1.16 0-.573-.02-2.088-.032-4.098-6.677 1.456-8.085-3.23-8.085-3.23-1.091-2.784-2.665-3.525-2.665-3.525-2.179-1.495.166-1.465.166-1.465 2.407.17 3.674 2.483 3.674 2.483 2.143 3.683 5.618 2.62 6.986 2.002.218-1.557.838-2.619 1.524-3.221-5.33-.609-10.932-2.675-10.932-11.908 0-2.63.934-4.781 2.47-6.466-.247-.61-1.07-3.059.234-6.377 0 0 2.017-.647 6.6 2.47 1.916-.534 3.968-.801 6.01-.811 2.038.01 4.091.277 6.008.811 4.582-3.117 6.593-2.47 6.593-2.47 1.31 3.318.486 5.767.239 6.377 1.538 1.685 2.467 3.835 2.467 6.466 0 9.256-5.611 11.293-10.957 11.89.86.744 1.629 2.213 1.629 4.462 0 3.22-.03 5.819-.03 6.61 0 .644.431 1.394 1.65 1.157C53.13 55.763 60 46.738 60 36.097 60 22.787 49.254 12 35.998 12"/></g></svg>