<svg width="72" height="72" viewBox="0 0 72 72" fill="none" xmlns="http://www.w3.org/2000/svg"><path fill-rule="evenodd" clip-rule="evenodd" d="M70.56 36.818c0-2.552-.23-5.007-.654-7.363H36V43.38h19.374c-.834 4.5-3.37 8.313-7.183 10.865v9.033h11.634c6.808-6.267 10.735-15.496 10.735-26.46z" fill="#4285F4"/><path fill-rule="evenodd" clip-rule="evenodd" d="M36 72c9.72 0 17.87-3.224 23.825-8.722l-11.634-9.032c-3.224 2.16-7.347 3.436-12.191 3.436-9.376 0-17.313-6.333-20.144-14.842H3.83v9.327C9.753 63.933 21.927 72 36 72z" fill="#34A853"/><path fill-rule="evenodd" clip-rule="evenodd" d="M15.856 42.84A21.64 21.64 0 0114.727 36c0-2.373.41-4.68 1.13-6.84v-9.327H3.828A35.986 35.986 0 000 36c0 5.81 1.39 11.307 3.83 16.167l12.026-9.327z" fill="#FBBC05"/><path fill-rule="evenodd" clip-rule="evenodd" d="M36 14.318c5.285 0 10.03 1.816 13.762 5.384L60.087 9.376C53.853 3.567 45.704 0 36 0 21.927 0 9.753 8.067 3.83 19.833l12.026 9.327C18.687 20.65 26.624 14.318 36 14.318z" fill="#EA4335"/></svg>