<svg xmlns="http://www.w3.org/2000/svg" width="72" height="72" viewBox="0 0 72 72"><g fill="none" fill-rule="evenodd"><path fill="#ECECEC" d="M8 72h56a8 8 0 008-8V8a8 8 0 00-8-8H8a8 8 0 00-8 8v56a8 8 0 008 8z"/><path fill="#00FC87" d="M45.186 16.487c-.722-.363-1.312.005-1.312.816v32.294l13.172 6.626c1.45.73 2.625.219 2.625-1.14V23.985a.345.345 0 00-.189-.307l-14.296-7.19"/><path fill="#00E468" d="M28.077 41.651l15.028-24.567c.423-.691 1.36-.96 2.081-.597l14.312 7.2a.179.179 0 01.072.252L43.874 49.597l-15.797-7.946"/><path fill="#00C860" d="M14.467 16.928c-1.203-.606-1.61-.158-.905.994l14.515 23.73 15.797 7.945L28.11 23.83a.228.228 0 00-.092-.085l-13.552-6.816"/><path fill="#00AC68" d="M28.077 55.083c0 1.353-.984 1.965-2.187 1.36l-12.297-6.186c-.722-.363-1.313-1.324-1.313-2.136V17.795c0-1.082.788-1.572 1.75-1.088l13.962 7.023c.052.027.085.08.085.138v31.215"/></g></svg>