<svg xmlns="http://www.w3.org/2000/svg" width="72" height="72" viewBox="0 0 72 72"><g fill="none" fill-rule="evenodd"><path fill="#CC2127" d="M8 72h56a8 8 0 008-8V8a8 8 0 00-8-8H8a8 8 0 00-8 8v56a8 8 0 008 8z"/><path fill="#FFF" d="M39.242 46.69c-2.97 0-5.765-1.61-6.723-3.437 0 0-1.598 6.352-1.935 7.579-1.19 4.332-4.696 8.668-4.969 9.022-.189.248-.608.17-.652-.155-.076-.553-.97-6.02.081-10.48l3.54-15.024s-.88-1.76-.88-4.362c0-4.086 2.365-7.136 5.31-7.136 2.501 0 3.711 1.883 3.711 4.14 0 2.521-1.603 6.288-2.431 9.784-.688 2.925 1.467 5.309 4.343 5.309 5.214 0 8.726-6.71 8.726-14.66 0-6.04-4.06-10.564-11.45-10.564-8.345 0-13.55 6.236-13.55 13.205 0 2.4.708 4.097 1.817 5.406.51.604.58.846.396 1.536-.134.508-.435 1.73-.561 2.214-.184.699-.749.949-1.379.69C18.795 38.186 17 33.965 17 29.223 17 21.392 23.595 12 36.67 12c10.506 0 17.42 7.616 17.42 15.794 0 10.817-6 18.897-14.848 18.897"/></g></svg>