<svg xmlns="http://www.w3.org/2000/svg" width="72" height="72" viewBox="0 0 72 72"><g fill="none" fill-rule="evenodd"><path fill="#03ACEB" d="M8 72h56a8 8 0 008-8V8a8 8 0 00-8-8H8a8 8 0 00-8 8v56a8 8 0 008 8z"/><path fill="#FFF" d="M36.205 21.364c6.621.39 10.499 3.315 10.876 6.047.184 1.785-.998 3.173-3.049 3.173-2.994 0-3.3-4.01-8.457-4.01-2.326 0-4.29.971-4.29 3.079 0 4.404 16.525 1.846 16.525 11.542 0 5.59-4.454 9.25-11.103 9.25-5.846 0-11.723-2.661-11.693-7.246.01-1.383 1.037-2.652 2.404-2.652 3.443 0 3.411 5.139 8.894 5.139 3.846 0 5.159-2.108 5.159-3.577 0-5.305-16.623-2.053-16.623-12.03 0-5.4 4.417-9.125 11.357-8.715M15.453 36.016c0 11.388 9.19 20.623 20.53 20.623 1.317 0 2.602-.129 3.848-.367A11.88 11.88 0 0046.02 58C52.635 57.998 58 52.61 58 45.962c0-2.33-.662-4.504-1.802-6.349.204-1.168.317-2.37.317-3.597 0-11.39-9.193-20.622-20.531-20.622-1.29 0-2.554.125-3.78.354A11.885 11.885 0 0025.981 14C19.365 14 14 19.389 14 26.036c0 2.318.654 4.48 1.783 6.317a20.727 20.727 0 00-.33 3.663"/></g></svg>