<svg xmlns="http://www.w3.org/2000/svg" width="72" height="72" viewBox="0 0 72 72"><g fill="none" fill-rule="evenodd"><path fill="#77D4B6" d="M8 72h56a8 8 0 008-8V8a8 8 0 00-8-8H8a8 8 0 00-8 8v56a8 8 0 008 8z"/><path fill="#FFF" d="M57.99 29.402C53.045 12.908 45.897 9.061 29.403 14.01 12.91 18.956 9.061 26.104 14.01 42.598 18.958 59.09 26.105 62.939 42.598 57.99c16.494-4.949 20.341-12.096 15.393-28.589M49.649 40.11l-3.11 1.041 1.078 3.22a2.487 2.487 0 11-4.718 1.579l-1.078-3.218-6.413 2.148 1.077 3.218a2.488 2.488 0 11-4.717 1.58l-1.079-3.218-3.11 1.042a2.489 2.489 0 01-1.581-4.719l3.112-1.042-2.069-6.173-3.11 1.043a2.488 2.488 0 01-3.15-1.57 2.488 2.488 0 011.57-3.15l3.11-1.042-1.078-3.217a2.488 2.488 0 014.719-1.58l1.077 3.218 6.414-2.148-1.078-3.218a2.49 2.49 0 014.719-1.58l1.077 3.218 3.11-1.042a2.488 2.488 0 111.58 4.719l-3.11 1.04 2.068 6.175 3.11-1.043a2.49 2.49 0 011.58 4.72zm-17.89-6.122l2.068 6.173 6.414-2.148-2.067-6.173-6.414 2.148z"/></g></svg>