<svg xmlns="http://www.w3.org/2000/svg" width="72" height="72" viewBox="0 0 72 72"><g fill="none" fill-rule="evenodd"><path fill="#34455D" d="M8 72h56a8 8 0 008-8V8a8 8 0 00-8-8H8a8 8 0 00-8 8v56a8 8 0 008 8z"/><path fill="#FFF" d="M47.74 50.34c-.873.426-2.543.797-3.79.829-3.76.102-4.49-2.7-4.52-4.731V31.495h9.434v-7.268h-9.402V12h-6.88c-.113 0-.31.101-.339.358-.402 3.743-2.116 10.31-9.243 12.937v6.2h4.755v15.683c0 5.37 3.876 12.999 14.11 12.819 3.453-.06 7.288-1.537 8.135-2.812l-2.26-6.844"/></g></svg>