<svg xmlns="http://www.w3.org/2000/svg" width="72" height="72" viewBox="0 0 72 72"><g fill="none" fill-rule="evenodd"><path fill="#3E6FA1" d="M8 72h56a8 8 0 008-8V8a8 8 0 00-8-8H8a8 8 0 00-8 8v56a8 8 0 008 8z"/><path fill="#FFF" d="M38.878 44.395c.093-1.43.737-3.655 2.348-2.442.973.736 1.746 1.8 2.62 2.735.854.91 1.872 1.706 3.77 1.657 1.125-.029 4.357.078 5.199-.228 2.544-.924-1.964-5.142-3.065-6.087-.463-.397-.982-.962-1.38-1.383-.49-.519-.727-1.045-.336-1.859l1.706-2.4c.505-.55 2.373-3.223 2.825-3.955.65-1.054 1.985-3.127.265-3.459-.968-.187-4.108-.013-5.303-.005-2.354.015-1.875-.245-3.036 2.437-.774 1.783-3.161 5.987-4.427 6.467-2.347.89-.511-7.623-1.5-9.095-.601-.893-3.383-.782-4.685-.764-1.512.018-3.603.098-4.044 1.346.135.115-.013.037.249.144.188.076.482.094.8.264.284.15.542.414.69.65.713 1.141.627 5.945.037 7.11-1.105 2.176-4.33-3.938-4.884-5.027-.79-1.555-1.1-3.067-1.993-3.454-.648-.279-4.322-.123-5.31-.107-.905.014-1.685.157-1.341 1.229.173.54.584 1.3.832 1.845 1.532 3.362 3.927 7.49 6.037 10.286 2.382 3.155 5.903 5.95 10.354 5.986 3.197.026 3.439.167 3.572-1.891"/></g></svg>