<?xml version="1.0" encoding="utf-8"?>
<!-- Generator: Adobe Illustrator 22.0.0, SVG Export Plug-In . SVG Version: 6.00 Build 0)  -->
<svg version="1.1" id="Layer_1" xmlns="http://www.w3.org/2000/svg" xmlns:xlink="http://www.w3.org/1999/xlink" x="0px" y="0px"
	 viewBox="0 0 500 500" style="enable-background:new 0 0 500 500;" xml:space="preserve">
<style type="text/css">
	.st0{fill:#AAB1BA;}
	.st1{fill:#FDDF7F;}
	.st2{fill:#83E1E5;}
	.st3{fill:#ECF4F7;}
	.st4{fill:#1C1D21;}
	.st5{fill:none;stroke:#1C1D21;stroke-width:10;stroke-linecap:round;stroke-linejoin:round;stroke-miterlimit:10;}
</style>
<g>
	<path class="st2" d="M131.8,473.322l48.112-26.751L206.085,495l43.02-147.419c-27.259-0.165-52.736-7.842-74.461-21.075
		L131.8,473.322z"/>
</g>
<g>
	<path class="st2" d="M250.895,347.581L293.915,495l26.173-48.429l48.112,26.751l-42.845-146.816
		C303.631,339.739,278.154,347.416,250.895,347.581z"/>
</g>
<g>
	<circle class="st1" cx="250" cy="202.537" r="145.055"/>
</g>
<g>
	<circle class="st3" cx="250" cy="202.537" r="113.528"/>
</g>
<g>
	<path class="st1" d="M254.161,193.87H250h-4.161c-1.48,0-2.683-1.204-2.683-2.684v-9.837c0-1.48,1.203-2.684,2.683-2.684h19.668
		c4.785,0,8.664-3.88,8.664-8.667c0-4.787-3.879-8.667-8.664-8.667h-5.426v-8.81c0-4.787-3.879-8.667-8.664-8.667
		c-4.785,0-8.664,3.88-8.664,8.667v9.049c-9.574,1.488-16.926,9.791-16.926,19.779v9.837c0,11.038,8.977,20.018,20.011,20.018H250
		h4.161c1.48,0,2.683,1.204,2.683,2.684v9.837c0,1.48-1.203,2.684-2.683,2.684h-19.668c-4.785,0-8.664,3.88-8.664,8.667
		s3.879,8.667,8.664,8.667h8.262v8.81c0,4.787,3.879,8.667,8.664,8.667c4.785,0,8.664-3.88,8.664-8.667v-9.705
		c8.152-2.531,14.089-10.146,14.089-19.123v-9.837C274.171,202.85,265.194,193.87,254.161,193.87z"/>
</g>
<path class="st4" d="M250,321.065c65.356,0,118.528-53.171,118.528-118.528S315.356,84.009,250,84.009
	S131.472,137.18,131.472,202.537S184.644,321.065,250,321.065z M250,94.009c59.843,0,108.528,48.686,108.528,108.528
	S309.843,311.065,250,311.065S141.472,262.38,141.472,202.537S190.157,94.009,250,94.009z M151.647,95.801
	c1.939,1.965,1.919,5.131-0.046,7.071c-1.704,1.682-3.395,3.438-5.022,5.22c-0.986,1.079-2.337,1.626-3.691,1.626
	c-1.205,0-2.413-0.433-3.372-1.31c-2.038-1.863-2.181-5.025-0.317-7.064c1.743-1.907,3.553-3.788,5.378-5.59
	C146.541,93.815,149.706,93.835,151.647,95.801z M331.196,328.672c41.398-26.742,68.859-73.29,68.859-126.135
	c0-82.741-67.314-150.055-150.056-150.055c-30.075,0-59.092,8.865-83.913,25.638c-2.288,1.546-2.889,4.654-1.343,6.942
	c1.545,2.288,4.653,2.891,6.942,1.343C194.848,70.754,221.928,62.482,250,62.482c77.227,0,140.056,62.829,140.056,140.055
	c0,61.232-39.502,113.405-94.358,132.393c-0.576,0.199-1.154,0.395-1.733,0.586c-0.621,0.206-1.242,0.41-1.866,0.607
	c-1.278,0.402-2.559,0.795-3.848,1.16c-0.007,0.002-0.014,0.004-0.021,0.006c-1.424,0.403-2.855,0.779-4.292,1.137
	c-0.191,0.048-0.383,0.094-0.574,0.14c-9.023,2.205-18.281,3.52-27.642,3.9c-0.072,0.003-0.144,0.005-0.216,0.008
	c-1.545,0.06-3.093,0.097-4.642,0.106c-0.005,0-0.01,0.001-0.014,0.001c-0.284,0.002-0.566,0.011-0.85,0.011
	s-0.566-0.009-0.85-0.011c-0.005,0-0.009-0.001-0.014-0.001c-1.55-0.009-3.097-0.046-4.642-0.106
	c-0.072-0.003-0.144-0.005-0.216-0.008c-9.361-0.38-18.619-1.695-27.642-3.9c-0.191-0.047-0.383-0.093-0.574-0.14
	c-1.437-0.357-2.868-0.734-4.292-1.137c-0.007-0.002-0.014-0.004-0.021-0.006c-1.289-0.365-2.57-0.758-3.848-1.16
	c-0.625-0.197-1.246-0.401-1.866-0.607c-0.579-0.191-1.156-0.388-1.733-0.586c-54.856-18.988-94.358-71.161-94.358-132.393
	c0-27.27,7.841-53.7,22.675-76.433c1.509-2.313,0.857-5.411-1.455-6.92c-2.316-1.51-5.411-0.857-6.92,1.455
	c-15.897,24.363-24.3,52.683-24.3,81.898c0,52.845,27.461,99.393,68.859,126.135L127,471.921c-0.568,1.947,0.096,4.043,1.681,5.309
	c1.584,1.266,3.776,1.447,5.549,0.462l43.689-24.292l23.768,43.978c0.879,1.627,2.575,2.623,4.396,2.623
	c0.176,0,0.353-0.009,0.529-0.028c2.017-0.214,3.704-1.625,4.272-3.571L250,362.364l39.115,134.037
	c0.568,1.946,2.256,3.357,4.272,3.571c0.177,0.019,0.354,0.028,0.529,0.028c1.821,0,3.518-0.996,4.396-2.623l23.768-43.978
	l43.689,24.292c1.773,0.985,3.964,0.803,5.549-0.462c1.585-1.265,2.249-3.362,1.681-5.309L331.196,328.672z M204.695,481.913
	l-20.385-37.72c-0.635-1.175-1.715-2.048-2.998-2.422c-0.459-0.134-0.931-0.2-1.4-0.2c-0.843,0-1.68,0.213-2.43,0.63l-37.473,20.835
	l37.647-129.006c6.678,3.678,13.62,6.817,20.751,9.424c0.055,0.02,0.11,0.039,0.165,0.06c1.061,0.387,2.125,0.765,3.195,1.128
	c0.323,0.11,0.649,0.213,0.973,0.321c0.848,0.281,1.696,0.564,2.549,0.829c2.564,0.802,5.158,1.533,7.778,2.198
	c0.026,0.007,0.052,0.013,0.078,0.019c1.332,0.338,2.671,0.654,4.017,0.956c0.048,0.011,0.097,0.021,0.145,0.032
	c1.332,0.297,2.67,0.575,4.015,0.836c0.033,0.006,0.066,0.013,0.099,0.019c6.869,1.33,13.901,2.199,21.066,2.554L204.695,481.913z
	 M322.518,442.2c-1.168-0.649-2.548-0.804-3.83-0.43c-1.283,0.375-2.363,1.247-2.998,2.422l-20.385,37.72l-37.794-129.508
	c7.165-0.355,14.197-1.224,21.066-2.554c0.033-0.006,0.066-0.013,0.099-0.019c1.344-0.261,2.683-0.539,4.015-0.836
	c0.048-0.011,0.097-0.021,0.145-0.032c1.345-0.302,2.685-0.618,4.017-0.956c0.026-0.007,0.052-0.013,0.078-0.019
	c2.62-0.666,5.215-1.397,7.778-2.198c0.853-0.266,1.701-0.548,2.549-0.829c0.324-0.108,0.65-0.211,0.973-0.321
	c1.07-0.362,2.134-0.741,3.195-1.128c0.055-0.02,0.11-0.039,0.165-0.06c7.131-2.607,14.073-5.745,20.751-9.424l37.647,129.006
	L322.518,442.2z M215.829,235.077c0,9.718,7.464,17.725,16.958,18.59c0.578,9.777,8.713,17.554,18.631,17.554
	c10.291,0,18.664-8.374,18.664-18.667v-3.365c8.65-5.38,14.089-14.876,14.089-25.463v-9.837c0-10.879-5.817-20.426-14.503-25.691
	c8.295-1.896,14.503-9.336,14.503-18.199c0-8.719-6.007-16.06-14.099-18.102c-0.331-10.005-8.572-18.042-18.654-18.042
	c-10.291,0-18.664,8.374-18.664,18.667v1.819c-3.643,1.771-6.925,4.277-9.618,7.392c-4.712,5.451-7.308,12.418-7.308,19.617v9.837
	c0,10.879,5.817,20.426,14.503,25.691C222.036,218.774,215.829,226.214,215.829,235.077z M234.492,226.41h19.668
	c1.48,0,2.683-1.204,2.683-2.684v-9.837c0-1.48-1.203-2.684-2.683-2.684H250h-4.161c-11.033,0-20.01-8.98-20.01-20.018v-9.837
	c0-9.989,7.352-18.291,16.926-19.779v-9.049c0-4.787,3.879-8.667,8.664-8.667c4.785,0,8.664,3.88,8.664,8.667v8.81h5.426
	c4.784,0,8.664,3.88,8.664,8.667c0,4.787-3.879,8.667-8.664,8.667h-19.668c-1.48,0-2.683,1.204-2.683,2.684v9.837
	c0,1.48,1.203,2.684,2.683,2.684H250h4.161c11.033,0,20.01,8.98,20.01,20.018v9.837c0,8.977-5.937,16.591-14.089,19.123v9.705
	c0,4.787-3.879,8.667-8.664,8.667c-4.784,0-8.664-3.88-8.664-8.667v-8.81h-8.262c-4.784,0-8.664-3.88-8.664-8.667
	C225.829,230.29,229.708,226.41,234.492,226.41z M130.7,366.196c-1.326-0.969-2.643-1.957-3.949-2.962
	c-2.188-1.684-2.597-4.823-0.913-7.012c1.685-2.189,4.822-2.599,7.013-0.913c1.24,0.955,2.49,1.893,3.75,2.813
	c2.229,1.629,2.716,4.757,1.087,6.987c-0.979,1.34-2.5,2.05-4.041,2.05C132.623,367.159,131.59,366.846,130.7,366.196z
	 M452.537,202.588c0,54.086-21.063,104.935-59.308,143.18c-9.4,9.401-19.721,17.886-30.673,25.22
	c-0.854,0.572-1.821,0.846-2.777,0.846c-1.612,0-3.195-0.778-4.159-2.219c-1.537-2.294-0.922-5.4,1.372-6.937
	c10.413-6.972,20.226-15.041,29.167-23.982c36.355-36.356,56.378-84.693,56.378-136.108c0-47.052-16.779-91.52-47.488-126.593
	l0.883,30.802c0.079,2.76-2.095,5.062-4.854,5.141c-0.049,0.001-0.098,0.002-0.146,0.002c-2.695,0-4.917-2.145-4.995-4.857
	l-1.26-43.975c-0.039-1.375,0.489-2.706,1.463-3.679c0.003-0.003,0.007-0.005,0.01-0.008c0.004-0.004,0.007-0.009,0.01-0.013
	c1.049-1.049,2.447-1.515,3.821-1.437l43.812,1.255c2.76,0.079,4.934,2.381,4.854,5.141c-0.08,2.76-2.393,4.937-5.142,4.855
	L401.6,68.309C434.528,105.374,452.537,152.593,452.537,202.588z M352.905,33.752c1.499-2.319,4.595-2.984,6.913-1.486
	c1.439,0.93,2.87,1.879,4.292,2.85c2.281,1.556,2.868,4.667,1.312,6.948c-0.968,1.418-2.537,2.182-4.135,2.182
	c-0.971,0-1.951-0.282-2.813-0.871c-1.352-0.922-2.712-1.825-4.081-2.71C352.072,39.167,351.407,36.072,352.905,33.752z
	 M328.047,20.918c1.152-2.509,4.123-3.606,6.631-2.456c2.282,1.049,4.566,2.151,6.789,3.275c2.464,1.247,3.451,4.254,2.205,6.719
	c-0.881,1.74-2.64,2.744-4.466,2.744c-0.759,0-1.529-0.173-2.253-0.539c-2.111-1.068-4.282-2.115-6.451-3.112
	C327.993,26.396,326.894,23.428,328.047,20.918z M115.036,343.958c-0.023,0.067-0.034,0.138-0.06,0.204
	c-0.244,0.611-0.611,1.184-1.106,1.678c-0.237,0.237-0.495,0.447-0.77,0.629c-0.174,0.115-0.36,0.199-0.544,0.29
	c-0.108,0.054-0.208,0.122-0.319,0.168c-0.212,0.087-0.432,0.141-0.651,0.198c-0.095,0.025-0.185,0.064-0.282,0.084
	c-0.32,0.063-0.644,0.096-0.969,0.096c-0.048,0-0.096,0-0.144-0.002l-43.975-1.259c-2.76-0.079-4.934-2.381-4.854-5.141
	c0.079-2.761,2.37-4.934,5.142-4.855l31.934,0.915c-12.356-13.913-22.681-29.354-30.766-46.046
	C30.111,213.365,45.835,120.301,106.8,59.336C159.525,6.61,236.703-12.872,308.214,8.489c2.646,0.791,4.15,3.576,3.36,6.222
	c-0.791,2.645-3.58,4.149-6.222,3.36c-67.984-20.31-141.357-1.788-191.482,48.337c-57.956,57.956-72.905,146.427-37.198,220.148
	c7.473,15.428,16.965,29.733,28.287,42.676l-0.881-30.76c-0.079-2.76,2.095-5.062,4.854-5.141c2.751-0.087,5.062,2.094,5.142,4.855
	l1.26,43.975c0.001,0.023-0.005,0.046-0.005,0.069c0.003,0.215-0.023,0.429-0.048,0.643c-0.013,0.114-0.012,0.229-0.033,0.341
	C115.201,343.467,115.122,343.713,115.036,343.958z"/>
</svg>
