<?xml version="1.0" encoding="utf-8"?>
<!-- Generator: Adobe Illustrator 22.0.0, SVG Export Plug-In . SVG Version: 6.00 Build 0)  -->
<svg version="1.1" id="Layer_1" xmlns="http://www.w3.org/2000/svg" xmlns:xlink="http://www.w3.org/1999/xlink" x="0px" y="0px"
	 viewBox="0 0 500 500" style="enable-background:new 0 0 500 500;" xml:space="preserve">
<style type="text/css">
	.st0{fill:#AAB1BA;}
	.st1{fill:#FDDF7F;}
	.st2{fill:#83E1E5;}
	.st3{fill:#ECF4F7;}
	.st4{fill:#1C1D21;}
	.st5{fill:none;stroke:#1C1D21;stroke-width:10;stroke-linecap:round;stroke-linejoin:round;stroke-miterlimit:10;}
</style>
<g>
	<polygon class="st0" points="118.419,176.457 250,65.467 381.581,176.457 250,287.421 	"/>
</g>
<g>
	<polygon class="st1" points="422.3,141.898 290.72,30.908 250,65.467 381.581,176.457 	"/>
</g>
<g>
	<polygon class="st1" points="77.7,141.898 209.28,30.908 250,65.467 118.419,176.457 	"/>
</g>
<g>
	<path class="st1" d="M445.896,279.939L445.896,279.939c-7.065,0-12.791,5.727-12.791,12.791v75.687h25.583V292.73
		C458.687,285.666,452.96,279.939,445.896,279.939z"/>
</g>
<g>
	<path class="st1" d="M420.398,279.939c-7.065,0-12.792,5.727-12.792,12.791v95.861l25.583-2.091v-93.77
		C433.19,285.666,427.463,279.939,420.398,279.939z"/>
</g>
<g>
	<path class="st1" d="M410.506,495v-25.909c0-9.961,3.957-19.513,11-26.556l51.765-51.765c7.043-7.043,11-16.596,11-26.556V292.73
		c0-7.064-5.727-12.791-12.791-12.791s-12.792,5.727-12.792,12.791v37.27c0,11.48-5.25,22.329-14.253,29.452l-73.412,58.085
		c-8.966,7.094-14.213,17.887-14.253,29.32L356.601,495"/>
</g>
<g>
	<path class="st1" d="M54.104,279.939L54.104,279.939c7.065,0,12.791,5.727,12.791,12.791v75.687H41.313V292.73
		C41.313,285.666,47.04,279.939,54.104,279.939z"/>
</g>
<g>
	<path class="st1" d="M79.602,279.939c7.065,0,12.791,5.727,12.791,12.791v95.861L66.81,386.5v-93.77
		C66.81,285.666,72.537,279.939,79.602,279.939z"/>
</g>
<g>
	<path class="st1" d="M89.494,495v-25.909c0-9.961-3.957-19.513-11-26.556L26.73,390.77c-7.043-7.043-11-16.596-11-26.556V292.73
		c0-7.064,5.727-12.791,12.791-12.791s12.792,5.727,12.792,12.791v37.27c0,11.48,5.25,22.329,14.253,29.452l73.412,58.085
		c8.966,7.094,14.213,17.887,14.253,29.32L143.399,495"/>
</g>
<g>
	<polygon class="st1" points="118.419,176.431 118.419,321.955 250.001,432.944 381.581,321.955 381.581,176.431 250,287.421 	"/>
</g>
<g>
	<polygon class="st1" points="77.7,210.991 209.28,321.981 250,287.421 118.419,176.431 	"/>
</g>
<g>
	<polygon class="st1" points="422.3,210.991 290.72,321.981 250,287.421 381.581,176.431 	"/>
</g>
<g>
	<circle class="st2" cx="250" cy="83.109" r="78.109"/>
</g>
<path class="st4" d="M471.479,274.939c-5.021,0-9.553,2.099-12.792,5.456c-3.238-3.356-7.771-5.456-12.792-5.456
	c-4.998,0-9.513,2.079-12.749,5.408c-3.235-3.33-7.751-5.408-12.749-5.408c-9.81,0-17.792,7.981-17.792,17.791v93.442
	l-34.686,27.445c-10.219,8.084-16.105,20.193-16.151,33.223l-0.169,48.143c-0.01,2.762,2.221,5.008,4.982,5.018
	c0.006,0,0.012,0,0.018,0c2.753,0,4.99-2.228,5-4.982l0.169-48.143c0.035-9.968,4.538-19.231,12.355-25.416l73.411-58.085
	c10.264-8.12,16.15-20.284,16.15-33.373V314.75v-22.02c0-4.296,3.495-7.791,7.792-7.791s7.792,3.495,7.792,7.791v71.483
	c0,8.696-3.387,16.872-9.536,23.021l-51.765,51.764c-8.038,8.038-12.464,18.726-12.464,30.092V495c0,2.762,2.239,5,5,5s5-2.238,5-5
	v-25.909c0-8.695,3.386-16.871,9.535-23.021l51.765-51.764c8.038-8.038,12.464-18.725,12.464-30.092V292.73
	C489.27,282.921,481.289,274.939,471.479,274.939z M412.607,292.73c0-4.296,3.495-7.791,7.792-7.791
	c4.019,0,7.335,3.059,7.747,6.969c-0.013,0.274-0.042,0.544-0.042,0.822v73.268l-15.497,12.262V292.73z M441.332,355.532
	l-3.142,2.486V292.73c0-0.277-0.029-0.547-0.042-0.822c0.412-3.911,3.728-6.969,7.747-6.969c4.296,0,7.792,3.495,7.792,7.791v37.271
	C453.687,340.014,449.184,349.319,441.332,355.532z M132.08,413.617l-34.687-27.445V292.73c0-9.81-7.981-17.791-17.792-17.791
	c-4.998,0-9.513,2.079-12.749,5.408c-3.235-3.33-7.751-5.408-12.749-5.408c-5.021,0-9.554,2.099-12.792,5.456
	c-3.238-3.356-7.771-5.456-12.792-5.456c-9.81,0-17.792,7.981-17.792,17.791v71.483c0,11.367,4.427,22.054,12.464,30.092
	l51.765,51.764c6.149,6.15,9.535,14.326,9.535,23.021V495c0,2.762,2.239,5,5,5s5-2.238,5-5v-25.909
	c0-11.366-4.426-22.054-12.464-30.092l-51.765-51.764c-6.149-6.149-9.536-14.325-9.536-23.021V292.73
	c0-4.296,3.495-7.791,7.792-7.791s7.792,3.495,7.792,7.791v21.77v15.501c0,13.089,5.887,25.253,16.15,33.373l73.412,58.085
	c7.817,6.185,12.32,15.448,12.355,25.416l0.169,48.143c0.01,2.756,2.246,4.982,5,4.982c0.006,0,0.012,0,0.018,0
	c2.761-0.01,4.992-2.256,4.982-5.018l-0.169-48.143C148.184,433.811,142.298,421.701,132.08,413.617z M79.602,284.939
	c4.296,0,7.792,3.495,7.792,7.791v85.529l-15.497-12.262V292.73c0-0.277-0.029-0.547-0.042-0.822
	C72.266,287.998,75.583,284.939,79.602,284.939z M46.313,330.001V292.73c0-4.296,3.495-7.791,7.792-7.791
	c4.019,0,7.335,3.059,7.747,6.969c-0.013,0.274-0.042,0.544-0.042,0.822v65.288l-3.142-2.486
	C50.816,349.319,46.313,340.014,46.313,330.001z M251.824,437.589c0.122-0.048,0.237-0.106,0.354-0.164
	c0.159-0.078,0.316-0.159,0.468-0.254c0.117-0.074,0.228-0.154,0.338-0.237c0.078-0.059,0.164-0.104,0.239-0.168l131.581-110.989
	c1.126-0.95,1.776-2.349,1.776-3.822v-74.293l38.943-32.849c1.125-0.948,1.774-2.344,1.776-3.814s-0.643-2.868-1.765-3.82
	l-36.212-30.735l36.212-30.734c1.122-0.952,1.767-2.35,1.765-3.82s-0.652-2.866-1.776-3.814l-80.557-67.951
	c-2.109-1.778-5.264-1.513-7.045,0.599c-1.781,2.11-1.513,5.265,0.598,7.046l76.04,64.141l-32.989,27.998l-42.614-35.945
	c-2.109-1.778-5.265-1.512-7.045,0.599s-1.513,5.265,0.598,7.046l41.3,34.837L250,280.879L126.19,176.444l41.3-34.837
	c2.111-1.781,2.379-4.936,0.598-7.046c-1.78-2.111-4.936-2.378-7.045-0.599l-42.614,35.945L85.44,141.909l76.04-64.141
	c2.111-1.781,2.379-4.936,0.598-7.046c-1.78-2.111-4.936-2.378-7.045-0.599l-80.557,67.951c-1.125,0.948-1.774,2.344-1.776,3.814
	s0.643,2.868,1.765,3.82l36.212,30.734l-36.212,30.735c-1.122,0.952-1.767,2.35-1.765,3.82s0.652,2.866,1.776,3.814l38.943,32.849
	v74.292c0,1.474,0.65,2.872,1.776,3.822l131.581,110.989c0.074,0.062,0.157,0.106,0.233,0.163c0.114,0.085,0.227,0.168,0.348,0.244
	c0.149,0.093,0.302,0.173,0.458,0.249c0.12,0.059,0.238,0.119,0.363,0.168c0.181,0.071,0.365,0.123,0.552,0.171
	c0.112,0.029,0.22,0.067,0.336,0.088c0.308,0.059,0.619,0.094,0.931,0.094c0.001,0,0.002,0,0.003,0c0,0,0,0,0,0s0,0,0,0
	c0.313,0,0.626-0.036,0.935-0.094c0.113-0.021,0.219-0.058,0.328-0.087C251.453,437.714,251.64,437.662,251.824,437.589z
	 M376.581,319.632L255,422.186V298.223l32.484,27.57c0.933,0.792,2.084,1.188,3.235,1.188c1.146,0,2.292-0.393,3.224-1.178
	l82.638-69.706V319.632z M381.571,182.98l32.989,27.999l-123.83,104.451l-32.989-27.998L381.571,182.98z M118.429,182.98
	l123.83,104.452l-32.989,27.998L85.44,210.979L118.429,182.98z M123.419,256.098l82.637,69.705c0.931,0.785,2.077,1.178,3.224,1.178
	c1.151,0,2.302-0.396,3.235-1.188L245,298.223v123.963L123.419,319.632V256.098z M166.891,83.109
	c0-23.058,9.223-44.49,25.969-60.351c2.004-1.9,5.169-1.813,7.068,0.191c1.899,2.005,1.813,5.17-0.192,7.068
	c-14.732,13.953-22.846,32.808-22.846,53.091c0,40.313,32.797,73.109,73.109,73.109s73.109-32.797,73.109-73.109S290.313,10,250,10
	c-5.483,0-10.95,0.609-16.25,1.811c-2.692,0.614-5.371-1.077-5.981-3.771c-0.611-2.692,1.077-5.371,3.771-5.981
	C237.563,0.692,243.774,0,250,0c45.827,0,83.109,37.283,83.109,83.109S295.827,166.219,250,166.219S166.891,128.936,166.891,83.109z
	 M208.908,16.479c-1.298-2.437-0.375-5.465,2.063-6.763c1.307-0.696,2.643-1.362,3.972-1.981c2.503-1.164,5.478-0.079,6.643,2.423
	c1.166,2.503,0.081,5.478-2.422,6.644c-1.168,0.543-2.343,1.129-3.492,1.741c-0.749,0.398-1.553,0.588-2.346,0.588
	C211.537,19.131,209.807,18.169,208.908,16.479z M281.093,123.99c-7.324,5.65-15.848,9.128-24.795,10.228l3.384,3.346
	c1.964,1.941,1.982,5.107,0.041,7.071c-0.978,0.989-2.267,1.484-3.556,1.484c-1.271,0-2.541-0.48-3.515-1.444l-12.046-11.909
	c-0.074-0.073-0.126-0.159-0.195-0.235c-0.12-0.134-0.238-0.269-0.343-0.415c-0.093-0.13-0.173-0.264-0.252-0.4
	c-0.083-0.142-0.163-0.284-0.231-0.434c-0.067-0.147-0.121-0.297-0.174-0.449c-0.053-0.154-0.103-0.307-0.141-0.466
	c-0.038-0.158-0.061-0.317-0.083-0.478c-0.022-0.159-0.042-0.316-0.049-0.478c-0.007-0.177,0.003-0.353,0.015-0.529
	c0.007-0.104-0.005-0.206,0.009-0.312c0.006-0.047,0.024-0.089,0.032-0.136c0.028-0.179,0.076-0.352,0.123-0.528
	c0.04-0.146,0.074-0.293,0.126-0.433c0.056-0.151,0.131-0.295,0.202-0.442c0.074-0.151,0.143-0.303,0.231-0.445
	c0.075-0.122,0.167-0.234,0.253-0.351c0.113-0.151,0.225-0.302,0.354-0.439c0.03-0.032,0.051-0.07,0.082-0.102l11.908-12.046
	c1.941-1.963,5.107-1.981,7.071-0.04c1.964,1.941,1.982,5.107,0.041,7.071l-3.406,3.445c6.78-1.025,13.227-3.75,18.805-8.053
	c8.652-6.675,14.188-16.318,15.587-27.155c1.399-10.838-1.505-21.571-8.179-30.224s-16.318-14.188-27.155-15.587
	c-22.365-2.892-42.922,12.964-45.81,35.334c-2.11,16.344,5.723,32.275,19.955,40.587c2.385,1.393,3.189,4.454,1.796,6.839
	c-1.392,2.384-4.455,3.188-6.839,1.796c-17.709-10.342-27.455-30.165-24.83-50.502c3.594-27.841,29.175-47.563,57.008-43.972
	c13.486,1.741,25.488,8.63,33.793,19.397s11.92,24.124,10.179,37.611C298.749,103.684,291.86,115.685,281.093,123.99z"/>
</svg>
