<?xml version="1.0" encoding="utf-8"?>
<!-- Generator: Adobe Illustrator 22.0.0, SVG Export Plug-In . SVG Version: 6.00 Build 0)  -->
<svg version="1.1" id="Layer_1" xmlns="http://www.w3.org/2000/svg" xmlns:xlink="http://www.w3.org/1999/xlink" x="0px" y="0px"
	 viewBox="0 0 500 500" style="enable-background:new 0 0 500 500;" xml:space="preserve">
<style type="text/css">
	.st0{fill:#AAB1BA;}
	.st1{fill:#FDDF7F;}
	.st2{fill:#83E1E5;}
	.st3{fill:#ECF4F7;}
	.st4{fill:#1C1D21;}
	.st5{fill:none;stroke:#1C1D21;stroke-width:10;stroke-linecap:round;stroke-linejoin:round;stroke-miterlimit:10;}
</style>
<g>
	<path class="st2" d="M149.393,351.111V111.215c0-13.407,10.868-24.275,24.275-24.275h152.726c13.407,0,24.275,10.868,24.275,24.275
		v239.896c0,13.407-10.868,24.275-24.275,24.275H173.668C160.261,375.386,149.393,364.518,149.393,351.111z"/>
</g>
<g>
	<path class="st0" d="M318.93,222.295c0-38.052-30.847-68.899-68.899-68.899s-68.899,30.847-68.899,68.899
		c0,32.909,23.08,60.412,53.932,67.249c-0.059,0.542-0.094,1.092-0.094,1.65v34.501c0,8.319,6.744,15.062,15.062,15.062
		c8.319,0,15.062-6.744,15.062-15.062v-34.501c0-0.558-0.035-1.107-0.094-1.65C295.85,282.706,318.93,255.204,318.93,222.295z"/>
</g>
<g>
	<path class="st3" d="M195.129,88.876c0-0.65-0.02-1.295-0.049-1.937h-21.412c-13.407,0-24.276,10.868-24.276,24.275v19.526
		c1.22,0.107,2.453,0.172,3.701,0.172C176.309,130.912,195.129,112.092,195.129,88.876z"/>
</g>
<g>
	<path class="st3" d="M346.968,130.912c1.248,0,2.48-0.065,3.701-0.172v-19.526c0-13.407-10.869-24.275-24.276-24.275h-21.412
		c-0.029,0.643-0.049,1.288-0.049,1.937C304.932,112.092,323.753,130.912,346.968,130.912z"/>
</g>
<g>
	<path class="st3" d="M153.094,331.413c-1.248,0-2.481,0.065-3.701,0.172v19.526c0,13.407,10.869,24.275,24.276,24.275h21.412
		c0.029-0.643,0.049-1.288,0.049-1.937C195.129,350.233,176.309,331.413,153.094,331.413z"/>
</g>
<g>
	<path class="st3" d="M350.669,351.111v-19.526c-1.22-0.107-2.453-0.172-3.701-0.172c-23.216,0-42.036,18.82-42.036,42.036
		c0,0.65,0.02,1.295,0.049,1.937h21.412C339.801,375.386,350.669,364.518,350.669,351.111z"/>
</g>
<g>
	<g>
		<path class="st1" d="M304.98,86.939h-25.853V59.981c0-16.061-13.066-29.128-29.127-29.128s-29.128,13.067-29.128,29.128v26.958
			H195.02V59.981C195.02,29.664,219.684,5,249.999,5c30.317,0,54.981,24.664,54.981,54.981V86.939z"/>
	</g>
</g>
<g>
	<path class="st1" d="M363.891,271.212L363.891,271.212c-7.351,0-13.31,5.959-13.31,13.31v78.758h26.621v-78.758
		C377.201,277.172,371.242,271.212,363.891,271.212z"/>
</g>
<g>
	<path class="st1" d="M327.065,495v-26.961c0-10.365,4.117-20.305,11.446-27.634l53.865-53.865
		c7.329-7.329,11.446-17.269,11.446-27.634v-74.384c0-7.351-5.959-13.31-13.31-13.31c-7.351,0-13.311,5.959-13.311,13.31v38.783
		c0,11.945-5.463,23.235-14.831,30.647l-76.39,60.442c-9.33,7.382-14.789,18.613-14.831,30.51L270.973,495"/>
</g>
<g>
	<path class="st1" d="M136.109,271.212L136.109,271.212c7.351,0,13.31,5.959,13.31,13.31v78.758h-26.621v-78.758
		C122.799,277.172,128.758,271.212,136.109,271.212z"/>
</g>
<g>
	<path class="st1" d="M172.935,495v-26.961c0-10.365-4.117-20.305-11.446-27.634l-53.865-53.865
		c-7.329-7.329-11.446-17.269-11.446-27.634v-74.384c0-7.351,5.959-13.31,13.31-13.31c7.351,0,13.311,5.959,13.311,13.31v38.783
		c0,11.945,5.463,23.235,14.831,30.647l76.39,60.442c9.33,7.382,14.789,18.613,14.831,30.51L229.027,495"/>
</g>
<g>
	<path class="st1" d="M252.895,216.329h-2.864h-2.864c-1.019,0-1.847-0.829-1.847-1.848v-6.772c0-1.019,0.828-1.848,1.847-1.848
		h13.54c3.294,0,5.964-2.671,5.964-5.966c0-3.295-2.67-5.966-5.964-5.966h-3.735v-6.065c0-3.295-2.67-5.966-5.964-5.966
		s-5.964,2.671-5.964,5.966v6.229c-6.591,1.025-11.652,6.74-11.652,13.616v6.772c0,7.599,6.18,13.781,13.776,13.781h2.864h2.864
		c1.019,0,1.847,0.829,1.847,1.848v6.772c0,1.019-0.828,1.848-1.847,1.848h-13.54c-3.294,0-5.964,2.671-5.964,5.966
		c0,3.295,2.67,5.966,5.964,5.966h5.688v6.065c0,3.295,2.67,5.966,5.964,5.966s5.964-2.671,5.964-5.966v-6.681
		c5.612-1.743,9.699-6.985,9.699-13.164v-6.772C266.671,222.51,260.491,216.329,252.895,216.329z"/>
</g>
<path class="st4" d="M390.512,266.212c-5.245,0-9.969,2.229-13.311,5.775c-3.341-3.546-8.065-5.775-13.311-5.775
	c-2.958,0-5.746,0.721-8.222,1.972V130.741v-19.526c0-16.143-13.133-29.275-29.275-29.275H309.98V59.981
	C309.98,26.907,283.073,0,249.999,0c-33.073,0-59.979,26.907-59.979,59.981v21.958h-16.352c-16.143,0-29.275,13.133-29.275,29.275
	v19.526v22.655c0,2.761,2.238,5,5,5s5-2.239,5-5v-17.517c24.313-0.664,44.069-19.857,45.626-43.94h20.849c0.002,0,0.003,0,0.005,0
	s0.003,0,0.005,0h58.246c0.002,0,0.003,0,0.005,0s0.003,0,0.005,0h20.91c1.557,24.083,21.314,43.275,45.626,43.94v146.89
	c-0.055,0.578-0.089,1.162-0.089,1.754v41.925c-24.271,0.709-43.982,19.884-45.537,43.938H200.018
	c-1.556-24.075-21.298-43.262-45.598-43.94v-41.924c0-0.182-0.022-0.359-0.027-0.54v-88.65c0-2.761-2.238-5-5-5s-5,2.239-5,5v72.881
	c-2.491-1.27-5.301-2.002-8.283-2.002c-5.245,0-9.969,2.229-13.311,5.775c-3.341-3.546-8.065-5.775-13.311-5.775
	c-10.097,0-18.311,8.214-18.311,18.311v74.384c0,11.774,4.585,22.844,12.911,31.169l53.865,53.865
	c6.437,6.437,9.981,14.995,9.981,24.098V495c0,2.761,2.238,5,5,5s5-2.239,5-5v-26.96c0-11.774-4.585-22.844-12.911-31.169
	l-53.865-53.865c-6.437-6.437-9.981-14.995-9.981-24.098v-74.384c0-4.583,3.729-8.311,8.311-8.311s8.311,3.728,8.311,8.311V312
	v11.306c0,13.556,6.098,26.156,16.729,34.568l76.391,60.442c8.183,6.475,12.896,16.172,12.934,26.606l0.176,50.096
	c0.01,2.755,2.246,4.982,5,4.982c0.006,0,0.012,0,0.018,0c2.762-0.01,4.992-2.256,4.982-5.018l-0.176-50.096
	c-0.048-13.496-6.145-26.039-16.729-34.413l-38.027-30.087h15.984h109.901h15.922l-38.027,30.087
	c-10.584,8.374-16.681,20.917-16.729,34.413l-0.176,50.096c-0.01,2.761,2.221,5.008,4.982,5.018c0.006,0,0.012,0,0.018,0
	c2.753,0,4.99-2.227,5-4.982l0.176-50.096c0.037-10.434,4.751-20.132,12.934-26.606l76.391-60.442
	c10.631-8.412,16.729-21.012,16.729-34.568v-6.556v-32.227c0-4.583,3.729-8.311,8.311-8.311s8.311,3.728,8.311,8.311v74.384
	c0,9.103-3.545,17.661-9.981,24.098l-53.865,53.865c-8.326,8.326-12.911,19.395-12.911,31.169V495c0,2.761,2.238,5,5,5s5-2.239,5-5
	v-26.96c0-9.103,3.545-17.662,9.981-24.098l53.865-53.865c8.326-8.325,12.911-19.395,12.911-31.169v-74.384
	C408.822,274.426,400.608,266.212,390.512,266.212z M249.999,10c27.56,0,49.981,22.421,49.981,49.981v21.958h-15.853V59.981
	c0-18.818-15.31-34.128-34.127-34.128c-18.818,0-34.129,15.31-34.129,34.128v21.958H200.02V59.981
	C200.02,32.421,222.44,10,249.999,10z M274.128,81.939h-48.256V59.981c0-13.304,10.824-24.128,24.129-24.128
	c13.304,0,24.127,10.824,24.127,24.128V81.939z M154.393,125.89v-14.675c0-10.628,8.646-19.275,19.275-19.275h16.336
	C188.477,110.508,173.192,125.238,154.393,125.89z M310.058,91.939h16.336c10.629,0,19.275,8.647,19.275,19.275v14.675
	C326.869,125.238,311.585,110.508,310.058,91.939z M127.799,323.306v-38.783c0-4.583,3.729-8.311,8.311-8.311
	c4.4,0,8.003,3.44,8.283,7.771v47.602v19.526c0,0.362,0.014,0.72,0.027,1.078v0.76l-3.688-2.918
	C132.513,343.528,127.799,333.787,127.799,323.306z M173.668,370.386c-10.447,0-18.958-8.358-19.248-18.735v-15.214
	c18.787,0.665,34.057,15.389,35.584,33.949H173.668z M345.58,336.441v16.425c-0.89,9.808-9.15,17.521-19.187,17.521h-16.336
	C311.583,351.847,326.821,337.136,345.58,336.441z M359.268,350.032l-3.661,2.896c0.037-0.602,0.062-1.206,0.062-1.817v-19.526
	v-48.21c0.562-4.04,4.03-7.162,8.222-7.162c4.582,0,8.311,3.728,8.311,8.311v38.783
	C372.201,333.787,367.487,343.528,359.268,350.032z M251.007,272.693c8.803,0,15.964-7.162,15.964-15.966v-0.66
	c5.998-4.381,9.699-11.411,9.699-19.185v-6.772c0-6.624-2.721-12.623-7.104-16.939c4.281-2.867,7.104-7.748,7.104-13.276
	c0-6.672-4.113-12.402-9.937-14.785c-1.308-7.496-7.863-13.213-15.727-13.213c-8.606,0-15.644,6.847-15.954,15.381
	c-7.008,4.205-11.662,11.911-11.662,20.431v6.772c0,6.624,2.721,12.623,7.104,16.939c-4.281,2.867-7.104,7.748-7.104,13.276
	c0,7.445,5.121,13.716,12.026,15.475C236.995,267.325,243.386,272.693,251.007,272.693z M233.391,244.695
	c0-3.295,2.67-5.966,5.964-5.966h13.54c1.019,0,1.847-0.829,1.847-1.848v-6.772c0-1.019-0.829-1.848-1.847-1.848h-2.864h-2.864
	c-7.596,0-13.775-6.182-13.775-13.781v-6.772c0-6.876,5.061-12.592,11.652-13.616v-6.229c0-3.295,2.67-5.966,5.964-5.966
	c3.294,0,5.964,2.671,5.964,5.966v6.065h3.735c3.294,0,5.964,2.671,5.964,5.966s-2.67,5.966-5.964,5.966h-13.54
	c-1.019,0-1.847,0.829-1.847,1.848v6.772c0,1.019,0.828,1.848,1.847,1.848h2.864h2.864c7.596,0,13.775,6.182,13.775,13.781v6.772
	c0,6.18-4.087,11.422-9.699,13.164v6.681c0,3.295-2.67,5.966-5.964,5.966c-3.294,0-5.964-2.671-5.964-5.966v-6.065h-5.688
	C236.062,250.662,233.391,247.991,233.391,244.695z M144.393,178v-5.085c0-2.761,2.238-5,5-5s5,2.239,5,5V178c0,2.761-2.238,5-5,5
	S144.393,180.761,144.393,178z M250.031,345.757c11.063,0,20.063-9,20.063-20.062v-32.28c14.568-4.113,27.702-12.731,37.32-24.565
	c10.65-13.104,16.516-29.638,16.516-46.555c0-40.748-33.15-73.899-73.898-73.899s-73.899,33.151-73.899,73.899
	c0,16.917,5.865,33.451,16.517,46.555c9.618,11.834,22.752,20.452,37.32,24.565v32.28
	C229.969,336.757,238.969,345.757,250.031,345.757z M186.132,222.295c0-35.234,28.665-63.899,63.899-63.899
	c35.233,0,63.898,28.665,63.898,63.899c0,29.716-21.033,55.945-50.013,62.368c-2.491,0.552-4.167,2.891-3.888,5.427
	c0.043,0.397,0.064,0.758,0.064,1.104v34.501c0,5.548-4.514,10.062-10.063,10.062s-10.063-4.514-10.063-10.062v-34.501
	c0-0.339,0.021-0.703,0.065-1.113c0.274-2.534-1.401-4.867-3.889-5.418C207.166,278.24,186.132,252.011,186.132,222.295z"/>
</svg>
