<?xml version="1.0" encoding="utf-8"?>
<!-- Generator: Adobe Illustrator 22.0.0, SVG Export Plug-In . SVG Version: 6.00 Build 0)  -->
<svg version="1.1" id="Layer_1" xmlns="http://www.w3.org/2000/svg" xmlns:xlink="http://www.w3.org/1999/xlink" x="0px" y="0px"
	 viewBox="0 0 500 500" style="enable-background:new 0 0 500 500;" xml:space="preserve">
<style type="text/css">
	.st0{fill:#AAB1BA;}
	.st1{fill:#FDDF7F;}
	.st2{fill:#83E1E5;}
	.st3{fill:#ECF4F7;}
	.st4{fill:#1C1D21;}
	.st5{fill:none;stroke:#1C1D21;stroke-width:10;stroke-linecap:round;stroke-linejoin:round;stroke-miterlimit:10;}
</style>
<g>
	<path class="st2" d="M291.84,152.297h-83.68v-40.824c0-39.205,14.726-76.98,41.259-105.841L250,5l0.581,0.632
		c26.534,28.861,41.259,66.636,41.259,105.841V152.297z"/>
</g>
<g>
	<path class="st1" d="M270.608,400.006L270.608,400.006c12.348,16.127,14.242,37.084,4.957,54.846l-18.867,36.092
		c-2.827,5.408-10.568,5.408-13.395,0l-18.867-36.092c-9.285-17.762-7.391-38.718,4.957-54.846l0,0"/>
</g>
<g>
	<path class="st2" d="M208.16,337.365v50.163c0,6.891,5.587,12.478,12.478,12.478h58.724c6.891,0,12.478-5.587,12.478-12.478
		v-50.163H208.16z"/>
</g>
<g>
	<path class="st2" d="M153.51,398.655v35.935l54.65-54.65v-42.574h-20.067l-15.699,15.699
		C160.303,365.156,153.51,381.555,153.51,398.655z"/>
</g>
<g>
	<path class="st2" d="M346.49,398.655v35.935l-54.65-54.65v-42.574h20.067l15.699,15.699
		C339.697,365.156,346.49,381.555,346.49,398.655z"/>
</g>
<g>
	<path class="st1" d="M355.217,337.365H144.783c-8.108,0-14.681-6.573-14.681-14.681V166.979c0-8.108,6.573-14.681,14.681-14.681
		h210.435c8.108,0,14.682,6.573,14.682,14.681v155.705C369.899,330.792,363.326,337.365,355.217,337.365z"/>
</g>
<g>
	<path class="st1" d="M250.581,5.632L250,5l-0.581,0.632c-11.951,12.999-21.497,27.81-28.39,43.742
		c8.112,5.969,18.127,9.502,28.971,9.502c10.844,0,20.859-3.533,28.971-9.502C272.078,33.442,262.531,18.631,250.581,5.632z"/>
</g>
<g>
	<circle class="st3" cx="250" cy="104.908" r="20.065"/>
</g>
<g>
	<path class="st0" d="M269.509,215.019h-39.018c-8.018,0-14.518-6.5-14.518-14.518v0c0-8.018,6.5-14.518,14.518-14.518h39.018
		c8.018,0,14.518,6.5,14.518,14.518v0C284.027,208.519,277.527,215.019,269.509,215.019z"/>
</g>
<g>
	<rect x="236.542" y="152.297" class="st2" width="26.915" height="33.686"/>
</g>
<g>
	<rect x="236.542" y="303.68" class="st2" width="26.915" height="33.686"/>
</g>
<g>
	<polygon class="st2" points="302.87,252.5 324.455,284.568 346.04,252.5 	"/>
</g>
<g>
	<polygon class="st2" points="197.13,257.162 175.545,225.094 153.96,257.162 	"/>
</g>
<path class="st4" d="M250,79.844c-13.82,0-25.064,11.244-25.064,25.064S236.18,129.973,250,129.973s25.064-11.244,25.064-25.064
	S263.82,79.844,250,79.844z M250,119.973c-8.307,0-15.064-6.758-15.064-15.064S241.693,89.844,250,89.844
	s15.064,6.758,15.064,15.064S258.307,119.973,250,119.973z M324.455,220.095c-2.762,0-5,2.238-5,5V247.5H302.87
	c-1.848,0-3.545,1.019-4.414,2.65c-0.868,1.631-0.766,3.608,0.267,5.142l21.585,32.068c0.929,1.38,2.483,2.208,4.147,2.208
	s3.219-0.828,4.147-2.208l21.585-32.068c1.032-1.533,1.135-3.511,0.267-5.142c-0.869-1.631-2.566-2.65-4.414-2.65h-16.585v-22.405
	C329.455,222.333,327.217,220.095,324.455,220.095z M324.455,275.613L312.263,257.5h24.385L324.455,275.613z M175.545,289.568
	c2.762,0,5-2.239,5-5v-22.406h16.585c1.848,0,3.545-1.019,4.414-2.65c0.868-1.631,0.766-3.608-0.267-5.142l-21.585-32.067
	c-0.929-1.381-2.483-2.208-4.147-2.208s-3.219,0.827-4.147,2.208l-21.585,32.067c-1.032,1.533-1.135,3.511-0.267,5.142
	c0.869,1.631,2.566,2.65,4.414,2.65h16.585v22.406C170.545,287.329,172.783,289.568,175.545,289.568z M175.545,234.049
	l12.192,18.113h-24.385L175.545,234.049z M125.102,221v-5.98c0-2.762,2.238-5,5-5s5,2.238,5,5V221c0,2.762-2.238,5-5,5
	S125.102,223.762,125.102,221z M355.218,147.297H296.84v-35.824c0-33.69-10.437-66.148-29.699-93.293
	c-0.071-0.1-0.141-0.201-0.213-0.3c-0.528-0.74-1.063-1.476-1.604-2.208c-0.198-0.268-0.396-0.535-0.595-0.801
	c-0.461-0.617-0.927-1.231-1.398-1.842c-0.292-0.378-0.586-0.755-0.881-1.131c-0.412-0.525-0.825-1.049-1.244-1.57
	c-0.372-0.462-0.749-0.919-1.126-1.377c-0.367-0.445-0.732-0.892-1.104-1.334c-0.468-0.556-0.943-1.105-1.418-1.656
	c-0.301-0.348-0.598-0.699-0.902-1.045c-0.743-0.845-1.495-1.682-2.257-2.512c-0.047-0.051-0.092-0.104-0.139-0.155c0,0,0,0,0,0
	l-0.581-0.632c-0.474-0.515-1.044-0.918-1.671-1.194C251.382,0.146,250.699,0,250,0s-1.382,0.146-2.009,0.421
	c-0.627,0.275-1.198,0.679-1.671,1.194l-0.334,0.363l-0.247,0.269c-0.03,0.033-0.06,0.067-0.09,0.1
	c-0.779,0.849-1.549,1.707-2.309,2.571c-0.299,0.34-0.59,0.685-0.886,1.027c-0.48,0.556-0.961,1.111-1.433,1.673
	c-0.37,0.439-0.733,0.884-1.098,1.327c-0.378,0.459-0.757,0.919-1.13,1.382c-0.42,0.522-0.835,1.048-1.248,1.575
	c-0.292,0.373-0.584,0.745-0.873,1.12c-0.473,0.614-0.942,1.232-1.406,1.853c-0.197,0.263-0.393,0.527-0.588,0.791
	c-0.543,0.735-1.08,1.474-1.61,2.217c-0.068,0.096-0.136,0.193-0.204,0.289c-19.264,27.146-29.704,59.607-29.704,93.3v35.824
	h-58.378c-10.852,0-19.681,8.829-19.681,19.682v30.354c0,2.762,2.238,5,5,5s5-2.238,5-5v-30.354c0-5.338,4.343-9.682,9.681-9.682
	h63.378h23.382v23.686h-1.051c-10.763,0-19.519,8.756-19.519,19.519s8.756,19.519,19.519,19.519h39.018
	c10.763,0,19.519-8.756,19.519-19.519s-8.756-19.519-19.519-19.519h-1.051v-23.686h23.382h63.378c5.338,0,9.681,4.343,9.681,9.682
	v155.705c0,5.338-4.343,9.682-9.681,9.682h-43.311H291.84h-23.382V303.68c0-2.762-2.238-5-5-5h-26.916c-2.762,0-5,2.238-5,5v28.686
	H208.16h-20.067h-43.311c-5.338,0-9.681-4.343-9.681-9.682V237c0-2.762-2.238-5-5-5s-5,2.238-5,5v85.684
	c0,10.853,8.829,19.682,19.681,19.682h31.24l-7.164,7.163c-13.122,13.123-20.349,30.569-20.349,49.126v35.935
	c0,2.022,1.218,3.845,3.087,4.619c0.618,0.256,1.268,0.381,1.912,0.381c1.301,0,2.58-0.508,3.536-1.465l46.595-46.596
	c1.788,7.594,8.53,13.284,16.62,13.458c-8.697,16.274-8.956,35.539-0.256,52.181l18.867,36.092c2.173,4.157,6.437,6.74,11.128,6.74
	s8.955-2.583,11.128-6.74l18.867-36.092c8.701-16.642,8.441-35.907-0.256-52.181c8.09-0.174,14.832-5.864,16.62-13.458
	l46.595,46.596c0.956,0.957,2.235,1.465,3.536,1.465c0.645,0,1.294-0.125,1.912-0.381c1.869-0.774,3.087-2.597,3.087-4.619v-35.935
	c0-18.557-7.227-36.003-20.349-49.126l-7.163-7.163h31.24c10.852,0,19.681-8.829,19.681-19.682V166.979
	C374.898,156.126,366.069,147.297,355.218,147.297z M259.638,24.892c0,0,0.001,0.001,0.001,0.001
	c4.984,7.151,9.343,14.729,13.042,22.678c-6.83,4.137-14.595,6.305-22.682,6.305s-15.852-2.168-22.682-6.305
	c5.125-11.015,11.524-21.312,19.09-30.753c0.171-0.213,0.344-0.426,0.516-0.639c1.007-1.243,2.028-2.474,3.076-3.686
	c1.042,1.206,2.059,2.431,3.061,3.667c0.182,0.225,0.365,0.45,0.546,0.675C255.706,19.457,257.721,22.141,259.638,24.892z
	 M279.027,200.501c0,5.249-4.27,9.519-9.519,9.519h-39.018c-5.249,0-9.519-4.27-9.519-9.519s4.27-9.519,9.519-9.519h6.051h26.916
	h6.051C274.758,190.982,279.027,195.252,279.027,200.501z M258.458,180.982h-16.916v-23.686h16.916V180.982z M263.458,147.297
	h-26.916H213.16v-35.824c0-18.9,3.507-37.385,10.184-54.64c8.094,4.623,17.195,7.043,26.656,7.043c9.461,0,18.562-2.42,26.655-7.043
	c6.677,17.256,10.185,35.741,10.185,54.64v35.824H263.458z M241.542,308.68h16.916v23.686h-16.916V308.68z M158.51,398.655
	c0-15.886,6.187-30.822,17.419-42.055l14.235-14.234h12.996v35.503l-44.65,44.65V398.655z M271.134,452.535l-18.867,36.092
	C251.618,489.866,250.466,490,250,490s-1.618-0.134-2.267-1.373l-18.867-36.092c-7.987-15.28-6.762-33.274,3.078-47.529h36.111
	C277.896,419.261,279.121,437.255,271.134,452.535z M286.84,387.528c0,4.123-3.354,7.478-7.478,7.478h-58.725
	c-4.123,0-7.478-3.354-7.478-7.478v-7.589v-37.574h23.382h26.916h23.382v37.574V387.528z M324.071,356.6
	c11.232,11.233,17.419,26.169,17.419,42.055v23.864l-44.65-44.65v-35.503h12.996L324.071,356.6z M135.714,362.667V396
	c0,2.762-2.238,5-5,5s-5-2.238-5-5v-33.333c0-2.762,2.238-5,5-5S135.714,359.905,135.714,362.667z M135.714,413.333v6.873
	c0,2.761-2.238,5-5,5s-5-2.239-5-5v-6.873c0-2.761,2.238-5,5-5S135.714,410.572,135.714,413.333z M176.079,447.503v25.291
	c0,2.761-2.238,5-5,5s-5-2.239-5-5v-25.291c0-2.761,2.238-5,5-5S176.079,444.742,176.079,447.503z M176.079,490.127V495
	c0,2.761-2.238,5-5,5s-5-2.239-5-5v-4.873c0-2.761,2.238-5,5-5S176.079,487.366,176.079,490.127z M135.714,440v12.5
	c0,2.761-2.238,5-5,5s-5-2.239-5-5V440c0-2.761,2.238-5,5-5S135.714,437.239,135.714,440z M374.286,362.667V396c0,2.762-2.238,5-5,5
	s-5-2.238-5-5v-33.333c0-2.762,2.238-5,5-5S374.286,359.905,374.286,362.667z M374.286,413.333v6.873c0,2.761-2.238,5-5,5
	s-5-2.239-5-5v-6.873c0-2.761,2.238-5,5-5S374.286,410.572,374.286,413.333z M333.921,447.503v25.291c0,2.761-2.238,5-5,5
	s-5-2.239-5-5v-25.291c0-2.761,2.238-5,5-5S333.921,444.742,333.921,447.503z M333.921,490.127V495c0,2.761-2.238,5-5,5
	s-5-2.239-5-5v-4.873c0-2.761,2.238-5,5-5S333.921,487.366,333.921,490.127z M374.286,440v12.5c0,2.761-2.238,5-5,5s-5-2.239-5-5
	V440c0-2.761,2.238-5,5-5S374.286,437.239,374.286,440z"/>
</svg>
