<?xml version="1.0" encoding="utf-8"?>
<!-- Generator: Adobe Illustrator 22.0.0, SVG Export Plug-In . SVG Version: 6.00 Build 0)  -->
<svg version="1.1" id="Layer_1" xmlns="http://www.w3.org/2000/svg" xmlns:xlink="http://www.w3.org/1999/xlink" x="0px" y="0px"
	 viewBox="0 0 500 500" style="enable-background:new 0 0 500 500;" xml:space="preserve">
<style type="text/css">
	.st0{fill:#83E1E5;}
	.st1{fill:#FDDF7F;}
	.st2{fill:#ECF4F7;}
	.st3{fill:#1C1D21;}
</style>
<g>
	<path class="st0" d="M327.037,495H133.705c-6.811,0-12.333-5.522-12.333-12.333V159.194c0-10.839,4.778-21.127,13.06-28.12
		l95.939-81.009l95.939,81.009c8.282,6.993,13.06,17.281,13.06,28.12v323.473C339.371,489.478,333.849,495,327.037,495z"/>
</g>
<g>
	<path class="st1" d="M236.541,303.167h-6.169h-6.17c-2.194,0-3.979-1.786-3.979-3.98V284.6c0-2.195,1.785-3.98,3.979-3.98h29.165
		c7.095,0,12.847-5.754,12.847-12.852c0-7.098-5.752-12.852-12.847-12.852h-8.045v-13.064c0-7.098-5.752-12.852-12.847-12.852
		c-7.095,0-12.847,5.754-12.847,12.852v13.418c-14.197,2.207-25.099,14.518-25.099,29.33v14.587
		c0,16.368,13.312,29.684,29.673,29.684h6.17h6.169c2.194,0,3.979,1.786,3.979,3.98v14.587c0,2.195-1.785,3.98-3.979,3.98h-29.165
		c-7.095,0-12.847,5.754-12.847,12.852c0,7.098,5.752,12.852,12.847,12.852h12.252v13.064c0,7.098,5.752,12.852,12.847,12.852
		c7.095,0,12.847-5.754,12.847-12.852v-14.392c12.088-3.754,20.892-15.046,20.892-28.356v-14.587
		C266.214,316.483,252.902,303.167,236.541,303.167z"/>
</g>
<g>
	<circle class="st2" cx="230.371" cy="137.316" r="23.306"/>
</g>
<path class="st3" d="M116.372,248v-8.5c0-2.761,2.239-5,5-5s5,2.239,5,5v8.5c0,2.761-2.239,5-5,5S116.372,250.761,116.372,248z
	 M383.628,70.5v13.724c0,16.382-13.328,29.71-29.71,29.71c-16.382,0-29.709-13.328-29.709-29.71V54.429
	C324.21,29.926,304.283,10,279.79,10c-22.356,0-40.898,16.604-43.965,38.126l93.711,79.127c9.428,7.96,14.835,19.603,14.835,31.941
	v323.473c0,9.558-7.776,17.333-17.334,17.333H133.705c-9.558,0-17.333-7.776-17.333-17.333V269c0-2.761,2.239-5,5-5s5,2.239,5,5
	v213.667c0,4.044,3.29,7.333,7.333,7.333h193.332c4.044,0,7.334-3.29,7.334-7.333V159.194c0-9.387-4.114-18.244-11.286-24.3
	L235.371,60.83v48.631c13.23,2.369,23.306,13.953,23.306,27.854c0,15.608-12.698,28.306-28.306,28.306s-28.306-12.698-28.306-28.306
	c0-13.901,10.076-25.485,23.306-27.854V60.83l-87.714,74.063c-7.172,6.056-11.286,14.913-11.286,24.3V213.5c0,2.761-2.239,5-5,5
	s-5-2.239-5-5v-54.306c0-12.338,5.407-23.98,14.835-31.941l94.64-79.912C229.328,20.668,252.183,0,279.79,0
	c30.007,0,54.419,24.412,54.419,54.419v29.805c0,10.868,8.842,19.71,19.709,19.71c10.868,0,19.71-8.842,19.71-19.71V70.5
	c0-2.761,2.239-5,5-5S383.628,67.739,383.628,70.5z M230.371,119.01c-10.094,0-18.306,8.212-18.306,18.306
	c0,10.094,8.212,18.306,18.306,18.306c10.094,0,18.306-8.212,18.306-18.306C248.677,127.222,240.465,119.01,230.371,119.01z
	 M378.628,32c-2.761,0-5,2.239-5,5v13.065c0,2.761,2.239,5,5,5s5-2.239,5-5V37C383.628,34.239,381.39,32,378.628,32z
	 M235.52,346.419v-12.548h-11.318c-19.119,0-34.673-15.559-34.673-34.684V284.6c0-15.476,10.527-29.112,25.099-33.333v-9.415
	c0-9.843,8.006-17.852,17.847-17.852c9.841,0,17.847,8.008,17.847,17.852v8.064h3.045c9.841,0,17.847,8.008,17.847,17.852
	c0,9.843-8.006,17.852-17.847,17.852h-28.144v12.548h11.318c19.119,0,34.673,15.559,34.673,34.684v14.587
	c0,14.021-8.255,26.385-20.893,31.832v10.916c0,9.843-8.006,17.852-17.847,17.852c-9.841,0-17.847-8.008-17.847-17.852v-8.064
	h-7.251c-9.841,0-17.847-8.008-17.847-17.852s8.006-17.852,17.847-17.852H235.52z M245.52,332.851v14.587
	c0,4.952-4.028,8.98-8.979,8.98h-29.164c-4.327,0-7.847,3.522-7.847,7.852s3.52,7.852,7.847,7.852h12.251c2.761,0,5,2.239,5,5
	v13.064c0,4.33,3.52,7.852,7.847,7.852c4.327,0,7.847-3.522,7.847-7.852v-14.392c0-2.19,1.425-4.126,3.517-4.775
	c10.393-3.227,17.376-12.704,17.376-23.581v-14.587c0-13.61-11.068-24.684-24.673-24.684h-12.339c-4.951,0-8.979-4.029-8.979-8.98
	V284.6c0-4.952,4.028-8.98,8.979-8.98h29.165c4.327,0,7.847-3.522,7.847-7.852c0-4.33-3.52-7.852-7.847-7.852h-8.045
	c-2.761,0-5-2.239-5-5v-13.064c0-4.33-3.52-7.852-7.847-7.852c-4.327,0-7.847,3.522-7.847,7.852v13.418
	c0,2.465-1.796,4.562-4.232,4.94c-11.896,1.85-20.867,12.334-20.867,24.39v14.587c0,13.61,11.068,24.684,24.673,24.684h12.339
	C241.492,323.871,245.52,327.899,245.52,332.851z"/>
</svg>
