<svg width="580" height="341" viewBox="0 0 580 341" fill="none" xmlns="http://www.w3.org/2000/svg"><path fill-rule="evenodd" clip-rule="evenodd" d="M437.02 282.72c.72-1.333 1.437-2.667 2.15-4l-1.86-.72-2.31 3.8 2.02.92zM213 170.19l.51.36.32-.55-.83.19zm330.06 123.23h-2.17c6.12 7.65 4.36-3.06-.89-4.42 1.06 1.42 2.11 2.88 3.06 4.42zM419.43 45.71c-.84 1.13-1.65 2.29-2.43 3.47 3.26 1.4 2.07.42 4.77-4.18-.76.26-1.55.54-2.34.71zm-79.69 12.66a6.361 6.361 0 002.43-1.37l-3.78-1c-.1.66-.23 1.35-.39 2.05l1.74.32zM169.66 217.62c0-.21.08-.41.13-.62-.6.07-1.2.15-1.79.25l1.66.37zm-16.18-60.79c.16-.32.33-.64.5-1-.73-.27-1.45-.54-2.16-.83-.27.56-.55 1.11-.82 1.66l2.48.17zm357.31-91.42c-.34-.47-.67-.93-1-1.41-.28.75-.54 1.51-.79 2.27l1.61.71.18-1.57zM46.089 323.49a28.73 28.73 0 00.63-7.49c-6.373 0-8.8 2.783-7.28 8.35 2.21-.3 4.43-.58 6.65-.86zM288.12 108.984c12-1.48-1.21-3.88-2.12-2.64l2.12 2.64zm273.63 14.366a265.239 265.239 0 004-3.49 57.949 57.949 0 01-4.94-4.86c-.93.85-1.88 1.68-2.81 2.52 1.24 1.93 2.5 3.88 3.75 5.83zM242 210.78l1.78-.61-.3-1.17c-.52.58-1.01 1.17-1.48 1.78zm284.36-23.08a4.419 4.419 0 00-1.22-3.7c-.36 1.387-.74 2.777-1.14 4.17.78-.13 1.57-.27 2.36-.47zM257.4 263.74l.4-.74h-.8l.4.74zM121.23 163c-.08.23-.15.46-.23.69l.3-.68-.07-.01zm257.98-64.36c1-1.71.67-2.92-.92-3.64-1.1.93-2.19 1.85-3.29 2.76 1.36 2.35 2.73 2.64 4.21.88zm81.54-21.09c-1.27-6-1.28-4.72-7.75-3.62.54 4.22 3.123 5.427 7.75 3.62zM310 249.465c-1 .25-2 .48-3 .72 3.653 7.373 9.417 9.04 17.29 5-.507-5.253-5.27-7.16-14.29-5.72zm-83-6.225c.83.42 1.42.34 1.79-.24l-1.79.18v.06zM74.18 143.21a1.472 1.472 0 010-.21l-.18.07.18.14zM88 223l.05.17h.11L88 223zM23.42 32.05c-2.67.45-5.58 1.48-8.42 2 .62 2.487 2.62 4.117 6 4.89v-2.7a15.655 15.655 0 004.14 1.29c-.12-2.44-.88-7.28-3.59-7.53.62.7 1.25 1.37 1.87 2.05zm379.47 277.696c2-8.18-8.71-11.27-9.89-2.35 3.33.67 6.64 1.45 9.89 2.35zM199 149.39l.49.16-.34-.55c-.05.13-.11.26-.15.39zM494.27 22c-.43.76-.85 1.52-1.27 2.29 1.09.35 1.88-.28 2.38-1.9l-1.11-.39zM185.13 235.54l-1.75-.54c-.15.58-.28 1.18-.38 1.79l2.39-.71-.26-.54zM60 229.37l.72-.13-.52-.24-.2.37zm296-98.84c.87 2.27 1.74 4.54 2.59 6.81a49.44 49.44 0 012.77-4.51c-1.17-1.25-2.33-2.53-3.46-3.83l-1.9 1.53zM475.299 194c-2.56 3.333-1.337 6.313 3.67 8.94 2.65-3.13-.5-6.65-3.67-8.94zM103.214 84c-1.5.587-1.61 2.177-.33 4.77a18.116 18.116 0 005.08-1.36 106.276 106.276 0 01-4.75-3.41zm168.906 93.6c-.37-.53-.74-1.07-1.12-1.6v2.38a8.095 8.095 0 011.12-.78zM135 270c.3 1.38 1.35 2.74 2.38.88L135 270z" fill="#000"/></svg>