<svg width="138" height="125" viewBox="0 0 138 125" fill="none" xmlns="http://www.w3.org/2000/svg"><path fill-rule="evenodd" clip-rule="evenodd" d="M137.37 64.902l-.33.918.496.238c.106.384.689.79.334 1.309-.319.467.525.96-.12 1.34.11.98-.58 1.686-1.035 2.37-.412.621-.513 1.397-1.136 1.936-.542.47-.847 1.213-1.258 1.839l-1.151.05.244.779-.548.618.415 1.274-.659.752.645.23-.895.635.279.327c-.981.365-1.855-.514-2.938-.09-.669.483-1.165 1.467-2.158 1.83-.384.142-.056.844-.712.761-.234-.029-.061.724-.609.577-.205.682-.813.956-1.293 1.386-.399.355-.762.819-1.083 1.283-.268.386-.553.76-.836 1.135-.256.34-.557.652-.768 1.017-.18.312-.164.844-.407.985-.326.19-.549.394-.618.834l-.714-.426c-.612.3-1.226.585-1.836-.164v-1.557c-1.173-.66-2.399-1.237-2.948-2.73.043-.493-.196-1.191.278-1.768-.689-1.374-.091-2.538.572-3.684.797-1.379 1.844-2.556 3.071-3.641-.722-1.083-1.476-2.091-2.091-3.178-.423-.748-.89-1.563-.913-2.418-.024-.886-.303-1.811.225-2.71.236-.402.009-.985.274-1.515.159-.319.257-.673.502-.978.132-.165.126-.44.235-.878.244-.226.856-.532.984-.976.185-.644 1.01-.399.998-1.153l.455.345 1.13-.334.42.796-.988 1.789 1.782-.177c.197.198.302.302.419.418l-.661 1.3 1.273.13-.328 1.566-.604.54c.133.133.188.204.2.197.193-.107.382-.224.612-.363l.189.5c-.42.213-.819.416-1.274.645l.688.23-1.076 1.08c.522.41.984.776 1.479 1.167.73.14 1.316-.169 1.889-.664 1.327-1.146 2.786-2.146 4.094-3.297 1.338-1.18 2.762-2.335 3.715-3.915.223-.37.615-.637.951-.973h1.56l.385.486-.574 1.64 1.356-.374.412.711M43.276 96.129l-1.387.43.31-.667c-.34-.513-.725-.971-1.43-.87l-.137-.527h-1.225c-.123-.123-.229-.18-.256-.264-.188-.566-.228-1.238-.568-1.681-.438-.57-.22-1.13-.24-1.682-.017-.45.164-.908.274-1.359a19.676 19.676 0 011.788-4.595 24.111 24.111 0 011.607-2.593c.576-.808 1.25-1.546 1.901-2.339-.176-.113-.37-.245-.571-.364-1.945-1.15-3.648-2.599-5.228-4.204-.745-.758-.75-1.776-.967-2.712-.087-.374-.014-.787-.014-1.182.399-.76 1.202-.825 1.98-1.134l.837 1.471.312-.23c.102.102.28.2.33.342.31.882 1.03 1.33 1.795 1.712 1.557.778 3.127 1.525 4.799 2.337.39-.413.781-1.047 1.349-1.364.523-.292.55-1.13 1.366-1.049l-.318-.39.856-.6.448-.986.824-.048-.335-.431c.63-.092.672-.744 1.068-1.094.419-.37.715-.879 1.112-1.388l.355.261.24-.567c.107.086.206.165.384.31.195-1.041.785-1.876 1.412-2.627.647-.774 1.228-1.663 2.286-2.181l.512.42c-.418.803-.823 1.6-1.68 2.019v1.185c.203-.05.409-.04.452-.12.171-.32.292-.667.36-.83l2.007-1.653.094 1.262c-.222.09-.39.16-.567.233.045.063.102.186.133.18.36-.074.716-.168 1.154-.276.123.219.275.485.427.752l-.284.315c.062.43.578.808.179 1.3l-.325-.294c-.05.091-.144.189-.125.25.055.174.156.334.27.559-.081.753-.683 1.253-1.241 1.761-.529.481-1.11.904-1.79 1.449l.797.458-.383.734.304.335-.984.16.302.767h-.987l-.496 1.015.383.412-.969.18.286.75-.882.13.33.889-1.007-.391-.481.918c.056.107.079.225.145.262.118.064.278.052.395.117.454.254.56.84 1.006 1.092.481.272.69.739.997 1.154.276.374.481.69.45 1.163-.01.162.134.334.224.537l-.343.582c-.401.047-.693.583-1.424.3-1.277-.495-2.606-.939-3.993-1.106-.077-.01-.14-.132-.267-.258l-1.314 1.481-.064.54-.978.153c.28.391.487.684.798 1.12-.35-.103-.585-.17-.881-.258l-.322.38c.172.475.034.765-.522 1.081l-.46 1.652-.572.211.325.325c-.444.34-.952.614-1.296 1.026-.31.371-.44.893-.68 1.42l.274.412-.956.985.362.451-.67.766v.865l-.98.943m36.463 5.908c.685.829.685.83 1.517.371.023.265.015.496.072.71.04.151.169.278.252.407l-.265.265.729.341-.973 1.385c.41.736-.456.867-.58 1.261-.193.609-.933.74-.954 1.391-.025.759-.803.852-1.142 1.294-.293.385-.815.636-.883 1.126.117.2.21.358.361.619l-1.204.682-.925.437-.937 1.106v.29l-2.857 2.101.766.391-1.264 1.768 3.315 1.132-.326.656 1.478.527v.645l.92.846c.02.348.036.681.053.999l.538.537-1.364 1.135c-.322.358-.657.292-1.016.053a.739.739 0 00-.396-.111c-1.53.034-2.914-.549-4.307-1.058-1.028-.375-2.017-.855-3.082-1.314-.291.289-.744.509-.802 1.107l-1.837.436-.791-.801.33-.364-.4-.83-1.26.195c-.22-.433-.416-.824-.618-1.224l-.193.194-1.115-1.132c.142-1.029-.517-2.21-.34-3.487.037-.268-.168-.655-.383-.857-.875-.821-.913-2.007-1.324-3.017-.157-.385-.324-.875-.338-1.341-.023-.74-.11-1.5.017-2.218.2-1.137.416-2.35 1.74-2.797.437-.148.919-.164 1.496-.26v2.312l1.339-.862.236.692.223-.17v1.364l.614-.311c.629.55.612 1.254.525 1.979l.657.232-.376 1.014c.172-.031.258-.022.305-.06.116-.091.195-.255.321-.302 1.266-.482 1.904-1.828 3.175-2.296.255-.92 1.226-1.117 1.793-1.737.59-.645 1.422-1.064 2.134-1.602.689-.521 1.077-1.398 1.975-1.674.59-1.075 1.44-1.889 2.498-2.497-.037-.728.965-.818.941-1.586h1.337l.375.375c-.64.318-.874.936-1.283 1.59.886.183 1.396-.895 2.23-.398l-.727.341M76.3 86.366c-.07-.693.906-.77.444-1.415l-.328.291c-.035-.035-.095-.066-.101-.105-.11-.727-.066-1.415.45-2.008a71.455 71.455 0 001.672-1.975c.172-.212.278-.476.447-.774-.268-.7-.636-1.425-.956-2.146-.343-.774-.335-1.614-.708-2.38-.199-.407.319-1.12.198-1.618-.137-.558-.466-1.032.015-1.557.01-1.469 1.008-2.385 1.882-3.404h2.47l.52.492-1.169 1.488.307.652c.14 0 .406.08.5-.014.413-.405.89-.242 1.325-.29l.443.96-.802 1.002 1.347.172v1.421c1.001.033 1.111-1.18 1.954-1.175.383-.583.942-.989 1.444-1.454a38.958 38.958 0 001.68-1.673c.503-.526 1.014-1.05 1.466-1.617.466-.585.866-1.222 1.135-1.608l1.386-.497c.14.2.37.402.43.647.044.187-.105.437-.206.64-.115.23-.272.439-.27.844l1.34-.565.938 1.827c0-.017-.024.275.008.56.025.222.12.437.202.721l-.266.466.338.364c-.859 1.376-1.632 2.8-2.574 4.131-.791 1.118-.68 1.196-1.26 1.513l.261.289-3.518 3.942v.493l2.764 1.76c-.136.266-.22.429-.347.682.355.305.593.891 1.28.675l.395.783-.342.476 1.067 1.068-.385.99.315.54c-.052.114-.068.23-.133.273-.146.095-.36.113-.466.234-.638.72-.752.76-1.554.486-1.039-.355-2.155-.564-3.104-1.082-1.271-.694-2.413-1.623-3.726-2.532a13.61 13.61 0 00-1.766 1.604c-.577.616-1.336 1.104-2.392 1.419l.427-.707-1.771.33-.096-.191 1.001-.78-.516-.516h-1.012l-.462-1.164h-1.229l-.392-.988m6.431-29.093c-.509.122-.957.23-1.59.38-.65-.48-1.427-1.077-2.229-1.638-.956-.67-1.787-1.522-2.879-1.993-.252-.11-.518-.188-.869-.315-.426-.637-.475-1.821-1.724-1.691-.565-.516-.634-1.413-1.46-1.5-.27-.461-.44-.988-.796-1.317-1.62-1.503-2.793-3.308-3.802-5.487-.087-.673-.088-1.57-.233-2.468-.228-1.417.526-2.633 1.753-3.418.339-.216.513-.692 1.076-.641.391.035.805-.173 1.324-.301l.615.546c-.418.702-1.208 1.145-1.268 2.088.93.31 1.347-.723 2.283-.842l.508.453-.967 1.45c.64-.203 1.095-.206 1.263-.427.424-.56 1.111-.785 1.51-1.408.371-.58.98-1.012 1.602-1.416.88-.572 1.594-1.393 2.42-2.058 1.212-.976 2.349-2.046 3.7-2.858.534-.32.93-.878 1.373-1.343.404-.423 1.045-.607 1.171-1.238h1.995v1.286l-.478.478c.264-.047.528-.085.787-.143.263-.06.522-.14.92-.25-.06.957-.014 1.805.678 2.423-.146.196-.23.308-.397.535l.911.5-.845.23c.082.19.193.367.234.559.04.189.009.393.009.587l-1.704 2.338-.688.075.252.35-.297.71c-1.305-.064-1.314 1.28-2.12 1.804l.293.387-1.625 1.625c.044.04-.026-.023.005.004l-.746.746-.245-.19v.78l-.496-.408.129.865-1.298 1.681-.497-.364-1.633 1.91.694.345-.71.9c.035.12.035.231.09.293.903 1.012 1.974 1.918 2.678 3.052.793 1.277 1.784 2.595 1.323 4.334m20.572-21.436l.234-.234c-.054-.069-.099-.148-.162-.206-.385-.35-.87-.651-1.181-.995-.305-.336-.647-.592-.956-.9-.41-.409-.868-.995-.89-1.522-.038-.942-.095-1.888.129-2.876.386-1.705 1.28-2.996 2.463-4.175 1.501-1.495 2.998-2.996 4.574-4.571-.598-.515-.629-1.487-1.576-1.677l-1.192-2.32c-.367-.714-.301-1.485-.298-2.247.004-.544.001-1.087.001-1.63l1.491-1.902h2.47l-1.067 1.822c.914.663 1.249-.774 2.052-.336.5.686-.431 1.009-.727 1.672.57-.136.901-.216 1.306-.314.241.705.12 1.322-.259 1.984l.602.233c.172.184-.184.21-.244.482l.886 1.356c2.446-2.567 5.566-4.288 7.474-7.22h1.487l-.352 1.501 1.168-.411v1.15l.505.133c.038.083.097.164.107.25.018.146-.02.3.009.443.301 1.54-.465 2.762-1.27 3.915-.87 1.249-1.88 2.4-2.901 3.683.729.875 1.894 1.3 2.919 2.117l.087.623c.271.34.711.67.835 1.091.273.925.948 1.786.489 2.98-.112.051-.358.172-.611.28-.252.107-.51.2-.796.31-.393-.398-1.279-.271-1.16-1.048l-2.474-.716-.518-.9h-1.638l-.112-.476c-.606-.466-1.115.083-1.469.177l-1.263 1.464-.375-.284-.593.838.154.2c-.687.172-.747.862-1.049 1.43a370.31 370.31 0 01-.633-.39l-.129.802-.473.128c-.064.601-.149 1.333-1.04 1.133-.299.388-.8.748-.766 1.048.103.902-.653 1.334-.859 2.039-.097.89-.083.89.193 1.486-.645.514-1.373.86-2.21 1.074l-.392-.494M16.592 19.085l-.872.108c.17.19.268.296.424.469-.368.684-1.066 1.095-1.539 1.693l.232.232-1.075.843c-.178.467.2.994-.423 1.283.553.37 1.058.7 1.554 1.043 1.557 1.076 3.221 1.998 4.505 3.447.735.829 1.427 1.63 1.44 2.82.002.201.206.4.368.694l-1.392.88c-2.959-1.734-6.018-3.28-8.824-5.544-.201.115-.64.212-.721.438-.322.893-.951 1.52-1.592 2.16-.079.079-.05.264-.07.401l-.864.095.228.782c-.57.478-.997 1.189-1.222 2.072-.13.512-.622.933-1.062 1.552v3.222l-.779.05-.19.537H3.694l-.513-1.486c-.284.126-.568.25-.906.398l-.18-.552c-.083-.035-.175-.112-.251-.098-.627.12-1.057-.411-1.134-.749-.315-1.374-1.204-2.734-.35-4.21.015-1.46.923-2.576 1.437-3.847.168-.415.89-.342.694-1.058-.08-.295.455-.762.718-1.145.239-.348.463-.708.738-1.025.322-.372.715-.684 1.034-1.059.266-.312.471-.675.732-1.058-1.802-1.353-2.904-3.276-4.167-5.068-.405-1.735-1.105-3.419-.832-5.45l1.524-1.75c.635.13 1.349-.263 1.93.398l-1.14 1.535c.106.11.203.215.3.317.804.166 1.098-1.005 1.939-.733l.38.738-.866.555.47.47c.419-.435.827-.44 1.32.154-.045.33.212.81-.284 1.195l.695.333-.661.888.73.26c-.33.089-.486.13-.76.205.028.24-.03.57.108.754.567.764 1.194 1.483 1.865 2.299.37-.332.654-.579.928-.835 1.623-1.512 2.98-3.326 4.992-4.397-.01-.557.573-.518.824-.816.284-.338.6-.649.804-.867h.997c-.452.665-1.222 1.04-.97 1.998l2.04-1.216-.179 1.16c.269.135.668.338 1.096.555l-.31.643.43.09c.015.057.072.155.044.192-.36.487-.844.918-1.074 1.457-.288.678-.924.983-1.293 1.547m27.064 15.135c1.181-1.45 2.18-2.654 3.156-3.876.925-1.157 1.716-2.406 2.436-3.687l-.334-.411.763-.867h.977c.365.365.66.886 1.078 1.02.51.162.583.57.789.875.714 1.056 1.21 2.128.662 3.505-.338.847-.68 1.694-1.031 2.536-.105.254-.183.52-.317.907l-.749.749v.933l-1.607 2.914c.738.502 1.417.985 2.117 1.436 1.388.895 2.535 2.005 3.221 3.531.147.329.215.694.368 1.206-.053.117-.181.405-.324.72l-.893.416c-.697-.24-1.314-.42-1.903-.666-.59-.245-1.153-.555-1.727-.836-.098-.858-1.077-.511-1.48-1.095-.33-.48-1.065-.68-1.71-1.055-1.932 1.971-3.634 4.125-5.195 6.393-.12.174-.082.457-.117.69-.68.524-1.353.444-2.029-.033v-.47l-2.6-1.559c-.43-.504-.211-1.297-.491-1.91-.313-.683-.049-1.344-.167-1.846.98-2.186 2.141-4.101 3.803-5.753v-1.01c-.96-.669-1.558-1.712-2.162-2.735-.203-.343-.234-.791-.327-1.195-.189-.82-.471-1.615-.446-2.487.048-1.668.995-2.858 2.588-3.457 1.004-.377 1.98-.187 3.059-.293-.581 1.203-1.974 1.1-2.787 2.108 1.403-.061 2.258-1.384 3.69-1.131-.056.337-.11.674-.17 1.03l1.02.36v1.883c-.382.666-.802 1.33-1.144 2.033-.11.226-.017.55-.017 1.127m25.056-18.457l-1.623 2.035v1.902l-1.601.644c-.678-.658-.952-1.53-1.17-2.355l-.927.344c-.3-.43-.663-.81-.86-1.262-.586-1.356-.54-2.803-.475-4.165l.74-1.688c-.41-.061-.774-.004-.924-.157-.958-.968-1.904-1.953-2.782-2.993-.473-.561-.972-1.196-1.16-1.879-.275-1-.282-2.075-.412-3.192.451-.634.818-1.377 1.391-1.89C59.437.636 60.186.414 61 0l.56.605c-.11.104-1.557 1.499-1.557 1.499l.364.364c.663-.484 1.322-1.116 2.4-.699-.267.367-.476.651-.842 1.152l1.154-.449.609.918-1.118 1.12c.25.05.385.079.61.125-.337.566-.147 1.35-1.013 1.639.86 1.057 1.816 1.64 2.787 2.285L74.66.511h1.43l-.65 1.308c.429.328.769-.04 1.15-.205 1.099 1.026 1.358 2.306 1.131 3.735l-1.404 1.802.297.276-.772.1.299.32h-.552c-1.016 1.912-2.733 3.213-3.991 4.955 1.723.96 3.652 1.674 5.475 2.761l.192.953.554-.586c.734.099.718.942 1.334 1.251.54.27.855.99 1.274 1.517v1.76l-.478.478c-1.526-.163-2.789-1.033-4.179-1.736l-.177.16c-.972-.24-1.552-1.284-2.674-1.128-.524-.673-1.384-.725-2.055-1.122-.677-.4-1.334-.834-2.15-1.348m43.177 23.688l.901.51-.262 1.568c.249.431.457 1.089 1.211 1.354.337-.47.545-1.01 1.194-1.273.456-.185.724-.835 1.074-1.28.384-.488.918-.822 1.221-1.417.255-.5.802-.843 1.147-1.31.356-.482.626-1.028.933-1.546h1.671c.088.469.233.932-.319 1.416l1.182.054.42 1.93-.611.238c.021.136.018.278.066.399.413 1.02.346 1.37-.448 2.158-.332.329-.471.84-.336 1.159.212.501-.424.308-.124.77l-.591-.487v.826l-.906.173v.811l-.87.907 1.39 1.362v1.116l.997.998-.294.518.593 1.204-.902 1.883h-1.236l-4.227-2.42-.609.94-.795-.387v1.38l-1.357-.505.439.599-1.015.953-.211-1.279.591-.204.078-.411-.533-.184.238-.974-.443.407-1.858-.348-.37-.712.368-1.429c.289.048.657.11 1.026.17l.045-.163-1.107-.556.602-1.244c-.976-1.656-2.039-3.22-2.639-5.02-.361-1.24.066-2.464.244-3.684.139-.949.923-1.62 1.782-2.1.122-.068.238-.147.434-.269h1.474l.589.59-.76.76v.912l.999-.259.6.56-.686.837M22.722 54.68l.505.504-2.715 2.322.062.156c.192-.056.426-.061.566-.178.26-.22.466-.502.824-.573l1.883-1.063c.537.434.145.778-.086 1.304l.825-.313.387.387v1.785l-.535.523c.027.068.034.163.085.2.337.253.674.509 1.03.734.381.241.916.31.931.929.002.071.122.152.202.208.305.214.662.377.91.643.248.265.39.63.64 1.058v1.04l-.695.694-5.565-1.988-1.295.69-.055-.09-1.26 1.26-.039.638c-.779.749-1.594 1.533-2.25 2.166-.33 1.024-.163 2.075-1.527 2.291-.283-.451-1.296-.523-1.065-1.576-.28-.08-.625-.181-1-.29l-.357.239-1.2-1.27-.392-3.354 3.732-4.035c-.504-.316-1.023-.58-1.467-.935-.46-.369-.848-.828-1.28-1.259l.372-1.2a240.06 240.06 0 01-.628-.216V55.11l.308-.31 1.42-.282 4.624 2.594c1.563-.594 2.576-1.965 4.105-2.433" fill="#172327"/></svg>