<svg width="139" height="135" viewBox="0 0 139 135" fill="none" xmlns="http://www.w3.org/2000/svg"><path d="M49.61 81.671c-.12.108.535-1.139.58-1.264-.476 1.353.32.723.369 1.1-.101-.37-.085-.73.047-1.081.028.212.09.537.178.723.218-1.718.364-3.082-.036-5.057 0 .147.002.168.006.065.005.112 0 .222-.014.33-.355-1.515-.677-3.416-1.024-3.766.098 1.057-.095.042-.243-.121-.026 1.862.125 1.482-.307.986l.083 1.697c-.263-1.653-.287-.916-.49-2.594-.022.545-.407.959-.308.98.063-.76-.141-.84.22-1.308-.225.395-.285.131-.181-.792-.13-.073-.57.837-.766-.9.144-.519-.47 1.22-.386 1.502-.172-2.108-.457 1.222-.271-2.171 0 .31-.029.606-.086.886.112-.488.102-.714-.03-.679-.024.394-.203 2.26-.206 2.241.085.083-.764-1.244-.565-.261-.134-1.582.085.71-.077-.97.085.574-.128 1.595-.062-.713-.043.77-.059.747-.047-.07-.039.863-.108-.34-.086-.203-.041.675-.256.879-.11 1.655-.042-.224-.068-.438-.115-.736.076 1.381-.314-.756-.118.765 0-.022-.015-.805-.012-.799-.191-.025.049 1.102-.244-.36-.016.544-1.964-.377-1.973.928.028.24-.197-1.026-.19-.905.111-.24-.978 2.03-.756.44-.145 1.04-2.06.926-2.063.96-.373 2.85-.417 5.9-.183 8.822.11.014 9.262 1.69 9.465.67zM25.732 9.999c-.072.041.516-1.03.53-1.064-.44 1.143.278.597.323.952a1.398 1.398 0 01.051-.923c.056.433-.032.121.155.626.207-1.437.338-2.727.01-4.326 0 .126.001.145.005.056-.006-.19-.758-2.806-.929-2.972.077.82-.037.161-.224-.11-.029 1.424.216 1.387-.288.837l.07 1.453c-.23-1.4-.26-.788-.442-2.226 0 .468-.453.792-.287.834.05-1.025-.047-.934.04-1.795-.196.09-.542.598-.71-.773.007.617-.011.68-.052.19.054.474-.519.443-.305 1.097-.225-2.096-.452 1.587-.257-1.855.002.258-.023.51-.077.759.17-.41.16-.604-.03-.58-.033.54-.245 1.587-.184 1.92.065.039-.721-1.086-.524-.214-.143-1.464.096.72-.076-.827.118.747-.1.941-.062-.609-.036.66-.05.641-.044-.058-.03.72-.103-.29-.081-.171-.041.928-.324.332-.092 1.418-.041-.195-.072-.408-.112-.627.095 1.412-.342-.942-.104.658 0-.101.06-.502-.017-.683-.083-.048.066.974-.23-.298-.002.113-.873.281-1.518.766-.069-.674-.308-.484-.303.122.004.03-.186-.696-.19-.761.213-.215-.882 1.869-.694.43-.046.246-.07.495-.072.746-.588-.23-1.829.437-1.817.255-.279 2.5-.25 5.054.031 7.554-.657-.062 8.535.067 8.506.199zm8.752 32.594c.076.016 1.85-.538.675.825.179-.29.412-.457.698-.498-.07.082-.319.46-.338.533 1.216-.665 2.072-1.115 3.109-2.573-.091.074-.104.087-.038.038.617-.557 1.41-2.839 1.417-3.024-1.239.97-.832.766-.796.2l-.998.935c.88-1.108.404-.752 1.304-1.783-.415.194-.71.216-.79.196.336-.13.392-.552.94-.447-.36.028-.234-.164.379-.575-.068-.147-.841-.155.091-1.202.427-.134-1.086.25-1.159.382.818-.898-.396-.269 1.175-1.365-.745.509-.542.229-.197-.008-.451.31-.88.648-1.315.99-.015.008-.086-1.142-.366-.742.77-.806-.267.316.55-.568-.353.395-.977.623.402-.424-.5.35-.494.322.015-.08-.567.408.132-.264.074-.189-.23.149-.903.485-1.083.734.129-.178.172-.217.383-.489-.573.554-.011-.35-.54.274.012-.01.47-.4.484-.419.009.18-.77-2.625-1.655-1.901-.179.207.622-.823.443-.653.093-.028-1.574-.058-.71-.525-.76.41-1.656-1.646-1.772-1.566-1.925 1.083-3.87 2.66-5.498 4.374.264.717 3.311 10.313 5.116 9.55zM16.6 47.841c-.059.11-.142-.855-.15-.887.208.103.381.273.52.51.01-.086-.342-.37-.313-.62.12.159.166.226.33.362-.47-1.033-.885-1.889-1.725-2.873.05.084.059.096.025.036-.044-.07-1.569-1.618-1.672-1.652.402.565-.015.058-.16.004.6 1.034.594.817.185.654l.618.94c-.166-.324-.268-.427-.306-.308-.463-.404-.244-.258-.815-1.016.192.318.095.67.185.651-.392-.74-.384-.576-.697-1.204-.054.11-.04.587-.678-.268.25.406.266.454.049.143.187.254-.049.515.28.832-.825-1.13.21.86-.875-1.141.105.173.193.35.263.53-.103-.317-.186-.442-.248-.376.159.296.612 1.264.673 1.338.058.016-.799-.46-.358.038-.63-.88.308.404-.37-.522.27.339.446.87-.276-.382.245.45.23.442-.046-.024.277.496-.17-.157-.111-.086.287.503.082.468.52.972-.098-.113-.192-.235-.31-.377.556.817-.47-.4.21.472a8.534 8.534 0 00-.283-.447c-.067-.02.408.608-.238-.12.177.308-1.044.477-.591 1.216.07.09-.421-.466-.403-.44-.024-.184.28 1.523-.189.524.295.628-.59 1.297-.58 1.315a32.908 32.908 0 003.038 4.998c-.086.054 4.583-2.574 4.499-2.792zm93.17 72.963c-.172.082.496-1.035.512-1.077.204.249.305.548.304.9.083-.089-.173-.628.07-.886.037.252.047.356.164.613.187-1.444.309-2.656-.054-4.285.001.124.003.143.005.055-.004-.104-.855-2.8-.97-2.904.097.883-.067.054-.225-.099-.008 1.529.159 1.285-.274.841l.091 1.436c.034-.464-.024-.643-.174-.537-.311-.746-.127-.442-.301-1.649.008.476-.412.8-.272.839.058-1.071-.064-.885.013-1.78-.164.088-.531.622-.72-.735.016.61 0 .673-.048.19.052.402-.485.537-.288 1.1-.222-1.781-.406 1.084-.284-1.826a3.48 3.48 0 01-.066.755c.115-.416.102-.608-.038-.574-.02.428-.18 1.788-.155 1.91.067.056-.731-1.024-.526-.189-.157-1.379.099.644-.088-.816.099.549-.089 1.248-.071-.6-.026.655-.04.637-.045-.056-.02.726-.107-.284-.083-.167-.012.741-.265.569-.07 1.409-.044-.188-.075-.383-.122-.616.105 1.261-.325-.745-.094.656 0-.04-.01-.638-.027-.676-.077-.066.07.935-.232-.286-.005.454-1.829-.15-1.804.958.024.146-.203-.787-.2-.745.117-.22-.848 1.859-.685.455-.102.883-1.868 1.048-1.87 1.073-.239 2.474-.171 5.031.145 7.48-.163.003 8.422.128 8.482-.167zm-8.624-32.41c-.521-.031-.973.576-.695-.645.442-2.795-8.117 7.151-4.434 5.449-.323-.92 1.095-2.97 1.626-2.421-.005.016.062-.209.102-.213-.055.085-.012.08.127-.015-.82 1.587-1.17 2.144-1.154 2.708.982-1.01.667-.796.643-.316l.798-.95c-.696 1.057-.316.68-1.032 1.689.284-.206.65-.307.643-.32-.303.192-.298.502-.759.55.296-.087.197.092-.296.537.062.105.696-.056-.034.97-.352.2.884-.419.947-.556-.793 1.044.573-.103-.913 1.33.16-.173.32-.314.48-.422-.29.218-.395.345-.315.382.36-.343.701-.708 1.047-1.07.012-.01.127.878.35.481-.62.836.228-.338-.427.568.211-.324.885-.819-.311.422.398-.39.396-.368-.007.065.449-.449-.097.237-.05.161.208-.189.706-.548.866-.825-.092.16-.143.227-.29.466.488-.617-.018.342.438-.343.008-.008-.398.493-.38.439.041.168.42-.561-.032.338.266-.277.987 1.342 1.629.62.128-.193-.433.751-.314.599.322-.177 2.544.614 2.47.69 1.558-1.385 3.04-3.086 4.242-4.796-.097-.263-4.244-6.055-4.965-5.572zm-15.257-3.288c.117-.053.46-2.106.834-.212a1.268 1.268 0 01-.003-.875c.053.266.043.295.188.569.123-1.384.187-2.571-.236-4.068.006.118.009.136.007.052-.01-.123-.95-2.575-1.083-2.676.13.808-.052.088-.227-.074.055 1.422.234 1.226-.235.823l.15 1.356c.027-.447-.038-.612-.194-.495-.355-.711-.139-.382-.367-1.54.026.45-.387.793-.235.82-.008-.99-.1-.86-.062-1.693-.167.1-.5.635-.744-.636.041.579.028.64-.04.185.073.4-.467.526-.239 1.07-.31-1.759-.354 1.215-.358-1.712.016.245.006.486-.032.723.108-.405.087-.585-.063-.542-.002.45-.118 1.649-.072 1.829.057.039-.766-.91-.528-.134-.218-1.32.129.626-.122-.767.131.559-.037 1.115-.096-.565.003.625-.013.609-.046-.048.011.688-.118-.262-.09-.152.023.77-.26.486-.01 1.345-.05-.175-.091-.364-.145-.575.163 1.235-.368-.739-.065.631-.003-.053-.02-.574-.056-.64-.052-.039.107.871-.242-.251.015.433-1.816.017-1.743 1.067.022.102-.231-.698-.23-.692.091-.19-.759 1.828-.659.492-.062.83-1.803 1.182-1.803 1.182A30.646 30.646 0 0077.504 86c-.311.005 8.36-.738 8.385-.894zm-6.3 21.295c-.21-.05.76-.245.793-.261.166.22.209.418.128.594.113-.001-.058-.393.27-.398a.706.706 0 00.043.382c.52-.617.899-1.14.875-2.129-.026.062-.029.072-.008.03a.36.36 0 01-.072.132c-.046-.797-.004-1.707-.274-2.018-.102.475-.083-.009-.202-.158-.36.742-.14.695-.468.273l-.24.74c.062-.799-.098-.506.032-1.292-.132.207-.556.216-.471.268.314-.488.147-.457.437-.849-.177-.039-.675.034-.526-.711-.135.299-.166.321-.094.067-.046.214-.604.014-.552.376.228-.954-.662.298.18-1.011a.961.961 0 01-.253.325c.213-.14.249-.237.108-.292-.124.187-.628.765-.633.823.052.062-.448-.863-.465-.366.206-.727-.072.351.126-.43-.046.307-.41.542.089-.318-.196.293-.205.277-.029-.049-.209.33-.028-.19-.036-.122-.2.332-.405.138-.436.622.007-.11.028-.219.045-.352-.23.638-.118-.514-.264.256.01-.018.158-.308.153-.33-.155-.105-.18.485-.146-.258-.13.217-1.688-1.065-1.977-.552-.02.086.035-.477.024-.452.187-.033-1.342.356-.774-.185-.358.341-2.067-.63-2.066-.63a8.545 8.545 0 00-2.195 3.363c-.046-.036 8.478 5.257 8.878 4.912zm9.995-89.923c.041-.064.1-2.097.645-.293-.13-.3-.174-.602-.133-.911.04.128.178.489.237.572-.112-1.485-.2-2.585-.802-4.215a.57.57 0 00.013.054c.021.094.035.187.041.278-.465-1.16-1.025-2.758-1.295-2.972.23.867-.075.059-.189-.063.275 1.608.285 1.19-.065.87l.318 1.403c-.442-1.35-.343-.724-.74-2.091-.025.354-.054.862-.068.862-.065-.717-.199-.533-.045-1.123-.082.359-.165.147-.247-.635-.103-.003-.283.75-.676-.645.023-.479-.125 1.128-.045 1.304-.4-1.59-.172.823-.52-1.779.048.266.072.517.074.751-.01-.424-.051-.612-.124-.564.075.582.174 1.16.27 1.74.001.032-.705-.515-.517.004-.314-1.231.148.511-.2-.801.139.46.15 1.355-.152-.59.085.649.07.631-.043-.051.103.732-.126-.266-.092-.16.055.435.007.924.171 1.393-.066-.19-.104-.326-.193-.602.23 1.004-.28-.41.032.652 0 .001-.151-.707-.13-.666-.147-.089.22.84-.226-.277.07.466-1.456-.14-1.269.95.07.246-.31-.92-.27-.743.019-.16-.407 1.647-.476.419.052.915-1.353.824-1.344.901.147 2.381.567 4.967 1.162 7.386.282.075 6.92 1.189 6.897-.358zM73.121 134.824c.166-.031.792-1.661 1.118-.073a.682.682 0 01.072-.715c.047.224.03.243.198.485.28-1.119.45-2.079.035-3.352-.002.097 0 .112.005.043-.005-.102-.98-2.216-1.136-2.314.088.672-.066.072-.276-.09-.062 1.157.19 1.04-.371.642l.06 1.127c.081-.361.015-.504-.197-.428-.384-.637-.139-.324-.312-1.307-.046.36-.53.6-.374.637.087-.806-.038-.716.092-1.389-.219.058-.685.449-.85-.623-.011.477-.034.525-.07.144.05.345-.637.352-.41.837-.19-1.52-.584 1.007-.25-1.448a1.769 1.769 0 01-.123.584c.189-.312.184-.462-.015-.451-.055.379-.34 1.3-.297 1.478.057.035-.84-.862-.639-.193-.11-1.118.083.539-.058-.645.098.502-.176.86-.049-.475-.073.509-.09.493-.05-.047-.07.561-.113-.232-.092-.138-.083.631-.383.344-.176 1.092-.043-.15-.07-.314-.11-.491.049 1.048-.363-.685-.158.503.005-.047.052-.462.011-.53-.04-.028.022.718-.265-.246-.038.362-2.221-.313-2.284.547.01.076-.181-.597-.181-.605.2-.156-1.215 1.354-.88.267-.201.65-2.408.592-2.403.566-.577 1.885-.778 3.87-.648 5.824-.353-.038 10.972 1.074 11.083.784zm-6.335-77.056c-.059.152-.036-1.062-.054-1.181.177 1.186.57.37.767.611a1.26 1.26 0 01-.418-.797c.097.118.331.362.452.432-.548-1.342-.986-2.363-2.162-3.604.062.105.073.12.032.044.052.078.095.16.128.243-.91-.9-2.013-2.13-2.42-2.212.518.703-.061.094-.25.027.773 1.367.704.998.163.85l.781 1.177c-.913-1.065-.621-.522-1.492-1.632.113.383.151.848.159.845-.267-.58-.481-.542-.368-1.039-.011.381-.172.22-.481-.485-.138.007-.119.861-1.006-.296-.102-.452.142 1.105.31 1.253-.987-1.391.089.995-1.132-1.437.13.226.231.45.3.675-.12-.398-.223-.556-.308-.474.254.514.536 1.014.815 1.516.014.038-1.021-.174-.628.248-.752-1.052.349.45-.468-.662.291.35.581 1.245-.35-.485.286.572.263.562-.067-.03.328.64-.23-.195-.156-.108.22.45.205.802.599 1.237-.131-.144-.231-.275-.404-.478.606.91-.526-.343.221.602-.004-.008-.365-.585-.343-.569-.167.062.49.762-.352-.153.214.403-1.801.57-1.27 1.512.14.18-.61-.686-.535-.572-.015-.087-.033 1.748-.456.631.314.828-1.382 1.484-1.362 1.527.85 2.201 2.073 4.432 3.474 6.442.212-.042 8.64-2.523 8.281-3.658zm53.594-32.926c-.057-.196-.084 1.139-.108 1.244.255-1.144.689.131.935.047-.293.015-.467.176-.524.484.138-.047.37-.093.552-.052-.694.954-1.272 1.677-2.696 1.934.078-.057.091-.064.039-.02a.497.497 0 00.161-.146c-1.138.135-2.449.463-2.967.152.651-.287-.069-.138-.297-.267.955-.762.901-.418.224-.782l.973-.557c-1.122.308-.758-.013-1.837.382.266-.241.114-.9.22-.78-.338.379-.577.146-.477.795-.008-.445-.205-.42-.59.077-.164-.14-.108-1.065-1.21-.637-.135.39.189-1.086.419-1.087-1.275.604.204-1.07-1.404.5a1.29 1.29 0 00.385-.458c-.15.336-.278.411-.387.227a27.69 27.69 0 00.982-1.144c.125.078-1.389-.5-.681-.627-.961.447.456-.168-.584.28.384-.114.716-.79-.436.199.364-.357.338-.368-.081-.033.416-.388-.283-.006-.19-.032.316-.317.216-.674.766-.789-.159.033-.296.083-.499.139.8-.443-.699-.11.29-.452-.011.01-.438.296-.433.297-.196-.236.627-.369-.423-.174.27-.234-2.087-2.389-1.409-2.913.154-.056-.729.149-.659.109-.019.239.128-2.057-.494-1.148.407-.595-1.495-3.025-1.479-3.04 1.142-1.6 2.704-2.85 4.468-3.692.112.136 9.793 11.302 9.451 11.964zm-88.647 90.303c-.063-.037.458.912.469.942-.388-1.012.247-.529.287-.844-.077.277-.063.549.045.818.05-.384-.028-.107.137-.554.184 1.272.3 2.415.01 3.831 0-.111 0-.129.004-.05-.006.168-.671 2.485-.823 2.632.068-.725-.033-.142-.198.097-.026-1.26.19-1.227-.256-.74.022-.429.042-.858.062-1.288-.204 1.24-.23.698-.392 1.972 0-.414-.4-.702-.253-.738.045.908-.042.827.035 1.589-.173-.079-.48-.529-.629.685.006-.547-.01-.602-.046-.168.049-.42-.459-.393-.27-.972-.199 1.856-.4-1.406-.227 1.643a3.06 3.06 0 00-.068-.672c.15.363.14.534-.027.514-.03-.479-.217-1.406-.163-1.7.058-.035-.639.96-.464.189-.127 1.296.085-.638-.068.732.105-.662-.088-.834-.054.539-.032-.584-.045-.568-.04.051-.026-.638-.09.257-.071.152-.037-.822-.287-.294-.081-1.256-.037.173-.065.361-.1.555.085-1.25-.302.835-.092-.582 0 .09.053.445-.015.604-.073.044.058-.862-.203.265-.002-.1-.774-.249-1.345-.678-.061.596-.273.428-.269-.109a12.37 12.37 0 00-.167.674c.188.191-.781-1.655-.615-.38a3.805 3.805 0 01-.064-.661c-.521.203-1.62-.387-1.61-.226a30.293 30.293 0 01.028-6.69c-.582.055 7.559-.059 7.533-.176zm67-70c-.063-.037.458.912.469.942-.388-1.012.247-.529.287-.844-.077.277-.063.55.045.818.05-.384-.028-.107.137-.554.184 1.272.3 2.415.01 3.83 0-.11 0-.128.004-.049-.006.168-.671 2.485-.823 2.632.068-.725-.033-.142-.198.097-.026-1.26.19-1.227-.256-.74.022-.43.042-.858.062-1.288-.204 1.24-.23.699-.391 1.972 0-.414-.402-.701-.254-.738.045.908-.042.827.035 1.59-.173-.08-.48-.53-.629.684.006-.547-.01-.602-.045-.168.048-.42-.46-.393-.271-.972-.199 1.856-.4-1.406-.227 1.643a3.06 3.06 0 00-.068-.672c.15.363.14.534-.026.514-.03-.48-.218-1.406-.164-1.7.058-.035-.639.96-.464.189-.127 1.296.085-.638-.068.732.105-.662-.088-.834-.054.539-.032-.584-.045-.568-.04.051-.026-.638-.09.257-.071.152-.037-.822-.287-.294-.081-1.256-.037.173-.064.361-.1.555.085-1.25-.302.835-.092-.582 0 .09.053.445-.015.605-.073.043.058-.863-.203.264-.002-.1-.774-.25-1.345-.678-.061.596-.273.428-.269-.109a12.4 12.4 0 00-.167.674c.188.19-.781-1.655-.615-.38a3.802 3.802 0 01-.064-.661c-.521.203-1.62-.387-1.61-.226a30.293 30.293 0 01.028-6.69c-.582.055 7.559-.06 7.533-.176zm-54 49c-.063-.037.458.913.469.942-.388-1.012.247-.529.287-.844-.077.277-.063.55.045.818.05-.384-.028-.107.137-.554.184 1.272.3 2.415.01 3.83 0-.11 0-.128.004-.049-.006.168-.671 2.485-.823 2.632.068-.725-.033-.142-.198.097-.026-1.26.19-1.227-.256-.74.022-.43.042-.859.062-1.288-.204 1.24-.23.698-.392 1.972 0-.414-.4-.702-.253-.738.045.908-.042.827.035 1.589-.173-.079-.48-.529-.629.685.006-.547-.01-.602-.046-.168.049-.42-.459-.393-.27-.972-.199 1.856-.4-1.406-.227 1.643a3.06 3.06 0 00-.068-.672c.15.363.14.534-.026.514-.03-.479-.218-1.406-.164-1.7.058-.035-.639.96-.464.189-.127 1.296.085-.638-.068.732.105-.662-.088-.834-.054.539-.032-.584-.045-.568-.04.051-.026-.638-.09.257-.071.152-.036-.822-.287-.294-.081-1.256-.037.173-.065.361-.1.555.085-1.25-.302.835-.092-.582 0 .09.053.445-.015.604-.073.044.058-.862-.203.265-.002-.1-.774-.249-1.345-.678-.061.596-.273.428-.269-.109.004-.026-.164.616-.167.674.188.191-.781-1.655-.615-.38a3.805 3.805 0 01-.064-.661c-.521.203-1.62-.387-1.61-.226a30.293 30.293 0 01.028-6.69c-.582.055 7.559-.06 7.533-.176zm31.951-48.681c-.034.04-1.295.55.045.67-.246-.057-.459-.033-.638.072.08.007.41.073.457.098-1.01.22-1.71.382-3.022.16.088-.005.101-.004.04.002-.623.01-2.219-.693-2.316-.775 1.176-.09.848-.008.54-.252l1.026-.001c-1.047-.13-.604-.171-1.624-.255.328-.09.502-.207.536-.251-.252.085-.496-.084-.745.2.212-.142.045-.176-.502-.1-.037-.097.386-.434-.66-.511-.303.122.727-.354.835-.325-.908-.059.082-.293-1.341-.12.669-.087.415-.128.104-.088.406-.052.815-.082 1.228-.112.013-.003-.53-.561-.174-.498-.834-.038.308.03-.592-.023.396.028.856-.136-.437-.022.453-.055.437-.065-.049-.03.521-.057-.206-.064-.136-.054.203-.031.745-.168.97-.13-.16-.027-.205-.026-.46-.06.599.008-.17-.165.438-.107-.011 0-.462.019-.48.017.086.086-.905-1.535-.05-1.585.205.018-.76-.109-.575-.108-.066.028.84-.705.126-.546.628-.14.08-1.468.185-1.481 1.613-.333 3.487-.449 5.256-.365.217.443 3.399 6.152 2.015 6.58zM57.945 4.282c-.253-.065.733.815.755.848.301-.196.451-.432.45-.709.122.07-.255.495.104.698.054-.199.069-.28.24-.483.277 1.137.457 2.091-.078 3.374.001-.098.004-.113.007-.044-.007.082-1.262 2.204-1.432 2.286.143-.695-.1-.042-.332.078-.012-1.204.234-1.012-.405-.662l.134-1.13c.05.365-.034.506-.256.422-.46.588-.187.349-.444 1.298.011-.374-.61-.63-.402-.66.086.844-.095.697.02 1.401-.243-.069-.785-.49-1.063.579.023-.48 0-.53-.072-.15.078-.316-.715-.422-.425-.865-.328 1.402-.6-.854-.418 1.437a1.514 1.514 0 00-.098-.594c.17.327.15.478-.056.452-.03-.337-.265-1.408-.23-1.504.1-.044-1.078.806-.775.149-.233 1.085.146-.507-.13.642.146-.432-.131-.982-.105.473-.038-.517-.06-.502-.066.043-.03-.571-.158.224-.123.132-.018-.583-.392-.448-.104-1.11-.064.149-.11.302-.18.486.156-.993-.48.586-.138-.517 0 .032-.014.502-.04.532-.113.053.103-.736-.343.225-.007-.357-2.7.119-2.662-.754.036-.114-.3.62-.295.587.172.173-1.252-1.463-1.012-.358-.15-.695-2.757-.825-2.76-.845-.352-1.948-.252-3.96.213-5.889-.239-.002 12.432-.1 12.521.132zM29.648 63.237c-.127.425-.707.555.278.793 2.2.698-7.64 3.746-5.317 1.469.59.6 2.517.246 2.264-.38-.014-.002.172.029.187-.001-.079.01-.063-.02.048-.095-1.413.053-1.928.122-2.341-.102 1.032-.399.783-.23.42-.391l.933-.276c-.983.155-.595-.005-1.549.184.235-.148.415-.4.422-.39-.23.169-.457.049-.626.396.15-.202-.011-.191-.483.033-.06-.089.241-.53-.73-.337-.25.203.566-.543.686-.541-1.003.236.241-.416-1.25.224.175-.061.325-.136.452-.222-.245.148-.37.183-.375.106.358-.157.728-.29 1.096-.428.01-.006-.615-.43-.256-.458-.799.178.316-.054-.545.126.302-.046.863-.394-.402.088.403-.17.387-.176-.05-.019.462-.187-.204-.013-.134-.021.2-.094.61-.353.861-.377-.145.014-.21.028-.429.056.598-.156-.259-.114.38-.219.01-.003-.48.13-.434.136-.113-.095.537-.121-.26-.101.282-.107-.71-1.285.009-1.523.18-.028-.681.062-.534.024.223-.188.277-2.245.2-2.215 1.475-.715 3.163-1.25 4.778-1.561.167.176 3.268 5.632 2.701 6.022zm106.976 47.381c.058.144-.952 1.48.519.947a.648.648 0 00-.547.418c.208-.074.217-.098.502-.083-.767.791-1.456 1.426-2.72 1.718.079-.05.092-.056.039-.017-.085.047-2.348.276-2.515.19.605-.258.015-.094-.223-.194.929-.628.946-.353.328-.634l.964-.5c-.258.241-.412.255-.461.041-.721-.017-.347.044-1.247.37.301-.19.192-.773.327-.632-.623.468-.614.312-1.103.751-.068-.218.005-.811-.978-.448.393-.236.421-.279.084-.129.306-.117-.037-.726.48-.756-1.338.533.48-.944-1.346.461.165-.102.307-.228.425-.381-.168.305-.296.37-.387.198.278-.219.935-.914 1.083-.953.069.039-1.166-.338-.496-.471-.993.414.491-.171-.574.246.451-.136.666-.574-.426.174.391-.297.369-.305-.067-.023.438-.32-.255.006-.164-.018.497-.347.099-.498.83-.656-.148.032-.299.082-.472.128.897-.428-.748-.016.342-.369-.035.022-.373.256-.442.251-.065-.033.626-.311-.346-.124.282-.193-1.409-1.846-.698-2.278.082-.027-.615.102-.611.1-.047.184.546-1.648-.208-.903.469-.463-.674-2.395-.674-2.396 1.379-1.276 3.02-2.26 4.783-2.947-.24-.317 6.076 8.819 5.999 8.919zM.636 84.302c-.098.188 1.275-.693 1.341-.722-.31-.144-.695-.177-1.155-.1.115-.102.79.042 1.125-.255-.278.016-.513.023-.781-.028 1.839-.484 3.338-.84 5.444-.843-.158.025-.182.027-.07.007-.12.015-.24.037-.355.069 1.67.02 3.674-.04 4.079.195-1.126.105-.063.075.141.178-1.953.344-1.635.144-1.048.429l-1.83.235c1.782-.076.995.076 2.815-.062-.574.125-1.01.507-1.038.432 1.359-.296 1.128-.145 2.257-.416-.09.158-.735.61 1.015.456-.775.129-.854.158-.235.087-.507.047-.624.544-1.353.507 2.28-.23-1.292.604 2.356-.189-.33.058-.647.137-.949.237.511-.196.756-.23.734-.105-.524.117-2.264.585-2.393.592-.084-.045 1.42.381.331.41 1.768-.205-.827.074 1.05-.125-.707.05-1.57.384.773-.088-.824.184-.798.191.079.024-.917.197.38.02.227.03-.912.19-.695.368-1.769.41.244-.01.499-.032.803-.05-1.601.223.991.093-.811.244.047-.01.819-.15.86-.146.075.137-1.22.174.413.124-.594.123.639 1.495-.752 1.769-.206.02 1.063-.044.998-.034.255-.17-2.084 1.22-.36.693-1.087.332-.674 1.848-.669 1.846-2.986.925-6.22 1.621-9.403 2.066.033.04-3.006-7.508-1.87-7.877zm121.021-9.83c.087.033 1.914-.538.717.718a1 1 0 01.706-.456c-.085.09-.303.38-.335.479 1.226-.611 2.13-1.072 3.133-2.345-.092.068-.104.08-.038.034a1.029 1.029 0 01-.215.14c.689-.953 1.694-2.163 1.69-2.57-.597.565-.105-.076-.079-.258-1.217.856-.843.735-.811.195l-1.007.844c.873-.983.392-.66 1.311-1.594-.328.082-.796.206-.806.189.584-.31.327-.418.956-.412-.374.01-.247-.161.381-.513-.07-.13-.86-.116.087-1.053.437-.123-1.08.2-1.178.357 1.111-1.008-.845.045 1.193-1.217-.2.143-.403.254-.607.33.365-.147.501-.258.407-.334-.458.278-.895.586-1.337.89-.027.013-.049-1.048-.371-.647.858-.785-.344.348.561-.506-.306.32-1.084.62.41-.378-.509.313-.504.29.015-.07-.57.361.144-.243.076-.166-.344.207-.808.302-1.103.657.119-.143.213-.234.392-.433-.72.606.16-.483-.551.246-.001 0 .514-.413.494-.373-.028-.215-.583.543.081-.373-.358.237-.911-1.873-1.736-1.293-.167.167.588-.68.46-.575.154-.027-1.736.013-.707-.465-.767.356-1.686-1.438-1.747-1.402-1.988.94-3.96 2.29-5.662 3.804.134.378 3.877 9.069 5.22 8.55zM21.266 26.176c.153.03.73 1.661 1.031.073a.73.73 0 00.067.715c.043-.224.027-.243.183-.485.257 1.119.416 2.079.032 3.352-.002-.097 0-.112.005-.043-.005.102-.904 2.216-1.05 2.314.082-.671-.06-.072-.254.09-.057-1.157.175-1.04-.343-.642l.057-1.127c.074.361.013.504-.183.428-.354.637-.128.324-.287 1.307-.044-.36-.49-.6-.346-.637.08.806-.035.716.085 1.389-.202-.058-.632-.45-.785.623-.01-.477-.031-.525-.063-.144.044-.345-.59-.352-.38-.837-.174 1.52-.538-1.007-.23 1.448a1.903 1.903 0 00-.113-.584c.173.312.169.462-.014.45-.051-.378-.314-1.3-.275-1.477.053-.035-.775.862-.59.193-.101 1.118.077-.539-.053.645.09-.502-.163-.86-.046.475-.067-.509-.083-.493-.046.047-.065-.56-.104.232-.084.138-.077-.631-.354-.344-.163-1.093-.04.15-.064.315-.101.492.044-1.048-.336.685-.146-.503.004.047.048.462.01.53-.037.028.02-.718-.245.246-.035-.362-2.05.314-2.108-.547.01-.076-.168.597-.168.605.185.156-1.12-1.354-.811-.267-.186-.65-2.224-.592-2.219-.566-.533-1.885-.717-3.87-.598-5.824-.325.038 10.128-1.074 10.23-.784zm75.388 101.323c.028-.171-.57.888-.645.978.75-.898.667.073.954-.001a1.019 1.019 0 00-.755.4c.141-.036.462-.085.598-.063-1.141.779-2.027 1.358-3.645 1.621.106-.048.122-.054.05-.017a1.05 1.05 0 00.23-.121c-1.221.151-2.771.454-3.156.246.792-.25-.003-.121-.196-.193 1.344-.646 1.098-.376.568-.619l1.254-.478c-1.308.292-.787.025-2.081.383.289-.252.556-.625.561-.618-.517.317-.679.138-.836.642.184-.335-.032-.306-.65.088-.112-.1.338-.821-.995-.433-.316.319.68-.853.896-.865-1.535.521.58-.794-1.68.462.224-.105.423-.23.595-.375-.304.26-.47.325-.5.197.474-.269.965-.506 1.454-.747.032-.022-.946-.548-.401-.642-1.166.39.52-.147-.73.249.422-.101 1.12-.673-.54.179.53-.297.507-.304-.071-.021.6-.326-.292.01-.187-.014.414-.235.58-.549 1.132-.654-.183.035-.334.078-.582.135.97-.368-.616-.065.492-.366-.008.004-.604.253-.578.254-.108-.167.799-.32-.373-.109.385-.2-1.224-1.72-.3-2.167.21-.06-.86.173-.74.126-.056.065.86-1.524-.062-.854.684-.498-.409-2.22-.37-2.244 1.832-1.31 3.992-2.392 6.189-3.163.156.182 5.977 8.074 5.1 8.804z" fill="#000"/></svg>