<svg width="1440" height="30" viewBox="0 0 1440 30" fill="none" xmlns="http://www.w3.org/2000/svg"><path d="M1356.89 19.776c0-1.222 0-1.222-.42-1.87-4.25 4.962-10.24-.359-15.12 2.446a21.947 21.947 0 00-3.19-3.02c-1.56 1.371-3.29 2.087-5.05 2.085l-.47-1.15-3.65 1.51.47-1.87c-4.68 2.66-11.51-.647-15.38.36-10.53 2.588-23.52.718-34.78 2.732-3.69.647-8.49-1.798-12.74-.647-5.86 1.233-11.79 1.04-17.62-.576-4.26 0-8.51.408-12.74 1.223-3.05-.72-6.13-.72-9.18 0-1.23.503-3.18-1.87-4.54-1.582-8.15 1.797-17.71 0-27.48 1.222a29.294 29.294 0 00-10.53.36l-.58-.149c-1.5-.38-2.97-.755-4.47-1.074-1.7-.36-.94 1.295-1.57 1.798-.64.503-6.71-1.51-8.5-1.223-8.02 1.367-16.26-.43-22.63 0-1.49.576-2.93 1.223-4.25 1.798-1.86.206-3.72-.209-5.48-1.222l-5.05.647c-1.78.316-3.57-.002-5.27-.935-2.78 1.183-5.66 1.403-8.49.647 0-1.797.3-2.013-.47-3.091h-.21c-.1.918-.35 1.772-.72 2.47-.36.697-.84 1.21-1.36 1.484-3.43-.73-6.91-.413-10.28.935-2.84.07-5.68-.242-8.49-.935l-5.74.935c-5.18 0-12.74-.36-16.98-.935 0 2.085 0 3.02-1.11 3.667a5.618 5.618 0 00-.24-1.71c-.16-.526-.4-.977-.69-1.31-1.94 1.01-4.01 1.01-5.95 0-.15-.03-.31-.03-.46 0l.46.863c1.28.863 2.59 1.654 3.87 2.445v.575h-1.11c-7.13-4.674-11.72-2.876-20.64-3.883l-.21.863.68 2.445h-.89l-1.62-2.732c-6.1-1.263-12.29-.752-18.3 1.51a5.523 5.523 0 01-.42 1.421c-.2.42-.45.769-.73 1.023-.72 0-3.22-2.157-2.76-2.445-3.71-1.04-7.5-1.04-11.21 0-1.23 0-2.42-.647-3.65-.934-6.15 1.363-12.358-2.105-18.558-2.464l-.467-1.222c-.37.63-.844 1.057-1.359 1.222-.467-.863-1.02-.863-1.572-1.51 1.996-1.438 1.741-5.393 5.224-4.242-.722-1.51-1.189-1.223-.892-2.732l.996-.034v-3.02h-.722c-1.953 1.438-.444 1.687-2.1 3.053h-3.228c-1.745.915-2.677 4.651-3.154 6.563l-.031.125c-.426-.378-.899-.576-1.38-.576-.481 0-.954.198-1.38.576v1.222l1.401 1.797-.467.863h-1.147c-.645-1.08-1.43-1.893-2.293-2.372l-.467.575c.849.503.552 0 .934 1.222l-2.548.647h-.212c0-1.941-.255-1.797-.679-3.667 2.063.457 4.158-.278 5.945-2.085l-1.826.603h-.68c-.385 1.444-1.042-1.35-1.868-.603l-3.185 1.825v-.575c1.189-.503 1.826-2.085 1.401-3.667-.424-1.582-.552-1.582-1.146-2.373h-.255c-1.058 2.245-1.693 4.975-1.826 7.838-.7.419-1.382-3.059-2.039-2.473l-1.614-.863 1.614 4.17 1.614.648c.722-1.366.934-1.51 2.038-.935l.68 2.732h-.467c-.17 0-1.657-.79-2.506-1.222l-.212 3.092-.68-.647c-1.656-3.38-4.714-.431-7.559 0-.722-1.007-.68-1.079-1.826-.863l-.255-3.38h.467c1.529-.718 3.058-1.366 4.587-2.085h-.467a8.35 8.35 0 00-1.002-.555l-.06.295a17.52 17.52 0 00-3.44 1.51l.066-.64c-.5.554-1.053.966-1.637 1.216a4.279 4.279 0 00-.769-.573c-.006.997.01 1.994.047 2.99-1.359.575-1.529 1.51-3.185 1.797-1.657.288-.935-.934-.935-1.51-1.146.72-1.274 1.582-2.505 2.157-.977-.575-1.147-.575-1.614-1.87-1.359.935-2.718 1.87-4.247 2.733l-.467-2.732c-1.231.503-1.444 1.438-2.038 2.732-2.697-.507-5.427-.09-8.027 1.223-2.123 0-4.247-.432-6.413-.576-4.926-.502-9.87.299-14.651 2.373l-.892-1.51c-3.057 3.452-8.069 0-11.679.647-1.898.69-3.869.566-5.733-.36-5.549 2.345-11.293-1.926-16.987-2.842l-.425-.647c2.081-4.746-2.887-4.458-5.266-4.53l.213 2.445h.467a7.887 7.887 0 003.44 0l.679 2.157c-2.749-.306-5.501.507-8.026 2.373-1.359 1.438-15.331-6.97-19.196-4.237-1.316.935-9.428-1.15-10.787-.575l-.637 1.366h-1.146c-.68 0-.85-1.726-2.293-1.223-3.4 1.095-6.873 1.385-10.32.863-2.421 0-4.884 1.647-7.305 1.935-3.156-.065-6.3-.668-9.385-1.798-5.521-1.438-7.772 3.092-12.741-1.222 0 0-9.597 2.732-10.744 2.445-4.247-1.079-10.065-1.798-13.505-2.445-1.146 0-1.019 1.15-1.613 1.51-2.093.64-4.251.215-6.201-1.222l-5.945 2.157a18.733 18.733 0 00-3.865-2.445c-1.93 1.552-4.075 2.174-6.2 1.798-.977-2.086-2.93-2.014-3.907-3.308-4.247 4.17-4.757 1.15-8.494 0-1.868-.575-1.019 1.51-2.548 0l-4.799 3.02c-1.656-1.079-2.081-2.517-4.247-2.733-1.307 1.218-2.757 1.93-4.246 2.086l-2.506-2.733c-2.888 0-3.822 2.517-6.413 2.158l-4.586-2.733c-1.363 1.701-2.905 2.946-4.544 3.667l-4.247-3.092c-.572 2.698-1.34 3.4-2.797 4.729l-.176.16h-.212c-2.287-2.468-4.994-3.575-7.694-3.145-2.7.43-5.238 2.372-7.212 5.519-4.354-.412-8.485-3.388-11.679-8.413h-.212c-.136 2.667-.777 5.189-1.826 7.19-1.869 0-3.228 0-3.908-2.372-1.359.575-3.1 1.87-4.544 2.732-7.729-5.824-6.033 0-14.145-4.602-.275.957-.695 1.774-1.217 2.367-.522.593-1.128.943-1.755 1.012a53.637 53.637 0 00-4.247-1.797c-6.328.36-12.741.79-18.984 1.15-2.123-.934-4.246-3.092-5.733-2.085-1.316 4.674-8.281 2.948-11.891 3.595-1.877-2.456-4.077-4.109-6.412-4.817-.892 0-1.741 2.876-3.44 2.732l-6.413-1.51-.014.007a271.94 271.94 0 01-4.233 2.078c-12.358-.719-25.098.432-36.182.935-7.687 0-16.987 2.445-23.315-1.222-1.656 3.307-4.757-1.007-6.668 0-.892 0-1.486 2.085-2.718 2.444-2.505.648-3.44-1.51-5.053-1.51-4.035 0-9.64 4.89-16.265 3.02l-6.838-2.157a53.95 53.95 0 01-11.466 0l-5.011-.863c-14.142 4.459 3.515-1.797-13.26 1.798h-11.467c-10.037 1.558-2.484 1.967-12.554 1.223-2.123-.432-4.247-.792-6.413-1.223l-2.972 1.798h-7.092a80.68 80.68 0 01-24.504-.935c-1.438.3-2.859.806-4.247 1.51a70.475 70.475 0 01-11.679-2.085c-1.917-.293-3.85-.1-5.733.575-4.799 0-9.598-.36-14.397-.575l-24.504.49c-5.478-1.438-11.551-2.301-17.412-3.02-.891.431-1.826.79-2.717 1.222-.892.432-8.282-1.51-8.282-1.51-.255 1.222.213.863-.679 1.51-4.247 3.02-8.494-2.157-13.25-1.51-2.701.02-5.394-.487-8.027-1.51-1.444-.431-3.779.432-5.733 0-7.227-2.505-14.579 2.17-21.956 2.046-.407-.883-.974-1.515-1.614-1.798-.339 1.222 0 1.078-1.146 1.51-1.741-2.517-7.942-1.007-10.532 0-.698-.995-1.251-2.25-1.614-3.667h-.425v3.02c-.764 0-.722.503-1.401.36-3.9.802-7.855-1.71-11.636-3.51-1.572 3.738-9.386-1.151-11 .862-2.42.863-6.752-.863-8.493 0-4.656 1.745-9.416 2.566-14.184 2.445-4.948-1.862-10.047-2.276-15.077-1.222-1.911.79-18.006-.432-18.091-.576-5.521 4.314-16.69-1.366-25.481 1.15-8.79 2.517-20.554-1.006-30.45.648-8.96 1.438-17.708-3.431-24.928-2.425-2.548.432-5.053.791-7.56 1.222a11.854 11.854 0 00-6.879 0c-.552 0-.297 1.223-1.359 1.223-2.123 0-2.803-2.23-4.247-2.445-.68 1.223-1.359 2.445-2.08 3.595-2.506-.575-5.48 2.085-8.494 1.223-1.147 0-1.104-1.942-1.826-2.373-2.166-1.366-5.267.647-7.347-.647l-2.718-4.243c-2.676 0-5.351 3.64-8.027 3.425C15.557 20.688 4.376 26.406 0 19V0h1440v19c-2.95-.057-6.2 1.272-8.83 3.503-7.14-5.393-13.21 1.516-21.75-1.217-3.9-1.15-11.12 1.007-13.08-2.732-3.53 1.474-7.21 1.474-10.74 0v.36l.68 1.51h-.68c-1.09-.834-2.25-1.345-3.44-1.51 0-1.223 0-.935-.47-1.51-1.87-.576-4.97 2.804-7.35 2.372l-1.82-1.51a52.094 52.094 0 00-15.63 1.51z" fill="#fff"/></svg>