<svg width="138" height="116" viewBox="0 0 138 116" fill="none" xmlns="http://www.w3.org/2000/svg"><path fill-rule="evenodd" clip-rule="evenodd" d="M91.14 57.305c.361 1.013 1.209 1.908 1.134 3.076-.016.251.147.39.304.566.184.208.41 2.27.5 2.551.255.788-.472 1.63-.01 2.287.552.78.35 1.486.338 2.31-.03 2.02-.44 3.918-1.307 6.054-.038-.714-.128-1.17-.514-1.472.236-.184.526-.112.622-.439-.534-1.389.066-2.846-.013-4.314-.073-1.368.089-2.756-.133-4.144-.345-2.152-.618-4.316-.922-6.475zm-16.6 32.382c-.581.504-.934 1.139-1.484 1.652-1.316 1.229-2.857 2.105-4.311 3.118-.618.43-1.384.39-1.836-.152-1.511-1.817-3.098-3.582-4.133-5.747-.484-1.013-1.024-1.999-1.528-3.003-.535-1.068-.823-2.235-1.25-3.344-.413-1.072-.427-2.281-.845-3.41-.575-1.552.087-3.267-.374-4.872.554-.604.034-1.296.158-1.945.273-1.421.495-2.852.717-4.283.382-2.465 1.266-4.803 2.354-6.987.842-1.689 1.81-3.38 3.159-4.828.948-1.02 1.9-2.005 3.028-2.788 1.888-1.313 3.857-2.494 6.248-2.652a6.658 6.658 0 001.03-.145c2.39-.54 3.738.675 5.213 2.224.758.796 1.106 1.9 2.052 2.526-.082.274-.58.535-.08.845.303.187.308.467.32.742.026.533.648.027.728.43-.55.705-.183 1.119.433 1.452l.403-.436c.304 1.162.403 2.26.809 3.316.586 1.529.263 3.246.266 4.855.004 1.516-.077 3.125-.611 4.622-.019.052.235.2.37.31-.996.921-1.157 2.26-1.565 3.413-.75 2.121-1.465 4.226-2.824 6.044-.209.279-.04.59-.148.787-.254.464-.114.968-.26 1.438l-.653.091c-.385.21-.121.626-.386.919-.223.246-.601.228-.753.747-.227.778-.88 1.474-1.47 2.091-.574.6-.578 1.673-1.66 1.874-.37.068-.273.681-.478 1.006l-.64.09zm.559 13.971c.644.92 1.67.404 2.495.604.578.139 1.384.544 1.924.11.58-.465 1.1.048 1.644-.163.376-.147.863-.325 1.3.069.117.105.505.075.642-.041.362-.305.655-.684 1.107-.147.82-.69 1.913-.472 2.832-.86 1.057-.446 2.122-.895 3.264-1.09l.837-1.11c.391.354.771.362 1.206.04 1.594-1.178 3.466-2.001 4.87-3.394 1.06-1.05 2.312-1.896 3.189-3.17.923-1.34 2.152-2.456 3.125-3.779 1.407-1.913 2.525-4.006 3.861-5.962.052-.935.768-1.547 1.132-2.329.393-.845.962-1.586 1.295-2.476.322-.862.656-1.745 1.226-2.505.228-.305-.033-.513-.356-.721.367-.642 1.091-.997 1.209-1.907.095-.729.739-1.416 1.072-2.188a80.6 80.6 0 002.641-6.944c.281-.864.369-1.82.79-2.6.428-.794.364-1.678.759-2.47.402-.804.638-1.708.837-2.592.601-2.66 1.468-5.245 2.068-7.913.633-2.818 1.341-5.615 1.847-8.465.176-.994.486-1.964.638-2.982.183-1.221.298-2.457.541-3.666.235-1.163.629-2.286.55-3.51-.015-.264.353-.596.174-.93-.157-.29.549-.464.022-.841-.25-.179.311-.476.411-.768.148-.429-.03-.86.02-1.313.238-2.205.667-4.383.736-6.62.038-1.263.009-2.576.386-3.862.218-.741-.298-1.64.062-2.466-.405-1.269.205-2.587-.187-3.86-.109-.35.383-.717-.121-1.132-.19-.157.339-.743.153-1.244-.158-.423-.149-.91-.213-1.367-.064-.458-.145-.915-.19-1.375-.118-1.198-.62-2.148-1.44-3.073-.735-.829-1.48-1.546-2.455-2.05-.349-.18-.639-.08-.937.07-.318.68.378.982.555 1.473.141.39.657.55.587 1.15-.044.378.465.719.039 1.246-.409.506.686.73.435 1.364l-.456.163c-.017.023-.089.077-.081.114.244 1.107.07 2.223.076 3.334.001.29.283.325.433.528l-.571.292c-.101.41-.088.781.338 1.035-.025.08-.024.194-.081.245-.445.396-.285.909-.354 1.405-.365 2.616-.262 5.289-.97 7.86.205 1.495-.437 2.87-.626 4.312-.118.898-.277 1.818-.384 2.701-.11.911-.847 1.74-.426 2.716-.623 1.393-.557 2.948-1.028 4.37-.338 1.025-.355 2.103-.653 3.147-.287 1.004-.456 2.099-.722 3.122-.403 1.549-.639 3.14-1.244 4.654-.326.82-.585 1.732-.765 2.608-.837 4.06-2.303 7.915-3.678 11.801-.412 1.161-1.076 2.256-1.117 3.515-.022.656-.644.984-.66 1.668-.012.478-.597.917-.737 1.425-.161.585-.397 1.112-.634 1.662-.381.88-.888 1.775-.565 2.756-.255.284-.309-.033-.449-.037-.898 1.148-.922 1.31-.332 2.287l-.405.512a135.39 135.39 0 01-.386-.243c-.969 1.006-1.526 2.12-1.069 3.49-.367.2-.509-.302-.864-.066-.652 1.232-1.225 2.607-2.061 3.798a63.067 63.067 0 01-1.925 2.638c-.713.912-1.397 1.845-2.093 2.77-.696.923-1.297 1.942-2.11 2.75-1.466 1.46-2.912 2.933-4.55 4.239-1.32 1.052-2.724 1.929-4.136 2.796-.953.586-2.06.965-3.145 1.274a7.621 7.621 0 00-1.524.588c-.181.096-.445.135-.634-.082-.142-.404.135-.734.385-.872 1.457-.805 2.376-2.15 3.406-3.365 1.009-1.189 1.922-2.462 2.829-3.733a31.004 31.004 0 003.614-6.676c.594-1.504 1.299-2.956 1.821-4.498.814-2.397 1.43-4.83 1.715-7.337.04-.35.407-.602.241-.928-.24-.47.552-.94.112-1.225-.605-.39.164-.638-.033-.993-.178-.32-.16-.73.135-1.116.188-.246-.192-.465-.42-.655.7-.445.458-1.206.419-1.75-.124-1.727-.27-3.488-.738-5.142-.338-1.196-.62-2.444-1.156-3.583-.524-1.112-1.199-2.156-1.683-3.283-.335-.78-.98-1.287-1.403-1.969-.41-.662-1.047-1.159-1.436-1.762-.568-.885-1.54-1.11-2.201-1.817-.612-.654-1.626-.925-2.47-1.24-1.035-.388-2.115-.787-3.224-.947-1.065-.153-2.107-.41-3.198-.489-1.436-.104-2.846-.268-4.287-.061-.642.092-1.28-.247-1.97-.075-.86.214-1.735.257-2.573.69-.766.396-1.694.349-2.562.69-3.224 1.267-3.825 1.299-6.75 3.415-.433.313-.625.97-1.278.98-1.584 2.296-3.616 4.286-4.762 6.882a37.445 37.445 0 00-2.834 9.866c-.136.957-.547 1.872-.41 2.88-.802-1.731.261-3.446.071-5.584-.65 1.623-.686 2.943-.82 4.226-.175 1.706-.245 3.41-.065 5.145.081.785.002 1.645.055 2.477.048.747.703 1.25.675 2.043-.023.683.044 1.422.287 2.052.798 2.066 1.513 4.158 2.425 6.189.98 2.184 2.297 4.12 3.658 6.036.887 1.248 1.846 2.5 3.18 3.33.542.337.713 1.115 1.472 1.177.045.004.012.327.205.42.412.197.19.605.381.885-1.778.761-3.528 1.356-5.257 2-1.3.484-2.657.675-3.958 1.132-1.284.452-2.728.587-4.105.603-2.019.022-4.059.116-6.064-.212-1.958-.321-3.821-1.017-5.713-1.597-.593-.182-.864-.959-1.606-.832-1.248-1.306-3.158-1.667-4.317-3.184-.695-.91-1.827-1.474-2.657-2.343-1.209-1.265-2.312-2.62-3.512-3.888-.974-1.028-1.735-2.222-2.617-3.313-1.298-1.606-2.28-3.487-3.248-5.329-.547-1.04-1.198-2.021-1.636-3.138-.619-1.582-1.494-3.065-1.613-4.81-.048-.714.284-1.396.079-2.149-.123-.45-.376-.662-.689-.895-.38.837-.405 1.811-1.16 2.754.128-.714-.935-.8-.345-1.668.277-.408-.21-1.185.326-1.714l-.894-.555c-.155.282-.392.604-.507.965-.098.308.024.722-.66.614.36-.67.123-1.318.017-2.042-.715.13-1.394.016-1.91.532-.238-.106-.025-.48-.355-.532-.235.334-.607.606-.727 1.064-.1.382-.235.755-.359 1.146-.414-.25-.072-.744-.453-.95-.286.585-.428 1.162-.314 1.837.277 1.653.53 3.315.694 4.983.083.86.526 1.58.763 2.368a25.125 25.125 0 002.072 4.903c.725 1.304 1.203 2.766 2.257 3.88 1.395 3.135 4.066 5.295 6.113 7.93.5.645 1.219 1.168 1.856 1.684 2.402 1.94 4.627 4.109 7.224 5.803 3.584 2.337 7.406 4.196 11.546 5.291 1.702.45 3.465.704 5.23.928 1.285.164 2.6.058 3.86.422.101.029.22.001.33 0 2.009-.033 9.578-.724 11.064-1.242 1.611-.561 3.29-.888 4.875-1.504 1.507-.587 2.985-1.249 4.477-1.873.104-.042.27.007.336-.058 1.275-1.263 2.907-1.541 4.75-1.682z" fill="#000"/></svg>