<svg width="207" height="118" viewBox="0 0 207 118" fill="none" xmlns="http://www.w3.org/2000/svg"><path fill-rule="evenodd" clip-rule="evenodd" d="M29.175 115.919l-.048-.185h-9.535l.013.185h9.57zm92.994-74.292c-3.201 3.152-6.703 6.065-8.4 10.4l8.4-10.4zM105.756 77.54c0 .619-.05 1.242.007 1.854.929 9.878 9.018 12.429 16.242 10.417 2.356-.656 4.34-1.935 6.237-3.33 1.691-1.243 3.373-2.618 4.68-4.241 3.261-4.05 5.121-8.822 6.119-13.88 1.388-7.036 1.67-14.072-.994-20.93-1.561-4.013-3.857-7.458-7.642-9.777-1.088-.666-1.789-.475-2.63.334-6.171 5.937-11.846 12.276-16.044 19.806-3.427 6.146-5.914 12.584-5.975 19.747zm-56.478 34.306l-15.17 3.507a163.003 163.003 0 0011.82-2.22c1.147-.258 2.215-.873 3.322-1.321 2.355.047 4.138-1.322 5.982-2.537l-5.954 2.571zm82.609-77.48c6.237 3.921 10.103 9.395 11.891 16.128 3.419 12.873 1.443 24.93-6.775 35.575-3.86 4.999-9.169 8.124-15.493 9.056-5.339.787-10.007-.993-13.955-4.598-3.927-3.585-6.46-8.058-6.885-13.336-.364-4.523.037-9.117 1.772-13.418 1.388-3.44 2.815-6.88 4.513-10.172 1.023-1.983 2.54-3.728 3.937-5.5 3.282-4.163 6.626-8.277 9.893-12.769-1.223.35-2.499.579-3.661 1.074-3.749 1.6-6.749 4.243-9.43 7.233-6.458 7.204-10.77 15.726-14.844 24.393-3.542 7.539-7.148 15.047-12 21.871-9.503 13.366-22.207 21.884-38.25 25.464-9.826 2.192-19.772 1.819-29.72 1.778-3.743-.015-7.49.289-11.234.44-.205.009-.413-.053-.85-.113l.82-.767L0 115.39c.465-.552.826-1.311 1.419-1.609.878-.441 1.909-.695 2.896-.785 2.713-.244 5.438-.335 8.156-.536 3.103-.229 6.2-.528 9.304-.754.754-.055 1.53.145 2.279.072 3.588-.349 7.197-.593 10.747-1.184 3.187-.531 6.282-1.611 9.466-2.17 2.427-.427 4.655-1.282 6.873-2.248 5.336-2.326 10.42-4.957 14.823-8.953 6.175-5.604 11.09-12.175 15.372-19.198 2.55-4.185 4.191-8.916 6.395-13.326 2.276-4.552 4.703-9.032 7.135-13.505 1.225-2.254 2.411-4.575 3.97-6.591 1.987-2.575 4.268-4.936 6.549-7.264 1.481-1.51 3.051-3.013 4.821-4.142 4.108-2.622 8.634-3.417 13.381-2.096 1.449.403 2.482.268 3.656-.76 8.683-7.615 18.369-13.704 28.904-18.392 6.286-2.797 12.592-5.626 19.095-7.834 8.388-2.846 17.087-4.434 26.023-4.061 1.445.06 2.911.34 4.297.757.576.174.965.971 1.439 1.484-.52.348-1.011.92-1.566.993-.948.122-1.938-.058-2.908-.134-.656-.052-1.316-.252-1.959-.199-6.929.572-13.695 2.03-20.278 4.21-17.15 5.68-32.862 14.014-46.719 25.699-.51.43-.997.888-1.683 1.502z" fill="#172327"/></svg>