<svg width="170" height="159" viewBox="0 0 170 159" fill="none" xmlns="http://www.w3.org/2000/svg"><path fill-rule="evenodd" clip-rule="evenodd" d="M20.228 141.686a8.528 8.528 0 11-.007 17.057 8.528 8.528 0 01.007-17.057zm23.541 0a8.528 8.528 0 11-.006 17.056 8.528 8.528 0 01.006-17.056zm23.541 0a8.528 8.528 0 11-.006 17.056 8.528 8.528 0 01.006-17.056zm23.541 0a8.528 8.528 0 11-.006 17.056 8.528 8.528 0 01.007-17.056zm23.542 0a8.527 8.527 0 018.524 8.53 8.527 8.527 0 11-8.524-8.53zm23.541 0a8.528 8.528 0 11-.007 17.057 8.528 8.528 0 01.007-17.057zm23.541 0a8.528 8.528 0 11-.007 17.057 8.528 8.528 0 01.007-17.057zM8.53 117.999a8.528 8.528 0 11-.007 17.053A8.528 8.528 0 018.53 118zm23.541 0a8.529 8.529 0 11-.007 17.053 8.529 8.529 0 01.007-17.053zm23.542 0a8.528 8.528 0 11-.007 17.053A8.528 8.528 0 0155.612 118zm23.541 0a8.528 8.528 0 11-.007 17.053A8.528 8.528 0 0179.154 118zm23.541 0a8.527 8.527 0 018.525 8.53 8.528 8.528 0 11-8.525-8.53zm23.541 0a8.528 8.528 0 11-.007 17.053 8.528 8.528 0 01.007-17.053zm23.542 0a8.526 8.526 0 018.524 8.53 8.528 8.528 0 11-8.524-8.53zM90.852 94.457a8.528 8.528 0 11-.007 17.057 8.528 8.528 0 01.007-17.057zm-70.624 0a8.528 8.528 0 11-.007 17.057 8.528 8.528 0 01.007-17.057zm94.165 0a8.527 8.527 0 018.524 8.531 8.528 8.528 0 11-8.524-8.53zm-47.083 0a8.528 8.528 0 11-.006 17.056 8.528 8.528 0 01.006-17.056zm70.624 0a8.528 8.528 0 11-.007 17.057 8.528 8.528 0 01.007-17.057zm-94.165 0a8.528 8.528 0 11-.006 17.056 8.528 8.528 0 01.006-17.056zm117.706 0a8.528 8.528 0 11-.007 17.057 8.528 8.528 0 01.007-17.057zM126.236 70.77a8.528 8.528 0 11-.005 17.055 8.528 8.528 0 01.005-17.055zm-117.706 0a8.528 8.528 0 11-.006 17.056A8.528 8.528 0 018.53 70.77zm47.083 0a8.528 8.528 0 11-.006 17.055 8.528 8.528 0 01.006-17.055zm47.082 0a8.528 8.528 0 11-.006 17.056 8.528 8.528 0 01.006-17.056zm-70.624 0a8.528 8.528 0 11-.006 17.056 8.528 8.528 0 01.006-17.056zm117.707 0a8.527 8.527 0 018.524 8.53 8.529 8.529 0 11-8.524-8.53zm-70.624 0a8.528 8.528 0 11-.006 17.055 8.528 8.528 0 01.006-17.055zm82.321-23.541a8.528 8.528 0 11-.006 17.056 8.528 8.528 0 01.006-17.056zm-117.706 0a8.528 8.528 0 11-.006 17.055 8.528 8.528 0 01.006-17.055zm47.083 0a8.528 8.528 0 11-.007 17.056 8.528 8.528 0 01.007-17.056zm23.541 0a8.527 8.527 0 018.524 8.53 8.527 8.527 0 11-17.054-.005 8.527 8.527 0 018.53-8.525zm-47.083 0a8.528 8.528 0 11-.006 17.056 8.528 8.528 0 01.006-17.056zm70.624 0a8.528 8.528 0 11-.006 17.056 8.528 8.528 0 01.006-17.056zm-117.706 0a8.528 8.528 0 11-.007 17.056 8.528 8.528 0 01.007-17.056zM8.53 23.54a8.528 8.528 0 11-.006 17.056A8.528 8.528 0 018.53 23.54zm23.541 0a8.528 8.528 0 11-.006 17.056 8.528 8.528 0 01.006-17.056zm23.542 0a8.528 8.528 0 11-.006 17.056 8.528 8.528 0 01.006-17.056zm23.541 0a8.528 8.528 0 11-.006 17.056 8.528 8.528 0 01.006-17.056zm23.541 0a8.528 8.528 0 11-.006 17.057 8.528 8.528 0 01.006-17.057zm23.541 0a8.528 8.528 0 11-.005 17.055 8.528 8.528 0 01.005-17.055zm23.542 0a8.527 8.527 0 018.524 8.53 8.529 8.529 0 11-8.524-8.53zM20.228 0a8.528 8.528 0 11-.006 17.056A8.528 8.528 0 0120.228 0zm23.541 0a8.528 8.528 0 11-.006 17.055A8.528 8.528 0 0143.77 0zM67.31 0a8.528 8.528 0 11-.005 17.055A8.528 8.528 0 0167.31 0zm23.541 0a8.528 8.528 0 11-.005 17.055A8.528 8.528 0 0190.85 0zm23.542 0a8.527 8.527 0 018.524 8.53 8.527 8.527 0 11-17.054-.005A8.527 8.527 0 01114.393 0zm23.541 0a8.528 8.528 0 11-.006 17.056A8.528 8.528 0 01137.934 0zm23.541 0a8.528 8.528 0 11-.006 17.056A8.528 8.528 0 01161.475 0z" fill="#050916"/></svg>