<svg width="170" height="170" viewBox="0 0 170 170" fill="none" xmlns="http://www.w3.org/2000/svg"><g clip-path="url(#clip0)" stroke="#000" stroke-width="2" stroke-linecap="round" stroke-linejoin="round"><path d="M125.223 191.188c24.546-15.314 43.593-40.849 65.664-61.03M-8 219.98c24.13-14.523 47.433-33.808 72.989-43.875 20.799-8.193 40.593-17.931 60.234-30.185 24.546-15.313 43.593-40.848 65.664-61.029m-65.664 136.475c24.546-15.314 43.593-40.849 65.664-61.029"/><path d="M-8 235.069c24.13-14.523 47.433-33.808 72.989-43.875 20.799-8.193 40.593-17.931 60.234-30.184 24.546-15.314 43.593-40.849 65.664-61.03m-65.664 106.297c24.546-15.314 43.593-40.849 65.664-61.029M64.989 206.283c20.799-8.193 40.593-17.931 60.234-30.184 24.546-15.314 43.593-40.849 65.664-61.03M-8 174.713c24.13-14.523 47.433-33.808 72.989-43.875 20.799-8.194 40.593-17.932 60.234-30.185 24.546-15.313 43.593-40.849 65.664-61.03"/><path d="M-8 189.802c24.13-14.523 47.433-33.808 72.989-43.875 20.799-8.194 40.593-17.932 60.234-30.185 24.546-15.313 43.593-40.849 65.664-61.03M-8 129.446c24.13-14.523 47.433-33.808 72.989-43.876 20.799-8.193 40.593-17.931 60.234-30.184 24.546-15.314 43.593-40.849 65.664-61.03M-8 84.178C16.13 69.655 39.433 50.37 64.989 40.303c20.799-8.193 40.593-17.931 60.234-30.185 24.546-15.313 43.593-40.848 65.664-61.029"/><path d="M-8 204.891c24.13-14.523 47.433-33.808 72.989-43.875 20.799-8.193 40.593-17.932 60.234-30.185 24.546-15.313 43.593-40.848 65.664-61.029M-8 144.535c24.13-14.523 47.433-33.808 72.989-43.875 20.799-8.194 40.593-17.932 60.234-30.185 24.546-15.314 43.593-40.849 65.664-61.03M-8 99.267C16.13 84.744 39.433 65.46 64.989 55.392c20.799-8.193 40.593-17.931 60.234-30.185 24.546-15.313 43.593-40.848 65.664-61.029"/><path d="M-8 159.624c24.13-14.523 47.433-33.808 72.989-43.875 20.799-8.194 40.593-17.932 60.234-30.185 24.546-15.313 43.593-40.849 65.664-61.03M-8 114.356c24.13-14.522 47.433-33.808 72.989-43.875 20.799-8.193 40.593-17.931 60.234-30.184 24.546-15.314 43.593-40.85 65.664-61.03M-8 69.09c24.13-14.525 47.433-33.81 72.989-43.877 20.799-8.194 40.593-17.932 60.234-30.185C149.769-20.284 168.816-45.819 190.887-66"/><path d="M-8 54c24.13-14.523 47.433-33.808 72.989-43.875C85.787 1.93 105.582-7.807 125.222-20.06M-8 38.91C16.13 24.389 39.433 5.104 64.989-4.963c20.799-8.194 40.593-17.932 60.234-30.185M-8 23.822C16.13 9.299 39.433-9.986 64.989-20.053M-8 8.733C16.13-5.79 39.433-25.075 64.989-35.142"/></g><defs><clipPath id="clip0"><path fill="#fff" d="M0 0h170v170H0z"/></clipPath></defs></svg>