<svg width="78" height="172" viewBox="0 0 78 172" fill="none" xmlns="http://www.w3.org/2000/svg"><path fill-rule="evenodd" clip-rule="evenodd" d="M20.836 165.774c1.475 0 2.67 1.207 2.67 2.695 0 1.489-1.195 2.695-2.67 2.695-1.476 0-2.672-1.206-2.672-2.695 0-1.488 1.196-2.695 2.672-2.695zm-18.165 0c1.476 0 2.671 1.207 2.671 2.695 0 1.489-1.195 2.695-2.67 2.695-1.476 0-2.672-1.206-2.672-2.695 0-1.488 1.196-2.695 2.671-2.695zm36.329 0c1.475 0 2.671 1.207 2.671 2.695 0 1.489-1.196 2.695-2.671 2.695-1.475 0-2.671-1.206-2.671-2.695 0-1.488 1.196-2.695 2.671-2.695zm18.164 0c1.476 0 2.672 1.207 2.672 2.695 0 1.489-1.196 2.695-2.672 2.695-1.475 0-2.67-1.206-2.67-2.695 0-1.488 1.195-2.695 2.67-2.695zm18.165 0c1.475 0 2.671 1.207 2.671 2.695 0 1.489-1.196 2.695-2.671 2.695-1.475 0-2.671-1.206-2.671-2.695 0-1.488 1.195-2.695 2.67-2.695zm-54.493-18.326c1.475 0 2.67 1.206 2.67 2.695 0 1.488-1.195 2.695-2.67 2.695-1.476 0-2.672-1.207-2.672-2.695 0-1.489 1.196-2.695 2.672-2.695zm-18.165 0c1.476 0 2.671 1.206 2.671 2.695 0 1.488-1.195 2.695-2.67 2.695-1.476 0-2.672-1.207-2.672-2.695 0-1.489 1.196-2.695 2.671-2.695zm36.329 0c1.475 0 2.671 1.206 2.671 2.695 0 1.488-1.196 2.695-2.671 2.695-1.475 0-2.671-1.207-2.671-2.695 0-1.489 1.196-2.695 2.671-2.695zm18.164 0c1.476 0 2.672 1.206 2.672 2.695 0 1.488-1.196 2.695-2.672 2.695-1.475 0-2.67-1.207-2.67-2.695 0-1.489 1.195-2.695 2.67-2.695zm18.165 0c1.475 0 2.671 1.206 2.671 2.695 0 1.488-1.196 2.695-2.671 2.695-1.475 0-2.671-1.207-2.671-2.695 0-1.489 1.195-2.695 2.67-2.695zm-54.493-18.327c1.475 0 2.67 1.207 2.67 2.695 0 1.489-1.195 2.695-2.67 2.695-1.476 0-2.672-1.206-2.672-2.695 0-1.488 1.196-2.695 2.672-2.695zm-18.165 0c1.476 0 2.671 1.207 2.671 2.695 0 1.489-1.195 2.695-2.67 2.695-1.476 0-2.672-1.206-2.672-2.695 0-1.488 1.196-2.695 2.671-2.695zm36.329 0c1.475 0 2.671 1.207 2.671 2.695 0 1.489-1.196 2.695-2.671 2.695-1.475 0-2.671-1.206-2.671-2.695 0-1.488 1.196-2.695 2.671-2.695zm18.164 0c1.476 0 2.672 1.207 2.672 2.695 0 1.489-1.196 2.695-2.672 2.695-1.475 0-2.67-1.206-2.67-2.695 0-1.488 1.195-2.695 2.67-2.695zm18.165 0c1.475 0 2.671 1.207 2.671 2.695 0 1.489-1.196 2.695-2.671 2.695-1.475 0-2.671-1.206-2.671-2.695 0-1.488 1.195-2.695 2.67-2.695zM2.67 110.795c1.476 0 2.671 1.206 2.671 2.695 0 1.488-1.195 2.695-2.67 2.695-1.476 0-2.672-1.207-2.672-2.695 0-1.489 1.196-2.695 2.671-2.695zm36.329 0c1.475 0 2.671 1.206 2.671 2.695 0 1.488-1.196 2.695-2.671 2.695-1.475 0-2.671-1.207-2.671-2.695 0-1.489 1.196-2.695 2.671-2.695zm18.164 0c1.476 0 2.672 1.206 2.672 2.695 0 1.488-1.196 2.695-2.672 2.695-1.475 0-2.67-1.207-2.67-2.695 0-1.489 1.195-2.695 2.67-2.695zm18.165 0c1.475 0 2.671 1.206 2.671 2.695 0 1.488-1.196 2.695-2.671 2.695-1.475 0-2.671-1.207-2.671-2.695 0-1.489 1.195-2.695 2.67-2.695zm-54.493 0c1.475 0 2.67 1.206 2.67 2.695 0 1.488-1.195 2.695-2.67 2.695-1.476 0-2.672-1.207-2.672-2.695 0-1.489 1.196-2.695 2.672-2.695zm54.493-18.327c1.475 0 2.671 1.207 2.671 2.695 0 1.489-1.196 2.695-2.671 2.695-1.475 0-2.671-1.206-2.671-2.695 0-1.488 1.195-2.695 2.67-2.695zm-54.493 0c1.475 0 2.67 1.207 2.67 2.695 0 1.489-1.195 2.695-2.67 2.695-1.476 0-2.672-1.206-2.672-2.695 0-1.488 1.196-2.695 2.672-2.695zm-18.165 0c1.476 0 2.671 1.207 2.671 2.695 0 1.489-1.195 2.695-2.67 2.695C1.195 97.858 0 96.652 0 95.163c0-1.488 1.196-2.695 2.671-2.695zm36.329 0c1.475 0 2.671 1.207 2.671 2.695 0 1.489-1.196 2.695-2.671 2.695-1.475 0-2.671-1.206-2.671-2.695 0-1.488 1.196-2.695 2.671-2.695zm18.164 0c1.476 0 2.672 1.207 2.672 2.695 0 1.489-1.196 2.695-2.672 2.695-1.475 0-2.67-1.206-2.67-2.695 0-1.488 1.195-2.695 2.67-2.695zM20.836 74.142c1.475 0 2.67 1.206 2.67 2.695 0 1.488-1.195 2.695-2.67 2.695-1.476 0-2.672-1.207-2.672-2.695 0-1.489 1.196-2.695 2.672-2.695zm36.328 0c1.476 0 2.672 1.206 2.672 2.695 0 1.488-1.196 2.695-2.672 2.695-1.475 0-2.67-1.207-2.67-2.695 0-1.489 1.195-2.695 2.67-2.695zm-54.493 0c1.476 0 2.671 1.206 2.671 2.695 0 1.488-1.195 2.695-2.67 2.695C1.195 79.532 0 78.325 0 76.837c0-1.489 1.196-2.695 2.671-2.695zm36.329 0c1.475 0 2.671 1.206 2.671 2.695 0 1.488-1.196 2.695-2.671 2.695-1.475 0-2.671-1.207-2.671-2.695 0-1.489 1.196-2.695 2.671-2.695zm36.329 0c1.475 0 2.671 1.206 2.671 2.695 0 1.488-1.196 2.695-2.671 2.695-1.475 0-2.671-1.207-2.671-2.695 0-1.489 1.195-2.695 2.67-2.695zm0-18.327c1.475 0 2.671 1.207 2.671 2.695 0 1.489-1.196 2.695-2.671 2.695-1.475 0-2.671-1.206-2.671-2.695 0-1.488 1.195-2.695 2.67-2.695zm-36.329 0c1.475 0 2.671 1.207 2.671 2.695 0 1.489-1.196 2.695-2.671 2.695-1.475 0-2.671-1.206-2.671-2.695 0-1.488 1.196-2.695 2.671-2.695zm-18.164 0c1.475 0 2.67 1.207 2.67 2.695 0 1.489-1.195 2.695-2.67 2.695-1.476 0-2.672-1.206-2.672-2.695 0-1.488 1.196-2.695 2.672-2.695zm-18.165 0c1.476 0 2.671 1.207 2.671 2.695 0 1.489-1.195 2.695-2.67 2.695A2.682 2.682 0 010 58.51c0-1.488 1.196-2.695 2.671-2.695zm54.493 0c1.476 0 2.672 1.207 2.672 2.695 0 1.489-1.196 2.695-2.672 2.695-1.475 0-2.67-1.206-2.67-2.695 0-1.488 1.195-2.695 2.67-2.695zm0-18.326c1.476 0 2.672 1.206 2.672 2.695 0 1.488-1.196 2.695-2.672 2.695-1.475 0-2.67-1.207-2.67-2.695 0-1.489 1.195-2.695 2.67-2.695zm18.165 0c1.475 0 2.671 1.206 2.671 2.695 0 1.488-1.196 2.695-2.671 2.695-1.475 0-2.671-1.207-2.671-2.695 0-1.489 1.195-2.695 2.67-2.695zm-72.658 0c1.476 0 2.671 1.206 2.671 2.695 0 1.488-1.195 2.695-2.67 2.695C1.195 42.879 0 41.672 0 40.184c0-1.489 1.196-2.695 2.671-2.695zm18.165 0c1.475 0 2.67 1.206 2.67 2.695 0 1.488-1.195 2.695-2.67 2.695-1.476 0-2.672-1.207-2.672-2.695 0-1.489 1.196-2.695 2.672-2.695zm18.164 0c1.475 0 2.671 1.206 2.671 2.695 0 1.488-1.196 2.695-2.671 2.695-1.475 0-2.671-1.207-2.671-2.695 0-1.489 1.196-2.695 2.671-2.695zM20.836 19.162c1.475 0 2.67 1.207 2.67 2.695 0 1.489-1.195 2.695-2.67 2.695-1.476 0-2.672-1.206-2.672-2.695 0-1.488 1.196-2.695 2.672-2.695zm18.164 0c1.475 0 2.671 1.207 2.671 2.695 0 1.489-1.196 2.695-2.671 2.695-1.475 0-2.671-1.206-2.671-2.695 0-1.488 1.196-2.695 2.671-2.695zm18.164 0c1.476 0 2.672 1.207 2.672 2.695 0 1.489-1.196 2.695-2.672 2.695-1.475 0-2.67-1.206-2.67-2.695 0-1.488 1.195-2.695 2.67-2.695zm18.165 0c1.475 0 2.671 1.207 2.671 2.695 0 1.489-1.196 2.695-2.671 2.695-1.475 0-2.671-1.206-2.671-2.695 0-1.488 1.195-2.695 2.67-2.695zm-72.658 0c1.476 0 2.671 1.207 2.671 2.695 0 1.489-1.195 2.695-2.67 2.695C1.195 24.552 0 23.346 0 21.857c0-1.488 1.196-2.695 2.671-2.695zM20.836.836c1.475 0 2.67 1.206 2.67 2.695 0 1.488-1.195 2.695-2.67 2.695-1.476 0-2.672-1.207-2.672-2.695 0-1.489 1.196-2.695 2.672-2.695zM39 .836c1.475 0 2.671 1.206 2.671 2.695 0 1.488-1.196 2.695-2.671 2.695-1.475 0-2.671-1.207-2.671-2.695 0-1.489 1.196-2.695 2.671-2.695zm18.164 0c1.476 0 2.672 1.206 2.672 2.695 0 1.488-1.196 2.695-2.672 2.695-1.475 0-2.67-1.207-2.67-2.695 0-1.489 1.195-2.695 2.67-2.695zm18.165 0C76.804.836 78 2.042 78 3.53s-1.196 2.695-2.671 2.695c-1.475 0-2.671-1.207-2.671-2.695 0-1.489 1.195-2.695 2.67-2.695zM2.67.836c1.476 0 2.671 1.206 2.671 2.695 0 1.488-1.195 2.695-2.67 2.695C1.195 6.226 0 5.019 0 3.53 0 2.042 1.196.836 2.671.836z" fill="#000"/></svg>