<svg width="200" height="134" viewBox="0 0 200 134" fill="none" xmlns="http://www.w3.org/2000/svg"><path fill-rule="evenodd" clip-rule="evenodd" d="M85.71 129.759c1.16 0 2.101.95 2.101 2.121A2.11 2.11 0 0185.71 134a2.11 2.11 0 01-2.102-2.12c0-1.171.941-2.121 2.102-2.121zm-14.29 0c1.16 0 2.101.95 2.101 2.121A2.11 2.11 0 0171.42 134a2.11 2.11 0 01-2.102-2.12c0-1.171.941-2.121 2.102-2.121zm28.58 0a2.11 2.11 0 012.101 2.121A2.11 2.11 0 01100 134a2.11 2.11 0 01-2.102-2.12c0-1.171.941-2.121 2.102-2.121zm14.29 0c1.161 0 2.102.95 2.102 2.121a2.11 2.11 0 01-2.102 2.12 2.11 2.11 0 01-2.101-2.12c0-1.171.941-2.121 2.101-2.121zm14.29 0c1.161 0 2.102.95 2.102 2.121a2.11 2.11 0 01-2.102 2.12 2.11 2.11 0 01-2.101-2.12c0-1.171.941-2.121 2.101-2.121zm-42.87-14.417a2.11 2.11 0 012.101 2.12 2.11 2.11 0 01-2.101 2.12 2.11 2.11 0 01-2.102-2.12 2.11 2.11 0 012.102-2.12zm-14.29 0a2.11 2.11 0 012.101 2.12 2.11 2.11 0 01-2.101 2.12 2.11 2.11 0 01-2.102-2.12 2.11 2.11 0 012.102-2.12zm28.58 0a2.11 2.11 0 012.101 2.12 2.11 2.11 0 01-2.101 2.12 2.11 2.11 0 01-2.102-2.12 2.11 2.11 0 012.102-2.12zm14.29 0a2.11 2.11 0 012.102 2.12 2.11 2.11 0 01-2.102 2.12 2.11 2.11 0 01-2.101-2.12 2.11 2.11 0 012.101-2.12zm14.29 0a2.11 2.11 0 012.102 2.12 2.11 2.11 0 01-2.102 2.12 2.11 2.11 0 01-2.101-2.12 2.11 2.11 0 012.101-2.12zm-42.87-14.418a2.11 2.11 0 012.101 2.12 2.11 2.11 0 01-2.101 2.121c-1.16 0-2.102-.95-2.102-2.121s.941-2.12 2.102-2.12zm-14.29 0a2.11 2.11 0 012.101 2.12c0 1.171-.94 2.121-2.101 2.121s-2.102-.95-2.102-2.121.941-2.12 2.102-2.12zm28.58 0a2.11 2.11 0 012.101 2.12 2.11 2.11 0 01-2.101 2.121c-1.16 0-2.102-.95-2.102-2.121s.941-2.12 2.102-2.12zm14.29 0a2.11 2.11 0 012.102 2.12 2.112 2.112 0 01-2.102 2.121c-1.16 0-2.101-.95-2.101-2.121a2.11 2.11 0 012.101-2.12zm14.29 0a2.11 2.11 0 012.102 2.12 2.112 2.112 0 01-2.102 2.121c-1.16 0-2.101-.95-2.101-2.121a2.11 2.11 0 012.101-2.12zM71.42 86.506c1.16 0 2.101.95 2.101 2.12a2.11 2.11 0 01-2.101 2.12 2.11 2.11 0 01-2.102-2.12c0-1.17.941-2.12 2.102-2.12zm28.58 0a2.11 2.11 0 012.101 2.12 2.11 2.11 0 01-2.101 2.12 2.11 2.11 0 01-2.102-2.12c0-1.17.941-2.12 2.102-2.12zm14.29 0c1.161 0 2.102.95 2.102 2.12a2.11 2.11 0 01-2.102 2.12 2.11 2.11 0 01-2.101-2.12 2.11 2.11 0 012.101-2.12zm14.29 0c1.161 0 2.102.95 2.102 2.12a2.11 2.11 0 01-2.102 2.12 2.11 2.11 0 01-2.101-2.12 2.11 2.11 0 012.101-2.12zm-42.87 0c1.16 0 2.101.95 2.101 2.12a2.11 2.11 0 01-2.101 2.12 2.11 2.11 0 01-2.102-2.12c0-1.17.941-2.12 2.102-2.12zm42.87-14.417a2.11 2.11 0 012.102 2.12c0 1.17-.941 2.12-2.102 2.12a2.11 2.11 0 01-2.101-2.12 2.11 2.11 0 012.101-2.12zm-42.87 0a2.11 2.11 0 012.101 2.12c0 1.17-.94 2.12-2.101 2.12-1.16 0-2.102-.95-2.102-2.12a2.11 2.11 0 012.102-2.12zm-14.29 0a2.11 2.11 0 012.101 2.12c0 1.17-.94 2.12-2.101 2.12a2.11 2.11 0 01-2.102-2.12 2.11 2.11 0 012.102-2.12zm28.58 0a2.11 2.11 0 012.101 2.12c0 1.17-.94 2.12-2.101 2.12-1.16 0-2.102-.95-2.102-2.12a2.11 2.11 0 012.102-2.12zm14.29 0a2.11 2.11 0 012.102 2.12c0 1.17-.941 2.12-2.102 2.12a2.11 2.11 0 01-2.101-2.12 2.11 2.11 0 012.101-2.12zM85.71 57.67c1.16 0 2.101.95 2.101 2.12a2.11 2.11 0 01-2.101 2.12 2.112 2.112 0 01-2.102-2.12c0-1.17.941-2.12 2.102-2.12zm28.58 0c1.161 0 2.102.95 2.102 2.12a2.11 2.11 0 01-2.102 2.12 2.11 2.11 0 01-2.101-2.12c0-1.17.941-2.12 2.101-2.12zm-42.87 0c1.16 0 2.101.95 2.101 2.12a2.11 2.11 0 01-2.101 2.12 2.11 2.11 0 01-2.102-2.12c0-1.17.941-2.12 2.102-2.12zm28.58 0a2.11 2.11 0 012.101 2.12A2.11 2.11 0 01100 61.91a2.112 2.112 0 01-2.102-2.12c0-1.17.941-2.12 2.102-2.12zm28.58 0c1.161 0 2.102.95 2.102 2.12a2.11 2.11 0 01-2.102 2.12 2.11 2.11 0 01-2.101-2.12c0-1.17.941-2.12 2.101-2.12zm0-14.418c1.161 0 2.102.95 2.102 2.12a2.11 2.11 0 01-2.102 2.12 2.11 2.11 0 01-2.101-2.12 2.11 2.11 0 012.101-2.12zm-28.58 0a2.11 2.11 0 012.101 2.12 2.11 2.11 0 01-2.101 2.12 2.112 2.112 0 01-2.102-2.12c0-1.17.941-2.12 2.102-2.12zm-14.29 0c1.16 0 2.101.95 2.101 2.12a2.11 2.11 0 01-2.101 2.12 2.112 2.112 0 01-2.102-2.12c0-1.17.941-2.12 2.102-2.12zm-14.29 0c1.16 0 2.101.95 2.101 2.12a2.11 2.11 0 01-2.101 2.12 2.11 2.11 0 01-2.102-2.12c0-1.17.941-2.12 2.102-2.12zm42.87 0c1.161 0 2.102.95 2.102 2.12a2.11 2.11 0 01-2.102 2.12 2.11 2.11 0 01-2.101-2.12 2.11 2.11 0 012.101-2.12zm0-14.418c1.161 0 2.102.95 2.102 2.12a2.11 2.11 0 01-2.102 2.12 2.11 2.11 0 01-2.101-2.12 2.11 2.11 0 012.101-2.12zm14.29 0c1.161 0 2.102.95 2.102 2.12a2.11 2.11 0 01-2.102 2.12 2.11 2.11 0 01-2.101-2.12 2.11 2.11 0 012.101-2.12zm-57.16 0c1.16 0 2.101.95 2.101 2.12a2.11 2.11 0 01-2.101 2.12 2.11 2.11 0 01-2.102-2.12c0-1.17.941-2.12 2.102-2.12zm14.29 0c1.16 0 2.101.95 2.101 2.12a2.11 2.11 0 01-2.101 2.12 2.11 2.11 0 01-2.102-2.12c0-1.17.941-2.12 2.102-2.12zm14.29 0a2.11 2.11 0 012.101 2.12 2.11 2.11 0 01-2.101 2.12 2.11 2.11 0 01-2.102-2.12c0-1.17.941-2.12 2.102-2.12zM85.71 14.418a2.11 2.11 0 012.101 2.12 2.11 2.11 0 01-2.101 2.12 2.11 2.11 0 01-2.102-2.12 2.11 2.11 0 012.102-2.12zm14.29 0a2.11 2.11 0 012.101 2.12 2.11 2.11 0 01-2.101 2.12 2.11 2.11 0 01-2.102-2.12 2.11 2.11 0 012.102-2.12zm14.29 0a2.11 2.11 0 012.102 2.12 2.11 2.11 0 01-2.102 2.12 2.11 2.11 0 01-2.101-2.12 2.11 2.11 0 012.101-2.12zm14.29 0a2.11 2.11 0 012.102 2.12 2.11 2.11 0 01-2.102 2.12 2.11 2.11 0 01-2.101-2.12 2.11 2.11 0 012.101-2.12zm-57.16 0a2.11 2.11 0 012.101 2.12 2.11 2.11 0 01-2.101 2.12 2.11 2.11 0 01-2.102-2.12 2.11 2.11 0 012.102-2.12zM85.71 0c1.16 0 2.101.95 2.101 2.12a2.11 2.11 0 01-2.101 2.12 2.112 2.112 0 01-2.102-2.12C83.608.95 84.55 0 85.71 0zM100 0a2.11 2.11 0 012.101 2.12A2.11 2.11 0 01100 4.24a2.112 2.112 0 01-2.102-2.12C97.898.95 98.84 0 100 0zm14.29 0c1.161 0 2.102.95 2.102 2.12a2.11 2.11 0 01-2.102 2.12 2.11 2.11 0 01-2.101-2.12A2.11 2.11 0 01114.29 0zm14.29 0c1.161 0 2.102.95 2.102 2.12a2.11 2.11 0 01-2.102 2.12 2.11 2.11 0 01-2.101-2.12A2.11 2.11 0 01128.58 0zM71.42 0c1.16 0 2.101.95 2.101 2.12a2.11 2.11 0 01-2.101 2.12 2.11 2.11 0 01-2.102-2.12C69.318.95 70.26 0 71.42 0zm83.608 129.759c1.161 0 2.102.95 2.102 2.121a2.11 2.11 0 01-2.102 2.12 2.11 2.11 0 01-2.101-2.12 2.11 2.11 0 012.101-2.121zm-14.29 0c1.16 0 2.101.95 2.101 2.121a2.11 2.11 0 01-2.101 2.12 2.11 2.11 0 01-2.102-2.12c0-1.171.941-2.121 2.102-2.121zm28.58 0c1.161 0 2.102.95 2.102 2.121a2.11 2.11 0 01-2.102 2.12 2.11 2.11 0 01-2.101-2.12c0-1.171.941-2.121 2.101-2.121zm14.29 0c1.161 0 2.102.95 2.102 2.121a2.11 2.11 0 01-2.102 2.12 2.11 2.11 0 01-2.101-2.12c0-1.171.941-2.121 2.101-2.121zm14.291 0c1.16 0 2.101.95 2.101 2.121a2.11 2.11 0 01-2.101 2.12 2.11 2.11 0 01-2.102-2.12c0-1.171.941-2.121 2.102-2.121zm-42.871-14.417a2.11 2.11 0 012.102 2.12 2.11 2.11 0 01-2.102 2.12 2.11 2.11 0 01-2.101-2.12c0-1.171.94-2.12 2.101-2.12zm-14.29 0a2.11 2.11 0 012.101 2.12 2.11 2.11 0 01-2.101 2.12 2.11 2.11 0 01-2.102-2.12 2.11 2.11 0 012.102-2.12zm28.58 0a2.11 2.11 0 012.102 2.12 2.11 2.11 0 01-2.102 2.12 2.11 2.11 0 01-2.101-2.12 2.11 2.11 0 012.101-2.12zm14.29 0a2.11 2.11 0 012.102 2.12 2.11 2.11 0 01-2.102 2.12 2.11 2.11 0 01-2.101-2.12 2.11 2.11 0 012.101-2.12zm14.291 0a2.11 2.11 0 012.101 2.12 2.11 2.11 0 01-2.101 2.12 2.11 2.11 0 01-2.102-2.12 2.11 2.11 0 012.102-2.12zm-42.871-14.418a2.11 2.11 0 012.102 2.12 2.112 2.112 0 01-2.102 2.121 2.11 2.11 0 01-2.101-2.121c0-1.171.94-2.12 2.101-2.12zm-14.29 0a2.11 2.11 0 012.101 2.12 2.112 2.112 0 01-2.101 2.121 2.112 2.112 0 01-2.102-2.121 2.11 2.11 0 012.102-2.12zm28.58 0a2.11 2.11 0 012.102 2.12 2.112 2.112 0 01-2.102 2.121c-1.16 0-2.101-.95-2.101-2.121a2.11 2.11 0 012.101-2.12zm14.29 0a2.11 2.11 0 012.102 2.12 2.112 2.112 0 01-2.102 2.121c-1.16 0-2.101-.95-2.101-2.121a2.11 2.11 0 012.101-2.12zm14.291 0a2.11 2.11 0 012.101 2.12 2.112 2.112 0 01-2.101 2.121 2.112 2.112 0 01-2.102-2.121 2.11 2.11 0 012.102-2.12zm-57.161-14.418c1.16 0 2.101.95 2.101 2.12a2.11 2.11 0 01-2.101 2.12 2.111 2.111 0 01-2.102-2.12c0-1.17.941-2.12 2.102-2.12zm28.58 0c1.161 0 2.102.95 2.102 2.12a2.11 2.11 0 01-2.102 2.12 2.11 2.11 0 01-2.101-2.12 2.11 2.11 0 012.101-2.12zm14.29 0c1.161 0 2.102.95 2.102 2.12a2.11 2.11 0 01-2.102 2.12 2.11 2.11 0 01-2.101-2.12 2.11 2.11 0 012.101-2.12zm14.291 0c1.16 0 2.101.95 2.101 2.12a2.11 2.11 0 01-2.101 2.12 2.111 2.111 0 01-2.102-2.12c0-1.17.941-2.12 2.102-2.12zm-42.871 0c1.161 0 2.102.95 2.102 2.12a2.11 2.11 0 01-2.102 2.12 2.11 2.11 0 01-2.101-2.12c0-1.17.94-2.12 2.101-2.12zm42.871-14.417a2.11 2.11 0 012.101 2.12 2.11 2.11 0 01-2.101 2.12 2.111 2.111 0 01-2.102-2.12 2.11 2.11 0 012.102-2.12zm-42.871 0a2.11 2.11 0 012.102 2.12c0 1.17-.941 2.12-2.102 2.12a2.11 2.11 0 01-2.101-2.12c0-1.171.94-2.12 2.101-2.12zm-14.29 0a2.11 2.11 0 012.101 2.12 2.11 2.11 0 01-2.101 2.12 2.111 2.111 0 01-2.102-2.12 2.11 2.11 0 012.102-2.12zm28.58 0a2.11 2.11 0 012.102 2.12c0 1.17-.941 2.12-2.102 2.12a2.11 2.11 0 01-2.101-2.12 2.11 2.11 0 012.101-2.12zm14.29 0a2.11 2.11 0 012.102 2.12c0 1.17-.941 2.12-2.102 2.12a2.11 2.11 0 01-2.101-2.12 2.11 2.11 0 012.101-2.12zm-28.58-14.418c1.161 0 2.102.95 2.102 2.12a2.11 2.11 0 01-2.102 2.12 2.11 2.11 0 01-2.101-2.12c0-1.17.94-2.12 2.101-2.12zm28.58 0c1.161 0 2.102.95 2.102 2.12a2.11 2.11 0 01-2.102 2.12 2.11 2.11 0 01-2.101-2.12c0-1.17.941-2.12 2.101-2.12zm-42.87 0c1.16 0 2.101.95 2.101 2.12a2.11 2.11 0 01-2.101 2.12 2.111 2.111 0 01-2.102-2.12c0-1.17.941-2.12 2.102-2.12zm28.58 0c1.161 0 2.102.95 2.102 2.12a2.11 2.11 0 01-2.102 2.12 2.11 2.11 0 01-2.101-2.12c0-1.17.941-2.12 2.101-2.12zm28.581 0c1.16 0 2.101.95 2.101 2.12a2.11 2.11 0 01-2.101 2.12 2.111 2.111 0 01-2.102-2.12c0-1.17.941-2.12 2.102-2.12zm0-14.418c1.16 0 2.101.95 2.101 2.12a2.11 2.11 0 01-2.101 2.12 2.111 2.111 0 01-2.102-2.12c0-1.17.941-2.12 2.102-2.12zm-28.581 0c1.161 0 2.102.95 2.102 2.12a2.11 2.11 0 01-2.102 2.12 2.11 2.11 0 01-2.101-2.12 2.11 2.11 0 012.101-2.12zm-14.29 0c1.161 0 2.102.95 2.102 2.12a2.11 2.11 0 01-2.102 2.12 2.11 2.11 0 01-2.101-2.12c0-1.17.94-2.12 2.101-2.12zm-14.29 0c1.16 0 2.101.95 2.101 2.12a2.11 2.11 0 01-2.101 2.12 2.111 2.111 0 01-2.102-2.12c0-1.17.941-2.12 2.102-2.12zm42.87 0c1.161 0 2.102.95 2.102 2.12a2.11 2.11 0 01-2.102 2.12 2.11 2.11 0 01-2.101-2.12 2.11 2.11 0 012.101-2.12zm0-14.418c1.161 0 2.102.95 2.102 2.12a2.11 2.11 0 01-2.102 2.12 2.11 2.11 0 01-2.101-2.12 2.11 2.11 0 012.101-2.12zm14.291 0c1.16 0 2.101.95 2.101 2.12a2.11 2.11 0 01-2.101 2.12 2.111 2.111 0 01-2.102-2.12c0-1.17.941-2.12 2.102-2.12zm-57.161 0c1.16 0 2.101.95 2.101 2.12a2.11 2.11 0 01-2.101 2.12 2.111 2.111 0 01-2.102-2.12c0-1.17.941-2.12 2.102-2.12zm14.29 0c1.161 0 2.102.95 2.102 2.12a2.11 2.11 0 01-2.102 2.12 2.11 2.11 0 01-2.101-2.12c0-1.17.94-2.12 2.101-2.12zm14.29 0c1.161 0 2.102.95 2.102 2.12a2.11 2.11 0 01-2.102 2.12 2.11 2.11 0 01-2.101-2.12 2.11 2.11 0 012.101-2.12zm-14.29-14.417a2.11 2.11 0 012.102 2.12 2.11 2.11 0 01-2.102 2.12 2.11 2.11 0 01-2.101-2.12c0-1.171.94-2.12 2.101-2.12zm14.29 0a2.11 2.11 0 012.102 2.12 2.11 2.11 0 01-2.102 2.12 2.11 2.11 0 01-2.101-2.12 2.11 2.11 0 012.101-2.12zm14.29 0a2.11 2.11 0 012.102 2.12 2.11 2.11 0 01-2.102 2.12 2.11 2.11 0 01-2.101-2.12 2.11 2.11 0 012.101-2.12zm14.291 0a2.11 2.11 0 012.101 2.12 2.11 2.11 0 01-2.101 2.12 2.111 2.111 0 01-2.102-2.12 2.11 2.11 0 012.102-2.12zm-57.161 0a2.11 2.11 0 012.101 2.12 2.11 2.11 0 01-2.101 2.12 2.111 2.111 0 01-2.102-2.12 2.11 2.11 0 012.102-2.12zM155.028 0c1.161 0 2.102.95 2.102 2.12a2.11 2.11 0 01-2.102 2.12 2.11 2.11 0 01-2.101-2.12c0-1.17.94-2.12 2.101-2.12zm14.29 0c1.161 0 2.102.95 2.102 2.12a2.11 2.11 0 01-2.102 2.12 2.11 2.11 0 01-2.101-2.12A2.11 2.11 0 01169.318 0zm14.29 0c1.161 0 2.102.95 2.102 2.12a2.11 2.11 0 01-2.102 2.12 2.11 2.11 0 01-2.101-2.12A2.11 2.11 0 01183.608 0zm14.291 0c1.16 0 2.101.95 2.101 2.12a2.11 2.11 0 01-2.101 2.12 2.111 2.111 0 01-2.102-2.12c0-1.17.941-2.12 2.102-2.12zm-57.161 0c1.16 0 2.101.95 2.101 2.12a2.11 2.11 0 01-2.101 2.12 2.111 2.111 0 01-2.102-2.12c0-1.17.941-2.12 2.102-2.12zM16.392 129.759c1.16 0 2.101.95 2.101 2.121a2.11 2.11 0 01-2.101 2.12 2.11 2.11 0 01-2.102-2.12c0-1.171.941-2.121 2.102-2.121zm-14.29 0c1.16 0 2.101.95 2.101 2.121A2.11 2.11 0 012.101 134 2.11 2.11 0 010 131.88a2.11 2.11 0 012.101-2.121zm28.58 0c1.16 0 2.101.95 2.101 2.121a2.11 2.11 0 01-2.101 2.12 2.11 2.11 0 01-2.102-2.12c0-1.171.941-2.121 2.102-2.121zm14.29 0c1.16 0 2.102.95 2.102 2.121a2.11 2.11 0 01-2.102 2.12 2.11 2.11 0 01-2.102-2.12c0-1.171.941-2.121 2.102-2.121zm14.29 0c1.16 0 2.102.95 2.102 2.121a2.11 2.11 0 01-2.102 2.12 2.11 2.11 0 01-2.101-2.12 2.11 2.11 0 012.101-2.121zm-42.87-14.417a2.11 2.11 0 012.101 2.12 2.11 2.11 0 01-2.101 2.12 2.11 2.11 0 01-2.102-2.12 2.11 2.11 0 012.102-2.12zm-14.29 0a2.11 2.11 0 012.101 2.12 2.11 2.11 0 01-2.102 2.12A2.11 2.11 0 010 117.462c0-1.171.94-2.12 2.101-2.12zm28.58 0a2.11 2.11 0 012.101 2.12 2.11 2.11 0 01-2.101 2.12 2.11 2.11 0 01-2.102-2.12 2.11 2.11 0 012.102-2.12zm14.29 0a2.11 2.11 0 012.102 2.12 2.11 2.11 0 01-2.102 2.12 2.11 2.11 0 01-2.102-2.12 2.11 2.11 0 012.102-2.12zm14.29 0a2.11 2.11 0 012.102 2.12 2.11 2.11 0 01-2.102 2.12 2.11 2.11 0 01-2.101-2.12c0-1.171.94-2.12 2.101-2.12zm-42.87-14.418a2.11 2.11 0 012.101 2.12c0 1.171-.94 2.121-2.101 2.121s-2.102-.95-2.102-2.121.941-2.12 2.102-2.12zm-14.29 0a2.11 2.11 0 012.101 2.12c0 1.171-.94 2.121-2.102 2.121-1.16 0-2.101-.95-2.101-2.121s.94-2.12 2.101-2.12zm28.58 0a2.11 2.11 0 012.101 2.12 2.11 2.11 0 01-2.101 2.121c-1.16 0-2.102-.95-2.102-2.121s.941-2.12 2.102-2.12zm14.29 0a2.11 2.11 0 012.102 2.12 2.112 2.112 0 01-2.102 2.121c-1.16 0-2.102-.95-2.102-2.121s.941-2.12 2.102-2.12zm14.29 0a2.11 2.11 0 012.102 2.12 2.112 2.112 0 01-2.102 2.121c-1.16 0-2.101-.95-2.101-2.121s.94-2.12 2.101-2.12zM2.102 86.506c1.16 0 2.101.95 2.101 2.12a2.11 2.11 0 01-2.102 2.12A2.11 2.11 0 010 88.627c0-1.17.94-2.12 2.101-2.12zm28.58 0c1.16 0 2.101.95 2.101 2.12a2.11 2.11 0 01-2.101 2.12 2.11 2.11 0 01-2.102-2.12c0-1.17.941-2.12 2.102-2.12zm14.29 0c1.16 0 2.102.95 2.102 2.12a2.11 2.11 0 01-2.102 2.12 2.11 2.11 0 01-2.102-2.12c0-1.17.941-2.12 2.102-2.12zm14.29 0c1.16 0 2.102.95 2.102 2.12a2.11 2.11 0 01-2.102 2.12 2.11 2.11 0 01-2.101-2.12c0-1.17.94-2.12 2.101-2.12zm-42.87 0c1.16 0 2.101.95 2.101 2.12a2.11 2.11 0 01-2.101 2.12 2.11 2.11 0 01-2.102-2.12c0-1.17.941-2.12 2.102-2.12zm42.87-14.417c1.16 0 2.102.949 2.102 2.12 0 1.17-.941 2.12-2.102 2.12-1.16 0-2.101-.95-2.101-2.12 0-1.171.94-2.12 2.101-2.12zm-42.87 0a2.11 2.11 0 012.101 2.12c0 1.17-.94 2.12-2.101 2.12a2.11 2.11 0 01-2.102-2.12 2.11 2.11 0 012.102-2.12zm-14.29 0a2.11 2.11 0 012.101 2.12c0 1.17-.94 2.12-2.102 2.12A2.11 2.11 0 010 74.21c0-1.171.94-2.12 2.101-2.12zm28.58 0a2.11 2.11 0 012.101 2.12c0 1.17-.94 2.12-2.101 2.12-1.16 0-2.102-.95-2.102-2.12a2.11 2.11 0 012.102-2.12zm14.29 0c1.16 0 2.102.949 2.102 2.12 0 1.17-.941 2.12-2.102 2.12-1.16 0-2.102-.95-2.102-2.12a2.11 2.11 0 012.102-2.12zM16.392 57.67c1.16 0 2.101.95 2.101 2.12a2.11 2.11 0 01-2.101 2.12 2.11 2.11 0 01-2.102-2.12c0-1.17.941-2.12 2.102-2.12zm28.58 0c1.16 0 2.102.95 2.102 2.12a2.11 2.11 0 01-2.102 2.12 2.112 2.112 0 01-2.102-2.12c0-1.17.941-2.12 2.102-2.12zm-42.87 0c1.16 0 2.101.95 2.101 2.12a2.11 2.11 0 01-2.102 2.12A2.11 2.11 0 010 59.79c0-1.17.94-2.12 2.101-2.12zm28.58 0c1.16 0 2.101.95 2.101 2.12a2.11 2.11 0 01-2.101 2.12 2.112 2.112 0 01-2.102-2.12c0-1.17.941-2.12 2.102-2.12zm28.58 0c1.16 0 2.102.95 2.102 2.12a2.11 2.11 0 01-2.102 2.12 2.11 2.11 0 01-2.101-2.12c0-1.17.94-2.12 2.101-2.12zm0-14.418c1.16 0 2.102.95 2.102 2.12a2.11 2.11 0 01-2.102 2.12 2.11 2.11 0 01-2.101-2.12c0-1.17.94-2.12 2.101-2.12zm-28.58 0c1.16 0 2.101.95 2.101 2.12a2.11 2.11 0 01-2.101 2.12 2.112 2.112 0 01-2.102-2.12c0-1.17.941-2.12 2.102-2.12zm-14.29 0c1.16 0 2.101.95 2.101 2.12a2.11 2.11 0 01-2.101 2.12 2.11 2.11 0 01-2.102-2.12c0-1.17.941-2.12 2.102-2.12zm-14.29 0c1.16 0 2.101.95 2.101 2.12a2.11 2.11 0 01-2.102 2.12A2.11 2.11 0 010 45.372c0-1.17.94-2.12 2.101-2.12zm42.87 0c1.16 0 2.102.95 2.102 2.12a2.11 2.11 0 01-2.102 2.12 2.112 2.112 0 01-2.102-2.12c0-1.17.941-2.12 2.102-2.12zm0-14.418c1.16 0 2.102.95 2.102 2.12a2.11 2.11 0 01-2.102 2.12 2.11 2.11 0 01-2.102-2.12c0-1.17.941-2.12 2.102-2.12zm14.29 0c1.16 0 2.102.95 2.102 2.12a2.11 2.11 0 01-2.102 2.12 2.11 2.11 0 01-2.101-2.12c0-1.17.94-2.12 2.101-2.12zm-57.16 0c1.16 0 2.101.95 2.101 2.12a2.11 2.11 0 01-2.102 2.12A2.11 2.11 0 010 30.956c0-1.17.94-2.12 2.101-2.12zm14.29 0c1.16 0 2.101.95 2.101 2.12a2.11 2.11 0 01-2.101 2.12 2.11 2.11 0 01-2.102-2.12c0-1.17.941-2.12 2.102-2.12zm14.29 0c1.16 0 2.101.95 2.101 2.12a2.11 2.11 0 01-2.101 2.12 2.11 2.11 0 01-2.102-2.12c0-1.17.941-2.12 2.102-2.12zm-14.29-14.417a2.11 2.11 0 012.101 2.12 2.11 2.11 0 01-2.101 2.12 2.11 2.11 0 01-2.102-2.12 2.11 2.11 0 012.102-2.12zm14.29 0a2.11 2.11 0 012.101 2.12 2.11 2.11 0 01-2.101 2.12 2.11 2.11 0 01-2.102-2.12 2.11 2.11 0 012.102-2.12zm14.29 0c1.16 0 2.102.949 2.102 2.12a2.11 2.11 0 01-2.102 2.12 2.11 2.11 0 01-2.102-2.12 2.11 2.11 0 012.102-2.12zm14.29 0c1.16 0 2.102.949 2.102 2.12a2.11 2.11 0 01-2.102 2.12 2.11 2.11 0 01-2.101-2.12c0-1.171.94-2.12 2.101-2.12zm-57.16 0a2.11 2.11 0 012.101 2.12 2.11 2.11 0 01-2.102 2.12A2.11 2.11 0 010 16.538c0-1.171.94-2.12 2.101-2.12zM16.391 0c1.16 0 2.101.95 2.101 2.12a2.11 2.11 0 01-2.101 2.12 2.11 2.11 0 01-2.102-2.12c0-1.17.941-2.12 2.102-2.12zm14.29 0c1.16 0 2.101.95 2.101 2.12a2.11 2.11 0 01-2.101 2.12 2.112 2.112 0 01-2.102-2.12c0-1.17.941-2.12 2.102-2.12zm14.29 0c1.16 0 2.102.95 2.102 2.12a2.11 2.11 0 01-2.102 2.12 2.112 2.112 0 01-2.102-2.12c0-1.17.941-2.12 2.102-2.12zm14.29 0c1.16 0 2.102.95 2.102 2.12a2.11 2.11 0 01-2.102 2.12 2.11 2.11 0 01-2.101-2.12C57.16.95 58.1 0 59.262 0zM2.102 0c1.16 0 2.101.95 2.101 2.12a2.11 2.11 0 01-2.102 2.12A2.11 2.11 0 010 2.12C0 .95.94 0 2.101 0z" fill="#000"/></svg>