<svg width="147" height="146" viewBox="0 0 147 146" fill="none" xmlns="http://www.w3.org/2000/svg"><path d="M1.024 2.392a1.692 1.692 0 113.383 0 1.692 1.692 0 01-3.383 0zm0 12.856a1.692 1.692 0 113.383 0 1.692 1.692 0 01-3.383 0zm0 12.856a1.692 1.692 0 113.383 0 1.692 1.692 0 01-3.383 0zm0 12.856a1.692 1.692 0 113.383 0 1.692 1.692 0 01-3.383 0zm0 12.856a1.692 1.692 0 113.383 0 1.692 1.692 0 01-3.383 0zm0 12.856a1.692 1.692 0 113.383 0 1.692 1.692 0 01-3.383 0zm0 12.856a1.692 1.692 0 113.383 0 1.692 1.692 0 01-3.383 0zm0 12.856a1.692 1.692 0 113.383 0 1.692 1.692 0 01-3.383 0zm0 12.856a1.691 1.691 0 113.382 0 1.691 1.691 0 01-3.382 0zm0 12.856a1.691 1.691 0 113.382 0 1.691 1.691 0 01-3.382 0zm0 12.856a1.691 1.691 0 113.382 0 1.691 1.691 0 01-3.382 0zm0 12.856a1.691 1.691 0 113.382 0 1.691 1.691 0 01-3.382 0zM13.88 15.248a1.692 1.692 0 113.383 0 1.692 1.692 0 01-3.383 0zm0 12.856a1.692 1.692 0 113.383 0 1.692 1.692 0 01-3.383 0zm0 12.856a1.692 1.692 0 113.383 0 1.692 1.692 0 01-3.383 0zm0 12.856a1.692 1.692 0 113.383 0 1.692 1.692 0 01-3.383 0zm0 12.856a1.692 1.692 0 113.383 0 1.692 1.692 0 01-3.383 0zm0 12.856a1.692 1.692 0 113.383 0 1.692 1.692 0 01-3.383 0zm0 12.856a1.692 1.692 0 113.383 0 1.692 1.692 0 01-3.383 0zm0 12.856a1.691 1.691 0 113.382 0 1.691 1.691 0 01-3.382 0zm0 12.856a1.691 1.691 0 113.382 0 1.691 1.691 0 01-3.382 0zm0 12.856a1.691 1.691 0 113.382 0 1.691 1.691 0 01-3.382 0zm0 12.856a1.691 1.691 0 113.382 0 1.691 1.691 0 01-3.382 0zM26.736 28.104a1.692 1.692 0 113.383 0 1.692 1.692 0 01-3.383 0zm0 12.856a1.692 1.692 0 113.383 0 1.692 1.692 0 01-3.383 0zm0 12.856a1.692 1.692 0 113.383 0 1.692 1.692 0 01-3.383 0zm0 12.856a1.692 1.692 0 113.383 0 1.692 1.692 0 01-3.383 0zm0 12.856a1.692 1.692 0 113.383 0 1.692 1.692 0 01-3.383 0zm0 12.856a1.692 1.692 0 113.383 0 1.692 1.692 0 01-3.383 0zm0 12.856a1.691 1.691 0 113.382 0 1.691 1.691 0 01-3.382 0zm0 12.856a1.691 1.691 0 113.382 0 1.691 1.691 0 01-3.382 0zm0 12.856a1.691 1.691 0 113.382 0 1.691 1.691 0 01-3.382 0zm0 12.856a1.691 1.691 0 113.382 0 1.691 1.691 0 01-3.382 0zM39.592 40.96a1.692 1.692 0 113.383 0 1.692 1.692 0 01-3.383 0zm0 12.856a1.692 1.692 0 113.383 0 1.692 1.692 0 01-3.383 0zm0 12.856a1.692 1.692 0 113.383 0 1.692 1.692 0 01-3.383 0zm0 12.856a1.692 1.692 0 113.383 0 1.692 1.692 0 01-3.383 0zm0 12.856a1.692 1.692 0 113.383 0 1.692 1.692 0 01-3.383 0zm0 12.856a1.691 1.691 0 113.382 0 1.691 1.691 0 01-3.382 0zm0 12.856a1.691 1.691 0 113.382 0 1.691 1.691 0 01-3.382 0zm0 12.856a1.691 1.691 0 113.382 0 1.691 1.691 0 01-3.382 0zm0 12.856a1.691 1.691 0 113.382 0 1.691 1.691 0 01-3.382 0zm12.856-89.992a1.692 1.692 0 113.383 0 1.692 1.692 0 01-3.383 0zm0 12.856a1.692 1.692 0 113.383 0 1.692 1.692 0 01-3.383 0zm0 12.856a1.692 1.692 0 113.383 0 1.692 1.692 0 01-3.383 0zm0 12.856a1.692 1.692 0 113.383 0 1.692 1.692 0 01-3.383 0zm0 12.856a1.691 1.691 0 113.382 0 1.691 1.691 0 01-3.382 0zm0 12.856a1.691 1.691 0 113.382 0 1.691 1.691 0 01-3.382 0zm0 12.856a1.691 1.691 0 113.382 0 1.691 1.691 0 01-3.382 0zm0 12.856a1.691 1.691 0 113.382 0 1.691 1.691 0 01-3.382 0zm12.856-77.136a1.692 1.692 0 113.383 0 1.692 1.692 0 01-3.383 0zm0 12.856a1.691 1.691 0 113.383 0 1.691 1.691 0 01-3.383 0zm0 12.856a1.692 1.692 0 113.383 0 1.692 1.692 0 01-3.383 0zm0 12.856a1.691 1.691 0 113.382 0 1.691 1.691 0 01-3.382 0zm0 12.856a1.691 1.691 0 113.382 0 1.691 1.691 0 01-3.382 0zm0 12.856a1.691 1.691 0 113.382 0 1.691 1.691 0 01-3.382 0zm0 12.856a1.691 1.691 0 113.382 0 1.691 1.691 0 01-3.382 0zm12.856-64.28a1.692 1.692 0 113.383 0 1.692 1.692 0 01-3.383 0zm0 12.856a1.692 1.692 0 113.383 0 1.692 1.692 0 01-3.383 0zm0 12.856a1.691 1.691 0 113.382 0 1.691 1.691 0 01-3.382 0zm0 12.856a1.691 1.691 0 113.382 0 1.691 1.691 0 01-3.382 0zm0 12.856a1.691 1.691 0 113.382 0 1.691 1.691 0 01-3.382 0zm0 12.856a1.691 1.691 0 113.382 0 1.691 1.691 0 01-3.382 0zm12.856-51.424a1.692 1.692 0 113.383 0 1.692 1.692 0 01-3.383 0zm0 12.856a1.691 1.691 0 113.382 0 1.691 1.691 0 01-3.382 0zm0 12.856a1.691 1.691 0 113.382 0 1.691 1.691 0 01-3.382 0zm0 12.856a1.691 1.691 0 113.382 0 1.691 1.691 0 01-3.382 0zm0 12.856a1.691 1.691 0 113.382 0 1.691 1.691 0 01-3.382 0zm12.856-25.712a1.691 1.691 0 113.382 0 1.691 1.691 0 01-3.382 0zm0-12.818a1.692 1.692 0 113.384 0 1.692 1.692 0 01-3.384 0zm0 25.674a1.691 1.691 0 113.382 0 1.691 1.691 0 01-3.382 0zm0 12.856a1.691 1.691 0 113.382 0 1.691 1.691 0 01-3.382 0zm12.856-25.712a1.691 1.691 0 113.382 0 1.691 1.691 0 01-3.382 0zm0 12.856a1.691 1.691 0 113.382 0 1.691 1.691 0 01-3.382 0zm0 12.856a1.691 1.691 0 113.382 0 1.691 1.691 0 01-3.382 0zm12.856-12.856a1.691 1.691 0 113.382 0 1.691 1.691 0 01-3.382 0zm0 12.856a1.691 1.691 0 113.382 0 1.691 1.691 0 01-3.382 0zm12.856 0a1.692 1.692 0 113.383.001 1.692 1.692 0 01-3.383-.001z" fill="#000"/></svg>