<svg width="50" height="49" viewBox="0 0 50 49" fill="none" xmlns="http://www.w3.org/2000/svg"><path fill-rule="evenodd" clip-rule="evenodd" d="M47.65 31.82a4.962 4.962 0 01-.668 2.93c-.21.369-.718.606-1.078.31-1.177-.962-2.379-.428-3.531-.094-7.332 2.126-14.16 5.404-20.754 9.197-2.406 1.384-4.76 2.862-7.144 4.282-.324.193-.605.517-1.1.174-.495-.342-.133-.726-.224-1.04-.693-2.38 1.064-3.338 2.5-4.492 7.26-5.842 15.49-9.734 24.445-12.165 1.638-.445 3.31-.726 5.014-.624 1.085.066 2.085.366 2.54 1.523zM27.756 15.186c.794.131 1.176.479 1.09 1.232-.085.74-.353 1.165-1.162 1.382-1.73.465-2.974 1.746-4.241 2.916-4.464 4.121-8.609 8.562-12.815 12.94-.332.344-.651.718-1.254.578-.733-.17-.229-.763-.436-1.106-.682-1.13.02-1.953.657-2.76 3.306-4.19 6.519-8.464 10.614-11.953 1.344-1.145 2.714-2.25 4.198-3.215.657-.427 1.569-.125 2.127-.932.227-.328.956-.367 1.484-.11.274.134.618.255.593.598-.029.402-.465.264-.855.43zM12.489 1.284c.261 1.42-.092 2.372-.892 3.377-1.543 1.936-2.245 4.321-2.976 6.655a65.416 65.416 0 00-2.23 9.42c-.126.81-.401 1.602-.66 2.385-.097.299-.253.655-.73.509-.388-.119-.417-.39-.518-.745-.794-2.776.14-5.439.573-8.101.59-3.63 1.543-7.19 3.145-10.537A14.898 14.898 0 0110.41.857c.383-.44.809-.783 1.465-.62.72.178.644.719.614 1.047z" fill="#000"/></svg>