<svg width="531" height="49" viewBox="0 0 531 49" fill="none" xmlns="http://www.w3.org/2000/svg"><path opacity=".75" d="M527.098 15.098l3.603-1.583c.088-.087.088-.175 0-.175l-3.603-1.582-1.67-3.692c0-.088-.088-.088-.088 0l-1.67 3.604-3.604 1.67c-.088 0-.088.088 0 .175l3.604 1.583 1.67 3.603h.088l1.67-3.603z" fill="#000"/><path opacity=".3" d="M303.575 6.4l3.4-1.5v-.2l-3.4-1.4-1.5-3.3h-.2l-1.5 3.3-3.3 1.4c-.1.1-.1.2 0 .2l3.3 1.5 1.5 3.4h.2l1.5-3.4z" fill="#000"/><path opacity=".45" d="M505.875 43.862l5.075-2.225a.197.197 0 000-.262l-5.075-2.225-2.277-5.106a.148.148 0 00-.044-.032.135.135 0 00-.108 0 .148.148 0 00-.044.032l-2.277 5.04-5.075 2.29a.197.197 0 000 .263l5.075 2.225 2.277 5.04c.087.13.152.13.196 0l2.277-5.04z" fill="#000"/><path d="M15.276 34.15l7.7-3.4a.2.2 0 000-.4l-7.7-3.4a.1.1 0 01-.1-.1l-3.5-7.7c0-.2-.2-.2-.3 0l-3.4 7.7h-.1l-7.8 3.5a.3.3 0 000 .4l7.8 3.4h.1l3.4 7.8c.1.2.3.2.3 0l3.5-7.7a.1.1 0 01.1-.1z" fill="#000"/></svg>