<svg width="202" height="203" viewBox="0 0 202 203" fill="none" xmlns="http://www.w3.org/2000/svg"><path fill-rule="evenodd" clip-rule="evenodd" d="M97.05 202.27l3.228.069c-22.864-.112-43.927-7.867-60.786-20.85l.188-.179c.1-.1.27-.27.26-.29.06.015.185.096.298.169l.06.039.052.032.021.015c.346.237.749.513 1.229.435.354-.057.635-.252.886-.427l.034-.023.024-.017c.153-.105.312-.214.416-.233.276-.057.547-.137.81-.24a27.8 27.8 0 00.141-.051c.15-.055.297-.108.449-.139.146-.029.34-.001.543.028l.017.002c.28.04.6.08.93.02.07-.01.31.07.45.12.32.12.68.25 1.08.18.363-.067.645-.262.896-.436l.034-.024c.15-.11.33-.23.44-.25.27-.05.53-.15.79-.25l.133-.048c.153-.056.304-.111.467-.142.39-.08.69-.33.93-.54l.32-.27c.08.01.29.15.41.23.35.23.8.51 1.29.4.41-.09.71-.39.95-.63.1-.1.27-.27.35-.3a3.02 3.02 0 01.494-.069l.062-.006.054-.005c.28-.02.57-.05.84-.12.36-.08.64-.29.89-.48.16-.12.32-.24.43-.27.149-.04.346-.03.554-.02h.006l.06.002c.266.01.563.022.86-.062.15-.037.3-.058.45-.079l.15-.021.08-.011.059-.008a4.67 4.67 0 00.711-.131c.35-.1.62-.31.86-.5.15-.12.31-.24.42-.28.07-.01.3.05.44.09.33.1.75.22 1.16.09.316-.105.568-.284.799-.448l.031-.022c.17-.13.33-.24.46-.29.061-.017.26.026.402.057l.058.013.003.001c.339.08.718.169 1.127.039.132-.049.27-.088.408-.127l.182-.053.82-.26c.38-.14.63-.43.85-.69.1-.12.26-.31.34-.34.36-.139.601-.439.801-.689l.049-.061c.1-.13.25-.32.32-.35.14-.06.35-.07.56-.08l.021-.001c.285-.02.607-.042.919-.169.16-.067.334-.099.511-.132l.037-.006.062-.012c.28-.05.56-.1.85-.22.25-.1.5-.24.74-.38l.59-.31c.064-.027.28.004.423.025l.037.005c.34.05.75.11 1.13-.05.35-.14.6-.4.82-.63.14-.15.29-.3.39-.34.39-.16.63-.49.83-.78l.04-.053c.087-.118.2-.272.27-.307.17-.08.39-.12.62-.16.27-.05.54-.1.81-.22.08-.01.31.05.45.09.36.1.82.22 1.24.03.3-.13.55-.32.77-.49l.074-.054c.153-.111.297-.216.426-.276.367-.158.605-.454.814-.713l.006-.007c.11-.14.25-.31.33-.35.15-.06.35-.09.57-.12l.06-.008c.266-.038.57-.081.85-.202.26-.11.5-.27.74-.43l.06-.04c.158-.106.311-.209.48-.28.31-.13.56-.35.77-.54l.116-.098h.001c.122-.104.231-.196.323-.242.07-.01.31.05.45.09l.008.002c.359.1.815.227 1.232.038.35-.16.59-.44.79-.69.11-.14.26-.31.35-.35.16-.07.37-.11.58-.14l.052-.009c.256-.048.536-.099.808-.221l.74-.36.58-.29c.121-.052.287-.074.473-.098l.087-.012.031-.003c.273-.029.58-.062.879-.197l.76-.36.57-.28c.312-.127.558-.33.783-.516l.017-.014c.16-.13.32-.26.44-.32.279-.111.514-.283.723-.436l.047-.034.044-.032c.162-.117.31-.224.456-.288.2-.08.41-.14.62-.2l.78-.26c.26-.11.5-.26.74-.41l.116-.072c.139-.088.277-.175.434-.238.11-.05.32-.05.52-.05.31 0 .65 0 .99-.14.21-.09.43-.16.65-.23l.74-.26c.21-.087.427-.16.639-.23l.091-.03.63-.22c.35-.14.61-.4.83-.63l.32-.32c.077 0 .293.093.434.153l.016.007c.4.18.86.37 1.32.2.47-.18.67-.66.84-1.08l.016-.04c.06-.149.141-.352.114-.37.077-.01.294.074.426.125l.014.005.004.001c.359.13.798.289 1.236.139.356-.125.61-.379.833-.603l.027-.027c.12-.13.27-.28.35-.31.07-.02.31.04.45.08l.032.008c.325.079.731.178 1.118.042l.54-.19.83-.29c.45-.147.68-.552.887-.916l.013-.024.22-.38 1.39-.45c.2-.06.41-.08.62-.1.29-.03.57-.07.83-.15.3-.08.56-.22.8-.35l.55-.25c.07-.01.3.07.44.12.33.12.75.26 1.17.14.124-.033.283-.032.46-.031l.11.001c.28.01.59.02.9-.06l1.42-.35c.259-.069.489-.176.701-.274l.099-.046.056-.027.056-.027c.15-.073.294-.144.438-.176.18-.04.38-.04.6-.04.27 0 .57-.01.86-.08.47-.11.76-.51.99-.84l.24-.34c.08-.01.31.07.45.12l.022.008c.324.118.687.25 1.088.162.3-.06.57-.18.81-.29.2-.09.4-.18.56-.21.229-.036.459-.063.69-.08l.77-.09c.397-.068.7-.323.945-.529l.025-.021c.11-.1.3-.26.37-.27.072-.009.258.071.396.131l.044.019c.31.14.69.3 1.1.24.148-.025.316-.015.493-.006l.117.006c.26.02.56.04.85-.01.25-.03.5-.09.75-.15l.071-.016.031-.007c.189-.044.385-.09.588-.107.245-.029.5-.04.746-.049l.014-.001.69-.04c.296-.028.566-.132.81-.227l.06-.023.073-.028c.181-.07.346-.133.487-.142.16-.01.37.03.59.08l.089.017c.238.048.508.101.801.083.33-.02.63-.13.89-.23.2-.08.39-.15.54-.15.35-.01.66-.13.93-.24.2-.08.39-.15.52-.16.07.01.27.15.39.24.29.21.65.46 1.08.46.313 0 .597-.077.853-.145l.017-.005c.21-.06.41-.11.58-.11.27 0 .54-.04.8-.08l.64-.07c.35 0 .66-.1.94-.2l.44-.15c.08.04.25.23.35.35l.008.009c.308.348.656.741 1.162.741.351 0 .649-.117.917-.223l.043-.017c.18-.08.37-.15.48-.15.17.01.36.06.57.12l.091.025c.236.065.497.136.789.145.46.02.84-.27 1.14-.5l.33-.25c.056.016.188.114.295.194l.053.04.022.016c.27.22.61.48 1.05.52.135.008.282.043.44.082l.16.038c.25.07.54.14.84.16.26.02.52 0 .78-.02.22-.02.44-.03.67-.01.447.03.824-.226 1.133-.435l.007-.005c.12-.08.32-.22.29-.25.07.04.23.23.33.35.28.34.61.73 1.1.77.419.04.799-.169 1.089-.329l.001-.001c.12-.07.33-.18.41-.18.159.009.345.072.541.137l.039.013c.25.08.54.17.83.2.172.016.332.056.494.097l.136.033.8.16c.311.037.606-.027.869-.084l.071-.016c.21-.05.4-.09.55-.08.27.03.54.02.81.01.22-.01.44-.02.65.01.08 0 .28.12.43.23l.038.024c.258.163.521.329.902.386.165.024.336.066.504.107l.136.033.78.17c.2.03.41.09.62.15l.043.013c.255.075.501.149.757.177l.76.07.69.06c.447.06.844-.176 1.163-.366l.007-.004c.12-.07.32-.2.31-.22.07.04.22.23.31.35l.018.023c.247.316.553.709 1.022.787.489.08.899-.219 1.268-.488l.002-.002.062-.046c.119-.088.268-.199.268-.224.17.03.37.11.57.19.24.1.52.21.82.26.062.018.202.145.302.236l.038.034.011.01c.248.228.555.511.979.58l1.42.23.36.08 3.34-5.97c-.01-.01-.02-.017-.03-.025l-.008-.006-.011-.008-.005-.005-.006-.006c-.21-.23-.51-.48-.92-.56-.465-.087-.873.135-1.216.322l-.034.018-.39.21c-.08-.04-.24-.24-.34-.36-.25-.31-.57-.69-1.04-.78-.5-.07-.96.22-1.32.47l-.37.26c-.08-.02-.27-.19-.38-.3-.26-.24-.59-.54-1.03-.61-.122-.016-.264-.086-.416-.159l-.033-.017-.071-.034-.03-.015c-.252-.126-.533-.267-.86-.315-.47-.078-.883.189-1.219.407l-.021.013-.36.24c-.21-.03-.42-.08-.63-.13l-.84-.16c-.134-.007-.28-.065-.436-.127a2.04 2.04 0 00-.083-.032l-.081-.031c-.24-.1-.52-.21-.84-.26-.369-.048-.71.054-1.004.142l-.026.008c-.18.06-.39.12-.49.11l-1.47-.18-.58-.09-.88-.13c-.07-.02-.25-.19-.35-.29-.27-.25-.61-.56-1.04-.62-.301-.038-.594.005-.86.043l-.05.007-.02.003c-.213.029-.415.056-.57.037-.335-.037-.644.038-.919.105l-.061.015c-.2.05-.4.1-.54.09-.31-.03-.6 0-.87.03l-.024.002-.054.006-.027.003c-.175.018-.35.036-.525.019-.092-.018-.252-.121-.386-.208l-.034-.022c-.28-.19-.59-.4-1-.44-.28-.02-.57 0-.86.03l-.63.03c-.114 0-.281-.099-.443-.194l-.027-.016-.019-.01c-.275-.147-.58-.311-.961-.35-.47-.03-.86.25-1.17.48l-.36.25c-.21-.01-.42-.06-.63-.11l-.81-.14c-.07-.03-.25-.19-.36-.29l-.008-.007c-.288-.269-.636-.593-1.112-.603l-1.49-.06c-.46-.02-.84.25-1.14.47-.12.09-.31.23-.36.24l-.46-.02-1.03-.04c-.289 0-.569.043-.816.082l-.054.008c-.2.04-.41.08-.61.07-.21 0-.42-.05-.62-.1-.27-.06-.55-.12-.87-.12-.131 0-.306-.061-.492-.127l-.038-.013-.034-.012c-.272-.097-.581-.208-.926-.208-.35 0-.662.123-.936.231l-.024.009-.03.012c-.189.076-.369.148-.54.148-.33.03-.63.14-.89.24-.18.07-.36.14-.51.15a2.74 2.74 0 01-.35-.34c-.33-.35-.7-.74-1.23-.72-.416.019-.748.245-1.023.432l-.027.018c-.12.09-.33.23-.41.23-.106.01-.294-.064-.469-.132l-.021-.008c-.3-.12-.64-.25-1.02-.22l-.64.01-.86.03c-.33.03-.64.13-.91.23-.2.07-.4.14-.56.16-.41.05-.74.29-1 .49-.13.1-.32.24-.4.25-.08.009-.256-.054-.414-.11l-.056-.02-.036-.014c-.311-.116-.65-.244-1.044-.186-.41.06-.72.3-.99.52a5.958 5.958 0 00-.11.085l-.001.001c-.103.081-.213.167-.249.174-.12-.03-.29-.14-.41-.22l-.018-.011c-.336-.208-.74-.458-1.202-.379-.39.068-.684.298-.949.504l-.021.016c-.13.11-.31.25-.4.27-.07 0-.3-.09-.44-.15l-.002-.001c-.32-.14-.729-.319-1.158-.229-.35.07-.64.24-.9.4-.18.11-.36.22-.5.24-.381.078-.666.309-.922.515l-.018.015-.054.042c-.129.103-.277.221-.356.238-.08.02-.31-.05-.46-.1-.33-.1-.7-.21-1.09-.12-.3.07-.57.19-.81.3a2.95 2.95 0 01-.59.22c-.133.033-.293.032-.47.031l-.11-.001c-.28-.01-.59-.02-.92.06-.41.1-.71.4-.94.65-.1.11-.28.29-.34.3-.14.04-.34.03-.55.01-.3-.02-.63-.03-.97.06-.3.09-.56.22-.81.35l-.141.069c-.139.068-.276.136-.419.181-.312.088-.577.242-.812.38l-.018.01c-.19.11-.37.21-.53.26l-.69.2-.73.21c-.076.025-.243-.006-.395-.034l-.043-.008-.042-.008c-.33-.07-.7-.14-1.09-.02-.35.11-.62.32-.86.51-.16.13-.32.25-.45.29-.066.019-.286-.025-.436-.055l-.024-.005-.023-.005c-.325-.069-.716-.152-1.107-.025-.46.16-.7.61-.89.98l-.017.034-.02.038c-.068.134-.148.291-.123.308-.08 0-.31-.09-.44-.15l-.028-.011c-.366-.149-.824-.335-1.272-.169-.416.155-.654.525-.85.829l-.02.031-.25.36c-.111.043-.266.042-.446.041l-.094-.001h-.06c-.285-.001-.603-.001-.92.12-.111.043-.274.042-.45.04h-.15c-.285-.001-.603-.001-.93.12l-1.38.52c-.34.13-.59.37-.81.59l-.049.046c-.134.126-.265.25-.381.294-.262.108-.491.266-.695.405l-.065.045c-.18.13-.35.25-.51.32-.11.05-.32.05-.52.05-.3 0-.65 0-.99.14-.152.068-.318.099-.486.132l-.094.018c-.27.05-.57.11-.85.24-.418.169-.648.556-.837.875l-.003.005-.017.029c-.07.122-.177.304-.223.341-.15.06-.36.09-.58.12l-.056.008c-.256.038-.545.08-.834.192-.31.13-.57.32-.79.49-.17.13-.33.25-.46.31-.214.086-.429.194-.637.298l-.103.052-.6.28-.65.32-.64.31c-.08 0-.32-.07-.46-.12l-.032-.011c-.383-.128-.82-.274-1.258-.089-.431.186-.642.632-.81.989l-.19.401c-.12.05-.32.06-.53.06l-.063.002c-.293.009-.61.018-.927.158-.26.11-.5.27-.74.43l-.52.32c-.049.007-.175-.025-.294-.055h-.002c-.052-.013-.102-.026-.144-.035-.37-.11-.83-.24-1.25-.04-.37.166-.598.502-.785.778l-.015.022-.013.02c-.08.121-.201.302-.277.34l-.57.28-.75.35c-.14.06-.34.09-.55.12l-.034.005c-.271.038-.569.081-.866.215l-.7.29-.65.26c-.33.14-.58.36-.8.56-.15.14-.3.27-.42.32-.1.04-.31.03-.49.02-.33-.02-.7-.04-1.05.11-.41.17-.65.53-.84.83l-.25.35c-.13.05-.33.06-.55.07-.29.01-.63.03-.95.16-.083.033-.243.032-.409.031l-.101-.001-.049-.001c-.306-.011-.639-.021-.971.121-.3.12-.55.31-.77.48l-.092.067a1.84 1.84 0 01-.408.253l-.7.32-.63.29c-.34.138-.57.401-.775.637l-.055.063-.31.34c-.08 0-.31-.08-.45-.13l-.007-.003c-.389-.139-.826-.296-1.263-.127-.42.16-.65.54-.85.88l-.046.075c-.074.124-.163.27-.204.295-.12.04-.33.03-.53.02-.3-.02-.65-.04-.99.08-.09.03-.32-.01-.48-.04-.33-.06-.69-.12-1.07 0-.5.17-.72.68-.91 1.13l-.16.36a2.725 2.725 0 01-.205-.11c-.052-.03-.102-.059-.145-.08-.4-.24-.85-.51-1.34-.37-.477.136-.717.584-.932.986l-.018.034-.19.4c-.065.019-.284-.04-.436-.081l-.034-.009c-.33-.09-.7-.19-1.1-.09-.336.087-.599.265-.84.43l-.03.02c-.17.12-.34.23-.47.26-.24.063-.477.136-.71.22l-.69.21-.71.14-.75.15c-.066.008-.226-.051-.359-.1l-.001-.001-.08-.029-.035-.013c-.314-.118-.7-.263-1.105-.167-.24.05-.48.08-.72.11l-.73.11c-.395.079-.683.334-.94.562l-.01.008c-.11.1-.31.27-.38.28-.304.055-.565.187-.792.301l-.058.029c-.19.1-.38.19-.55.22l-1.44.28c-.15.029-.306.032-.462.035l-.087.002c-.034 0-.067.002-.101.003a6.047 6.047 0 00-.84.05c-.27.05-.54.13-.81.21-.21.07-.42.14-.63.17-.21.04-.44.04-.66.04l-.14.005a4.388 4.388 0 00-.69.055c-.21.04-.44.03-.66.02a4.605 4.605 0 00-.83.03c-.076.009-.238-.04-.39-.086a5.86 5.86 0 01-.08-.024c-.32-.11-.67-.23-1.05-.17-.41.06-.72.31-1 .54l-.088.069c-.116.092-.245.193-.292.201-.065.009-.267-.084-.4-.146l-.03-.014c-.32-.15-.72-.33-1.15-.26-.344.059-.63.224-.886.372l-.014.008a2.804 2.804 0 01-.366.185A101.626 101.626 0 0117.5 158.16c.287-.011.574-.062.831-.24.12-.1.31-.17.52-.23.26-.08.57-.18.84-.37l1.2-.8c.26-.17.46-.38.63-.57l.004-.004c.149-.159.287-.307.436-.396.15-.09.34-.17.55-.24.25-.09.52-.19.78-.36.4-.26.53-.74.63-1.12l.12-.41c.07-.03.31-.03.45-.03.32 0 .73 0 1.09-.2.26-.149.46-.349.64-.529l.04-.041.05-.05c.131-.133.257-.259.39-.33l.64-.33.64-.32c.36-.2.56-.56.72-.85.07-.13.19-.34.25-.38.07-.03.3-.02.44 0l.026.002c.335.019.733.043 1.084-.152.17-.09.37-.15.59-.21l.046-.014c.245-.075.498-.153.724-.266.183-.091.354-.206.527-.322l.163-.108.134-.091c.133-.092.266-.184.416-.259.23-.12.47-.22.71-.32l.61-.27c.248-.12.452-.298.637-.459l.093-.081c.16-.15.31-.29.45-.35.13-.06.34-.09.55-.12l.038-.006c.26-.038.546-.08.832-.204.3-.14.54-.34.75-.53.16-.14.31-.27.46-.33.306-.138.534-.344.742-.532l.008-.008.057-.05c.138-.122.266-.235.363-.27.07-.01.3.05.44.09l.022.006c.337.089.757.201 1.158.044.272-.103.5-.259.708-.401l.042-.029c.18-.13.36-.25.51-.31.245-.095.482-.209.71-.34l.126-.064a4.92 4.92 0 01.584-.266c.074-.046.27-.015.449.014l.041.006c.3.05.65.1 1-.02.29-.1.54-.27.76-.42.18-.12.36-.24.52-.29l.72-.27.63-.24c.369-.113.63-.388.844-.612l.036-.038.29-.3c.08 0 .3.1.43.17l.013.006c.348.159.793.362 1.237.234.43-.124.688-.487.902-.79l.028-.04.24-.33c.11-.03.31-.01.51.02l.034.004c.3.039.629.082.976-.024.08-.02.31.03.47.07.32.08.68.16 1.06.06.51-.13.75-.64.95-1.08l.18-.35.31.2.016.011c.386.257.821.547 1.324.419.486-.129.736-.583.955-.981l.005-.009c.08-.14.2-.37.18-.39.058-.017.233.036.37.077l.08.023.033.01c.322.098.68.207 1.067.11.33-.08.61-.26.85-.42.18-.12.35-.23.49-.26.23-.05.46-.12.69-.2l.7-.19.71-.13.73-.13c.08 0 .3.08.43.14.32.13.71.28 1.12.2.18-.037.36-.058.54-.079l.18-.021.72-.1c.4-.08.7-.34.94-.55l.07-.058c.105-.088.233-.196.29-.212.33-.06.61-.2.86-.33.19-.1.37-.19.52-.21l1.43-.27a2.76 2.76 0 01.54-.03h.11c.28 0 .54 0 .8-.04.273-.045.54-.115.8-.21l.09-.027c.172-.053.35-.107.53-.133.158-.022.321-.028.486-.034.055-.002.11-.003.164-.006.28 0 .55-.01.82-.05.168-.024.342-.022.518-.021l.132.001c.273.013.547.007.82-.02.068-.015.203.032.334.078.043.015.086.03.126.042l.04.014c.299.107.627.224 1.01.166.41-.06.72-.32.97-.53.11-.09.31-.25.36-.26.064 0 .213.071.336.13l.084.04.021.01c.306.149.679.329 1.089.28.341-.047.629-.203.879-.338l.041-.022c.17-.1.35-.2.47-.21.15-.02.35.01.56.05.28.05.59.1.92.06l.73-.11.88-.13.2-.02.15-.14c.177-.169.316-.274.435-.366l.045-.034.025-.019c.25-.192.477-.366.825-.831.36-.48.38-.87.39-1.16v-.019c.01-.206.014-.296.15-.461.22-.287.332-.475.428-.635l.052-.085c.1-.17.2-.33.44-.64.14-.179.259-.249.427-.348l.003-.002a1.78 1.78 0 00.89-1.01l.35-.93-.99.1c-.13.01-.42-.08-.63-.15-.37-.12-.75-.24-1.13-.21-.497.05-.826.436-1.115.774l-.005.006-.31.35c-.026-.021-.111-.053-.206-.089-.085-.033-.178-.068-.244-.101l-.014-.007c-.327-.169-.703-.362-1.146-.313-.44.05-.77.34-1.05.59l-.35.29c-.08-.02-.3-.17-.43-.26l-.014-.01c-.357-.247-.762-.529-1.236-.47-.379.049-.692.239-.966.405l-.024.015c-.17.11-.36.23-.48.24-.32.04-.61.13-.88.23-.2.07-.41.14-.61.17-.16.02-.37-.01-.59-.05l-.047-.007c-.268-.038-.563-.081-.893-.043-.081.009-.259-.063-.403-.121l-.047-.019-.05-.019c-.3-.117-.661-.258-1.05-.201-.38.06-.68.25-.94.42-.17.11-.34.22-.46.24-.29.04-.57.13-.85.23-.2.07-.4.13-.59.17-.377.055-.67.271-.916.453l-.064.047-.36.26c-.08-.02-.29-.16-.41-.25l-.005-.003c-.349-.24-.767-.527-1.265-.447-.42.07-.74.36-.99.59-.11.1-.3.27-.37.29-.168.032-.343.038-.52.045a5.724 5.724 0 00-.13.005l-.83.07c-.36.07-.66.26-.92.43l-.025.016c-.163.106-.332.215-.455.234-.144.029-.335.012-.544-.008l-.026-.002c-.28-.03-.61-.06-.94.01a4.721 4.721 0 01-.65.06c-.28.01-.56.03-.83.09-.34.066-.618.248-.867.412l-.043.028-.028.019c-.169.112-.319.213-.442.241-.053.023-.199-.035-.327-.086l-.113-.044c-.32-.12-.73-.27-1.15-.18-.319.075-.584.229-.83.371l-.05.029c-.18.11-.36.22-.49.25-.08.02-.32-.06-.47-.11-.34-.11-.72-.23-1.13-.13-.23.06-.46.1-.69.14l-.77.16c-.39.1-.67.36-.92.6-.12.12-.3.28-.38.3-.41.11-.7.41-.94.66a5.137 5.137 0 00-.07.071c-.093.098-.207.215-.27.239-.14.04-.35.03-.56.02-.29-.02-.62-.03-.95.07-.18.05-.39.07-.62.08l-.008.001c-.278.019-.565.04-.852.129-.28.08-.56.2-.82.32l-.57.24c-.07.02-.31-.04-.46-.08l-.014-.003c-.327-.08-.721-.175-1.116-.057-.325.099-.568.305-.79.491l-.07.059-.01.009c-.147.127-.303.262-.41.301-.399.13-.669.448-.888.708l-.002.002a6.643 6.643 0 00-.05.056c-.097.109-.222.249-.29.274-.143.05-.313.073-.494.096l-.106.014-.036.004c-.26.029-.546.06-.814.156-.09 0-.31-.07-.45-.12-.36-.12-.81-.27-1.25-.11-.299.109-.557.278-.787.428l-.003.002a7.109 7.109 0 00-.099.063 2.148 2.148 0 01-.431.237c-.375.135-.63.427-.836.662l-.024.028-.071.079c-.101.112-.206.229-.279.261-.14.06-.35.08-.57.1l-.038.004c-.27.029-.576.061-.872.176-.254.105-.47.241-.681.374l-.089.056-.036.023c-.16.104-.327.213-.504.287-.33.14-.58.36-.8.56l-.4.32c-.05.015-.191-.018-.322-.049a3.16 3.16 0 00-.138-.031l-.028-.007c-.365-.089-.813-.198-1.222-.003-.35.17-.58.46-.78.72l-.008.01c-.108.138-.244.311-.332.35-.15.07-.36.12-.57.17l-.01.002c-.268.06-.583.13-.86.278l-.74.42-.55.32c-.14.07-.34.11-.55.15-.29.05-.62.12-.92.28-.23.12-.45.26-.67.4l-.6.36c-.3.16-.53.39-.73.6-.15.15-.3.3-.44.38-.29.16-.52.38-.72.58l-.43.37c-.18.1-.37.19-.57.27l-.78.39c-.23.14-.44.32-.65.51l-.056.05a2.601 2.601 0 01-.464.35c-.092.058-.252.089-.419.121l-.101.019c-.3.05-.64.11-.95.3l-.55.32-.74.44-.56.34-.7.44c-.32.21-.51.52-.67.8l-.25.39c-.08.02-.33-.02-.48-.05l-.017-.003c-.417-.069-.919-.153-1.323.133-.42.3-.5.82-.56 1.28a.708.708 0 00-.01.085l-.008.073C5.294 138.206 0 120.309 0 101.17c0-17.338 4.345-33.657 12-47.92l-2.46 4.91c.01.02.03.04.04.05.08.19.19.37.3.54.1.16.2.32.26.48l.35 1.11c.06.24.18.45.29.64l.041.077c.075.139.142.263.159.373.05.285.06.59.07.876v.014l.01.21c0 .088-.055.224-.109.358a9.515 9.515 0 00-.04.096c-.076.18-.162.384-.181.606-.01.1-.09.23-.18.37l-.027.046a2.118 2.118 0 00-.253.544c-.073.275-.012.532.044.773l.016.067c.03.1.07.28.07.33-.034.077-.135.176-.238.279a6.325 6.325 0 00-.052.051c-.15.14-.31.3-.44.51-.04.07-.17.15-.3.23-.18.11-.38.24-.54.44-.115.134-.258.25-.41.374l-.02.016-.43.37c-.29.28-.31.69-.32 1.06a3.32 3.32 0 01-.02.33 3.226 3.226 0 01-.377-.07c-.367-.078-.758-.16-1.103.06-.27.18-.42.45-.55.69-.06.12-.16.3-.22.33-.08.04-.27.05-.43.05-.03 0-.063.003-.095.005a1.063 1.063 0 01-.095.005l-1.62 5.67.29-.08c.04.01.22.04.36.06.26.05.59.1.91-.01.286-.099.495-.285.683-.453l.007-.007.054-.046c.109-.093.21-.18.296-.214.06-.03.26-.01.39.01l.029.003c.282.03.592.062.901-.093.36-.18.5-.58.61-.9l.021-.062c.04-.115.086-.251.069-.268.049-.008.19.017.305.037l.075.013.018.003c.327.06.728.133 1.062-.083.308-.202.422-.544.519-.837l.011-.033.028-.08c.037-.105.08-.23.112-.27.08-.06.23-.11.38-.16l.018-.006c.236-.079.508-.169.732-.364.08-.07.23-.13.38-.19l.012-.005c.247-.098.52-.208.708-.405a3.008 3.008 0 01.35-.26c.23-.16.49-.35.69-.59.27-.337.187-.794.118-1.176l-.008-.044-.08-.38c.04-.06.2-.15.33-.22l.011-.006c.248-.139.551-.309.719-.634.16-.31.16-.62.16-.91l.01-.38c.05-.05.24-.16.36-.22l.016-.008c.328-.169.736-.379.844-.802.07-.27.11-.58.14-.88l.06-.45c.056-.358-.117-.68-.263-.95l-.027-.05c-.07-.11-.17-.3-.18-.38.01-.32-.08-.59-.17-.83-.06-.16-.11-.31-.12-.39.02-.07.16-.23.25-.33l.016-.02c.237-.286.523-.63.464-1.07-.04-.26-.12-.51-.21-.74l-.14-.44c-.09-.408-.456-.628-.755-.807l-.005-.003-.28-.17c-.01-.06.04-.24.07-.34.08-.28.17-.62.05-.96l-.34-.81-.13-.3c-.06-.13-.11-.27-.16-.41L13.6 55c-.031-.062-.044-.173-.058-.29l-.012-.1c-.02-.27-.05-.57-.21-.83-.21-.37-.64-.45-1.02-.52a2.743 2.743 0 00-.279-.05 101.512 101.512 0 0120.424-26.4c.191.097.395.145.58.188l.055.013.088.02c.175.039.307.068.402.12l.57.29.52.26c.05.03.15.21.21.32.14.26.31.55.61.71.1.05.21.18.32.31.16.19.35.41.62.55.203.1.414.183.63.25l.51.2.37.19.72.36c.31.146.63.112.914.083l.026-.003a5.13 5.13 0 00.079-.008c.117-.011.263-.026.311-.002.201.096.417.146.609.191l.081.02c.18.04.35.08.48.14l.13.35c.13.34.28.73.65.9.36.16.74.03 1.07-.09l.033-.012c.12-.04.292-.098.347-.089 0 .02.09.19.15.3l.011.021c.148.276.328.613.679.75.128.049.252.11.373.169l.147.07c.19.1.39.19.59.27.173.074.367.121.564.17l.126.03.5.14c.169.064.337.11.511.155l.085.023.044.012.53.15c.3.11.6.09.86.07l.084-.006c.133-.01.262-.019.336.006.144.048.276.115.404.181l.096.05c.2.11.4.21.61.28.11.04.24.14.38.25.203.171.433.31.68.41a4 4 0 00.576.146l.114.023c.17.03.34.06.51.12.225.072.45.071.654.07h.066c.22-.01.4-.01.57.06.13.04.26.15.39.26.2.17.42.35.71.44.228.07.448.079.647.087.028 0 .056.002.083.003l.1.005c.143.007.276.013.39.045.22.06.45.09.68.12l.018.002c.165.02.338.04.502.088.11.03.25.13.39.23.2.14.43.3.71.37.301.078.583.023.838-.026l.022-.004.033-.007c.143-.028.303-.06.377-.033.1.03.23.12.37.22l.03.02c.202.135.424.283.7.35.1.02.24.12.37.22.2.15.43.31.73.38.36.08.7-.06.97-.18.11-.05.29-.12.35-.12.26.05.5.05.72.05.18 0 .36 0 .5.03.12.03.27.11.42.19l.06.032c.194.102.405.214.65.268l1.18.26c.08.02.23.13.34.22l.017.014c.206.167.442.358.753.416.138.025.27.076.4.126l.09.034.101.037.003.001c.185.07.372.138.566.172.4.08.75-.16 1.05-.38.1-.07.28-.19.34-.21 0 .006.011.02.027.04l.033.04a.052.052 0 00-.01.015l-.004.007a.047.047 0 01-.006.008l-.33.64.71.09c.13.02.35.11.54.2l.043.02c.256.114.522.232.787.26.21.027.42.043.63.05l.57.05c.294.04.559-.027.795-.086l.015-.004c.15-.01.29-.04.42-.07.18.02.34 0 .5-.02.094.054.184.114.27.18.22.17.48.36.81.41.18.02.35.02.51.01.08.04.17.06.27.08.21.03.41-.02.59-.09.26 0 .512-.084.718-.153l.202-.067c.03.008.061.014.093.02.054.01.11.021.167.04l.23.05.08.05c.22.15.48.32.8.36.247.016.495.006.74-.03l.22-.02.16.1c.23.16.48.33.81.37.34.03.63-.1.89-.23.06-.03.14-.06.22-.09.15.07.31.13.48.16l.01.008c.219.158.486.353.82.382.22.02.45.01.68 0h.01c.176-.01.343-.02.52 0 .28.03.54-.02.77-.07l.034-.006c.147-.028.285-.054.396-.054.144.105.313.171.49.19.111.009.237.054.378.104l.072.026c.21.08.45.17.71.19h.04c.26.02.51-.02.73-.06l.023-.004c.172-.029.334-.056.477-.046.09.01.18-.01.26-.03.13.07.28.13.45.14.13.007.257.022.385.037l.205.023.61.06.82.04.4.02c.031 0 .063-.003.093-.005a.915.915 0 01.077-.005.73.73 0 00.33.08c.32.01.6-.12.85-.24l.13-.06a.054.054 0 00.01.008c.006.004.01.006.01.012.23.21.52.47.9.49.31.01.58-.09.82-.19l.02-.008c.145-.058.303-.122.38-.112.08 0 .24.1.36.18.23.14.5.3.83.31.36.02.62-.19.86-.42h.08l.82.03.62-.01.56-.01c.2.18.43.34.73.35.166.01.331.04.49.09l.06.014c.203.047.423.097.66.106h.04c.254 0 .498-.067.714-.126l.016-.004c.17-.05.33-.09.46-.09.366 0 .657-.231.892-.418l.028-.022.011-.008c.005-.003.009-.006.009-.012.23.07.48.14.76.14.178.002.355.019.53.05l.68.06c.07 0 .14-.01.2-.03.15.08.31.14.49.14.29-.01.58-.11.82-.22.09-.04.18-.08.27-.1.19.1.4.18.64.17.082 0 .155-.025.235-.052l.025-.008c.15.03.3.05.46.05.133-.01.293.026.464.064l.026.006.053.01c.207.038.438.08.677.08.313-.01.578-.153.814-.281l.016-.009.027-.014c.124-.068.269-.146.353-.146.09 0 .24.07.37.14l.027.013c.235.107.515.236.833.217.138-.01.293.015.465.043l.045.007.082.011c.197.028.409.058.628.05.328-.02.596-.189.835-.338l.005-.003c.12-.08.28-.18.34-.18.107-.009.239.03.387.075l.053.015c.23.07.5.15.8.14.22-.02.44-.06.66-.1.18-.04.36-.07.54-.09l.62-.06.58-.06c.28-.02.51-.17.7-.33l.65-.03-.12-.28c.06.043.12.093.174.138l.026.022c.28.24.6.51 1.01.46.192-.017.383-.068.575-.12l.036-.009.079-.02.042-.013c.154-.046.302-.09.458-.108.305-.028.541-.183.757-.325l.053-.035c.12-.08.27-.18.36-.19l1.2-.16c.261-.028.487-.125.687-.211l.043-.019c.16-.07.32-.14.44-.16.14-.02.32 0 .5.02l.067.006c.202.02.419.04.653.004.049 0 .177.066.277.118l.025.013.038.02c.26.14.59.31.95.26.284-.039.514-.175.725-.3l.035-.02c.14-.09.29-.17.39-.19.265-.036.483-.157.682-.268l.078-.043.055-.03c.129-.069.247-.132.335-.15.08-.02.25.03.4.08l.039.011c.241.068.518.146.821.09.283-.05.519-.184.725-.302l.015-.009c.15-.09.29-.17.41-.19.17-.03.35-.04.53-.05l.68-.06c.138-.03.305-.02.482-.01h.008c.23.01.48.02.74-.03.3-.06.54-.23.75-.38l.066-.043c.118-.077.234-.153.344-.187.161-.047.332-.032.537-.013l.082.008c.208.019.439.04.671-.015.17-.04.35-.06.52-.07.24-.02.48-.05.7-.11.279-.07.508-.219.707-.348l.003-.002.053-.032.029-.018c.116-.071.22-.136.318-.16a4.84 4.84 0 00.63-.23l.094-.04c.139-.058.279-.117.426-.15.09-.02.26 0 .42.03l.022.003c.255.04.547.085.838.007a5.14 5.14 0 01.54-.11l.65-.13c.154-.048.327-.069.492-.088l.018-.002c.24-.03.48-.07.7-.14.21-.06.41-.14.61-.22l.54-.2c.367-.11.587-.445.756-.704l.004-.006.17-.29c.064 0 .227.075.339.126l.031.014.008.004c.318.139.675.295 1.042.176.385-.128.565-.5.724-.827l.166-.343c.113-.04.245-.061.386-.083l.094-.015.01-.002.029-.004c.212-.029.442-.06.681-.146.06-.02.27.02.39.05.29.06.61.12.94 0l.74-.3.39-.16c.17-.07.34-.11.52-.15l.139-.037c.176-.046.353-.092.511-.163.276-.105.47-.3.643-.473l.027-.027c.12-.12.24-.24.35-.28.32-.14.51-.41.67-.66l.027-.038c.07-.102.169-.244.213-.262l1.13-.46c.11-.05.27-.07.45-.09l.025-.003c.234-.03.494-.062.735-.187.051-.017.205.01.323.03l.057.01.023.004c.286.05.645.112.967-.054.28-.14.47-.38.63-.59l.036-.047c.088-.115.174-.228.244-.263.06-.03.26-.02.39-.01l.041.002c.279.01.583.02.869-.132.34-.18.49-.55.61-.85l.019-.05.02-.053c.038-.098.078-.202.071-.217.06-.01.27.03.39.06l.009.002c.318.07.714.156 1.051-.042.349-.2.459-.597.559-.956l.001-.004.09-.35c.06-.03.26-.02.39-.01.3.02.63.03.93-.15.086-.055.202-.085.335-.12l.115-.03.056-.015c.216-.055.453-.116.664-.245.347-.208.458-.603.548-.922l.002-.008.1-.34c.14-.09.28-.17.43-.24l-3.58-3.16-.007.008c-.008.01-.018.022-.033.022-.19.12-.36.27-.52.43a2.813 2.813 0 01-.4.33c-.047.032-.175.038-.296.045l-.094.005h-.006c-.268.01-.566.021-.844.18-.19.116-.367.25-.53.4l-.098.08-.001.001c-.111.091-.215.177-.331.24-.069.038-.234.049-.392.059h-.008l-.064.005c-.235.018-.499.038-.746.175-.319.169-.453.496-.568.776l-.022.054c-.04.11-.11.29-.14.33a2.483 2.483 0 01-.48.18c-.21.063-.414.143-.61.24-.06.01-.25-.03-.36-.06l-.015-.003c-.307-.07-.681-.154-1.015.013l-1.06.51c-.329.16-.498.487-.638.757l-.002.003c-.05.1-.14.27-.17.3l-.67.3-.41.18c-.187.08-.358.192-.535.307l-.065.043c-.14.1-.28.2-.44.27a1.903 1.903 0 01-.384.107l-.106.023-.037.007c-.2.038-.416.079-.623.173-.1.04-.27.05-.44.05l-.065.003c-.222.008-.46.017-.715.117-.27.11-.47.29-.64.45-.12.12-.24.22-.34.26a2.753 2.753 0 01-.463.115l-.027.005c-.23.04-.46.08-.68.16-.25.093-.44.263-.61.414l-.04.036-.005.004c-.118.11-.246.226-.345.256-.133.05-.273.072-.42.096l-.09.014c-.23.04-.45.08-.64.15-.06 0-.24-.06-.35-.1l-.021-.007c-.286-.099-.637-.22-.969-.103l-1.13.35c-.4.13-.58.51-.74.86l-.15.3c-.08-.03-.21-.1-.29-.15-.31-.17-.67-.36-1.06-.25a3.081 3.081 0 01-.383.079l-.127.021-.66.12c-.23.07-.44.18-.62.28-.16.09-.32.17-.46.21a4.672 4.672 0 00-.62.24l-.029.013-.053.023c-.133.06-.269.12-.418.154-.07.018-.209-.01-.343-.038l-.115-.024c-.237-.048-.505-.102-.782-.038-.247.055-.453.169-.639.272l-.051.028c-.15.09-.3.17-.42.2-.35.08-.58.33-.78.56-.08.09-.22.24-.28.26l-.6.13-.58.12c-.057.01-.232-.044-.361-.084l-.019-.006c-.27-.09-.57-.19-.9-.12-.3.06-.54.22-.75.36l-.068.044h-.001c-.116.077-.224.148-.291.156a3.906 3.906 0 00-.67.19l-.044.016a2.718 2.718 0 01-.466.134 2.21 2.21 0 01-.412.02h-.108c-.24 0-.47 0-.7.04-.214.037-.41.109-.613.183l-.047.017c-.18.07-.35.13-.5.15a2.18 2.18 0 01-.422.02h-.108l-.69.03c-.08.01-.25-.05-.39-.1-.26-.09-.55-.19-.87-.14-.323.05-.57.242-.796.42l-.014.01-.018.014c-.1.08-.245.197-.292.206-.06 0-.25-.08-.36-.13-.25-.12-.56-.26-.9-.22-.3.04-.55.18-.76.3l-.029.017c-.132.075-.269.154-.371.163l-.58.05-.62.06c-.227.026-.438.098-.628.162l-.058.02-.024.008-.049.018a2.369 2.369 0 01-.421.122c-.07.01-.25-.08-.37-.14-.25-.12-.54-.25-.87-.23-.34.03-.62.23-.84.39l-.06.043c-.098.07-.219.157-.26.157-.06-.01-.23-.11-.33-.18-.25-.16-.57-.36-.93-.33a4.75 4.75 0 00-.64.11c-.18.04-.36.08-.56.09-.102.008-.21.034-.315.06a5.239 5.239 0 01-.085.02 1.125 1.125 0 01-.16-.12l-.033-.023c-.243-.176-.533-.386-.897-.367-.22 0-.45.03-.68.06l-.52.05c-.26 0-.49.13-.68.27-.08-.02-.16-.03-.25-.03-.34.02-.61.2-.85.37-.005.005-.013.01-.02.015a.115.115 0 00-.02.015l-.57-.02c-.24 0-.46.08-.65.16a2.03 2.03 0 01-.135-.005c-.045-.002-.09-.005-.135-.005-.191 0-.364-.018-.544-.037l-.026-.003-.64-.04c-.14 0-.27.04-.39.09-.15 0-.29-.01-.44-.03l-.66-.04c-.04-.01-.21-.12-.31-.19-.24-.17-.55-.37-.91-.37l-1.2-.01c-.27 0-.49.13-.67.29l-.24-.02c-.23 0-.43.1-.6.24-.24-.25-.51-.52-.9-.52-.221 0-.442.037-.671.075l-.029.005c-.17.03-.34.06-.51.06-.268 0-.509.074-.731.141l-.029.01c-.025.004-.047.012-.07.02l-.038.011a.423.423 0 01-.032.008h-.01c-.13 0-.25.03-.37.07-.24.01-.46.06-.66.11-.18.05-.34.09-.48.08a2.555 2.555 0 00-.685.093l-.075.017a8.12 8.12 0 00-.097.024 1.234 1.234 0 01-.363.056 1.183 1.183 0 01-.2-.147 4.949 4.949 0 00-.09-.073c-.23-.2-.54-.44-.9-.46-.279-.01-.512.092-.733.188l-.027.012a.515.515 0 01-.07-.02.572.572 0 00-.07-.02c-.26-.01-.51.11-.72.24-.13.02-.25.05-.36.08-.17.04-.34.08-.46.08s-.27-.07-.42-.14c-.22-.1-.47-.21-.76-.23-.06.01-.24-.11-.35-.19-.23-.15-.5-.32-.83-.35a5.094 5.094 0 00-.68.02l-.53.02c-.025 0-.053.003-.08.005a.915.915 0 01-.08.005c-.01 0-.02 0-.04-.01-.23-.06-.46-.12-.69-.14-.28-.02-.51.1-.71.26-.21-.25-.45-.48-.79-.51-.23-.02-.46-.01-.69.01a2.64 2.64 0 01-1.02-.11c-.21-.07-.44-.14-.69-.16-.416-.04-.734.244-1.011.492l-.009.008-.24.19h-.15a1.476 1.476 0 01-.106-.08 2.907 2.907 0 00-.094-.07c-.23-.17-.49-.36-.82-.39a4.573 4.573 0 00-.64-.01l-.143.001a3.805 3.805 0 01-.427-.01l-.64-.04-.57-.03c-.047-.01-.192-.126-.292-.207l-.018-.014c-.22-.18-.48-.39-.82-.44-.24-.03-.46.05-.66.16-.08-.03-.17-.06-.26-.07a4.576 4.576 0 01-.466-.088l-.054-.012-.67-.12c-.25-.03-.46.04-.66.14l-.19-.06c-.22-.08-.43-.15-.65-.18a2.954 2.954 0 01-.55-.14l-.138-.04a3.223 3.223 0 00-.492-.12c-.36-.06-.69.11-.96.25a1.951 1.951 0 00-.113.056c-.091.046-.185.094-.227.094-.05-.01-.21-.15-.3-.23l-.015-.013c-.207-.177-.453-.388-.785-.447-.309-.048-.599.053-.852.14l-.028.01c-.13.05-.32.12-.38.1-.13-.03-.29-.1-.45-.18-.2-.1-.43-.21-.7-.25l-.61-.11-.58-.1c-.084-.017-.197-.09-.314-.167a7.38 7.38 0 00-.066-.043l-.027-.018c-.203-.136-.426-.285-.713-.342-.325-.067-.632.04-.885.128l-.035.012c-.11.04-.31.11-.37.1-.05-.01-.2-.15-.29-.24-.2-.2-.44-.42-.77-.5-.31-.08-.62 0-.88.07-.14.04-.32.08-.4.06-.22-.05-.45-.07-.69-.09-.18-.01-.36-.02-.53-.06-.15-.04-.31-.11-.48-.2-.21-.1-.42-.2-.64-.26-.23-.06-.46-.08-.7-.1h-.007a2.127 2.127 0 01-.905-.22 8.481 8.481 0 00-.195-.086 3.686 3.686 0 00-.543-.204c-.067-.017-.169-.096-.276-.18a10.792 10.792 0 00-.064-.05l-.015-.012c-.196-.157-.413-.33-.705-.418-.313-.088-.617-.023-.892.036l-.018.004-.053.013c-.124.029-.275.064-.327.047l-.57-.17-.59-.18c-.051-.026-.146-.146-.222-.242l-.038-.048c-.18-.24-.39-.51-.73-.62-.12-.04-.26-.13-.4-.23l-.033-.022c-.181-.125-.382-.262-.627-.338-.277-.096-.554-.063-.805-.034l-.035.004c-.15.02-.32.04-.4.01a2.635 2.635 0 01-.35-.163 7.498 7.498 0 00-.13-.067c-.2-.11-.4-.22-.6-.29-.14-.05-.29-.15-.44-.25l-.005-.003a3.284 3.284 0 00-.595-.327 4.66 4.66 0 00-.64-.18l-.5-.14c-.37-.14-.75.02-1.07.16l-.3.12a2.737 2.737 0 01-.076-.18c-.019-.046-.037-.093-.054-.13l-.003-.007c-.13-.349-.28-.754-.667-.913l-1.1-.44c-.328-.15-.696-.051-.995.029l-.005.001a2.15 2.15 0 01-.35.07c-.18-.08-.4-.15-.63-.2-.17-.04-.34-.09-.49-.16-.089-.035-.185-.142-.283-.25l-.037-.04c-.16-.18-.35-.38-.61-.51-.21-.1-.43-.16-.66-.22-.17-.04-.33-.08-.48-.16-.089-.04-.197-.157-.315-.284l-.005-.006c-.16-.18-.34-.38-.6-.51-.26-.13-.53-.16-.76-.18-.17-.02-.34-.04-.43-.09a3.114 3.114 0 00-.608-.22l-.032-.01a2.432 2.432 0 01-.48-.17c-.15-.08-.28-.19-.41-.3-.18-.15-.36-.29-.56-.4l-.39-.21-.24-.129C53.593 8.866 76.155 0 100.78 0c55.659 0 100.78 45.295 100.78 101.17 0 33.636-16.351 63.438-41.509 81.833-.149.047-.305.102-.461.157l-.087.03c-.263.091-.526.182-.643.2-.069-.017-.228-.124-.348-.205l-.052-.035-.01-.007c-.328-.229-.735-.512-1.21-.443-.45.06-.77.38-1.03.64l-.052.052c-.099.101-.227.231-.278.248-.113.016-.259-.013-.422-.047l-.118-.023-.07-.015c-.273-.057-.578-.121-.9-.075-.114.018-.281-.018-.448-.055l-.072-.015c-.3-.07-.64-.14-1-.09l-.72.1-.75.11c-.359.058-.652.239-.907.396l-.023.014c-.17.11-.35.22-.46.24-.297.046-.568.162-.813.266l-.057.024c-.2.09-.39.17-.56.2-.13.02-.33-.02-.53-.06l-.024-.005c-.294-.059-.616-.123-.966-.055a2.427 2.427 0 01-.5.031l-.1-.001c-.27 0-.58 0-.88.06-.438.078-.733.411-.97.678l-.02.022c-.1.11-.26.29-.31.31-.158.03-.365.02-.582.01h-.008l-.076-.003c-.259-.01-.543-.021-.834.043-.32.07-.59.2-.83.33-.2.1-.38.19-.55.23l-.76.2-.66.18c-.274.06-.545.137-.81.23l-.58.18c-.08-.01-.29-.12-.42-.19-.36-.19-.8-.42-1.26-.3-.456.107-.733.505-.959.83l-.021.03-.24.35c-.12.03-.32.01-.53-.02-.3-.04-.64-.08-1 .02-.234.061-.46.166-.686.272l-.007.003-.097.045a4.857 4.857 0 00-.103.05c-.156.075-.31.149-.457.19-.08 0-.3-.09-.44-.15-.35-.15-.79-.33-1.24-.2-.4.12-.67.42-.9.68l-.017.019c-.101.111-.257.283-.323.311l-.82.28-.57.2c-.15.04-.36.05-.57.06h-.01c-.287.01-.604.021-.93.12l-.69.2-.73.22c-.33.11-.59.3-.82.47-.17.13-.34.25-.47.29-.1.03-.32.01-.51-.02l-.026-.003c-.313-.039-.664-.083-1.034.043-.404.138-.652.469-.86.747l-.01.013c-.09.12-.24.31-.31.34-.13.05-.34.05-.55.05-.29 0-.62 0-.95.12-.093.034-.25.025-.418.015h-.004l-.088-.005-.085-.006c-.298-.02-.627-.042-.955.086-.243.089-.454.231-.647.361l-.044.03-.048.032-.041.027c-.18.13-.35.25-.51.31l-.75.33-.61.27c-.362.133-.597.412-.808.663l-.032.037-.3.33c-.06.01-.31-.07-.45-.12-.37-.13-.84-.28-1.28-.1-.419.17-.649.579-.829.898l-.001.002c-.07.13-.19.34-.24.37-.11.05-.31.05-.51.05-.31 0-.67 0-1.02.15-.07.035-.257.024-.423.014l-.067-.004c-.33-.03-.71-.06-1.07.1-.479.209-.639.737-.779 1.196l-.001.004-.14.41c-.11-.03-.27-.1-.38-.15-.43-.19-.92-.4-1.37-.18-.465.203-.63.688-.776 1.118l-.014.042-.12.42c-.065.028-.282.013-.433.003l-.037-.003c-.34-.03-.73-.06-1.1.11-.29.136-.506.354-.7.55l-.06.06-.081.082-.001.001c-.116.119-.22.226-.318.267l-.71.4-.59.34-.63.3-.69.32c-.055.024-.215.01-.354-.002l-.05-.004-.01-.001a6.666 6.666 0 01-.046-.003l-.054-.005c-.34-.029-.745-.065-1.096.125-.29.15-.59.4-.88.65l-.31.26zm82.81-161.21l.61-.58c.18-.18.37-.35.59-.37l3.65 5.14-.09.11c-.17.24-.35.48-.55.68-.09.08-.17.29-.24.48l-.01.026c-.118.304-.248.642-.53.914-.31.3-.699.4-1.049.49h-.001l-.119.035c-.144.042-.305.089-.351.135-.23.24-.516.388-.777.523l-.033.017c-.2.1-.39.2-.5.31-.138.13-.246.28-.356.434l-.054.076c-.17.24-.35.48-.56.69-.09.08-.17.29-.24.48l-.01.026c-.118.304-.248.642-.53.914-.38.35-.89.35-1.34.35-.16 0-.42 0-.5.03l-.07.41-.008.035c-.078.364-.173.805-.512 1.115-.33.31-.78.38-1.15.43-.15.02-.4.06-.46.1l-.02.44c-.02.44-.05.98-.44 1.33-.25.22-.53.38-.78.51l-.058.032-.03.016c-.169.092-.331.18-.442.282a3.832 3.832 0 01-.746.467l-.044.023-.049.026c-.192.1-.371.193-.491.304l-.5.5a6.584 6.584 0 01-.59.59c-.06.05-.15.3-.2.45l-.007.018c-.118.336-.249.707-.563.982-.27.22-.57.36-.83.48-.21.09-.41.18-.53.29l-1.18 1c-.245.216-.533.344-.792.459l-.048.021c-.2.09-.4.18-.52.28-.11.08-.21.27-.31.46l-.004.007c-.149.279-.319.595-.606.833-.329.289-.786.34-1.145.38h-.005l-.04.005c-.151.02-.366.048-.43.085-.06.05-.15.29-.2.44-.12.34-.26.73-.6 1-.32.26-.73.35-1.06.41l-.091.02h-.001c-.159.034-.33.07-.388.12-.22.18-.49.33-.75.47l-.049.026a2.863 2.863 0 00-.511.314l-.73.48-.06.036a4.864 4.864 0 00-.51.334 3.612 3.612 0 00-.371.349l-.069.07-.05.051c-.2.21-.4.41-.63.59-.24.18-.5.32-.76.46-.2.1-.4.21-.58.34l-.59.45-.62.48c-.12.086-.225.223-.341.374h-.001l-.058.076c-.17.23-.37.49-.65.7-.059.042-.138.217-.204.361l-.002.004-.034.075-.011.025c-.137.314-.298.681-.629.925l-.68.44-.136.084c-.165.1-.327.199-.484.316-.353.255-.792.28-1.148.299l-.022.001-.059.004c-.156.009-.359.02-.421.056l-.74.5-.54.36-.57.44-.65.5c-.114.086-.229.245-.352.415l-.018.025c-.17.25-.38.54-.68.75-.36.25-.79.28-1.14.3-.15.01-.41.03-.48.07a3.1 3.1 0 01-.06.45c-.08.48-.17 1.02-.61 1.31-.45.29-.99.16-1.46.04-.12-.03-.29-.07-.41-.09l-.07.43c-.06.5-.14 1.07-.6 1.37-.354.226-.737.259-1.083.289l-.017.001c-.19.01-.42.03-.5.08-.34.21-.69.27-1.01.32l-.092.017c-.177.033-.344.063-.438.123-.04.04-.13.28-.18.42l-.023.058c-.135.35-.299.775-.687 1.012-.419.26-.928.17-1.327.1h-.003c-.15-.03-.4-.07-.48-.05-.04.024-.123.166-.2.299l-.06.101-.01.016c-.177.296-.376.628-.72.844-.21.123-.414.256-.61.4l-.69.45c-.13.08-.28.23-.44.39-.2.21-.44.45-.74.62-.333.196-.695.229-1.02.258l-.02.002-.011.001c-.207.02-.421.04-.519.1-.32.18-.67.24-.97.29l-.084.014c-.188.033-.361.064-.466.125-.057.04-.141.202-.208.33l-.042.08-.021.039c-.165.313-.365.69-.749.901-.35.2-.74.22-1.08.23-.19 0-.41.01-.5.06-.14.07-.29.23-.44.39-.2.21-.44.46-.75.63l-1.4.7c-.3.15-.62.22-.9.28l-.087.02a2.265 2.265 0 00-.503.15l-.59.33-.75.41c-.068.039-.201.256-.282.388l-.008.012c-.2.32-.42.67-.81.87-.45.21-.91.1-1.31 0-.15-.04-.41-.09-.48-.08-.156.078-.304.186-.458.298l-.072.052c-.24.18-.48.35-.75.48-.34.16-.7.18-1.02.19h-.007c-.208.01-.424.02-.533.07l-.19.4-.006.014c-.169.378-.38.849-.844 1.046-.459.2-.948.04-1.347-.09h-.003c-.15-.05-.4-.13-.47-.12l-.61.31-.73.36-.61.29-.8.37a2.417 2.417 0 00-.403.25l-.117.08c-.23.17-.5.36-.81.49-.32.13-.65.17-.94.2-.23.02-.45.05-.6.11-.054.027-.165.209-.245.34l-.025.04-.008.013c-.209.328-.458.72-.892.887-.274.11-.564.16-.825.207l-.075.013-.133.026c-.159.03-.321.06-.477.114-.37.13-.73.12-1.04.11h-.01c-.216-.01-.412-.02-.54.03-.129.048-.264.136-.412.231l-.108.069-.021.014c-.235.157-.508.339-.829.446-.12.05-.28.19-.44.33l-.018.015c-.236.207-.511.448-.862.565l-.76.24-.71.23c-.37.12-.73.1-1.05.08-.2-.02-.41-.03-.54.01-.37.11-.72.09-1.03.07h-.006c-.218-.01-.425-.02-.554.02-.056.024-.157.163-.24.279l-.06.081c-.22.31-.5.7-.94.84-.49.137-.952-.081-1.329-.26l-.021-.01-.074-.033-.052-.024c-.126-.058-.265-.123-.324-.123.03.02-.1.24-.18.37l-.002.003c-.22.36-.5.817-.988.957-.427.109-.835.001-1.173-.088l-.007-.002c-.16-.05-.4-.11-.49-.09-.14.04-.31.15-.49.28l-.013.009c-.247.168-.533.363-.887.451-.393.105-.776.009-1.089-.07l-.041-.01-.057-.014c-.161-.038-.353-.084-.433-.066l-1.02.24-.49.11c-.16.04-.36.14-.56.24-.25.13-.54.27-.87.35-.19.04-.4.13-.61.22l-.091.039c-.234.1-.486.208-.769.261-.33.076-.652.044-.948.015l-.052-.005c-.22-.03-.43-.05-.57-.02-.08.018-.236.152-.361.259l-.049.041c-.26.24-.56.5-.98.59-.323.055-.62.034-.891.015l-.069-.005-.025-.002c-.22-.019-.421-.037-.585-.008-.21.04-.42.12-.62.2l-.131.046-.002.001a4.774 4.774 0 01-.727.213c-.43.06-.8-.07-1.13-.19-.17-.07-.4-.15-.49-.13-.073.016-.197.104-.326.195l-.094.065c-.28.21-.6.44-1.01.5-.128.018-.29.104-.463.195l-.047.025c-.28.15-.6.32-.98.37-.44.06-.82-.13-1.16-.3a2.93 2.93 0 01-.084-.043c-.142-.074-.325-.17-.366-.137-.08.009-.25.131-.386.228l-.044.032-.035.025c-.272.195-.582.417-.985.465-.493.059-.908-.222-1.245-.45l-.015-.01a1.892 1.892 0 01-.056-.038l-.002-.001c-.121-.082-.284-.192-.352-.201-.05.01-.26.16-.39.26-.28.21-.62.46-1.05.5-.42.05-.79-.11-1.11-.25-.18-.08-.39-.16-.49-.16-.07.01-.27.15-.41.25-.28.2-.64.45-1.07.48-.18.01-.38.07-.6.14l-.076.022c-.262.075-.555.16-.864.178h-1.55c-.39.03-.75-.12-1.05-.25-.18-.08-.4-.17-.49-.16-.09 0-.3.14-.43.23l-.013.008c-.288.189-.643.422-1.067.432-.58-.029-.92-.398-1.254-.762l-.016-.018c-.07-.08-.19-.21-.28-.29l-.28.31-.003.004c-.31.359-.669.776-1.197.786a6.612 6.612 0 01-.9-.07c-.21-.03-.42-.06-.63-.06-.36 0-.68-.11-.97-.22-.2-.08-.39-.15-.53-.15-.33 0-.634-.098-.903-.185l-.047-.015a4.162 4.162 0 01-.134-.04c-.157-.047-.299-.09-.416-.09-.069.01-.27.134-.401.215l-.009.005c-.29.19-.66.42-1.09.42-.37 0-.69-.12-.98-.23l-.04-.014c-.185-.065-.359-.126-.48-.126-.38-.01-.7-.13-.98-.24l-.037-.015c-.187-.075-.362-.145-.493-.145l-.79-.03-.72-.03c-.114 0-.276.047-.456.099l-.074.021c-.28.09-.62.18-.97.18l-1.53-.01-.62.07-.138.018a4.6 4.6 0 01-.772.062c-.12 0-.32.08-.52.16-.29.12-.63.26-1.01.26-.29 0-.58-.04-.87-.09a5.98 5.98 0 01-.132-.019c-.176-.025-.352-.051-.528-.051-.49 0-.87-.33-1.18-.6-.11-.1-.3-.27-.38-.29l-.74.04-.84.04c-.26 0-.54-.03-.81-.07l-.028-.004c-.21-.028-.411-.056-.622-.056l-.34.29c-.3.27-.67.6-1.16.61-.37 0-.71-.11-1-.21l-.066-.022c-.184-.062-.35-.118-.484-.118-.14 0-.34.08-.54.16-.28.12-.61.25-.98.26-.484.019-.824-.25-1.14-.5l-.05-.04a1.04 1.04 0 00-.024-.018l-.038-.029c-.118-.09-.27-.206-.338-.223.03.02-.14.24-.25.37-.31.38-.66.8-1.2.83-.385.019-.715-.119-1.016-.246l-.034-.014c-.17-.07-.39-.16-.49-.16-.39.038-.733-.113-1.04-.248l-.05-.022-.065-.027c-.154-.064-.319-.133-.415-.133-.07.009-.228.13-.348.22l-.052.04-.008.006c-.278.219-.616.484-1.052.524-.128.018-.297.095-.478.177l-.052.023c-.27.13-.58.27-.95.31-.42.05-.82-.15-1.14-.31-.13-.07-.34-.18-.44-.18l-.21.03-1.29.17c-.32.04-.63.02-.91-.01l-.025-.002c-.23-.019-.441-.037-.605-.008-.12.02-.3.14-.47.26-.27.19-.58.39-.96.46l-.72.1a9.51 9.51 0 00-.77.11c-.35.078-.682.014-.985-.045l-.025-.005c-.21-.04-.42-.08-.54-.05l-.24.36c-.22.34-.5.77-.98.9l-.59.14c-.29.06-.58.13-.86.22-.288.086-.575.108-.827.128l-.033.002c-.24.01-.46.03-.64.09-.409.14-.797.051-1.146-.029l-.004-.001c-.16-.04-.42-.1-.5-.07.03.01-.07.27-.13.42l-.016.038c-.136.32-.284.671-.544.902l-.63-6.91a.662.662 0 00.072-.045.419.419 0 01.098-.055c.41-.14.83-.05 1.17.03.15.04.4.09.47.07-.03-.01.08-.27.15-.43l.006-.014c.199-.457.43-.987.954-1.136.44-.13.88.03 1.23.16l.085.031c.137.052.308.115.365.099.37-.09.73-.04 1.05.01.2.03.4.06.52.03.19-.05.38-.14.56-.23l.05-.023c.248-.115.521-.241.83-.307l.27-.36.008-.011c.258-.348.557-.75 1.042-.839.531-.098.966.258 1.351.575l.019.015.018.015c.13.111.326.276.412.305-.02-.02.15-.19.26-.29l.005-.005c.259-.249.578-.555 1.025-.625.16-.03.35-.11.55-.2l.042-.019c.259-.115.546-.243.878-.281a5.29 5.29 0 01.89 0l.114.006c.18.01.352.019.526-.006.36-.04.68.02.97.08.22.05.42.09.58.07.13-.01.32-.1.51-.19.28-.14.6-.29.97-.32.49-.02.89.25 1.21.49.12.09.32.23.4.25-.015-.015.078-.12.168-.223l.04-.046.052-.061c.29-.32.65-.71 1.16-.74.299-.027.597.036.866.092l.084.018.124.025c.162.033.31.063.446.055.191-.008.382-.044.568-.079l.112-.021c.28-.06.55-.11.83-.12.36-.02.7.08.99.17.2.06.44.13.54.12.33 0 .64.06.91.12.21.05.43.1.59.09.067-.008.223-.107.349-.185l.03-.019.041-.026c.3-.2.64-.42 1.07-.43.23 0 .44-.04.65-.08.29-.06.58-.11.87-.11.41 0 .75.17 1.05.33l.044.022c.152.077.334.168.416.168.4 0 .74.16 1.04.31l.051.024c.158.075.329.156.419.156.171 0 .369-.045.577-.092l.033-.008c.28-.06.6-.12.93-.13.18 0 .38-.036.588-.074l.032-.006c.28-.06.57-.11.85-.11h.49c.34-.01.69-.01 1.03 0 .28.01.57.05.85.1.22.04.44.08.66.08l.35-.27c.31-.25.7-.52 1.17-.54.35.01.66.12.93.22.2.08.39.15.54.15.204-.002.408-.019.61-.05l.07-.007.075-.008a5.04 5.04 0 01.725-.045l.8.09.127.018c.178.026.358.052.543.052.47.01.83.28 1.12.5.11.09.31.23.38.25.17 0 .38-.04.6-.09.26-.06.55-.12.86-.12.5.01.99.01 1.48.01l.31-.28c.3-.27.68-.6 1.17-.6l1.47-.01c.522 0 .844.304 1.137.581l.063.059.046.042c.109.1.253.232.314.258l.58-.09c.28-.05.56-.1.84-.11.09-.01.29-.11.45-.2l.06-.031c.274-.143.577-.3.94-.319.285-.019.569.025.82.064l.04.006c.204.044.412.064.62.06.41-.01.77.15 1.06.29.059.027.138.054.211.079a.98.98 0 01.199.081c.221-.024.399-.066.572-.108l.07-.016.068-.016c.29-.07.58-.14.87-.16l1.53-.1.34-.29c.28-.26.63-.58 1.1-.63l1.52-.15c.47-.04.87.22 1.21.45l.107.068c.118.077.253.165.313.172.25-.03.53-.02.81-.01h.007c.238.01.465.02.693-.01l.32-.33c.27-.31.59-.66 1.06-.73.4-.06.76.05 1.08.15l.036.011c.18.057.37.118.464.099.175-.025.35-.085.525-.144l.003-.001.047-.016.055-.019c.28-.1.56-.2.85-.24.4-.068.78.063 1.094.171l.026.009.032.011c.15.05.354.118.438.109.2-.03.41-.11.63-.2.25-.1.53-.21.84-.27.133-.019.31-.128.481-.232l.029-.018c.26-.16.56-.34.91-.41.17-.04.36-.13.57-.23l.007-.003c.248-.119.536-.258.863-.327.47-.09.89.1 1.23.26l.053.023c.138.06.317.137.387.137l.76-.15.73-.15 1.49-.36c.088-.017.221-.127.36-.241l.06-.049c.25-.21.54-.45.93-.55.284-.08.569-.089.825-.097l.095-.003.054-.002.054-.002c.19-.007.37-.014.522-.056l.74-.15a5.24 5.24 0 01.038-.008l.047-.009.094-.018c.19-.036.378-.072.561-.125l.24-.38.002-.003c.23-.37.49-.787.968-.927.35-.09.68-.09.98-.08.22.01.43.01.58-.03.41-.13.84-.01 1.19.1l.05.014.017.005.04.011c.139.04.298.086.353.07-.008-.024.071-.178.14-.31l.05-.1c.21-.42.45-.89.95-1.05.47-.15.94.05 1.32.22.14.07.38.17.46.17-.02-.02.11-.24.19-.37.21-.35.47-.78.93-.94.41-.14.82-.06 1.15.01l.067.012c.16.03.353.064.423.038.069-.026.196-.154.32-.279l.06-.06c.23-.24.49-.51.86-.65.44-.17.89-.04 1.25.07l.087.025c.134.04.298.09.363.074.31-.12.65-.14.95-.15.23-.01.44-.02.58-.07l.67-.22.78-.27c.064-.032.168-.175.253-.292l.029-.04.028-.038c.2-.29.45-.64.86-.81.11-.04.26-.19.41-.34l.029-.029c.222-.222.466-.467.811-.6l.77-.24c.23-.06.45-.12.67-.21l.82-.36.57-.26c.387-.175.801-.115 1.145-.066l.035.005.058.008c.15.02.35.048.412.022.264-.122.537-.183.793-.24l.047-.01c.24-.05.46-.1.63-.18l.14-.43c.15-.44.33-.94.8-1.16.46-.22.96-.06 1.36.07.15.05.39.13.48.12l.15-.38c.16-.36.37-.81.81-1.02l.61-.35c.23-.145.467-.278.71-.4l.8-.31.053-.017c.193-.065.394-.131.577-.223l.76-.32c.22-.08.44-.16.65-.27.35-.18.72-.2 1.04-.21h.013c.196-.01.409-.021.507-.07.184-.096.345-.216.509-.338l.071-.052c.23-.17.46-.34.7-.47.13-.07.27-.22.42-.39l.026-.028c.203-.223.427-.469.734-.632l.8-.36.075-.03c.177-.07.359-.142.525-.23.27-.15.54-.24.81-.32l.086-.03.049-.016c.177-.06.339-.114.475-.194.048-.032.128-.186.194-.313l.046-.087.011-.02c.167-.326.357-.695.729-.91.441-.255.93-.135 1.373-.027l.027.007c.15.04.41.1.49.09-.027-.009.043-.205.094-.346l.016-.044.007-.017c.138-.357.309-.797.703-1.043.22-.13.41-.28.59-.43.2-.17.41-.34.64-.48.26-.15.53-.25.8-.35.23-.08.44-.16.61-.26.383-.235.833-.211 1.199-.191l.021.001c.16.01.41.02.48-.01l.13-.4.015-.045c.127-.372.281-.825.685-1.075.268-.159.557-.259.815-.348l.005-.002.072-.026c.194-.07.375-.135.508-.224.12-.08.24-.26.35-.43l.016-.025c.166-.254.354-.541.664-.745.453-.286.975-.164 1.439-.055l.021.005c.167.044.338.074.51.09l.3-.39c.18-.24.39-.52.69-.72l.52-.44c.21-.19.43-.38.66-.54.137-.098.274-.253.42-.419l.01-.01c.19-.22.4-.46.68-.65.365-.254.801-.252 1.158-.251h.072c.15.01.4.01.47-.02.11-.08.24-.25.37-.44l.043-.057c.167-.225.35-.47.617-.663.12-.09.25-.26.38-.44.17-.24.38-.51.66-.71.267-.188.563-.297.83-.396l.01-.004.089-.033c.179-.067.35-.131.461-.217.13-.1.26-.27.39-.45l.034-.046c.161-.22.344-.468.606-.664l.65-.45.6-.42.48-.45c.2-.214.417-.412.65-.59.23-.17.49-.31.75-.44.2-.1.4-.2.57-.33.328-.26.739-.307 1.081-.346l.039-.004.039-.005c.151-.02.366-.048.421-.085.08-.06.17-.31.22-.45l.016-.04c.125-.32.267-.68.584-.94l.66-.48.137-.095a6.16 6.16 0 00.443-.325c.124-.105.248-.264.381-.435l.019-.025c.17-.23.36-.48.62-.69.337-.268.753-.329 1.092-.379h.008c.15-.02.41-.06.47-.11l.06-.45c.05-.43.12-.92.5-1.24.231-.186.483-.343.75-.47l.096-.053c.166-.09.326-.177.444-.278.14-.12.27-.29.41-.48l.019-.025c.165-.214.35-.453.581-.655l.19-.16.98-.83c.251-.214.529-.342.776-.455l.054-.025.064-.031.071-.035c.152-.072.292-.139.385-.224.34-.3.8-.35 1.17-.39.15-.01.39-.04.46-.08.14-.13.27-.3.4-.47.17-.23.36-.48.61-.69.22-.189.458-.356.71-.5.2-.12.39-.24.53-.37l1.12-1.03.05-.45c.03-.42.07-.93.44-1.27l.53-.51.56-.54c.313-.304.742-.377 1.089-.436l.021-.004c.15-.02.4-.06.46-.11.067-.067.144-.265.212-.44l.008-.02.002-.006c.12-.318.25-.666.548-.944.342-.322.817-.358 1.202-.388l.028-.002.063-.004c.149-.009.346-.021.407-.056-.05 0-.06-.27-.06-.43-.01-.47-.02-1.01.35-1.38.37-.37.91-.37 1.34-.37.16 0 .41 0 .49-.03.04-.05.12-.25.19-.45l.02-.05c.115-.288.245-.615.5-.87l.5-.47zm18.67 43.59c.19-.21.41-.45.74-.54.202-.049.398-.045.561-.041l.109.001c.06 0 .11.01.16.01l.75 5.23c-.06.03-.12.06-.19.08-.36.09-.7-.05-.99-.18-.12-.05-.32-.13-.38-.13-.05.02-.18.18-.26.28-.18.22-.38.46-.69.59-.29.11-.59.1-.85.08-.17-.01-.36-.02-.44.02-.056.028-.155.177-.233.294l-.017.026c-.14.24-.31.5-.6.66-.112.06-.225.166-.344.277l-.056.053a3.53 3.53 0 00-.057.054c-.136.128-.289.272-.473.386l-.43.25c-.2.11-.39.22-.58.36-.223.167-.481.231-.709.287l-.051.013c-.16.04-.34.08-.41.14-.05.04-.11.24-.15.37-.07.26-.16.56-.39.79-.29.28-.693.28-1.072.28h-.038c-.1 0-.24 0-.34.01.01.1.03.24.05.33l.002.014c.06.366.125.77-.092 1.096a3.836 3.836 0 01-.34.45c-.13.16-.25.32-.34.48-.12.22-.29.39-.44.54l-.073.078a.796.796 0 00-.167.212c-.08.23-.21.42-.33.59l-.043.066c-.076.117-.15.23-.167.314 0 .05.08.21.13.31l.019.037c.115.23.24.479.221.773-.01.24-.08.44-.15.63-.06.16-.11.3-.1.4.028.223-.013.438-.052.636l-.008.044c-.03.16-.06.33-.04.43l.05.2.027.11c.062.25.127.515.223.75.05.12.16.26.29.4.14.16.3.35.41.57l.57 1.01c.078.129.185.244.296.363l.054.057c.15.15.29.3.41.47.04.065.146.123.259.185l.081.045.036.02c.201.115.425.242.604.45.13.14.24.31.35.48l.035.053c.089.134.18.272.295.387.256.266.289.619.319.935l.001.015c.01.12.03.32.06.38l.47.36.46.36.43.42c.14.15.28.29.43.41l.35-.02c.33-.03.7-.06 1.01.16.22.16.38.37.51.55l.014.02c.105.142.2.273.296.33.08.05.24.09.41.12l.028.006c.232.048.482.1.722.244.318.183.45.533.558.818l.012.032c.04.12.11.3.15.35l.54-.04c.35-.03.68-.05.96.04l-.32 2.53a.856.856 0 00-.057.068.496.496 0 01-.043.052c-.1.12-.13.16-.14.29.01 0 .08.09.13.16 0 .02.01.03.02.04l-.4 2.54-.16-.08c-.27-.13-.51-.39-.73-.64-.13-.15-.3-.34-.39-.39l-1.06-.56c-.217-.118-.395-.285-.553-.434l-.007-.006-.082-.077a1.252 1.252 0 00-.278-.223c-.08-.04-.24-.06-.4-.08l-.02-.002c-.255-.03-.537-.062-.79-.218l-.52-.38-.44-.32c-.247-.156-.394-.395-.517-.595l-.033-.055-.008-.013c-.068-.117-.145-.249-.212-.297l-.34.03c-.33.04-.73.08-1.05-.16l-.61-.51-.32-.28c-.2-.161-.345-.359-.479-.541l-.021-.029-.059-.077a1.91 1.91 0 00-.231-.273c-.253-.234-.336-.553-.404-.818l-.006-.022c-.02-.11-.07-.3-.11-.34-.02.01-.23.02-.36.02-.39.02-.82.03-1.11-.29-.212-.221-.294-.489-.371-.74l-.009-.03c-.013-.035-.024-.071-.036-.107-.035-.107-.069-.21-.114-.263l-.45-.64-.078-.12a3.747 3.747 0 00-.162-.24l-.19-.26-.51-.72c-.19-.31-.17-.66-.15-.95.01-.11.02-.3 0-.35l-.31-.1c-.33-.11-.74-.25-.91-.63l-.23-.4-.021-.033c-.124-.2-.254-.41-.339-.647-.16-.42.06-.83.24-1.16l.026-.053c.06-.117.135-.267.144-.327-.03-.08-.11-.22-.2-.36-.14-.22-.29-.47-.34-.78-.02-.07-.16-.23-.25-.33-.22-.24-.48-.53-.5-.92l-.04-.46c-.03-.3-.05-.61-.04-.89.03-.44.39-.74.68-.97.027-.025.061-.053.096-.083.092-.078.192-.163.214-.207l-.07-.38-.013-.069c-.047-.261-.1-.548-.017-.85.1-.35.36-.58.58-.77.11-.09.24-.21.27-.28-.01-.02-.11-.22-.16-.35-.16-.36-.35-.8-.15-1.21.128-.257.323-.471.5-.666l.05-.055c.1-.11.2-.22.28-.33.149-.23.398-.399.618-.548l.002-.002c.14-.09.28-.19.34-.27.18-.237.415-.376.627-.5l.033-.02c.14-.08.27-.16.34-.24.03-.05.05-.25.06-.37l.002-.024c.03-.306.065-.673.328-.936.278-.278.676-.29.999-.299h.041c.12 0 .32 0 .38-.03-.02-.01 0-.22.02-.34.04-.34.1-.76.41-1.01.276-.218.59-.25.876-.28h.014c.13-.01.33-.03.39-.07.09-.07.19-.19.29-.33l.008-.011c.148-.198.316-.423.572-.58.286-.178.612-.19.88-.2h.01l.09-.005c.123-.007.244-.013.3-.045l.72-.38.34-.17c.13-.07.26-.17.39-.28.18-.15.38-.31.63-.42a2.45 2.45 0 00.361-.208l.079-.052c.19-.13.4-.27.64-.36.27-.11.56-.12.81-.12.16 0 .32-.01.42-.04.055-.016.146-.11.231-.2l.069-.07z" fill="#000"/><path d="M14.659 153.743a100.027 100.027 0 002.673 4.17l-2.673-4.17zm133.158 36.925a99.826 99.826 0 01-34.969 10.954l.053-.05c.039-.037.076-.072.109-.112l.06-.061c.119-.12.234-.236.32-.279.26-.11.5-.25.74-.41l.087-.053c.151-.094.305-.19.473-.257l1.36-.56c.301-.126.537-.319.752-.495l.018-.015c.17-.14.33-.27.47-.33.22-.09.45-.17.68-.25.188-.063.37-.132.556-.202l.067-.025.087-.033c.12-.05.33-.05.54-.05l.07-.002c.281-.009.586-.018.89-.138.14-.05.35-.06.56-.06.29 0 .61-.01.93-.12.394-.138.652-.47.861-.738l.009-.012c.09-.12.24-.31.31-.34.14-.05.35-.06.56-.06h.015c.276-.01.6-.022.915-.13.111-.043.273-.042.455-.04h.095c.29.01.62.02.94-.09.168-.056.336-.086.504-.117l.126-.023c.27-.045.537-.105.8-.18.49-.16.71-.64.9-1.06.05-.11.12-.26.18-.37.125.06.246.131.36.21.4.25.86.52 1.35.38.4-.12.68-.43.9-.68l.032-.036.019-.02c.097-.109.22-.247.279-.264.11-.03.33 0 .52.03.31.05.65.1 1.02 0 .236-.069.477-.122.72-.16l.146-.03.004-.001c.187-.037.369-.074.55-.129.288-.077.548-.218.78-.344l.03-.016.011-.006c.195-.107.372-.205.539-.244.39-.11.67-.38.91-.63.11-.11.29-.29.36-.31.088-.019.298.027.476.067l.014.003c.32.08.68.17 1.06.08.41-.1.71-.39.95-.63.11-.11.28-.28.31-.29.059 0 .187.065.303.123l.09.044.027.013c.35.18.77.39 1.24.29.371-.086.643-.325.884-.538l.036-.032c.13-.12.3-.27.38-.29.153.035.304.082.45.14l.019.007c.335.128.708.271 1.111.183.348-.07.627-.248.876-.407l.004-.003.049-.03c.162-.099.314-.193.441-.22.357-.075.626-.283.873-.474l.047-.036c.14-.11.32-.25.41-.27.08-.009.263.046.422.093l.058.017.127.038c.095.029.19.059.29.08zM33.713 176.686l5.426 4.529a101.273 101.273 0 01-5.426-4.529z" fill="#000"/></svg>