<svg width="37" height="73" viewBox="0 0 37 73" fill="none" xmlns="http://www.w3.org/2000/svg"><path d="M18.5 70c-3.333-3.778-3.333-7.556 0-11.333 3.333-3.778 3.333-7.556 0-11.334-3.333-3.777-3.333-7.555 0-11.333 3.333-3.778 3.333-7.556 0-11.333-3.333-3.778-3.333-7.556 0-11.334 3.333-3.777 3.333-7.555 0-11.333m15 68c-3.333-3.778-3.333-7.556 0-11.333 3.333-3.778 3.333-7.556 0-11.334-3.333-3.777-3.333-7.555 0-11.333 3.333-3.778 3.333-7.556 0-11.333-3.333-3.778-3.333-7.556 0-11.334 3.333-3.777 3.333-7.555 0-11.333m-30 69c-3.333-3.778-3.333-7.556 0-11.333 3.333-3.778 3.333-7.556 0-11.334C.167 44.556.167 40.778 3.5 37c3.333-3.778 3.333-7.556 0-11.333-3.333-3.778-3.333-7.556 0-11.334C6.833 10.556 6.833 6.778 3.5 3" stroke="#000" stroke-width="2" stroke-linecap="square"/></svg>