<svg width="1800" height="900" viewBox="0 0 1800 900" fill="none" xmlns="http://www.w3.org/2000/svg"><path fill-rule="evenodd" clip-rule="evenodd" d="M1195.9 278.8h-5.4l-3.8-.5-2.5 2.9-2.1.7-1.5 1.3-2.6-2.1-1-5.4-1.6-.3v-2l-3.2-1.5-1.7 2.3.2 2.6-.6.9-3.2-.1-.9 3-2.1-1.3-3.3 2.1-1.8-.8-4.3-1.4h-2.9l-1.6-.2-2.9-1.7-.3 2.3-4.1 1.2.1 5.2-2.5 2-4 .9-.4 3-3.9.8-5.9-2.4-.5 8-.5 4.7 2.5.9-1.6 3.5 2.7 5.1 1.1 4 4.3 1.1 1.1 4-3.9 5.8 9.6 3.2 5.3-.9 3.3.8.9-1.4 3.8.5 6.6-2.6-.8-5.4 2.3-3.6h4l.2-1.7 4-.9 2.1.6 1.7-1.8-1.1-3.8 1.5-3.8 3-1.6-3-4.2 5.1.2.9-2.3-.8-2.5 2-2.7-1.4-3.2-1.9-2.8 2.4-2.8 5.3-1.3 5.8-.8 2.4-1.2 2.8-.7-1.4-1.9zM894.3 554.6l-16.6-.1-1.9.7-1.7-.1-2.3.9-.5 1.2 2.8 4 1.1 4.3 1.6 6.1-1.7 2.6-.3 1.3 1.3 3.8 1.5 3.9 1.6 2.2.3 3.6-.7 4.8-1.8 2.8-3.3 4.2-1.3 2.6-1.9 5.7-.3 2.7-2 5.9-.9 5.5.5 4 2.7-1.2 3.3-1 3.6.1 3.2 2.9.9-.4 22.5-.3 3.7 3 13.4.9 10.3-2.5-3.5-4-3.6-5.2.8-20.3 11.6.1-.5-2.2.9-2.4-.9-3 .7-3-.5-2-2.6-.4-3.5 1-2.4-.2-1.4.6.5-7.6-1.9-2.3-.3-4 .9-3.8-1.2-2.4v-4h-6.8l.5-2.3h-2.9l-.3 1.1-3.4.3-1.5 3.7-.9 1.6-3-.9-1.9.9-3.7.5-2.1-3.3-1.3-2.1-1.6-3.8-1.3-4.7zm-21.8-1.3l.2-2.7.9-1.7 2-1.3-2-2.2-1.8 1.1-2.2 2.7 1.4 4.8 1.5-.7zm31-307.8l-2 3.1.5 1.9 1 1-.5 1.9-.1 4.3.7 3 3 2.1.2 1.4 1 .4 2.1-3 .1-2.1 1.6-.9V257l-2.3-1.6-.9-2.6.4-2.1-.5-2.3-1.3-.6-1.3-1.6-1.3.5-.4-1.2z" fill="#000" fill-opacity=".08" stroke="#000" stroke-opacity=".04" stroke-linejoin="round"/><path fill-rule="evenodd" clip-rule="evenodd" d="M1109.9 353.6l-1.3-2.2-3 3.9-3.7 4.1-3.3 4.3-3.3-.2-4.6-.2-4.2 1-.3-1.7-1 .3.4 1.5 2.6 6.4 16.8 3.2 1-1.3-.1-2.6 1.4-2.6-.3-2.6 2.4-1.3-1.1-.8.1-4.2h2.8l-1.3-5zM495.8 865.7l.9-3-7.3-1.5-7.7-3.6-4.3-4.6-3-2.8 5.9 13.5h5l2.9.2 3.3 2.1 4.3-.3zm-50.4-208.1l-7.4-1.5-4 5.7.9 1.6-1.1 6.6-5.6 3.2 1.6 10.6-.9 2 2 2.5-3.2 4-2.6 5.9-.9 5.8 1.7 6.2-2.1 6.5 4.9 10.9 1.6 1.2 1.3 5.9-1.6 6.2 1.4 5.4-2.9 4.3 1.5 5.9 3.3 6.3-2.5 2.4.3 5.7.7 6.4 3.3 7.6-1.6 1.2 3.6 7.1 3.1 2.3-.8 2.6 2.8 1.3 1.3 2.3-1.8 1.1 1.8 3.7 1.1 8.2-.7 5.3 1.8 3.2-.1 3.9-2.7 2.7 3.1 6.6 2.6 2.2 3.1-.4 1.8 4.6 3.5 3.6 12 .8 4.8.9 2.2.4-4.7-3.6-4.1-6.3.9-2.9 3.5-2.5.5-7.2 4.7-3.5-.2-5.6-5.2-1.3-6.4-4.5-.1-4.7 2.9-3.1 4.7-.1.2-3.3-1.2-6.1 2.9-3.9 4.1-1.9-2.5-3.2-2.2 2-4-1.9-2.5-6.2 1.5-1.6 5.6 2.3 5-.9 2.5-2.2-1.8-3.1-.1-4.8-2-3.8 5.8.6 10.2-1.3 6.9-3.4 3.3-8.3-.3-3.2-3.9-2.8-.1-4.5-7.8-5.5-.3-3.3-.4-4.2.9-1.4-1.1-6.3.3-6.5.5-5.1 5.9-8.6 5.3-6.2 3.3-2.6 4.2-3.5-.5-5.1-3.1-3.7-2.6 1.2-.3 5.7-4.3 4.8-4.2 1.1-6.2-1-5.7-1.8 4.2-9.6-1.1-2.8-5.9-2.5-7.2-4.7-4.6-1-11.2-10.4-1-1.3-6.3-.3-1.6 5.1-3.7-4.6zM1045 270.1l-.9-4.4-2.5-1.1-2.5-1.7 1-2-3.1-2.2.7-1.5-2.2-1.1-1.4-1.7-6.9 1 1.3 2.2v3.1l4.2 1.5 2.4 1.9 1-.2 1.8 1.7h2.3l.2 1 2.8 3.7 1.8-.2zM1552.7 777l-3-.5-1.9 2.9-.6 5.4-2.1 4-.5 5.3 3 .2.8.3 6.6-4.3.6 1.7 4-4.9 3.2-2.2 4.5-7.3-2.8-.5-4.8 1.2-3.4.9-3.6-2.2zm50.1-172.3l.5-2.3.1-3.6-1.6-3.2.1-2.7-1.3-.8.1-3.9-1.2-3.2-2.3 2.4-.4 1.8-1.5 3.5-1.8 3.4.6 2.1-1.2 1.3-1.5 4.8.1 3.7-.7 1.8.3 3.1-2.6 5-1.3 3.5-1.7 2.9-1.7 3.4-4.1 2.1-4.9-2.1-.5-2-2.5-1.6h-1.6l-3.3-3.8-2.5-2.2-3.9-2-3.9-3.5-.1-1.8 2.5-3.1 2.1-3.2-.3-2.6 1.9-.2 2.5-2.5 2-3.4-2.2-3.2-1.5 1.2-2-.5-3.5 1.8-3.2-2-1.7.7-4.5-1.6-2.7-2.7-3.5-1.5-3.1.9 3.9 2.1-.3 3.2-4.8 1.2-2.8-.7-3.6 2.2-2.9 3.7.6 1.5-2.7 1.7-3.4 5.1.6 3.5-3.4-.6h-3.5l-2.5-3.8-3.7-2.9-2.8.8-2.6.9-.3 1.6-2.4-.7-.3 1.8-3 1.1-1.7 2.5-3.5 3.1-1.4 4.8-2.3-1.3-2.2 3.1 1.5 3-2.6 1.2-1.4-5.5-4.8 5.4-.8 3.5-.7 2.5-3.8 3.3-2 3.4-3.5 2.8-6.1 1.9-3.1-.2-1.5.6-1.1 1.4-3.5.7-4.7 2.4-1.4-.8-2.6.5-4.6 2.3-3.2 2.7-4.8 2.1-3.1 4.4.4-4.8-3.1 4.6-.1 3.7-1.3 3.2-1.5 1.5-1.3 3.7.9 1.9.1 2 1.6 5-.7 3.3-1-2.5-2.3-1.8.4 5.9-1.7-2.8.1 2.8 1.8 5-.6 5 1.7 2.5-.4 1.9.9 4.1-1.3 3.6-.3 3.6.7 6.5-.7 3.7-2.2 4.4-.6 2.3-1.5 1.5-2.9.8-1.5 3.7 2.4 1.2 4 4.1h3.6l3.8.3 3.3-2.1 3.4-1.8 1.4.3 4.5-3.4 3.8-.3 4.1-.7 4.2 1.2 3.6-.6 4.6-.2 3-2.6 2.3-3.3 5.2-1.5 6.9-3.2 5 .4 6.9-2.1 7.8-2.3 9.8-.6 4 3.1 3.7.2 5.3 3.8-1.6 1.5 1.8 2.4 1.3 4.6-1.6 3.4 2.9 2.6 4.3-5.1 4.3-2.1 6.7-5.5-1.6 4.7-3.4 3.2-2.5 3.7-4.4 3.5 5.2-1.2 4.7-4.4-.9 4.8-3.2 3.1 4.7.8 1.3 2.6-.4 3.3-1.5 4.9 1.4 4 4 1.9 2.8.4 2.4 1 3.5 1.8 7.2-4.7 3.5-1.2-2.7 3.4 2.6 1.1 2.7 2.8 4.7-2.7 3.8-2.5 6.3-2.7 6-.2 4.2-2.3.9-2 3-4.5 3.9-4.8 3.6-3.2 4.4-5.6 3.3-3.1 4.4-5 5.4-3.1 5-5.8 3.1-4.5 1.4-3.6 3.8-5.7 2.1-2.9 2.5-5.7-.7-5.4 1.7-3.9 1.1-3.7v-5.1l-2.8-5.1-1.9-2.5-2.9-3.9.7-6.7-1.5 1-1.6-2.8-2.5 1.4-.6-6.9-2.2-4 1-1.5-3.1-2.8-3.2-3-5.3-3.3-.9-4.3 1.3-3.3-.4-5.5-1.3-.7-.2-3.2-.2-5.5 1.1-2.8-2.3-2.5-1.4-2.7-3.9 2.4-1.2-5zM886.2 209l-2.3-1.2-2.3.3-4-1.9-1.7.5-2.6 2.5-3.8-2-1.5 2.9-1.7.8 1 4-.4 1.1-1.7-1.3-2.4-.2-3.4 1.2-4.4-.3-.6 1.6-2.6-1.7-1.5.3.2 1.1-.7 1.6 2.3 1.1 2.6.2 3.1.9.5-1.2 4.8-1.1 1.3 2.2 7.2 1.6 4.2.4 2.4-1.4 4.3-.1.9-1.1 1.3-4-1.1-1.3h2.8l.2-2.6-.7-2.1.3-.8z" fill="#000" fill-opacity=".12" stroke="#000" stroke-opacity=".04" stroke-linejoin="round"/><path fill-rule="evenodd" clip-rule="evenodd" d="M1036.1 263.9l-1 .2 1.2 2.4 3.2 2.9 3.7.9-2.8-3.7-.2-1h-2.3l-1.8-1.7zm10.4-9.3l-4.3-3.8-1.5-.2-1.1.9 3.2 3.4-.6.7-2.8-.4-4.2-1.8-1.1 1 1.4 1.7 2.2 1.1-.7 1.5 3.1 2.2-1 2 2.5 1.7 2.5 1.1.9 4.4 5.3-4.7 1.9-.5 1.9 1.9-1.2 3.1 3.8 3.4 1.3-.3-.8-3.2 1.7-1.5.4-2.2-.1-5 4.2-.5-2-1.7-2.5-.2-3.5-4.5-3.4-3.2-2.6 2.5-.5 1.5-2.4-.4zM974.2 535l-.3-2.5-3-.4-1.7 3.6-3.5-.5 1.4 2.9.1 1.1 2 6.1-.1.3.6-.1 2.1-2.3 2.2-3.3 1.4-1.4v-2l-1.2-1.5z" fill="#000" fill-opacity=".08" stroke="#000" stroke-opacity=".04" stroke-linejoin="round"/><path fill-rule="evenodd" clip-rule="evenodd" d="M826.7 191.2l-4.4 1.3-3.6-.5-3.8 1.2.7 2.2 2.2.1 2.4 2.4 3.4 2.9 2.5-.4 4.4 2.8.4-3.5 1.3-.2.4-4.2-2.8-1.4-3.1-2.7z" fill="#000" fill-opacity=".12" stroke="#000" stroke-opacity=".04" stroke-linejoin="round"/><path fill-rule="evenodd" clip-rule="evenodd" d="M822.9 443l-4.3-3.7h-2l-1.9 1.9-1.2 1.9-2.7.6-1.2 2.8-1.9.7-.7 3.3 1.7 1.9 2 2.3.2 3.1 1.1 1.3-.2 14.6 1.4 4.4 4.6-.8.3-10.2-.1-4.1 1-4 1.7-1.9 2.7-4-.6-1.7 1.1-2.5-1.2-3.8.2-2.1z" fill="#000" fill-opacity=".08" stroke="#000" stroke-opacity=".04" stroke-linejoin="round"/><path fill-rule="evenodd" clip-rule="evenodd" d="M804.8 422.2h-3.6l-1.4-1.2-3 .9-5.2 2.6-1.1 2-4.3 2.9-.8 1.6-2.3 1.3-2.7-.9-1.6 1.6-.8 4.4-4.5 5.2.2 2.2-1.6 2.7.4 3.7 2.5 1.4 1 2.1 2.5 1.3 1.9-1.6 2.7-.2 3.8 1.6-.8-4.8.2-3.6 9.7-.3 2.4.5 1.8-1 2.6.5 4.9.1 1.9-.7 1.2-2.8 2.7-.6 1.2-1.9.1-4.4-6.4-1.4-.2-3.1-3.1-4.1-.8-2.9.5-3.1zm507.7-45.3l-4.5-10.1-1.5.1-.2 4-3.5-3.3 1.1-3.6 2.4-.4 1.6-5.3-3.4-1.1-5 .1-5.4-.9-1.2-4.4-2.7-.4-4.8-2.7-1.2 4.3 4.6 3.4-3.1 2.4-.8 2.3 3.7 1.7-.4 3.8 2.6 4.8 1.6 5.2 2.2.6 1.7.7.6-1.2 2.5 1.3 1.3-3.5-.9-2.6 5.1.2 2.8 3.7 1.5 3.1.8 3.2 2 3.3-1.1-5.1 2.1 1-.5-4.6zM947.6 239.3l-3-.7-4-2.2-5.8 1.4-2.3 1.6-7.5-.3-4-1-1.9.5-1.8-2.6-1.1 1.4.7 2.3 2.8 2.6-1.7 1.9-.7 2 .6.7-.7.9 2.8 2 .8 4.1 3.8.2 3.9-1.7 3.9 2.1 4.6-.6-.3-3 5-2 4.5.8-2.1-3.5 1.3-4.4 2.2-2.5zm-59.4-9.4l-2.3.1-1 1.3-1.9-1.4-.9 2.5 2.7 2.9 1.3 1.9 2.5 2.3 2 1.4 2.2 2.5 4.7 2.4.4-3.4 1.5-1.4.9-.6 1.2-.3.5-2.9-2.7-2.3 1-2.7h-1.8l-2.4-1.4-3.5.1-4.4-1zm50.6-65.5l-5.2-1.5-4.6 2.3-2.6 1 .9 2.6-3.5 2-.5 3.4-4.8 2.2h-4.6l.6 2.7 1.7 2.3.3 2.4-2.7 1.2 1.9 2.9.5 2.7 2.2-.3 2.4-1.6 3.7-.2 5 .5 5.6 1.5 3.8.1 2 .9 1.6-1.1 1.5 1.5 4.3-.3 2 .6-.2-3.1 1.2-1.4 4.1-.3-2-3.9-1.5-2 .8-.6 3.9.2 1.6-1.3-1.7-1.6-3.4-1.1.1-1.1-2.2-1.1-3.7-3.9.6-1.6-1-2.9-4.8-1.4-2.3.7-1-1.4zM308.5 416.1l1.4-2.2 1-.2 1.3-1.7 1-3.2-.3-.6.9-2.3-.4-1 1.3-2.7.3-1.8h-1.1l.1-.9h-1l-2.5 3.9-.9-.8-.7.3-.1 1-.7 5-1.2 7.2h1.6zm173.2 229.4l1.6-1.3-.8-3.6 1.3-2.8.5-5-1.6-4-3.2-1.7-.8-2.6.6-3.6-10.7-.3-2.7-7.4 1.6-.1-.3-2.8-1.2-1.8-.5-3.7-3.3-1.9-3.5.1-2.5-1.9-3.8-1.2-2.4-2.4-6.3-1-6.4-5.7.3-4.3-.9-2.5.4-4.7-7.3 1.1-2.8 2.3-4.8 2.6-1.1 1.9-2.9.2-4.2-.6 5.5 10.3-1.1 2.1.1 4.5.3 5.4-1.9 3.2 1.2 2.4-1.1 2.1 2.8 5.3-2.8 6.9 3.1 4.3 1.2 4.6 3.2 2.7-1.1 6.2 3.7 7.1 3.1 8.8 3.8-.9 4-5.7 7.4 1.5 3.7 4.6 1.6-5.1 6.3.3 1 1.3 1.5-7.6-.2-3.4 2.1-5.6 9.5-1.9 5.1.1 5.4 3.3.3 1.9z" fill="#000" fill-opacity=".12" stroke="#000" stroke-opacity=".04" stroke-linejoin="round"/><path fill-rule="evenodd" clip-rule="evenodd" d="M485 505.1l-1.4.2-3.1-.5-1.8 1.7-2.6 1.1-1.7.2-.7 1.3-2.7-.3-3.5-3-.3-2.9-1.4-3.3 1-5.4 1.6-2.2-1.2-3-1.9-.9.8-2.8-1.3-1.5-2.9.3.7 1.8-2.1 2.4-6.4 2.4-4 1-1.7 1.5-4.4-1.6-4.2-.8-1 .6 2.4 1.6-.3 4.3.7 4 4.8.5.3 1.4-4.1 1.8-.7 2.7-2.3 1-4.2 1.5-1.1 1.9-4.4.5-3-3.4-1.1.8-1-3.8-1.6-2-1.9 2.2-10.9-.1v3.9l3.3.7-.2 2.4-1.1-.6-3.2 1v4.6l2.5 2.4.9 3.6-.1 2.8-2.2 17.4-5.1-.3-.7 1-4.6 1.2-6.2 4.3-.4 3-1.3 2.2.7 3.4-3.3 1.9.1 2.7-1.5 1.1 2.6 5.8 3.3 3.8-1 2.8 3.7.3 2.3 3.4 4.9.2 4.4-3.8.2 9.7 2.6.7 3-1.1 4.2.6 2.9-.2 1.1-1.9 4.8-2.6 2.8-2.3 7.3-1.1-.4 4.7.9 2.5-.3 4.3 6.4 5.7 6.3 1 2.4 2.4 3.8 1.2 2.5 1.9 3.5-.1 3.3 1.9.5 3.7 1.2 1.8.3 2.8-1.6.1 2.7 7.4 10.7.3-.6 3.6.8 2.6 3.2 1.7 1.6 4-.5 5-1.3 2.8.8 3.6-1.6 1.3 1.9 3.6.4 8.6 6 1.2 2.1-1.2 3.9 1.7 1.2 1.9 1 5.8.9 2.5 2 .3 2-1.1 2.1 1.2.3 3.5-.3 3.8-.7 3.6 2.6-1.2 3.1 3.7.5 5.1-4.2 3.5-3.3 2.6-5.3 6.2-5.9 8.6 3.4-.7 6.2 4.9 1.9-.2 6.2 4.1 4.8 3.5 3.8 4.3-1.9 3 2.1 3.7 2.9-3.7 1.5-6 3.2-3 3.9-5 4.5-11.2 3.4-3.5.8-3.1.3-6.4-1.3-3.5.3-4.8 4.1-6.3 6-5.1 6-1.8 3.6-2.9 8.5-2.4h5.9l1.1-3.8 4.2-2.8.6-6.5 5.1-8.3.5-8.5 1.6-2.6.3-4.1 1.1-9.9-1-11.9 1.4-4.7 1.4-.1 3.9-5.5 3.3-7.2 7.7-8.8 2.7-4.2 2-10.5-1-3.9-2-8.1-2.1-2-4.8-.2-4.3-1.9-7.3-7.1-8.4-5.3-8.4.3-10.9-3.4-6.5 2 .8-3.5-2.7-3.8-9.4-3.8-7.1-2.3-4.2 4.1-.3-6.3-9.9-1-1.7-2 4.2-5.2-.1-4.4-3-1-3-11.2-1.3-3.5-1.9.3-3.5 5.8-1.8 4.7-2.1 2.4-2.7.5-.8-1.8-1.2-.3-1.8 1.8-2.4-1.3-3.2-1.4-2.7.7-2.3-.6-.5 1.8.9 1.3-.5 1.3-3.1-.5zm958.8-16.7l2.7 3.3 1.1-2.2 2.7.2.1-4.1.1-3.1-4.6 3.5-2.1 2.4z" fill="#000" fill-opacity=".12" stroke="#000" stroke-opacity=".04" stroke-linejoin="round"/><path fill-rule="evenodd" clip-rule="evenodd" d="M1300.7 340.5l-2.7-1.8-2.9-.1-4.2-1.5-2.6 1.6-2.6 4.8.3 1.2 5.5 2.5 3.2-1 4.7.4 4.4-.2-.4-3.9-2.7-2zM942.7 630l-1-.5-3.2 1.5h-1.6l-3.7 2.5-2-2.6-8.6 2.2-4.1.2-.9 22.7-5.4.2-.6 18.5 1.4 1 3 6.1-.7 3.8 1.1 2.3 4-.7 2.8-2.8 2.7-1.9 1.5-3.1 2.7-1.5 2.3.8 2.5 1.8 4.4.3 3.6-1.5.6-2 1.2-3 3-.5 1.7-2.4 2-4.3 5.2-4.7 8-4.7-3.4-2.9-4.2-.9-1.5-4.1.1-2.2-2.3-.7-6-7-1.6-3.7-1.1-1.1-1.9-5.1zm-6.2-167.7l-.5-.3-2-1.8-.3-2 .8-2.6V453l-3.3-4-.7-2.7-3.5 1.1-2.8 2.5-4 7-5.2 2.9-5.4-.4-1.6.6.6 2.3-2.9 2.2-2.3 2.5-7.1 2.4-1.4-1.4-.9-.2-1 1.7-4.7.4-2.7 6.5-1.4 1.1-.4 5 .6 2.7-.4 1.9 2.6 3.3.5 2.3 2.1 3.2 2.6 2.1.3 2.9.6 1.8 2.9-5.9 3.3-3.4 3.8 1.1 3.6.4.5-4.5 2.2-3.2 3-2 4.6 2.1 3.6 2.4 4.1.6 4.2 1.2 1.6-3.8.8-.5 2.6.6 6.2-3.1 2.2 1.3 1.8-.2.9-1.5 2-.6 4.3.7 3.6.1 1.8-.6-.9-2.1-4.2-2.5-1.5-3.8-2.4-2.7-3.8-3.4-.1-2-3.1-2.6-3.8-2.5z" fill="#000" fill-opacity=".08" stroke="#000" stroke-opacity=".04" stroke-linejoin="round"/><path fill-rule="evenodd" clip-rule="evenodd" d="M485 221.7l-.7-3-2.5 1.9.5 2.1 5.6 2.6 1.9-.4 3.3-2.5-4.7.1-3.4-.8zm14.4-15.9l.2-1.1-4.1-2.6-5.9-1.6-1.9.6 3.5 2.9 5.7 1.9 2.5-.1zm-305.3 3.7l.2-3.4-3.2-2.6-.4-2.9-.1-2.1-4.1-.7-2.4-.9-4.1-1.4-1.4 1.5-.6 3.3 4.3 1.1-.4 1.8 2.9 2.2v2.2l6.3 2.8 3-.9zM530.2 196l3.9-3.8 1.4-1.7-2.1-.3-4.9 2.2-4.2 3.5-8.1 9.8-5.3 3.7 1.6 1.7-3.8 2.2.2 1.9 9.6.1 5.4-.3 4.4 1.5-4.4 2.9 2.9.2 7.3-5.4 1.2.8-2.5 5.1 3 1.2 2.3-.2 3.5-5.5-.5-3.9.3-3.3-3.7 1.1 2.8-4.6-4.3-1.9-2.7 1.5-3.9-1.7 2.4-2.1-2.9-1.3-3.8 2 4.9-5.4zm-356.8-21.2l-1.9 2-1.4 2.6.9 1.9-.6 2.8.7 2.8h1.9l-.2-4.9 7.1-6.9-4.9.5-1.6-.8zm280.9-47l-.4-1.2-1.7-.1-2.8 1.7-.4.4.1 1.7 1.7.5 3.5-3zm-9.6-3.2l.8-1.1-6-.1-4.9 2.7v1.5l3 .2 7.1-3.2zm-3.1-16.6l-2.7-.5-5 5.2-3.6 4.4-5.7 2.8 6.3-.6-.8 3.4 8.2-3 6.2-3 .8 2.6 5.9 1.3 4.9-1.8-1.9-1.8-3.4.4 1.3-2.7-3.7-1.7-3.4-1.9-1.5-1.5-2.8.9.9-2.5zm44.6-8.2l3.7-1.7 1-.7 1.4-2.3-2.3-1.5-4.2.7-3.8 3.1-.7 2.6 4.9-.2zm-73.8-10.7l-.8-2-.3-1-1.6-1-3-1.5-4.9 2.3-5 1.7 3.5 2.4 3.8-.6 4.1 1.6 4.2-1.9zm22.4-2.1l-6.6-1 5.7-2.6-.4-6-1.9-2.3-4.5-.8-8.1 3.8-5.5 5.8 2.9 2.1 1.6 3.3-6.3 5.5-3.2-.2-6.2 4.4 4.2-5.2-4.8-1.8-4.5.9-2.4 3.4-5.9-.1-7.2.8-5.1-2.4-5 .4-1.5-2.9-2.1-1.3-3.8.5-5.2.3-4.4 1.8 2 2.3-7 2.8-1.4-3.3-4.4 1-11.8.6-6.4-1.2 8.5-2.6-2.8-2.8-4.4.4-4.7-1-7.5-1.9-3.8-2.3-4.5-.3-3.3 1.6-5.9.9 3.9-4.1-9.4 3.6-1.4-4.7-2.1-.6-3.8 2.5-4.5 1.2-.2-2.2-8.2 1.4-8.8 2.3-5.2-.6-7 1.6-6.2 2.3-3.7-.5-3.3-2.6-5.9-1.3-24.3 20.2-35.4 32.4 4.2.1 2.7 1.6.6 2.6.2 3.9 7.6-3.3 6.4-1.9-.5 3 .7 2.4 1.7 2.7-1.1 4.2-1.5 6.8 4.6 3.8-3.1 3.7-5.1 2.9-2.5 3.1 2.1 4.4-3.1 4.9 4.1 2.6-3.6 3.7-1.3 5.5 6.9 2.5 1.6 2.7 5.4 6.1h136.6l1.3-2.4h1.6l-.8 3.4 1 1 3.2.4 4.6 1 3.8 1.9 4.4-.8 5.3 1.6 3.2-2.4 3.2-1 1.8-1.5 1.5-.8 4 1.2 3.3.2.8.8.1 3.5 5.2 1-1.7 1.7 1.2 1.9-1.9 2.3 1.8.8-1.9 2.1 1.2.2 1.3-.9.5 1.4 3.4.7 3.8.1 3.8.6 4 1.2.8 2 1.4 4.7-2.4 2-3.8-.8-1-3.8-.9 3.9-3.8 3.4-.8 2.9-1.1 1.7-4.1 2-3.7 3.4-2 2.2 2.7.4 4.5-2 2.9-1.7 1.6-.3 2.6.6 1.7-.9 2.8-.8 4.7-.8.3-1.8-.3.1-1.7.3-1.8-.6 2.3-2.1 1.9-.7 3.9-.9 4.6-.9 1.8 1.2 1.9-1.4 1.9-.8.9.4.1.1 6.7-4.2 2.7-1.2h17l1-1.6 1.7-.3 2.5-.9 2.7-2.8 3.2-4.9 5.5-4.7 1.1 1.7 3.7-1.1 1.5 1.8-2.8 8.5 2.1 3.5 5.9-.8 8.1-.2-10.4 5.1-1.5 5.2 3.7.5 7.1-4.5 5.8-2.4 12.2-3.7 7.5-4.1-2.6-2.2 1-4.5-7.1 7-8.6.8-5.5-3.1-.1-4.6.6-6.8 6.1-4.1-3.3-3.1-7.6.6-12.1 5.2-10.9 8.2-4.6 1 7.8-5.7 10.1-8.3 7.2-2.7 5.7-4.4 5.2-.5 7.3.1 10 1.3 8.6-1 7.8-5.1 8.7-2.2 4.2-2.1 4.2-2.3 2-6.8-1.1-2.3-3.4-.8v-5.1l-2.3-1.9-6.9-1.6-2.8-3.4-4.8-3.4 3.4-3.7-2-7.1-2.6-7.5-1-5.2-4.3 2.7-7.4 6.5-8.1 3.2-1.6-3.4-3.7-1 2.2-7.3 2.6-4.9-7.7-.5-.1-2.2-3.6-3.3-3-2-4.5 1.5-4.2-.5-6.6-1.6-3.9 1.3-3.8 9-1 5.3-8.8 6.1 3.1 4.5.5 5-1.7 4-4.7 4.1-7.5 4.2-9 2.8 1.7 3.2-2.2 9.6-5.6 6.3-4.6 1.9-4.4-5.8-.1-6.8 1.7-6 3.6-5.2-4.8-.6-7.5-.4-3.6-2.5-4.8-1.6-1.7-2.9-3.3-2.2-7-2.6-7.1 1.2.7-4.5 1.5-5.5-6-1 4.9-6.8 4.9-4.6 9.4-6.5 8.6-4.6 5.6-.7 2.9-3.7 5.1-2.4 6.4-.4 7.7-3.8 2.9-2.4 7.4-4.7 3.2-2.8 3.2 1.7 6.5-.9L463 100l2.3-2.7-.8-2.9 5-2.9 1.7-2.7-3.5-2.6-5.4-.8-5.5-.4-4.6 5.9-6.5 4.6-7.2 4-1.3-3.7 4.2-4-2.2-3.5-8.7 4.2 4.3-5.5zm-75.5-18.9l-2.8-1-14.1 3.2-5.1 2-7.8 3.9 5.4 1.4 6.2-.1-11.5 2.1v1.9l5.6.1 9-.4 6.5 1.2-6.2 1-5.5-.3-7.1.9-3.3.6.6 4.2 4.2-.6 4.1 1.5-.3 2.5 7.8-.5 11.2-.8 9.4-1.8 5-.4 5.7 1.5 6.7.8 3.1-1.9-.7-2.1 7-.4 2.6-2.4-5-2.5-4.2-2.6 2.4-3.6 2.7-5.1-2.2-2-3-.9-4.2.8-2.8 5.3-4.3 2.1 2.2-5.1-1.7-1.7-7.3 2.7L365 69l-10.4 1.5 4.7-2.4zm39.1-1.5l-1.7-1.1-5.4.2-2.1.7 2.2 3.6 7-3.4zm107.7 1.6l-4.4-2.8-8.4-.5-2.1.3-1.7 1.8 2 2.8.9.3 4.8-.7 4.1.1 4.1.1.7-1.4zm-39.4-.3l5.7-3.2-11.2 1.3-5.8 2.1-7.1 4.6-3.3 5.2 5.6.1-6.1 2.3 1.8 1.9 5.9.8 7.3 1.5 13.8 1.2 7.9-.6 3.2-1.6 2 1.8 3.3.3 2 3.3-3.5 1.4 7.1 1.8 4.6 2.6.5 1.9-.4 2.4-8.6 5.4-3.2 2.7.2 2-9.2.7-8 .1-5.4 4.2 2.4 1.9 13-.9.9-1.6 4.7 2.7 4.7 2.9-2.4 1.6 3.8 2.8 7.6 3.3 10.7 2.3.3-2-2.8-3.5-3.5-4.9 8.5 4.6 4.7 1.5 3.6-4.1v-5.6l-1-1.5-4.4-2.5-2.7-3.3 2.3-3.2 5.8-.7 3.8 5.4 4 2.4 10.7-6.5 3.3-3.9-6.4-.3-3.2-5.1-5.9-1.2-7.7-3.5 9-2.5-.8-5-2.2-2.1-8.3-2.1-1.9-3.3-8.2 1.2 1.1-2.3-3.6-2.5-6.8-2.6-5.2 2.1-9 1.5 3.3-3.4-2.3-5.3-11.6 2.1-7.1 4.1-.3-3.2zm-50-3.4l-7.1 2.4.9 3.4-7.4-.7-1.7 1.7 5.8 3.9.9 2 3.4.5 8.4-2L425 71l-3.8-2.2 6-2.4.5-1.5-7.5.6-3.5-1zm22.3 5.4l5.6-1 10-4.5-6.1-1.2-7.8-.2-5.2 1.4-4.2 2.1-2.5 2.6-1.8 4.5 4.3.2 7.7-3.9zm-114.7 7.2l2.6-2.3 9.1-3.6 13.8-3.6 6.4-1.3-1.6-2.1-1.9-1.5-9.4-.2-4.1-1.1-14 .8-.3 3.1-7.6 3.3-7.4 3.8-4.3 2.2 5.9 2.7-.6 2.3 13.4-2.5zm124.1-18.3l.3-1.6-1.4-1.7-6.9 1.3L436 59l3.2 1.3 5.1.4 4.1-1.9zm-8.7-8.6l-1.1.7-4.8-.3-7.6 1.6-3.8-.1-4.3 3.8 6.6-.4-3.4 2.9 3.2.8 6.8-.5 5.8-3.7 2.8-2.5-.2-2.3zm-39.1 2.5l1.8-2.3-3.1-.5-5.7 1.7-.7 4.7-6.1-.4L384 53l-8.2-1.6-5.4 1.4-11.6 4.8 4.1.8 17.8-.5-10.6 2.2-1.5 1.6 5.9-.1 12.2-2.2 13.8-.8 5.1-2.3 2.3-2.4-3.7-.2-4.3.8.7-1.8zm55.2-4.3l-7.1-.3-3.8 2 2.6 1.5 7 .6 1.4 2.1-2.2 2.4-1.5 2.8 8.5 1.6 5.5.6 8-.1 11.6-.8 4.3.6 6.7-1 3.5-1.4 1-2-2.3-1.9-5.8-.3-8 .4-7 1.1-5.1-.4-4.8-.3-1.2-1.1-3.1-1.1 2.8-1.9-1.4-1.6-7.3.1-2.3-1.6zm-75-2.6l-6 .7-5.5-.1-12.1 3.1-11.6 3.7 3.6 1 7-.7 9.8-2.1 3.8-.3 5.2-1.6 5.8-3.7zm80.5.6l1-.5-1.5-.9-7.2-.1-.6 1.3 6.4.3 1.9-.1zm-58.4-.8l3.2-1.4-4.1-.8-5.9.5-5.1 1.5 3.3 1.5 8.6-1.3zm7.8-4.2l-3.3-.9-1.6-.2-5.7 1.3-1 .7h6l5.6-.9zm46.4 2.5l3-1.7-2.3-1.6-1.7-.3-4.4-.1-2.1 1.8-.7 1.8 1.6 1.1 6.6-1zm-13.7-1.2l.1-2.2-7.4-1.7-6.1-.6-2.1 1.7 2.8 1.1-5.3 1.4 7.7.2 4 1.5 5.2.5 1.1-1.9zm53.7-6.1l.6-2.8-4.7-.8-4.7-.9-1.6-2.2-8.2.2.3.9-3.9.3-4.1 1.3-4.9 1.9-.3 1.9 2 1.5h6.5l-4.3 1.2-2.1 1.6 1.6 1.9 6.7.6 6.8-.4 10.5-3.4 6.4-1.3-2.6-1.5zm78.5-13.8l-7-.2-6.9-.3-10.2.6-1.4-.4-10.3.2-6.4.4-5.1.6-5 2-2.3-1-3.9-.2-6.7 1.4-7.4.6-4.1.1-6 .8-1.1 1.3 2.5 1.2.8 1.6 4.4 1.5 12.4-.3 7.2.5-7.2 1.5-2.2-.4-9.3-.2-1.1 2.2 3 1.7-2.8 1.6-7.5 1.1-4.9 1.7 4.8.9 1.7 3-7.5-2-2.5.3-2 3.4-8 1.1-2 2.3 6.7.3 4.9.6 11.7-.8 8.4 1.4 12.6-3 1-1.1-6.4.2.5-1.1 6.5-1.4 3.6-1.9 6.8-1.3 5-1.6-.8-2.2 3.3-.8-4.3-.6 11.1-.4 3.2-.9 7.9-.8 9.3-3.5 6.8-1.1 10.3-2.5h-7.4l3.9-.9 9-.8 9.7-1.6 1.1-1.1-5.2-1-6.7-.4-8.5-.3zm274.7 192.8l-5.4-1.9-1 1.4h-4.2l-1.3 1-2.3-.6.2 1.6-3.5 3.5v2.8l2.4-.9 1.8 2.7 2.2 1.3 2.4-.3 2.7-2.1.9 1 2.4-.2.9-2.5 3.8.8 2.1-1.1.3-2.5-2.6-.2-2.3-1.1.7-1.6-.2-1.1zM474.4 850.2l-3.7-.7-3.3 2.5.2 4.1-1.2 2.8-7.2-2.2-8.6-4-4.5-1.3 9.7 6.8 6.3 3.2 7.5 3.4 5.3.9 4.3 1.8 3 .5 2.3.1 3.2-1.8.5-2.4-2.9-.2h-5l-5.9-13.5zm-47.3-196.3l-3.7-7.1 1.1-6.2-3.2-2.7-1.2-4.6-3.1-4.3-1.2 3.3-2.7 1.6 2.1 9 1.5 10.4-.1 14.2v13.2l.9 12.3-1.9 7.8 2.1 7.8-.5 5.3 3.2 9.5-.1 9.5-1.2 10.2-.6 10.5-2.1.2 2.4 7.3 3.3 6.3-1.1 4.3 1.9 11.6 1.5 8.8 3.5.9-1.1-7.7 4 1.6 1.8 12.7-6.4-2.1 2 10.2-2.7 5.5 8.2 1.8-3.4 4.8.2 6 5 10.6 4.2 4.1.2 3.6 3.3 3.8 7.5 3.5 7.4 4.2 6.2 2 2-.1-1.8-5.7 3.4-2.2 1.7-1.5h4.2l-4.8-.9-12-.8-3.5-3.6-1.8-4.6-3.1.4-2.6-2.2-3.1-6.6 2.7-2.7.1-3.9-1.8-3.2.7-5.3-1.1-8.2-1.8-3.7 1.8-1.1-1.3-2.3-2.8-1.3.8-2.6-3.1-2.3-3.6-7.1 1.6-1.2-3.3-7.6-.7-6.4-.3-5.7 2.5-2.4-3.3-6.3-1.5-5.9 2.9-4.3-1.4-5.4 1.6-6.2-1.3-5.9-1.6-1.2-4.9-10.9 2.1-6.5-1.7-6.2.9-5.8 2.6-5.9 3.2-4-2-2.5.9-2-1.6-10.6 5.6-3.2 1.1-6.6-.9-1.6-3.8.9-3.1-8.8zm986.1-255.6l.6-3.6 2-2.8-1.6-2.5-3.2-.1-5.8 1.8-2.2 2.8 1 5.5 4.9 2 4.3-3.1zm13.2-196.5l-6.1-6.1-4.4-3.7-3.8-2.7-7.7-6.1-5.9-2.3-8.5-1.8-6.2.2-5.1 1.1-1.7 3 3.7 1.5 2.5 3.3-1.2 2 .1 6.5 1.9 2.7-4.4 3.9-7.3-2.3.6 4.6.3 6.2 2.7 2.6 2.4-.8 5.4 1 2.5-2.3 5.1 2 7.2 4.3.7 2.2-4.3-.7-6.8.8-2.4 1.8-1.4 4.1-6.3 2.4-3.1 3.3-5.9-1.3-3.2-.5-.4 4 2.9 2.3 1.9 2.1-2.5 2-1.9 3.3-4.9 2.2-7.5.2-7.2 2.2-4.4 3.3-3.2-2-6.2.1-9.3-3.8-5.5-.9-6.4.8-11.2-1.3-5.5.1-4.7-3.6-4.9-5.7-3.4-.7-7.9-3.8-7.2-.9-6.4-1-3-2.7-1.3-7.3-5.8-5-8.1-2.3-5.7-3.3-3.3-4.4-1.7.5-1.8 4.2-3.8.6 2.5 6.2-1.6 2.8-10.7-2 1 11.1-2 1.4-9 2.4 8.7 10.7-2.9 1.6 1.7 3.5-.2 1.4-6.8 3.4-1 2.4-6.4.8-.6 4-5.7-.9-3.2 1.2-4 3 1.1 1.5-1 1.5 3 5.9 1.6-.6 3.5 1.4.6 2.5 1.8 3.7 1.4 1.9 4.7 3 2.9 5 9.4 2.6 7.6 7.5.8 5.2 3 3.3.6 3.3-4.1-.9 3.2 7 6.2 4 8.5 4.4 1.9-1.5 4.7 2 6.4 4.1 3.2.9 2.5 3.1 4.5 1.2 5 2.8 6.4 1.5 6.5.6 3-1.4 1.5 5.1 2.6-4.8 2.6-1.6 4.2 1.5 2.9.1 2.7 1.8 4.2-.8 3.9-4.8 5.3-4 4.9 1.5 3.2-2.6 3.5 3.9-1.2 2.7 6.1.9 3-.4 2.7 3.7 2.7 1.5 1.3 4.9.8 5.3-4.1 5.3.7 7.5 5.6-1 2.3 5.8 3.7 1.3-.8 5.2 4.5 2.4 2.5 1.2 3.8-1.8.6 2.6.7 1.5 2.9.1-1.9-7.2 2.7-1 2.7-1.5h4.3l5.3-.7 4.1-3.4 3 2.4 5.2 1.1-.2 3.7 3 2.6 5.9 1.6 2.4-1 7.7 2-.9 2.5 2.2 4.6 3-.4.8-6.7 5.6-.9 7.2-3.2 2.5-3.2 2.3 2.1 2.8-2.9 6.1-.7 6.6-5.3 6.3-5.9 3.3-7.6 2.3-8.4 2.1-6.9 2.8-.5-.1-5.1-.8-5.1-3.8-2-2.5-3.4 2.8-1.7-1.6-4.7-5.4-4.9-5.4-5.8-4.6-6.3-7.1-3.5.9-4.6 3.8-3.2 1-3.5 6.7-1.8-2.4-3.4-3.4-.2-5.8-2.5-3.9 4.6-4.9-1.9-1.5-2.9-4.7-1-4.7-4.4 1.2-3 5-.3 1.2-4.1 3.6-4.4 3.4-2.2 4.4 3.3-1.9 4.2 2.3 2.5-1.4 3 4.8-1.8 2.4-2.9 6.3-1.9 2.1-4 3.8-3.4 1-4.4 3.6 2 4.6.2-2.7-3.3 6.3-2.6-.1-3.5 5.5 3.6-1.9-3.1 2.5-.1-3.8-7.3-4.7-5.3 2.9-2.2 6.8 1.1-.6-6-2.8-6.8.4-2.3-1.3-5.6-6.9 1.8-2.6 2.5h-7.5l-6-5.8-8.9-4.5-9.9-1.9zM772.5 451.2l-2.3.9-1.3.8-.9-2.7-1.6.7-1-.1-1 1.9-4.3-.1-1.6-1-.7.6-1.1.5-.5 2.2 1.3 2.6 1.3 5.1-2 .8-.6.9.4 1.2-.3 2.8h-.9l-.3 1.8.6 3.1-1.2 2.8 1.6 1.8 1.8.4 2.3 2.7.2 2.5-.5.8-.5 5.2 1.1.2 5.6-2.4 3.9-1.8 6.6-1.1 3.6-.1 3.9 1.3 2.6-.1.2-2.5-2.4-5.5 1.5-7.2 2.3-5.3-1.4-9.1-3.8-1.6-2.7.2-1.9 1.6-2.5-1.3-1-2.1-2.5-1.4z" fill="#000" fill-opacity=".12" stroke="#000" stroke-opacity=".04" stroke-linejoin="round"/><path fill-rule="evenodd" clip-rule="evenodd" d="M886.1 447.9l.2-4.3-.5-4.2-2.2-4.1-1.6.4-.2 2 2.3 2.6-.6 1.1-.3 2.1-4.6 5-1.5 4-.7 3.3-1.2 1.4-1.1 4.5-3 2.6-.8 3.2-1.2 2.6-.5 2.6-3.9 2.2-3.2-2.6-2.1.1-3.3 3.7-1.6.1-2.7 6.1-1.4 4.5v1.8l1.4.9 1.1 2.8 2.6 1.1 2.2 4.2-.8 5 9.2.2 2.6-.4 3.4.8 3.4-.8.7.3 7.1.3 4.5 1.7 4.5 1.5.4-3.5-.6-1.8-.3-2.9-2.6-2.1-2.1-3.2-.5-2.3-2.6-3.3.4-1.9-.6-2.7.4-5 1.4-1.1 2.7-6.5.9-1.7-1.8-4.4-.8-2.6-2.5-1.1-3.3-3.7 1.2-3 2.5.6 1.6-.4 3.1.1-3.1-5.8zm64.8 36.5l-4.3-.7-2 .6-.9 1.5-1.8.2-2.2-1.3-6.2 3.1-2.6-.6-.8.5-1.6 3.8-4.2-1.2-4.1-.6-3.6-2.4-4.6-2.1-3 2-2.2 3.2-.5 4.5-.3 3.8-1.6 3.4-1.1 4-.7 5.6.3 3.6-.9 2.2-.2 2.4-.6 2-3.7 3.1-2.6 3.2-2.5 6.2.2 5.3-1.4 2-3.3 3.1-3.4 4-2-1.1-.4-1.8-3.1-.1-1.9 2.4-1.5-.6-2 1.3-.9 1.7-.2 2.7-1.5.7.8 2 2.3-.9 1.7.1 1.9-.7 16.6.1 1.3 4.7 1.6 3.8 1.3 2.1 2.1 3.3 3.7-.5 1.9-.9 3 .9.9-1.6 1.5-3.7 3.4-.3.3-1.1h2.9l-.5 2.3h6.8v4l1.2 2.4-.9 3.8.3 4 1.9 2.3-.5 7.6 1.4-.6 2.4.2 3.5-1 2.6.4 1.9.1.3 2 2.6-.1 3.5.6 1.8 2.8 4.5.9 3.4-2 1.2 3.4 4.3.8 2 2.8 2.1 3.5h4.3l-.3-6.9-1.5 1.2-3.9-2.5-1.4-1.1.8-6.4 1.2-7.5-1.2-2.8 1.6-4.1 1.6-.7 7.5-1.1 1 .3.2-1.1-1.5-1.7-.7-3.5-3.4-3.5-1.8-4.5 1-2.7-1.5-3.6 1.1-10.2.1.1-.1-1.1-1.4-2.9.6-3.5.8-.4.2-3.8 1.6-1.8.1-4.8 1.3-2.4.3-5.1 1.2-3 2.1-3.3 2.2-1.7 1.8-2.3-2.3-.8.3-7.5-5-4.2-1.4-2.7-3.1 1.3-2.6-.4-1.5 1.1-2.5-.8-3.5-5.2-1.8.6-3.6-.1z" fill="#000" fill-opacity=".08" stroke="#000" stroke-opacity=".04" stroke-linejoin="round"/><path fill-rule="evenodd" clip-rule="evenodd" d="M906.3 494.9l-3.6-.4-3.8-1.1-3.3 3.4-2.9 5.9-.4 3.5-4.5-1.5-4.5-1.7-7.1-.3-.4 2.8 1.5 3.3 4.2-.5 1.4 1.2-2.4 7.4 2.7 3.8.6 4.9-.8 4.3-1.7 3-4.9-.3-3-3-.5 2.8-3.8.8-1.9 1.6 2.1 4.2-4.3 3.5 4.6 6.7 2.2-2.7 1.8-1.1 2 2.2 1.5.6 1.9-2.4 3.1.1.4 1.8 2 1.1 3.4-4 3.3-3.1 1.4-2-.2-5.3 2.5-6.2 2.6-3.2 3.7-3.1.6-2 .2-2.4.9-2.2-.3-3.6.7-5.6 1.1-4 1.6-3.4.3-3.8z" fill="#000" fill-opacity=".08" stroke="#000" stroke-opacity=".04" stroke-linejoin="round"/><path fill-rule="evenodd" clip-rule="evenodd" d="M404.3 442.2l1.2-2.1-1.3-1.7-2-.4-2.9 3.1-2.3 1.4-4.6 3.2-4.3-.5-.5 1.3-3.6.1-3.3 3-1.4 5.4-.1 2.1-2.4.7-4.4 4.4-2.9-.2-.7.9 1.1 3.8-1.1 1.9-1.8-.5-.9 3.1 2.2 3.4.6 5.4-1.2 1.6 1.1 5.9-1.2 3.7 2 1.5-2.2 3.3-2.5 4-2.8.4-1.4 2.3.2 3.2-2.1.5.8 2 5.6 3.6 1-.1 1.4 2.7 4.7.9 1.6-1 2.8 2.1 2.4 1.5 1.5-.6 3.7 3 1.8 3 2.7 1.7 3.4 6.7 4.2.8 3-1.7 2.1 1.1 3.3-.6 4.4 3-3.5 6.5 1.7.1 2.9 3.4 2.2-17.4.1-2.8-.9-3.6-2.5-2.4v-4.6l3.2-1 1.1.6.2-2.4-3.3-.7v-3.9l10.9.1 1.9-2.2 1.6 2 1 3.8 1.1-.8-1.7-6.4-1.4-2.2-2-1.4 2.9-3.1-.2-1.5-1.5-1.9-1-4.2.5-4.6 1.3-2.1 1.2-3.4-2-1.1-3.2.7-4-.3-2.3.7-3.8-5.5-3.2-.8-7.2.6-1.3-2.2-1.3-.6-.2-1.3.8-2.4-.4-2.5-1.1-1.4-.6-2.9-2.9-.5 1.8-3.7.9-4.5 1.8-2.4 2.2-1.8 1.6-3.2 3.7-1.1z" fill="#000" fill-opacity=".12" stroke="#000" stroke-opacity=".04" stroke-linejoin="round"/><path fill-rule="evenodd" clip-rule="evenodd" d="M335.1 447.6l-1.4 1.3-1.7-.4-.8-1.3-1.7-.5-1.4.8-3.5-1.7-.9.8-1.4 1.2 1.5.9-.9 2-.1 2 .7 1.3 1.7.6 1.2 1.8 1.2-1.6-.3-1.8 1.4 1.1.3 1.9 1.9.8 2.1 1.3 1.5 1.5.1 1.4-.7 1.1 1.1 1.3 2.9 1.4.4-1.2.5-1.3-.1-1.2.8-.7-1.1-1 .1-2.5 2.2-.6-2.4-2.7-2-2.6-1.2-3.4z" fill="#000" fill-opacity=".08" stroke="#000" stroke-opacity=".04" stroke-linejoin="round"/><path fill-rule="evenodd" clip-rule="evenodd" d="M365 372.3l-4.9-2.1-4.3-.1-4.7-.5-1.4.7-4.2.6-3 1.3-2.7 1.4-1.5 2.3-3.1 2 2.2.6 2.9-.7.9-1.6 2.3-.1 4.4-3.3 5.4.3-2.3 1.6 1.8 1.3 7 1 1.5 1.3 4.9 1.7 3.2-.2.8 3.6 1.7 1.8 3.5.4 2.1 1.7-4.1 3.5 7.9-.6 3.8.5 3.7-.3 3.8-.8.8-1.5-3.9-2.6-4-.3.6-1.7-3.1-1.3h-1.9l-3-2.8-4.2-4-1.8-1.5-5.2.8-1.9-2.4zm510.4-178.8l-2.1.6-1.4-.7-1.1 1.2-3.4 1.2-1.7 1.5-3.4 1.3 1 1.9.7 2.6 2.6 1.5 2.9 2.6 3.8 2 2.6-2.5 1.7-.5 4 1.9 2.3-.3 2.3 1.2.6-1.4 2.2.1 1.6-.6.1-.6.9-.3.2-1.4 1.1-.3.6-1.1h1.5l-2.6-3.1-3.6-.3-.7-2-3.4-.6-.6 1.5-2.7-1.2.1-1.7-3.7-.6-2.4-1.9z" fill="#000" fill-opacity=".12" stroke="#000" stroke-opacity=".04" stroke-linejoin="round"/><path fill-rule="evenodd" clip-rule="evenodd" d="M869.6 177.3l-2.4-1.9-5.5-2.4-2.5 1.7-4.7 1.1-.1-2.1-4.9-1.4-.2-2.3-3 .9-3.6-.8.4 3.4 1.2 2.2-3 3-1-1.3-3.9.3-.9 1.3 1 2-1 5.6-1.1 2.3h-2.9l1.1 6.4-.4 4.2 1 1.4-.2 2.7 2.4 1.6 7.1 1.2-2.3 4.2-.5 4.5h4.2l1-1.4 5.4 1.9 1.5-.3 2.6 1.7.6-1.6 4.4.3 3.4-1.2 2.4.2 1.7 1.3.4-1.1-1-4 1.7-.8 1.5-2.9-2.9-2.6-2.6-1.5-.7-2.6-1-1.9 3.4-1.3 1.7-1.5 3.4-1.2 1.1-1.2 1.4.7 2.1-.6-2.3-3.9.1-2.1-1.4-3.3-2-2.2 1.2-1.6-1.4-3.1z" fill="#000" fill-opacity=".12" stroke="#000" stroke-opacity=".04" stroke-linejoin="round"/><path fill-rule="evenodd" clip-rule="evenodd" d="M1043.8 444.2l-2.5-1.7 3.1-1.5.1-2.7-1.4-1.9-1.6 1.5-2.4-.5-1.9 2.8-1.8 3 .5 1.7.2 2 3.1.1 1.3-.5 1.3 1.1 2-3.4z" fill="#000" fill-opacity=".08" stroke="#000" stroke-opacity=".04" stroke-linejoin="round"/><path fill-rule="evenodd" clip-rule="evenodd" d="M861.9 166.2l-1.7-3-6.7 2 .9 2.5 5.1 3.4 2.4-4.9zm-8.6-5.1l-2.6-.9-.7-1.6 1.3-2-.1-3-3.6 1.6-1.5 1.7-4 .4-1.2 1.7-.7 1.6.4 6.1 2.1 3.4 3.6.8 3-.9-1.5-3 3.1-4.3 1.4.7 1-2.3zM405.6 402.4v1.8l1.4 1 2.6-4.4 2-.9.6 1.6 2.2-.4 1.1-1.2 1.8.3 2.6-.2 2.5 1.3 2.3-2.6-2.5-2.3-2.4-.2.3-1.9-3 .1-.8-2.2-1.4.1-3.1-1.6-4.4-.1-.8 1.1.2 3.5-.7 2.4-1.5 1.1 1.2 1.9-.2 1.8zM847 281.9l-3.6.4-2.2-1.5h-5.6l-4.9 2.6-2.7-1-8.7.5-8.9 1.2-5 2-3.4 2.6-5.7 1.2-5.1 3.5 2 4.1.3 3.9 1.8 6.7 1.4 1.4-1 2.5-7 1-2.5 2.4-3.1.5-.3 4.7-6.3 2.5-2.1 3.2-4.4 1.7-5.4 1-8.9 4.7-.1 7.5v.4l-.1 1.2 20.3 15.5 18.4 13.9 18.6 13.8 1.3 3 3.4 1.8 2.6 1.1.1 4 6.1-.6 7.8-2.8 15.8-12.5 18.6-12.2-2.5-4-4.3-2.9-2.6 1.2-2-3.6-.2-2.7-3.4-4.7 2.1-2.6-.5-4 .6-3.5-.5-2.9.9-5.2-.4-3-1.9-5.6-2.6-11.3-3.4-2.6v-1.5l-4.5-3.8-.6-4.8 3.2-3.6 1.1-5.3-1-6.2 1-3.3zM379.1 518.1l-2.4-1.5-2.8-2.1-1.6 1-4.7-.9-1.4-2.7-1 .1-5.6-3.6-3.9 2.5-3.1 1.4.4 2.6-2.2 4.1-1 3.9-1.9 1 1 5.8-1.1 1.8 3.4 2.7 2.1-2.9 1.3 2.8-2.9 4.7.7 2.7-1.5 1.5.2 2.3 2.3-.5 2.3.7 2.5 3.2 3.1-2.6.9-4.3 3.3-5.5 6.7-2.5 6-6.7 1.7-4.1-.8-4.9zm576.6-198.3l-5.5-1.9-5.3-1.7-7.1.2-1.8 3 1.1 2.7-1.2 3.9 2 5.1 1.3 22.7 1 23.4h65.3l-1-1.3-6.8-5.7-.4-4.2 1-1.1-5.3-7-2-3.6-2.3-3.5-4.8-9.9-3.9-6.4-2.8-6.7.5-.6 4.6 9.1 2.7 2.9 2 2 1.2-1.1 1.2-3.3.7-4.8 1.3-2.5-.7-1.7-3.9-9.2-2.5 1.6-4.2-.4-4.4-1.5-1.1 2.1-1.7-3.2-3.9-.8-4.7.6-2.1 1.8-3.9 2-2.6-1z" fill="#000" fill-opacity=".12" stroke="#000" stroke-opacity=".04" stroke-linejoin="round"/><path fill-rule="evenodd" clip-rule="evenodd" d="M1024.1 419l-3.2-3.1-1.8-5.9-3.7-7.3-2.6 3.6-4 1-1.6 2-.4 4.2-1.9 9.4.7 2.5 6.5 1.3 1.5-4.7 3.5 2.9 3.2-1.5 1.4 1.3 3.9.1 4.9 2.5 1.6 2.2 2.5 2.1 2.5 3.7 2 2.1 2.4.5 1.6-1.5-2.8-1.9-1.9-2.2-3.2-3.7-3.2-3.6-7.9-6z" fill="#000" fill-opacity=".08" stroke="#000" stroke-opacity=".04" stroke-linejoin="round"/><path fill-rule="evenodd" clip-rule="evenodd" d="M919.2 142.5l-5.5.9-5.4 1.6.9 3.4 3.3 2.1 1.5-.8.1 3.5 3.7-1 2.1.7 4.4 2.2h3.8l1.6-1.9-2.5-5.5 2.6-3.4-.9-1-4.6.2-5.1-1z" fill="#000" fill-opacity=".12" stroke="#000" stroke-opacity=".04" stroke-linejoin="round"/><path fill-rule="evenodd" clip-rule="evenodd" d="M1013.6 422l-1.5 4.7-6.5-1.3-.7 5.5-2.1 6.2-3.2 3.2-2.3 4.8-.5 2.6-2.6 1.8-1.4 6.7v.7l.2 5-.8 2-3 .1-1.8 3.6 3.4.5 2.9 3.1 1 2.5 2.6 1.5 3.5 6.9 2.9 1.1v3.6l2 2.1h3.9l7.2 5.4h1.8l1.3-.1 1.2.7 3.8.5 1.6-2.7 5.1-2.6 2.3 2.1h3.8l1.5-2 3.6-.1 4.9-4.5 7.4-.3 15.4-19.1-4.8.1-18.5-7.6-2.2-2.2-2.1-3.1-2.2-3.5 1.1-2.3-1.3-1.1-1.3.5-3.1-.1-.2-2-.5-1.7 1.8-3 1.9-2.8-2-2.1-2.5-3.7-2.5-2.1-1.6-2.2-4.9-2.5-3.9-.1-1.4-1.3-3.2 1.5-3.5-2.9z" fill="#000" fill-opacity=".08" stroke="#000" stroke-opacity=".04" stroke-linejoin="round"/><path fill-rule="evenodd" clip-rule="evenodd" d="M919.4 89.4l.8-3.8-5.7-2.1-5.8 1.8-1.1 3.9-3.4 2.4-4.7-1.3-5.3.3-5.1-2.9-2.1 1.4 5.9 2.7 7.2 3.7 1.7 8.4 1.9 2.2 6.4 2.6.9 2.3-2.6 1.2-8.7 6.1-3.3 3.6-1.5 3.3 2.9 5.2-.1 5.7 4.7 1.9 3.1 3.1 7.1-1.2 7.5-2.1 8-.5 7.9-7.4 3.3-3.3.9-2.9-7.3-3.9.9-3.7-4.9-4.1 1.7-4.8-6.4-6.3 2.8-4.1-7.2-3.7-.4-3.7zm868.3 530l-3.7 2-1.9.3-3.1 1.3.2 2.4 3.9-1.3 3.9-1.6.7-3.1zm-11 8.1l-1.6 1-2.3-.8-2.7 2.2-.2 2.8 2.9.8 3.6-.9 1.8-3.3-1.5-1.8z" fill="#000" fill-opacity=".12" stroke="#000" stroke-opacity=".04" stroke-linejoin="round"/><path fill-rule="evenodd" clip-rule="evenodd" d="M876.2 502.7l-.7-.3-3.4.8-3.4-.8-2.6.4v7.6h-8.2l-1.9.3-1.1 4.8-1.3 4.6-1.3 2-.2 2.1 3.4 6.6 3.7 5.3 5.8 6.4 4.3-3.5-2.1-4.2 1.9-1.6 3.8-.8.5-2.8 3 3 4.9.3 1.7-3 .8-4.3-.6-4.9-2.7-3.8 2.4-7.4-1.4-1.2-4.2.5-1.5-3.3.4-2.8z" fill="#000" fill-opacity=".08" stroke="#000" stroke-opacity=".04" stroke-linejoin="round"/><path fill-rule="evenodd" clip-rule="evenodd" d="M776 172.5l-4.9-3.7-3.9.3.8 3.2-1.1 3.2 2.9-.1 3.5 1.3 2.7-4.2zm13-24.3l-5.5.5-3.6-.4-3.7 4.8-1.9 6.1 2.2 3 .1 5.8 2.6-2.8 1.4 1.6-1.7 2.7 1 1.6 5.7 1.1h.1l3.1 3.8-.8 3.5-7.1-.6-1 4 2.6 3.3-5.1 1.9 1.3 2.4 7.5 1-4.3 1.3-7.3 6.5 2.5 1.2 3.5-2.3 4.5.7 3.3-2.9 2.2 1.2 8.3-1.7 6.5.1 4.3-3.3-1.9-3.1 2.4-1.8.5-3.9-5.8-1.2-1.3-2.3-2.9-6.9-3.2-1-4.1-7.1-.4-.6-4.8-.4 4.2-5.3 1.3-4.9h-5l-4.7.8 5-6.4z" fill="#000" fill-opacity=".12" stroke="#000" stroke-opacity=".04" stroke-linejoin="round"/><path fill-rule="evenodd" clip-rule="evenodd" d="M1026 245.2l-7.5-2.9-7.7-1-4.5-1.1-.5.7 2.2 1.9 3 .7 3.4 2.3 2.1 4.2-.3 2.7 5.4-.3 5.6 3 6.9-1 1.1-1 4.2 1.8 2.8.4.6-.7-3.2-3.4 1.1-.9-3.5-1.4-2.1-2.5-5.1-1.3-2.9 1-1.1-1.2z" fill="#000" fill-opacity=".08" stroke="#000" stroke-opacity=".04" stroke-linejoin="round"/><path fill-rule="evenodd" clip-rule="evenodd" d="M802.8 447.1l-2.6-.5-1.8 1-2.4-.5-9.7.3-.2 3.6.8 4.8 1.4 9.1-2.3 5.3-1.5 7.2 2.4 5.5-.2 2.5 5 1.8 5-1.9 3.2-2.1 8.7-3.8-1.2-2.2-1.5-4-.4-3.2 1.2-5.7-1.4-2.3-.6-5.1.1-4.6-2.4-3.3.4-1.9zm-64.4-9.1l-.8.4-3-.5-.4.7-1.3.1-4-1.5-2.7-.1-.1 2.1-.6.7.4 2.1-.8.9h-1.3l-1.4 1-1.7-.1-2.6 3.1 1.6 1.1.8 1.4.7 2.8 1.3 1.2 1.5.9 2.1 2.5 2.4 3.7 3-2.8.7-1.7 1-1.4 1.5-.2 1.3-1.2h4.5l1.5 2.3 1.2 2.7-.2 1.8.9 1.7v2.3l1.5-.3 1.2-.2 1.5-.7 2.3 3.9-.4 2.6 1.1 1.3 1.6.1 1.1-2.6 1.6.2h.9l.3-2.8-.4-1.2.6-.9 2-.8-1.3-5.1-1.3-2.6.5-2.2 1.1-.5-1.7-1.8.3-1.9-.7-.7-1.2.6.2-2.1 1.2-1.6-2.3-2.7-.6-1.7-1.3-1.4-1.1-.2-1.3.9-1.8.8-1.6 1.4-2.4-.5-1.5-1.6-.9-.2-1.5.8h-.9l-.3-2.3z" fill="#000" fill-opacity=".12" stroke="#000" stroke-opacity=".04" stroke-linejoin="round"/><path fill-rule="evenodd" clip-rule="evenodd" d="M708.8 433.5l5 .1 1.4-.9h1l2.1-1.5 2.4 1.4 2.4.1 2.4-1.5-1.1-1.8-1.8 1.1-1.8-.1-2.1-1.5-1.8.1-1.3 1.5-6.1.2-.7 2.8zm17.4 3.6l-10.3-.3-1.5.7-1.8-.2-3 1.1.3 1.3 1.7 1.4v.9l1.2 1.8 2.4.5 2.9 2.6 2.6-3.1 1.7.1 1.4-1h1.3l.8-.9-.4-2.1.6-.7.1-2.1zm139.9 65.7l-9.2-.2-1.9 7.2 1 .9 1.9-.3h8.2v-7.6z" fill="#000" fill-opacity=".08" stroke="#000" stroke-opacity=".04" stroke-linejoin="round"/><path fill-rule="evenodd" clip-rule="evenodd" d="M927.9 289.9l-.8 2.8 6.6 1.2v1.1l7.6-.6.5-1.9-2.8.8v-1.1l-3.9-.5-4.1.4-3.1-2.2zm11.5-37.4l-2.7-1.6.3 3-4.6.6-3.9-2.1-3.9 1.7-3.8-.2-1 .2-.7 1.1-2.8-.1-1.9 1.3-3.3.6v1.6l-1.6.9-.1 2.1-2.1 3 .5 1.9 2.9 3.6 2.3 3 1.3 4.3 2.3 5.1 4.6 2.9 3.4-.1-2.4-5.7 3.3-.7-1.9-3.3 5 1.7-.4-3.7-2.7-1.8-3.2-3 1.8-1.4-2.8-3-1.6-3.8.9-1.3 3 3.2h2.9l2.5-1-3.9-3.6 6.1-1.6 2.7.6 3.2.2 1.1-.7 1.2-3.9zm-226-231.2l-26-.4-11.8.3-5 1.3-11.5-.1-12.7 2.1-1.6 1.7 6.7 2.1-6.2-1.3-4.5-.3-7-1.4-10.6 2.1-2.7-1.2h-10.4l-10.9.6-8.9 1-.2 1.8-5.3.5-14.6 2.9-4.6 1.7 8.1 1.5-2.8 1.6L556 40l-15.5 2.2-2.2 1.7 6.4 2 14.5 1.2-7.5.2-10.9 1.5 3.8 3.1 3 1.5 9.4-.3 10.1-.2 7.6.3 8 2.9-1.4 2.1 3.6 1.9 1.4 5.3 1 3.6 1.4 1.9-7 4.8 2.6 1.3 4.4-.8 2.6 1.8 5.3 3.4-7.5-1.4h-3.8l-3 2.8-1.5 3.6 4.2 1.8 4-.8 2.6-.8 5.5-1.9-2.8 4.2-2.6 2.3-7.1 2-7 6.3 2 2-3.4 4 3.7 5.2-1.5 5 .7 3.7 4.8 7.1.8 5.6 3.1 3.2h8.9l5 4.7 6.5-.3 4.1-5.7 3.5-4.8-.3-4.4 8.6-4.6 3.3-3.7 1.4-3.9 4.7-3.5 6.5-1.3 6.1-1.4 3-.2 10.2-3.9 7.4-5.7 4.8-2.1 4.6-.1 12.5-1.8 12.1-4.3 11.9-4.6-5.5-.3-10.6-.2 5.3-2.8-.5-3.6 4.2 3 2.7 2.1 7.3-1-.6-4.3-4.5-3.1-5-1.3 2.4-1.4 7.2 2.1.5-2.3-4.1-3.4h5.4l5.6-.8 1.7-1.8-4-2.1 8.6-.3-4-4.3 4.1-.5.1-4.2-6.2-2.5 6.4-1.6 5.8-.1-3.6-3.2 1.1-5.1 3.6-2.9 4.9-3.2-8-.2 11.3-.7 2.2-1 14.6-2.9-1.6-1.7-10-.8-16.9 1.5-9.2 1.5 4.5-2.3-2.3-1.4-7 1.2-9.7-1.4-12.1.5-1.4-.7 18.3-.4 12.9-.2 6.6-1.4-19.7-2.9z" fill="#000" fill-opacity=".12" stroke="#000" stroke-opacity=".04" stroke-linejoin="round"/><path fill-rule="evenodd" clip-rule="evenodd" d="M308.8 403.9l-5.1-.1h-5.2l-.4 3.6h-2.6l1.8 2.1 1.9 1.5.5 1.4.8.4-.4 2.1H293l-3.3 5.2.7 1.2-.8 1.5-.4 1.9 2.7 2.6 2.5 1.3 3.4.1 2.8 1.1.2-1 2.1-1.6 1.1-.7-.2-.7 1.4-.4 1.3-1.6-.3-1.3.5-1.2 2.8-1.8 2.8-2.4-1.5-.8-.6.9-1.7-1.1h-1.6l1.2-7.2.7-5zm173.3 75.3l-2.1-2.3-2.9-3.1-2.1-.1-.1-3.3-3.3-4.1-3.6-2.4-4.6 3.8-.6 2.3 1.9 2.3-1.5 1.2-3.4 1.1v2.9l-1.6 1.8 3.7 4.8 2.9-.3 1.3 1.5-.8 2.8 1.9.9 1.2 3-1.6 2.2-1 5.4 1.4 3.3.3 2.9 3.5 3 2.7.3.7-1.3 1.7-.2 2.6-1.1 1.8-1.7 3.1.5 1.4-.2-3.3-5.6-.7-3.5-1.8-.1-2.4-4.6 1.1-3.3-.3-1.5 3.5-1.6 1-5.7z" fill="#000" fill-opacity=".08" stroke="#000" stroke-opacity=".04" stroke-linejoin="round"/><path fill-rule="evenodd" clip-rule="evenodd" d="M340.1 421.8l-1.3-1.8-1.9-1-1.5-1.4-1.6-1.2-.8-.1-2.5-.9-1.1.5-1.5.2-1.3-.4-1.7-.4-.8.7-1.8.7-2.6.2-2.5-.6-.9.4-.5-.6-1.6.1-1.3 1.1-.6-.2-2.8 2.4-2.8 1.8-.5 1.2.3 1.3-1.3 1.6 1.5.5 1.1 1.3 1.6 1 .1.9 2.5-.8 1.1.5.7.7-.6 2.5 1.7.6.7 2 1.8-.3.8-1.5h.8l.2-3.1 1.3-.2h1.2l1.4-1.7 1.5 1.3.6-.8 1.1-.7 2.1-1.8.3-1.3.5.1.8-1.5.6-.2.9.9 1.1.3 1.3-.8h1.4l2-.8.9-.9 1.9.2z" fill="#000" fill-opacity=".08" stroke="#000" stroke-opacity=".04" stroke-linejoin="round"/><path fill-rule="evenodd" clip-rule="evenodd" d="M891 225.4l-4-2.6-1.6-.8-3.9 1.7-.3 2.5-1.7.6.2 1.7-2-.1-1.8-1-.8 1-3.5-.2-.2.1v2.2l1.7 2 1.3-2.6 3.3 1 .3 2 2.5 2.6-1 .5 4.6 4.5 4.8 1.8 3.1 2.2 5 2.3.5-1-4.7-2.4-2.2-2.5-2-1.4-2.5-2.3-1.3-1.9-2.7-2.9.9-2.5 1.9 1.4 1-1.3 2.3-.1 4.4 1 3.5-.1 2.4 1.4 1.7-2.3-1.7-1.8-1.5-2.4-1.8.9-4.2-1.2z" fill="#000" fill-opacity=".12" stroke="#000" stroke-opacity=".04" stroke-linejoin="round"/><path fill-rule="evenodd" clip-rule="evenodd" d="M406.6 391.7l-4.6-1-3.4-.2-1.4 1.7 3.4 1-.3 2.4 2.2 2.8-2.1 1.4-4.2-.5-5-.9-.7 2.1 2.8 1.9 2.7-1.1 3.3.4 2.7-.4 3.6 1.1.2-1.8-1.2-1.9 1.5-1.1.7-2.4-.2-3.5z" fill="#000" fill-opacity=".08" stroke="#000" stroke-opacity=".04" stroke-linejoin="round"/><path fill-rule="evenodd" clip-rule="evenodd" d="M905.1 208.8l-1.6.4-1 1.5-2.2.7-.6-.4-2.3 1-1.9.2-.3 1.2-4.1.8-1.9-.7-2.6-1.6-.2 2.6h-2.8l1.1 1.3-1.3 4 .8.1 1.2 2.1 1.6.8 4 2.6 4.2 1.2 1.8-.9 3.7-1.6 3.2.2 3.8-1.1 2.6-4.3 1.9-4.2 2.9-1.3-.6-1.6-2.9-1.7-1 .6-5.5-1.9zm572.8 373.5l.5-1.7-1.8-1.9-2.8-2-5.3 1.3 7 4.4 2.4-.1zm20.9-.6l4-4.8.1-1.9-.5-1.3-5.7 2.6-2.8 3.9-.7 2.1.6.8 5-1.4zm-35.6-13l-1.6 2.2-3.1.1-2.2 3.6 3 .1 3.9-.9 6.6-1.2-1.2-2.8-3.5.6-1.9-1.7zm28.1 0l-5.2 2.3-3.8.5-3.4-1.9-4.5 1.3-.2 2.3 7.4.8 8.6-1.8 1.1-3.5zm-79.5-8.4l-.7-2.3-2.3-.5-4.4-2.4-6.8-.4-4.1 6.1 5.1.4.8 2.8 10 2.6 2.4-.8 4.1.6 6.3 2.4 5.2 1.2 5.8.5 5.1-.2 5.9 2.5 6.6-2.4-6.6-3.8-8.3-1.1-1.8-4.1-10.3-3.1-1.3 2.6-10.7-.6zm146.6-3.6l.2-3-1.2-1.9-1.3 2.2-1.2 2.2.3 4.8 3.2-4.3zm-41-17.5l-1.4-2.1-5.7.3 1 2.7 3.9 1.2 2.2-2.1zm18.1-2.4l-6.1-1.8-6.9.3-1.5 3.5 3.9.2 3.2-.4 4.6.5 4.7 2.6-1.9-4.9zm21-12.3l-.8-2.4-9-2.6-2.9 2.1-7.6 1.5 2.3 3.2 5 1.2 2.1 3.7 8.3.1.4 1.6-4-.1-6.2 2.3 4.2 3.1-.1 2.8 1.2 2.3 2.1-.5 1.8-3.1 8.2 5.9 4.6.5 10.6 5.4 2.3 5.3 1 6.9-3.7 1.8-2.8 5.2 7.1-.2 1.6-1.8 5.5 1.3 4.6 5.2 1.5-20.8 1-20.7-6-1.2-4.1-2.3-4.7-2.2h-5l-6.6 3.8-4.9 6.8-5.7-3.8-1.3-10.3zm-50-16.4l-1-1.4-5.5 4.6-6.5.3-7.1-.9-4.4-1.9-4.7 4.8-1.2 2.6-2.9 9.6-.9 5-2.4 4.2 1.6 4.3 2.3.1.6 6.1-1.9 5.9 2.3 1.9 3.6-1 .3-9.1-.2-7.4 3.8-1.9-.7 6.2 3.9 3.7-.8 2.5 1.3 1.7 5.6-2.4-3 5.2 2.1 2.2 3.1-1.9.3-4.1-4.7-7.4 1.1-2.2-5.1-8.1 5-2.5 2.6-3.7 2.4.9.5-2.9-10.5 2.1-3.1 2.9-5-5.6.9-4.8 4.9-1 9.3-.3 5.4 1.3 4.3-1.3 4.4-6.3zm19.4 1.9l-.6-2.6-3.3-.6-.5-3.5-1.8 2.3-1 5.1 1.7 8.2 2.2 4 1.6-.8-2.3-3.3.9-3.9 2.9.6.2-5.5zm-60.9-4.5l.9-2.9-4.3-6 3-5.8-5-1h-6.4l-1.7 7.2-2 2.2-2.7 8.9-4.5 1.3-5.4-1.8-2.7.6-3.2 3.2-3.6-.4-3.6 1.2-3.9-3.5-1-4.3-3.3 4.2-.6 5.9.8 5.6 2.6 5.4 2.8 1.8.7 8.5 4.6.8 3.6-.4 2 3.1 6.7-2.3 2.8 2 4 .4 2 3.9 6.5-2.9.8 2.3 2.5-9.7.3-6.4 5.5-4.3-.2-5.8 1.8-4.3 6.7-.8-6.5-5.9zm-68.7 48.9l.7-9.8 1.7-8-2.6-4-4.1-.5-1.9-3.6-.9-4.4-2-.2-3.2-2.2 2.3-5.2-4.3-2.9-3.3-5.3-4.8-4.4-5.7-.1-5.5-6.8-3.2-2.7-4.5-4.3-5.2-6.2-8.8-1.2-3.6-.3.6 3.2 6.1 7 4.4 3.6 3.1 5.5 5.1 4 2.2 4.9 1.7 5.5 4.9 5.3 4.1 8.9 2.7 4.8 4.1 5.2 2.2 3.8 7 5.2 4.5 5.3 6.2-.1zm-156.2-229.3l-8.5-4.4-6.2-4-3.2-7 4.1.9-.6-3.3-3-3.3-.8-5.2-7.6-7.5-3.7 5.4-5.7 1-8.5-1.6-1.9 2.8 3.2 5.6 2.9 4.3 5 3.1-3.7 3.7 1 4.5-3.9 6.3-2.1 6.5-4.5 6.7-6.4-.5-4.9 6.6 4 2.9 1.3 4.9 3.5 3.2 1.8 5.5h-12l-3.2 4.2 7.1 5.4 1.9 2.5-2.4 2.3 8 7.7 4 .8 7.6-3.8 1.7 5.9.8 7.8 2.5 8.1 3.6 12.3 5.8 8.8 1.3 3.9 2 8 3.4 6.1 2.2 3 2.5 6.4 3.1 8.9 5.5 6 2.2-1.8 1.7-4.4 5-1.8-1.8-2.1 2.2-4.8 2.9-.3-.7-10.8 1.9-6.1-.7-5.3-1.9-8.2 1.2-4.9 2.5-.3 4.8-2.3 2.6-1.6-.3-2.9 5-4.2 3.7-4 5.3-7.5 7.4-4.2 2.4-3.8-.9-4.8 6.6-1.3 3.7.1.5-2.4-1.6-5.2-2.6-4.8.4-3.8-3.7-1.7.8-2.3 3.1-2.4-4.6-3.4 1.2-4.3 4.8 2.7 2.7.4 1.2 4.4 5.4.9 5-.1 3.4 1.1-1.6 5.3-2.4.4-1.1 3.6 3.5 3.3.2-4 1.5-.1 4.5 10.1 2.4-1.5-.9-2.7.9-2.1-.9-6.6 4.6 1.4 1.5-5.2-.3-3.1 2.1-5.4-.9-3.6 6.1-4.4 4.1 1.1-1.3-3.9 1.6-1.2-.9-2.4-6.1-.9 1.2-2.7-3.5-3.9-3.2 2.6-4.9-1.5-5.3 4-3.9 4.8-4.2.8 2.7 2 .4 3.9-4.4.2-4.7-.4-3.2 1-5.5-2.5-.3-1.2-1.5-5.1-3 1.4.1 2.7 1.5 4.1-.1 2.5-4.6.1-6.8-1.5-4.3-.6-3.8-3.2-7.6-.9-7.7-3.5-5.8-3.1-5.7-2.5.9-5.9 2.8-2.9zM773.3 176.7l-3.5-1.3-2.9.1 1.1-3.2-.8-3.2-3.7 2.8-6.7 4.7 2.1 6.1-4.2 6.4 6.7.9 8.7-3.6 3.9-5.4-.7-4.3zm266.2 92.7l-3.2-2.9-1.2-2.4-3.3 1.8 2.9 7.3-.7 2 3.7 5.2 4.7 7.8 3.7 1.9 1 3.8-2.3 2.2-.5 5 4.6 6.1 7 3.4 3.5 4.9-.2 4.6h1.7l.5 3.3 3.4 3.4 1.7-2.5 3.7 2.1 2.8-1 5.1 8.4 4.3 6.1 5.5 1.8 6.1 4.9 6.9 2.1 5.1-3.1 4-1.1 2.8 1.1 3.2 7.8 6.3.8 6.1 1.5 10.5 1.9 1.2-7.4 7.4-3.3-.9-2.9-2.7-1-1-5.7-5.6-2.7-2.8-3.9-3.2-3.3 3.9-5.8-1.1-4-4.3-1.1-1.1-4-2.7-5.1 1.6-3.5-2.5-.9.5-4.7.5-8-1.6-5.5-3.9-.2-7.3-5.7-4.3-.7-6.5-3.3-3.8-.6-2.1 1.2-3.5-.2-3 3.7-4.4 1.2-.2 1.6-7.9 1.7-7.6-1.1-4.3-3.3-5.2-1.3-2.5-4.8-1.3.3-3.8-3.4 1.2-3.1-1.9-1.9-1.9.5-5.3 4.7-1.8.2-3.7-.9z" fill="#000" fill-opacity=".12" stroke="#000" stroke-opacity=".04" stroke-linejoin="round"/><path fill-rule="evenodd" clip-rule="evenodd" d="M1033.3 279.9l-6.2-.9-2.1 1-2.1 4.1-2.7 1.6 1.2 4.7-.9 7.8-11 6.7 3.1 7.7 6.7 1.7 8.5 4.5 16.7 12.7 10.2.5 3.2-6.1 3.7.5 3.2.4-3.4-3.4-.5-3.3h-1.7l.2-4.6-3.5-4.9-7-3.4-4.6-6.1.5-5 2.3-2.2-1-3.8-3.7-1.9-4.7-7.8-2.3 1.1-2.1-1.6zM741.7 103.6l-6.9-.4-7.3 2.9-5.1-1.5-6.9 3-5.9-3.8-6.5.8-3.6 3.7 8.7 1.3-.1 1.6-7.8 1.1 8.8 2.7-4.6 2.5 11.7 1.8 5.6.8 3.9-1 12.9-3.9 6.1-4.2-4.4-3.8 1.4-3.6zm252.1 201.9l-1.4.1-.4 1.1h-1.8l-.1.1-.6 1.6-.6 4.8-1.1 2.9.4.4-1.4 2.1 3.9 9.2.7 1.7 1.7-10.2-.4-2.4-2.4.8.1-1.7 1.2-.8-1.4-.7.7-4.3 2 .9.7-2h-.1l.6-1-.3-2.6zm-110-31.9l-4 .5-5.2.7-6.2-.6-.6 3.4 7.5 3.3 2.7.7 4.2 2.4.9-3.3-.9-2 1.6-5.1zm-33.7-18.9l-2.5 1.9-2.8-.3 1.3 3.6.4 7.6 2.1 1.7 2-2.1 2.4.4.4-8.4-3.3-4.4zm14.3-34.3l-1.3-2.2-4.8 1.1-.5 1.2-3.1-.9-.3 2.5-2.1 1.1-3.8-.8-.9 2.5-2.4.2-.9-1-2.7 2.1-2.4.3-2.2-1.3-.2 1.7 1.6 2.4-1.7 1.8 1.5 4.8 2.7.8-.5 2.7 2.1-.5 2.8-2.8 2.3-.9 4.2 2.1 2.6.7 1.9 6 3.6 3.6 4.9 4 4.2 2.8 3.9.4 2.3 2.5 3.4 1.2 1.7 2.7 2.2.8 1.8 3.2 2.3 3.7-1.1 1.3-.8 3.5.1 2 2.1-.5 2.5-5.6 2.1-.4.4-3.3-3.9-2.3 1.9-4.1 4.5 1 3.1 3 .8-2.3-.6-1.2-4.7-3.2-3.9-1.9-4.8-2.3 1.4-1.2-1.4-1.4-4 .1-6-5-2.9-5.1-4.9-3.1-1.9-3.1.5-1.8-.4-3 3.9-2.2 4.1.9-1.4-2.7.3-3-7.2-1.6z" fill="#000" fill-opacity=".12" stroke="#000" stroke-opacity=".04" stroke-linejoin="round"/><path fill-rule="evenodd" clip-rule="evenodd" d="M376.7 403.5l3.9-.1-.8-1.8-2.7-1.5-3.7-.6-1.2-.2-2.4.4-.8 1.5 2.9 2.3 3 1 1.8-1z" fill="#000" fill-opacity=".08" stroke="#000" stroke-opacity=".04" stroke-linejoin="round"/><path fill-rule="evenodd" clip-rule="evenodd" d="M1012.6 312.6l-3.1-7.7-9.6 6.7-6.3-2.5-.7 2 .4 3.9-.6 1.9.4 2.4-1.7 10.2.3.9 6.1 1 2.1-2 1.1-2.3 4-.8.7-2.2 1.7-1-6.1-6.4 10.4-3.1.9-1zm505.9-12.7l-4.5-1.3-1.1 2.7-3.3-.8-1.3 3.8 1.2 3 4.2 1.8-.1-3.7 2.1-1.5 3.1 2.1 1.3-3.9-1.6-2.2zm24.4-19.3l-3.6-6.7 1.3-6.4-2.8-5.2-8.1-8.7-4.8 1.2.2 3.9 5.1 7.1 1 7.9-1.7 2.5-4.5 6.5-5-3.1v11.5l-6.3-1.3-9.6 1.9-1.9 4.4-3.9 3.3-1.1 4-4.3 2 4 4.3 4.1 1.9.9 5.7 3.5 2.5 2.5-2.7-.8-10.8-7.3-4.7 6.1-.1 5-3 8.6-1.4 2.4 4.8 4.6 2.4 4.4-7.3 9.1-.4 5.4-3 .6-4.6-2.5-3.2-.6-5.2zm-11.8-44.2l-5.3-2.1-10.4-6.4 1.9 4.8 4.3 8.5-5.2.4.6 4.7 4.6 6.1h5.7l-1.6-6.8 10.8 4.2.4-6.1 6.4-1.7-6-6.9-1.7 2.6-4.5-1.3z" fill="#000" fill-opacity=".12" stroke="#000" stroke-opacity=".04" stroke-linejoin="round"/><path fill-rule="evenodd" clip-rule="evenodd" d="M1134.8 168.8l-9-1.3-3.1 2.5-10.8 2.2-1.7 1.5-16.8 2.1-1.4 2.1 5 4.1-3.9 1.6 1.5 1.7-3.6 2.9 9.4 4.2-.2 3-6.9-.3-.8 1.8-7.3-3.2-7.6.2-4.3 2.5-6.6-2.4-11.9-4.3-7.5.2-8.1 6.6.7 4.6-6-3.6-2.1 6.8 1.7 1.2-1.7 4.7 5.3 4.3 3.6-.2 4.2 4.1.2 3.2 2.8 1 4.4-1.3 5-2.7 4.7 1.5 4.9-.3 1.9 3.9.6 6-4.6-.9-4 1 .9 4.5-5-.6.6 2 3.2 1.6 3.7 5.5 6.4 2.1 1.5 2.1-.7 2.6.7 1.5 1.8-2 5.5-1.3 3.8 1.7 4.9 4.9 2.5-.3-6.2-22.8 11.9-3.6 1.1.5 9.1 4.5 4.8 2.3 6.5 5.5 5.7-.9 8.6-.5 7.5 4.5 1.5 6.2 2.5.1 2.6 5 6.6.2 2.3 3h1.9l.9-4.5 5.4-4.3 2.5-1.2.3-2.7 3.1-.8 9.1 2.1-.5-3.6 2.5-1.3 8.1 2.6 1.6-.7 8.6.2 7.8.6 3.3 2.2 3.5.9-1.7-3.5 2.9-1.6-8.7-10.7 9-2.4 2-1.4-1-11.1 10.7 2 1.6-2.8-2.5-6.2 3.8-.6 1.8-4.2-4.3-3.8-6 .9-3.3-2.6-3.9-1.2-4.1-3.6-3.2-1.1-6.2 1.6-8.3-3.6-1.1 3.3-18.1-15.5-8.3-4.7.8-1.9-9.1 5.7-4.4.4-1.2-3.3-7-2.1-4.3 1.5-4.3-6.3zm-97.1 323.4h-3.8l-2.3-2.1-5.1 2.6-1.6 2.7-3.8-.5-1.2-.7-1.3.1h-1.8l-7.2-5.4h-3.9l-2-2.1v-3.6l-2.9-1.1-3.8 4.2-3.4 3.8 2.7 4.4.7 3.2 2.6 7.3-2.1 4.7-2.7 4.2-1.6 2.6v.3l1.4 2.4-.4 4.7 20.2 13 .4 3.7 8 6.3 2.2-2.1 1.2-4.2 1.8-2.6.9-4.5 2.1-.4 1.4-2.7 4-2.5-3.3-5.3-.2-23.2 4.8-7.2z" fill="#000" fill-opacity=".08" stroke="#000" stroke-opacity=".04" stroke-linejoin="round"/><path fill-rule="evenodd" clip-rule="evenodd" d="M1213.2 247.6l-3.5-.9-3.3-2.2-7.8-.6-8.6-.2-1.6.7-8.1-2.6-2.5 1.3.5 3.6-9.1-2.1-3.1.8-.3 2.7 1.8.6-3.1 4.1 4.6 2.3 3.2-1.6 7.1 3.3-5.2 4.5-4.1-.6-1.4 2-5.9-1.1.6 3.7 5.4-.5 7.1 2 9.5-.9 1-1.5-1.1-1.5 4-3 3.2-1.2 5.7.9.6-4 6.4-.8 1-2.4 6.8-3.4.2-1.4zm187.6 179.2l-5.2-2.3-2 4.3-4.9-2.4-5.3-1-7.1 1.3-3 5.2 2.1 7.7 3.4 6.6 2.6 3.3 4.7.9 4.7-2.5 5.8-.5-2.8-3.8 8.9-4.9-.1-7.7-1.8-4.2z" fill="#000" fill-opacity=".08" stroke="#000" stroke-opacity=".04" stroke-linejoin="round"/><path fill-rule="evenodd" clip-rule="evenodd" d="M1463.3 276.7l6.2 5.5-3.4 1.1 5.2 6.8 1.1 4.8 2.1 3.5 4.5-.5 3.2-2.7 4.2-1.2.5-3.6-3.4-7.5-3.3-4.2-8.2-7.6.1 1.6-2.1.4-3.5.3-.7 2.9-2.4-.2-.1.6zm-401.7 49.7l-3.7-.5-3.2 6.1 4.9.6 1.7 3.1 3.8-.2-2.4-4.8.3-1.5-1.4-2.8zm339.2 100.4l.2-6.4-2-4.5-4.8-4.4-4.3-5.6-5.7-7.5-7.3-3.8 1.3-2.3 3.3-1.7-3-5.5-6.8-.1-3.4-5.7-4-5.1-2.7 1 1.9 7.2-2.9-.1-.7-1.5-4.1 4.1-.8 2.4 2.6 1.9.9 3.8 3.8.3-.4 6.7 1 5.7 5.3-3.8 1.8 1.2 3.2-.2.8-2.2 4.3.4 4.9 5.2 1.3 6.3 5.2 5.5.5 5.4-1.5 2.9 4.9 2.4 2-4.3 5.2 2.3zm-407-121.3l.9-3.5 2.6-2.4-1.2-2.5-2.4-.3-.1.2-2.1 4.5-1.3 5.2h1.8l.4-1.1 1.4-.1z" fill="#000" fill-opacity=".12" stroke="#000" stroke-opacity=".04" stroke-linejoin="round"/><path fill-rule="evenodd" clip-rule="evenodd" d="M755.4 468.3l-1.6-.2-1.1 2.6-1.6-.1-1.1-1.3.4-2.6-2.3-3.9-1.5.7-1.2.2-2.6 3-2.6 3.4-.3 1.9-1.3 2 3.7 4.1 4.8 3.5 5.1 4.8 5.7 3.1 1.5-.1.5-5.2.5-.8-.2-2.5-2.3-2.7-1.8-.4-1.6-1.8 1.2-2.8-.6-3.1.3-1.8zm182.4-151.9l-1.5-2.1-5.4-.8-1.8-1.1h-2l-2-2.8-7.3-1.3-3.6.8-3.7 3-1.5 3.1 1.5 4.8-2.4 3-2.5 1.6-5.9-3.1-7.7-2.7-4.9-1.2-2.8-5.7-7.2-2.8-4.5-1.1-2.2.6-6.4-2.2-.1 4.9-2.6 1.8-1.5 2-3.7 2.5.7 2.6-.4 2.7-2.6 1.4 1.9 5.6.4 3-.9 5.2.5 2.9-.6 3.5.5 4-2.1 2.6 3.4 4.7.2 2.7 2 3.6 2.6-1.2 4.3 2.9 2.5 4 8.8 2.8 3.1 3.5 3.9-2.4 5.4-3.5 22.3 12.2 22.4 12.2v-2.7h6.3l-.5-12.7-1-23.4-1.3-22.7-2-5.1 1.2-3.9-1.1-2.7 1.8-3zm320.4 161.3l2.3-1.8.6-6.6-3-6.6-2.9-4.5-4.1-3.5-1.9 10.3 1.4 9.1 2.8 5.1 4.8-1.5zM954.1 711.5l1.1-2 3.1-1 1.1-2.1 1.9-3.1-1.7-1.9-2.3-2-2.6 1.3-3.1 2.5-3.2 4 3.7 4.9 2-.6z" fill="#000" fill-opacity=".08" stroke="#000" stroke-opacity=".04" stroke-linejoin="round"/><path fill-rule="evenodd" clip-rule="evenodd" d="M926.4 166.2l-5-2.9-2.5-.4-.9-1.3-4.4.6-7.9-.4-5 1.9 1.7 5 5 1.1 2.2.9-.2 1.7.6 1.5 2.5.6 1.4 1.9h4.6l4.8-2.2.5-3.4 3.5-2-.9-2.6zM833 203.6l.2-2.7-1-1.4-1.3.2-.4 3.5 1.1.5 1.4-.1z" fill="#000" fill-opacity=".12" stroke="#000" stroke-opacity=".04" stroke-linejoin="round"/><path fill-rule="evenodd" clip-rule="evenodd" d="M928.1 155.1h-3.8l-4.4-2.2-2.1-.7-3.7 1-.2 4.6-3.6.1-4.4-4.5-4 2.1-1.7 3.7.5 4.5 5-1.9 7.9.4 4.4-.6.9 1.3 2.5.4 5 2.9 2.6-1 4.6-2.3-2.1-3.6-1-2.8-2.4-1.4z" fill="#000" fill-opacity=".12" stroke="#000" stroke-opacity=".04" stroke-linejoin="round"/><path fill-rule="evenodd" clip-rule="evenodd" d="M788.9 293.3l2.3.1 2 4.1.3 3.9 1.8 6.7 1.4 1.4-1 2.5-7 1-2.5 2.4-3.1.5-.3 4.7-6.3 2.5-2.1 3.2-4.4 1.7-5.4 1-8.9 4.7-.1 7.5v.4l-.1 1.2-.2 9.7-17.9-.3-.2 16.3-5.2.5-1.4 3.3.9 9.2-21.6-.1-1.2 2.2.3-2.7h.1l.004-.001-.004.001h-.1l.3-3 2.2-1.7 1.9-3.3-.3-2.2 2-4.5 3.1-4 1.9-1 1.6-3.8.2-3.3 2.1-4 3.7-2.3 3.6-6.5.1-.1 2.8-2.4 5.1-.7 4.4-4.4 2.7-1.7 4.7-5.3-1.1-7.9 2.1-5.4.9-3.4 3.5-4.3 5.4-2.9 4-2.6 3.7-6.7 1.8-3.9h3.9l3.1 2.7 5-.4 5.5 1.4z" fill="#000" fill-opacity=".08"/><path d="M791.2 293.4l.449-.22a.5.5 0 00-.427-.28l-.022.5zm-2.3-.1l-.123.484a.433.433 0 00.101.015l.022-.499zm4.3 4.2l.499-.039a.499.499 0 00-.05-.181l-.449.22zm.3 3.9l-.499.038a.56.56 0 00.016.091l.483-.129zm1.8 6.7l-.483.129a.5.5 0 00.129.224l.354-.353zm1.4 1.4l.464.185a.499.499 0 00-.11-.539l-.354.354zm-1 2.5l.071.495a.5.5 0 00.393-.31L795.7 312zm-7 1l-.071-.495a.49.49 0 00-.275.134l.346.361zm-2.5 2.4l.08.493a.493.493 0 00.266-.133l-.346-.36zm-3.1.5l-.08-.494a.5.5 0 00-.419.462l.499.032zm-.3 4.7l.184.464a.5.5 0 00.315-.433l-.499-.031zm-6.3 2.5l-.184-.465a.496.496 0 00-.234.19l.418.275zm-2.1 3.2l.18.466a.5.5 0 00.238-.192l-.418-.274zM770 328l.091.491a.472.472 0 00.089-.025L770 328zm-5.4 1l-.091-.492a.515.515 0 00-.143.049l.234.443zm-8.9 4.7l-.233-.443a.5.5 0 00-.267.436l.5.007zm-.1 7.5l.49.1a.492.492 0 00.01-.094l-.5-.006zm0 0l-.49-.1a.5.5 0 00.49.6v-.5zm0 0h.5a.5.5 0 00-.5-.5v.5zm0 .4l.498.042c.002-.014.002-.028.002-.042h-.5zm-.1 1.2l-.498-.041-.002.031.5.01zm-.2 9.7l-.008.5a.5.5 0 00.508-.49l-.5-.01zm-17.9-.3l.009-.5a.5.5 0 00-.509.494l.5.006zm-.2 16.3l.048.498a.5.5 0 00.452-.492l-.5-.006zm-5.2.5l-.048-.498a.502.502 0 00-.412.303l.46.195zm-1.4 3.3l-.46-.195a.486.486 0 00-.037.244l.497-.049zm.9 9.2l-.002.5a.5.5 0 00.5-.549l-.498.049zm-21.6-.1l.003-.5a.5.5 0 00-.442.261l.439.239zm-1.2 2.2l-.497-.055a.5.5 0 00.936.295l-.439-.24zm.3-2.7v-.5a.5.5 0 00-.497.445l.497.055zm.1 0v.5a.512.512 0 00.096-.009l-.096-.491zm.004-.001l.096.491a.499.499 0 00-.116-.99l.02.499zm-.004.001v.5l.02-.001-.02-.499zm-.1 0l-.498-.05a.5.5 0 00.498.55v-.5zm.3-3l-.306-.396a.504.504 0 00-.192.346l.498.05zm2.2-1.7l.306.395a.494.494 0 00.127-.146l-.433-.249zm1.9-3.3l.433.249a.494.494 0 00.062-.317l-.495.068zm-.3-2.2l-.457-.203a.49.49 0 00-.038.27l.495-.067zm2-4.5l-.395-.307a.477.477 0 00-.062.104l.457.203zm3.1-4l-.233-.443a.506.506 0 00-.162.136l.395.307zm1.9-1l.233.442a.505.505 0 00.228-.248l-.461-.194zm1.6-3.8l.461.194a.49.49 0 00.038-.164l-.499-.03zm.2-3.3l-.443-.233a.497.497 0 00-.056.202l.499.031zm2.1-4l-.264-.425a.5.5 0 00-.179.192l.443.233zm3.7-2.3l.264.424a.503.503 0 00.173-.182l-.437-.242zm3.6-6.5l-.353-.354a.451.451 0 00-.084.111l.437.243zm.1-.1l-.325-.38-.028.026.353.354zm2.8-2.4l-.068-.496a.495.495 0 00-.257.116l.325.38zm5.1-.7l.068.495a.506.506 0 00.286-.142l-.354-.353zm4.4-4.4l-.266-.423a.487.487 0 00-.088.069l.354.354zm2.7-1.7l.266.423a.475.475 0 00.108-.092L746.4 332zm4.7-5.3l.374.331a.499.499 0 00.121-.4l-.495.069zm-1.1-7.9l-.466-.182a.5.5 0 00-.029.251l.495-.069zm2.1-5.4l.466.181a.362.362 0 00.017-.053l-.483-.128zm.9-3.4l-.388-.316a.492.492 0 00-.095.188L753 310zm3.5-4.3l-.237-.441a.505.505 0 00-.151.125l.388.316zm5.4-2.9l.237.44.036-.021-.273-.419zm4-2.6l.273.419a.512.512 0 00.165-.178l-.438-.241zm3.7-6.7l.438.241.016-.032-.454-.209zm1.8-3.9v-.5a.5.5 0 00-.454.29l.454.21zm3.9 0l.328-.377a.495.495 0 00-.328-.123v.5zm3.1 2.7l-.328.377a.499.499 0 00.368.121l-.04-.498zm5-.4l.123-.485a.496.496 0 00-.163-.014l.04.499zm7.822 1l-2.3-.1-.044.999 2.3.1.044-.999zm2.427 4.38l-2-4.1-.898.439 2 4.1.898-.439zm.35 4.081l-.3-3.9-.998.077.3 3.9.998-.077zm1.784 6.609l-1.8-6.7-.966.259 1.8 6.7.966-.259zm1.271 1.176l-1.4-1.4-.708.707 1.4 1.4.708-.707zm-.89 3.039l1-2.5-.928-.371-1 2.5.928.371zm-7.393 1.31l7-1-.142-.99-7 1 .142.99zm-2.225 2.265l2.5-2.4-.692-.721-2.5 2.4.692.721zm-3.366.633l3.1-.5-.16-.987-3.1.5.16.987zm.119 4.238l.3-4.7-.998-.063-.3 4.7.998.063zm-6.615 2.933l6.3-2.5-.368-.929-6.3 2.5.368.929zm-1.866 3.01l2.1-3.2-.836-.549-2.1 3.2.836.549zm-4.638 1.892l4.4-1.7-.36-.933-4.4 1.7.36.933zm-5.489 1.025l5.4-1-.182-.983-5.4 1 .182.983zm-8.757 4.651l8.899-4.7-.467-.885-8.899 4.7.467.885zm.166 7.064l.1-7.5-1-.013-.1 7.5 1 .013zm-.01.094l-.98-.2.98.2zm-.49-.6v1-1zm.5.9v-.4h-1v.4h1zm-.102 1.242l.1-1.2-.996-.083-.1 1.2.996.083zm-.198 9.668l.2-9.7-1-.02-.2 9.7 1 .02zm-18.408.19l17.9.3.017-1-17.9-.3-.017 1zm.308 15.806l.2-16.3-1-.012-.2 16.3 1 .012zm-5.652.992l5.2-.5-.096-.996-5.2.5.096.996zm-.988 2.997l1.4-3.3-.92-.39-1.4 3.3.92.39zm.938 8.956l-.9-9.2-.995.098.9 9.2.995-.098zm-22.1.449l21.6.1.004-1-21.599-.1-.005 1zm-.759 1.94l1.2-2.2-.878-.479-1.2 2.2.878.479zm-.636-2.995l-.3 2.7.994.11.3-2.7-.994-.11zm.597-.445h-.1v1h.1v-1zm-.092.009l-.004.001.192.981.004-.001-.192-.981zm.112.99h.004l-.04-.999h-.004l.04.999zm-.12.001h.1v-1h-.1v1zm-.198-3.55l-.3 3 .996.099.3-3-.996-.099zm2.392-2.046l-2.2 1.7.612.791 2.2-1.7-.612-.791zm1.773-3.154l-1.9 3.3.866.499 1.9-3.3-.866-.499zm-.362-1.883l.3 2.2.99-.135-.3-2.2-.99.135zm2.038-4.77l-2 4.5.914.406 2-4.5-.914-.406zm3.162-4.104l-3.1 4 .79.613 3.1-4-.79-.613zm2.062-1.136l-1.9 1 .466.885 1.9-1-.466-.885zm1.372-3.551l-1.6 3.8.922.388 1.6-3.8-.922-.388zm.162-3.137l-.2 3.3.998.061.2-3.3-.998-.061zm2.156-4.202l-2.1 4 .886.465 2.1-4-.886-.465zm3.879-2.492l-3.7 2.3.528.849 3.7-2.3-.528-.849zm3.427-6.318l-3.6 6.5.874.485 3.6-6.5-.874-.485zm.184-.211l-.1.1.706.707.1-.1-.706-.707zm2.828-2.426l-2.8 2.4.65.759 2.8-2.4-.65-.759zm5.357-.816l-5.1.7.136.991 5.1-.7-.136-.991zm4.114-4.258l-4.4 4.4.708.707 4.4-4.4-.708-.707zm2.788-1.77l-2.7 1.701.532.846 2.7-1.7-.532-.847zm4.592-5.208l-4.7 5.3.748.663 4.7-5.3-.748-.663zm-1.221-7.499l1.1 7.9.99-.138-1.1-7.9-.99.138zm2.129-5.651l-2.1 5.4.932.363 2.1-5.4-.932-.363zm.883-3.346l-.9 3.4.966.256.9-3.4-.966-.256zm3.595-4.488l-3.5 4.3.776.631 3.5-4.3-.776-.631zm5.551-3.025l-5.4 2.9.474.881 5.4-2.9-.474-.881zm3.965-2.579l-4 2.6.545.839 4-2.6-.545-.839zm3.534-6.522l-3.7 6.7.876.483 3.7-6.7-.876-.483zm1.784-3.868l-1.8 3.9.908.419 1.8-3.9-.908-.419zm4.354-.29h-3.9v1h3.9v-1zm3.428 2.823l-3.1-2.7-.656.754 3.1 2.7.656-.754zm4.632-.522l-5 .4.08.997 5-.4-.08-.997zm5.663 1.414l-5.5-1.4-.246.969 5.5 1.4.246-.969z" fill="#000" fill-opacity=".04"/><path fill-rule="evenodd" clip-rule="evenodd" d="M944.5 228.3l1.2-.7.5-2.1 1.1-2-.5-1.1 1-.5.6.9 3 .2 1.2-.5-1-.6.2-1-2-1.5-1.1-2.6-1.9-1.1v-2.1l-2.5-1.6-2-.3-3.9-1.9-3.2.6-1.1.9 1.6.6 1.8 1.9 1.9 2.6 3.4 3.7.6 2.7-.2 2.7 1.3 2.8z" fill="#000" fill-opacity=".08" stroke="#000" stroke-opacity=".04" stroke-linejoin="round"/><path d="M788.9 293.3l2.3.1 2 4.1.3 3.9 1.8 6.7 1.4 1.4-1 2.5-7 1-2.5 2.4-3.1.5-.3 4.7-6.3 2.5-2.1 3.2-4.4 1.7-5.4 1-8.9 4.7-.1 6.577h-.8l-20.656-1.317 9.556-5.26 2.7-1.7 4.7-5.3-1.1-7.9 2.1-5.4.9-3.4 3.5-4.3 5.4-2.9 4-2.6 3.7-6.7 1.8-3.9h3.9l3.1 2.7 5-.4 5.5 1.4z" fill="#000" fill-opacity=".12" stroke="#000" stroke-opacity=".04" stroke-linejoin="round"/><path fill-rule="evenodd" clip-rule="evenodd" d="M1081.7 603.4l-1.1-4.2-1.4-2.7-1.8-2.7-2 2.8-.3 3.8-3.3 4.5-2.3-.8.6 2.7-1.8 3.2-4.8 3.9-3.4 3.7h-2.4l-2.2 1.2-3.1 1.3-2.8.2-1 4.1-2.2 3.5.1 5.9.8 4 1.1 3-.8 4.1-2.9 4.8-.2 2.1-2.6 1.1-1.3 4.6.2 4.6 1.6 5-.1 5.7 1.2 3.3 4.2 2.3 3 1.7 5-2.7 4.6-1.5 3.1-7.4 2.8-8.9 4.3-12 3.3-8.8 2.7-7.4.8-5.4 1.6-1.5.7-2.7-.8-4.7 1.2-1.9 1.6 3.8 1.1-1.9.8-3.1-1.3-2.9-.5-7.7z" fill="#000" fill-opacity=".08" stroke="#000" stroke-opacity=".04" stroke-linejoin="round"/><path fill-rule="evenodd" clip-rule="evenodd" d="M270.4 352.8l-3.6-1.4-3.9-2-.8-3-.2-4.5-2.4-3.6-1-3.7-1.6-4.4-3.1-2.5-4.4.1-4.8 5-4-1.9-2.2-1.9-.4-3.5-.8-3.3-2.4-2.8-2.1-2-1.3-2.2h-9.3l-.8 2.6h-15l-10.7-4.4-7.1-3.1 1-1.3-7 .7-6.3.5.2 5.7.7 5.1.7 4.1.8 4 2.6 1.8 2.9 4.5-1 2.9-2.7 2.3-2.1-.3-.6.5 2.3 3.7 2.9 1.5 1 1.7.9-.9 3.1 2.9 2.1 2 .1 3.4-1.2 4.7 2.5 1.6 3.3 3.1 2.9 3.6.7 3.9h1l2.7-2.3.4-1.2-1.5-2.8-1.6-2.9-2.6-.2.4-3.4-.9-3-1-2.8-.5-5.9-2.6-3.2-.6-2.3-1.2-1.6v-4.1l-1 .1-.1-2.2-.7-.5-.4-1.4-2.7-4.4-1.1-2.6 1-4.8.1-3 1.8-2.6 2.4 1.7 1.9-.2 3.1 2.5-.9 2.4.4 4.9 1.5 4.7-.4 2 1.7 3.1 2.3 3.4 2.7.5.3 4.4 2.4 3.1 2.5 1.5-1.8 4 .7 1.5 4.1 2.6 1.9 4 4.5 4.9 3.8 6.4 1.3 3.2v2.5l1.4 2.9-.3 2.2-1.6 1.6.3 1.8-1.9.7.8 3.1 2.2 4 5.3 3.6 1.9 2.9 5.4 2 3 .4 1.2 1.7 4.2 3 5.9 3 4 .9 4.8 2.9 4 1.2 3.7 1.7 2.9-.7 4.8-2.4 3.1-.4 4.4 1.6 2.6 2.1 5.5 6.9.4-1.9.8-1.5-.7-1.2 3.3-5.2h7.1l.4-2.1-.8-.4-.5-1.4-1.9-1.5-1.8-2.1h2.6l.4-3.6h5.2l5.1.1.1-1 .7-.3.9.8 2.5-3.9h1l1.2-.1 1.2 1.6 2-5 1.2-2.7-.9-1.1 1.8-3.9 3.5-3.8.6-3.1-1.2-1.3-3.4.5-4.8-.2-6 1.5-4 1.7-1.2 1.8-1.2 5.4-1.8 3.7-3.9 2.6-3.6 1.1-4.3 1.1-4.3.6-5.1 1.8-1.9-2.6-5.6-1.7-1.8-3.2-.7-3.6-3-4.7-.4-5-1.2-3.1-.5-3.4 1.1-3.1 1.8-8.6 1.8-4.5 3.1-5.6-2.1.2z" fill="#000" fill-opacity=".12" stroke="#000" stroke-opacity=".04" stroke-linejoin="round"/><path fill-rule="evenodd" clip-rule="evenodd" d="M920 249.8l-2.8-2-2.4.1-1.7.4-1.1.2-2.9 1-.1 1.2h-.7l-.4 2.1.9 2.6 2.3 1.6 3.3-.6 1.9-1.3 2.8.1.7-1.1 1-.2-.8-4.1z" fill="#000" fill-opacity=".08" stroke="#000" stroke-opacity=".04" stroke-linejoin="round"/><path fill-rule="evenodd" clip-rule="evenodd" d="M826.3 395.3l-6.1.6-.1-4-2.6-1.1-3.4-1.8-1.3-3-18.6-13.8-18.4-13.9-8.4.1 2.4 27.4 2.4 27.5 1 .8-1.3 4.4-22.3.1-.9 1.4-2.1-.4-3.2 1.3-3.8-1.8-1.8.2-1 3.7-1.9 1.2.2 3.9 1.1 3.7 2.1 1.8.4 2.4-.3 2 .3 2.3h.9l1.5-.8.9.2 1.5 1.6 2.4.5 1.6-1.4 1.8-.8 1.3-.9 1.1.2 1.3 1.4.6 1.7 2.3 2.7-1.2 1.6-.2 2.1 1.2-.6.7.7-.3 1.9 1.7 1.8.7-.6 1.6 1 4.3.1 1-1.9 1 .1 1.6-.7.9 2.7 1.3-.8 2.3-.9-.4-3.7 1.6-2.7-.2-2.2 4.5-5.2.8-4.4 1.6-1.6 2.7.9 2.3-1.3.8-1.6 4.3-2.9 1.1-2 5.2-2.6 3-.9 1.4 1.2h3.6l3.6-.3 2-2.2 7.6-.6 4.9-1 .5-3.9 3-4.3-.1-14.6zm533.6-14.5l-.6-2.6-3.8 1.8-2.5-1.2-4.5-2.4.8-5.2-3.7-1.3-2.3-5.8-5.6 1-.7-7.5 4.1-5.3-.8-5.3-1.3-4.9-2.7-1.5-2.7-3.7-3 .4.9 2.4-1.6 1.2 1.3 3.9-4.1-1.1-6.1 4.4.9 3.6-2.1 5.4.3 3.1-1.5 5.2-4.6-1.4.9 6.6-.9 2.1.9 2.7-2.4 1.5.5 4.6-2.1-1 1.1 5.1 4.6 5.2 3.4.9-.4 2.2 5.4 7.4 1.9 5.9-.9 7.9 3.6 1.5 3.2.6 5.8-4.6 3.2-3.1 3.1 5.2 2 8.1 2.6 7.6 2.6 3.3.2 6.9 2.2 3.8-1.3 4.8.9 4.8 2.2-6.6 2.6-5.9-2.8-5.8-.2-3-1-3.5-4.2-5.1-1.7-3.2 1.7-1.1 1.4-5.6-2.9-4.2-4.1-4.6-3.5-5.6 2.2-1.1 1.5-6.9 3.9-.3 2.8-2.8 3-1.4.8-2.4 4.1-4.1z" fill="#000" fill-opacity=".12" stroke="#000" stroke-opacity=".04" stroke-linejoin="round"/><path fill-rule="evenodd" clip-rule="evenodd" d="M906 244.8l.4-.6-2-1.2-1.8-.7-.8-.8-1.5-1.1-.9.6-1.5 1.4-.4 3.4-.5 1 2.3 1.2 1.6 2.1 1.1.4-.5-1.9 2-3.1.4 1.2 1.3-.5.8-1.4z" fill="#000" fill-opacity=".08" stroke="#000" stroke-opacity=".04" stroke-linejoin="round"/><path fill-rule="evenodd" clip-rule="evenodd" d="M1299.7 197.1l-3.7-4.6-6.6-1.5-4.8-.8-6.9-2.5-1.3 6.4 4 3.6-2.4 4.3-7.9-1.6-5-.2-4.7-2.9-5.1-.1-5.3-1.9-5.9 2.9-6.6 5.4-4.7 1 3.3 4.4 5.7 3.3 8.1 2.3 5.8 5 1.3 7.3 3 2.7 6.4 1 7.2.9 7.9 3.8 3.4.7 4.9 5.7 4.7 3.6 5.5-.1 11.2 1.3 6.4-.8 5.5.9 9.3 3.8 6.2-.1 3.2 2 4.4-3.3 7.2-2.2 7.5-.2 4.9-2.2 1.9-3.3 2.5-2-1.9-2.1-2.9-2.3.4-4 3.2.5 5.9 1.3 3.1-3.3 6.3-2.4 1.4-4.1 2.4-1.8 6.8-.8 4.3.7-.7-2.2-7.2-4.3-5.1-2-2.5 2.3-5.4-1-2.4.8-2.7-2.6-.3-6.2-.6-4.6-5.5.5-3.9-2.1-3.3-.7-4.5 4.4-5.8 1-3.6 1.6-6.7-1h-4.5l-4.9-3.1-6.5-3-5.4-.8-5.7.8-3.9 1.1-8.4-2.6zM1029 585.7l-.8-2.9-4.6 3.7-6.2 2.5-3.3-.1-2.1 1.9-3.9.1-1.4.8-6.7-1.8-2.1.3-1.6 6 .7 7.3h.3l1.9 2 2.2 4.6.1 8.2-2.5 1.3-1.9 4.5-3.4-4-.2-4.5 1.3-2.9-.3-2.6-2.1-1.6-1.6.6-3-3-17.1 5.2.3 4.5.3 2.4 4.6-.1 2.6 1.3 1.1 1.6 2.6.5 2.8 2-.3 8.1-1.3 4.4-.5 4.7.8 1.9-.8 3.7-.9.6-1.6 4.6-6.2 7.2 2.2 9 1.1 4.5-1.4 7.1.4 2.3.6 2.9.3 2.8h4.1l.7-3.3-1.4-.5-.3-2.6 2.6-2.4 6.8-3.4 4.6-2.2 2.5-2.3.9-2.6-1.2-1.1 1.1-3 .5-6.2-1 .3v-1.9l-.8-3.7-2.4-4.8.7-4.6 2.3-1.4 4.1-4.6 2.2-1.1 6.7-6.8 6.4-3.1 5.2-2.5 3.7-3.9 2.4-4.4 1.9-4.6-.9-3.1.2-9.9-.4-5.6.4-6.3z" fill="#000" fill-opacity=".12" stroke="#000" stroke-opacity=".04" stroke-linejoin="round"/><path fill-rule="evenodd" clip-rule="evenodd" d="M775.8 358.3l-20.3-15.5-.2 9.7-17.9-.3-.2 16.3-5.2.5-1.4 3.3.9 9.2-21.6-.1-1.2 2.2 2.8 2.7 1.4 3-.7 3.2.6 3.2.5 6.3-.8 5.9-1.7 3.2.4 3.4 2-2 2.7.5 2.8-1.4h3.1l2.6 1.8 3.7 1.7 3.2 4.7 3.6 4.4 1.9-1.2 1-3.7 1.8-.2 3.8 1.8 3.2-1.3 2.1.4.9-1.4 22.3-.1 1.3-4.4-1-.8-2.4-27.5-2.4-27.4 8.4-.1zm219.4 248.2l.1-2.3-1.2-1.9.1-2.8-1.5-4.7 1.7-3.5-.1-7.7-1.9-4.1.2-.7-1.1-1.7-5.4-1.2 2.6 2.8 1.2 5.4-1 1.8-1.2 5.1.9 5.3-1.8 2.2-1.9 5.9 2.9 1.7 3 3 1.6-.6 2.1 1.6.3 2.6-1.3 2.9.2 4.5 3.4 4 1.9-4.5 2.5-1.3-.1-8.2-2.2-4.6-1.9-2h-.3v.8l1.1.3 1 3.4-.2.8-1.9-2.5-1 1.6-.8-1.4z" fill="#000" fill-opacity=".08" stroke="#000" stroke-opacity=".04" stroke-linejoin="round"/><path fill-rule="evenodd" clip-rule="evenodd" d="M1369.6 477.7l-4.7-2.8-.9 1.1 1.4 2.7-.4 4.7 2.1 3.4 1 5.3 3.4 4.3.8 3.2 6.7 5 5.4 4.8 4-.5.1-2.1-2.3-5.6-2.1-1.8-.5-3.8-.6-2.1.5-2.9-.5-4.3-2.6-4.3-3.5-3.8-1.3-.6-1.7 2.6-3.7.8-.6-3.3zm99 11l-1.2-3.1 3.8-.4.3-2.4-4.8-2-3.8-1.7-.4-2.8-3.1-3.2h-2.3l-2.5 5-4.1 4.4-.1 3.1-.1 4.1-2.7-.2-1.1 2.2-2.7-3.3-2.6 4-3.8 5-6.7 1.4-2.4 1.2-.9 5.4-4.4 1.2-4.1-2.2 1 4.3 3.9 3.5 3.6-1.2 3.6.4 3.2-3.2 2.7-.6 5.4 1.8 4.5-1.3 2.7-8.9 2-2.2 1.7-7.2h6.4l5 1 4-2.1z" fill="#000" fill-opacity=".12" stroke="#000" stroke-opacity=".04" stroke-linejoin="round"/><path fill-rule="evenodd" clip-rule="evenodd" d="M931.4 628.7l-10.3 2.5-13.4-.9-3.7-3-22.5.3-.9.4-3.2-2.9-3.6-.1-3.3 1-2.7 1.2.2 4.9 4.4 6.2 1.1 4 2.8 7.7 2.7 5.2 2.1 2.6.6 3.5v7.6l1.6 9.8 1.2 4.6 1 6.2 1.9 4.7 3.9 4.8 2.7-3.2 2.1 1.8.8 2.7 2.4.5 3.3 1.2 2.9-.5 5-3.2 1.1-23.6.6-18.5 5.4-.2.9-22.7 4.1-.2 8.6-2.2 2 2.6 3.7-2.5h1.6l3.2-1.5v-.5l-2.1-1.4-3.6-.4-4.6 1.5zm-54.1-258.1l-8.8-2.8-18.6 12.2-15.8 12.5-7.8 2.8.1 14.6-3 4.3-.5 3.9-4.9 1-7.6.6-2 2.2-3.6.3-.5 3.1.8 2.9 3.1 4.1.2 3.1 6.4 1.4-.1 4.4 1.9-1.9h2l4.3 3.7.3-5.7 1.6-2.6.8-3.6 1.4-1.4 6-.8 5.6 2.4 2.1 2.4 2.9.1 2.6-1.5 6.8 3.3 2.8-.2 3.3-2.7 3.3.2 1.6-.9 3 .4 4.3 1.8 4.3-3.5 1.3.2 3.9 7 1-.2.2-2 1.6-.4.5-2.9-3.6-.2v-4.1l-2.4-2.3 2.3-8.4 6.9-6 .2-8.3 1.8-12.9 1.1-2.7-2.3-2.2-.2-2.1-2-1.6-1.6-9.9-3.9 2.4-3.1-3.5z" fill="#000" fill-opacity=".08" stroke="#000" stroke-opacity=".04" stroke-linejoin="round"/><path fill-rule="evenodd" clip-rule="evenodd" d="M881.8 437.7l-1 .2-3.9-7-1.3-.2-4.3 3.5-4.3-1.8-3-.4-1.6.9-3.3-.2-3.3 2.7-2.8.2-6.8-3.3-2.6 1.5-2.9-.1-2.1-2.4-5.6-2.4-6 .8-1.4 1.4-.8 3.6-1.6 2.6-.3 5.7-.2 2.1 1.2 3.8-1.1 2.5.6 1.7-2.7 4-1.7 1.9-1 4 .1 4.1-.3 10.2h9.2l3.9 4.2 1.9 4.6 3 3.9 4.5.2 2.2-1.4 2.1.3 5.8-2.3 1.4-4.5 2.7-6.1 1.6-.1 3.3-3.7 2.1-.1 3.2 2.6 3.9-2.2.5-2.6 1.2-2.6.8-3.2 3-2.6 1.1-4.5 1.2-1.4.7-3.3 1.5-4 4.6-5 .3-2.1.6-1.1-2.3-2.6zm-541.7-15.9l-1.9-.2-.9.9-2 .8h-1.4l-1.3.8-1.1-.3-.9-.9-.6.2-.8 1.5-.5-.1-.3 1.3-2.1 1.8-1.1.7-.6.8-1.5-1.3-1.4 1.7h-1.2l-1.3.2-.2 3.1h-.8l-.8 1.5-1.8.3-.4.4-.9-1-.7 1 2.6 2.9 2.2 2 1 2.1 2.5 2.6 1.8 2 .9-.8 3.5 1.7 1.4-.8 1.7.5.8 1.3 1.7.4 1.4-1.3-.8-1.1-.1-1.7 1.2-1.6-.2-1.7.7-2.7.9-.7.1-2.8-.2-1.7.4-2.8.9-2.5 1.4-2.2-.3-2.3.4-1.4.6-.6z" fill="#000" fill-opacity=".08" stroke="#000" stroke-opacity=".04" stroke-linejoin="round"/><path fill-rule="evenodd" clip-rule="evenodd" d="M831.5 188.9h2.9l1.1-2.3 1-5.6-1-2-3.9-.2-6.5 2.6-3.9 8.9-2.5 1.7 3.6.5 4.4-1.3 3.1 2.7 2.8 1.4-1.1-6.4zm83.3-110.8l-6.9 1.1-7.3-.3-5.1 4.4-6.7-.3-8.5 2.3-10.1 6.8-6.4 4-8.8 10.7-7.1 7.8-8.1 5.8-11.2 4.8-3.9 3.6 1.9 13.4 1.9 6.3 6.4 3 6-1.4 8.5-6.8 3.3 3.6 1.7-3.3 3.4-4 .9-6.9-3.1-2.9-1-7.6 2.3-5.3 4.3.1 1.3-2.2-1.8-1.9 5.7-7.9 3.4-6.1L872 95l4 .1.6-3.1 7.9.9v-3.5l2.5-.3 2.1-1.4 5.1 2.9 5.3-.3 4.7 1.3 3.4-2.4 1.1-3.9 5.8-1.8 5.7 2.1-.8 3.8 3.2-.5 6.4-2.2-5.4-3.3 4.8-1.4-13.6-3.9zm-22.6-33.3l-5.6-1-1.9-1.7-7.2.9 2.6 1.5-2.2 1.2 6.7 1.1 7.6-2zm-25.4-8.3l-4.8-1.6-5.1.2-1 1.5h-5l-2.2-1.5-9.3 1.6 3.2 3.5 7.6 3.8 5.7 1.4-3 1.7 8.4 2.9 4.4-.2.9-3.9 3-.9 1.2-3.4 8.5-1.8-12.5-3.3zm24.2-3.1l-9.1-1-3.2 1.2-5.3-1-10.4 1.2 4.3 2h5.1l.9 1.3 10.6.7 10.1-.5 4.3-2.4-7.3-1.5zm390.2 306.4l-6.5-.6-6.4-1.5-5-2.8-4.5-1.2-2.5-3.1-3.2-.9-6.4-4.1-4.7-2-1.9 1.5-2.8 2.9-.9 5.9 5.7 2.5 5.8 3.1 7.7 3.5 7.6.9 3.8 3.2 4.3.6 6.8 1.5 4.6-.1.1-2.5-1.5-4.1-.1-2.7zm413.4 438l.9-2.6-5.8 2.9-3.4 3.4-3.2 1.6-5.9 4.6-5.6 3.2-7 3.2-5.5 2.4-4.3 1.1-11.3 6.1-6.4 4.6-1.1 2.3 5.1.4 1.5 2.1 4.5.1 4-1.8 6.3-2.8 8.1-6.2 4.7-4.1 6.2-2.3 4-.1.6-2.9 4.6-2.5 7-4.5 4.2-2.9 2.1-2.6.5-2.6-5.6 2.5.8-2.6zm28.8-30.5l1.9-5.7-3.1-1.7-.8-3.6-2.3.5-.4 4.6.8 5.7.9 2.7-.9 1.1-.6 4.4-2.4 4.1-4.2 5-5.3 2.2-1.7 2.4 3.7 2.5-.8 3.5-6.9 5.1 1.4.9-.4 1.6 5.9-2.5 5.9-4.2 4.5-3.4 1.6-1.2 1.5-2.7 2.8-2 3.8.2 4.2-3.8 5.1-5.7-2.1-.8-4.6 2.5-3.2-.5-2.9-2.1 2.3-4.9-1.2-1.8-2.9 4.4.4-6.8zM1127 382.8l2.1-2 .8-1.8 1.6-3.8-.1-1.4-2.1-.8-1.6-2.1-2.9-3.7-3.3-1.1-4.1-.9-3.3-2.3-2.9-4.3h-2.8l-.1 4.2 1.1.8-2.4 1.3.3 2.6-1.4 2.6.1 2.6 2.9 4.5-2.6 12.7-16.1 6.4 5.2 10.5 2.1 4.4 2.5-.3 3.6-2.2 3.1.6 2.5-1.8-.2-2.5 2.1-1.6h3.4l1.2-1.3.2-3.1 3.3-2.4h2.6l.4-.8-1-4.2.6-3.2 1-1.5 2.5.3 1.7-4.4zm-16.6-30.4l.2-2.6-.7-.6-1.3 2.2 1.3 2.2.5-1.2zm103.9-61.1l-9.4-2.6-2.9-5-4.7-3-2.8.7-2.4 1.2-5.8.8-5.3 1.3-2.4 2.8 1.9 2.8 1.4 3.2-2 2.7.8 2.5-.9 2.3-5.1-.2 3 4.2-3 1.6-1.5 3.8 1.1 3.8-1.7 1.8-2.1-.6-4 .9-.2 1.7h-4l-2.3 3.6.8 5.4-6.6 2.6-3.8-.5-.9 1.4-3.3-.8-5.3.9-9.6-3.2 3.2 3.3 2.8 3.9 5.6 2.7 1 5.7 2.7 1 .9 2.9-7.4 3.3-1.2 7.4 7.6-.9 8.9-.1 9.9-1.2 4.9 4.8 2.1 4.6 4.2 1.6 3.2-4.2h12l-1.8-5.5-3.5-3.2-1.3-4.9-4-2.9 4.9-6.6 6.4.5 4.5-6.7 2.1-6.5 3.9-6.3-1-4.5 3.7-3.7-5-3.1-2.9-4.3-3.2-5.6 1.9-2.8 8.5 1.6 5.7-1 3.7-5.4z" fill="#000" fill-opacity=".12" stroke="#000" stroke-opacity=".04" stroke-linejoin="round"/><path fill-rule="evenodd" clip-rule="evenodd" d="M369.5 462l-2-1.8-1.7-1.9-2.5-1.1-3.1-.2.3-.6-3.1-.4-2 1.9-3.5 1.3-2.5 1.6-2.7.5-1.5-1.6-.5.5-2.3-.3.2-1.3-1.9-2.3-2.2.6-.1 2.5 1.1 1-.8.7.1 1.2-.5 1.3-.4 1.2.6 1 .3-1.4h2.4l1.4.7 2.3.5 1 2.5 1.8.4.8-1.1.8 3.8 2.6-.3.9-.9 1.5-.9-2.5-3.4.6-1.3 1.3-.3 2.3-1.6 1.2-2.2 2.5-.4 2.7 1.8 1 2.1 1.4.4-1.5 1.7 1 3.5 1.8 1.8.9-3.1 1.8.5 1.1-1.9-1.1-3.8.7-.9z" fill="#000" fill-opacity=".08" stroke="#000" stroke-opacity=".04" stroke-linejoin="round"/><path fill-rule="evenodd" clip-rule="evenodd" d="M410.3 544.5l-2.9-3.4-1.7-.1 3.5-6.5-4.4-3-3.3.6-2.1-1.1-3 1.7-4.2-.8-3.4-6.7-2.7-1.7-1.8-3-3.7-3-1.5.6.8 4.9-1.7 4.1-6 6.7-6.7 2.5-3.3 5.5-.9 4.3-3.1 2.6-2.5-3.2-2.3-.7-2.3.5-.2-2.3 1.5-1.5-.7-2.7-4.4 4-1.6 4.5 3 6.1-1.7 2.8 4.1 2.6 4.5 4.1 2 4.7 2.4 2.9 6 12.7 6.2 11.7 5.4 8.4-.8 1.8 2.8 5.3 4.6 3.9 10.7 6.9 11.6 6.4.7 2.6 5.9 3.7 2.7-1.6 1.2-3.3 2.8-6.9-2.8-5.3 1.1-2.1-1.2-2.4 1.9-3.2-.3-5.4-.1-4.5 1.1-2.1-5.5-10.3-3 1.1-2.6-.7-.2-9.7-4.4 3.8-4.9-.2-2.3-3.4-3.7-.3 1-2.8-3.3-3.8-2.6-5.8 1.5-1.1-.1-2.7 3.3-1.9-.7-3.4 1.3-2.2.4-3 6.2-4.3 4.6-1.2.7-1 5.1.3z" fill="#000" fill-opacity=".12" stroke="#000" stroke-opacity=".04" stroke-linejoin="round"/><path fill-rule="evenodd" clip-rule="evenodd" d="M1510.6 463.6l-.6-2.3-.8-3.2-4.8-3 .8 4.9-3.9.2-.7 2.8-4.2 1.7-2.2-2.8-2.8 2.4-3.4 1.7-1.9 5.4 1.1 1.9 3.9-3.6 2.7.3 1.5-2.7 3.8 3-1.5 3.1 1.9 4.6 6.8 3.7 1.4-3-2.1-4.7 2.4-3.2 2.5 6.4 1.5-5.8-.6-3.5-.8-4.3zm-14.5-11.8v-6.1l-3.6 6.1.5-4.2-3 .3-.3 4-1.2 1.8-1 1.7 3.8 4.4 1.6-1.9 1.4-4 1.8-2.1zm-30.1 6.1l2.6-4.4 3.4-3.5-1.5-5.2-2.4 6.3-2.9 4.4-3.8 4-2.4 4.4 7-6zm17.4-16.4l1.2 3-.1 3.3.5 2.9 3.3-1.9 2.4-2.7-.2-2.6h-3.6l-3.5-2zm20-1.7l-1.8-2.4-5.4-.1 4 4.8.3 2.4-3.3-.5 1.2 3.9 1.7.3.7 4.5 2.5-1.4-1.7-4-.4-2.1 4.5 1.7-2.3-7.1zm-22.9-5.8l-2.2-2.3-4.8-.2 3.4 4.8 2.8 3.2.8-5.5zm-6.4-34.6h-3.3l-.9 5.8 1.1 9.9-2.6-2 1.2 6 1.2 2.8 3.3 3.7.4-2.3 1.8 1.4-1.5 1.7.1 2.6 2.9 1.4 5-.9 4 3.8 1.1-2.4 2.5 3.4 4.8 3.1.2-2.9-2-1.6.1-3.4-7.5-3.6-2.3.8-3.1-.7-2-5.1.1-5.1 3-2.1.6-5.3-2.7-4.6.4-2.6-.7-1.6-1.5 1.6-3.7-1.8zm202.6 161.2l.9-1.8-2.4-2.2-2.5-4-1.6-1.5-.5-1.9-.8.7.9 4.8 2.2 4 2.2 2.5 1.6-.6zm-21.2-8.6l2.1-3.9.4-3.5-1.1-1-3.4.1.4 3.7-3.3 2.3-1.7 2.2-3.2.5-.4-3.4-.8.1-1 3.1-3.1.5-5-.9-.6 1.9 3.1 1.8 4.5 1.9h2.9l3-1.5 3.2-1.6 1-1.8 3-.5zm-27.8 12.2l-.9-4.3 5.2-.7-1.1-3.3-9.1-4-.6-3.7-2.9-3.2-3.7-3.3-10.2-3.6-9.6-4.4-1 20.7-1.5 20.8 5.7.2 3.1 1.1 4.6-2.2-.3-4.7 3.6-2.1 4.9-1.8 7 2.8 2.4 5.6 2.9 3.5 3.9 4 5.5 1 4.8.7 1.1 1.6 3.8-.4.8-1.8-5.6-2.7 1.8-1.2-4.2-1.1.5-2.8-3.2.2-3-6.8-4.7-4.1zm34.7-18.4l-.5-3.3-2-2.1-2.1-2.6-2.3-1.5-1.9-1.4-2.9-1.8-1.6 1.5 3.9 1.9 3.1 2.7 2.4 2.1 1.2 2.4.8 3.8 1.9-1.7z" fill="#000" fill-opacity=".08" stroke="#000" stroke-opacity=".04" stroke-linejoin="round"/><path fill-rule="evenodd" clip-rule="evenodd" d="M895.4 173.3l-4.6-.1-.5-1.4-4.8-1.1-5.7 2.1-7.1 2.8-3.1 1.7 1.4 3.1-1.2 1.6 2 2.2 1.4 3.3-.1 2.1 2.3 3.9 2.4 1.9 3.7.6-.1 1.7 2.7 1.2.6-1.5 3.4.6.7 2 3.6.3 2.6 3.1.3.4 1.9-.9 2.7 2.2 2.8-1.3 2.4.6 3.4-.8 4.9 2.3 1.1.4-1.6-2.8 3.8-5.1 2.3-.7.3-1.8-3.1-5.3-.5-2.7-1.9-2.9 2.7-1.2-.3-2.4-1.7-2.3-.6-2.7-1.4-1.9-2.5-.6-8.7.1-5.9-.7z" fill="#000" fill-opacity=".12" stroke="#000" stroke-opacity=".04" stroke-linejoin="round"/><path fill-rule="evenodd" clip-rule="evenodd" d="M1470.7 247.3l-5.5-3.6.1 3.5-6.3 2.6 2.7 3.3-4.6-.2-3.6-2-1 4.4-3.8 3.4-2.1 4 3.3 1.7 3.4.7.8 1 .4 3.5 1.1 1.2-.9.7-.1 2.9 1.9 1 1.6.6.8 1.2 1.3-.5v-1.3l3.1 1.3.1-.6 2.4.2.7-2.9 3.5-.3 2.1-.4-.1-1.6-4.3-2.8-2.6-1 .2-.7-1.2-2.8 1.3-1.7 2.9-1 1-1.9.3-1.1 1.9-1.4-2.8-4.5.3-2.1.9-2 2.2.3-1.4-1.1z" fill="#000" fill-opacity=".08" stroke="#000" stroke-opacity=".04" stroke-linejoin="round"/><path fill-rule="evenodd" clip-rule="evenodd" d="M763.6 280.9l-.4-2.1 2-2.5.8-1.7-1.8-1.9 1.6-4.3-2-3.8 2.2-.5.3-3 .9-.9.2-4.9 2.4-1.7-1.3-3.1-3-.2-.9.8h-3l-1.2-3.1-2.1.9-1.9 1.6.1 2.1.9 2.2.1 2.7-1.3 3.8-.4 2.5-2.2 2.3-.6 4.2 1.2 2.4 2.3.6.4 4-1 5.1 2.8-.7 2.7.9 2.2-1.7zM481.7 645.5l-.3-1.9-5.4-3.3-5.1-.1-9.5 1.9-2.1 5.6.2 3.4-1.5 7.6 11.2 10.4 4.6 1 7.2 4.7 5.9 2.5 1.1 2.8-4.2 9.6 5.7 1.8 6.2 1 4.2-1.1 4.3-4.8.3-5.7.7-3.6.3-3.8-.3-3.5-2.1-1.2-2 1.1-2-.3-.9-2.5-1-5.8-1.2-1.9-3.9-1.7-2.1 1.2-6-1.2-.4-8.6-1.9-3.6zm511.2-334.4l-2-.9-.7 4.3 1.4.7-1.2.8-.1 1.7 2.4-.8.6-1.9-.4-3.9zm91.1 49.4l.8-3.8-.5-3.7-1.9-2-1.4.7-1.1 3.3.8 4.7 1.8 1.2 1.5-.4zM934.1 211.3H932l-1 1.5-3.6.6-1.6.9-2.4-1.5h-3.2l-3.2-.7-1.9 1.3-2.9 1.3-1.9 4.2-2.6 4.3-3.8 1.1 2.9 2.5.8 1.9 3.2 1.5.7 2.5 3.1 1.8 1.4-1.3 1.4.7-1.1 1.1 1 1 1.8 2.6 1.9-.5 4 1 7.5.3 2.3-1.6 5.8-1.4 4 2.2 3 .7.4-7.4 1.6.5 2.3-1.3-.4-1.6-2.4-1.1-2.2 1-2.4-1.1-1.3-2.8.2-2.7-.6-2.7-3.4-3.7-1.9-2.6-1.8-1.9-1.6-.6zm224.2-171.2l-4.5-4-13.6-4.1-9.4-2.1-6.2.9-5.3 2.9 5.8.8 6.6 3.2 8 1.7 11.5 1.3 7.1-.6zm-178.7-7.3l.9-.6-5.7-.9-2.8.7-1.3 1-1.5-1.2-5.2.1-6.2.8 7.7.1-1.1 1.3 4.4 1 3.6-.7.1-.7 2.9-.3 4.2-.6zm200.5 9.9l-1.5-1.8-12.5-2.6-3-.3-2.2.5 1.2 6 18-1.8zm15.2 6.3l-9.2-.7 3.4-1.2-8.2-1.5-6.1 1.9-1 2 1.5 2.1-6.9-.1-5.3 2.6-4.3-1.1-9.3.5.3 1.3-9.2.7-4.9 2.4-4.2.2-1.2 3.3 5.5 2.6-7.7.7-9.5-.3-5.8 1.1 4.8 5.4 6.9 4.3-9.6-3-7.9.3-5.1 2 4.5 3.8-4.9-1-2.1-5-4.2-2.8-1.8.1 3.6 3.7-4.6 3.5 8.1 4.2.4 5.4 2.9 2.9 4.7.5.4 3.5 4.4 3.1-1.9 2.6.5 2.7-3.7 1.4-.5 2-5.3-.8 3.5-7.8-.5-3.6-6.7-3.3-3.8-7.3-3.7-3.7-3.6-1.6.8-4.2-2.9-2.9-11.3-1.4-2.1 1 .5 4.7-4.3 4.7 1.2 1.7 4.7 4.1.1 2.6 5.3.5.8 1.1 5.8 2.9-1 2.8-18.5-6.1-6.6-1.7-12.8-1.6-1.2 1.7 5.9 3.1-2.7 3.6-6.4-3.2-5 2.2-7.6.1-2.1 1.9-5.3-.6 2.5-3.3-3.2-.2-12.3 4.6-7.6 2.6.4 3.5-6 1.2-4-1.9-1.2-3 5-.7-3.6-3-12.2-1.8 4.3 3.4-.8 3.2 4.7 3.3-1.1 3.8-4.6-1.9-4-.3-8 5.4 4.2 4.1-3.2 1.4-11.4-3.5-2.1 2.1 3.3 2.4.2 2.7-3.8-1.4-6-1.7-1.9-5.8-1-2.6-8-4 2.9-.7 20.1 4.2 6.4-1.5 3.7-2.9-1.6-3.6-4-2.6-17.6-6.1-11.6-1.3-7.6-3.2-3.6 1.8-6.4 2.2-3.2.5.4 3.7 7.2 3.7-2.8 4.1 6.4 6.3-1.7 4.8 4.9 4.1-.9 3.7 7.3 3.9-.9 2.9-3.3 3.3-7.9 7.4 5.3 2.8-4.5 3.2.9 1-2.6 3.4 2.5 5.5-1.6 1.9 2.4 1.4 1 2.8 2.1 3.6 5.2 1.5 1 1.4 2.3-.7 4.8 1.4 1 2.9-.6 1.6 3.7 3.9 2.2 1.1-.1 1.1 3.4 1.1 1.7 1.6-1.6 1.3-3.9-.2-.8.6 1.5 2 2 3.9 1.8.2 1-1.4 1.5.3 4.8-.5 3.8 3.4-.9 1.3.7 1.9 4 .2 2.2 2.7.2 1.2 6.6 2.2 3.5-1 3.6 2.9 2.9-.1 7.6 2 .4 1.9-1.3 3.2 1.8 3.4-.3 2.1-4.7.5-2.2 1.7.4 2.8 4.2-1 .4 1.3-6.8 2.6 3.2 2.4-3.2 5.2-3.4 1 5 3.6 6.2 2.4 7.4 5.1.5-.7 4.5 1.1 7.7 1 7.5 2.9 1.1 1.2 2.9-1 5.1 1.3 2.1 2.5 3.5 1.4 1.5.2 4.3 3.8 2.4.4.5-1.5 2.6-2.5-7.3-7.3-.4-4.1-5.9-5.9 3.5-6.3 4.6-1.1 1.4-3.7-2.8-1-.2-3.2-4.2-4.1-3.6.2-5.3-4.3 1.7-4.7-1.7-1.2 2.1-6.8 6 3.6-.7-4.6 8.1-6.6 7.5-.2 11.9 4.3 6.6 2.4 4.3-2.5 7.6-.2 7.3 3.2.8-1.8 6.9.3.2-3-9.4-4.2 3.6-2.9-1.5-1.7 3.9-1.6-5-4.1 1.4-2.1 16.8-2.1 1.7-1.5 10.8-2.2 3.1-2.5 9 1.3 4.3 6.3 4.3-1.5 7 2.1 1.2 3.3 4.4-.4 9.1-5.7-.8 1.9 8.3 4.7 18.1 15.5 1.1-3.3 8.3 3.6 6.2-1.6 3.2 1.1 4.1 3.6 3.9 1.2 3.3 2.6 6-.9 4.3 3.8 1.7-.5 4.7-1 6.6-5.4 5.9-2.9 5.3 1.9 5.1.1 4.7 2.9 5 .2 7.9 1.6 2.4-4.3-4-3.6 1.3-6.4 6.9 2.5 4.8.8 6.6 1.5 3.7 4.6 8.4 2.6 3.9-1.1 5.7-.8 5.4.8 6.5 3 4.9 3.1h4.5l6.7 1 3.6-1.6 5.8-1 4.5-4.4 3.3.7 3.9 2.1 5.5-.5 7.3 2.3 4.4-3.9-1.9-2.7-.1-6.5 1.2-2-2.5-3.3-3.7-1.5 1.7-3 5.1-1.1 6.2-.2 8.5 1.8 5.9 2.3 7.7 6.1 3.8 2.7 4.4 3.7 6.1 6.1 9.9 1.9 8.9 4.5 6 5.8h7.5l2.6-2.5 6.9-1.8 1.3 5.6-.4 2.3 2.8 6.8.6 6-6.8-1.1-2.9 2.2 4.7 5.3 3.8 7.3-2.5.1 1.9 3.1 1.4 1.1-.4-2 4-4.5 5.1 3 3.2-.1 4.4-3.6 1-3.7 2.1-7.1 1.9-7.2-1.3-4.3 1-9-5.2-9.9-5.5-7.3-1.3-6.2-4.7-5.1-12.7-6.7-5.6-.4-.3 3-5.8-1.3-5.7-3.8-8-.7 4.9-14.1 3.5-11.5 13.1-1.8 14.9 1 2.5-2.8 7.9.8 4.3 4.3 6.4-.6 8.4-1.6-7.7-3.5v-9.8l9.1-1.9 12.1 7.1 3.6-6.4-3.2-4.7 4.7-.5 6.5 8.1-2.4 4.6-.8 6 .3 7.5-5.7 1.3 2.8 2.7-.1 3.6 6.4 8.3 16 13.4 10.5 8.8 5.7 4.3 1.6-5.7-4.5-6.2 5.7-1.5-5.4-6.9 5-3.1-4.7-2.6-3.4-5 4.1-.2-9-8.6-6.7-1.4-2.9-2.4-1.1-5.6-3.1-3.9 7 .8 1.3-2.5 4.7 2.2 6.1-4.6 11.4 4-1.7-2.6 2-3.6 1.5-4 3.1-.7 6.5-4.3 9.8 1.2-.9-1.5-3.8-2.3-4.1-1.6-9.1-4.6-8.1-3 6.1.4 2-2.5-32.9-21.9-9.4-2.3-15.7-2.6-7.9.3-15.2-1.4 1.8 2.3 8.5 3.4-2.5 1.8-14.2-4.8-6.8.6-9.2-1.1-7 .2-3.9 1.1-7.2-1.6-5.1-3.8-6.5-2.2-9.2-.9-14.7 1-16.1-4-7.8-3-40.1-3.4-2.1 2.2 9.3 4.8-7.5-.7-1 1.5-9.7-1.6-5 1.4-9.3-2.4 3 5.5-8.9-2.1-10-4.1-.4-2.2-6-3.3-9.8-2.6h-6.1l-9.3-.9 4.7 3.9-17.2-.8-3.9-2.3-13.3-.9-5.3.8-.1 1.3-5.8-3.2-2.3.9-7.2-1.2-5.6-.7 1.1-1.5 6.6-2.8 2.3-1.5-2.4-2.5-5.5-1.9-11.5-2.3-10.8-.1-1.9 1.2-4.1-2.4zm-162.2 31.6l-9.9-4.3-3.1-4.3 3.3-4.9 2.8-5 8.6-4.7 9.8-2.4 11.3-2.4 1.3-1.5-4.2-1.9-6.6.6-4.9 1.8-11.7.9-10.1 3.1-6.8 2.7 2.5 2.2-6.6 4.4 3.9.7-5.4 4.3 1.6 2.8-3.4 1.1 1.9 2.8 7.9 1.4 2.2 2.3 13.4.7 2.2-.4zm314-24.7l-17.9-2.6-10.2-.2-3.4.9 3.4 3.4 12.4 3.2 4.5-1.2 14.2.2-3-3.7zm25.2 2.3l-11.7-1.3-8.2-.7 1.7 1.6 10.3 2 6.8.4 1.1-2zm-12.5 9.5l-2.5-1.4-8.3-1.9-4.1.5-.8 2 1.1.2 8.8.6h5.8zM1522.4 80l-6-3.6-1.4 2.2 3.5 1.6 3.9-.2zM910 173.9l-.6-1.5.2-1.7-2.2-.9-5-1.1-6.3 2-.7 2.6 5.9.7 8.7-.1zm589.7 21.8l-7.2-6.2-5.1-6-6.8-5.8-4.9-4-1.3.8 4.4 2.8-1.9 2.8 6.8 8.3 7.8 6 6.4 8.3 2.4 4.6 5.5 6.8 3.8 6 4.6 5.2-.1-4.8 6.5 3.8-3-4.4-9.5-6.3-3.7-9 8.9 2-13.6-10.9z" fill="#000" fill-opacity=".12" stroke="#000" stroke-opacity=".04" stroke-linejoin="round"/><path fill-rule="evenodd" clip-rule="evenodd" d="M973.6 524.4l-3.3 1.9-1.4-.6-1.6 1.8-.2 3.8-.8.4-.6 3.5 3.5.5 1.7-3.6 3 .4 1.6-.8.4-3.7-2.3-3.6z" fill="#000" fill-opacity=".08" stroke="#000" stroke-opacity=".04" stroke-linejoin="round"/><path fill-rule="evenodd" clip-rule="evenodd" d="M1054.7 332l-10.2-.5-16.7-12.7-8.5-4.5-6.7-1.7-.9 1-10.4 3.1 6.1 6.4-1.7 1-.7 2.2-4 .8-1.1 2.3-2.1 2-6.1-1-.5 2.5v2.2l-.6 3.5h2.7l3.2 4.4 3.7 5.1 2.5 4.7 1.7 1.5 1.7 3.3-.2 1.4 2.1 3.7 3 1.3 2.8 2.5 3.6 7v3.8l.9 4.4 4 6.1 2.5 1 4.1 4.4 1.9 5.2 3.2 5.3 3 2.3.6 2.5 1.8 1.9.9 2.8 2.3-2.1-.7-2.7 1.2-3.1 2.4 1.7 1.5-.6 6.4-.2 1 .7 5.4.6 2.1-.3 1.6 2.1 2.5-1 3.5-6.7 5-2.9 15.7-2.4 16.1-6.4 2.6-12.7-2.9-4.5-1 1.3-16.8-3.2-2.6-6.4-.4-1.5-1.2-2.4-1.5.4-1.8-1.2-1-1.6-.9-2.1-1.7-1.8-1-2.1.4-2.1-.6-2.7-4-2.6-1.2-2.3-2.9-1.4-2.7-5.5-3.8.2-1.7-3.1-4.9-.6zm-47.9 81.5l.4-4.2 1.6-2 4-1 2.6-3.6-3.1-2.4-2.2-1.6-2.5-7.6-1.1-6.5 1.1-1.2-2.1-6.2h-65.3l.5 12.7h-6.3v2.7l1.1 25.2-4.8-.4-2.4 4.7-1.4 3.9 1.2 1.5-1.8 1.9.7 2.7-1.4 2.6-.5 2.4 2-.4 1.2 2.5.1 3.7 2.1 1.8v1.6l.7 2.7 3.3 4v2.6l-.8 2.6.3 2 2 1.8.5.3 1.7-.7 1.9-1.2 1.3-5.7 1.5-2.9 4-.9 1 1.8 3 3.7 1.5.5 2-1.1 4.1.3.8 1.3h5.5l.2-1.3 2.9-1.2.5-1.9 2.1-1.3 4.8 3.7 2.8-.7 2.7-4.5 3-3.5-.6-3.9-1.4-1.8 3.4-.3.3-1.5 2.6.5-.5 4.7.8 4.6 2.9 2.5.7 2.2v3.1l.8.1v-.7l1.4-6.7 2.6-1.8.5-2.6 2.3-4.8 3.2-3.2 2.1-6.2.7-5.5-.7-2.5 1.9-9.4z" fill="#000" fill-opacity=".12" stroke="#000" stroke-opacity=".04" stroke-linejoin="round"/><path fill-rule="evenodd" clip-rule="evenodd" d="M992 453.7l-.7-2.2-2.9-2.5-.8-4.6.5-4.7-2.6-.5-.3 1.5-3.4.3 1.4 1.8.6 3.9-3 3.5-2.7 4.5-2.8.7-4.8-3.7-2.1 1.3-.5 1.9-2.9 1.2-.2 1.3h-5.5l-.8-1.3-4.1-.3-2 1.1-1.5-.5-3-3.7-1-1.8-4 .9-1.5 2.9-1.3 5.7-1.9 1.2-1.7.7 3.8 2.5 3.1 2.6.1 2 3.8 3.4 2.4 2.7 1.5 3.8 4.2 2.5.9 2.1 3.5 5.2 2.5.8 1.5-1.1 2.6.4 3.1-1.3 1.4 2.7 5 4.2 2.3-1.7 3.5 1.4 4.5-1.5 4 .1 3.4-3 3.4-3.8 3.8-4.2-3.5-6.9-2.6-1.5-1-2.5-2.9-3.1-3.4-.5 1.8-3.6 3-.1.8-2-.2-5-.8-.1v-3.1z" fill="#000" fill-opacity=".08" stroke="#000" stroke-opacity=".04" stroke-linejoin="round"/><path fill-rule="evenodd" clip-rule="evenodd" d="M734.9 424.2l-3.6-4.4-3.2-4.7-3.7-1.7-2.6-1.8h-3.1l-2.8 1.4-2.7-.5-2 2-1.3 3.3-2.8 4.4-2.5 1.2 2.7 2.3 2.2 5 6.1-.2 1.3-1.5 1.8-.1 2.1 1.5 1.8.1 1.8-1.1 1.1 1.8-2.4 1.5-2.4-.1-2.4-1.4-2.1 1.5h-1l-1.4.9-5-.1.8 4.9 3-1.1 1.8.2 1.5-.7 10.3.3 2.7.1 4 1.5 1.3-.1.4-.7 3 .5.8-.4.3-2-.4-2.4-2.1-1.8-1.1-3.7-.2-3.9zm10.5 39.5l-1.5.3v-2.3l-.9-1.7.2-1.8-1.2-2.7-1.5-2.3H736l-1.3 1.2-1.5.2-1 1.4-.7 1.7-3 2.8.7 4.7.9 2.3 2.9 3.5 4.1 2.5 1.5.5 1.3-2 .3-1.9 2.6-3.4 2.6-3z" fill="#000" fill-opacity=".12" stroke="#000" stroke-opacity=".04" stroke-linejoin="round"/><path fill-rule="evenodd" clip-rule="evenodd" d="M313.2 432l.6-2.5-.7-.7-1.1-.5-2.5.8-.1-.9-1.6-1-1.1-1.3-1.5-.5-1.4.4.2.7-1.1.7-2.1 1.6-.2 1 1.4 1.3 3.1.4 2.2 1.3 1.9.6 3.3.1.7-1.5z" fill="#000" fill-opacity=".08" stroke="#000" stroke-opacity=".04" stroke-linejoin="round"/><path fill-rule="evenodd" clip-rule="evenodd" d="M910.8 230.2l-3.2-1.5-.8-1.9-2.9-2.5-3.2-.2-3.7 1.6 1.5 2.4 1.7 1.8-1.7 2.3h1.8l-1 2.7 2.7 2.3-.5 2.9-1.2.3 1.5 1.1.8.8 1.8.7 2 1.2-.4.6 1.2-.5.5-2 .9-.4.8.9 1 .4.8 1 .8.3 1.1 1.1h.8l-.5 1.5-.5.7.2.5 1.7-.4 2.4-.1.7-.9-.6-.7.7-2 1.7-1.9-2.8-2.6-.7-2.3 1.1-1.4-1-1 1.1-1.1-1.4-.7-1.4 1.3-3.1-1.8-.7-2.5zM494 478.8l-4.6.5-.6 1.1-6.7-1.2-1 5.7-3.5 1.6.3 1.5-1.1 3.3 2.4 4.6 1.8.1.7 3.5 3.3 5.6 3.1.5.5-1.3-.9-1.3.5-1.8 2.3.6 2.7-.7 3.2 1.4 1.4-2.7.6-2.9 1-2.8-2.1-3.7-.4-4.4 3.1-5.5-6-1.7zm419.4-272.9l-4.9-2.3-3.4.8-2.4-.6-2.8 1.3-2.7-2.2-1.9.9-.3-.4h-1.5l-.6 1.1-1.1.3-.2 1.4-.9.3-.1.6-1.6.6-2.2-.1-.6 1.4-.3.8.7 2.1 2.6 1.6 1.9.7 4.1-.8.3-1.2 1.9-.2 2.3-1 .6.4 2.2-.7 1-1.5 1.6-.4 5.5 1.9 1-.6.7-2.5 1.1-1.7zm-28 16.1l-1.2-2.1-.8-.1-.9 1.1-4.3.1-2.4 1.4-4.2-.4-.3 3 1.4 2.7-1.1.5 3.5.2.8-1 1.8 1 2 .1-.2-1.7 1.7-.6.3-2.5 3.9-1.7zm18.3-115.9l-1.9-2.2-1.7-8.4-7.2-3.7-5.9-2.7-2.5.3v3.5l-7.9-.9-.6 3.1-4-.1-2.2 3.9-3.4 6.1-5.7 7.9 1.8 1.9-1.3 2.2-4.3-.1-2.3 5.3 1 7.6 3.1 2.9-.9 6.9-3.4 4-1.7 3.3 4.2 8.4 4.4 6.7 2 5.7 5.3-.3 2.2-4.7 5.7.5 2-5.5.6-10 4.6-1.3 3.3-6.6-4.8-3.3-3.6-4 2.1-8.1 7.7-4.9 6.1-4.5-1.2-3.5 3.4-3.9 7-1.5z" fill="#000" fill-opacity=".12" stroke="#000" stroke-opacity=".04" stroke-linejoin="round"/><path fill-rule="evenodd" clip-rule="evenodd" d="M976.5 681.6l-2.7-1.2-1.6.5-.7 1.8-1.6 2.4-.1 2.2 3 3.5 3.3-.7 1.3-2.8-.3-2.8-.6-2.9zm33-376.7l11-6.7.9-7.8-1.2-4.7 2.7-1.6 2.1-4.1-5.9 1.1-2.8-.2-5.7 2.5h-4.3l-3-1.2-5.5 1.8-1.9-1.3.1 3.6-1.2 1.5-1.2 1.4-1 2.6 1.1 5 2.4.3 1.2 2.5-2.6 2.4-.9 3.5.3 2.6-.6 1h.1l6.3 2.5 9.6-6.7zm-75.1 87.7L912 380.4l-22.3-12.2-5.4 3.5 1.6 9.9 2 1.6.2 2.1 2.3 2.2-1.1 2.7-1.8 12.9-.2 8.3-6.9 6-2.3 8.4 2.4 2.3v4.1l3.6.2-.5 2.9 2.2 4.1.5 4.2-.2 4.3 3.1 5.8-3.1-.1-1.6.4-2.5-.6-1.2 3 3.3 3.7 2.5 1.1.8 2.6 1.8 4.4-.9 1.7 4.7-.4 1-1.7.9.2 1.4 1.4 7.1-2.4 2.3-2.5 2.9-2.2-.6-2.3 1.6-.6 5.4.4 5.2-2.9 4-7 2.8-2.5 3.5-1.1v-1.6l-2.1-1.8-.1-3.7-1.2-2.5-2 .4.5-2.4 1.4-2.6-.7-2.7 1.8-1.9-1.2-1.5 1.4-3.9 2.4-4.7 4.8.4-1.1-25.2z" fill="#000" fill-opacity=".08" stroke="#000" stroke-opacity=".04" stroke-linejoin="round"/><path fill-rule="evenodd" clip-rule="evenodd" d="M807.7 447.2l-4.9-.1-.4 1.9 2.4 3.3-.1 4.6.6 5.1 1.4 2.3-1.2 5.7.4 3.2 1.5 4 1.2 2.2 4.6-1.3-1.4-4.4.2-14.6-1.1-1.3-.2-3.1-2-2.3-1.7-1.9.7-3.3zm581-20.8l1.5-2.9-.5-5.4-5.2-5.5-1.3-6.3-4.9-5.2-4.3-.4-.8 2.2-3.2.2-1.8-1.2-5.3 3.8-1-5.7.4-6.7-3.8-.3-.9-3.8-2.6-1.9-3 1.4-2.8 2.8-3.9.3-1.5 6.9-2.2 1.1 3.5 5.6 4.1 4.6 2.9 4.2-1.4 5.6-1.7 1.1 1.7 3.2 4.2 5.1 1 3.5.2 3 2.8 5.8-2.6 5.9-2.2 6.6-1.3 6.1-.3 3.9 1.2 3.6.7-3.8 2.9 3.1 3.2 3.5 1.1 3.2 2.4 2.4.9-1.1 4.7 2.8.6 3.3 3.7-.8 1.7-2.6-3.1-3.3-3.4-.8-3.3-3.6-1.4-5.5-2.6-5.8-3.7-.2-.7-4.6 1.4-5.6 2.2-9.3-.2-7 4.9-.1-.3 5 4.7-.1 5.3 2.9-2.1-7.7 3-5.2 7.1-1.3 5.3 1z" fill="#000" fill-opacity=".12" stroke="#000" stroke-opacity=".04" stroke-linejoin="round"/><path fill-rule="evenodd" clip-rule="evenodd" d="M1170.1 260.7l-2.1.2-1.3-1.8.2-2.9-6.4 1.5-.5 4-1.5 3.5-4.4-.3-.6 2.8 4.2 1.6 2.4 4.7-1.3 6.6 1.8.8 3.3-2.1 2.1 1.3.9-3 3.2.1.6-.9-.2-2.6 1.7-2.3 3.2 1.5v2l1.6.3 1 5.4 2.6 2.1 1.5-1.3 2.1-.7 2.5-2.9 3.8.5h5.4l-1.8-3.7-.6-2.5-3.5-1.4-1.6.6-3-5.9-9.5.9-7.1-2-5.4.5-.6-3.7 5.9 1.1 1.4-2zm-18.5 18.5l-.8-4-7.7-2.7-6.2-3.2-4.2-3-7-4.4-4.3-6.4-2-1.2-5.5.3-2.3-1.3-1.9-4.9-7.8-3.3-3.3 3.6-3.8 2.2 1.6 3.1-5.8.1-2.5.3-4.9-4.9-3.8-1.7-5.5 1.3-1.8 2 2.5 4-.5-4.5 3.7-1.6 2.4 3.6 4.6 3.7-4 2-5.3-1.5.1 5.2 3.5.4-.4 4.4 4.5 2.1.7 6.8 1.8 4.5 4.4-1.2 3-3.7 3.5.2 2.1-1.2 3.8.6 6.5 3.3 4.3.7 7.3 5.7 3.9.2 1.6 5.5 5.9 2.4 3.9-.8.4-3 4-.9 2.5-2-.1-5.2 4.1-1.2.3-2.3 2.9 1.7 1.6.2z" fill="#000" fill-opacity=".08" stroke="#000" stroke-opacity=".04" stroke-linejoin="round"/><path fill-rule="evenodd" clip-rule="evenodd" d="M1502.8 576.9l4.9-1.8 6-2.8 2.2-1.7-2-.8-1.8.8-4 .2-4.9 1.4-.8 1.5.5 1.3-.1 1.9zM864 306.4l-2-1-1.5-3-2.8-.1-1.1-3.5 3.4-3.2.5-5.6-1.9-1.6-.1-3 2.5-3.2-.4-1.3-4.4 2.4.1-3.3-3.7-.7-5.6 2.6-1 3.3 1 6.2-1.1 5.3-3.2 3.6.6 4.8 4.5 3.8v1.5l3.4 2.6 2.6 11.3 2.6-1.4.4-2.7-.7-2.6 3.7-2.5 1.5-2 2.6-1.8.1-4.9zm128.6-52.5l-9.7-4.4-8.5.2-5.7 1.7-5.6 4-9.9-.8-1.6 4.8-7.9.2-5.1 6.1 3.6 3-2 5 4.2 3.6 3.7 6.4 5.8-.1 5.4 3.5 3.6-.8.9-2.7 5.7.2 4.6 3.5 8-.7 3.1-3.7 4.6 1.5 3.2-.6-1.7 2.4 2.3 3 1.2-1.4 1.2-1.5-.1-3.6 1.9 1.3 5.5-1.8 3 1.2h4.3l5.7-2.5 2.8.2 5.9-1.1 2.1-1 6.2.9 2.1 1.6 2.3-1.1-3.7-5.2.7-2-2.9-7.3 3.3-1.8-2.4-1.9-4.2-1.5v-3.1l-1.3-2.2-5.6-3-5.4.3-5.5 3.2-4.5-.6-5.8 1-7.8-2.4zm-49.6 4l2-1.9 6.1-.4.7-1.5-4.7-2-.9-2.4-4.5-.8-5 2 2.7 1.6-1.2 3.9-1.1.7.1 1.3 1.9 2.9 3.9-3.4zm525.3 114.3l1.2-10.2.1-3.9-2.9-1.9-3.3 4.8-1.9 6.3 1.5 4.7 4 5.4 1.3-5.2z" fill="#000" fill-opacity=".12" stroke="#000" stroke-opacity=".04" stroke-linejoin="round"/><path fill-rule="evenodd" clip-rule="evenodd" d="M975.6 523.6l-2 .8 2.3 3.6-.4 3.7-1.6.8.3 2.5 1.2 1.5v2l-1.4 1.4-2.2 3.3-2.1 2.3-.6.1-.3 2.7 1.1.9-.2 2.7 1 2.6-1.3 2.4 4.5 4.3.3 3.9 2.7 6.5.3.2 2.2 1.1 3.5 1.1 3.2 1.9 5.4 1.2 1.1 1.7.4-1.2 2.8 3.4.3 6.7 1.8 2.4v.1l2.1-.3 6.7 1.8 1.4-.8 3.9-.1 2.1-1.9 3.3.1 6.2-2.5 4.6-3.7-2-1.4-2.2-6.3-1.8-3.9.4-3.1-.3-1.9 1.7-3.9-.2-1.6-3.5-2.3-.3-3.6 2.8-7.9-8-6.3-.4-3.7-20.2-13-2.8 2.8-1.9 2.9 2.2 2.2-3.2 1.6-.7-.8-3.2.4-2.5 1.4-1.6-2.4 1.1-4.5.2-3.8-6.2-.1z" fill="#000" fill-opacity=".08" stroke="#000" stroke-opacity=".04" stroke-linejoin="round"/><path fill-rule="evenodd" clip-rule="evenodd" d="M993.6 490.1l-3.4 3-4-.1-4.5 1.5-3.5-1.4-2.3 1.7-.3 7.5 2.3.8-1.8 2.3-2.2 1.7-2.1 3.3-1.2 3-.3 5.1-1.3 2.4-.1 4.8 1.4.6 3.3-1.9 2-.8 6.2.1-.3-2.5 2.6-3.7 3.5-.9 2.4-1.5 2.9 1.2.3.5v-.3l1.6-2.6 2.7-4.2 2.1-4.7-2.6-7.3-.7-3.2-2.7-4.4z" fill="#000" fill-opacity=".08" stroke="#000" stroke-opacity=".04" stroke-linejoin="round"/><path fill-rule="evenodd" clip-rule="evenodd" d="M964.5 186l-4.8.5-1.5-.3-1 1.4-1.8-.2-4.1.3-1.2 1.4.2 3.1-2-.6-4.3.3-1.5-1.5-1.6 1.1-2-.9-3.8-.1-5.6-1.5-5-.5-3.7.2-2.4 1.6-2.2.3 3.1 5.3-.3 1.8-2.3.7-3.8 5.1 1.6 2.8-1.1-.4-1.1 1.7-.7 2.5 2.9 1.7.6 1.6 1.9-1.3 3.2.7h3.2l2.4 1.5 1.6-.9 3.6-.6 1-1.5h2.1l1.1-.9 3.2-.6 3.9 1.9 2 .3 2.5 1.6v2.1l1.9 1.1 1.1 2.6 2 1.5-.2 1 1 .6-1.2.5-3-.2-.6-.9-1 .5.5 1.1-1.1 2-.5 2.1-1.2.7 2.4 1.1 2.2-1 2.4 1.1 3.3-4.6 1.3-3.4 4.5-.8.7 2.4 8 1.5 1.7 1.4-4.5 2.1-.7 1.2 5.8 1.8-.6 2.9 3 1.3 6.3-3.6 5.3-1.1.6-2.2-5.1.4-2.7-1.5-1-3.9 3.9-2.3 4.6-.3 3-2 3.9-.5-.4-2.8 2.2-1.7 4.7-.5.3-2.1-1.8-3.4 1.3-3.2-.4-1.9-7.6-2-2.9.1-3.6-2.9-3.5 1-6.6-2.2-.2-1.2-2.2-2.7-4-.2-.7-1.9.9-1.3-3.8-3.4z" fill="#000" fill-opacity=".12" stroke="#000" stroke-opacity=".04" stroke-linejoin="round"/><path fill-rule="evenodd" clip-rule="evenodd" d="M518.5 732l-2.1-3.7 1.9-3-3.8-4.3-4.8-3.5-6.2-4.1-1.9.2-6.2-4.9-3.4.7-.5 5.1-.3 6.5 1.1 6.3-.9 1.4.4 4.2 3.9 3.5 3.6-.2 5.4 2.7 2.7-.6 4.2 1.2 5.3-3.5 1.6-4z" fill="#000" fill-opacity=".08" stroke="#000" stroke-opacity=".04" stroke-linejoin="round"/><path fill-rule="evenodd" clip-rule="evenodd" d="M22.7 395.7l2-.9 2.5-1.4.2-.4-.9-2.2-.7-.8-.8-.6-1.9-1.1-.4-.1-.4.6v1.3l-1.2 1-.4.7.4 2.3-.6 1.8 1.2.9 1-1.1zm-.6-9.9l.6-.7-1.2-1-1.8-.6-.7.5v.4l.5.5.6 1.4 2-.5zm-3-3.4l-2.6-.2-.6.7 2.9.2.3-.7zm-4.7-.9l-1.1-2.1-.3-.4-1.7.9.1.2.4 1.5 1.8.2.4.1.4-.4zm-8.3-4.2l.3-1.5-1.3-.1-1 .6-.4.5 1.6 1.1.8-.6zm332.1-173.2h-1.6l-1.3 2.4H199.4l-1.6 5.1-2.4 5.1-2.3 1.6 1.1-5.9-5.8-2.1-1.4 1.2-.4 2.9-1.8 5.4-4.2 8.3-4 5.6-4 5.6-5.4 5.8-1.1 4.7-2.8 5.3-3.9 5.2 1 3.4-1.9 5.2 1.5 5.4 1.3 2.2-.8 1.5.4 9 2.5 6.5-.8 3.5 1 1 4.6.7 1.3 1.7 2.8.3-.1 1.9 2.2.7 2.1 3.7-.3 3.2 6.3-.5 7-.7-1 1.3 7.1 3.1 10.7 4.4h15l.8-2.6h9.3l1.3 2.2 2.1 2 2.4 2.8.8 3.3.4 3.5 2.2 1.9 4 1.9 4.8-5 4.4-.1 3.1 2.5 1.6 4.4 1 3.7 2.4 3.6.2 4.5.8 3 3.9 2 3.6 1.4 2.1-.2-.6-2.2.4-3.1 1-4.4 1.9-2.8 3.7-3.1 6-2.7 6.1-4.7 4.9-1.5 3.5-.4 3.5 1.4 4.9-.8 3.3 3.4 3.8.2 2.4-1.2 1.7.9 1.3-.8-.9-1.3.7-2.5-.5-1.7 2.4-1 4.2-.4 4.7.7 6.2-.8 3 1.5 2 3 .9.3 6.1-2.9 1.9 1 3 5.3.8 3.5-2 4.2.4 2.5 1.6 4.9 2 5.5 1.8 1.4.4 2.8 2.6.8 1.7-.8 2-3.9.7-2.5.9-4.3-1.2-7.4.5-2.7-1.5-4.5-.7-5.4.1-4.4 1.8-4.5 3.5-3.8 3.7-3 6.9-4.1 1.3-2.2 3.3-2.3 2.8-.4 4.4-3.8 6-1.9 4.6-4.8.9-6.5.1-2.2-1.4-.4 1.5-6.2-3-2.1 3.2 1v-4.1l1.9-2.7-1 5.3 2 2.5-2.9 4.4.4.2 4.4-5.1 2.4-2.5.6-2.5-.9-1.1-.1-3.5 1.2 1.6 1.1.4-.1 1.6 5.2-4.9 2.5-4.5-1.4-.3 2.1-1.8-.4.8h3.3l7.8-1.9-1.1-1.2-7.9 1.2 4.8-1.8 3.1-.3 2.4-.3 4.1-1.1 2.4.1 3.8-1 1-1.7-1.1-1.4-.2 2.2-2.1-.1-.6-3.3 1.1-3.3 1.4-1.3 3.9-3.7 5.9-1.8 6-2.1 6.3-3-.2-2-2.1-3.5 2.8-8.5-1.5-1.8-3.7 1.1-1.1-1.7-5.5 4.7-3.2 4.9-2.7 2.8-2.5.9-1.7.3-1 1.6h-17l-2.7 1.2-6.7 4.2.2.9-.6 2.4-4.6 2-3.9-.5-4-.2-2.6.7-.3 1.8-.1.6-5.8 3.7-4.5 1.8-2.9.8-3.7 1.7-4 .9-2.5-.3-2.7-1.3 2.7-2.4 2-2.2 3.7-3.4.7-2.5.5-3.5-1.6-.7-4.3 2.8-.9-.1.3-1.5 3.8-2.5 1.6-2.8.7-2.8-2.7-2.4-3.7-1.3-1.7 2.4-1.4.6-2.2 3.1.4-2.1-2.6 1.5-2.1 2-2.6 3.1-1.3 2.6.1 3.8-1.8 4-3.3 3-1.4.9-1.6.7h-1.8l-.3-.4-.1-3.3.7-1.6.7-1.5.6-3 2.5-3.5 2.9-4.3 4.6-4.7h-.7l-5.4 4-.4-.7 2.9-2.3 4.7-4 3.7-.5 4.4-1.3 3.7.7h.1l4.7-.5-1.5-2.5-1.2-.2-1.4-.3-.4-1.7-5.1.5-5 1.4-2.5-2.3-2.5-.8 3.1-3.3-5.3 2-4.9 2.1-4.6 1.5-2.1-2.1-5.5 1.3.4-.9 4.6-2.6 4.7-2.5 5.9-2.1-5.3-1.6-4.4.8-3.8-1.9-4.6-1-3.2-.4-1-1 .8-3.4zM97.6 157.2l6.9-2.8v-1.8l-2.6-.4-3.4.9-6.4 2.1-2.2 2.7.7 1.6 7-2.3zm-38.7-16.4l2.3-2.3-2.9-.5-5.7 1 .8 1.6 1.6 1.1 3.9-.9zm1.2-22.3l-3.1 2.2.4.5 4.2-.4.3 1.1 1.7 1.2 4.9-1.2 1.2-.6-3.3-.8-1.6-1.5-3.4.6-1.3-1.1zM185 78.3l-4.4-1.1-10.2 2.8-3.2-.3-11 2.3-4.8.6-7.8 2.5-4.8 2.6-8.6 2.5-7.6.1-6.3 2.9 3.2 1.7.7 2.3-.8 2.7 2.3 2.1-1.2 3.5-9.2.2 4.3-2.8h-3.4l-13.1 2.7-9.1 2.3 1 3.3-1.2 2.2 4.5 1.4 6.9-.7 1.8 1.3 2.9-1.3 6.1-1.2h2.7l-5.9 2.1 1.1 1-2.5 2.6-5.5 1.8-2.5-.5-7 2.7-1.8-.9-4.1.4-5.3 3-7.6 3.1-5.8 3.4.3 2.4-4 3.3 1.4 1.4.5 2.7 7.2-1.1.4 2.1-3.3 2.1-3.6 3.5h2.8l7.2-2.3-1.6 2.9 3.6-2.1-.4 3 4.8-2.2.4 1.1 7.2-1.8-6.2 3.4-5.7 4.5-5.7 2.1-2.3 1.2-10.3 3.6-4.9 2.4-6.5.7-8.5 3.3-6.6 1.8-8.1 2.8-.4 1 10-1.7 6-2 6.9-2 6.1-1.7 2.8.5 8.1-2.6 4.5-2.8 10.5-3.1 3.9-2.6 6.6-1.8 7.6-2.5 8.9-4.2-.2-2.9 11.1-4.1 7.4-3.9 9.2-3.2-.4 1.4-6.7 1.8-8.3 5.7-3.2 3.5 6.4-1.3 6.1-1.9 6.5-1.3 2.9-.3 3.5-4.1 6.3-1.2 2.6 2.5 6 2.7 6.7-.5 5.7 2 3.2 1.1 3.3 6.1 3.7 1.7 7.1.2 4.1.4-2.7 5.5 1.6 4.9-3.3 5.2 2.5 1.9.6 2.2 5.1-2.9 3.1-3.7-4.6-3.8 1.5-6.8 1.1-4.2-1.7-2.7-.7-2.4.5-3-6.4 1.9-7.6 3.3-.2-3.9-.6-2.6-2.7-1.6-4.2-.1 35.4-32.4 24.3-20.2-3.5-.7-4.1-1.6-6.5.8-2.2-.7-7.1-.5-6.2-1.6-4.8.5-4.9-.9 2-1.2-6.3-.3-3.3 1 .5-2.4zm980.8 169.8l-2.5 1.2-5.4 4.3-.9 4.5h-1.9l-2.3-3-6.6-.2-2.6-5-2.5-.1-1.5-6.2-7.5-4.5-8.6.5-5.7.9-6.5-5.5-4.8-2.3-9.1-4.5-1.1-.5-11.9 3.6 6.2 22.8 5.8-.1-1.6-3.1 3.8-2.2 3.3-3.6 7.8 3.3 1.9 4.9 2.3 1.3 5.5-.3 2 1.2 4.3 6.4 7 4.4 4.2 3 6.2 3.2 7.7 2.7.8 4h2.9l4.3 1.4 1.3-6.6-2.4-4.7-4.2-1.6.6-2.8 4.4.3 1.5-3.5.5-4 6.4-1.5-.2 2.9 1.3 1.8 2.1-.2 4.1.6 5.2-4.5-7.1-3.3-3.2 1.6-4.6-2.3 3.1-4.1-1.8-.6z" fill="#000" fill-opacity=".12" stroke="#000" stroke-opacity=".04" stroke-linejoin="round"/><path fill-rule="evenodd" clip-rule="evenodd" d="M468 463.9l-2.2-1.5-2.9.2-.7-5.1-4.1-3.2-4.4-.4-1.8-3 4.8-1.9-6.7.1-6.9.4-.2 1.6-3.2 1.9-4.2-.7-3.1-2.9-6 .7-5-.1-.1-2.1-3.5-3.5-3.9-.1-1.7-4.5-2.1 2 .6 3-7.1 2.6v4.8l1.6 2.2-1.5 4.6-2.4.4-1.9-5 2.7-3.7.3-3.3-1.7-2.9 3.3-.8.3-1.5-3.7 1.1-1.6 3.2-2.2 1.8-1.8 2.4-.9 4.5-1.8 3.7 2.9.5.6 2.9 1.1 1.4.4 2.5-.8 2.4.2 1.3 1.3.6 1.3 2.2 7.2-.6 3.2.8 3.8 5.5 2.3-.7 4 .3 3.2-.7 2 1.1-1.2 3.4-1.3 2.1-.5 4.6 1 4.2 1.5 1.9.2 1.5-2.9 3.1 2 1.4 1.4 2.2 1.7 6.4 3 3.4 4.4-.5 1.1-1.9 4.2-1.5 2.3-1 .7-2.7 4.1-1.8-.3-1.4-4.8-.5-.7-4 .3-4.3-2.4-1.6 1-.6 4.2.8 4.4 1.6 1.7-1.5 4-1 6.4-2.4 2.1-2.4-.7-1.8-3.7-4.8 1.6-1.8v-2.9l3.4-1.1 1.5-1.2-1.9-2.3.6-2.3 4.6-3.8zm929.6-83.9l-5.9-1.6-3-2.6.2-3.7-5.2-1.1-3-2.4-4.1 3.4-5.3.7h-4.3l-2.7 1.5 4 5.1 3.4 5.7 6.8.1 3 5.5-3.3 1.7-1.3 2.3 7.3 3.8 5.7 7.5 4.3 5.6 4.8 4.4 2 4.5-.2 6.4 1.8 4.2.1 7.7-8.9 4.9 2.8 3.8-5.8.5-4.7 2.5 4.5 3.7-1.3 4.3 2.3 4 6.6-5.9 4.1-5.3 6.1-4.1 4.3-4.2-.4-11.2-4-11.7-4.1-5.1-5.6-4-6.4-8.3-5.3-6.7.5-4.4 3.7-6 6.5-5.5z" fill="#000" fill-opacity=".08" stroke="#000" stroke-opacity=".04" stroke-linejoin="round"/><path fill-rule="evenodd" clip-rule="evenodd" d="M1734.6 621.9l-2.7-3.6-.6 1.7 1.3 2.8 2-.9zm-2-9.7l-2.3-2-.9 4.9.5 1.8 1.2-.4 1.3.8.2-5.1z" fill="#000" fill-opacity=".12" stroke="#000" stroke-opacity=".04" stroke-linejoin="round"/><path fill-rule="evenodd" clip-rule="evenodd" d="M1097.5 411.2l-2.1-4.4-5.2-10.5-15.7 2.4-5 2.9-3.5 6.7-2.5 1-1.6-2.1-2.1.3-5.4-.6-1-.7-6.4.2-1.5.6-2.4-1.7-1.2 3.1.7 2.7-2.3 2.1.4 2.7-.6 1.3.7 2.9-1.1.3 1.7 2.6 1.3 4.7 1 1.9v3.4l1.6 3.8 3.9.3 1.8-.9 2.7.2.8-1.7 1.5-.4 1.1-1.7 1.4-.4 4.7-.3 3.5-1.2 3.1-2.7 1.7.4 2.4-.3 4.7-4.5 8.8-3 5.3-2.7v-2.1l.9-2.9 3.9-1.7z" fill="#000" fill-opacity=".08" stroke="#000" stroke-opacity=".04" stroke-linejoin="round"/><path fill-rule="evenodd" clip-rule="evenodd" d="M974.2 658.7l-2.9-.6-1.9.8-2.6-1.1-2.2-.1-8 4.7-5.2 4.7-2 4.3-1.7 2.4-3 .5-1.2 3-.6 2-3.6 1.5-4.4-.3-2.5-1.8-2.3-.8-2.7 1.5-1.5 3.1-2.7 1.9-2.8 2.8-4 .7-1.1-2.3.7-3.8-3-6.1-1.4-1-1.1 23.6-5 3.2-2.9.5-3.3-1.2-2.4-.5-.8-2.7-2.1-1.8-2.7 3.2 3.5 8.2v.1l2.5 5.3 3.2 6-.2 4.8-1.7 1.2 1.4 4.2-.2 3.8.6 1.7.3-.9 2.1 2.9 1.8.1 2.1 2.3 2.4-.2 3.5-2.4 4.6-1 5.6-2.5 2.2.3 3.3-.8 5.7 1.2 2.7-1.2 3.2 1 .8-1.8 2.7-.3 5.8-2.5 4.3-2.9 4.1-3.8 6.7-6.5 3.4-4.6 1.8-3.2 2.5-3.3 1.2-.9 3.9-3.2 1.6-2.9 1.1-5.2 1.7-4.7h-4.1l-1.3 2.8-3.3.7-3-3.5.1-2.2 1.6-2.4.7-1.8 1.6-.5 2.7 1.2-.4-2.3 1.4-7.1-1.1-4.5-2.2-9zm-20.1 52.8l-2 .6-3.7-4.9 3.2-4 3.1-2.5 2.6-1.3 2.3 2 1.7 1.9-1.9 3.1-1.1 2.1-3.1 1-1.1 2z" fill="#000" fill-opacity=".12" stroke="#000" stroke-opacity=".04" stroke-linejoin="round"/><path fill-rule="evenodd" clip-rule="evenodd" d="M975.2 571.7l-1.9-.5.4-1.3-1-.3-7.5 1.1-1.6.7-1.6 4.1 1.2 2.8-1.2 7.5-.8 6.4 1.4 1.1 3.9 2.5 1.5-1.2.3 6.9H964l-2.1-3.5-2-2.8-4.3-.8-1.2-3.4-3.4 2-4.5-.9-1.8-2.8-3.5-.6-2.6.1-.3-2-1.9-.1.5 2-.7 3 .9 3-.9 2.4.5 2.2-11.6-.1-.8 20.3 3.6 5.2 3.5 4 4.6-1.5 3.6.4 2.1 1.4v.5l1 .5 6.2.7 1.7.7 1.9-.1 3.2-4.1 5.1-5.3 2-.5.7-2.2 3.3-2.5 4.2-.9-.3-4.5 17.1-5.2-2.9-1.7 1.9-5.9 1.8-2.2-.9-5.3 1.2-5.1 1-1.8-1.2-5.4-2.6-2.8-3.2-1.9-3.5-1.1-2.2-1.1-.3-.2.5 1.1-1 .4-1.2-1.4z" fill="#000" fill-opacity=".08" stroke="#000" stroke-opacity=".04" stroke-linejoin="round"/><path fill-rule="evenodd" clip-rule="evenodd" d="M974.2 658.7l6.2-7.2 1.6-4.6.9-.6.8-3.7-.8-1.9.5-4.7 1.3-4.4.3-8.1-2.8-2-2.6-.5-1.1-1.6-2.6-1.3-4.6.1-.3-2.4-4.2.9-3.3 2.5-.7 2.2-2 .5-5.1 5.3-3.2 4.1-1.9.1-1.7-.7-6.2-.7 1.9 5.1 1.1 1.1 1.6 3.7 6 7 2.3.7-.1 2.2 1.5 4.1 4.2.9 3.4 2.9 2.2.1 2.6 1.1 1.9-.8 2.9.6zm75.2-208l-2.6-2.7-1.2-2.6-1.8-1.2-2 3.4-1.1 2.3 2.2 3.5 2.1 3.1 2.2 2.2 18.5 7.6 4.8-.1-15.4 19.1-7.4.3-4.9 4.5-3.6.1-1.5 2-4.8 7.2.2 23.2 3.3 5.3 1.3-1.5 1.3-3.4 6.1-7.7 5.3-4.8 8.3-6.4 5.6-5.1 6.4-8.7 4.7-7.1 4.6-9.3 3.2-8.2 2.5-7.1 1.3-6.8 1.1-2.3-.2-3.4.4-3.7-.2-1.7h-2.1l-2.6 2.2-2.9.6-2.5.9-1.8.2-3.2.2-1.9 1.1-2.8.5-4.8 1.9-6.1.8-5.2 1.6h-2.8z" fill="#000" fill-opacity=".08" stroke="#000" stroke-opacity=".04" stroke-linejoin="round"/><path fill-rule="evenodd" clip-rule="evenodd" d="M507.4 501.2l1.8-4.7 3.5-5.8-.9-2.6-5.8-5.4-4.1-1.5-1.9-.7-3.1 5.5.4 4.4 2.1 3.7-1 2.7-.6 2.9-1.4 2.8 2.4 1.3 1.8-1.8 1.2.3.8 1.8 2.7-.5 2.1-2.4zm344.3-252.4l-1.1-5.2-3.2 2.3-1 2.3 1.4 4.2 2.4 1.2 1.5-4.8zm-31.5-50.9l-2.4-2.4-2.2-.1-.7-2.2-4.3 1.2-1.4 5.1-11.3 4.8-4.6-2.6 1.4 7-8.2-1.6-6.4 1.3.4 4.6 7.5 2.4 3.6 3.1 5.1 6.5-1 12.3-2.7 3.7 2 2.4 9.4 2.8 1.9-1.3 5.7 2.8 6-.8.5-3.7 7.4-2 10 1.6 4.5-3.4.5-2.7-2.7-.8-1.5-4.8 1.7-1.8-1.6-2.4.2-1.7-1.8-2.7-2.4.9v-2.8l3.5-3.5-.2-1.6 2.3.6 1.3-1 .5-4.5 2.3-4.2-7.1-1.2-2.4-1.6-1.4.1-1.1-.5-4.4-2.8-2.5.4-3.4-2.9z" fill="#000" fill-opacity=".12" stroke="#000" stroke-opacity=".04" stroke-linejoin="round"/><path fill-rule="evenodd" clip-rule="evenodd" d="M811 270.7v-.2h-.5l-.3-.4-.1.2-.1.2v.2h.5l.4.1.1-.1zm-.8-1.6h.3l.6-.7v-.3l-.3-.2-1.1.2-.2.3v.3l-.3.1-.1.4.1.2.8.1.2-.4zM793 241l-8.2-.2-4.2.3-5.4-1h-6.8l-6.2-1.1-7.4 4.5 2 2.6-.4 4.4 1.9-1.6 2.1-.9 1.2 3.1h3l.9-.8 3 .2 1.3 3.1-2.4 1.7-.2 4.9-.9.9-.3 3-2.2.5 2 3.8-1.6 4.3 1.8 1.9-.8 1.7-2 2.5.4 2.1 4.8 1 1.4 3.7 2 2.2 2.5.6 2.1-2.5 3.3-2.3 5 .1h6.7l3.8-5 3.9-1.3 1.2-4.2 3-2.9-2-3.7 2-5.1 3.1-3.5.5-2.1 6.6-1.3 4.8-4.2-.3-3.5-6 .8-5.7-2.8-1.9 1.3-9.4-2.8-2-2.4zm26 22.6l.1-.3.1-.2.1-.1-.2-.2v-.1l.2-.2-.2-.1-1.3.4-.7.4-2.1 1.5v.3l.1.2h.4l.2.4.4-.4.3-.1.3.1.3.2.1.6.1.2.6.1.9.4.4-.2.5-.3.2-.6.3-.5.3-.5.3-.4-.1-.4-.3-.1-.3-.1-.5.2-.5-.2zm6-.3l.1-.4v-.1l-.5-.7-.9-.3-1 .1-.1.1v.4l.1.1.6.1 1.6.7h.1zM412.6 437.9l-.1-.1-.3-.6-.3-.3-.1.1-.1.3.3.3.3.4.3.1v-.2zm41.3-36.7l.1-.2-.2-.1-.8.5v.1l.9-.3z" fill="#000" fill-opacity=".12" stroke="#000" stroke-opacity=".04" stroke-linejoin="round"/><path fill-rule="evenodd" clip-rule="evenodd" d="M811.4 246.7l.1-.2.1-.2v-.1l-.2-.1-.7-.2-.3-.1-.2.1-.2.2-.1.3.1.1v.4l.1.2h.4l.3-.1.5-.3h.1zM460.3 408.8l.2-.1v-.3l-.1-.1-.1-.2-.4-.2-.5.5v.2l.1.3.6.1.2-.2zm.2-3.5v-.5l-.1-.2h-.3l-.1-.1h-.1l-.1.1.1.6.5.3.1-.2zm-60.1-23l.2-.6-.3-.1-.5.7-.6.3h-.3l-.7-.3h-.5l-.4.5-.6.1.1.1v.2l-.2.3v.2l.1.3 1.5-.1 1.3-.2.7-.9.2-.5zm.8-2l-.4-.3-.4.3.1.3.7-.3zm0-5.8l-.4-.2-.3.5.3.1.7-.1.5.1.5.4.3-.2-.1-.1-.4-.3-.6-.1h-.2l-.3-.1zm-6.6 1.3l.7-.6.7-.3.9-1.1-.1-.9.2-.4-.6.1-.1.3-.1.3.3.4v.2l-.2.4-.3.1-.1.2-.3.1-.4.5-.8.6-.2.3.4-.2zm1.2-3.2l-.6-.2-.2-.4-.4-.1-.1.2v.2l.1.4.2-.1.8.4.4-.3-.2-.1zm-4.1-1.1v-.7l-.4-.5-.6-.4-.1-1.2-.3-.7-.2-.6-.4-.8v.5l.1.1.1.6.4.9.1.4-.1.4-.4.1-.1.2.5.3.8.3.5 1.3.1-.2zm-4.1-3.5l-.5-.3-.2-.3-.7-.7-.3-.1-.2.4.4.1.9.7.4.2h.2zm7.3-4l-.1-.3h-.1l-.3.1-.3.9h.3l.5-.7zm-17.6-1.1l-.2-.3-.3.2h-.5l-.2.1h-.4l-.3.2.4.8.3.3.1 1 .2.1-.1.7 1.1.1.4-.8v-1.7l-.3-.5-.4.6-.4-.3.6-.4v-.1zm12.9.3l-1-1.4v-.2l-.5-1.5-.3-.1-.1.1-.1.2.4.4v.4l.3.2.4 1.1.4.4-.1.3-.4.3-.1.2h.1l.6-.1h.4v-.3zm-10.5-5.2l.5-.2-.3-.2h-.7l-.4.1-.2.2.1.1.4.1.6-.1zm-2.4 2l-.5-.6-.3-.9-.2-.4.1-.5-.3-.4-.6-.4-.3.1.1 1.1-.2.6-.8 1.1.1.4.1.2-.5.4v-.3l-.6.1.3.5.6.4.3.1.3-.2v.5l.3.4.1.4.3-.3.6-.2.2-.2.7-.4v-.2l.1-.6.1-.7zm6.7-5l-.3-.5-.1.1-.1.4-.3.4.5-.1.4.1.6.5.7.2.3.6.6.6v.6l-.4.6-.1.7-.6.1.1.1.3.3.1.4.2.2v-.7l.3-.8.4-1.3-.1-.3-.3-.3-.7-.9-.7-.3-.8-.7zm-8.8-7.9l-.5-.4-.2.4v.1l-.1.3-.5.4-.5.1-.7-.6-.2-.1.8 1.1.3.1h.4l.9-.3 1.6-.5 1.7-.2.1-.2-.1-.3-.8.2-1-.1-.2.2h-.4l-.6-.2zm6.1 5.2l.2-.3.4-1.8.8-.6.1-1.2-.5-.5-.4-.2-.1-.2.1-.2-.2-.1-.3-.2-.4-.6-.4-.4-.7-.1-.6-.1-.4-.1-.5.3h.8l1.5.3.7 1.5.5.4.1.4-.2.4v.4l-.3.5-.1.8-.3.4-.7.5.4.2.3.6.2-.1zm74.9-40.5l.4-.6h-.1l-.5.5-.6.2.1.1h.1l.6-.2zm14.7 122.1l.4-.4-.3-.3-.6-.8-.3.1v1l.1.3.5.3.2-.2zm576.2 161.6l-.4-.4h-.4v.2l.1.4 1.1.2-.4-.4zm3.9-1.5h-.1l-.2.1-.1.2-.1.3h-.9l.8.5.5.5.2.2.1-.2.1-.7-.3-.9zm-5.6-1.1l.2-.3-.2-.7-.4-.8.1-1.4-.2-.2h-.3l-.1.1-.1.3-.3 2 .4.6.3.1.5.4.1-.1zm-378-170.3l.1-.4-.2-.6-.3-.1-.6.4-.1.3.1.3.3.3.3.1.4-.3zm6.3-1.7l.4-.2v-.7l-.1-.3h-.4l-.2.4v.5l.2.3h.1zm-1.4.8l-.5-.9-.3-.1-.6-.7v-.3l-.3-.1v.6l-.2.5v.5l.4.8.4.2.7.1.4-.6zm3.1-7.8v.5l-.3.7.5.3.3.1.6-.4.2-.5-.1-.3-.3-.3-.3-.1-.1.1-.5-.1zm-6.4-2.5l-1-.1-.6-.2h-.1v.3l.4.8.2-.5.2-.1.8.2.4-.1-.1-.1-.2-.2zm6.7-.2l-.1-.5v-.7h-.2l-.3.2.1.7.1.1.2.5.2-.3zm-11.1-1v-.2l-.3-.5-.3.1-.4.2-.1.3.4.2h.2l.5-.1zm-1.5-.9l.8-.6.2-.3-.2-.5-.5-.1-1.2.6-.1.2.1.3.1.5.2.1.6-.2zM353 394.1l-.1-.3-.1.1v.6h.7l.3-.2h.6l-.1-.2-.8-.1-.1.1-.2.1-.2-.1zm8-2.3l-.1-.1h-.1l-.3.1h-.2l-.1.1-.1.1h.2l.4-.2h.3zm.8-.1l.5-.2-.1-.1h-.1l-.1.1h-.1l-.5.3h.2l.2-.1zm100 28.4l.3-.7-.1-1-.2-.4-.8-.3v.2l-.1.5.3.8.1 1.1.5-.2zm54.5 427.6l-.1-.3-.4-.2-.2-.1.1.2.1.3.1.2.2.1.2-.2zm5.5-1.3l-.1-.1h-.2l-.1.2.2.3.4.1-.2-.5zm-12.9-1.4l-.1.2-.4.1.2.3.6.4h.4l.1-.3-.1-.6h-.3l-.4-.1zm2.8-2l-.9-.3-.4-.3h-.3l.4.4.1.2.1.2.6.3.6.3.4.3-.1.1-.8.3h-.3l-.2.1.4.2.6-.1.2-.1h.2l.3.1v.2l-.1.2-.2.2-.4.3-.6.4h-.8l-.7.7.9.5.7.3h.9v-.1l.2-.1h.3l.1-.1.2-.4v-.6h.2l.3.1.7-.1.3-.1.6-.9.4-.8.2-.4.3-.2.1-.2.1-.3.3-.2v-.3l-.4-.2-.3-.2-.3.3-.2-.1-.9.3h-.4l-.3-.2-.4-.1-.4.1-.5.5-.8-.2zm.7-.4l.1-.3-.1-.2-.5-.2h-.5l.2.5.2.2h.6zm5.9-.7h-.4l.4.5-.8.8.2.6.3.4.1.2-.1.1-.4.1-.3.1-.2.3-.9.9.2.2-.3.7.2.3.8.7.8.4v-.7l.4-.1.4.2.4-.2-.9-1h.3l2.5.5-.1-.4-.1-.2-.3-.4 1.5-.4.5-.3.2-.3.6-.1.8-.3-.1-.1.1-.3-.4-.2-.5-.1.1-.3.5-.1-.8-.7-.3-.1-1 .1-.3.1v.2l.1.3.3.3.1.2-.2-.1-1.1-.4-.2-.1-.2-.4.2-.1.3.1.1-.3-.4-.3-.4-.1-.9.1-.8-.3zm254.7-710v-.3l-.1-.3v-.2h-.1l-.5-.1-.1-.2h-.1v.2l.1.4.5.4.3.2h.1l-.1-.1zm.5-2.1v-.1l-.2-.2-.5-.2-.2-.1-.2.1v.2l.1.1.4.1.4.3h.1l.1-.2zm-2.4-1.9l-.2-.1-.5.1h-.3l.1.3.6.2h.6l.2-.1-.1-.2-.4-.2zm2.5-.5l-.8-.2-.6-.3-1 .1.7 1.1.8.7.4.2v-.3l-.4-.5-.1-.1v-.1l.1-.1h.2l.3.2h.2l.2-.7zm1-.2l-.3-.2-.4-.4v.9h.1l.3.1.3-.4zM458.1 440.7l.5-.2.2-1.1-.3-.1-.3.3-.3.5v.4l-.2.3.4-.1zm972.8-64.8v-.4l-.4-.2h-.3l.1.2.4.5.2-.1zm-1.3 0l-.1-.5.2-.3-.9.3-.1.3v.1l.2.1h.7zm1.6-1.2l-.1-.3-.2-.1-.1-.3-.1-.2-.3-.1-.2-.1h-.4l-.1.1h-.2l-.2.2v.2l-.5.4v.2l.3.2.5-.1.6.2.8.3v-.5l.2-.1zm-975.3 33.5v-.3l-.2-.2h-.3v.5l.2.2.3-.2zm-.5-.7l-.1-.2-.1-.1-.2-.4-.4-.4-.2.1-.1.2v.1l.3.3.4.1.2.4.2-.1zm8 21.7l.1-1.2-.1-.5-.2.1-.3.4-.4.6-.1.3v.6l.6.4.4-.7zm387-210.6v-.2l.1-.2-.1-.1-.1-.2-.1-.1v-.2l-.1-.1v-.2l-.1-.1-.2.6v.5l.1.2h.1l.4.1zm364.7 278l.1-.1v-.2l-.1-.1h-.1l-.1.2v.2h.2zm.3-5.9l.1-.2v-.4l-.1.1-.1.2v.1l-.1.1v.1h.2zM879.6 289l-.2-.2-.5-.5-.5-.1.1.6.4.4h.5l.2-.2zm-1.4-1.2v-.2l-.3-.1-.4.1.1.1.3.2.3-.1zM457.8 410.7l-.1-.5h-.1l-.2.4v.3l.3.1.1-.3zm662.9 236.8l.3-.3.2-.4.3-.3.1-.7-.2-.8-.4-.7-.5.1-.3.4-.2.5-.5.3-.1.3-.2.7-.1.4-.2.1v.2l.3.3.8.1.7-.2zm602.6 13.6v-.3l-.4-.2-.2.5v.1l.2.1h.2l.2-.2zm4.6-7.6l-.1-.1v-.3l.1-.2-.4.2-.6.2.1.8-.1.4.3.1.1.3h.2l.7-.2.3-1.1h-.4l-.2-.1zm-3-1.7l.3-.5.1-.2-.2-.7-.3-.3.3-1-.1-.2-.4-.2-.9.3-.1.2.5.1.2.2-.5.7-.5.1.1.5.2.4.7.2.3.4h.3zm-3.9-2.9l.3-.3.3-.4-.1-.1v-.3l.2-.4.3-.1-.2-.2-.2-.1v.3l-.3.7-.1.3-.5.6h.3zm-12.3-2.9l-.6-.7-.1.2-.1.4v.3l.3.2.1.2-.1.5v.4l.6.9.1.7.3.6.5.5.4.5.8 1.4.2.5.4.3 1 1.2.4.4.4.2.9.7.6.3.3.5.6.3.8.4.1.2v.3l.1.3.5.4.6.3.1.2.1.2.3-.1.3.1.9.7.4-.1h.3l.5-.2.3-.4-.1-1.1-.5-.5-.7-.4-.4-.5-.4-.5-.8-1-1.1-1-.5-.2-.3-.4-.3-.1-.2-.3-.5-.3-.3-.6-.6-.6-.1-.3.1-.3-.1-.3-.4-.3-.2-.5-.2-.3-.4-.2-.7-.4-1.6-1.9-.7-.6-.7.2-.6-.4zm-22-6l.2-.4.1-.8-.2.4-.2 1 .1-.2zm54.3-119.5v-.2h-.2l-.1.2.1.1.1.1.1-.2z" fill="#000" fill-opacity=".12" stroke="#000" stroke-opacity=".04" stroke-linejoin="round"/><path fill-rule="evenodd" clip-rule="evenodd" d="M426.8 402.3v-.1h.1v-.1l.1-.1v-.1h-.5v.2l.2.1v.1h.1zm13.6-.3l.7-.2v-.1l-.4-.1h-.6l-.5.2.1.2h.7zm-3.7-2.2l-.1-.2h-.2l-3.5-.1-1.3-.2-.3.1-.3.1-.1.4-.2.2-.3.2.1.3.1.2.2.4-.1.5-.2 1 .3.2.7-.1.3.1.3.1.4-.1.4-.2.9.1.5-.1.6.3.4-.1.2.1h.9l.9-.2.8-.5.3-.5.4-.3.6-.4v-.9l-.7-.1-.6-.3-1.1-.1h-.1l.1.2h-.1l-.2-.1z" fill="#000" fill-opacity=".08" stroke="#000" stroke-opacity=".04" stroke-linejoin="round"/><path fill-rule="evenodd" clip-rule="evenodd" d="M1387 508.7l.1-.2-.2-.2-.3-.1-.5-.2-.6.1-.3.6.9.4.9-.4zm348.1 82.7l-.2-.2-.1-.4h-.3l-.3.1.2.6h.2l.5-.1zm-35.6.8l-.1-.2-.5-.4-1.9-1.3-.4-.1-.1.1-.1.3.1.2.5.1v.1l.3.2.7.2.4.3.1.5.3.1.3.1.4-.2zm32-6.6v-.1l.2-.3-.2-.1-.5-.1-.7.1-.3.2-.2.3h-.2v.2l.1.4.2-.1.2.1.5-.5h.4l.5-.1zm-24.4-2.3l-.1-.2-.2-.1-.9-.7-.5-.2h-.5l-.1.5v.3h.6l.4.2v.6l.2.2v.5l1.2.9.7.4.7.1.4.2.5-.1.5.2.4-.1-.4-.3v-.4l-.5-1.3-.3-.3-.5.1-.5-.2h-.4l-.7-.3zm-.4-4.9l-.6-1.6-.2-.1.1.6.1.4-.1.5-.1.6.2.2.2-.2.4.5v-.9zm-9.8-2.2l-.3-.1-.4.3-.1.3-.1.7v.4l.3.7.3.5.3.3.2.2.9.1 1.7.1.9.4.9.2.4-.1.5-.2.1-.1-.1-.6-.2-.3-.4-.2-.2-.6-.5-.4-.9-.7h-1.6l-.6.1-1.1-1zm2.6-1.8l-.5.2v.3l.4.1.4.2.1.3.2-.1.4.2.2-.3-.4-.5-.4-.3h-.1l-.3-.1zm-5.6.8l.3-.2v-.4h-.3l-.1-.2h-.2l-.3.2-.2.3.1.2h.4l.2.1h.1zm-8.4-2.3l-.1-.2-.3-.2h-.2l-.5.1.1.1.6.3.3.1.1-.2zm3.1.4l.3-.2-.1-.2-.1-.5-.4.7.1.2h.2zm-.5-.9v-.4l-.2-.1.4-.3-.1-.1-.6-.2-.2.2-.2.1-.1.1-.1.1-.1.5.2.4.4.2.6-.5zm-4 .2l-.3-.4.1-.5.2-.1.2-.5-.1-.4-.2.1-.7.6-.1.3.6.8.3.2v-.1zm13-1.3l-.2-.4v-.2l-.3-.2-.2.1-.1.3.1.2.4.3.3-.1zm6-1.2h-.2l-.1.1h-.5l-.1.2.6 1.1-.3.5.4 2.2.4 1.2.8.8v.2l.8.5.6 1.3.2.1.1-.2v-.6l-.5-1.1.1-.8-.2-.3v-.3l-.2-.8-.6-.7-.3-.1-.2-.3.2-.6.2-.2.1-.3-1.3-1.9zm-16.6-.5l-.6-.2-.2-.3v-1l-.6-.3-.3.2-.6.7-.2.4-.5.3-.1.3v.4l.4.1.3-.4.9-.1.3.1v.4l.1.7.3.3.5.2.4.6.1-.3h.2l.2-.4-.3-1.2-.3-.5zm-6.5-.4l.1-.5-.1-.9-.2.1v.2l-.1.4.2.8.1-.1zm3.2-.4l.2-.2v-.9l-.2-.4-.2-.2-.5.1-.4.5v.5l.4.6h.7zm-2.6-1.2l.2-.3.5-.7.1-.3-.5-.2-.4-.5-.4-.2-.3.4v.4l.5.6-.1.4.2.1.1.4.1-.1zm17.5 3.9l-.1-.5-.3-.4.4-.5-2.2-1.9-.3-.2-.4-.1-.5-.4-.5-.1-.5-.4-.2-.3-.6-.4-.6-.8-1.5-.3.1.2.4.4.1.7.5.4.5.6.2.1.2.2.4.5.8.4.8.6.3.1.3.3 1.5.7.5.7.7.5v-.1zm-21.8-9.2l.2-.3-.7-.5-.2.3-.2.5.4.2.5-.2zm9.1 1.5l-.1-.1h-.3l-.4-.2-.7-.8-.2-.3-.2-1-.4-.4-1.4-.8-.8-.8-.7-.2-.2.2v.5l.2.3 1 .9 1.1 1.7 1 1 .8.1h.4v.1l.1.2.5.2.5-.4-.2-.2zm-845.3-47.4l.5-.8v-.5l-.3-.5h-.4l-.5.4-.3.4v.3l.1.7.1.3.3.2.5-.5zm4.3-9.2l.2-.4v-.2l-.1-.1-.1-.1-.2.1-.3.5.1.2.2.2.2-.2zm-391.3-105l.2.2.3.1.1-.1v-.2h-.6zM1114.5 547l-.5-.8-.4.3.2.3.3.2.1.4.3.2v-.6zM404.7 378.1l-.1.4v.2l.2.1.6-.1.1-.1.2-.1v-.1l-.4.1-.6-.4zm3.6.6l.2-.2-.2-.2-.7-.2-.2.1v.3h.6l.3.3v-.1zm-1.1-.5l-.1-.1-.1-.6h-.5v.2l.1.2h.1l.1.2.3.2.1-.1zm54.2 74.5l.1-.2v-.6l.2-.4-.2-.4-.1-.6.1-.5v-.7l.2-.3.5-.8h-.9l-.6.2-1.1.1-.5.2-.7.1-.4.2.1.1.5.2.2.2.1.2.1.4-.3 1.7-.1.1-.6.1-.2.3-1.4.8.8-.1.9.1 2.4-.1.9-.3zm1.8-6.7l1.2-.5.1-.4h-.2l-.8.3-.6.5v.2l.3-.1zm-2.7-9.6v-.1h.1v-.2h-.1v.2h-.1v.1h.1zm.7-1.9l.1-.2.1-.1-.1-.1v.1l-.2.1v.2h-.2.1l.1.1.1-.1zm.3-1.1l.3-.2.1-.6-.1-.4h-.2l-.3.1-.2.3-.1.5.4.4.1-.1zm-16.3-33.3l.3-.2-.2-.1h-.4l-.3.2.1.1h.5zm1.1-.4l.4-.4-.5.1-.2.2.1.1h.2zm.8-1.8h-.7l.1.1h.3l.3.1v-.2zm-3.2 6l-.7.2-.1.4h1.1l.7-.3h-.6l-.4-.3zm.9-3.5l-.5-.1-.2.2.3.1.4-.2zm-1.1.1l-.2-.2-.3-.1-.4.1.5.3.4-.1zm532.2-107.1l-.3-.1-.5.2-.4.4-.4.3-.5-.3.2.9.6 1.1.2.3.3.2 1.1.3h.9l.2.1.2.4h.4v-.4l.2-.2.3-.2h.3l.6-.1.6-.2.5-.4.9-1h1.2l.6-.1-.2-.4-.1-.1-.4-.5-.2-.4.1-.6 2.5-1.9.5-.5-.8.2-.6.4-.4.2-.7.4-2.3.8-.8.1h-.8l-1-.1-.9-.2v.7l-.2.6-.6.2-.3-.1zM1110 652.9l.2-.4.1-.8-.4-.8-.4-.7-.4-.2-.8-.1-.7.3-.4.6-.2.3.4 1.1.2.3 1.1.6h.5l.8-.2zm-55.3-53.2v-.3l.2-.5v-.1l.1-.5-.3-.3h-.2l-.2-.3-.3.3.3.5-.1.3-.1.4.1.4.2.2.3-.1zM464 424.9l-.2-.7-.1-.2-.2-.3.1-.3v-.1h-.2l-.3-.5-.6-.3h-.3l-.2.2v.3l.3.9.2.2.5.2-.4.4v.1l.1.3h.9l.2.3.1-.1.1-.4zm-1.6-8.8l.2-.2v-.3l-.2-.3-.2.1-.2.3v.3l.1.1h.3zm-1.9-.8l.2-.2v-1.2l.1-.3-.2-.1-.2-.2-.6-.2-.1.1-.2.3.1 1.5.2.5.2.1.5-.3zm1.6-1.4l.8-.2-.9-.6-.2-.4v-.3l-.4-.3-.2.2-.1.3.1.5-.3.4.1.4.4.1.7-.1zm-40.2 26v-.6l-.9-.4v.3l.1.2.3.1.1.2-.1.6.2.3.3-.7zm283.7-99.7l-.2-.2-.7.5h-.6l.1.2.1.2.7.4.6-1.1zm13.5-2.1v-.1h-.1l-.1.1-1.3-.1-.2.6-.5.4v.7l.5.7.3.1.5.1.7-.4.2-.4.1-.8-.1-.4v-.5zm-9.7.8l.5-.4v-.2l-.1-.3-.5-.3h-.2l-.2.2-.2.4.3.5.2.1h.2zm4.7-2.3l1.2-1v-.3l-1 .1-1.1 1-.3.1-1 .1h-.5l-.4.2.2.3.4 1 .7.9.6-.2.3-.2.4-.6.5-1.4zm11.6 1.3l1.5-.5.3-1 .3-1.1v-.7l-.2-.3h-.5l-.3.2-.1.6-.7 1.3-.5 1.2-.7.6-.7.2.1.1.7.1.8-.7zm-19.7-2l.5-.5.1-.3-.1-.5.2-.2-.1-.4-.3-.4h-.7l-.4.6.6 1.2.1.5h.1zm22.4-2.7l.9-.3.5-.3.1-.9.2-.3-.2-.3-.2.2-.2.4-.6.2-.8.4-.2.3-.2.9.4.1.3-.4z" fill="#000" fill-opacity=".12" stroke="#000" stroke-opacity=".04" stroke-linejoin="round"/></svg>