<svg width="100" height="30" viewBox="0 0 100 30" fill="none" xmlns="http://www.w3.org/2000/svg"><g clip-path="url(#clip0)" fill-rule="evenodd" clip-rule="evenodd" fill="#43455B"><path d="M57.368 3.254V1.007a.558.558 0 01.57-.572h10.075c.323 0 .58.236.58.57V2.93c-.002.323-.274.745-.758 1.415l-5.218 7.452c1.936-.046 3.987.244 5.746 1.233.396.223.504.553.534.879v2.398c0 .33-.36.713-.74.512-3.103-1.623-7.217-1.802-10.645.022-.353.184-.718-.192-.718-.523v-2.28c0-.365.005-.989.374-1.544l6.046-8.675H57.95a.561.561 0 01-.583-.566zm-36.75 14.04h-3.066a.574.574 0 01-.547-.518V1.044a.58.58 0 01.593-.566h2.854c.298.013.54.241.558.528v2.055h.057C21.81 1.074 23.214.147 25.1.147c1.918 0 3.119.927 3.978 2.914.743-1.987 2.431-2.914 4.233-2.914 1.287 0 2.691.529 3.548 1.721.973 1.323.775 3.244.775 4.932l-.003 9.927a.579.579 0 01-.59.567h-3.063a.573.573 0 01-.55-.564V8.389c0-.662.057-2.318-.087-2.946-.23-1.06-.916-1.358-1.802-1.358-.745 0-1.518.496-1.832 1.293-.315.794-.285 2.116-.285 3.01v8.34a.579.579 0 01-.59.566h-3.063a.573.573 0 01-.55-.564l-.003-8.341c0-1.754.285-4.337-1.889-4.337-2.203 0-2.116 2.515-2.116 4.337l-.003 8.338a.577.577 0 01-.59.567zM77.265.145c4.55 0 7.01 3.908 7.01 8.873 0 4.8-2.718 8.607-7.01 8.607-4.464 0-6.895-3.908-6.895-8.772 0-4.9 2.46-8.708 6.895-8.708zm.03 3.212c-2.26 0-2.404 3.079-2.404 4.997 0 1.922-.027 6.027 2.374 6.027 2.376 0 2.49-3.311 2.49-5.33 0-1.325-.057-2.914-.458-4.171-.344-1.092-1.03-1.523-2.002-1.523zm12.88 13.937h-3.054a.575.575 0 01-.55-.564L86.567.99a.583.583 0 01.59-.512H90a.583.583 0 01.545.439v2.406h.057c.859-2.151 2.06-3.176 4.176-3.176 1.374 0 2.718.496 3.577 1.854.802 1.257.802 3.377.802 4.9v9.897a.582.582 0 01-.588.496h-3.073a.577.577 0 01-.544-.496V8.256c0-1.721.2-4.236-1.92-4.236-.742 0-1.43.496-1.772 1.257-.428.96-.487 1.919-.487 2.979v8.471a.587.587 0 01-.596.567zm-37.75-.04a.631.631 0 01-.723.07c-1.019-.845-1.2-1.235-1.756-2.04-1.683 1.713-2.875 2.228-5.054 2.228-2.58 0-4.588-1.594-4.588-4.778 0-2.488 1.347-4.18 3.268-5.011 1.664-.73 3.987-.862 5.764-1.06v-.398c0-.732.057-1.594-.374-2.222-.37-.567-1.089-.797-1.72-.797-1.168 0-2.206.599-2.464 1.84-.051.276-.255.55-.531.564l-2.97-.323c-.252-.057-.531-.257-.458-.64.683-3.604 3.938-4.693 6.853-4.693 1.491 0 3.442.398 4.616 1.526 1.493 1.392 1.35 3.252 1.35 5.276v4.775c0 1.437.596 2.065 1.157 2.84.195.28.238.61-.011.813-.626.526-1.74 1.494-2.35 2.038l-.008-.008zM49.338 9.78v-.662c-2.219 0-4.56.475-4.56 3.085 0 1.328.688 2.222 1.864 2.222.862 0 1.634-.531 2.122-1.393.602-1.063.574-2.057.574-3.252zm-37.09 7.474a.632.632 0 01-.725.07c-1.018-.845-1.2-1.235-1.758-2.04-1.68 1.713-2.873 2.228-5.052 2.228-2.58 0-4.588-1.594-4.588-4.778 0-2.488 1.347-4.18 3.268-5.011 1.664-.73 3.987-.862 5.765-1.06v-.398c0-.732.056-1.594-.374-2.222-.372-.567-1.09-.797-1.721-.797-1.168 0-2.21.599-2.464 1.84-.051.276-.255.55-.53.564l-2.971-.323C.845 5.27.566 5.07.639 4.687 1.322 1.084 4.577-.005 7.493-.005c1.49 0 3.441.398 4.618 1.526 1.49 1.392 1.346 3.252 1.346 5.276v4.775c0 1.437.597 2.065 1.158 2.84.195.28.238.61-.011.813-.626.526-1.74 1.494-2.35 2.038l-.008-.008zM9.156 9.78v-.662c-2.217 0-4.562.475-4.562 3.085 0 1.328.689 2.222 1.865 2.222.862 0 1.634-.531 2.122-1.393.602-1.063.575-2.057.575-3.252zm52.407 13.553c-5.754 4.247-14.096 6.504-21.28 6.504-10.068 0-19.133-3.72-25.995-9.916-.536-.485-.057-1.152.591-.775 7.401 4.309 16.556 6.903 26.009 6.903 6.376 0 13.387-1.323 19.837-4.06.973-.412 1.789.642.838 1.344zm2.394-2.733c-.737-.943-4.864-.447-6.72-.225-.562.068-.648-.423-.142-.778 3.293-2.314 8.689-1.645 9.317-.872.632.783-.165 6.192-3.252 8.775-.474.398-.926.184-.715-.339.694-1.734 2.25-5.618 1.512-6.561z"/></g><defs><clipPath id="clip0"><path fill="#fff" d="M0 0h100v30H0z"/></clipPath></defs></svg>