<svg width="124" height="34" viewBox="0 0 124 34" fill="none" xmlns="http://www.w3.org/2000/svg"><path d="M45.253 25.253h2.827l-.48-2.196V10.01h-2.7v5.956a4.232 4.232 0 00-3.256-1.489c-2.7 0-4.795 2.246-4.795 5.502 0 3.281 2.095 5.502 4.795 5.502 1.338 0 2.499-.58 3.306-1.564l.303 1.337zm53.406-7.85c.555 0 1.06.152 1.514.48l1.287-2.877c-.606-.378-1.287-.53-1.969-.53-1.211 0-2.246.555-2.877 1.59l-.277-1.337H93.56l.455 2.07v8.48h2.7v-6.74c.353-.706 1.035-1.135 1.944-1.135zm7.899 5.25c-1.565 0-2.726-1.034-2.726-2.65 0-1.64 1.161-2.65 2.726-2.65 1.59 0 2.726 1.01 2.726 2.65 0 1.59-1.136 2.65-2.726 2.65zm-67.085-2.675c0-1.64 1.162-2.65 2.726-2.65 1.59 0 2.726 1.01 2.726 2.65 0 1.615-1.136 2.65-2.726 2.65-1.564.026-2.725-1.035-2.725-2.65zm79.074 2.675c-1.565 0-2.726-1.034-2.726-2.65 0-1.64 1.161-2.65 2.726-2.65 1.59 0 2.726 1.01 2.726 2.65-.026 1.59-1.161 2.65-2.726 2.65zm-63.905-5.476c1.388 0 2.297.656 2.6 1.867h-5.2c.278-1.236 1.212-1.867 2.6-1.867zm32.28 0c1.389 0 2.297.656 2.6 1.867h-5.2c.329-1.236 1.238-1.867 2.6-1.867zm-13.174 8.076h4.34l2.828-10.575h-2.953l-2.045 8.581-2.07-8.556h-2.902l2.802 10.55zm-6.94 0h2.7V14.678h-2.7v10.575zm-11.762.202a7.891 7.891 0 004.215-1.211l-1.035-2.322c-.96.53-2.07.807-3.155.807-1.413 0-2.398-.555-2.852-1.59h7.622c.076-.404.126-.757.126-1.236 0-3.282-2.271-5.452-5.274-5.452-3.054 0-5.275 2.22-5.275 5.502-.026 3.357 2.195 5.502 5.628 5.502zm68.826-5.477c0-3.28-2.271-5.502-5.325-5.502-3.079 0-5.326 2.246-5.326 5.502s2.272 5.502 5.326 5.502 5.325-2.22 5.325-5.502zm-36.57 5.502c1.513 0 2.977-.404 4.214-1.211l-1.035-2.322c-.959.53-2.07.808-3.155.808-1.413 0-2.397-.556-2.852-1.59h7.623c.075-.404.126-.758.126-1.237 0-3.281-2.272-5.452-5.275-5.452-3.054 0-5.275 2.221-5.275 5.502 0 3.382 2.196 5.502 5.628 5.502zm19.256 0c3.079 0 5.326-2.246 5.326-5.502s-2.272-5.502-5.326-5.502c-3.079 0-5.325 2.246-5.325 5.502s2.246 5.502 5.325 5.502zm-44.874-.227h2.7V10.01h-2.7v15.244zM68.17 13.24c.934 0 1.691-.757 1.691-1.716s-.732-1.716-1.691-1.716c-.959 0-1.716.757-1.716 1.716 0 .96.732 1.716 1.716 1.716zM21.756.393l-1.54 14.638L17.591 2.69 9.313 4.43l2.6 12.342L0 19.297l2.12 9.843 20.973 4.467 4.796-10.726L30.16 1.276 21.756.393zm-6.638 21.251c-.429.404-.984.353-1.615.151-.606-.202-.858-.908-.656-1.817.176-.656.959-.757 1.388-.757a.99.99 0 01.454.101c.278.126.757.404.858.808.151.605 0 1.11-.429 1.514zm6.083.656c-.329.555-1.136.631-1.969.227-.555-.277-.555-.934-.48-1.363.026-.227.127-.454.278-.63.202-.253.53-.581.883-.581.631-.025 1.136.252 1.439.757.303.505.151 1.06-.151 1.59z" fill="#43455B"/></svg>