<svg width="111" height="37" viewBox="0 0 111 37" fill="none" xmlns="http://www.w3.org/2000/svg"><path fill-rule="evenodd" clip-rule="evenodd" d="M52.67 7.543h6.65c6.691 0 12.012 4.139 12.012 11.118 0 7.609-4.572 11.495-12.012 11.495h-6.65V7.543zm3.2 19.771h3.367c5.527 0 8.604-2.675 8.604-8.527 0-5.266-3.575-8.401-8.23-8.401h-3.783v16.928h.041zM75.405 9.925h3.409V6.498h-3.41v3.427zm.166 20.274h3.035V13.646h-3.035v16.553zm8.687-22.656h6.65c6.692 0 12.014 4.139 12.014 11.118 0 7.609-4.572 11.495-12.013 11.495h-6.65V7.543zM87.5 27.314h3.367c5.528 0 8.605-2.675 8.605-8.527 0-5.266-3.575-8.401-8.23-8.401H87.46v16.928h.041z" fill="#43455B"/><mask id="mask0" maskUnits="userSpaceOnUse" x="106" y="6" width="5" height="25"><path d="M106.997 6.498h3.407v23.701h-3.407V6.498z" fill="#fff"/></mask><g mask="url(#mask0)"><path fill-rule="evenodd" clip-rule="evenodd" d="M106.997 9.925h3.408V6.498h-3.408v3.427zm.206 20.274h3.035V13.646h-3.035v16.553z" fill="#43455B"/></g><mask id="mask1" maskUnits="userSpaceOnUse" x="0" y="0" width="45" height="37"><path d="M.795.563h43.644V36.51H.795V.563z" fill="#fff"/></mask><g mask="url(#mask1)"><path fill-rule="evenodd" clip-rule="evenodd" d="M22.742 28.61a13.898 13.898 0 0013.467-13.77V8.377h8.23v7.14c-.167 11.616-10.1 20.74-21.697 20.994C10.937 36.426.92 27.217.795 15.516V2.718c0-1.309.832-2.154 2.078-2.154H36.21v7.814H10.064c-.665 0-1.08.423-1.08 1.098v5.24c.083 7.56 6.11 13.812 13.758 13.896z" fill="#43455B"/></g></svg>