<svg width="126" height="28" viewBox="0 0 126 28" fill="none" xmlns="http://www.w3.org/2000/svg"><path d="M125.403 12.853v-2.188h-2.717V7.263l-.092.029-2.552.78-.05.016v2.577h-4.028V9.23c0-.668.149-1.18.444-1.521.292-.337.711-.509 1.245-.509.383 0 .781.09 1.18.269l.101.045V5.208l-.048-.017c-.373-.134-.88-.202-1.509-.202-.792 0-1.512.173-2.14.515a3.654 3.654 0 00-1.469 1.452c-.345.62-.521 1.337-.521 2.13v1.58h-1.892v2.187h1.892v9.218h2.717v-9.218h4.028v5.858c0 2.413 1.138 3.635 3.382 3.635.369 0 .757-.043 1.153-.128.404-.086.679-.173.84-.266l.036-.021v-2.208l-.11.073a1.905 1.905 0 01-.547.238c-.216.06-.396.091-.536.091-.526 0-.915-.142-1.156-.421-.244-.282-.368-.776-.368-1.466v-5.385h2.717zm-20.113 7.272c-.986 0-1.763-.326-2.311-.97-.551-.648-.83-1.57-.83-2.742 0-1.21.279-2.157.83-2.815.548-.654 1.318-.987 2.289-.987.941 0 1.691.318 2.228.944.54.629.814 1.568.814 2.791 0 1.24-.258 2.19-.766 2.827-.504.632-1.263.953-2.254.953zm.121-9.735c-1.881 0-3.375.551-4.44 1.638-1.065 1.087-1.605 2.592-1.605 4.472 0 1.786.527 3.222 1.566 4.269 1.04 1.047 2.454 1.577 4.204 1.577 1.823 0 3.287-.559 4.352-1.66 1.064-1.102 1.603-2.592 1.603-4.428 0-1.814-.506-3.261-1.504-4.3-.999-1.04-2.405-1.568-4.176-1.568zm-10.424 0c-1.28 0-2.337.328-3.146.973-.813.649-1.226 1.5-1.226 2.53 0 .536.09 1.011.264 1.415.177.405.45.761.812 1.06.36.297.915.608 1.651.924.619.254 1.08.47 1.373.64.287.166.49.333.605.496.111.159.168.377.168.646 0 .767-.574 1.14-1.755 1.14-.438 0-.937-.092-1.485-.272a5.578 5.578 0 01-1.52-.771l-.113-.081v2.615l.041.02c.385.176.87.326 1.44.444s1.088.178 1.538.178c1.388 0 2.506-.33 3.322-.978.821-.654 1.237-1.525 1.237-2.591 0-.769-.224-1.428-.665-1.96-.439-.527-1.2-1.012-2.261-1.44-.846-.339-1.388-.62-1.611-.837-.216-.209-.325-.505-.325-.879 0-.331.135-.597.412-.812.28-.217.669-.327 1.156-.327.453 0 .916.072 1.376.212.46.14.865.328 1.202.557l.111.076v-2.48l-.043-.019c-.31-.133-.721-.248-1.22-.34a7.456 7.456 0 00-1.338-.139zm-11.453 9.735c-.985 0-1.763-.326-2.31-.97-.552-.648-.83-1.57-.83-2.742 0-1.21.279-2.157.83-2.815.548-.654 1.317-.987 2.289-.987.941 0 1.69.318 2.228.944.54.629.814 1.568.814 2.791 0 1.24-.258 2.19-.766 2.827-.505.632-1.263.953-2.255.953zm.121-9.735c-1.88 0-3.375.551-4.44 1.638-1.064 1.087-1.604 2.592-1.604 4.472 0 1.787.527 3.222 1.566 4.269 1.04 1.047 2.454 1.577 4.203 1.577 1.823 0 3.288-.559 4.352-1.66 1.065-1.102 1.604-2.592 1.604-4.428 0-1.814-.506-3.261-1.505-4.3-1-1.04-2.404-1.568-4.176-1.568zm-10.167 2.25v-1.975h-2.683v11.406h2.683v-5.835c0-.992.225-1.807.669-2.422.438-.609 1.022-.917 1.735-.917.242 0 .513.04.807.119.29.078.501.163.626.253l.112.082v-2.705l-.043-.02c-.25-.105-.604-.159-1.05-.159a2.75 2.75 0 00-1.795.643c-.454.375-.782.89-1.032 1.53h-.029zM66 10.39c-1.23 0-2.329.264-3.262.785a5.284 5.284 0 00-2.152 2.212c-.49.945-.74 2.048-.74 3.278 0 1.078.242 2.067.719 2.939a5.047 5.047 0 002.008 2.03c.853.473 1.84.712 2.933.712 1.275 0 2.364-.255 3.236-.757l.036-.02V19.11l-.113.083a5.042 5.042 0 01-1.313.683c-.474.166-.906.25-1.285.25-1.053 0-1.898-.33-2.512-.98-.615-.65-.926-1.563-.926-2.712 0-1.156.325-2.093.965-2.784.64-.689 1.486-1.039 2.517-1.039.882 0 1.741.3 2.554.889l.113.082v-2.59l-.037-.02c-.306-.172-.723-.313-1.241-.42a7.414 7.414 0 00-1.5-.162zm-8 .275h-2.683v11.406H58V10.665zm-1.314-4.859c-.442 0-.827.15-1.144.448a1.479 1.479 0 00-.478 1.12c0 .436.159.805.473 1.096.313.29.7.437 1.149.437.449 0 .837-.147 1.153-.436.319-.292.48-.66.48-1.098 0-.428-.157-.8-.467-1.107-.31-.305-.702-.46-1.166-.46zM49.99 9.824V22.07h2.738V6.155h-3.79l-4.816 11.822-4.675-11.822h-3.944v15.916h2.573V9.822h.089l4.936 12.25h1.942l4.859-12.248h.088z" fill="#43455B"/><path fill-rule="evenodd" clip-rule="evenodd" d="M13.605 13.459H.983V.837h12.622v12.622zm13.936 0H14.92V.837h12.622v12.622zm-13.936 13.94H.983V14.778h12.622v12.621zm13.936 0H14.92V14.778h12.622v12.621z" fill="#43455B"/></svg>