<svg width="119" height="35" viewBox="0 0 119 35" fill="none" xmlns="http://www.w3.org/2000/svg"><path fill-rule="evenodd" clip-rule="evenodd" d="M52.425 9.621h2.413v16.037h-3.442l-7.357-12.742v12.742h-2.413V9.621h3.384l7.415 12.844V9.621zm12.156 3.848c2.22.27 3.362 1.509 3.278 3.848v8.341c-2.352.377-5.61.349-7.462.107-2.376-.325-3.225-1.637-3.225-3.913 0-2.277 1.852-3.545 3.96-3.697a61.804 61.804 0 014.095-.01v-.907c0-.93-.415-1.525-1.517-1.725-.782-.109-3.784.02-5.708.423v-2.171c2.433-.258 4.748-.438 6.578-.296zm.758 10.602l.037-4.031c-.736-.019-2.59 0-3.294 0-.702 0-2.324.303-2.316 1.812.01 1.892 1.27 2.171 3.401 2.22.581 0 1.632.029 2.172 0zm36.893-10.602c2.22.27 3.363 1.509 3.279 3.848v8.341c-2.353.377-5.61.349-7.462.107-2.376-.325-3.226-1.637-3.226-3.913 0-2.277 1.852-3.545 3.96-3.697a61.794 61.794 0 014.095-.01l.001-.907c0-.93-.415-1.525-1.517-1.725-.783-.109-3.784.02-5.709.423v-2.171c2.433-.258 4.749-.438 6.579-.296zm.759 10.602l.036-4.031c-.736-.019-2.59 0-3.294 0-.701 0-2.323.303-2.315 1.812.01 1.892 1.27 2.171 3.401 2.22.581 0 1.631.029 2.172 0zm-32.719-.852c2.033.548 3.962.746 5.715.35 1.481-.292 1.776-2.085 0-2.605-1.12-.298-3.282-.563-4.417-1.339-2.177-1.342-1.98-5.079 1.19-5.93 1.738-.51 3.855-.528 6.395 0v2.137c-1.917-.297-3.62-.505-5.053-.233-1.796.358-1.632 2.002 0 2.391l3.285.836c3.63 1.069 3.304 5.579 0 6.667-1.966.629-4.372.576-7.115 0v-2.274zm19.715-14.48h2.588v16.92c-1.674.286-4.034.48-5.582.286-3.273-.287-5.557-2.336-5.557-6.421 0-3.61 2.333-5.828 5.433-6.098 1.333-.094 3.118.084 3.118.084V8.74zm0 15.301v-8.386l-1.363-.157c-2.436-.166-4.473.88-4.473 4.154.165 3.158 1.892 4.389 4.225 4.389h1.611zm28.915 5.87l-2.759 1.264v-5.155s-1.773.02-3.106-.074c-3.1-.271-5.269-2.33-5.269-6.263 0-4.28 2.391-5.963 5.552-6.25 1.548-.194 3.907-.078 5.582.209v16.27zm-2.738-6.133l.15-8.288h-1.611c-2.333 0-4.225 1.056-4.225 4.388 0 3.029 2.037 4.205 4.322 4.057l1.364-.157zm-95.584.307c-.262.716-.859 1.151-1.554 1.152a1.586 1.586 0 01-1.515-1.033 578.149 578.149 0 01-1.822-4.993.558.558 0 01.006-.351c1.055-2.917 2.114-5.83 3.18-8.743a1.646 1.646 0 011.507-1.057 1.64 1.64 0 011.541 1.09c.38 1.015.745 2.036 1.116 3.054.22.602.451 1.2.652 1.809a.846.846 0 01-.002.514 2109.84 2109.84 0 01-3.11 8.558zm-.7-15.328c-.764.147-1.19.629-1.45 1.347-2.855 7.88-5.725 15.753-8.59 23.628-.066.183-.123.338-.378.337-3.083-.01-6.166-.01-9.25-.011v-.17c.292-.776.59-1.55.873-2.329 2.079-5.704 4.155-11.409 6.231-17.113.542-1.488 1.084-2.976 1.623-4.465.317-.878.881-1.281 1.814-1.281h9.141c-.008.032-.009.056-.014.057zM29.694.275H39.2c-.02.091-.03.186-.062.273-1.815 4.987-3.632 9.973-5.448 14.96-1.07 2.94-2.142 5.88-3.209 8.823-.318.875-.902 1.296-1.839 1.296H19.6l-.014-.054c.035-.02.067-.05.104-.06.607-.152 1.008-.528 1.22-1.11l2.77-7.6L28.746 2.88l.947-2.605z" fill="#43455B"/></svg>