<svg width="150" height="38" viewBox="0 0 150 38" fill="none" xmlns="http://www.w3.org/2000/svg"><path fill-rule="evenodd" clip-rule="evenodd" d="M81.805 13.128l-.03-.003.03.003zm-14.538 2.946c-.171-.215-.449-.322-.835-.322h-.94v2.872h.892c.397 0 .684-.111.866-.332.182-.219.273-.59.273-1.12 0-.517-.086-.884-.256-1.098zm2.715 2.772c-.187.479-.448.868-.784 1.165a3.123 3.123 0 01-1.196.65 5.29 5.29 0 01-1.518.209h-.991v4.191h-2.706V13.507h3.894c.518 0 .993.063 1.428.19.435.127.811.33 1.13.61.32.28.57.65.75 1.106.183.456.274 1.02.274 1.693 0 .683-.094 1.263-.281 1.74zm7.74-1.287c-.056-.465-.139-.835-.247-1.11-.11-.276-.248-.473-.413-.589a.956.956 0 00-.562-.174c-.22 0-.41.055-.57.166-.158.111-.294.301-.404.572-.109.27-.188.639-.24 1.103a17.31 17.31 0 00-.072 1.741c0 .696.027 1.277.081 1.74.055.465.14.834.248 1.111.11.277.246.474.403.59a.95.95 0 00.571.173.992.992 0 00.562-.166c.165-.11.299-.301.404-.572.104-.27.182-.637.24-1.1.054-.466.082-1.047.082-1.744 0-.696-.028-1.275-.082-1.741zm2.64 4.366c-.186.747-.458 1.368-.817 1.856-.357.49-.794.855-1.312 1.098a4.11 4.11 0 01-1.749.364c-1.297 0-2.308-.481-3.028-1.446-.721-.963-1.081-2.461-1.081-4.497 0-2.034.365-3.54 1.096-4.513.732-.974 1.747-1.461 3.046-1.461 1.3 0 2.311.485 3.036 1.455.727.967 1.09 2.462 1.09 4.487 0 1.023-.094 1.908-.281 2.657zm9.59 1.36a2.943 2.943 0 01-.784 1.067 3.619 3.619 0 01-1.186.66c-.46.154-.958.23-1.497.23-.45 0-.857-.047-1.222-.132a3.75 3.75 0 01-.997-.396 4.203 4.203 0 01-.834-.637c-.253-.247-.5-.53-.742-.848l1.883-1.7c.383.461.735.811 1.055 1.048.318.237.62.355.906.355.287 0 .525-.074.711-.224.187-.148.28-.381.28-.7 0-.166-.017-.314-.05-.447a.983.983 0 00-.206-.388 1.979 1.979 0 00-.446-.379 5.253 5.253 0 00-.783-.405 11.469 11.469 0 01-1.46-.751c-.401-.247-.728-.512-.973-.8a2.674 2.674 0 01-.539-.947 4.049 4.049 0 01-.162-1.198c0-.473.081-.914.246-1.321a3.12 3.12 0 01.71-1.064 3.305 3.305 0 011.13-.717 4.016 4.016 0 011.493-.265c.44 0 .834.04 1.18.115.347.077.662.195.94.357.282.158.544.35.788.578.239.224.482.484.723.782l-1.915 1.715a47.895 47.895 0 00-.51-.585 3.045 3.045 0 00-.413-.388 1.265 1.265 0 00-.403-.206 1.81 1.81 0 00-.471-.058c-.265 0-.469.083-.612.248a.864.864 0 00-.213.577 1.019 1.019 0 00.296.77c.11.113.258.226.447.337.186.11.428.23.725.364a10.32 10.32 0 011.477.767c.402.257.728.541.982.85.254.308.436.645.554 1.014.114.368.173.796.173 1.279a3.56 3.56 0 01-.28 1.444zm7.309-7.368v9.144h-2.753v-9.144h-2.344v-2.41h7.442v2.41h-2.345zm11.57 9.144v-2.557c0-.629.006-1.222.017-1.776a59.33 59.33 0 01.052-1.577c-.069.231-.142.487-.224.769a41.058 41.058 0 01-.579 1.774c-.104.296-.201.577-.289.841l-1.089 2.888-1.09-2.888-.287-.833a37.448 37.448 0 01-.8-2.55 72.132 72.132 0 01.065 3.352v2.557H102.1V13.507h2.507l1.022 2.84c.256.692.479 1.355.679 1.989.199.633.335 1.15.411 1.56.087-.41.232-.926.43-1.552.198-.627.424-1.3.676-2.015l1.006-2.822h2.493v11.554h-2.493zm9.87-4.77c-.132-.76-.255-1.455-.372-2.087-.115-.633-.2-1.214-.255-1.743a31.68 31.68 0 01-.238 1.743 129.12 129.12 0 01-.373 2.103l-.066.363h1.369l-.065-.379zm.957 4.77l-.429-2.146h-2.278l-.412 2.146H113.7l2.988-11.554h2.839l2.971 11.554h-2.84zm8.781-9.144v9.144h-2.758v-9.144h-2.343v-2.41h7.444v2.41h-2.343zm4.835 9.144V13.507h6.768v2.36h-4.03v1.965h2.626v2.359h-2.626V22.7h4.144v2.361h-6.882zm16.322-1.775a2.951 2.951 0 01-.784 1.066 3.587 3.587 0 01-1.188.66 4.64 4.64 0 01-1.493.23c-.453 0-.857-.047-1.22-.132a3.75 3.75 0 01-1.002-.396 4.291 4.291 0 01-.833-.637c-.25-.247-.5-.53-.741-.848l1.88-1.7c.385.461.739.811 1.059 1.048.316.237.62.355.905.355.289 0 .523-.074.712-.224.185-.148.28-.381.28-.7 0-.166-.017-.314-.05-.447a1.02 1.02 0 00-.206-.388 2.087 2.087 0 00-.445-.379 5.454 5.454 0 00-.784-.405c-.573-.25-1.06-.501-1.461-.751a4.097 4.097 0 01-.974-.8 2.7 2.7 0 01-.536-.947 3.939 3.939 0 01-.166-1.198c0-.473.083-.914.247-1.321a3.15 3.15 0 01.71-1.064 3.332 3.332 0 011.131-.717 4.02 4.02 0 011.494-.265c.44 0 .834.04 1.18.115a3.3 3.3 0 01.941.357c.279.158.543.35.783.578.241.224.485.484.728.782l-1.917 1.715c-.198-.229-.366-.424-.511-.585a2.937 2.937 0 00-.412-.388 1.303 1.303 0 00-.404-.206 1.796 1.796 0 00-.471-.058c-.263 0-.468.083-.612.248a.857.857 0 00-.213.577c0 .155.022.292.066.412.044.123.12.24.231.357.11.114.26.227.444.338.19.11.429.23.728.364.583.253 1.076.507 1.476.767.402.257.73.541.983.85.252.308.438.645.552 1.014.117.368.173.796.173 1.279 0 .539-.092 1.02-.28 1.444z" fill="#43455B"/><mask id="mask0" maskUnits="userSpaceOnUse" x="0" y="0" width="53" height="38"><path d="M.238.553h51.784v37.173H.238V.553z" fill="#fff"/></mask><g mask="url(#mask0)"><path fill-rule="evenodd" clip-rule="evenodd" d="M34.83 8.408a22.117 22.117 0 012.233.012l4.156-3.725-1.827-.184-4.582 3.895.003.004a.176.176 0 01.018-.002zM4.61 27.536l-1.35-2.402-.321 2.738-2.7.54 2.503 1.149-.32 2.736 1.869-2.026 2.503 1.151-1.35-2.402 1.867-2.025-2.701.541zm9.027 4.155L12.29 29.29l-.32 2.736-2.701.54 2.504 1.152-.32 2.737 1.867-2.028 2.503 1.152-1.35-2.404 1.868-2.024-2.703.541zm1.21-11.592l-1.35-2.402-.32 2.737-2.7.541 2.504 1.152-.32 2.736 1.866-2.028 2.504 1.151-1.35-2.401 1.868-2.027-2.701.541zm33.487 3.459a5.444 5.444 0 01-2.126.926 5.517 5.517 0 01-5.555-2.185c-1.38-1.922-1.334-4.434-.084-6.29l4.434 3.294a.415.415 0 00.3.08.418.418 0 00.207-.75l-4.31-3.396a5.432 5.432 0 012.84-1.547 5.521 5.521 0 015.555 2.187 5.51 5.51 0 01-1.261 7.68zM33.656 15.62c-1.317-.95-4.04-.491-5.813-.196.603-1.267 1.666-2.58 2.022-4.109.19.965 3.374 2.06 3.374 2.06s1.448-.32 2.698-.81a.53.53 0 00.042.035l.477.355-2.8 2.665zm1.918 4.87l-1.245-2.87c.04-.455.015-.864-.087-1.205l2.17-2.068-.838 6.143zm-.519 3.789a1.54 1.54 0 00-.667.18c-.118-.139-.301-.277-.633-.49-.25-.162-1.388-.844-1.345-.987.165-.494.536-1.232 1.073-2.275.562.62 1.129 1.678 1.687 2.745l-.115.827zm-1.736 2.401a6.922 6.922 0 00-4.599-2.692l.184-1.976 1.564 1.105c-.172.628-.099.96.413 1.166l2.734 1.06.015.01c-.114.354-.103.742.05 1.094l-.36.233zm-2.305 8.612a5.463 5.463 0 01-2.125.931 5.52 5.52 0 01-5.554-2.187 5.512 5.512 0 013.385-8.609c.297-.06.595-.091.892-.101l-.522 5.597a.492.492 0 00.583.525.471.471 0 00.168-.068l4.83-3.115c1.258 2.39.598 5.409-1.657 7.027zm-2.425-9.912a5.513 5.513 0 013.552 2.062l-3.983 2.57.431-4.632zm3.487-6.905c-.5 1.735-1 2.955-1.327 3.815l-1.538-1.088 2.865-2.727zm-6.01.505c.206-.002.422-.018.659-.063a63.117 63.117 0 004.007-.514l-2.335 2.224-2.33-1.647zm6.684-8.368c1.022.09 2.07.005 2.996-.136l.338.744a21.68 21.68 0 00-2.153.236c-.54.089-1.936-1.296-1.18-.844zm17.979 4.448a6.918 6.918 0 00-6.965-2.74 6.83 6.83 0 00-2.667 1.162 6.938 6.938 0 00-1.003.882l-2.008-1.582c.584-.218 2.408-.951 1.653-1.348-.202-.109-.615-.181-1.149-.22l1.425-1.24.311-.27 2.669-2.322-1.242-2.418-4.09 3.67s-.004-.006-.401.358l-.011-.002.003.01-.003.001L37.248 9a10.949 10.949 0 00-2.133.082V9.08c-.918.165-1.694.282-2.063.21-1.343-.26-1.66-1.689-2.269-2.519-.346-.471-1.04-.526-1.1-.93.193-.035.375-.09.537-.168.736-.35.992-.682 1.192-1.128.253-.567-.017-1.499-.396-2.271.305-.221 1.446-1.112 1.402-1.264-.015-.056-1.436.14-2.033.255a1.515 1.515 0 00-.24-.24c-.487-.358-.885-.721-2.033-.24-1.962.818-1.86 2.348-1.21 3.712.3.632.825 1.029 1.398 1.228-.043.08-.065.126-.087.167l.055-.136c-3.1 2.796-10.334 7.503-12.24 7.596 1.577.615 6.12.7 8.023-.437-.534 2.174-.567 4.319.35 5.382-.704.523-1.432 1.086-1.783 1.428-.275.267-.192.405.045.708 0 0 1.842.035 2.388-.484.146-.14.274-.266.39-.383l2.542 1.796-.24 2.567a6.847 6.847 0 00-3.965 1.293 6.911 6.911 0 00-1.579 9.63 6.924 6.924 0 006.966 2.742 6.834 6.834 0 002.665-1.163c2.862-2.057 3.676-5.912 2.019-8.926l.505-.325a1.548 1.548 0 001.65-.093 1.55 1.55 0 00.613-1.552c.689-.2 1.412-.433 2.22-.672.837-.248.96-.499.753-.912-.28-.564-2.403-.055-2.677-.374l-.588-1.354 1.162-8.501 1.96 1.455c-1.603 2.331-1.67 5.512.071 7.938a6.922 6.922 0 006.966 2.741 6.837 6.837 0 002.665-1.163 6.908 6.908 0 001.58-9.63z" fill="#43455B"/></g></svg>