<svg width="116" height="34" viewBox="0 0 116 34" fill="none" xmlns="http://www.w3.org/2000/svg"><path fill-rule="evenodd" clip-rule="evenodd" d="M25.29 6.3c-.116-.01-2.577-.193-2.577-.193s-1.709-1.696-1.896-1.884a.467.467 0 00-.264-.121l-1.38 28.238 9.892-2.14S25.592 6.72 25.57 6.56a.31.31 0 00-.28-.26z" fill="#43455B"/><path fill-rule="evenodd" clip-rule="evenodd" d="M14.412 1.612a.932.932 0 00-.53-.179c-2.965 0-4.631 3.894-5.333 6.283l2.05-.635.472-.146c.6-3.132 2.018-4.7 3.34-5.323zm1.116 3.764c0-1.232-.165-2.145-.419-2.781-1.007.432-2.158 1.577-2.773 3.948l3.191-.988v-.002l.001-.177zm1.082-.156l1.545-.478c-.392-1.196-1-2.235-1.913-2.35.227.652.369 1.474.369 2.495l-.001.333zm8.68 1.08a.31.31 0 01.28.26c.022.16 3.495 23.64 3.495 23.64l-9.893 2.14L.913 28.92s2.343-18.122 2.432-18.76c.117-.844.145-.873 1.041-1.153l2.89-.897C7.894 5.487 9.867.326 13.996.326c.539 0 1.163.29 1.667.956a2.71 2.71 0 01.15-.005c1.773 0 2.78 1.51 3.351 3.153l.956-.296c.143-.042.51-.098.697.09l1.896 1.883s2.461.183 2.577.193zm-10.697 9.094l1.22-3.628s-.824-.478-2.493-.478c-4.332 0-6.478 2.893-6.478 5.883 0 1.995 1.118 2.9 2.099 3.693.765.62 1.445 1.17 1.445 2.117 0 .523-.37 1.238-1.278 1.238-1.39 0-3.038-1.415-3.038-1.415l-.839 2.773s1.603 1.95 4.737 1.95c2.612 0 4.549-1.966 4.549-5.02 0-2.348-1.58-3.508-2.83-4.425-.815-.599-1.49-1.094-1.49-1.749 0-.304.097-1.509 2.018-1.509 1.31 0 2.378.57 2.378.57zm26.004 3.174c-.986-.535-1.494-.986-1.494-1.607 0-.789.705-1.296 1.804-1.296 1.281 0 2.425.535 2.425.535l.902-2.762s-.83-.649-3.27-.649c-3.397 0-5.751 1.946-5.751 4.68 0 1.55 1.1 2.734 2.565 3.58 1.184.676 1.607 1.156 1.607 1.86 0 .734-.592 1.326-1.691 1.326-1.638 0-3.186-.846-3.186-.846l-.958 2.762s1.429.959 3.834.959c3.495 0 6.004-1.72 6.004-4.82 0-1.664-1.268-2.848-2.79-3.722zm13.926-5.807c-1.72 0-3.072.818-4.116 2.058l-.056-.028 1.494-7.809h-3.89l-3.777 19.874h3.89l1.297-6.794c.507-2.565 1.832-4.143 3.072-4.143.874 0 1.213.591 1.213 1.437 0 .536-.057 1.184-.17 1.72l-1.466 7.78h3.89l1.523-8.034c.169-.846.282-1.86.282-2.537 0-2.199-1.156-3.524-3.186-3.524zM64.587 24.15c-1.325 0-1.888-1.128-1.888-2.537 0-2.227 1.155-5.864 3.27-5.864 1.38 0 1.832 1.184 1.832 2.34 0 2.396-1.156 6.06-3.214 6.06zm1.917-11.389c-4.68 0-7.78 4.229-7.78 8.936 0 3.017 1.86 5.441 5.356 5.441 4.595 0 7.695-4.116 7.695-8.936 0-2.79-1.634-5.44-5.27-5.44zm11.502 11.445c-1.01 0-1.607-.563-1.607-.563l.648-3.637c.452-2.424 1.72-4.031 3.073-4.031 1.184 0 1.55 1.1 1.55 2.142 0 2.51-1.493 6.09-3.664 6.09zm3.721-11.445c-2.626 0-4.116 2.312-4.116 2.312h-.056l.225-2.086h-3.439a82.83 82.83 0 01-.79 5.158l-2.706 14.236h3.89l1.072-5.75h.085s.798.507 2.283.507c4.567 0 7.555-4.68 7.555-9.415 0-2.622-1.156-4.962-4.003-4.962zm9.557-5.581c-1.24 0-2.227.986-2.227 2.255 0 1.156.733 1.945 1.832 1.945h.056c1.212 0 2.256-.818 2.284-2.255 0-1.128-.761-1.945-1.945-1.945zm-5.441 19.676h3.89l2.65-13.785h-3.918l-2.622 13.785zm16.434-13.813h-2.706l.141-.648c.226-1.325 1.015-2.51 2.312-2.51.692 0 1.24.198 1.24.198l.761-3.044s-.676-.338-2.114-.338c-1.381 0-2.763.394-3.806 1.296-1.325 1.128-1.945 2.763-2.255 4.398l-.113.648h-1.804l-.563 2.932h1.804l-2.058 10.881h3.89l2.058-10.881h2.678l.535-2.932zm9.359.028s-2.431 6.128-3.523 9.472h-.056c-.075-1.076-.959-9.472-.959-9.472h-4.088l2.34 12.658c.057.281.029.45-.084.648-.451.874-1.212 1.72-2.115 2.34-.732.535-1.55.873-2.198 1.099l1.071 3.298c.789-.169 2.424-.817 3.805-2.114 1.776-1.663 3.411-4.228 5.103-7.724l4.764-10.205h-4.06z" fill="#43455B"/></svg>