<svg width="101" height="26" viewBox="0 0 101 26" fill="none" xmlns="http://www.w3.org/2000/svg"><path fill-rule="evenodd" clip-rule="evenodd" d="M32.5 20.26l1.25-3a8.21 8.21 0 004.94 1.59c1.32 0 2.15-.52 2.15-1.31-.03-2.2-7.88-.48-7.94-6-.02-2.81 2.41-4.97 5.85-4.97 2.04 0 4.09.52 5.55 1.7l-1.18 3.05a8.7 8.7 0 00-4.57-1.5c-1.07 0-1.78.53-1.78 1.2.02 2.15 7.93.97 8.01 6.25 0 2.86-2.37 4.88-5.77 4.88-2.49 0-4.77-.6-6.51-1.9v.01zm48.14-4.07a3.63 3.63 0 01-3.16 1.89c-2 0-3.62-1.67-3.62-3.72a3.671 3.671 0 013.62-3.72c1.36 0 2.53.77 3.16 1.89l3.46-1.97a7.58 7.58 0 00-6.62-4 7.7 7.7 0 00-7.58 7.8c0 4.3 3.4 7.79 7.58 7.79 2.86 0 5.33-1.6 6.62-3.99l-3.46-1.97zM46.53.1h4.33v21.75h-4.33V.1zM85.8.1v21.76h4.33v-6.53l5.14 6.53h5.55l-6.54-7.75 6.05-7.23h-5.3l-4.9 6V.1H85.8z" fill="#43455B"/><path d="M63.72 16.23a3.97 3.97 0 01-3.38 1.85c-2 0-3.62-1.67-3.62-3.72a3.671 3.671 0 013.62-3.72c1.46 0 2.76.83 3.38 1.91v3.68zm0-9.35v1.76c-.7-1.22-2.47-2.07-4.3-2.07-3.81 0-6.8 3.45-6.8 7.77 0 4.32 2.99 7.81 6.8 7.81 1.83 0 3.6-.85 4.3-2.08v1.77h4.33V6.88h-4.33z" fill="#43455B"/><path fill-rule="evenodd" clip-rule="evenodd" d="M5.58 16.4a2.7 2.7 0 11-2.7-2.7h2.7v2.7zm1.35 0a2.71 2.71 0 015.42 0v6.77a2.71 2.71 0 01-5.42 0V16.4zM9.64 5.54a2.7 2.7 0 112.7-2.71v2.7h-2.7v.01zm0 1.37a2.705 2.705 0 110 5.41H2.85a2.7 2.7 0 110-5.4h6.79v-.01zm10.85 2.71a2.7 2.7 0 112.7 2.7h-2.7v-2.7zm-1.36 0a2.705 2.705 0 01-5.41 0V2.83a2.705 2.705 0 015.41 0v6.79zm-2.7 10.85a2.7 2.7 0 11-2.71 2.7v-2.7h2.71zm0-1.36a2.705 2.705 0 010-5.41h6.78a2.705 2.705 0 010 5.41h-6.78z" fill="#43455B"/></svg>