<svg width="1920" height="1080" viewBox="0 0 1920 1080" fill="none" xmlns="http://www.w3.org/2000/svg">
<g opacity="0.25">
<g clip-path="url(#clip0)">
<g opacity="0.5">
<path opacity="0.519192" d="M3154.61 2900.18L2163.17 1331.61C2118.55 1260.99 2063.96 1220.99 2007.35 1217.4L-857.735 1035.6" stroke="white" stroke-width="0.626263"/>
<path opacity="0.582828" d="M3107.16 2392.88L2005.05 1155.78C1956.56 1101.36 1900.91 1078.89 1845.83 1091.49L-976.56 1737.28" stroke="white" stroke-width="0.808081"/>
<path opacity="0.589899" d="M3099.19 2336.24L1986.39 1138.07C1937.56 1085.5 1881.87 1064.97 1827.03 1079.32L-987.06 1815.53" stroke="white" stroke-width="0.828283"/>
<path opacity="0.59697" d="M3090.68 2279.61L1967.52 1120.75C1918.37 1070.04 1862.67 1051.44 1808.07 1067.52L-997.019 1893.76" stroke="white" stroke-width="0.848485"/>
<path opacity="0.60404" d="M3081.61 2223L1948.45 1103.82C1898.99 1054.97 1843.28 1038.3 1788.96 1056.1L-1006.44 1971.97" stroke="white" stroke-width="0.868687"/>
<path opacity="0.611111" d="M3072.03 2166.43L1929.19 1087.28C1879.44 1040.3 1823.73 1025.56 1769.69 1045.06L-1015.32 2050.13" stroke="white" stroke-width="0.888889"/>
<path opacity="0.618182" d="M3061.89 2109.93L1909.72 1071.15C1859.71 1026.05 1804.04 1013.23 1750.29 1034.42L-1023.66 2128.23" stroke="white" stroke-width="0.909091"/>
<path opacity="0.625253" d="M3051.23 2053.51L1890.08 1055.43C1839.8 1012.22 1784.19 1001.31 1730.75 1024.17L-1031.47 2206.25" stroke="white" stroke-width="0.929293"/>
<path opacity="0.632323" d="M3040.01 1997.19L1870.24 1040.13C1819.72 998.803 1764.17 989.798 1711.05 1014.33L-1038.74 2284.18" stroke="white" stroke-width="0.949495"/>
<path opacity="0.639394" d="M3028.28 1940.98L1850.23 1025.24C1799.49 985.808 1744.01 978.701 1691.23 1004.88L-1045.47 2361.99" stroke="white" stroke-width="0.969697"/>
<path opacity="0.646465" d="M3016 1884.9L1830.03 1010.79C1779.09 973.242 1723.71 968.025 1671.28 995.833L-1051.67 2439.67" stroke="white" stroke-width="0.989899"/>
<path opacity="0.653535" d="M3003.2 1828.97L1809.65 996.759C1758.53 961.111 1703.27 957.776 1651.19 987.196L-1057.34 2517.2" stroke="white" stroke-width="1.0101"/>
<path opacity="0.660606" d="M2989.87 1773.21L1789.12 983.165C1737.83 949.417 1682.69 947.954 1630.99 978.971L-1062.48 2594.57" stroke="white" stroke-width="1.0303"/>
<path opacity="0.667677" d="M2976 1717.62L1768.41 970.005C1716.97 938.158 1661.97 938.558 1610.65 971.155L-1067.09 2671.74" stroke="white" stroke-width="1.05051"/>
<path opacity="0.674747" d="M2961.6 1662.24L1747.55 957.29C1695.97 927.342 1641.13 929.597 1590.2 963.757L-1071.18 2748.74" stroke="white" stroke-width="1.07071"/>
<path opacity="0.681818" d="M2946.68 1607.08L1726.53 945.024C1674.84 916.977 1620.17 921.073 1569.64 956.777L-1074.73 2825.5" stroke="white" stroke-width="1.09091"/>
<path opacity="0.688889" d="M2931.24 1552.15L1705.35 933.209C1653.56 907.06 1599.09 912.986 1548.97 950.219L-1077.77 2902.01" stroke="white" stroke-width="1.11111"/>
<path opacity="0.69596" d="M2915.29 1497.48L1684.03 921.85C1632.16 897.602 1577.89 905.345 1528.21 944.088L-1080.28 2978.29" stroke="white" stroke-width="1.13131"/>
<path opacity="0.70303" d="M2898.81 1443.07L1662.56 910.95C1610.63 888.594 1556.57 898.144 1507.33 938.377L-1082.28 3054.29" stroke="white" stroke-width="1.15152"/>
<path opacity="0.710101" d="M2881.81 1388.94L1640.95 900.509C1588.96 880.046 1535.15 891.391 1486.36 933.096L-1083.77 3130.03" stroke="white" stroke-width="1.17172"/>
<path opacity="0.717172" d="M2864.31 1335.12L1619.2 890.533C1567.19 871.962 1513.61 885.084 1465.29 928.241L-1084.73 3205.44" stroke="white" stroke-width="1.19192"/>
<path opacity="0.724242" d="M2846.29 1281.61L1597.32 881.029C1545.29 864.343 1491.99 879.231 1444.13 923.819L-1085.19 3280.55" stroke="white" stroke-width="1.21212"/>
<path opacity="0.731313" d="M2827.77 1228.44L1575.31 871.992C1523.29 857.188 1470.27 873.828 1422.89 919.828L-1085.15 3355.32" stroke="white" stroke-width="1.23232"/>
<path opacity="0.738384" d="M2808.75 1175.62L1553.17 863.436C1501.17 850.505 1448.44 868.884 1401.56 916.275L-1084.6 3429.76" stroke="white" stroke-width="1.25253"/>
<path opacity="0.745455" d="M2789.23 1123.17L1530.93 855.355C1478.96 844.293 1426.53 864.394 1380.16 913.156L-1083.55 3503.82" stroke="white" stroke-width="1.27273"/>
<path opacity="0.752525" d="M2769.2 1071.09L1508.56 847.751C1456.65 838.553 1404.55 860.358 1358.68 910.472L-1082 3577.47" stroke="white" stroke-width="1.29293"/>
<path opacity="0.759596" d="M2748.68 1019.41L1486.08 840.626C1434.24 833.285 1382.47 856.78 1337.13 908.221L-1079.96 3650.75" stroke="white" stroke-width="1.31313"/>
<path opacity="0.766667" d="M2727.68 968.15L1463.51 833.99C1411.75 828.498 1360.32 853.664 1315.52 906.414L-1077.42 3723.62" stroke="white" stroke-width="1.33333"/>
<path opacity="0.773737" d="M2706.17 917.322L1440.81 827.842C1389.16 824.189 1338.09 851.013 1293.84 905.046L-1074.4 3796.04" stroke="white" stroke-width="1.35354"/>
<path opacity="0.780808" d="M2684.2 866.932L1418.04 822.177C1366.51 820.357 1315.81 848.815 1272.1 904.114L-1070.9 3868.02" stroke="white" stroke-width="1.37374"/>
<path opacity="0.787879" d="M2661.75 817.009H1395.16C1343.76 817.009 1293.45 847.087 1250.3 903.628L-1066.92 3939.57" stroke="white" stroke-width="1.39394"/>
<path opacity="0.794949" d="M2638.81 767.559L1372.19 812.33C1320.94 814.142 1271.04 845.821 1228.45 903.579L-1062.47 4010.61" stroke="white" stroke-width="1.41414"/>
<path opacity="0.80202" d="M2615.41 718.597L1349.13 808.142C1298.06 811.752 1248.57 845.016 1206.56 903.971L-1057.54 4081.16" stroke="white" stroke-width="1.43434"/>
<path opacity="0.809091" d="M2591.55 670.143L1326.01 804.449C1275.11 809.849 1226.04 844.676 1184.61 904.803L-1052.15 4151.22" stroke="white" stroke-width="1.45455"/>
<path opacity="0.816162" d="M2567.21 622.207L1302.8 801.252C1252.1 808.431 1203.47 844.8 1162.63 906.074L-1046.29 4220.75" stroke="white" stroke-width="1.47475"/>
<path opacity="0.823232" d="M2542.43 574.811L1279.52 798.555C1229.03 807.5 1180.85 845.392 1140.61 907.791L-1039.98 4289.76" stroke="white" stroke-width="1.49495"/>
<path opacity="0.830303" d="M2517.19 527.961L1256.17 796.352C1205.91 807.049 1158.19 846.445 1118.56 909.949L-1033.21 4358.21" stroke="white" stroke-width="1.51515"/>
<path opacity="0.837374" d="M2491.49 481.672L1232.75 794.645C1182.74 807.081 1135.49 847.959 1096.47 912.541L-1026 4426.08" stroke="white" stroke-width="1.53535"/>
<path opacity="0.844444" d="M2465.36 435.966L1209.28 793.441C1159.52 807.602 1112.76 849.941 1074.36 915.575L-1018.35 4493.39" stroke="white" stroke-width="1.55556"/>
<path opacity="0.851515" d="M2438.8 390.849L1185.75 792.736C1136.27 808.607 1090 852.385 1052.23 919.05L-1010.25 4560.11" stroke="white" stroke-width="1.57576"/>
<path opacity="0.858586" d="M2411.8 346.337L1162.18 792.528C1112.98 810.094 1067.21 855.287 1030.09 922.96L-1001.72 4626.23" stroke="white" stroke-width="1.59596"/>
<path opacity="0.865657" d="M2384.36 302.446L1138.55 792.82C1089.66 812.066 1044.41 858.654 1007.92 927.31L-992.765 4691.71" stroke="white" stroke-width="1.61616"/>
<path opacity="0.872727" d="M2356.51 259.188L1114.89 793.616C1066.31 814.525 1021.58 862.485 985.743 932.097L-983.385 4756.59" stroke="white" stroke-width="1.63636"/>
<path opacity="0.879798" d="M2328.24 216.572L1091.18 794.904C1042.94 817.46 998.744 866.77 963.558 937.313L-973.588 4820.8" stroke="white" stroke-width="1.65657"/>
<path opacity="0.886869" d="M2299.55 174.616L1067.44 796.694C1019.54 820.878 975.895 871.514 941.367 942.964L-963.38 4884.35" stroke="white" stroke-width="1.67677"/>
<path opacity="0.893939" d="M2270.45 133.335L1043.67 798.984C996.132 824.783 953.041 876.723 919.177 949.053L-952.763 4947.24" stroke="white" stroke-width="1.69697"/>
<path opacity="0.90101" d="M2240.96 92.7339L1019.88 801.768C972.708 829.159 930.183 882.379 896.987 955.565L-941.748 5009.42" stroke="white" stroke-width="1.71717"/>
<path opacity="0.908081" d="M2211.08 52.8355L996.067 805.056C949.279 834.022 907.328 888.495 874.807 962.512L-930.333 5070.92" stroke="white" stroke-width="1.73737"/>
<path opacity="0.915152" d="M2180.8 13.639L972.235 808.831C925.844 839.354 884.477 895.058 852.635 969.88L-918.531 5131.73" stroke="white" stroke-width="1.75758"/>
<path opacity="0.922222" d="M2150.15 -24.8312L948.389 813.108C902.409 845.167 861.633 902.078 830.475 977.681L-906.347 5191.8" stroke="white" stroke-width="1.77778"/>
<path opacity="0.929293" d="M2119.11 -62.5679L924.533 817.879C878.977 851.456 838.803 909.546 808.331 985.902L-893.784 5251.15" stroke="white" stroke-width="1.79798"/>
<path opacity="0.936364" d="M2087.69 -99.5614L900.675 823.138C855.553 858.214 815.987 917.46 786.207 994.545L-880.849 5309.74" stroke="white" stroke-width="1.81818"/>
<path opacity="0.943434" d="M2055.92 -135.801L876.811 828.889C832.137 865.439 793.188 925.816 764.103 1003.61L-867.552 5367.57" stroke="white" stroke-width="1.83838"/>
<path opacity="0.950505" d="M2023.79 -171.269L852.956 835.132C808.741 873.137 770.417 934.621 742.031 1013.09L-853.891 5424.62" stroke="white" stroke-width="1.85859"/>
<path opacity="0.957576" d="M1991.31 -205.961L829.106 841.86C785.362 881.299 747.669 943.861 719.985 1022.98L-839.88 5480.92" stroke="white" stroke-width="1.87879"/>
<path opacity="0.964646" d="M1958.47 -239.859L805.265 849.08C762.004 889.931 724.951 953.545 697.972 1033.29L-825.524 5536.43" stroke="white" stroke-width="1.89899"/>
<path opacity="0.971717" d="M1925.29 -272.959L781.439 856.778C738.671 899.019 702.263 963.662 675.993 1044L-810.828 5591.13" stroke="white" stroke-width="1.91919"/>
<path opacity="0.978788" d="M1891.79 -305.251L757.633 864.959C715.371 908.566 679.616 974.211 654.056 1055.12L-795.797 5645.02" stroke="white" stroke-width="1.93939"/>
<path opacity="0.985859" d="M1857.96 -336.725L733.849 873.617C692.101 918.567 657.007 985.187 632.161 1066.65L-780.44 5698.08" stroke="white" stroke-width="1.9596"/>
<path opacity="0.992929" d="M1823.81 -367.365L710.091 882.754C668.869 929.027 634.44 996.594 610.309 1078.58L-764.765 5750.33" stroke="white" stroke-width="1.9798"/>
<path opacity="0.5" d="M1789.35 -397.162L686.364 892.369C645.679 939.937 611.92 1008.43 588.507 1090.9L-748.776 5801.73" stroke="white" stroke-width="2"/>
</g>
</g>
</g>
<defs>
<clipPath id="clip0">
<rect width="1920" height="1080" fill="white"/>
</clipPath>
</defs>
</svg>
