<svg xmlns="http://www.w3.org/2000/svg" viewBox="0 0 1000 1000" fill="none"><path d="M118.258 499.989c0 151.112 87.814 281.689 215.151 343.577l-182.1-498.938a380.294 380.294 0 00-33.051 155.361zm639.459-19.264c0-47.179-16.946-79.852-31.482-105.283-19.351-31.446-37.481-58.076-37.481-89.521 0-35.092 26.607-67.758 64.097-67.758 1.692 0 3.297.21 4.954.305-67.926-62.223-158.412-100.214-257.798-100.214-133.366 0-250.7 68.427-318.959 172.069 8.956.268 17.404.45 24.566.45 39.93 0 101.739-4.845 101.739-4.845 20.579-1.213 23.005 29.012 2.455 31.446 0 0-20.688 2.433-43.7 3.639l139.018 413.5 83.549-250.555-59.484-162.952c-20.557-1.206-40.032-3.64-40.032-3.64-20.571-1.206-18.159-32.658 2.412-31.445 0 0 63.044 4.845 100.555 4.845 39.922 0 101.739-4.845 101.739-4.845 20.593-1.213 23.012 29.012 2.448 31.445 0 0-20.724 2.434-43.693 3.64l137.957 410.369 38.07-127.243c16.511-52.801 29.07-90.726 29.07-123.407z" fill="#00749A"/><path d="M506.705 533.382L392.167 866.201a381.437 381.437 0 00107.84 15.559c44.456 0 87.088-7.692 126.771-21.639a32.308 32.308 0 01-2.717-5.259l-117.356-321.48zm328.272-216.546c1.641 12.16 2.571 25.22 2.571 39.254 0 38.739-7.235 82.286-29.027 136.737L691.913 829.968c113.492-66.181 189.829-189.138 189.829-329.979a379.67 379.67 0 00-46.765-183.153z" fill="#00749A"/><path d="M500.007 55C254.639 55 55.004 254.62 55.004 499.989c0 245.398 199.627 445.018 445.003 445.018 245.362 0 445.026-199.613 445.026-445.018C945.025 254.62 745.369 55 500.007 55zm0 869.603c-234.117 0-424.599-190.483-424.599-424.614 0-234.11 190.475-424.577 424.599-424.577 234.11 0 424.578 190.467 424.578 424.577 0 234.131-190.475 424.614-424.578 424.614z" fill="#00749A"/></svg>