<svg xmlns="http://www.w3.org/2000/svg" width="124" height="34" viewBox="0 0 112 30"><path fill="#35B9B2" d="M40.874 22.454h2.553l-.433-1.983V8.685h-2.44v5.38a3.822 3.822 0 00-2.94-1.345c-2.44 0-4.331 2.03-4.331 4.97 0 2.963 1.892 4.97 4.331 4.97a3.797 3.797 0 002.986-1.414l.274 1.208zm48.237-7.09c.501 0 .957.138 1.368.434l1.162-2.599c-.547-.342-1.162-.479-1.778-.479-1.094 0-2.029.502-2.599 1.437l-.25-1.209h-2.508l.41 1.87v7.66h2.44V16.39c.319-.639.934-1.026 1.755-1.026zm7.135 4.742c-1.413 0-2.462-.934-2.462-2.393 0-1.482 1.049-2.394 2.462-2.394 1.436 0 2.462.912 2.462 2.394 0 1.436-1.026 2.393-2.462 2.393zM35.653 17.69c0-1.482 1.05-2.394 2.463-2.394 1.436 0 2.462.912 2.462 2.394 0 1.459-1.026 2.394-2.462 2.394-1.414.022-2.463-.935-2.463-2.394zm71.421 2.416c-1.413 0-2.462-.934-2.462-2.393 0-1.482 1.05-2.394 2.462-2.394 1.437 0 2.462.912 2.462 2.394-.022 1.436-1.048 2.393-2.462 2.393zm-57.72-4.946c1.254 0 2.075.592 2.348 1.687h-4.696c.25-1.118 1.094-1.687 2.348-1.687zm29.157 0c1.253 0 2.074.592 2.348 1.687h-4.696c.296-1.118 1.117-1.687 2.348-1.687zm-11.9 7.294h3.92l2.554-9.551h-2.667l-1.847 7.75-1.869-7.727h-2.621l2.53 9.528zm-6.27 0h2.44v-9.551h-2.44v9.551zm-10.622.183c1.368 0 2.69-.388 3.807-1.094l-.935-2.098c-.866.479-1.87.73-2.85.73-1.276 0-2.165-.502-2.575-1.436h6.884a5.61 5.61 0 00.114-1.117c0-2.964-2.052-4.924-4.764-4.924-2.759 0-4.765 2.006-4.765 4.97-.023 3.031 1.984 4.969 5.084 4.969zm62.165-4.947c0-2.964-2.051-4.97-4.81-4.97-2.78 0-4.81 2.03-4.81 4.97s2.052 4.97 4.81 4.97c2.759 0 4.81-2.007 4.81-4.97zm-33.031 4.97c1.367 0 2.69-.365 3.807-1.095l-.935-2.097c-.866.479-1.87.73-2.85.73-1.276 0-2.165-.502-2.576-1.437h6.885a5.61 5.61 0 00.114-1.117c0-2.963-2.052-4.924-4.765-4.924-2.758 0-4.764 2.006-4.764 4.97 0 3.055 1.983 4.97 5.084 4.97zm17.393 0c2.781 0 4.81-2.03 4.81-4.97s-2.051-4.97-4.81-4.97c-2.781 0-4.81 2.03-4.81 4.97s2.029 4.97 4.81 4.97zm-40.532-.206h2.44V8.685h-2.44v13.77zm5.859-10.85c.843 0 1.527-.685 1.527-1.55 0-.867-.66-1.551-1.527-1.551-.866 0-1.55.684-1.55 1.55s.66 1.55 1.55 1.55zM19.65 0l-1.39 13.222-2.37-11.148-7.478 1.573 2.348 11.148L0 17.075l1.915 8.89L20.859 30l4.331-9.688L27.242.798 19.65 0zm-5.995 19.195c-.388.364-.889.319-1.459.136-.547-.182-.775-.82-.593-1.641.16-.593.867-.684 1.254-.684.137 0 .274.023.41.091.251.114.684.365.776.73.136.547 0 1.003-.388 1.368zm5.494.592c-.296.502-1.026.57-1.778.205-.502-.25-.502-.843-.433-1.23.022-.206.114-.41.25-.57.183-.228.48-.525.798-.525.57-.023 1.026.228 1.3.684.273.456.136.958-.137 1.436z"/></svg>