<svg xmlns="http://www.w3.org/2000/svg" xmlns:xlink="http://www.w3.org/1999/xlink" width="111" height="37" viewBox="0 0 111 37"><defs><path id="didi-color-a" d="M.252.259h3.407V23.96H.252z"/><path id="didi-color-c" d="M0 0h43.644v35.947H0z"/></defs><g fill="none" fill-rule="evenodd"><path fill="#646464" d="M52.67 7.543h6.65c6.691 0 12.012 4.139 12.012 11.118 0 7.609-4.572 11.495-12.012 11.495h-6.65V7.543zm3.2 19.771h3.367c5.528 0 8.604-2.675 8.604-8.527 0-5.266-3.575-8.401-8.23-8.401h-3.783v16.928h.041zM75.404 9.925h3.41V6.498h-3.41v3.427zm.167 20.274h3.035V13.646h-3.035v16.553zm8.687-22.656h6.65c6.692 0 12.014 4.139 12.014 11.118 0 7.609-4.572 11.495-12.013 11.495h-6.65V7.543zM87.5 27.314h3.367c5.528 0 8.605-2.675 8.605-8.527 0-5.266-3.575-8.401-8.23-8.401H87.46v16.928h.041z"/><g transform="translate(106.745 6.239)"><mask id="didi-color-b" fill="#fff"><use xlink:href="#didi-color-a"/></mask><path fill="#646464" d="M.252 3.686H3.66V.26H.252v3.427zM.458 23.96h3.035V7.407H.458V23.96z" mask="url(#didi-color-b)"/></g><g transform="translate(.795 .563)"><mask id="didi-color-d" fill="#fff"><use xlink:href="#didi-color-c"/></mask><path fill="#FC9153" d="M21.947 28.048a13.898 13.898 0 0013.467-13.77V7.813h8.23v7.14c-.167 11.616-10.1 20.74-21.697 20.994C10.142 35.863.125 26.654 0 14.953V2.154C0 .845.832 0 2.08 0h33.335v7.814H9.269c-.665 0-1.08.423-1.08 1.098v5.24c.083 7.56 6.11 13.812 13.758 13.896" mask="url(#didi-color-d)"/></g></g></svg>