<svg xmlns="http://www.w3.org/2000/svg" width="116" height="35" viewBox="0 0 116 35"><g fill="none"><path fill="#072F54" d="M57.387 26.813h-3.693c-.023 0-.023 0-.035-.011l-3.178-3.88-3.178 3.88c-.012.011-.024.011-.035.011H44.31c-.023 0-.035-.011-.046-.023 0-.012 0-.035.011-.047l4.686-5.749-4.627-5.69c-.012-.023-.012-.035-.012-.059.012-.011.023-.023.035-.023h3.693c.011 0 .023.012.035.023l2.792 3.46 2.84-3.46c.011-.011.023-.023.035-.023h3.003c.011 0 .035.012.046.023.012.024 0 .036-.011.059l-4.382 5.27 5.024 6.17c.012.01.012.034.012.046-.023.023-.035.023-.058.023m19.969-9.558c-1.636 0-2.746.993-3.073 2.711h5.562v-.117c0-1.367-1.017-2.594-2.49-2.594m5.352 4.487c-.011.012-.023.024-.035.024h-8.448c.176 1.963 1.45 3.084 3.517 3.084 1.274 0 2.63-.432 4.534-1.449.035-.023.07.012.07.047v2.594c0 .024-.011.035-.023.035-1.776.748-3.564 1.262-4.966 1.262-3.634 0-6.275-2.652-6.275-6.298s2.64-6.298 6.275-6.298c3.318 0 5.445 2.232 5.445 5.305 0 .502-.082 1.66-.094 1.694m17.154-8.927c-1.04 0-1.882-.83-1.882-1.846 0-1.052.842-1.905 1.882-1.905s1.88.853 1.88 1.905c0 1.016-.84 1.846-1.88 1.846zm-1.52 13.998c-.034 0-.046-.011-.046-.046v-11.51c0-.023.012-.047.035-.047h3.05c.023 0 .035.024.035.047v11.51c0 .035-.024.046-.047.046h-3.026zm-35.369-1.729c-.55 0-1.11-.082-1.764-.245l.011-7.385c.76-.246 1.414-.35 2.068-.35 2.115 0 3.53 1.553 3.53 3.879 0 2.489-1.508 4.101-3.845 4.101m.83-10.341c-.865 0-1.73.152-2.641.467h-3.038a.05.05 0 00-.047.047v18.871a7.154 7.154 0 003.132-1.227v-5.737c.747.105 1.367.175 1.963.175 4.16 0 6.847-2.489 6.847-6.345 0-3.68-2.56-6.251-6.216-6.251m28.99 9.383c-.947.502-1.8.736-2.595.736-1.88 0-3.014-1.332-3.014-3.564 0-2.57 1.437-4.241 3.669-4.241.619 0 1.215.151 1.94.479v6.59zm0-15.003v6.017c-.889-.257-1.671-.374-2.466-.374-3.622 0-6.345 2.723-6.345 6.345 0 3.6 2.407 6.216 5.726 6.216 1.145 0 2.22-.292 3.482-.934v1.04a6.943 6.943 0 002.734-1.169V7.884a6.911 6.911 0 00-3.132 1.239zm19.197 14.98c-.923.525-1.706.782-2.407.782-2.021 0-3.225-1.332-3.225-3.563 0-2.536 1.426-4.242 3.54-4.242.562 0 1.251.222 2.092.666v6.356zm3.132-9.033a.13.13 0 00-.129-.128h-2.465c-.07 0-.14.058-.14.128v.42h-.059c-1.133-.502-2.115-.724-3.061-.724-3.412 0-6.088 2.828-6.088 6.45 0 3.658 2.396 6.111 5.96 6.111.946 0 2.173-.07 3.318-1.378v1.484c.806-.176 1.764-.514 2.664-1.169V15.07zm-79.245 8.87h7.654a7.036 7.036 0 01-1.064 2.874h-7.957c-.97 0-1.776-.76-1.87-1.706 0-.011-.011-.023-.011-.046V9.964c0-.012.011-.023.011-.035.094-.958.9-1.718 1.87-1.718h9.009a6.991 6.991 0 01-1.075 2.898h-6.567v4.113h6.508a.05.05 0 01.047.047v2.85a.05.05 0 01-.047.048h-6.508v5.772zM16.42 11.097l-.55-1.565-4.72-6.298.841-.21 8.121 7.022 4.78-1.367c.56-.14 1.203-.176 1.682-.176a13.714 13.714 0 00-7.876-7.186C11.536-1.242 3.648 2.51 1.101 9.684c-.794 2.22-.97 4.51-.642 6.683l11.439-3.973 4.522-1.297zm10.668-1.355c-.42.269-1.04.63-1.647.83l-4.791 1.367-3.19 10.259-.83.269.678-7.83-.374-1.623-4.487 1.285-11.872 2.77c.947 4.556 4.172 8.54 8.88 10.212 7.175 2.559 15.05-1.192 17.61-8.367a13.728 13.728 0 00.023-9.172"/><path fill="#FBC108" d="M16.922 13.002l.374 1.624-.677 7.829.83-.269 3.19-10.259 4.79-1.367c.607-.199 1.227-.55 1.647-.83-.151-.42-.315-.83-.502-1.238-.49 0-1.122.023-1.683.175l-4.779 1.367-8.12-7.022-.842.21 4.71 6.298.548 1.566-4.522 1.297-11.44 3.973c.036.233.083.479.13.712l11.86-2.792 4.486-1.274z"/></g></svg>