<svg xmlns="http://www.w3.org/2000/svg" xmlns:xlink="http://www.w3.org/1999/xlink" width="111" height="37" viewBox="0 0 111 37"><defs><path id="google-color-a" d="M.354.313h17.269V26.4H.354z"/><path id="google-color-c" d="M0 36.05h109.514V0H0z"/></defs><g fill="none" fill-rule="evenodd" transform="translate(.596 .292)"><path fill="#EA4335" d="M42.91 18.971c0-3.24-2.352-5.458-5.081-5.458-2.73 0-5.081 2.217-5.081 5.458 0 3.209 2.351 5.459 5.08 5.459 2.73 0 5.082-2.254 5.082-5.459m3.956 0c0 5.187-4.058 9.009-9.037 9.009-4.98 0-9.037-3.822-9.037-9.009 0-5.223 4.057-9.008 9.037-9.008s9.037 3.785 9.037 9.008"/><path fill="#FBBC05" d="M62.405 18.971c0-3.24-2.352-5.458-5.081-5.458-2.73 0-5.081 2.217-5.081 5.458 0 3.209 2.352 5.459 5.08 5.459 2.73 0 5.082-2.254 5.082-5.459m3.956 0c0 5.187-4.058 9.009-9.037 9.009-4.98 0-9.037-3.822-9.037-9.009 0-5.219 4.057-9.008 9.037-9.008s9.037 3.785 9.037 9.008"/><g transform="translate(67.42 9.65)"><mask id="google-color-b" fill="#fff"><use xlink:href="#google-color-a"/></mask><path fill="#4285F4" d="M14.146 9.354c0-3.172-2.116-5.492-4.809-5.492-2.73 0-5.015 2.32-5.015 5.492 0 3.14 2.286 5.426 5.015 5.426 2.693 0 4.81-2.287 4.81-5.426zM17.623.857V17.03c0 6.653-3.924 9.37-8.562 9.37-4.366 0-6.994-2.92-7.985-5.309l3.445-1.433c.613 1.466 2.116 3.196 4.536 3.196 2.969 0 4.81-1.832 4.81-5.28v-1.296h-.139c-.885 1.093-2.591 2.047-4.744 2.047-4.504 0-8.63-3.923-8.63-8.971C.354 4.269 4.48.313 8.984.313c2.148 0 3.854.954 4.744 2.014h.138V.861h3.757V.857z" mask="url(#google-color-b)"/></g><mask id="google-color-d" fill="#fff"><use xlink:href="#google-color-c"/></mask><path fill="#34A853" mask="url(#google-color-d)" d="M87.379 27.427h3.858V1.028h-3.858z"/><path fill="#EA4335" d="M96.822 18.695l8.05-3.343c-.443-1.125-1.775-1.908-3.343-1.908-2.01 0-4.809 1.774-4.707 5.251m9.451 3.241l3.07 2.047c-.99 1.466-3.379 3.993-7.505 3.993-5.118 0-8.94-3.956-8.94-9.009 0-5.357 3.855-9.008 8.497-9.008 4.675 0 6.962 3.72 7.709 5.73l.41 1.024-12.042 4.988c.922 1.807 2.356 2.729 4.366 2.729 2.014 0 3.412-.991 4.435-2.494" mask="url(#google-color-d)"/><path fill="#4285F4" d="M14.187 16.628v-3.822h12.879c.126.666.19 1.454.19 2.307 0 2.867-.783 6.413-3.31 8.94-2.457 2.558-5.596 3.922-9.755 3.922C6.482 27.975 0 21.696 0 13.988 0 6.279 6.482 0 14.19 0c4.265 0 7.303 1.673 9.586 3.854l-2.697 2.697c-1.637-1.535-3.854-2.73-6.892-2.73-5.63 0-10.032 4.538-10.032 10.167s4.403 10.166 10.032 10.166c3.651 0 5.73-1.466 7.063-2.799 1.08-1.08 1.79-2.623 2.071-4.731l-9.134.004z" mask="url(#google-color-d)"/></g></svg>