<svg xmlns="http://www.w3.org/2000/svg" width="121" height="36" viewBox="0 0 121 36"><g fill="none" fill-rule="evenodd"><path fill="#000" fill-rule="nonzero" d="M41.329 16.272H39.81c-1.994-2.817-3.971-5.615-5.946-8.778h-.014v8.778h-1.678V4.032h1.52c1.993 2.797 3.968 5.576 5.924 8.723h.035V4.033h1.677v12.239zm3.988-4.845c.487-1.609.977-3.094 1.415-4.983h.035c.49 1.889.927 3.375 1.381 4.983h-2.831zm.802-7.394l-4.228 12.239h1.818l1.063-3.341h3.692l.96 3.34h2.345l-3.9-12.238h-1.75zm7.624 12.239V5.674h-3.218V4.033h8.531v1.641h-3.215v10.598h-2.098zm5.993-12.24h2.084v12.24h-2.084V4.032zm8.553 10.699c-2.188 0-2.957-2.413-2.957-4.756 0-2.255.874-4.406 2.957-4.406 2.08 0 2.95 2.151 2.95 4.406 0 2.343-.766 4.756-2.95 4.756zm0 1.748c3.198 0 5.19-2.849 5.19-6.505 0-3.425-2.199-6.153-5.19-6.153-2.989 0-5.198 2.728-5.198 6.153 0 3.657 1.997 6.505 5.198 6.505zm15.628-.207h-1.52c-1.995-2.817-3.971-5.615-5.945-8.778h-.017v8.778H74.76V4.032h1.52c1.99 2.797 3.967 5.576 5.922 8.723h.036V4.033h1.68v12.239h-.001zm3.986-4.845c.49-1.609.978-3.094 1.418-4.983h.034c.49 1.889.926 3.375 1.38 4.983h-2.832zm.806-7.394l-4.23 12.239h1.819l1.064-3.341h3.69l.962 3.34h2.341l-3.9-12.238H88.71zm6.256 0h2.084v10.594h4.142v1.645h-6.226V4.032zM40.039 26.509v5.05c-1.12.44-2.292.753-3.477.753-3.603 0-5.875-2.798-5.875-6.4 0-3.34 2.272-6.259 5.943-6.259 1.135 0 2.272.422 2.972.945l-.682 1.451c-.559-.346-1.435-.644-2.238-.644-2.236 0-3.759 1.766-3.759 4.547 0 2.9 1.75 4.612 3.55 4.612.558 0 1.032-.067 1.472-.297V26.51h2.094zm7.504-4.999h-3.5v3.355h3.426v1.644h-3.427v3.948h4.126v1.646h-6.225v-12.24h5.6v1.647zm6.468 9.053c-2.188 0-2.958-2.41-2.958-4.755 0-2.253.874-4.404 2.958-4.404 2.079 0 2.951 2.15 2.951 4.404 0 2.344-.77 4.755-2.95 4.755zm0 1.749c3.198 0 5.19-2.85 5.19-6.505 0-3.425-2.202-6.155-5.19-6.155-2.993 0-5.193 2.73-5.193 6.155-.001 3.656 1.989 6.505 5.193 6.505zm15.258-5.803v5.05c-1.12.44-2.288.753-3.479.753-3.6 0-5.874-2.798-5.874-6.4 0-3.34 2.274-6.259 5.946-6.259 1.137 0 2.272.422 2.97.945l-.683 1.451c-.56-.346-1.428-.644-2.234-.644-2.24 0-3.762 1.766-3.762 4.547 0 2.9 1.75 4.612 3.551 4.612.561 0 1.03-.067 1.47-.297V26.51h2.095zm4.026-4.999h.924c1.238 0 1.94.714 1.94 1.974 0 1.642-.996 2.375-1.993 2.427-.21.022-.7.04-.871.054V21.51zm5.313 10.593l-2.47-5.068c1.347-.715 2.12-2.17 2.12-3.639 0-2.38-1.454-3.533-3.797-3.533h-3.269v12.24h2.103v-4.615h.943l1.972 4.615h2.398zm3.46-4.843c.489-1.611.979-3.096 1.417-4.984h.035c.49 1.888.925 3.373 1.38 4.984h-2.831zm.804-7.397l-4.232 12.24h1.818l1.067-3.34h3.691l.956 3.34h2.347l-3.9-12.24h-1.747zm9.58 0h-3.27v12.24h2.099v-4.615h.942c2.501 0 4.024-2.029 4.024-4.092 0-2.38-1.452-3.533-3.795-3.533zm-.295 6.05c-.218.019-.73.035-.876.05V21.51h.942c1.223 0 1.925.714 1.925 1.974 0 1.642-.993 2.376-1.99 2.428zm13.809 6.19h-2.097v-5.89h-4.357v5.89h-2.075v-12.24h2.075v4.704h4.357v-4.669h2.097v12.205zm2.009-12.24h2.085v12.24h-2.085v-12.24zm11.522 2.222c-.508-.315-1.344-.68-2.152-.68-2.136 0-3.687 1.766-3.687 4.546 0 2.9 1.712 4.612 3.741 4.612a3.959 3.959 0 002.098-.613l.578 1.523c-.633.436-1.748.839-2.76.839-3.603 0-5.878-2.798-5.878-6.4 0-3.34 2.255-6.259 5.908-6.259 1.087 0 2.097.458 2.818.945l-.666 1.487z"/><path fill="#F7D730" d="M.491.497H25.03v35.16H.491V.496zm3.537 31.62H21.48V4.038H4.028v28.079z"/></g></svg>