<svg xmlns="http://www.w3.org/2000/svg" xmlns:xlink="http://www.w3.org/1999/xlink" width="150" height="38" viewBox="0 0 150 38"><defs><path id="postmates-color-a" d="M0 .171h51.784v37.173H0z"/></defs><g fill="none" fill-rule="evenodd"><path fill="#020000" d="M81.805 13.128l-.03-.003.03.003z"/><g transform="translate(.238 .382)"><path fill="#020000" d="M67.03 15.692c-.172-.215-.45-.322-.836-.322h-.94v2.872h.893c.396 0 .684-.111.865-.332.182-.219.273-.59.273-1.12 0-.517-.086-.884-.256-1.098m2.715 2.772c-.187.479-.447.868-.784 1.165a3.123 3.123 0 01-1.196.65 5.29 5.29 0 01-1.518.209h-.991v4.191h-2.706V13.125h3.894c.518 0 .993.063 1.428.19.435.127.811.33 1.13.61.32.28.57.65.75 1.106.183.456.274 1.02.274 1.693 0 .683-.094 1.263-.281 1.74m7.74-1.287c-.056-.465-.139-.835-.247-1.11-.11-.276-.248-.473-.413-.589a.956.956 0 00-.562-.174c-.22 0-.41.055-.57.166-.158.111-.294.301-.404.572-.109.27-.188.639-.24 1.103a17.294 17.294 0 00-.072 1.741c0 .696.027 1.277.081 1.74.055.465.14.834.248 1.111.11.277.246.474.403.59.162.115.35.173.571.173a.992.992 0 00.562-.166c.165-.11.299-.301.404-.572.104-.27.183-.637.24-1.1.054-.466.082-1.047.082-1.744 0-.696-.028-1.275-.082-1.741m2.639 4.366c-.186.746-.458 1.368-.817 1.856-.357.49-.794.855-1.312 1.098a4.11 4.11 0 01-1.749.364c-1.298 0-2.308-.482-3.028-1.446-.721-.963-1.08-2.461-1.08-4.497 0-2.034.364-3.54 1.095-4.513.732-.974 1.747-1.461 3.046-1.461 1.3 0 2.311.485 3.036 1.455.727.967 1.09 2.462 1.09 4.487 0 1.023-.095 1.908-.281 2.657m9.59 1.36a2.943 2.943 0 01-.784 1.067 3.619 3.619 0 01-1.186.66c-.46.154-.958.23-1.497.23-.45 0-.857-.047-1.221-.132a3.75 3.75 0 01-.998-.396 4.203 4.203 0 01-.834-.637c-.253-.247-.5-.53-.742-.848l1.883-1.7c.383.461.735.811 1.055 1.048.318.237.62.355.906.355.287 0 .525-.074.711-.224.187-.148.28-.381.28-.7 0-.166-.016-.314-.05-.447a.983.983 0 00-.205-.388 1.98 1.98 0 00-.447-.379 5.249 5.249 0 00-.783-.405 11.465 11.465 0 01-1.46-.751c-.401-.247-.728-.512-.973-.8a2.674 2.674 0 01-.539-.947 4.05 4.05 0 01-.162-1.198c0-.473.081-.914.246-1.321a3.13 3.13 0 01.71-1.064 3.306 3.306 0 011.13-.717 4.017 4.017 0 011.493-.265c.44 0 .834.04 1.18.115.347.077.662.195.94.357.282.158.544.35.788.578.239.224.482.484.723.782l-1.915 1.715a47.931 47.931 0 00-.51-.585 3.044 3.044 0 00-.413-.388 1.265 1.265 0 00-.403-.206 1.813 1.813 0 00-.471-.057c-.265 0-.469.082-.612.247a.864.864 0 00-.214.577 1.02 1.02 0 00.296.77c.11.113.259.226.448.337.186.11.428.23.725.364a10.32 10.32 0 011.477.767c.402.257.729.541.982.85.254.308.436.645.554 1.014.114.368.173.796.173 1.279a3.56 3.56 0 01-.28 1.444m7.308-7.369v9.144H94.27v-9.144h-2.344v-2.41h7.442v2.41zm11.57 9.144v-2.557c0-.63.006-1.222.017-1.776.011-.555.029-1.081.051-1.577l-.223.769a41.058 41.058 0 01-.579 1.774 47.15 47.15 0 00-.289.841l-1.089 2.888-1.09-2.888-.287-.833a40.917 40.917 0 01-.8-2.55 74.126 74.126 0 01.065 3.352v2.557h-2.507V13.125h2.507l1.022 2.84c.256.692.479 1.355.679 1.989.199.633.335 1.15.411 1.56.087-.41.232-.926.43-1.552.198-.627.424-1.3.676-2.015l1.006-2.822h2.493V24.68h-2.493zm9.87-4.77c-.132-.76-.255-1.455-.372-2.087-.115-.633-.2-1.214-.255-1.743a31.4 31.4 0 01-.238 1.743c-.106.632-.231 1.335-.373 2.103l-.066.363h1.37l-.066-.379zm.957 4.77l-.43-2.146h-2.277l-.412 2.146h-2.84l2.989-11.554h2.84l2.97 11.554h-2.84zm8.781-9.144v9.144h-2.758v-9.144H123.1v-2.41h7.444v2.41zm4.835 9.144V13.125h6.768v2.36h-4.03v1.965h2.626v2.359h-2.626v2.509h4.144v2.361zm16.322-1.775a2.95 2.95 0 01-.784 1.066 3.594 3.594 0 01-1.188.66 4.644 4.644 0 01-1.493.23c-.453 0-.857-.047-1.22-.132a3.742 3.742 0 01-1.002-.396 4.269 4.269 0 01-.833-.637 7.79 7.79 0 01-.74-.848l1.88-1.7c.384.461.738.811 1.058 1.048.316.237.62.355.905.355.289 0 .523-.074.712-.224.185-.148.28-.381.28-.7 0-.166-.017-.314-.05-.447a1.007 1.007 0 00-.206-.388 2.072 2.072 0 00-.445-.379 5.433 5.433 0 00-.784-.405c-.573-.25-1.06-.501-1.46-.751a4.088 4.088 0 01-.975-.8 2.694 2.694 0 01-.536-.947 3.944 3.944 0 01-.166-1.198c0-.473.083-.914.247-1.321a3.15 3.15 0 01.71-1.064 3.33 3.33 0 011.131-.717 4.016 4.016 0 011.494-.265c.44 0 .834.04 1.18.115.348.077.66.195.94.357.28.158.544.35.784.578.24.224.485.484.728.782l-1.917 1.715c-.198-.229-.366-.424-.511-.585a2.967 2.967 0 00-.412-.388 1.297 1.297 0 00-.404-.206 1.799 1.799 0 00-.471-.057c-.263 0-.468.082-.612.247a.854.854 0 00-.213.577c0 .155.022.291.066.412.044.123.12.24.231.357.11.114.26.227.444.338.19.11.43.23.728.364a10.19 10.19 0 011.476.767c.402.257.73.541.983.85.252.308.438.645.552 1.014.117.368.173.796.173 1.279 0 .539-.092 1.02-.28 1.444"/><mask id="postmates-color-b" fill="#fff"><use xlink:href="#postmates-color-a"/></mask><path fill="#020000" d="M34.593 8.026a22.116 22.116 0 012.232.012l4.156-3.725-1.827-.184-4.582 3.895.003.004a.176.176 0 01.018-.002zM4.372 27.154l-1.35-2.402-.321 2.738-2.7.54 2.503 1.149-.32 2.737 1.869-2.027 2.503 1.151-1.35-2.402 1.866-2.025-2.7.541zm9.027 4.155l-1.348-2.402-.32 2.737-2.701.54 2.504 1.151-.32 2.737 1.867-2.028 2.503 1.152-1.35-2.404 1.868-2.024-2.703.541zm1.21-11.592l-1.35-2.402-.32 2.737-2.701.541 2.505 1.152-.32 2.736 1.866-2.028 2.504 1.152-1.35-2.402 1.868-2.028-2.701.542zm33.487 3.459a5.445 5.445 0 01-2.126.926 5.517 5.517 0 01-5.555-2.185c-1.38-1.922-1.334-4.434-.084-6.29l4.434 3.294a.415.415 0 00.3.08.418.418 0 00.206-.75l-4.308-3.396a5.434 5.434 0 012.84-1.547 5.521 5.521 0 015.554 2.187 5.51 5.51 0 01-1.261 7.68zm-14.678-7.937c-1.317-.95-4.04-.491-5.814-.196.604-1.267 1.667-2.58 2.023-4.109.19.965 3.374 2.06 3.374 2.06s1.447-.32 2.698-.81a.533.533 0 00.042.035l.477.355-2.8 2.665zm1.918 4.87l-1.245-2.87c.04-.455.015-.864-.087-1.205l2.17-2.068-.838 6.143zm-.52 3.789c-.226.007-.455.07-.666.18-.119-.139-.302-.277-.633-.49-.25-.162-1.388-.844-1.345-.987.165-.494.536-1.232 1.073-2.275.562.62 1.129 1.678 1.686 2.744l-.114.828zM33.082 26.3a6.922 6.922 0 00-4.599-2.693l.184-1.976 1.564 1.105c-.172.628-.099.96.412 1.166l2.735 1.06.015.01c-.114.353-.103.742.05 1.094l-.361.234zm-2.305 8.611a5.463 5.463 0 01-2.125.931 5.52 5.52 0 01-5.554-2.187 5.512 5.512 0 013.385-8.609c.296-.06.595-.091.892-.101l-.522 5.597a.492.492 0 00.583.525.47.47 0 00.168-.068l4.83-3.115c1.258 2.39.598 5.409-1.657 7.027zM28.351 25a5.512 5.512 0 013.552 2.062l-3.983 2.57.431-4.632zm3.487-6.905c-.501 1.735-1 2.955-1.327 3.814l-1.539-1.087 2.866-2.727zm-6.01.505c.206-.002.421-.018.659-.063a63.074 63.074 0 004.007-.514l-2.336 2.224-2.33-1.647zm6.684-8.368c1.022.09 2.07.005 2.996-.136l.338.744a21.68 21.68 0 00-2.153.236c-.54.089-1.937-1.296-1.18-.844zm17.979 4.448a6.918 6.918 0 00-6.965-2.74 6.83 6.83 0 00-2.666 1.16 6.937 6.937 0 00-1.003.882l-2.01-1.582c.585-.218 2.41-.951 1.653-1.349-.201-.108-.614-.18-1.148-.22l1.425-1.24.311-.27L42.757 7l-1.242-2.418-4.09 3.67s-.004-.006-.401.358l-.011-.001.003.008-.003.002-.003-.003a10.948 10.948 0 00-2.133.082l-.001-.002c-.917.165-1.693.282-2.062.21-1.343-.26-1.66-1.689-2.269-2.519-.346-.471-1.04-.526-1.1-.93.193-.035.375-.09.536-.168.737-.35.993-.682 1.193-1.128.253-.567-.018-1.499-.396-2.271.304-.221 1.446-1.112 1.402-1.264-.015-.057-1.436.14-2.033.255a1.52 1.52 0 00-.24-.24c-.487-.358-.885-.721-2.033-.24-1.963.818-1.86 2.348-1.21 3.712.3.632.825 1.029 1.398 1.228-.043.08-.065.126-.087.167l.055-.136c-3.1 2.796-10.334 7.503-12.24 7.596 1.577.615 6.12.7 8.023-.436-.534 2.173-.567 4.318.35 5.38-.704.524-1.432 1.087-1.783 1.429-.275.267-.192.405.045.708 0 0 1.842.035 2.388-.484.146-.14.274-.266.39-.383l2.542 1.796-.24 2.567a6.848 6.848 0 00-3.965 1.293 6.912 6.912 0 00-1.579 9.63 6.924 6.924 0 006.966 2.742 6.832 6.832 0 002.665-1.163c2.862-2.057 3.676-5.912 2.019-8.926l.504-.325a1.548 1.548 0 001.65-.094c.507-.365.724-.977.613-1.551.69-.2 1.413-.433 2.22-.672.838-.248.961-.499.754-.912-.281-.564-2.403-.055-2.677-.374l-.588-1.354 1.162-8.501 1.96 1.455c-1.603 2.331-1.67 5.512.071 7.939a6.921 6.921 0 006.965 2.74 6.909 6.909 0 004.245-10.794z" mask="url(#postmates-color-b)"/></g></g></svg>