<svg xmlns="http://www.w3.org/2000/svg" width="91" height="64" viewBox="0 0 91 64"><path fill="#2791C4" fill-rule="evenodd" d="M37.69 7.779c2.902-3.024 6.943-4.9 11.413-4.9 5.941 0 11.124 3.312 13.884 8.23a19.194 19.194 0 017.848-1.668c10.716 0 19.403 8.763 19.403 19.573s-8.687 19.574-19.403 19.574c-1.308 0-2.586-.132-3.822-.381-2.43 4.334-7.063 7.264-12.38 7.264-2.225 0-4.33-.513-6.205-1.428-2.463 5.796-8.205 9.86-14.895 9.86-6.968 0-12.908-4.408-15.187-10.592-.995.21-2.029.322-3.087.322-8.296 0-15.02-6.795-15.02-15.177 0-5.62 3.02-10.524 7.51-13.148a17.378 17.378 0 01-1.438-6.943c0-9.64 7.827-17.456 17.48-17.456a17.46 17.46 0 0113.9 6.87zM13.273 33.576c-.057.148.02.179.039.204.169.123.34.211.513.31.918.487 1.785.629 2.692.629 1.846 0 2.993-.982 2.993-2.562v-.03c0-1.462-1.295-1.994-2.508-2.378l-.159-.05c-.915-.298-1.705-.554-1.705-1.157v-.03c0-.517.462-.896 1.177-.896.795 0 1.739.264 2.346.6 0 0 .18.115.244-.058l.376-1.01c.034-.097-.026-.17-.09-.208-.694-.422-1.653-.71-2.645-.71h-.184c-1.69 0-2.87 1.022-2.87 2.485v.03c0 1.541 1.3 2.043 2.52 2.39l.196.061c.89.273 1.655.508 1.655 1.133v.031c0 .572-.499.998-1.3.998a4.357 4.357 0 01-2.379-.684c-.13-.077-.203-.131-.304-.192-.053-.033-.185-.09-.243.083l-.364 1.011zm27.027 0c-.057.148.02.179.038.204.17.123.34.211.514.31.918.487 1.785.629 2.691.629 1.847 0 2.994-.982 2.994-2.562v-.03c0-1.462-1.295-1.994-2.508-2.378l-.159-.05c-.915-.298-1.705-.554-1.705-1.157v-.03c0-.517.462-.896 1.177-.896.795 0 1.738.264 2.345.6 0 0 .18.115.245-.058l.376-1.01c.034-.097-.027-.17-.09-.208-.694-.422-1.652-.71-2.646-.71h-.183c-1.69 0-2.87 1.022-2.87 2.485v.03c0 1.541 1.302 2.043 2.52 2.39l.196.061c.89.273 1.656.508 1.656 1.133v.031c0 .572-.498.998-1.301.998a4.36 4.36 0 01-2.379-.684c-.13-.077-.206-.128-.304-.192-.033-.021-.189-.082-.242.083l-.365 1.011zm18.45-3.097c0 .893-.166 1.598-.494 2.095-.326.493-.816.733-1.5.733-.685 0-1.173-.24-1.493-.733-.325-.497-.489-1.202-.489-2.095 0-.891.164-1.595.487-2.087.322-.487.81-.724 1.495-.724.684 0 1.174.237 1.5.724.328.492.495 1.196.495 2.087zm1.542-1.656a3.705 3.705 0 00-.702-1.338 3.37 3.37 0 00-1.183-.9c-.471-.22-1.027-.332-1.651-.332-.626 0-1.183.113-1.654.332-.47.22-.869.523-1.182.9-.315.377-.55.828-.701 1.338a5.834 5.834 0 00-.228 1.656c0 .59.077 1.148.228 1.656.15.51.386.962.7 1.339.314.377.714.679 1.185.893.47.214 1.026.323 1.652.323.624 0 1.178-.109 1.65-.323.472-.214.87-.516 1.184-.893.314-.376.55-.827.702-1.339a5.86 5.86 0 00.227-1.656 5.86 5.86 0 00-.227-1.656zm12.654 4.245c-.05-.15-.197-.093-.197-.093a3.478 3.478 0 01-.717.204c-.256.04-.54.06-.844.06-.744 0-1.338-.222-1.763-.66-.424-.439-.664-1.147-.661-2.107.002-.871.213-1.527.591-2.029.376-.497.949-.752 1.71-.752.635 0 1.12.074 1.629.233 0 0 .121.052.178-.106.137-.376.236-.642.38-1.053.04-.118-.06-.167-.097-.181a5.99 5.99 0 00-1.027-.261 7.872 7.872 0 00-1.157-.077c-.646 0-1.223.111-1.716.331a3.54 3.54 0 00-1.242.898 3.818 3.818 0 00-.75 1.339 5.294 5.294 0 00-.25 1.66c0 1.278.343 2.31 1.025 3.066.682.76 1.706 1.145 3.042 1.145.79 0 1.6-.16 2.182-.388 0 0 .112-.055.063-.184l-.379-1.045zm2.697-3.445c.074-.496.21-.908.422-1.23.319-.488.805-.758 1.49-.758.686 0 1.137.27 1.462.758.216.323.31.751.347 1.232l-3.721-.002zm5.188-1.09a3.246 3.246 0 00-.667-1.22c-.336-.363-.666-.616-.99-.756a3.8 3.8 0 00-1.495-.303c-.651 0-1.243.11-1.723.335-.48.225-.883.533-1.2.917a3.782 3.782 0 00-.707 1.354 5.859 5.859 0 00-.229 1.664c0 .602.08 1.163.237 1.665.159.51.412.955.755 1.327a3.46 3.46 0 001.312.87c.525.202 1.163.307 1.894.305 1.507-.004 2.3-.34 2.627-.521.059-.034.113-.09.045-.25l-.342-.956c-.052-.141-.196-.09-.196-.09-.374.14-.903.388-2.142.385-.809 0-1.408-.239-1.784-.613-.385-.381-.575-.942-.607-1.734l5.216.004s.137-.002.152-.137c.005-.055.178-1.071-.156-2.246zm-46.966 1.09c.074-.496.21-.908.42-1.23.322-.488.807-.758 1.492-.758.686 0 1.138.27 1.463.758.215.323.308.751.346 1.232l-3.721-.002zm5.187-1.09a3.246 3.246 0 00-.666-1.22c-.336-.363-.664-.616-.991-.756a3.804 3.804 0 00-1.493-.303c-.652 0-1.244.11-1.724.335-.48.225-.883.533-1.2.917a3.782 3.782 0 00-.707 1.354 5.851 5.851 0 00-.23 1.664c0 .602.08 1.163.238 1.665.158.51.412.955.755 1.327a3.46 3.46 0 001.312.87c.525.202 1.163.307 1.894.305 1.507-.004 2.3-.34 2.627-.521.059-.034.113-.09.045-.25l-.342-.956c-.052-.141-.196-.09-.196-.09-.375.14-.904.388-2.142.385-.808 0-1.408-.239-1.784-.613-.385-.381-.575-.942-.607-1.734l5.215.004s.138-.002.152-.137c.006-.055.18-1.071-.156-2.246zM22.59 33.04c-.205-.163-.233-.204-.3-.31-.105-.16-.157-.387-.157-.678 0-.458.152-.788.465-1.009-.002 0 .45-.392 1.513-.377.748.01 1.417.12 1.417.12v2.372s-.663.141-1.409.186c-1.06.065-1.533-.305-1.529-.304zm2.076-3.665a11.423 11.423 0 00-.814-.024c-.447 0-.88.056-1.286.166a3.37 3.37 0 00-1.088.503 2.519 2.519 0 00-.757.862 2.504 2.504 0 00-.279 1.2c0 .463.08.864.24 1.192.158.33.387.605.68.816.289.212.647.367 1.062.46.41.095.874.142 1.382.142.535 0 1.067-.045 1.584-.132a30.56 30.56 0 001.314-.255c.173-.04.365-.093.365-.093.13-.033.119-.17.119-.17l-.003-4.77c0-1.048-.279-1.823-.828-2.304-.547-.48-1.354-.721-2.396-.721-.392 0-1.02.053-1.399.128 0 0-1.139.22-1.607.589 0 0-.103.063-.047.207l.369.992c.046.129.172.085.172.085s.04-.016.086-.044c1.002-.545 2.272-.529 2.272-.529.564 0 .997.115 1.29.337.284.22.428.548.428 1.244v.22c-.447-.064-.86-.101-.86-.101zm42.074-2.688a.142.142 0 00-.078-.188 4.73 4.73 0 00-.874-.15c-.656-.04-1.02.07-1.345.218-.325.145-.683.382-.881.65l-.002-.636c0-.087-.062-.157-.15-.157h-1.336c-.088 0-.15.07-.15.157v7.782c0 .087.07.157.159.157h1.37c.087 0 .158-.07.158-.157v-3.888c0-.522.058-1.042.173-1.369.112-.324.266-.582.456-.767.19-.185.408-.315.646-.387.242-.075.51-.1.698-.1.274 0 .573.072.573.072.102.01.157-.052.192-.142.088-.238.344-.953.391-1.095zM53.875 23.08a4.106 4.106 0 00-1.225-.177c-.943 0-1.686.267-2.209.793-.518.523-.872 1.319-1.049 2.365l-.063.353h-1.184s-.146-.005-.175.152l-.194 1.085c-.015.103.03.168.17.168h1.153l-1.171 6.53a8.146 8.146 0 01-.312 1.285c-.114.324-.227.566-.364.742-.134.17-.26.296-.477.369-.18.06-.388.087-.614.087-.126 0-.294-.021-.418-.046-.125-.024-.19-.052-.282-.09 0 0-.135-.052-.19.083-.042.111-.348.957-.385 1.061-.037.103.014.184.08.208.154.054.268.09.476.139.291.068.536.072.765.072.48 0 .918-.067 1.28-.198.365-.132.683-.362.965-.672.303-.336.494-.688.677-1.168.181-.475.335-1.065.46-1.753l1.174-6.65h1.718s.145.006.174-.151l.195-1.085c.013-.103-.03-.168-.17-.168h-1.667c.007-.037.083-.624.275-1.176a1.5 1.5 0 01.366-.556c.127-.129.275-.22.437-.273a1.84 1.84 0 01.559-.08c.157 0 .31.02.429.043.161.034.225.053.267.065.17.053.192.002.226-.08l.398-1.095c.041-.117-.058-.168-.095-.182zM30.57 34.362V23.228c0-.087-.062-.157-.15-.157h-1.383c-.087 0-.15.07-.15.157v11.134c0 .087.063.159.15.159h1.384c.087 0 .15-.072.15-.16z"/></svg>