<svg xmlns="http://www.w3.org/2000/svg" width="116" height="34" viewBox="0 0 116 34"><g fill="none" fill-rule="evenodd"><path fill="#8CB849" d="M13.882 1.433c.179 0 .358.06.53.18-1.323.622-2.742 2.19-3.34 5.322l-2.523.78c.702-2.388 2.368-6.282 5.333-6.282zm1.227 1.162c.254.636.419 1.549.419 2.781l-.001.179-3.19.988c.614-2.371 1.765-3.516 2.772-3.948zm3.046 2.147l-1.545.478v-.333c0-1.021-.14-1.843-.368-2.495.913.115 1.521 1.154 1.913 2.35zm7.415 1.817a.31.31 0 00-.28-.26c-.116-.01-2.577-.192-2.577-.192s-1.709-1.696-1.896-1.884c-.188-.187-.554-.13-.697-.089l-.956.296c-.57-1.643-1.578-3.153-3.35-3.153-.05 0-.1.002-.15.005-.505-.666-1.129-.956-1.668-.956-4.129 0-6.102 5.161-6.72 7.784-1.604.497-2.744.85-2.89.897-.896.28-.924.309-1.041 1.153-.089.638-2.432 18.76-2.432 18.76l18.258 3.42 9.894-2.14S25.592 6.72 25.57 6.56z"/><path fill="#5A873E" d="M25.29 6.3c-.116-.01-2.577-.193-2.577-.193s-1.709-1.696-1.896-1.884a.467.467 0 00-.264-.121l-1.38 28.238 9.892-2.14S25.592 6.72 25.57 6.56a.31.31 0 00-.28-.26"/><path fill="#FFFFFE" d="M15.813 11.766l-1.22 3.628s-1.068-.57-2.379-.57c-1.92 0-2.017 1.205-2.017 1.51 0 1.656 4.32 2.291 4.32 6.173 0 3.054-1.937 5.02-4.549 5.02-3.134 0-4.737-1.95-4.737-1.95l.84-2.772s1.647 1.414 3.037 1.414c.908 0 1.278-.715 1.278-1.238 0-2.162-3.544-2.258-3.544-5.81 0-2.99 2.146-5.883 6.478-5.883 1.669 0 2.493.478 2.493.478"/><path fill="#0A0B09" d="M40.597 18.568c-.986-.535-1.494-.986-1.494-1.607 0-.789.705-1.296 1.804-1.296 1.281 0 2.425.535 2.425.535l.902-2.762s-.83-.649-3.27-.649c-3.397 0-5.751 1.946-5.751 4.68 0 1.55 1.1 2.734 2.565 3.58 1.184.676 1.607 1.156 1.607 1.86 0 .734-.592 1.325-1.691 1.325-1.638 0-3.186-.845-3.186-.845l-.958 2.762s1.429.959 3.834.959c3.495 0 6.004-1.72 6.004-4.82 0-1.664-1.268-2.848-2.79-3.722m13.925-5.807c-1.72 0-3.072.818-4.116 2.058l-.056-.028 1.494-7.809h-3.89l-3.777 19.874h3.89l1.297-6.793c.507-2.566 1.832-4.144 3.072-4.144.874 0 1.212.591 1.212 1.437a8.9 8.9 0 01-.169 1.72l-1.466 7.78h3.89l1.523-8.034c.169-.846.282-1.86.282-2.537 0-2.199-1.156-3.524-3.186-3.524M64.587 24.15c-1.325 0-1.888-1.128-1.888-2.537 0-2.227 1.155-5.864 3.27-5.864 1.38 0 1.832 1.184 1.832 2.34 0 2.396-1.156 6.06-3.214 6.06zm1.917-11.389c-4.68 0-7.78 4.229-7.78 8.936 0 3.017 1.86 5.441 5.356 5.441 4.595 0 7.695-4.116 7.695-8.936 0-2.79-1.634-5.44-5.271-5.44zm11.502 11.445c-1.01 0-1.607-.563-1.607-.563l.648-3.637c.451-2.424 1.72-4.031 3.073-4.031 1.184 0 1.55 1.1 1.55 2.142 0 2.51-1.494 6.09-3.664 6.09zm3.721-11.445c-2.626 0-4.116 2.312-4.116 2.312h-.056l.225-2.086h-3.439a82.678 82.678 0 01-.79 5.158l-2.706 14.236h3.89l1.072-5.75h.085s.798.507 2.283.507c4.567 0 7.555-4.68 7.555-9.415 0-2.622-1.156-4.962-4.003-4.962zm9.557-5.581c-1.24 0-2.227.986-2.227 2.255 0 1.156.733 1.945 1.832 1.945h.056c1.212 0 2.256-.818 2.284-2.255 0-1.128-.761-1.945-1.945-1.945m-5.441 19.676h3.89l2.65-13.785h-3.918l-2.622 13.785m16.434-13.813h-2.706l.141-.648c.226-1.325 1.015-2.51 2.312-2.51.692 0 1.24.198 1.24.198l.761-3.044s-.676-.339-2.114-.339c-1.381 0-2.763.395-3.806 1.297-1.325 1.128-1.945 2.763-2.255 4.398l-.113.648h-1.804l-.563 2.932h1.804l-2.058 10.881h3.89l2.058-10.881h2.678l.535-2.932m9.36.028s-2.432 6.128-3.524 9.472h-.056c-.075-1.077-.959-9.472-.959-9.472h-4.088l2.34 12.658c.057.281.028.45-.084.648-.452.874-1.212 1.72-2.115 2.34-.732.535-1.55.873-2.198 1.099l1.07 3.298c.79-.169 2.425-.817 3.806-2.114 1.776-1.663 3.411-4.228 5.103-7.724l4.764-10.205h-4.06"/></g></svg>