<svg xmlns="http://www.w3.org/2000/svg" xmlns:xlink="http://www.w3.org/1999/xlink" width="125" height="40" viewBox="0 0 125 40"><defs><path id="spotify-color-a" d="M0 .119h38.775v38.775H0z"/></defs><g fill="none" fill-rule="evenodd"><g transform="translate(-.018 .613)"><mask id="spotify-color-b" fill="#fff"><use xlink:href="#spotify-color-a"/></mask><path fill="#1ED760" d="M30.856 17.306c-6.25-3.711-16.558-4.052-22.524-2.242a1.813 1.813 0 11-1.052-3.47c6.848-2.079 18.232-1.677 25.427 2.593a1.813 1.813 0 01-1.851 3.12m-.205 5.496a1.512 1.512 0 01-2.08.498c-5.209-3.202-13.154-4.13-19.318-2.26a1.513 1.513 0 01-1.886-1.006c-.241-.8.21-1.642 1.008-1.885 7.041-2.137 15.795-1.102 21.779 2.575.71.438.934 1.369.497 2.078m-2.372 5.28a1.207 1.207 0 01-1.662.402c-4.552-2.783-10.283-3.411-17.031-1.87a1.208 1.208 0 11-.538-2.355c7.385-1.689 13.72-.962 18.83 2.16.57.349.75 1.093.4 1.662M19.389.12C8.68.119 0 8.799 0 19.506c0 10.708 8.68 19.388 19.387 19.388 10.708 0 19.388-8.68 19.388-19.388C38.775 8.8 30.095.12 19.387.12" mask="url(#spotify-color-b)"/></g><path fill="#1ED760" d="M52.729 18.63c-3.347-.799-3.944-1.359-3.944-2.536 0-1.112 1.048-1.86 2.605-1.86 1.51 0 3.006.568 4.575 1.738.048.035.107.05.166.04a.216.216 0 00.144-.09l1.635-2.303a.22.22 0 00-.042-.298c-1.868-1.499-3.97-2.228-6.429-2.228-3.614 0-6.139 2.17-6.139 5.273 0 3.328 2.178 4.506 5.942 5.416 3.203.738 3.743 1.356 3.743 2.46 0 1.225-1.093 1.987-2.852 1.987-1.954 0-3.548-.659-5.33-2.202a.227.227 0 00-.161-.053.217.217 0 00-.15.077l-1.834 2.181a.218.218 0 00.022.304c2.075 1.852 4.626 2.83 7.379 2.83 3.895 0 6.411-2.128 6.411-5.421 0-2.784-1.663-4.324-5.741-5.315m17.38 3.73c0 2.35-1.448 3.991-3.521 3.991-2.05 0-3.596-1.715-3.596-3.99 0-2.276 1.546-3.991 3.596-3.991 2.04 0 3.521 1.678 3.521 3.99m-2.827-7.032c-1.688 0-3.073.665-4.215 2.028v-1.534a.22.22 0 00-.22-.22h-2.996a.22.22 0 00-.22.22v17.04c0 .12.099.22.22.22h2.997a.22.22 0 00.22-.22v-5.379c1.141 1.282 2.526 1.908 4.214 1.908 3.137 0 6.312-2.415 6.312-7.03 0-4.617-3.175-7.033-6.312-7.033m14.451 11.048c-2.148 0-3.768-1.727-3.768-4.016 0-2.298 1.564-3.967 3.719-3.967 2.162 0 3.793 1.727 3.793 4.017 0 2.299-1.574 3.966-3.744 3.966m0-11.048c-4.04 0-7.204 3.11-7.204 7.082 0 3.93 3.143 7.007 7.155 7.007 4.054 0 7.228-3.1 7.228-7.057 0-3.943-3.152-7.032-7.179-7.032m15.806.274H94.24V12.23a.22.22 0 00-.219-.22h-2.997a.22.22 0 00-.22.22v3.372h-1.441a.22.22 0 00-.219.22v2.576c0 .12.098.22.219.22h1.441v6.665c0 2.694 1.34 4.06 3.985 4.06 1.075 0 1.967-.222 2.808-.7a.218.218 0 00.11-.19v-2.452a.22.22 0 00-.317-.197 3.777 3.777 0 01-1.76.425c-.961 0-1.39-.437-1.39-1.415v-6.196h3.298a.22.22 0 00.219-.22v-2.576a.22.22 0 00-.22-.22m11.493.013v-.414c0-1.218.467-1.762 1.515-1.762.624 0 1.126.125 1.688.312a.22.22 0 00.289-.208v-2.526a.22.22 0 00-.155-.21 8.227 8.227 0 00-2.492-.359c-2.768 0-4.231 1.56-4.231 4.507v.635h-1.44a.22.22 0 00-.22.219v2.589c0 .12.099.22.22.22h1.44v10.28c0 .122.097.22.218.22h2.998a.22.22 0 00.22-.22v-10.28h2.798l4.286 10.278c-.486 1.08-.965 1.295-1.618 1.295-.528 0-1.084-.158-1.653-.469a.225.225 0 00-.174-.016.222.222 0 00-.13.118l-1.016 2.229a.218.218 0 00.095.284c1.06.574 2.017.82 3.2.82 2.214 0 3.437-1.032 4.516-3.805l5.2-13.437a.22.22 0 00-.204-.3h-3.12a.22.22 0 00-.208.148l-3.196 9.13-3.501-9.137a.219.219 0 00-.205-.14h-5.12zm-6.663-.013H99.37a.22.22 0 00-.22.22V28.9c0 .121.099.22.22.22h2.997a.22.22 0 00.22-.22V15.822a.22.22 0 00-.22-.22m-1.483-5.954a2.15 2.15 0 10-.002 4.3 2.15 2.15 0 00.002-4.3"/></g></svg>