<svg xmlns="http://www.w3.org/2000/svg" viewBox="0 0 750 500"> <g id="freepik--background-simple--inject-43"> <path d="M596.17,95.39c-22.37-15-52.28-14-78.28-7s-49.75,20.4-73.89,32.33-49.67,22.69-76.58,23.79c-32.81,1.35-64.26-11.69-96.38-18.5s-66.38-7.15-96.46,5.74c-39.41,16.88-67.72,57.12-70.29,99.92a108.56,108.56,0,0,0,.22,16C107,276.54,120.67,300.53,140,320c60.09,60.62,291.09,67,345,52.6,44.22-11.78,70.87-21.17,103.62-52.53,23.2-22.21,40.33-49.75,51.84-79.74C665.28,175.79,627.6,116.48,596.17,95.39Z" style="fill:#EBFF05" opacity="1"></path> <path d="M596.17,95.39c-22.37-15-52.28-14-78.28-7s-49.75,20.4-73.89,32.33-49.67,22.69-76.58,23.79c-32.81,1.35-64.26-11.69-96.38-18.5s-66.38-7.15-96.46,5.74c-39.41,16.88-67.72,57.12-70.29,99.92a108.56,108.56,0,0,0,.22,16C107,276.54,120.67,300.53,140,320c60.09,60.62,291.09,67,345,52.6,44.22-11.78,70.87-21.17,103.62-52.53,23.2-22.21,40.33-49.75,51.84-79.74C665.28,175.79,627.6,116.48,596.17,95.39Z" style="fill:#fff" opacity="0.7000000000000001"></path> </g> <g id="freepik--Floor--inject-43"> <path d="M706.71,456c0,.15-148.52.26-331.69.26S43.29,456.1,43.29,456s148.49-.26,331.73-.26S706.71,455.81,706.71,456Z" style="fill:#263238"></path> </g> <g id="freepik--character-1--inject-43"> <path d="M105,447.13l1.45-2.22,12.47,7.89L116,457.73l-.82-.41c-3.62-1.85-18.3-9.65-20.24-11.73C92.74,443.27,105,447.13,105,447.13Z" style="fill:#EBFF05"></path> <g style="opacity:0.5"> <path d="M111.41,454.94a5.21,5.21,0,0,1,3.16-1.9,4.34,4.34,0,0,1,3.62,1l-2.13,3.54Z" style="fill:#fff"></path> </g> <g style="opacity:0.5"> <path d="M98.89,445.43s-4.43-1.11-4.32-.21,14.65,9.34,21.39,12.51l.15-.3-17-9.7S99.61,445.89,98.89,445.43Z" style="fill:#fff"></path> </g> <path d="M116.31,457.54l-.23-.11-.65-.32-2.37-1.25c-2-1.06-4.74-2.57-7.72-4.3s-5.66-3.36-7.58-4.56l-2.26-1.44-.6-.4-.21-.15a.86.86,0,0,1,.23.12l.62.37,2.29,1.39c1.93,1.18,4.61,2.78,7.6,4.52s5.71,3.25,7.69,4.34l2.34,1.3.64.35C116.24,457.49,116.32,457.53,116.31,457.54Z" style="fill:#263238"></path> <path d="M99,447.93a5.84,5.84,0,0,0,.21-1.36,6,6,0,0,0-.27-1.34,2,2,0,0,1,.45,1.34A2,2,0,0,1,99,447.93Z" style="fill:#263238"></path> <path d="M103.82,448.2a1.45,1.45,0,0,1-.12-.72,1.49,1.49,0,0,1,.06-.73,1.59,1.59,0,0,1,.12.72A1.64,1.64,0,0,1,103.82,448.2Z" style="fill:#263238"></path> <path d="M105.16,448.25s-.17-.23-.27-.56a1.18,1.18,0,0,1-.11-.61s.17.23.28.56S105.21,448.24,105.16,448.25Z" style="fill:#263238"></path> <path d="M106.51,447.43a1.78,1.78,0,0,1-.71-.3c-.37-.21-.65-.41-.63-.46a1.92,1.92,0,0,1,.72.3C106.26,447.18,106.54,447.39,106.51,447.43Z" style="fill:#263238"></path> <path d="M107.23,446.71a1.43,1.43,0,0,1-.87-.21c-.45-.22-.73-.51-.7-.55a4.76,4.76,0,0,1,.78.39A5.11,5.11,0,0,1,107.23,446.71Z" style="fill:#263238"></path> <path d="M104,446.84a2.75,2.75,0,0,1-.82-.48,6.59,6.59,0,0,1-.76-.7,3.3,3.3,0,0,1-.37-.49.54.54,0,0,1-.06-.38.36.36,0,0,1,.31-.25,1.74,1.74,0,0,1,1.61,1.52,1.62,1.62,0,0,1-.06.7c0,.16-.09.23-.1.23a2.84,2.84,0,0,0,0-.91,1.67,1.67,0,0,0-.43-.86,1.43,1.43,0,0,0-1-.5c-.18,0-.22.2-.13.37a3.1,3.1,0,0,0,.35.46,5.92,5.92,0,0,0,.71.71C103.73,446.63,104,446.81,104,446.84Z" style="fill:#263238"></path> <path d="M103.79,446.76a1,1,0,0,1,.24-.63,1.5,1.5,0,0,1,.57-.46,1,1,0,0,1,.92,0,.38.38,0,0,1,0,.53,1.11,1.11,0,0,1-.35.28,2.73,2.73,0,0,1-.68.27,1.26,1.26,0,0,1-.66.06s.25,0,.62-.18a3.14,3.14,0,0,0,.63-.29c.22-.11.47-.37.29-.53a.81.81,0,0,0-.74,0,1.54,1.54,0,0,0-.54.39A3.43,3.43,0,0,0,103.79,446.76Z" style="fill:#263238"></path> <path d="M118.08,453.9s-.35-.24-1-.51a4.59,4.59,0,0,0-4.88.72c-.51.43-.75.79-.77.77s0-.1.15-.26a3.52,3.52,0,0,1,.53-.6,4.51,4.51,0,0,1,5-.75,4.27,4.27,0,0,1,.69.43A1.19,1.19,0,0,1,118.08,453.9Z" style="fill:#263238"></path> <path d="M110.52,452.77a8.47,8.47,0,0,1-2-.9,8.34,8.34,0,0,1-1.78-1.23s.83.5,1.87,1.08S110.54,452.72,110.52,452.77Z" style="fill:#263238"></path> <path d="M113,454.21c0,.05-.17.14-.36.28s-.34.29-.39.26,0-.24.28-.4S113,454.17,113,454.21Z" style="fill:#263238"></path> <path d="M114.64,453.59c0,.05-.14.13-.35.19s-.39.06-.41,0,.15-.14.36-.19S114.63,453.54,114.64,453.59Z" style="fill:#263238"></path> <path d="M116.3,453.84s-.2-.06-.43-.11-.42,0-.43-.07.19-.16.47-.1S116.33,453.81,116.3,453.84Z" style="fill:#263238"></path> <path d="M117.4,454.14c0,.05-.12.07-.24.05s-.23-.07-.23-.12.12-.07.25-.05S117.41,454.09,117.4,454.14Z" style="fill:#263238"></path> <path d="M209.38,437.74l-49.81-47a16.38,16.38,0,0,0-11.71-4.93h0a16.38,16.38,0,0,0-14.21,8.25l-29.86,49.49L122,454.75,148.88,416l24.59,22.22Z" style="fill:#263238"></path> <path d="M224,440.09c.21.63,1.69,16.68-19.85,16.68H146.65a13.18,13.18,0,0,1-13.18-13.19h0a13.19,13.19,0,0,1,13.18-13.19h53.58a13.14,13.14,0,0,1,5.55,1.23Z" style="fill:#263238"></path> <path d="M141.57,430.39c0,.13,11.88.24,26.54.24s26.54-.11,26.54-.24-11.88-.23-26.54-.23S141.57,430.27,141.57,430.39Z" style="fill:#455a64"></path> <path d="M150.45,405c-.14,0-.14,2.49-.6,5.51s-1.15,5.41-1,5.45a17.58,17.58,0,0,0,1.47-5.38A17.24,17.24,0,0,0,150.45,405Z" style="fill:#455a64"></path> <path d="M148,404.66a34.68,34.68,0,0,0,1,11.24c.13,0-.22-2.52-.48-5.62S148.14,404.66,148,404.66Z" style="fill:#455a64"></path> <path d="M192.62,334a1.67,1.67,0,0,0,2.7,1.5c1-.76.83-2.29.38-3.45s-1.11-2.37-.82-3.58a8.44,8.44,0,0,1,1.47-2.42,5.37,5.37,0,0,0,.59-4.76,4.51,4.51,0,0,0-3.72-2.89c-1.69-.13-3.56.74-5-.18-1-.67-1.35-2-2.21-2.91-1.34-1.35-3.58-1.17-5.39-.56s-3.57,1.58-5.47,1.48c-1.59-.08-3-.9-4.59-1.27a8.34,8.34,0,0,0-8.46,13.31c.77,1,2.52,3.86,6,3.14" style="fill:#263238"></path> <path d="M190.64,320.91l.47,2.5,7.23,37.3c.84,4.33-2.22,8.5-6.86,9.37h0c-4.69.87-9.24-2-10.16-6.32-1-4.58-2.06-9.38-2.06-9.38s-6.11.25-8.93-7.2c-1.4-3.7-2.51-10-3.25-15.21a8.3,8.3,0,0,1,7.39-9.45Z" style="fill:#ffbe9d"></path> <path d="M170.05,337a1,1,0,0,0,1.16.8,1,1,0,0,0,.83-1.1,1,1,0,0,0-1.15-.8A1,1,0,0,0,170.05,337Z" style="fill:#263238"></path> <path d="M169.12,335c.14.1.78-.61,1.84-.83s1.95.16,2,0-.13-.27-.52-.45a2.72,2.72,0,0,0-1.66-.16,2.62,2.62,0,0,0-1.44.82C169.11,334.65,169,334.9,169.12,335Z" style="fill:#263238"></path> <path d="M180.54,334.84a1,1,0,0,0,1.16.8,1,1,0,0,0,.83-1.11,1,1,0,0,0-1.16-.8A1,1,0,0,0,180.54,334.84Z" style="fill:#263238"></path> <path d="M179.6,333c.15.1.78-.61,1.84-.83s2,.16,2.05,0-.13-.27-.52-.45a2.76,2.76,0,0,0-1.67-.16,2.65,2.65,0,0,0-1.44.82C179.59,332.68,179.53,332.93,179.6,333Z" style="fill:#263238"></path> <path d="M177.38,341.66a7.34,7.34,0,0,0-1.79,0c-.28,0-.55,0-.63-.14a1.52,1.52,0,0,1,0-.85c.12-.7.25-1.45.38-2.23a36.43,36.43,0,0,0,.68-5.78,36.87,36.87,0,0,0-1.15,5.71c-.11.79-.23,1.53-.33,2.24a1.57,1.57,0,0,0,.08,1.1.69.69,0,0,0,.53.3,1.74,1.74,0,0,0,.47,0A7.38,7.38,0,0,0,177.38,341.66Z" style="fill:#263238"></path> <path d="M179.26,354.38a20,20,0,0,0,9.74-4.89s-1.41,5.81-9.26,6.69Z" style="fill:#eb996e"></path> <path d="M180.66,341.74c-.18,0,.06,1.18-.76,2.21s-2.07,1.15-2,1.31.32.17.84.07a2.87,2.87,0,0,0,1.72-1,2.53,2.53,0,0,0,.56-1.83C180.92,342,180.74,341.72,180.66,341.74Z" style="fill:#263238"></path> <path d="M178.46,328.87c.17.27,1.2-.09,2.48-.2s2.35,0,2.46-.27c0-.14-.18-.37-.64-.57a4.36,4.36,0,0,0-3.77.36C178.57,328.47,178.39,328.74,178.46,328.87Z" style="fill:#263238"></path> <path d="M168.87,331.79c.23.2.91-.2,1.79-.39s1.66-.18,1.78-.47c.05-.13-.12-.35-.49-.51a2.52,2.52,0,0,0-1.55-.09,2.48,2.48,0,0,0-1.33.78C168.81,331.42,168.76,331.69,168.87,331.79Z" style="fill:#263238"></path> <path d="M166.11,328.6s4.36,1.25,9.13-2.28c3.14-2.31,7-3.85,8-3.31s1.81,4,5.39,4.47c0,0,.95,6.79,3.59,6.08s-.54-14.07-.54-14.07l-7.46,1.14-7.42-.1-6.6,2.14-5,2.35Z" style="fill:#263238"></path> <path d="M191.45,317.54c0-.11-.66-.21-1.35.21s-.9,1.07-.79,1.11.43-.41,1-.76S191.45,317.66,191.45,317.54Z" style="fill:#263238"></path> <path d="M188.76,315.74a8.5,8.5,0,0,0,.13,1.75c.06.94-.2,1.68-.09,1.73a2.14,2.14,0,0,0,.5-1.75A2.72,2.72,0,0,0,188.76,315.74Z" style="fill:#263238"></path> <path d="M191.49,330.83c.09-.07,4.13-2.45,5.11,2s-3.72,4.54-3.76,4.42S191.49,330.83,191.49,330.83Z" style="fill:#ffbe9d"></path> <path d="M193.84,335.28s.09,0,.23.07a.8.8,0,0,0,.59-.12,1.94,1.94,0,0,0,.51-1.92,2.47,2.47,0,0,0-.46-1.07.92.92,0,0,0-.72-.47.39.39,0,0,0-.41.31c0,.14,0,.22,0,.23s-.11-.05-.11-.24a.48.48,0,0,1,.11-.32.63.63,0,0,1,.41-.21,1.14,1.14,0,0,1,1,.52,2.78,2.78,0,0,1,.54,1.19,2.06,2.06,0,0,1-.72,2.18.88.88,0,0,1-.74,0C193.87,335.39,193.82,335.29,193.84,335.28Z" style="fill:#eb996e"></path> <polygon points="185.27 430.02 185.27 427.06 143.2 427.92 118.97 389.22 116.75 390.82 141.57 430.39 185.27 430.02" style="fill:#e0e0e0"></polygon> <path d="M156.16,417.12,154,420.26v6.46a1.4,1.4,0,0,0,1.54-.62,25.71,25.71,0,0,0,1-3.87l1,2.65a2.28,2.28,0,0,0,2.68,1.39l7.8-2-3.19-9.11Z" style="fill:#ffbe9d"></path> <path d="M193.93,356a11.5,11.5,0,0,1,8.45.57c3.93,1.86,7.56,6.81,9.75,12.59s7.72,15.6,12,32.47c3.74,14.72,8.62,30.21,4.57,35.72l-.09.11a8.34,8.34,0,0,1-9.52,2.85l-3.95-1.41a69.43,69.43,0,0,1-23.39-14.09L178,412.25l5.52-4.2s-4.29-27.39-2.5-37.81C182.55,361.23,189.29,357.52,193.93,356Z" style="fill:#EBFF05"></path> <path d="M202.85,369.18l7.69,36a12.88,12.88,0,0,1-8.19,14.8l-33.45,6.41-4.17-12.47h0l27.15-8.46-8-34.76Z" style="fill:#EBFF05"></path> <path d="M210.83,412a.91.91,0,0,0-.05.21l-.13.62c0,.14-.06.3-.09.46l-.2.54-.22.62-.37.67a8.87,8.87,0,0,1-2.71,2.86,15.07,15.07,0,0,1-4.9,2.14l-33.1,6.06.23.13c-1.38-3.95-2.84-8.13-4.35-12.48l-.14.28L192,405.66l.2-.07-.05-.21-1.49-5.84c-1.58-6.3-3.06-12.46-4.34-18.45-.63-3-1.23-5.94-1.64-8.85-.12-.72-.12-1.44-.18-2.16a9.2,9.2,0,0,1,.23-2.1,8.94,8.94,0,0,1,1.85-3.69,9.07,9.07,0,0,1,7.1-3.17,9.23,9.23,0,0,1,6.58,3.33,17.41,17.41,0,0,1,3.4,6.25,55.44,55.44,0,0,1,1.53,6.48c1.65,8.34,3,15.09,3.91,19.78.46,2.32.83,4.13,1.08,5.37.13.6.22,1.07.29,1.4s.12.47.12.47,0-.16-.07-.48-.14-.8-.25-1.4c-.23-1.26-.57-3.07-1-5.39-.89-4.7-2.17-11.46-3.76-19.81a53.55,53.55,0,0,0-1.52-6.53,17.69,17.69,0,0,0-3.44-6.4,9.66,9.66,0,0,0-6.86-3.48,9.46,9.46,0,0,0-7.43,3.31,9.12,9.12,0,0,0-2,3.86,10.19,10.19,0,0,0-.25,2.21c.06.73.06,1.48.18,2.21.41,2.93,1,5.88,1.64,8.89,1.28,6,2.76,12.16,4.33,18.46.51,2,1,4,1.49,5.84l.16-.27-27.14,8.48-.21.07.07.21c1.53,4.34,3,8.51,4.38,12.46l.06.16.17,0c13.69-2.56,25.08-4.65,33.07-6.22a15.37,15.37,0,0,0,5-2.22,8.94,8.94,0,0,0,2.71-2.95l.35-.68.22-.64c.07-.2.13-.38.18-.55l.08-.46.1-.64A1.67,1.67,0,0,0,210.83,412Z" style="fill:#263238"></path> <path d="M196.54,410.15c.06,0,.1-.42-.07-1.08a4.93,4.93,0,0,0-1.34-2.23,5,5,0,0,0-2.29-1.25c-.66-.15-1.08-.08-1.08,0s.4.13,1,.34a6.06,6.06,0,0,1,2.06,1.27,6,6,0,0,1,1.35,2C196.4,409.76,196.47,410.16,196.54,410.15Z" style="fill:#263238"></path> <g style="opacity:0.2"> <path d="M203.63,368.7a206.94,206.94,0,0,1,8.06,38.43,30.8,30.8,0,0,1,.17,9,11.14,11.14,0,0,1-4.52,7.57,11.27,11.27,0,0,1-8.18,1.24c-2.77-.52-7.26-1.14-9.81-2.35l15-3.08s9.65-.6,5.51-19.08S203.63,368.7,203.63,368.7Z"></path> </g> <path d="M182,369.18l-2.71-8.47L197,349l2.39,8.26s-9.19,1-11.57,3.49S182,369.18,182,369.18Z" style="fill:#EBFF05"></path> <path d="M182.86,364a6.09,6.09,0,0,1-1-2.28,6,6,0,0,1-.49-2.43,6.1,6.1,0,0,1,1,2.28A6,6,0,0,1,182.86,364Z" style="fill:#263238"></path> <path d="M186.24,361.86a6.29,6.29,0,0,1-1-2.28,6,6,0,0,1-.49-2.43,11.8,11.8,0,0,1,1.48,4.71Z" style="fill:#263238"></path> <path d="M189.62,359.75a6.29,6.29,0,0,1-1-2.28,6,6,0,0,1-.49-2.44,6.1,6.1,0,0,1,1,2.28A6,6,0,0,1,189.62,359.75Z" style="fill:#263238"></path> <path d="M192.73,357.85a6.1,6.1,0,0,1-1-2.28,6,6,0,0,1-.49-2.44,6.29,6.29,0,0,1,1,2.28A6,6,0,0,1,192.73,357.85Z" style="fill:#263238"></path> <path d="M195.91,355.56a5.91,5.91,0,0,1-1-2.27,6.37,6.37,0,0,1-.5-2.44,11.61,11.61,0,0,1,1.49,4.71Z" style="fill:#263238"></path> <path d="M167.43,421a4.79,4.79,0,0,1,.83-.27l2.42-.68,8.93-2.39,13.26-3.49,3.84-1a11.76,11.76,0,0,0,1.91-.58,5.19,5.19,0,0,0,1.61-1.14,5.29,5.29,0,0,0,1.49-3.7,7.77,7.77,0,0,0-.36-2.08c-.18-.72-.36-1.43-.54-2.16l-7.42-29.58c-.91-3.76-1.66-6.81-2.18-9l-.57-2.45a5,5,0,0,1-.17-.86,4.79,4.79,0,0,1,.27.83q.24.9.66,2.43c.57,2.16,1.37,5.2,2.35,8.94,2,7.6,4.61,18,7.56,29.55.18.72.37,1.44.55,2.15a8.45,8.45,0,0,1,.37,2.21,5.83,5.83,0,0,1-3.41,5.3,12.62,12.62,0,0,1-2,.61l-3.84,1L179.7,418l-9,2.24-2.44.58A6.75,6.75,0,0,1,167.43,421Z" style="fill:#e0e0e0"></path> <path d="M168.11,422.93l.22-.08.65-.2,2.53-.72,9.31-2.54,13.83-3.7,4-1.07c.67-.18,1.39-.34,2-.56a5.35,5.35,0,0,0,1.77-1.06,5.28,5.28,0,0,0,1.74-3.77,6.65,6.65,0,0,0-.35-2.17l-.6-2.24L195,374.05c-1-3.91-1.84-7.09-2.43-9.34-.27-1.07-.48-1.92-.64-2.54l-.15-.67c0-.15,0-.23,0-.23a.73.73,0,0,1,.09.22c.06.17.12.39.2.65.18.62.43,1.46.73,2.52.63,2.24,1.51,5.41,2.6,9.3,2.15,7.9,5.11,18.75,8.37,30.73.21.75.41,1.5.61,2.24a7.18,7.18,0,0,1,.36,2.32,5.78,5.78,0,0,1-1.92,4.13,5.93,5.93,0,0,1-1.94,1.16c-.73.23-1.4.37-2.09.57l-4,1-13.86,3.6-9.35,2.38-2.55.62-.67.15A.67.67,0,0,1,168.11,422.93Z" style="fill:#e0e0e0"></path> </g> <g id="freepik--Plants--inject-43"> <path d="M268.7,427.47c-1.32,1.89-3.89,1.27-5.09.11a9.66,9.66,0,0,1-2.16-4.42c-1-3.65-2.1-7.47-1.32-11.19a6.21,6.21,0,0,1,1.43-3,3.25,3.25,0,0,1,3.07-1c1.3.34,2.11,1.61,2.69,2.82A26.85,26.85,0,0,1,270,422.17a9.29,9.29,0,0,1-1.26,5.3" style="fill:#EBFF05"></path> <g style="opacity:0.2"> <path d="M268.7,427.47c-1.32,1.89-3.89,1.27-5.09.11a9.66,9.66,0,0,1-2.16-4.42c-1-3.65-2.1-7.47-1.32-11.19a6.21,6.21,0,0,1,1.43-3,3.25,3.25,0,0,1,3.07-1c1.3.34,2.11,1.61,2.69,2.82A26.85,26.85,0,0,1,270,422.17a9.29,9.29,0,0,1-1.26,5.3"></path> </g> <path d="M263.74,437.05a11.44,11.44,0,0,0-7.12-.86,5.91,5.91,0,0,0-3.52,1.57,2.53,2.53,0,0,0,0,3.51,3.32,3.32,0,0,0,2.21.56c1.89,0,4-.35,5.48.78.86.65,1.43,1.72,2.45,2a2.42,2.42,0,0,0,2.67-1.19,4.14,4.14,0,0,0,.31-3.06A4.7,4.7,0,0,0,263.74,437.05Z" style="fill:#EBFF05"></path> <path d="M272.34,430.19a6.89,6.89,0,0,1-1.07-6.34,12.21,12.21,0,0,1,3.75-5.44,20.33,20.33,0,0,1,6.72-4,7.15,7.15,0,0,1,3-.51,3.17,3.17,0,0,1,2.54,1.54c.71,1.34,0,3-.7,4.31a50.9,50.9,0,0,1-4.42,6.72,11.92,11.92,0,0,1-4.85,4.16c-2,.77-4.11.68-5.18-.72" style="fill:#EBFF05"></path> <path d="M268.79,456a5.11,5.11,0,0,1-.12-.86c-.06-.62-.13-1.41-.22-2.35s-.26-2.16-.53-3.44a26.24,26.24,0,0,0-1.25-4.06,15,15,0,0,0-2.08-3.67,7.62,7.62,0,0,0-2.62-2.18,7.2,7.2,0,0,0-2.21-.69,5.08,5.08,0,0,1-.85-.12,3.68,3.68,0,0,1,.87,0,6.72,6.72,0,0,1,2.3.6,7.75,7.75,0,0,1,2.77,2.2,14.61,14.61,0,0,1,2.15,3.75,24.53,24.53,0,0,1,1.24,4.13,29.68,29.68,0,0,1,.46,3.48c.07,1,.1,1.8.11,2.36A3.68,3.68,0,0,1,268.79,456Z" style="fill:#263238"></path> <path d="M268.63,454.21a1.87,1.87,0,0,1,0-.4v-1.14c0-1,0-2.43-.05-4.2-.09-3.53-.39-8.42-1-13.79s-1.38-10.2-2.09-13.66c-.17-.87-.34-1.65-.5-2.34s-.29-1.27-.41-1.75l-.27-1.11a1.7,1.7,0,0,1-.07-.39,1.47,1.47,0,0,1,.14.37c.09.29.2.65.33,1.09s.3,1.06.47,1.75.37,1.46.55,2.33a128.29,128.29,0,0,1,2.2,13.68c.59,5.37.86,10.27.88,13.82,0,1.77,0,3.21-.06,4.2,0,.46-.05.84-.07,1.14A1.87,1.87,0,0,1,268.63,454.21Z" style="fill:#263238"></path> <path d="M268.61,444.76a6.8,6.8,0,0,1,0-1.19c0-.77.15-1.88.36-3.23a43.8,43.8,0,0,1,1-4.71,42.46,42.46,0,0,1,2-5.56,29.44,29.44,0,0,1,5.78-9,15.24,15.24,0,0,1,1.35-1.27c.21-.17.4-.35.58-.49l.53-.36a6.32,6.32,0,0,1,1-.64,33.22,33.22,0,0,0-3.28,2.93,31.19,31.19,0,0,0-5.64,9,45.62,45.62,0,0,0-2,5.51,47.17,47.17,0,0,0-1.12,4.66c-.25,1.34-.39,2.44-.47,3.2A10,10,0,0,1,268.61,444.76Z" style="fill:#263238"></path> <path d="M663.63,441.1c-.56-2.21.9-4.42,2.54-6s3.57-3,4.43-5.13c1.39-3.42-.43-7.87,1.92-10.72,1.39-1.67,3.85-2.22,5.08-4a9.15,9.15,0,0,0,1.11-3.21,32.68,32.68,0,0,1,8.21-15.15,28.32,28.32,0,0,1-3.27,14.63c-1,1.79-2.13,3.54-2.45,5.54-.53,3.26,1.27,6.63.45,9.83-.93,3.65-5.06,6.08-5.28,9.85-.18,3.19,2.58,6,2.36,9.18a8.59,8.59,0,0,1-1.44,3.77c-2.49,4.08-6.12,6.88-11.61,6.76l-6.72.2Z" style="fill:#EBFF05"></path> <g style="opacity:0.30000000000000004"> <path d="M663.63,441.1c-.56-2.21.9-4.42,2.54-6s3.57-3,4.43-5.13c1.39-3.42-.43-7.87,1.92-10.72,1.39-1.67,3.85-2.22,5.08-4a9.15,9.15,0,0,0,1.11-3.21,32.68,32.68,0,0,1,8.21-15.15,28.32,28.32,0,0,1-3.27,14.63c-1,1.79-2.13,3.54-2.45,5.54-.53,3.26,1.27,6.63.45,9.83-.93,3.65-5.06,6.08-5.28,9.85-.18,3.19,2.58,6,2.36,9.18a8.59,8.59,0,0,1-1.44,3.77c-2.49,4.08-6.12,6.88-11.61,6.76l-6.72.2Z"></path> </g> <path d="M657.6,456.8a5.55,5.55,0,0,1-1.85-.05,11.05,11.05,0,0,1-2.18-.57,9.24,9.24,0,0,1-2.69-1.49,3.69,3.69,0,0,1-1.1-1.48,7,7,0,0,1-.31-2,20.59,20.59,0,0,0-.14-2.18,6,6,0,0,0-.81-2.16c-.78-1.4-2.09-2.72-2.51-4.62a15.24,15.24,0,0,1,.22-5.88,12.55,12.55,0,0,0-.12-6.32c-.71-2.1-2.17-4-2.9-6.38s-.36-5-.5-7.51a9.77,9.77,0,0,0-.86-3.74c-.53-1.19-1.28-2.31-1.86-3.57-1.18-2.54-1.37-5.41-1.68-8.22-.16-1.42-.31-2.85-.46-4.3a20.89,20.89,0,0,0-.72-4.3,37.9,37.9,0,0,0-1.59-4.17,15,15,0,0,1-.77-2.17,23.19,23.19,0,0,1-.2-2.32,26.87,26.87,0,0,1,.21-4.65c.19-1.55.48-3.08.65-4.64l0-.26,0-.31.27.14a10.29,10.29,0,0,1,3.6,3.07,16.31,16.31,0,0,1,2.2,4.11,50.1,50.1,0,0,1,2,8.81,23.7,23.7,0,0,0,2.71,8.14c.73,1.2,1.61,2.3,2.39,3.47a9.43,9.43,0,0,1,1.64,3.84c.38,2.85-1.2,5.33-.88,7.85a8.84,8.84,0,0,0,1.2,3.5c.61,1.07,1.32,2.07,2,3.08a19,19,0,0,1,1.79,3.11,9.83,9.83,0,0,1,.81,3.37c.15,2.27-.19,4.42,0,6.45a14.89,14.89,0,0,0,1.62,5.53c.81,1.66,1.7,3.16,2.45,4.61a22.94,22.94,0,0,1,1,2.15,10.92,10.92,0,0,1,.58,2.13,13.3,13.3,0,0,1,0,3.83,9.56,9.56,0,0,1-1.95,4.88,4.56,4.56,0,0,1-.54.59,2.63,2.63,0,0,1-.45.37l-.38.27a9.31,9.31,0,0,0,1.31-1.28,9.83,9.83,0,0,0,1.85-4.85,13.44,13.44,0,0,0-.07-3.78,9.68,9.68,0,0,0-.58-2.08c-.28-.69-.63-1.4-1-2.12-.76-1.44-1.66-2.93-2.48-4.6a15,15,0,0,1-1.69-5.63c-.16-2.07.16-4.23,0-6.44a9.38,9.38,0,0,0-.79-3.26,19.55,19.55,0,0,0-1.76-3.05c-.68-1-1.4-2-2-3.1A9.08,9.08,0,0,1,649.1,413c-.31-2.68,1.26-5.19.87-7.83a9.14,9.14,0,0,0-1.59-3.67c-.76-1.15-1.65-2.25-2.4-3.48a24.34,24.34,0,0,1-2.78-8.28,49.42,49.42,0,0,0-2-8.74,16.06,16.06,0,0,0-2.14-4,10,10,0,0,0-3.45-3l.31-.17,0,.27c-.18,1.58-.47,3.11-.66,4.65a28.14,28.14,0,0,0-.2,4.58c0,.74.08,1.53.19,2.24a13.2,13.2,0,0,0,.75,2.1,37.49,37.49,0,0,1,1.59,4.21,20.9,20.9,0,0,1,.73,4.37c.16,1.45.31,2.88.46,4.3.3,2.83.5,5.65,1.63,8.1.56,1.22,1.31,2.35,1.86,3.58a10.38,10.38,0,0,1,.88,3.88c.13,2.59-.22,5.13.47,7.43s2.14,4.2,2.86,6.37a12.81,12.81,0,0,1,.11,6.47,15,15,0,0,0-.25,5.78c.38,1.81,1.65,3.12,2.45,4.56a6.19,6.19,0,0,1,.82,2.25,21.38,21.38,0,0,1,.13,2.2,7.2,7.2,0,0,0,.27,2,3.64,3.64,0,0,0,1,1.42,8.93,8.93,0,0,0,2.62,1.49,11.19,11.19,0,0,0,2.15.6,8.81,8.81,0,0,0,1.37.14Z" style="fill:#263238"></path> <path d="M636.82,377.51l.06.21c0,.16.09.36.14.6.13.53.29,1.33.53,2.33s.87,2.13,1.38,3.52,1.07,3,1.57,4.78.94,3.78,1.41,5.92a25,25,0,0,0,2.11,6.57c.55,1.1,1.16,2.21,1.65,3.42a16,16,0,0,1,.94,3.86,79.31,79.31,0,0,0,1.4,8.14c1.32,5.51,2.57,10.76,3.71,15.54s2.23,9.07,3.12,12.69,1.56,6.5,2.06,8.55l.54,2.34c0,.24.09.44.13.61a1,1,0,0,1,0,.21.8.8,0,0,1-.07-.2l-.18-.6c-.15-.56-.35-1.34-.61-2.31l-2.2-8.53c-.91-3.61-2-7.9-3.2-12.66s-2.42-10-3.75-15.55a77.64,77.64,0,0,1-1.4-8.17,15.4,15.4,0,0,0-.91-3.77c-.47-1.18-1.07-2.28-1.62-3.39a25.37,25.37,0,0,1-2.1-6.68c-.45-2.14-.87-4.12-1.36-5.91s-1-3.39-1.5-4.77-1.07-2.53-1.31-3.56-.35-1.82-.45-2.36c0-.25-.08-.45-.1-.61A.72.72,0,0,1,636.82,377.51Z" style="fill:#263238"></path> <path d="M656.41,456.81c-4.37-2.63-5.59-10.56-3.73-15.31s5.09-9.1,5.61-14.18c.4-3.9-.85-7.92.08-11.73,1.26-5.15,6.31-9.11,6.28-14.41,0-3-1.69-5.77-1.54-8.74.19-3.64,3-6.52,4.75-9.72,2.68-4.89,2.88-10.7,3.82-16.2s3.07-11.38,8-14.06c.69,4.68,1.9,7.89,1.48,14.22-.15,2.27-2.82,6.61-3.21,11.59-.23,3-.39,6-.59,8.94a28.68,28.68,0,0,1-1.46,8.56c-.81,2.08-2.1,4-2.7,6.11-1.14,4,.3,8.41-.62,12.5-.78,3.46-3.2,6.43-3.71,9.95-.72,4.93,2.45,10.09.79,14.79-.83,2.33-2.76,4.2-3.32,6.61-.44,1.87,0,3.86-.38,5.74-.63,3-6.43,5.35-9.52,5.14" style="fill:#EBFF05"></path> <path d="M678.41,357.09a1.1,1.1,0,0,1,0,.27c0,.19-.06.45-.1.76-.11.68-.23,1.67-.46,2.95s-.93,2.74-1.47,4.48-1.14,3.75-1.64,6-1,4.74-1.4,7.42a31.47,31.47,0,0,1-2.3,8.39c-.63,1.4-1.32,2.8-1.85,4.29a19.35,19.35,0,0,0-.95,4.74,96.39,96.39,0,0,1-1.35,10.21c-1.38,6.92-2.7,13.51-3.9,19.51s-2.4,11.36-3.36,15.89-1.75,8.15-2.3,10.7c-.27,1.24-.49,2.21-.64,2.91q-.12.47-.18.75c0,.17-.07.26-.08.25a1.68,1.68,0,0,1,0-.26c0-.19.08-.44.14-.76.14-.7.33-1.68.57-2.92.52-2.57,1.25-6.22,2.16-10.73s2-9.93,3.27-15.91,2.49-12.58,3.87-19.5a98.44,98.44,0,0,0,1.34-10.18,20,20,0,0,1,1-4.84c.54-1.52,1.25-2.93,1.87-4.32a30.92,30.92,0,0,0,2.31-8.28c.47-2.67.92-5.17,1.46-7.43s1.12-4.26,1.71-6,1.26-3.19,1.53-4.45.41-2.25.54-2.92c.06-.32.11-.57.15-.76A1,1,0,0,1,678.41,357.09Z" style="fill:#263238"></path> </g> <g id="freepik--Lines--inject-43"> <path d="M321.2,130.21c.14,0,.26,10.2.26,22.79s-.12,22.79-.26,22.79-.26-10.2-.26-22.79S321.05,130.21,321.2,130.21Z" style="fill:#263238"></path> <path d="M432.59,130.21c.14,0,.26,10.2.26,22.79s-.12,22.79-.26,22.79-.26-10.2-.26-22.79S432.45,130.21,432.59,130.21Z" style="fill:#263238"></path> <path d="M538.59,123.45s0,.3,0,.9,0,1.49,0,2.65c0,2.35,0,5.81.05,10.29,0,9,0,22.07.07,38.5V176h-.17l-161,.09L211.41,176h-.17v-.16c0-14.89.06-26.68.08-34.76,0-4,0-7.13,0-9.23,0-1,0-1.84,0-2.38s0-.8,0-.8,0,.27,0,.8,0,1.34,0,2.38c0,2.1,0,5.2,0,9.23,0,8.08,0,19.87.08,34.76l-.16-.16,166.18-.1,161,.09-.17.17c0-16.44.06-29.52.08-38.5,0-4.48,0-7.94,0-10.29,0-1.16,0-2,0-2.65S538.59,123.45,538.59,123.45Z" style="fill:#263238"></path> <path d="M378.58,213.49c-.15,0-.26-8.44-.26-18.85s.11-18.85.26-18.85.26,8.44.26,18.85S378.72,213.49,378.58,213.49Z" style="fill:#263238"></path> </g> <g id="freepik--Server--inject-43"> <rect x="325.92" y="210.27" width="101.66" height="83.69" style="fill:#263238"></rect> <rect x="311.08" y="232.58" width="111.13" height="27.57" style="fill:#455a64"></rect> <rect x="316.02" y="238.26" width="21.88" height="3.37" style="fill:#263238"></rect> <rect x="316.02" y="244.05" width="21.88" height="3.37" style="fill:#263238"></rect> <rect x="316.02" y="250.04" width="21.88" height="3.37" style="fill:#263238"></rect> <path d="M346.55,240.29a1.26,1.26,0,1,1-1.26-1.25A1.25,1.25,0,0,1,346.55,240.29Z" style="fill:#263238"></path> <path d="M352.09,240.29a1.26,1.26,0,1,1-1.26-1.25A1.25,1.25,0,0,1,352.09,240.29Z" style="fill:#263238"></path> <path d="M357.63,240.29a1.26,1.26,0,1,1-1.26-1.25A1.25,1.25,0,0,1,357.63,240.29Z" style="fill:#263238"></path> <path d="M363.17,240.29a1.26,1.26,0,1,1-1.26-1.25A1.25,1.25,0,0,1,363.17,240.29Z" style="fill:#263238"></path> <path d="M406.09,240.29a1.26,1.26,0,1,1-1.25-1.25A1.25,1.25,0,0,1,406.09,240.29Z" style="fill:#263238"></path> <path d="M411.74,240.29a1.26,1.26,0,1,1-1.26-1.25A1.25,1.25,0,0,1,411.74,240.29Z" style="fill:#263238"></path> <path d="M368.71,240.29a1.26,1.26,0,1,1-1.26-1.25A1.26,1.26,0,0,1,368.71,240.29Z" style="fill:#263238"></path> <path d="M395.91,240.29a1.26,1.26,0,1,1-1.26-1.25A1.25,1.25,0,0,1,395.91,240.29Z" style="fill:#263238"></path> <path d="M374.25,240.29A1.26,1.26,0,1,1,373,239,1.26,1.26,0,0,1,374.25,240.29Z" style="fill:#f5f5f5"></path> <path d="M379.78,240.29a1.26,1.26,0,1,1-1.25-1.25A1.25,1.25,0,0,1,379.78,240.29Z" style="fill:#f5f5f5"></path> <path d="M391,240.29a1.26,1.26,0,1,1-1.25-1.25A1.25,1.25,0,0,1,391,240.29Z" style="fill:#f5f5f5"></path> <path d="M416.34,240.29a1.26,1.26,0,1,1-1.26-1.25A1.26,1.26,0,0,1,416.34,240.29Z" style="fill:#f5f5f5"></path> <path d="M385.32,240.29a1.26,1.26,0,1,1-1.25-1.25A1.25,1.25,0,0,1,385.32,240.29Z" style="fill:#EBFF05"></path> <path d="M401.18,240.29a1.26,1.26,0,1,1-1.25-1.25A1.25,1.25,0,0,1,401.18,240.29Z" style="fill:#EBFF05"></path> <path d="M413.82,246.34a1.26,1.26,0,1,1,1.26,1.26A1.26,1.26,0,0,1,413.82,246.34Z" style="fill:#263238"></path> <circle cx="409.54" cy="246.34" r="1.26" style="fill:#263238"></circle> <path d="M402.75,246.34A1.26,1.26,0,1,1,404,247.6,1.25,1.25,0,0,1,402.75,246.34Z" style="fill:#263238"></path> <circle cx="398.46" cy="246.34" r="1.26" style="fill:#263238"></circle> <circle cx="355.54" cy="246.34" r="1.26" style="fill:#263238"></circle> <path d="M348.64,246.34a1.26,1.26,0,1,1,1.25,1.26A1.25,1.25,0,0,1,348.64,246.34Z" style="fill:#263238"></path> <path d="M391.67,246.34a1.26,1.26,0,1,1,1.25,1.26A1.25,1.25,0,0,1,391.67,246.34Z" style="fill:#263238"></path> <path d="M364.47,246.34a1.26,1.26,0,1,1,1.25,1.26A1.25,1.25,0,0,1,364.47,246.34Z" style="fill:#263238"></path> <path d="M386.13,246.34a1.26,1.26,0,1,1,1.25,1.26A1.25,1.25,0,0,1,386.13,246.34Z" style="fill:#f5f5f5"></path> <path d="M380.59,246.34a1.26,1.26,0,1,1,1.26,1.26A1.25,1.25,0,0,1,380.59,246.34Z" style="fill:#f5f5f5"></path> <path d="M369.35,246.34a1.26,1.26,0,1,1,1.26,1.26A1.25,1.25,0,0,1,369.35,246.34Z" style="fill:#f5f5f5"></path> <circle cx="345.29" cy="246.34" r="1.26" style="fill:#f5f5f5"></circle> <path d="M375.05,246.34a1.26,1.26,0,1,1,1.26,1.26A1.25,1.25,0,0,1,375.05,246.34Z" style="fill:#EBFF05"></path> <circle cx="360.45" cy="246.34" r="1.26" style="fill:#EBFF05"></circle> <circle cx="345.29" cy="251.73" r="1.26" style="fill:#263238"></circle> <path d="M352.09,251.73a1.26,1.26,0,1,1-1.26-1.26A1.25,1.25,0,0,1,352.09,251.73Z" style="fill:#263238"></path> <circle cx="356.37" cy="251.73" r="1.26" style="fill:#263238"></circle> <path d="M363.17,251.73a1.26,1.26,0,1,1-1.26-1.26A1.25,1.25,0,0,1,363.17,251.73Z" style="fill:#263238"></path> <path d="M406.09,251.73a1.26,1.26,0,1,1-1.25-1.26A1.25,1.25,0,0,1,406.09,251.73Z" style="fill:#263238"></path> <circle cx="410.48" cy="251.73" r="1.26" style="fill:#263238"></circle> <circle cx="367.45" cy="251.73" r="1.26" style="fill:#263238"></circle> <circle cx="394.65" cy="251.73" r="1.26" style="fill:#263238"></circle> <path d="M374.25,251.73a1.26,1.26,0,1,1-1.26-1.26A1.26,1.26,0,0,1,374.25,251.73Z" style="fill:#f5f5f5"></path> <path d="M379.78,251.73a1.26,1.26,0,1,1-1.25-1.26A1.25,1.25,0,0,1,379.78,251.73Z" style="fill:#f5f5f5"></path> <circle cx="389.77" cy="251.73" r="1.26" style="fill:#f5f5f5"></circle> <path d="M416.34,251.73a1.26,1.26,0,1,1-1.26-1.26A1.26,1.26,0,0,1,416.34,251.73Z" style="fill:#f5f5f5"></path> <circle cx="384.07" cy="251.73" r="1.26" style="fill:#EBFF05"></circle> <path d="M401.18,251.73a1.26,1.26,0,1,1-1.25-1.26A1.25,1.25,0,0,1,401.18,251.73Z" style="fill:#EBFF05"></path> <rect x="311.08" y="266.61" width="111.13" height="27.57" style="fill:#455a64"></rect> <circle cx="345.02" cy="274.04" r="1.26" style="fill:#263238"></circle> <path d="M351.81,274a1.26,1.26,0,1,1-1.25-1.25A1.25,1.25,0,0,1,351.81,274Z" style="fill:#263238"></path> <circle cx="356.1" cy="274.04" r="1.26" style="fill:#263238"></circle> <path d="M362.89,274a1.26,1.26,0,1,1-1.25-1.25A1.25,1.25,0,0,1,362.89,274Z" style="fill:#263238"></path> <path d="M405.82,274a1.26,1.26,0,1,1-1.26-1.25A1.26,1.26,0,0,1,405.82,274Z" style="fill:#263238"></path> <circle cx="410.21" cy="274.04" r="1.26" style="fill:#263238"></circle> <circle cx="367.18" cy="274.04" r="1.26" style="fill:#263238"></circle> <circle cx="394.38" cy="274.04" r="1.26" style="fill:#263238"></circle> <path d="M374,274a1.26,1.26,0,1,1-1.25-1.25A1.25,1.25,0,0,1,374,274Z" style="fill:#f5f5f5"></path> <circle cx="378.25" cy="274.04" r="1.26" style="fill:#f5f5f5"></circle> <circle cx="389.49" cy="274.04" r="1.26" style="fill:#f5f5f5"></circle> <path d="M416.06,274a1.26,1.26,0,1,1-1.26-1.25A1.25,1.25,0,0,1,416.06,274Z" style="fill:#f5f5f5"></path> <path d="M385.05,274a1.26,1.26,0,1,1-1.26-1.25A1.25,1.25,0,0,1,385.05,274Z" style="fill:#EBFF05"></path> <path d="M400.91,274a1.26,1.26,0,1,1-1.26-1.25A1.25,1.25,0,0,1,400.91,274Z" style="fill:#EBFF05"></path> <path d="M413.55,280.09a1.26,1.26,0,1,1,1.25,1.26A1.25,1.25,0,0,1,413.55,280.09Z" style="fill:#263238"></path> <path d="M408,280.09a1.26,1.26,0,1,1,1.26,1.26A1.25,1.25,0,0,1,408,280.09Z" style="fill:#263238"></path> <path d="M402.47,280.09a1.26,1.26,0,1,1,1.26,1.26A1.25,1.25,0,0,1,402.47,280.09Z" style="fill:#263238"></path> <path d="M396.93,280.09a1.26,1.26,0,1,1,1.26,1.26A1.25,1.25,0,0,1,396.93,280.09Z" style="fill:#263238"></path> <path d="M354,280.09a1.26,1.26,0,1,1,1.25,1.26A1.25,1.25,0,0,1,354,280.09Z" style="fill:#263238"></path> <path d="M348.36,280.09a1.26,1.26,0,1,1,1.26,1.26A1.25,1.25,0,0,1,348.36,280.09Z" style="fill:#263238"></path> <path d="M391.39,280.09a1.26,1.26,0,1,1,1.26,1.26A1.25,1.25,0,0,1,391.39,280.09Z" style="fill:#263238"></path> <path d="M364.19,280.09a1.26,1.26,0,1,1,1.26,1.26A1.25,1.25,0,0,1,364.19,280.09Z" style="fill:#263238"></path> <path d="M385.85,280.09a1.26,1.26,0,1,1,1.26,1.26A1.26,1.26,0,0,1,385.85,280.09Z" style="fill:#f5f5f5"></path> <path d="M380.31,280.09a1.26,1.26,0,1,1,1.26,1.26A1.26,1.26,0,0,1,380.31,280.09Z" style="fill:#f5f5f5"></path> <path d="M369.08,280.09a1.26,1.26,0,1,1,1.25,1.26A1.25,1.25,0,0,1,369.08,280.09Z" style="fill:#f5f5f5"></path> <path d="M343.76,280.09a1.26,1.26,0,1,1,1.26,1.26A1.26,1.26,0,0,1,343.76,280.09Z" style="fill:#f5f5f5"></path> <path d="M374.78,280.09a1.26,1.26,0,1,1,1.25,1.26A1.25,1.25,0,0,1,374.78,280.09Z" style="fill:#EBFF05"></path> <path d="M358.92,280.09a1.26,1.26,0,1,1,1.25,1.26A1.25,1.25,0,0,1,358.92,280.09Z" style="fill:#EBFF05"></path> <path d="M346.27,285.48a1.26,1.26,0,1,1-1.25-1.26A1.25,1.25,0,0,1,346.27,285.48Z" style="fill:#263238"></path> <path d="M351.81,285.48a1.26,1.26,0,1,1-1.25-1.26A1.25,1.25,0,0,1,351.81,285.48Z" style="fill:#263238"></path> <path d="M357.35,285.48a1.26,1.26,0,1,1-1.25-1.26A1.25,1.25,0,0,1,357.35,285.48Z" style="fill:#263238"></path> <path d="M362.89,285.48a1.26,1.26,0,1,1-1.25-1.26A1.25,1.25,0,0,1,362.89,285.48Z" style="fill:#263238"></path> <path d="M405.82,285.48a1.26,1.26,0,1,1-1.26-1.26A1.26,1.26,0,0,1,405.82,285.48Z" style="fill:#263238"></path> <path d="M411.46,285.48a1.26,1.26,0,1,1-1.25-1.26A1.25,1.25,0,0,1,411.46,285.48Z" style="fill:#263238"></path> <path d="M368.43,285.48a1.26,1.26,0,1,1-1.25-1.26A1.25,1.25,0,0,1,368.43,285.48Z" style="fill:#263238"></path> <path d="M395.63,285.48a1.26,1.26,0,1,1-1.25-1.26A1.25,1.25,0,0,1,395.63,285.48Z" style="fill:#263238"></path> <path d="M374,285.48a1.26,1.26,0,1,1-1.25-1.26A1.25,1.25,0,0,1,374,285.48Z" style="fill:#f5f5f5"></path> <path d="M379.51,285.48a1.26,1.26,0,1,1-1.26-1.26A1.25,1.25,0,0,1,379.51,285.48Z" style="fill:#f5f5f5"></path> <path d="M390.75,285.48a1.26,1.26,0,1,1-1.26-1.26A1.25,1.25,0,0,1,390.75,285.48Z" style="fill:#f5f5f5"></path> <path d="M416.06,285.48a1.26,1.26,0,1,1-1.26-1.26A1.25,1.25,0,0,1,416.06,285.48Z" style="fill:#f5f5f5"></path> <path d="M385.05,285.48a1.26,1.26,0,1,1-1.26-1.26A1.25,1.25,0,0,1,385.05,285.48Z" style="fill:#EBFF05"></path> <path d="M400.91,285.48a1.26,1.26,0,1,1-1.26-1.26A1.25,1.25,0,0,1,400.91,285.48Z" style="fill:#EBFF05"></path> <rect x="316.02" y="272.28" width="21.88" height="3.37" style="fill:#263238"></rect> <rect x="316.02" y="278.08" width="21.88" height="3.37" style="fill:#263238"></rect> <rect x="316.02" y="284.07" width="21.88" height="3.37" style="fill:#263238"></rect> <polygon points="438.92 260.11 422.21 260.15 422.21 232.58 438.92 232.54 438.92 260.11" style="fill:#263238"></polygon> <polygon points="438.92 226.58 422.21 226.63 422.21 199.06 438.92 199.01 438.92 226.58" style="fill:#263238"></polygon> <polygon points="438.92 293.92 422.21 293.96 422.21 266.39 438.92 266.35 438.92 293.92" style="fill:#263238"></polygon> <rect x="311.89" y="198.8" width="111.13" height="27.57" style="fill:#455a64"></rect> <rect x="316.82" y="204.48" width="21.88" height="3.37" style="fill:#263238"></rect> <rect x="316.82" y="210.27" width="21.88" height="3.37" style="fill:#263238"></rect> <rect x="316.82" y="216.26" width="21.88" height="3.37" style="fill:#263238"></rect> <path d="M347.35,206.51a1.26,1.26,0,1,1-1.25-1.25A1.25,1.25,0,0,1,347.35,206.51Z" style="fill:#263238"></path> <circle cx="351.64" cy="206.51" r="1.26" style="fill:#263238"></circle> <path d="M358.43,206.51a1.26,1.26,0,1,1-1.25-1.25A1.25,1.25,0,0,1,358.43,206.51Z" style="fill:#263238"></path> <circle cx="362.72" cy="206.51" r="1.26" style="fill:#263238"></circle> <path d="M406.9,206.51a1.26,1.26,0,1,1-1.26-1.25A1.26,1.26,0,0,1,406.9,206.51Z" style="fill:#263238"></path> <circle cx="411.29" cy="206.51" r="1.26" style="fill:#263238"></circle> <path d="M369.51,206.51a1.26,1.26,0,1,1-1.25-1.25A1.25,1.25,0,0,1,369.51,206.51Z" style="fill:#263238"></path> <circle cx="395.46" cy="206.51" r="1.26" style="fill:#263238"></circle> <path d="M375.05,206.51a1.26,1.26,0,1,1-1.25-1.25A1.25,1.25,0,0,1,375.05,206.51Z" style="fill:#f5f5f5"></path> <path d="M380.59,206.51a1.26,1.26,0,1,1-1.26-1.25A1.25,1.25,0,0,1,380.59,206.51Z" style="fill:#f5f5f5"></path> <path d="M391.83,206.51a1.26,1.26,0,1,1-1.26-1.25A1.25,1.25,0,0,1,391.83,206.51Z" style="fill:#f5f5f5"></path> <path d="M417.14,206.51a1.26,1.26,0,1,1-1.26-1.25A1.25,1.25,0,0,1,417.14,206.51Z" style="fill:#f5f5f5"></path> <path d="M386.13,206.51a1.26,1.26,0,1,1-1.26-1.25A1.25,1.25,0,0,1,386.13,206.51Z" style="fill:#EBFF05"></path> <circle cx="400.73" cy="206.51" r="1.26" style="fill:#EBFF05"></circle> <path d="M414.63,212.57a1.26,1.26,0,1,1,1.25,1.25A1.25,1.25,0,0,1,414.63,212.57Z" style="fill:#263238"></path> <path d="M409.09,212.57a1.26,1.26,0,1,1,1.26,1.25A1.25,1.25,0,0,1,409.09,212.57Z" style="fill:#263238"></path> <path d="M403.55,212.57a1.26,1.26,0,1,1,1.26,1.25A1.25,1.25,0,0,1,403.55,212.57Z" style="fill:#263238"></path> <path d="M398,212.57a1.26,1.26,0,1,1,1.26,1.25A1.25,1.25,0,0,1,398,212.57Z" style="fill:#263238"></path> <path d="M355.09,212.57a1.26,1.26,0,1,1,1.25,1.25A1.25,1.25,0,0,1,355.09,212.57Z" style="fill:#263238"></path> <path d="M349.44,212.57a1.26,1.26,0,1,1,1.25,1.25A1.25,1.25,0,0,1,349.44,212.57Z" style="fill:#263238"></path> <path d="M392.47,212.57a1.26,1.26,0,1,1,1.26,1.25A1.25,1.25,0,0,1,392.47,212.57Z" style="fill:#263238"></path> <path d="M365.27,212.57a1.26,1.26,0,1,1,1.26,1.25A1.25,1.25,0,0,1,365.27,212.57Z" style="fill:#263238"></path> <path d="M386.93,212.57a1.26,1.26,0,1,1,1.26,1.25A1.26,1.26,0,0,1,386.93,212.57Z" style="fill:#f5f5f5"></path> <path d="M381.39,212.57a1.26,1.26,0,1,1,1.26,1.25A1.26,1.26,0,0,1,381.39,212.57Z" style="fill:#f5f5f5"></path> <path d="M370.16,212.57a1.26,1.26,0,1,1,1.25,1.25A1.25,1.25,0,0,1,370.16,212.57Z" style="fill:#f5f5f5"></path> <path d="M344.84,212.57a1.26,1.26,0,1,1,1.26,1.25A1.26,1.26,0,0,1,344.84,212.57Z" style="fill:#f5f5f5"></path> <path d="M375.86,212.57a1.26,1.26,0,1,1,1.25,1.25A1.25,1.25,0,0,1,375.86,212.57Z" style="fill:#EBFF05"></path> <path d="M360,212.57a1.26,1.26,0,1,1,1.25,1.25A1.25,1.25,0,0,1,360,212.57Z" style="fill:#EBFF05"></path> <path d="M347.35,218a1.26,1.26,0,1,1-1.25-1.26A1.25,1.25,0,0,1,347.35,218Z" style="fill:#263238"></path> <path d="M352.89,218a1.26,1.26,0,1,1-1.25-1.26A1.25,1.25,0,0,1,352.89,218Z" style="fill:#263238"></path> <path d="M358.43,218a1.26,1.26,0,1,1-1.25-1.26A1.25,1.25,0,0,1,358.43,218Z" style="fill:#263238"></path> <path d="M364,218a1.26,1.26,0,1,1-1.25-1.26A1.25,1.25,0,0,1,364,218Z" style="fill:#263238"></path> <path d="M406.9,218a1.26,1.26,0,1,1-1.26-1.26A1.26,1.26,0,0,1,406.9,218Z" style="fill:#263238"></path> <path d="M412.54,218a1.26,1.26,0,1,1-1.25-1.26A1.25,1.25,0,0,1,412.54,218Z" style="fill:#263238"></path> <path d="M369.51,218a1.26,1.26,0,1,1-1.25-1.26A1.25,1.25,0,0,1,369.51,218Z" style="fill:#263238"></path> <path d="M396.71,218a1.26,1.26,0,1,1-1.25-1.26A1.25,1.25,0,0,1,396.71,218Z" style="fill:#263238"></path> <path d="M375.05,218a1.26,1.26,0,1,1-1.25-1.26A1.25,1.25,0,0,1,375.05,218Z" style="fill:#f5f5f5"></path> <path d="M380.59,218a1.26,1.26,0,1,1-1.26-1.26A1.25,1.25,0,0,1,380.59,218Z" style="fill:#f5f5f5"></path> <path d="M391.83,218a1.26,1.26,0,1,1-1.26-1.26A1.25,1.25,0,0,1,391.83,218Z" style="fill:#f5f5f5"></path> <path d="M417.14,218a1.26,1.26,0,1,1-1.26-1.26A1.25,1.25,0,0,1,417.14,218Z" style="fill:#f5f5f5"></path> <path d="M386.13,218a1.26,1.26,0,1,1-1.26-1.26A1.25,1.25,0,0,1,386.13,218Z" style="fill:#EBFF05"></path> <path d="M402,218a1.26,1.26,0,1,1-1.26-1.26A1.25,1.25,0,0,1,402,218Z" style="fill:#EBFF05"></path> </g> <g id="freepik--Files--inject-43"> <path d="M455.16,135.68H405.83a6.17,6.17,0,0,1-6.17-6.17V61.23a6.17,6.17,0,0,1,6.17-6.17h31.29l24.21,25v49.49A6.17,6.17,0,0,1,455.16,135.68Z" style="fill:#EBFF05"></path> <g style="opacity:0.2"> <path d="M400.9,111.22h59.19a1.24,1.24,0,0,1,1.24,1.24V129.2a6.48,6.48,0,0,1-6.48,6.48H406.14a6.48,6.48,0,0,1-6.48-6.48V112.46A1.24,1.24,0,0,1,400.9,111.22Z"></path> </g> <g style="opacity:0.2"> <path d="M437.12,55.06V74.28A5.74,5.74,0,0,0,442.86,80h18.47Z" style="fill:#fff"></path> </g> <g style="opacity:0.2"> <path d="M437.37,76s-.24,4.66,5.06,6.19c.2.06.41.1.61.14,2.41.43,18.29,3.26,18.29,2.89V80H442.86S438.24,79.86,437.37,76Z"></path> </g> <path d="M417.32,121.88a5.28,5.28,0,0,1,9.15-3.26L425,119.93a3.07,3.07,0,0,0-2.41-1.12,3.07,3.07,0,1,0,0,6.14,3.06,3.06,0,0,0,2.41-1.14l1.43,1.31a5.27,5.27,0,0,1-9.15-3.24Z" style="fill:#455a64"></path> <path d="M427.12,125.73l.76-1.68a5.6,5.6,0,0,0,3.16,1c1.32,0,1.85-.43,1.85-1,0-1.8-5.58-.56-5.58-4.13,0-1.63,1.32-3,4.05-3a6.4,6.4,0,0,1,3.33.85l-.69,1.68a5.38,5.38,0,0,0-2.66-.75c-1.31,0-1.82.49-1.82,1.09,0,1.77,5.58.55,5.58,4.07,0,1.61-1.33,3-4.07,3A6.92,6.92,0,0,1,427.12,125.73Z" style="fill:#455a64"></path> <path d="M435.86,125.73l.75-1.68a5.66,5.66,0,0,0,3.17,1c1.31,0,1.85-.43,1.85-1,0-1.8-5.58-.56-5.58-4.13,0-1.63,1.32-3,4-3a6.35,6.35,0,0,1,3.33.85l-.68,1.68a5.38,5.38,0,0,0-2.66-.75c-1.32,0-1.82.49-1.82,1.09,0,1.77,5.57.55,5.57,4.07,0,1.61-1.32,3-4.06,3A6.89,6.89,0,0,1,435.86,125.73Z" style="fill:#455a64"></path> <path d="M420.45,90.83c1,.31,1.48,1,1.48,2.47v3.53a1.45,1.45,0,0,0,1.6,1.63h.4v2.69h-1.28c-2.75,0-4.16-1.41-4.16-4v-4a.9.9,0,0,0-1-1h-.73V89.49h.73a.91.91,0,0,0,1-1v-4c0-2.54,1.41-4,4.16-4h1.28v2.69h-.4a1.45,1.45,0,0,0-1.6,1.63v3.53C421.93,89.89,421.46,90.53,420.45,90.83Z" style="fill:#455a64"></path> <path d="M444.2,89.49v2.69h-.72a.9.9,0,0,0-1,1v4c0,2.54-1.41,4-4.17,4h-1.27V98.46h.39a1.45,1.45,0,0,0,1.61-1.63V93.3c0-1.52.46-2.16,1.48-2.47-1-.3-1.48-.94-1.48-2.46V84.84a1.45,1.45,0,0,0-1.61-1.63h-.39V80.52h1.27c2.76,0,4.17,1.41,4.17,4v4c0,.71.37,1,1,1Z" style="fill:#455a64"></path> <path d="M562.86,135.68H513.54a6.17,6.17,0,0,1-6.17-6.17V61.23a6.17,6.17,0,0,1,6.17-6.17h31.28L569,80v49.49A6.18,6.18,0,0,1,562.86,135.68Z" style="fill:#EBFF05"></path> <path d="M550.47,102.85s.41,0,1.16-.17a5.75,5.75,0,0,0,2.86-1.64,5.59,5.59,0,0,0,1.24-2,5.8,5.8,0,0,0,.29-1.34c0-.47,0-1,0-1.5,0-2.1,0-4.48,0-7.11,0-1.32,0-2.7,0-4.13,0-.72,0-1.45,0-2.2a9.78,9.78,0,0,0-.16-2.23,6.25,6.25,0,0,0-2.52-3.76,6.06,6.06,0,0,0-2.19-1,10.25,10.25,0,0,0-2.51-.18L526,75.62a6.08,6.08,0,0,0-4.63,3,5.8,5.8,0,0,0-.83,2.64c0,.93,0,1.91,0,2.85,0,3.79,0,7.44,0,10.93,0,.86,0,1.75,0,2.55a5.61,5.61,0,0,0,.76,2.27,5.72,5.72,0,0,0,3.61,2.67,9.69,9.69,0,0,0,2.22.16h2.2l4.14,0,12.47.08,3.39,0,.89,0,.3,0a1.16,1.16,0,0,1-.3,0l-.89,0-3.39,0-12.47.08-4.14,0h-2.2a9.73,9.73,0,0,1-2.32-.15,6.2,6.2,0,0,1-3.91-2.86A6.09,6.09,0,0,1,520,97.6c-.07-.89,0-1.72,0-2.6,0-3.49,0-7.14,0-10.93,0-1,0-1.89,0-2.89a6.23,6.23,0,0,1,.89-2.86,6.62,6.62,0,0,1,5-3.22c8.09-.06,15.71,0,22.68,0a10.53,10.53,0,0,1,2.62.2,6.74,6.74,0,0,1,5,5.12,9.68,9.68,0,0,1,.16,2.32c0,.75,0,1.48,0,2.2,0,1.43,0,2.81,0,4.13,0,2.63,0,5,0,7.11,0,.52,0,1,0,1.53a6.13,6.13,0,0,1-.32,1.39,6,6,0,0,1-1.33,2.1,5.72,5.72,0,0,1-3,1.59A4.22,4.22,0,0,1,550.47,102.85Z" style="fill:#455a64"></path> <path d="M556,99.63a2.52,2.52,0,0,1-.35-.37l-.95-1.13-3.38-4.19L549,91l-1.29-1.63c-.22-.27-.45-.55-.67-.84a1.75,1.75,0,0,0-.81-.52,1.72,1.72,0,0,0-1.83.54l-1.48,1.9-3.12,4-1.39,1.79-.18.23-.21-.2L534.67,93l-.8-.77a2.81,2.81,0,0,0-.79-.63,1.89,1.89,0,0,0-1.79.1,3.88,3.88,0,0,0-.71.65l-.69.71-1.31,1.35-2.36,2.41-3.42,3.45-.94.92a1.9,1.9,0,0,1-.35.29s.08-.13.28-.36.52-.59.87-1l3.3-3.56,2.32-2.46,1.29-1.37.68-.71a4.32,4.32,0,0,1,.79-.73,2.34,2.34,0,0,1,2.24-.15,3.23,3.23,0,0,1,.93.71l.81.77,3.36,3.25-.38,0c.44-.57.92-1.17,1.39-1.79l3.13-4,1.5-1.9a2.22,2.22,0,0,1,2.35-.68,2.17,2.17,0,0,1,1,.68l.68.86,1.27,1.64,2.27,2.95,3.25,4.3.87,1.18C555.92,99.46,556,99.61,556,99.63Z" style="fill:#455a64"></path> <path d="M536.76,86.3s.29,0,.76-.2a3.14,3.14,0,0,0,1.65-1.18,3,3,0,1,0-4.81,0A3.16,3.16,0,0,0,536,86.1c.48.15.77.16.76.2s-.28.09-.8,0a3.22,3.22,0,0,1-1.89-1.15,3.37,3.37,0,0,1-.55-3.23,3.43,3.43,0,0,1,6.48,0,3.37,3.37,0,0,1-.54,3.23,3.22,3.22,0,0,1-1.89,1.15A1.44,1.44,0,0,1,536.76,86.3Z" style="fill:#455a64"></path> <g style="opacity:0.2"> <path d="M507.37,111.22H569a0,0,0,0,1,0,0v18.1a6.36,6.36,0,0,1-6.36,6.36h-49a6.36,6.36,0,0,1-6.36-6.36v-18.1A0,0,0,0,1,507.37,111.22Z"></path> </g> <path d="M544.82,55.06V74.28A5.74,5.74,0,0,0,550.56,80H569Z" style="fill:#EBFF05"></path> <g style="opacity:0.2"> <path d="M545.07,76s-.24,4.66,5.07,6.19a5.82,5.82,0,0,0,.6.14c2.42.43,18.3,3.26,18.3,2.89V80H550.56S546,79.86,545.07,76Z"></path> </g> <path d="M532.68,122.57h2v3.89a6.67,6.67,0,0,1-3.88,1.22,5,5,0,1,1,0-9.92,5.11,5.11,0,0,1,4,1.66l-1.43,1.31a3.25,3.25,0,0,0-2.48-1.08,3.07,3.07,0,1,0,0,6.14,3.53,3.53,0,0,0,1.73-.41Z" style="fill:#455a64"></path> <path d="M536.76,117.92H539v9.6h-2.22Z" style="fill:#455a64"></path> <path d="M543.47,119.7v2.54h4.44V124h-4.44v3.5h-2.22v-9.6h7.25v1.78Z" style="fill:#455a64"></path> <path d="M345.93,135.68H296.6a6.17,6.17,0,0,1-6.17-6.17V61.23a6.17,6.17,0,0,1,6.17-6.17h31.28L352.1,80v49.49A6.17,6.17,0,0,1,345.93,135.68Z" style="fill:#EBFF05"></path> <g style="opacity:0.2"> <path d="M290.43,111.22H352.1a0,0,0,0,1,0,0v17.62a6.84,6.84,0,0,1-6.84,6.84h-48a6.84,6.84,0,0,1-6.84-6.84V111.22A0,0,0,0,1,290.43,111.22Z"></path> </g> <path d="M312.28,127l1.56-1.87a2.77,2.77,0,0,0,2.24,1.33c1.12,0,1.7-.67,1.7-2v-5.74h-4.24v-2.24h7v7.83c0,3-1.5,4.45-4.34,4.45A4.88,4.88,0,0,1,312.28,127Z" style="fill:#455a64"></path> <path d="M322.23,127.69l.9-1.94a6.25,6.25,0,0,0,3.22.9c1.24,0,1.71-.33,1.71-.84,0-1.52-5.61,0-5.61-3.68,0-1.75,1.59-3,4.3-3a7.74,7.74,0,0,1,3.57.81l-.9,1.92a5.29,5.29,0,0,0-2.67-.69c-1.21,0-1.73.38-1.73.86,0,1.59,5.61,0,5.61,3.71,0,1.72-1.61,3-4.38,3A8,8,0,0,1,322.23,127.69Z" style="fill:#455a64"></path> <path d="M303.49,98.38l1.94-2.27a5.81,5.81,0,0,0,4.87,2.77c2.63,0,4-1.6,4-4.74V81h-8.44v-2.9H317.6V94c0,5.2-2.54,7.77-7.3,7.77A8.14,8.14,0,0,1,303.49,98.38Z" style="fill:#455a64"></path> <path d="M321.7,99.61,323,97.08a11.41,11.41,0,0,0,6.2,1.83c3,0,4.2-.9,4.2-2.4,0-4-11.17-.53-11.17-7.57,0-3.16,2.83-5.3,7.37-5.3a12.83,12.83,0,0,1,6.43,1.6l-1.37,2.54a9.16,9.16,0,0,0-5.1-1.4c-2.8,0-4.16,1-4.16,2.43,0,4.17,11.2.77,11.2,7.63,0,3.21-2.94,5.24-7.64,5.24A12.74,12.74,0,0,1,321.7,99.61Z" style="fill:#455a64"></path> <path d="M327.88,55.06V74.28A5.74,5.74,0,0,0,333.62,80H352.1Z" style="fill:#EBFF05"></path> <g style="opacity:0.2"> <path d="M328.14,76s-.25,4.66,5.06,6.19a6,6,0,0,0,.61.14c2.41.43,18.29,3.26,18.29,2.89V80H333.62S329,79.86,328.14,76Z"></path> </g> <path d="M235.69,135.68H186.37a6.17,6.17,0,0,1-6.17-6.17V61.23a6.17,6.17,0,0,1,6.17-6.17h31.28l24.22,25v49.49A6.18,6.18,0,0,1,235.69,135.68Z" style="fill:#EBFF05"></path> <g style="opacity:0.2"> <path d="M180.2,111.22h61.67a0,0,0,0,1,0,0v17.56a6.9,6.9,0,0,1-6.9,6.9H187.09a6.9,6.9,0,0,1-6.9-6.9V111.22A0,0,0,0,1,180.2,111.22Z"></path> </g> <g style="opacity:0.2"> <path d="M217.65,55.06V74.28A5.74,5.74,0,0,0,223.39,80h18.48Z" style="fill:#fff"></path> </g> <g style="opacity:0.2"> <path d="M217.9,76s-.24,4.66,5.07,6.19a5.82,5.82,0,0,0,.6.14c2.42.43,18.3,3.26,18.3,2.89V80H223.39S218.78,79.86,217.9,76Z"></path> </g> <path d="M205.52,91l-7.4,2.71,7.4,2.69V99.2l-10.58-4V92.29l10.58-4Z" style="fill:#455a64"></path> <path d="M213.48,82.79h3.09l-7.34,20.95h-3.09Z" style="fill:#455a64"></path> <path d="M227.55,92.29v2.89L217,99.2V96.42l7.4-2.69L217,91V88.26Z" style="fill:#455a64"></path> <path d="M203,120.32v8.29h-1.92v-3.4h-3.77v3.4H195.4v-8.29h1.92v3.27h3.77v-3.27Z" style="fill:#455a64"></path> <path d="M206.69,121.88H204v-1.56h7.23v1.56H208.6v6.73h-1.91Z" style="fill:#455a64"></path> <path d="M219.83,128.61v-5l-2.44,4.09h-.87l-2.42-4v4.87h-1.8v-8.29h1.58l3.1,5.15,3.06-5.15h1.57l0,8.29Z" style="fill:#455a64"></path> <path d="M223.59,120.32h1.92v6.73h4.16v1.56h-6.08Z" style="fill:#455a64"></path> <g style="opacity:0.2"> <path d="M327.88,55.06V74.28A5.74,5.74,0,0,0,333.62,80H352.1Z" style="fill:#fff"></path> </g> <g style="opacity:0.2"> <path d="M544.82,55.06V74.28A5.74,5.74,0,0,0,550.56,80H569Z" style="fill:#fff"></path> </g> </g></svg>