<svg xmlns="http://www.w3.org/2000/svg" viewBox="0 0 750 500"><g id="freepik--background-complete--inject-150"><rect x="262.77" y="16.49" width="218.1" height="255.71" transform="translate(227.48 516.16) rotate(-90)" style="fill:#e0e0e0"></rect><rect x="266.89" y="20.51" width="209.86" height="247.66" transform="translate(227.48 516.16) rotate(-90)" style="fill:#fff"></rect><rect x="275.26" y="29.55" width="193.95" height="228.88" transform="translate(228.24 516.22) rotate(-90)" style="fill:#f5f5f5"></rect><path d="M300.87,107.43l-19.47,1.38a5,5,0,0,0-3.16,1c-1.16,1.1-1,2.94-.75,4.51l9.39,59.36L315,178.29c-2.32-22-4.9-42.58-8.49-66.72a5.56,5.56,0,0,0-1.18-3.16C304.23,107.29,302.44,107.32,300.87,107.43Z" style="fill:#fff"></path><path d="M260,204.4c.86,11.51,8.58,21.9,18.68,27.48s22.28,6.71,33.65,4.71c7.87-1.37,15.87-4.45,20.89-10.67,4.72-5.85,6.19-13.75,5.81-21.25-.67-13.37-7.79-27.19-20.2-32.22-6.89-2.8-14.59-2.66-22-2.06-7.79.64-15.79,1.85-22.47,5.89-9.19,5.56-15.18,17.41-14.37,28.12" style="fill:#e0e0e0"></path><path d="M486.77,63.34c-13,4.22-21.76,24.94-23.27,38.49S465,129,465.74,142.59,464.65,171,455.35,181c-11.21,12-30.19,13.87-41.8,25.49a33.76,33.76,0,0,0-7.62,34.73h81.31Z" style="fill:#f5f5f5"></path><path d="M264.14,223.46s47.8-19.55,53.23-23.54S332.94,188,349.6,158.28l130.72,9.05-10.85,52.49L266.32,233.6Z" style="fill:#ebebeb"></path><path d="M351,62.62a76.34,76.34,0,0,0-15,4.94,36.15,36.15,0,0,0-8.93,6h0a37,37,0,0,0-11.54,20.72,31.31,31.31,0,0,0-.42,3.21c-.5,6.19,1.17,12.87,5.8,17,3.62,3.23,8.52,4.52,13.24,5.65,20.68,5,41.71,8.79,63,9.46,9.41.29,19,0,28-2.67s17.61-7.68,23-15.36,7.28-18.17,3.44-26.75c-3.73-8.37-12-13.76-20.4-17.46C406.24,56.35,377.53,56.37,351,62.62Z" style="fill:#fff"></path><path d="M257.79,47v57l104.8-57C329.75,47,257.79,47,257.79,47Z" style="fill:#ebebeb"></path><path d="M422.4,134.62c-4,2.21-8.26,4.47-12.86,4.59-6.14.15-11.65-3.53-16.68-7.06l-20.8-14.58c-2.92-2-6-4.15-9.53-4.57-5.45-.64-10.1,2.73-13.95,7a8.14,8.14,0,0,0-.68,10.11c14.31,20.58,30,41.63,44,62.12,2,2.88,4.1,5.89,7.27,7.37,3.52,1.63,7.62,1.06,11.45.45,26.2-4.17,76.13-17.25,76.13-17.25L486.68,94S439,125.54,422.4,134.62Z" style="fill:#e0e0e0"></path><path d="M244,35.29a8.91,8.91,0,0,1,2.19,1.89A8.82,8.82,0,0,1,248,39.41a8.85,8.85,0,0,1-2.19-1.89A8.89,8.89,0,0,1,244,35.29Z" style="fill:#ebebeb"></path><path d="M495.61,39.17a8,8,0,0,1,1.83-2.06,7.73,7.73,0,0,1,2.16-1.72,8.35,8.35,0,0,1-1.83,2.07A8,8,0,0,1,495.61,39.17Z" style="fill:#ebebeb"></path><path d="M495.59,249.41a8.39,8.39,0,0,1,2.19,1.86,9,9,0,0,1,1.86,2.2,17,17,0,0,1-4.05-4.06Z" style="fill:#ebebeb"></path><path d="M244,253.36a12.86,12.86,0,0,1,2-2.07,13.82,13.82,0,0,1,2.06-2,6.31,6.31,0,0,1-1.71,2.32A6.54,6.54,0,0,1,244,253.36Z" style="fill:#ebebeb"></path><polygon points="159.14 72.61 159.14 157.77 49.15 157.77 45.18 73.2 159.14 72.61" style="fill:#e0e0e0"></polygon><rect x="57.85" y="60.44" width="84.67" height="109.99" transform="translate(-15.25 215.61) rotate(-90)" style="fill:#f5f5f5"></rect><path d="M155.6,158.19H44.76V72.68H155.6Zm-110-.84H154.76V73.52H45.6Z" style="fill:#e0e0e0"></path><rect x="57.1" y="81.8" width="86.17" height="64.82" style="fill:#fff"></rect><path d="M143.26,81.8h-1.63l-4.69,0-17.67.05L57.1,82l.19-.2c0,19.44,0,41.51,0,64.81h0l-.21-.22,86.16,0-.18.18c0-19.59.07-35.77.1-47.07,0-5.65,0-10.07,0-13.1,0-1.51,0-2.66,0-3.45s0-1.2,0-1.2,0,.39,0,1.16,0,1.93,0,3.42c0,3,0,7.43,0,13.06,0,11.33.05,27.55.09,47.18v.18h-.18l-86.16,0h-.22v-.22h0c0-23.3,0-45.37,0-64.81v-.2h.2l62.29.1,17.63,0,4.66,0h1.58Z" style="fill:#e0e0e0"></path><path d="M45.18,72.9A10,10,0,0,1,47,74.05c1.12.75,2.65,1.81,4.3,3s3.11,2.38,4.15,3.24A11.85,11.85,0,0,1,57.1,81.8a10.89,10.89,0,0,1-1.8-1.23l-4.22-3.13c-1.58-1.18-3-2.25-4.22-3.14A11.2,11.2,0,0,1,45.18,72.9Z" style="fill:#e0e0e0"></path><path d="M155.18,73.1a63.49,63.49,0,0,1-5.83,4.53,61.88,61.88,0,0,1-6.09,4.17,63.49,63.49,0,0,1,5.83-4.53A60.53,60.53,0,0,1,155.18,73.1Z" style="fill:#e0e0e0"></path><line x1="155.18" y1="157.77" x2="142.82" y2="146.62" style="fill:#fff"></line><path d="M142.82,146.62a75.92,75.92,0,0,1,6.33,5.41,79.68,79.68,0,0,1,6,5.74,78.31,78.31,0,0,1-6.33-5.41A79.68,79.68,0,0,1,142.82,146.62Z" style="fill:#e0e0e0"></path><path d="M45.18,157.77a73.41,73.41,0,0,1,5.75-5.49,73.23,73.23,0,0,1,6-5.16,71.3,71.3,0,0,1-5.75,5.49A71.34,71.34,0,0,1,45.18,157.77Z" style="fill:#e0e0e0"></path><path d="M120.13,93.75c0,.13-8.53.23-19,.23s-19-.1-19-.23,8.52-.22,19-.22S120.13,93.63,120.13,93.75Z" style="fill:#e0e0e0"></path><path d="M128.7,115.19c0,.12-12.77.22-28.52.22s-28.53-.1-28.53-.22,12.77-.23,28.53-.23S128.7,115.06,128.7,115.19Z" style="fill:#e0e0e0"></path><path d="M128.7,120.48c0,.12-12.77.23-28.52.23s-28.53-.11-28.53-.23,12.77-.23,28.53-.23S128.7,120.35,128.7,120.48Z" style="fill:#e0e0e0"></path><path d="M68.83,104.42A3.4,3.4,0,0,1,72.45,101a3.49,3.49,0,0,1,2.84,1.24L74.1,103.3a2,2,0,0,0-1.55-.77,1.89,1.89,0,0,0,0,3.77,1.93,1.93,0,0,0,1.55-.77l1.19,1.07a3.49,3.49,0,0,1-2.84,1.24A3.4,3.4,0,0,1,68.83,104.42Z" style="fill:#e0e0e0"></path><path d="M81.41,106.27v1.44H76.12v-6.59h5.17v1.44H78v1.11h2.93v1.39H78v1.21Z" style="fill:#e0e0e0"></path><path d="M85.33,106h-1v1.75H82.45v-6.59h3c1.8,0,2.93.93,2.93,2.44a2.19,2.19,0,0,1-1.29,2.08l1.42,2.07h-2Zm0-3.37h-1v1.93h1c.77,0,1.15-.36,1.15-1S86.12,102.59,85.35,102.59Z" style="fill:#e0e0e0"></path><path d="M90.72,102.6h-2v-1.48h5.9v1.48h-2v5.11H90.72Z" style="fill:#e0e0e0"></path><path d="M95.3,101.12h1.86v6.59H95.3Z" style="fill:#e0e0e0"></path><path d="M100.36,102.56V104h2.91v1.44h-2.91v2.26H98.49v-6.59h5.17v1.44Z" style="fill:#e0e0e0"></path><path d="M104.54,101.12h1.86v6.59h-1.86Z" style="fill:#e0e0e0"></path><path d="M107.39,104.42A3.41,3.41,0,0,1,111,101a3.48,3.48,0,0,1,2.83,1.24l-1.19,1.07a2,2,0,0,0-1.55-.77,1.89,1.89,0,0,0,0,3.77,1.93,1.93,0,0,0,1.55-.77l1.19,1.07a3.48,3.48,0,0,1-2.83,1.24A3.41,3.41,0,0,1,107.39,104.42Z" style="fill:#e0e0e0"></path><path d="M119,106.43h-2.79l-.51,1.28h-1.91l2.91-6.59h1.84l2.92,6.59H119.5Zm-.55-1.37-.84-2.11-.85,2.11Z" style="fill:#e0e0e0"></path><path d="M123,102.6h-2v-1.48h5.9v1.48h-2v5.11H123Z" style="fill:#e0e0e0"></path><path d="M132.91,106.27v1.44h-5.29v-6.59h5.17v1.44h-3.33v1.11h2.93v1.39h-2.93v1.21Z" style="fill:#e0e0e0"></path><path d="M107.66,133.64A6.64,6.64,0,1,1,101,127,6.64,6.64,0,0,1,107.66,133.64Z" style="fill:#e0e0e0"></path><path d="M101,140.3a6.66,6.66,0,1,1,6.66-6.66A6.66,6.66,0,0,1,101,140.3ZM101,127a6.62,6.62,0,1,0,6.62,6.61A6.62,6.62,0,0,0,101,127Z" style="fill:#e0e0e0"></path><path d="M87.52,133.64a68.94,68.94,0,0,1-8,.23,68.83,68.83,0,0,1-8-.23,73.23,73.23,0,0,1,8-.22A73.35,73.35,0,0,1,87.52,133.64Z" style="fill:#e0e0e0"></path><path d="M131.38,133.64a86.31,86.31,0,0,1-8.95.23,86.31,86.31,0,0,1-9-.23c0-.12,4-.22,9-.22S131.38,133.52,131.38,133.64Z" style="fill:#e0e0e0"></path><path d="M83.39,132.39a2,2,0,0,1-.1-.54,5.92,5.92,0,0,1,.09-1.6,5.83,5.83,0,0,1,1-2.33,1.38,1.38,0,0,1,.69-.47,1,1,0,0,1,.87.19,1.58,1.58,0,0,1,.56,1.73,5.06,5.06,0,0,1-1,1.73,8.83,8.83,0,0,1-1.46,1.55,4.42,4.42,0,0,1-2.11,1,3.38,3.38,0,0,1-2.41-.54,2.58,2.58,0,0,1-1.06-2.37,7.88,7.88,0,0,1,.71-2.58,3.16,3.16,0,0,1,.87-1.14,1.93,1.93,0,0,1,1.46-.36,1.41,1.41,0,0,1,1.1,1.09,2.92,2.92,0,0,1-.09,1.5,9.07,9.07,0,0,1-1.31,2.53,5.75,5.75,0,0,1-2.11,1.81,4.24,4.24,0,0,1-2.68.34,3.16,3.16,0,0,1-2.12-1.5,4.21,4.21,0,0,1-.57-2.4,6.23,6.23,0,0,1,.59-2.22c.3-.64.66-1.4,1.47-1.61a1,1,0,0,1,1,.47,2.11,2.11,0,0,1,.26,1,6.49,6.49,0,0,1-.79,3.27,6.6,6.6,0,0,1-1.59,2,6.21,6.21,0,0,1-1.34.87,2.82,2.82,0,0,1-.52.19,9.56,9.56,0,0,0,1.75-1.19,7,7,0,0,0,1.48-2,6.29,6.29,0,0,0,.69-3.13,1.74,1.74,0,0,0-.23-.82.61.61,0,0,0-.66-.31,1.31,1.31,0,0,0-.71.53,4.19,4.19,0,0,0-.49.89,4.61,4.61,0,0,0,0,4.26,2.79,2.79,0,0,0,1.86,1.29,3.87,3.87,0,0,0,2.4-.32,7,7,0,0,0,3.18-4.07,2.48,2.48,0,0,0,.08-1.26,1,1,0,0,0-.75-.76,1.47,1.47,0,0,0-1.1.28,2.56,2.56,0,0,0-.74,1,7.45,7.45,0,0,0-.68,2.42,2.17,2.17,0,0,0,.87,2,3,3,0,0,0,2.12.49,4.12,4.12,0,0,0,1.92-.88,8.21,8.21,0,0,0,1.43-1.46,5,5,0,0,0,.94-1.6,1.3,1.3,0,0,0-.42-1.42.84.84,0,0,0-1.2.21,5.63,5.63,0,0,0-1,2.21A8.08,8.08,0,0,0,83.39,132.39Z" style="fill:#ebebeb"></path><path d="M129.28,131.33s-.05,0-.17.1l-.53.24a18.84,18.84,0,0,1-2.12.73,21.28,21.28,0,0,1-3.5.64,20.14,20.14,0,0,1-2.24.08c-.79,0-1.64-.16-2.47-.06a1.67,1.67,0,0,0-1.07.55,1,1,0,0,0-.13,1.14,6.42,6.42,0,0,0,.81,1.16c.32.39.64.77,1,1.16s.7.76,1.07,1.14a3.58,3.58,0,0,0,1.21.94,1.08,1.08,0,0,0,1.26-.45,2.27,2.27,0,0,0,.38-1.52A36.17,36.17,0,0,1,124.44,122l.19-.57.23.55a12.57,12.57,0,0,1,.89,4,13,13,0,0,1-.9,5.52,12.14,12.14,0,0,1-1.3,2.41,3.85,3.85,0,0,1-2.08,1.76,1.28,1.28,0,0,1-1.37-.48,2.57,2.57,0,0,1-.36-1.33,13.2,13.2,0,0,1,.08-2.52,13.92,13.92,0,0,1,1.38-4.56l.15-.28.18.25a3.06,3.06,0,1,1-4.67-.14,1.67,1.67,0,0,1,.77-.53.8.8,0,0,1,.89.25,1.24,1.24,0,0,1,.21.83,2.63,2.63,0,0,1-.16.77,9.87,9.87,0,0,1-2.46,3.84,9.24,9.24,0,0,1-.92.77l-.35.22a1.79,1.79,0,0,1,.31-.27c.2-.18.51-.44.87-.81a9.92,9.92,0,0,0,2.33-3.82,1.6,1.6,0,0,0,0-1.37c-.3-.38-.92-.12-1.25.31a2.84,2.84,0,0,0-.2,3.36,2.69,2.69,0,1,0,4.35-3.16l.33,0a13.74,13.74,0,0,0-1.32,4.43,14.16,14.16,0,0,0-.06,2.44,2.11,2.11,0,0,0,.28,1.1.85.85,0,0,0,.92.32,2.62,2.62,0,0,0,1-.6,7.34,7.34,0,0,0,.8-1,12.29,12.29,0,0,0,1.24-2.32,12.67,12.67,0,0,0,.87-5.34,12,12,0,0,0-.86-3.82h.42a36.21,36.21,0,0,0-1.69,15,2.74,2.74,0,0,1-.46,1.77,1.79,1.79,0,0,1-.75.58,1.41,1.41,0,0,1-.95,0,3.88,3.88,0,0,1-1.36-1c-.37-.38-.73-.77-1.07-1.16s-.68-.79-1-1.18a6,6,0,0,1-.85-1.24,1.35,1.35,0,0,1,.2-1.49,2,2,0,0,1,1.27-.64,5.69,5.69,0,0,1,1.31,0c.42,0,.82.06,1.21.07.78,0,1.52,0,2.2,0a19.82,19.82,0,0,0,3.49-.57c.93-.23,1.65-.47,2.13-.64S129.28,131.32,129.28,131.33Z" style="fill:#ebebeb"></path><path d="M70.61,239.36s-4.41,3.33-4.41,7.73V269.6H99V246.08s-.46-5.77-4.32-6.72Z" style="fill:#f5f5f5"></path><path d="M68.69,268.38a63.3,63.3,0,0,1-.48-6.92,5.55,5.55,0,0,1,3.84-5.1c1.73-.47,3.55.16,5.32.45a14,14,0,0,0,8.49-1.27c2.22-1.1,4.25-2.82,6.71-3,1.62-.15,3.48.6,3.92,2.16a5.32,5.32,0,0,1,0,2.28c-.53,3.47.15,7.78.15,11.12-9.2.43-18.72.12-27.92.32" style="fill:#e0e0e0"></path><polyline points="64.12 272.78 69.07 269.6 99.03 269.6 103.84 272.78 64.12 272.78" style="fill:#e0e0e0"></polyline><path d="M63.19,199.55v33.51h40.65v39.72H64.12v9.53h68.52V199.55a7.13,7.13,0,0,0-7.13-7.13H70.33A7.14,7.14,0,0,0,63.19,199.55Z" style="fill:#f5f5f5"></path><path d="M132.64,200.31c0,.17-15.54.3-34.72.3s-34.73-.13-34.73-.3S78.74,200,97.92,200,132.64,200.15,132.64,200.31Z" style="fill:#e0e0e0"></path><path d="M113.37,282.31c-.17,0-.3-20.07-.3-44.83s.13-44.83.3-44.83.29,20.07.29,44.83S113.53,282.31,113.37,282.31Z" style="fill:#e0e0e0"></path><path d="M59.51,258.75l-.41-10.16a13.79,13.79,0,0,1,2.21-8.28c1.31-1.92,3.24-3.63,6-3.63H94.71v2.68H67.8s-4.84.51-5.48,7.14a65.45,65.45,0,0,0,0,12.25Z" style="fill:#e0e0e0"></path><rect x="84.43" y="440.46" width="12.02" height="21.68" style="fill:#e0e0e0"></rect><rect x="137.56" y="440.46" width="12.02" height="21.68" style="fill:#e0e0e0"></rect><rect x="58.01" y="282.31" width="99.58" height="158.15" style="fill:#e0e0e0"></rect><rect x="39.77" y="282.31" width="97" height="158.15" style="fill:#f5f5f5"></rect><rect x="48.34" y="440.46" width="12.02" height="21.68" style="fill:#f5f5f5"></rect><rect x="117.47" y="440.46" width="12.02" height="21.68" style="fill:#f5f5f5"></rect><path d="M129.05,397.41s0-.2,0-.58,0-.93,0-1.66c0-1.46,0-3.6,0-6.36,0-5.53-.05-13.54-.08-23.48l.14.14-83.24.06h0l.2-.2c0,11.21,0,22.05,0,32.08l-.19-.19,59.63.09,17.35.05,4.64,0h0l-4.61,0-17.3.05-59.76.09h-.19V365.14h.21l83.24.06h.13v.13c0,10-.05,18-.07,23.56,0,2.75,0,4.88,0,6.34,0,.71,0,1.25,0,1.63S129.05,397.41,129.05,397.41Z" style="fill:#e0e0e0"></path><path d="M89.94,381.37s0-.22-.15-.6a2.61,2.61,0,0,0-.93-1.29,2.35,2.35,0,1,0,0,3.78,2.61,2.61,0,0,0,.93-1.29c.11-.38.11-.6.15-.6a1.1,1.1,0,0,1,0,.63,2.51,2.51,0,0,1-.9,1.48,2.61,2.61,0,0,1-2.52.42,2.68,2.68,0,0,1,0-5.06,2.61,2.61,0,0,1,2.52.42,2.51,2.51,0,0,1,.9,1.48A1.12,1.12,0,0,1,89.94,381.37Z" style="fill:#e0e0e0"></path><path d="M129.05,434.92s0-.2,0-.58,0-.93,0-1.66c0-1.46,0-3.6,0-6.36,0-5.53-.05-13.53-.08-23.48l.14.14L45.81,403h0l.2-.2c0,11.21,0,22.05,0,32.08l-.19-.19,59.63.09,17.35.05,4.64,0h0l-4.61,0-17.3,0-59.76.09h-.19V402.65h.21l83.24.06h.13v.13c0,10-.05,18-.07,23.56,0,2.75,0,4.88,0,6.34,0,.71,0,1.25,0,1.63S129.05,434.92,129.05,434.92Z" style="fill:#e0e0e0"></path><path d="M89.94,418.88s0-.22-.15-.59a2.58,2.58,0,0,0-.93-1.3,2.35,2.35,0,1,0,0,3.78,2.61,2.61,0,0,0,.93-1.29c.11-.38.11-.6.15-.6a1.12,1.12,0,0,1,0,.63A2.51,2.51,0,0,1,89,421a2.61,2.61,0,0,1-2.52.42,2.68,2.68,0,0,1,0-5.06,2.61,2.61,0,0,1,2.52.42,2.51,2.51,0,0,1,.9,1.48A1.1,1.1,0,0,1,89.94,418.88Z" style="fill:#e0e0e0"></path><path d="M129.05,359s0-.19,0-.57,0-.94,0-1.66c0-1.46,0-3.61,0-6.37,0-5.53-.05-13.53-.08-23.47l.14.13-83.24.06h0l.2-.19C46,338.13,46,349,46,359l-.19-.18,59.63.08,17.35.06,4.64,0h1.63l-.4,0h-1.18l-4.61,0-17.3,0-59.76.09h-.19V326.72h.21l83.24.06h.13v.14c0,10-.05,18-.07,23.55,0,2.75,0,4.88,0,6.34,0,.71,0,1.26,0,1.64S129.05,359,129.05,359Z" style="fill:#e0e0e0"></path><path d="M89.94,343s0-.23-.15-.6a2.61,2.61,0,0,0-.93-1.29,2.4,2.4,0,0,0-2.23-.31,2.35,2.35,0,1,0,2.23,4.08,2.57,2.57,0,0,0,.93-1.29c.11-.37.11-.6.15-.59a1.09,1.09,0,0,1,0,.63,2.46,2.46,0,0,1-.9,1.47,2.64,2.64,0,0,1-2.52.43,2.69,2.69,0,0,1,0-5.07,2.64,2.64,0,0,1,2.52.43,2.46,2.46,0,0,1,.9,1.47A1.15,1.15,0,0,1,89.94,343Z" style="fill:#e0e0e0"></path><path d="M129.05,321.1s0-.2,0-.58,0-.93,0-1.66c0-1.46,0-3.6,0-6.37,0-5.52-.05-13.53-.08-23.47l.14.14-83.24.06h0l.2-.2c0,11.21,0,22.05,0,32.08l-.19-.19,59.63.09,17.35.05,4.64,0,1.21,0h-1.16l-4.61,0-17.3.05-59.76.09h-.19V288.82h.21l83.24.07h.13V289c0,10-.05,18-.07,23.56,0,2.75,0,4.88,0,6.34,0,.71,0,1.25,0,1.63S129.05,321.1,129.05,321.1Z" style="fill:#e0e0e0"></path><path d="M89.94,305.06s0-.22-.15-.6a2.61,2.61,0,0,0-.93-1.29,2.35,2.35,0,1,0,0,3.78,2.58,2.58,0,0,0,.93-1.3c.11-.37.11-.59.15-.59a1.1,1.1,0,0,1,0,.63,2.51,2.51,0,0,1-.9,1.48,2.61,2.61,0,0,1-2.52.42,2.68,2.68,0,0,1,0-5.06A2.61,2.61,0,0,1,89,303a2.51,2.51,0,0,1,.9,1.48A1.12,1.12,0,0,1,89.94,305.06Z" style="fill:#e0e0e0"></path><path d="M131.65,282.31c0,.16-15.1.29-33.73.29s-33.73-.13-33.73-.29,15.1-.3,33.73-.3S131.65,282.15,131.65,282.31Z" style="fill:#e0e0e0"></path><path d="M633.73,368.75a33.23,33.23,0,0,0-14.3-4.92c-2.33-.24-4.88-.18-6.76,1.24a1.37,1.37,0,0,0-.69,1.23,1.49,1.49,0,0,0,.66.85c5.81,4.44,14.61,5,21.09,1.6" style="fill:#e0e0e0"></path><path d="M633.36,368.34a70,70,0,0,1-9.23-8.12,23.43,23.43,0,0,1-5.79-10.71,4.32,4.32,0,0,1,.46-3.58c7.36,5.75,13.14,13.18,14.56,22.41" style="fill:#e0e0e0"></path><path d="M633.65,368.69a33.57,33.57,0,0,1,.17-12.12,16.43,16.43,0,0,1,6.46-10c1.27,3,.73,6.4-.17,9.51a46.27,46.27,0,0,1-6.4,13.48" style="fill:#e0e0e0"></path><path d="M640.87,381.62c-4.38.53-8.2,2.84-11.47,5.8a21.64,21.64,0,0,0-6.55,11.26c4.29-.27,7.94-3.3,10.58-6.69s4.48-7.13,7.38-10.3" style="fill:#e0e0e0"></path><path d="M642.44,383.69a28.29,28.29,0,0,1,3.26-26.75c2.5,8.88,1.58,18.9-3.26,26.75" style="fill:#e0e0e0"></path><path d="M652,395a20.46,20.46,0,0,0-19.55,11.25c-.24.49-.46,1.1-.13,1.54a1.46,1.46,0,0,0,1.29.38c3.86-.25,7.27-2.57,10.09-5.21s5.27-5.69,8.39-8" style="fill:#e0e0e0"></path><path d="M651.67,394.42a36.37,36.37,0,0,1-.37-20.34c.72-2.62,1.92-5.37,4.34-6.6a.85.85,0,0,1,.67-.12.93.93,0,0,1,.42.49,12.24,12.24,0,0,1,1,5.83,36.86,36.86,0,0,1-.91,5.91c-.77,3.61-1.17,7.49-3.15,10.6a21,21,0,0,0-1.26,2.33c-.38.8-.38,1.07-.72,1.7" style="fill:#e0e0e0"></path><path d="M676.9,398.18c-1.87-7.11.12-15.73,4.6-21.56.33-.43.76-.89,1.3-.84.83.07,1,1.17,1,2a39,39,0,0,1-6.91,20.4" style="fill:#e0e0e0"></path><path d="M679.18,399.74a31.37,31.37,0,0,0,25.73-5.24A20.85,20.85,0,0,0,691,392.79c-4.65,1.07-8.91,3.15-11.8,6.95" style="fill:#e0e0e0"></path><path d="M681.09,395c4.84-7.89,14.12-13,23.36-13.51-1.06,3.76-4.15,6.68-7.64,8.45s-7.37,2.53-11.21,3.28c-1.49.29-3.54.61-4.51,1.78" style="fill:#e0e0e0"></path><path d="M677.38,372a67.81,67.81,0,0,0,3-13.68,22.77,22.77,0,0,0-2.73-13.53c-4.52,8.75-5,19-.39,27.68" style="fill:#e0e0e0"></path><path d="M692.6,364.33c5.29-9.61,16.07-17.28,27-18.35-4.21,10.48-15.69,18.58-27,18.35" style="fill:#e0e0e0"></path><path d="M689.27,366.21c7.89,1.2,14.6,6.24,22,9.29a9.92,9.92,0,0,0,5,.95,3.89,3.89,0,0,0,2.43-6.87,10.42,10.42,0,0,0-3.61-2.19C707,364.05,698.4,364,690,366" style="fill:#e0e0e0"></path><path d="M684.71,371.74c1.79.51,2.4,1.44,3.81,2.64a41,41,0,0,0,16.66,8.56c.63.16,1.47.22,1.78-.35s-.07-1.12-.43-1.56a22.84,22.84,0,0,0-10.06-6.83c-3.84-1.43-7.17-3.16-11.76-2.79" style="fill:#e0e0e0"></path><path d="M679.56,338.35a31.55,31.55,0,0,0,24.17,8.22,1.68,1.68,0,0,0,1.1-.39c.61-.66-.12-1.69-.83-2.24-7.1-5.54-15.71-7.84-24.44-5.59" style="fill:#e0e0e0"></path><path d="M685.67,336.12a33.68,33.68,0,0,1,30.16-5,24,24,0,0,1-14.38,6.31,45.67,45.67,0,0,1-15.78-1.33" style="fill:#e0e0e0"></path><path d="M683.24,320.77c-.7-7.09-.24-12.69-.74-19.82,0-.57-.16-1.25-.69-1.46-.74-.28-1.36.63-1.6,1.39a22.71,22.71,0,0,0,3,19.73" style="fill:#e0e0e0"></path><path d="M682.73,321.55a41.61,41.61,0,0,0,11.75-11.42c2.32-3.17,4.28-7,3.75-10.87a11.23,11.23,0,0,0-8.48,4.21,23.58,23.58,0,0,0-4.32,8.69c-.94,3.12-1.59,6.33-2.7,9.39" style="fill:#e0e0e0"></path><path d="M694.27,318.35a94.81,94.81,0,0,0,28.92-17.05c-3.46-1.39-7.41-.56-10.86.83a34.28,34.28,0,0,0-18.21,16.14" style="fill:#e0e0e0"></path><path d="M686,325.43c5.33.59,10.76,1,16,.08s10.13-2.93,15-5a1.78,1.78,0,0,0,1-.77,1.16,1.16,0,0,0-.37-1.28,3.09,3.09,0,0,0-1.28-.6c-5.28-1.48-11-.79-16.19,1A74.55,74.55,0,0,0,686,325.43" style="fill:#e0e0e0"></path><path d="M655.5,338.59c-3.64-7.35-3.41-15.93-.26-23.5,2.21,3.37,2.49,7.67,2.08,11.68s-1.63,8.15-1.71,12.19" style="fill:#e0e0e0"></path><path d="M641,331.25a32.8,32.8,0,0,0-24.36,10.38,22.83,22.83,0,0,0,13.34-2.47,67.64,67.64,0,0,0,11.43-7.65" style="fill:#e0e0e0"></path><path d="M631.17,328c-4.45-.36-8.73-.91-13,.4a15.58,15.58,0,0,0-9.91,8.41,23.48,23.48,0,0,0,12.19-2.31,69.42,69.42,0,0,0,10.72-6.5" style="fill:#e0e0e0"></path><path d="M645.65,328.13c-4-2.62-8.11-5.29-12.77-6.37s-10-.29-13.3,3.22c3.77,2.22,8.34,2.48,12.72,2.47s9.73-.05,13.85,1.41" style="fill:#e0e0e0"></path><path d="M645.68,328.34c-6.84-6.71-9.44-18.78-6.68-28a42.67,42.67,0,0,1,6.68,28" style="fill:#e0e0e0"></path><path d="M664.49,309.31c1.29-3,2.19-6.14,3.35-9.2a26.7,26.7,0,0,1,4.78-8.48,12.63,12.63,0,0,1,8.48-4.39,34.14,34.14,0,0,1-16.45,22.12" style="fill:#e0e0e0"></path><path d="M661.08,313.28c-2.13-2.94-4.6-6.93-7.49-9.12s-6.67-3.52-10.2-2.68a23.76,23.76,0,0,0,17.69,11.8" style="fill:#e0e0e0"></path><path d="M661.76,309.56a50.43,50.43,0,0,1-3.37-10.93,17,17,0,0,1,1.71-11.11c3.75,7.09,5,14.71,1.85,22.12" style="fill:#e0e0e0"></path><path d="M664.52,287.52c2.13-7,8.57-12.22,15.53-14.6a5.78,5.78,0,0,1,2.72-.41,2.4,2.4,0,0,1,2,1.68c.25,1.2-.74,2.27-1.67,3.06a52.94,52.94,0,0,1-18.59,10.27" style="fill:#e0e0e0"></path><path d="M664.6,281.76c.27-4.53.55-9.14,2-13.44s4.32-8.33,8.45-10.21c.71,4.58-1.31,9.14-3.75,13.09s-5.38,7.66-6.84,12.06" style="fill:#e0e0e0"></path><path d="M664.49,284.89c-1.76-5.13-1.94-11.65-5-16.11-2.15-3.13-5.59-5.25-7.44-8.56a13,13,0,0,0,.44,9.71,27.9,27.9,0,0,0,5.68,8.14c2.27,2.42,4.21,4.25,6.33,6.82" style="fill:#e0e0e0"></path><path d="M664.52,435.9c-.14,0-.25-34.21-.26-76.4s.09-76.4.23-76.4.25,34.2.26,76.4S664.66,435.9,664.52,435.9Z" style="fill:#e0e0e0"></path><path d="M694.42,333.43a8.34,8.34,0,0,1-1.29.48l-3.54,1.2c-3,1-7.08,2.49-11.54,4.31s-8.56,3.42-10.92,5.47a8.2,8.2,0,0,0-2.2,2.91c-.34.8-.4,1.29-.44,1.29s0-.13,0-.36a5.72,5.72,0,0,1,.25-1,7.73,7.73,0,0,1,2.15-3.1,18.89,18.89,0,0,1,4.74-2.94c1.89-.89,4-1.81,6.23-2.73,4.46-1.83,8.59-3.25,11.61-4.19,1.51-.47,2.74-.81,3.59-1A7.08,7.08,0,0,1,694.42,333.43Z" style="fill:#e0e0e0"></path><path d="M704.21,309.36s-.11.15-.36.39l-1.09,1-4.1,3.72L685,326.64c-5.33,4.74-9.93,9.27-13.12,12.68-1.59,1.7-2.85,3.11-3.71,4.1l-1,1.13a2.33,2.33,0,0,1-.37.38,2.65,2.65,0,0,1,.29-.44c.21-.28.51-.69.92-1.19.82-1,2-2.48,3.61-4.22a171.63,171.63,0,0,1,13-12.81c5.34-4.72,10.2-9,13.74-12l4.2-3.61,1.16-1A2.24,2.24,0,0,1,704.21,309.36Z" style="fill:#e0e0e0"></path><path d="M679.27,331.46c-.14-.06,1-2.63,2.08-5.88s1.65-6,1.79-6a20.15,20.15,0,0,1-1.32,6.12,37.92,37.92,0,0,1-1.66,4.11A6.16,6.16,0,0,1,679.27,331.46Z" style="fill:#e0e0e0"></path><path d="M664.55,352.17a5.9,5.9,0,0,1-.82-.95l-2.1-2.7c-1.77-2.28-4.21-5.43-6.94-8.88s-5.25-6.54-7.08-8.78l-2.14-2.66a5.34,5.34,0,0,1-.74-1,6.82,6.82,0,0,1,.88.89c.55.59,1.33,1.47,2.27,2.56,1.89,2.18,4.45,5.24,7.2,8.69s5.13,6.64,6.83,9c.85,1.17,1.52,2.12,2,2.79A6,6,0,0,1,664.55,352.17Z" style="fill:#e0e0e0"></path><path d="M658,343.75a12,12,0,0,1-2.75-5.14,14.87,14.87,0,0,1-.62-5.18l.22,0c-.1.39-.17.6-.21.6s0-.23,0-.64l.22,0a23.53,23.53,0,0,0,.88,5A36.86,36.86,0,0,0,658,343.75Z" style="fill:#e0e0e0"></path><path d="M649.54,333.11a9.45,9.45,0,0,0-1.92-1.12,13,13,0,0,0-5.33-.42,32.74,32.74,0,0,0-5.36.87,17.42,17.42,0,0,1-2.2.53,7.63,7.63,0,0,1,2.11-.87,24.83,24.83,0,0,1,5.42-1,11.56,11.56,0,0,1,5.49.59A3.44,3.44,0,0,1,649.54,333.11Z" style="fill:#e0e0e0"></path><path d="M647.53,330.53c0,.08-1.12-.45-2.94-1.07a29.54,29.54,0,0,0-14.8-1.13c-1.89.34-3,.69-3.07.61a2.89,2.89,0,0,1,.78-.33,17.54,17.54,0,0,1,2.22-.62,26.16,26.16,0,0,1,15,1.14,20.17,20.17,0,0,1,2.1.95A2.9,2.9,0,0,1,647.53,330.53Z" style="fill:#e0e0e0"></path><path d="M664.49,319.62a58.61,58.61,0,0,1-2.15-7.44,61.57,61.57,0,0,1-1.66-7.56,60.43,60.43,0,0,1,2.14,7.44A62.42,62.42,0,0,1,664.49,319.62Z" style="fill:#e0e0e0"></path><path d="M664.62,319.62a34.67,34.67,0,0,0-2.37-4.46,19.31,19.31,0,0,0-3.5-3.6,3.26,3.26,0,0,1,1.35.69,10.71,10.71,0,0,1,2.55,2.63A9.89,9.89,0,0,1,664.62,319.62Z" style="fill:#e0e0e0"></path><path d="M664.52,417.67s-.15-.83-.54-2.28a32.83,32.83,0,0,0-2.28-5.92c-2.37-4.83-6.67-11-12.13-17.09-2.71-3.09-5.34-6-7.57-8.81a62.3,62.3,0,0,1-5.41-7.8,37.89,37.89,0,0,1-2.73-5.79c-.25-.71-.43-1.27-.53-1.65a4.58,4.58,0,0,1-.15-.59c.05,0,.3.78.86,2.17a41.86,41.86,0,0,0,2.85,5.68,64.07,64.07,0,0,0,5.47,7.7c2.24,2.76,4.87,5.67,7.58,8.76,5.48,6.15,9.77,12.36,12.07,17.27a29.77,29.77,0,0,1,2.16,6,16.61,16.61,0,0,1,.3,1.72A2.52,2.52,0,0,1,664.52,417.67Z" style="fill:#e0e0e0"></path><path d="M691.53,387.15a11.49,11.49,0,0,1-1.41.8,29.35,29.35,0,0,0-3.67,2.43,42.5,42.5,0,0,0-4.83,4.39c-1.69,1.79-3.43,3.87-5.21,6.09-3.56,4.47-6.89,8.42-8.88,11.57-1,1.57-1.75,2.88-2.23,3.81a13.63,13.63,0,0,1-.78,1.43,1.64,1.64,0,0,1,.13-.41c.11-.25.25-.63.48-1.11a36.43,36.43,0,0,1,2.1-3.9c1.94-3.23,5.24-7.24,8.79-11.7,1.79-2.22,3.55-4.31,5.27-6.09a38.93,38.93,0,0,1,5-4.36,25.7,25.7,0,0,1,3.79-2.32c.47-.24.85-.38,1.1-.49A1.64,1.64,0,0,1,691.53,387.15Z" style="fill:#e0e0e0"></path><path d="M692.06,397.05a21.31,21.31,0,0,1-3,.44,38.9,38.9,0,0,0-7.1,1.39,21.67,21.67,0,0,0-6.35,3.34c-1.47,1.13-2.16,2.07-2.22,2a2.3,2.3,0,0,1,.44-.69A10.67,10.67,0,0,1,675.4,402a19.32,19.32,0,0,1,6.42-3.54,32.14,32.14,0,0,1,7.22-1.27A16.58,16.58,0,0,1,692.06,397.05Z" style="fill:#e0e0e0"></path><path d="M674.27,403.15c-.16-.09,1.19-2.15,2.24-4.92s1.21-5.25,1.39-5.22a4.87,4.87,0,0,1,0,1.6,17.33,17.33,0,0,1-.88,3.78,18.26,18.26,0,0,1-1.73,3.47A5.25,5.25,0,0,1,674.27,403.15Z" style="fill:#e0e0e0"></path><path d="M700.28,360.58a2.62,2.62,0,0,1-.48.25l-1.4.64c-.62.27-1.37.6-2.21,1s-1.83.88-2.86,1.5l-1.63.93c-.57.32-1.13.71-1.72,1.08-1.21.73-2.41,1.63-3.7,2.55a63.26,63.26,0,0,0-14.23,14.73c-.87,1.32-1.73,2.55-2.42,3.78-.35.61-.72,1.18-1,1.76l-.87,1.66c-.58,1.05-1,2.05-1.4,2.91s-.73,1.61-1,2.24l-.59,1.43a1.83,1.83,0,0,1-.24.48,3.49,3.49,0,0,1,.15-.52l.5-1.46c.22-.64.5-1.41.89-2.28s.78-1.89,1.35-3c.27-.54.55-1.1.85-1.68s.66-1.17,1-1.79c.67-1.24,1.52-2.5,2.39-3.83A61.14,61.14,0,0,1,686,368.21c1.31-.91,2.53-1.8,3.75-2.52.6-.37,1.17-.75,1.75-1.07l1.66-.91c1-.6,2-1,2.9-1.44a21.46,21.46,0,0,1,2.25-1l1.45-.56A2.06,2.06,0,0,1,700.28,360.58Z" style="fill:#e0e0e0"></path><path d="M678.9,374.9a3.57,3.57,0,0,1,1.18-1.75,7.42,7.42,0,0,1,4.74-1.81,12.85,12.85,0,0,1,5,1,7.48,7.48,0,0,1,1.89.91,11.38,11.38,0,0,1-2-.58,15.25,15.25,0,0,0-4.86-.81,7.74,7.74,0,0,0-4.52,1.59A15.39,15.39,0,0,0,678.9,374.9Z" style="fill:#e0e0e0"></path><path d="M675.71,378.2a17.93,17.93,0,0,0,1.34-4.38,17.6,17.6,0,0,0-.3-4.56c.06,0,.32.44.56,1.27a8.9,8.9,0,0,1,.23,3.35,8.81,8.81,0,0,1-1,3.21C676.12,377.84,675.76,378.23,675.71,378.2Z" style="fill:#e0e0e0"></path><path d="M640.89,422.57c.74,13.07,4.68,26.37,10.74,39.81H678c5.78-13.31,9.45-26.59,10.1-39.81Z" style="fill:#e0e0e0"></path><path d="M683.81,443.72c0,.14-8.68.25-19.38.25s-19.38-.11-19.38-.25,8.68-.25,19.38-.25S683.81,443.59,683.81,443.72Z" style="fill:#fafafa"></path><path d="M683.22,448.46c0,.13-8.13.24-18.16.24s-18.17-.11-18.17-.24,8.13-.25,18.17-.25S683.22,448.32,683.22,448.46Z" style="fill:#fafafa"></path><path d="M652.06,431.15a76.88,76.88,0,0,1,0,12.14,73.81,73.81,0,0,1,0-12.14Z" style="fill:#fafafa"></path><path d="M666.17,431.15a79.13,79.13,0,0,1,0,12.57,82.41,82.41,0,0,1,0-12.57Z" style="fill:#fafafa"></path><path d="M679.43,431a85.85,85.85,0,0,1,0,12.83,82.43,82.43,0,0,1,0-12.83Z" style="fill:#fafafa"></path><path d="M687.24,431.15c0,.14-10.17.25-22.72.25s-22.73-.11-22.73-.25,10.17-.25,22.73-.25S687.24,431,687.24,431.15Z" style="fill:#fafafa"></path><path d="M520.54,454.44c-1.38-1.19-4.48-5-2.09-9.35.87-1.61,2.73-2.4,4.41-3.11a18.15,18.15,0,0,0,4.85-2.51c2.62-2.24,3.35-6,5.09-8.93,2-3.42,5.74-6,9.68-5.8,4.52.2,8.29,3.89,10,8.1s1.77,8.88,1.8,13.43c0,2.51-.09,5.34-1.93,7s-4.27,1.58-6.57,1.51l-24.7-.76" style="fill:#f5f5f5"></path><path d="M567.78,386.53H502.83l11.7,69.76a7.81,7.81,0,0,0,5.54,6.21l.23.06c.2.05.38.11.58.15a8.21,8.21,0,0,0,1.32.15v.07l.32-.05h29a8.41,8.41,0,0,0,1.59-.16,7.83,7.83,0,0,0,6.57-6.82l5.64-48.06.25-1.92h0l2.23-19ZM555.52,431h-6.66l.67-20.25h7.72Zm2.38-20.25h6.38L561.91,431h-5.74Zm-19,42.69-.41-17.59h9.6l-.58,17.59Zm-10.38-17.59h9.33l.4,17.59h-8.36Zm.72,17.59h-7.81c-.75-4.75-1.71-10.92-2.76-17.59h9.21ZM528.11,431l-1.58-20.25h10.7L537.7,431Zm10.23,0-.46-20.25h11L548.21,431Zm-.58-25.11-.43-18.74h12.34l-.62,18.74Zm-.64,0h-11l-1.46-18.74h12Zm-11.61,0h-11.6l-1.15-7.24c-1.21-7.58-1.67-10.43-1.92-11.5h13.21Zm.38,4.86L527.46,431h-9.59c-.33-2.06-.65-4.14-1-6.22-.75-4.78-1.5-9.55-2.21-14ZM517.21,431H511l-3.4-20.25H514C515,417,516.11,424,517.21,431Zm.77,4.85c.95,6.09,1.89,12.09,2.75,17.59h-6l-3-17.59Zm30.13,17.59.59-17.59h6.41l-1.5,17.59Zm1.58-47.55.63-18.74h8.95l-1.6,18.74Zm-39.46-18.74c.25,1.35,1.44,8.73,3,18.74h-6.52l-3.15-18.74Zm49,66.29h-5l1.51-17.59h5.58Zm5.58-47.55h-6.53l1.6-18.74h7.13Z" style="fill:#e0e0e0"></path><rect x="680.67" y="41.65" width="6.53" height="140.42" style="fill:#e0e0e0"></rect><rect x="585.93" y="42.73" width="93.75" height="139.53" rx="0.09" style="fill:#f5f5f5"></rect><path d="M680.67,183.35H584.94a.09.09,0,0,1-.09-.1V41.74a.09.09,0,0,1,.09-.09h95.73a.1.1,0,0,1,.1.09V183.25A.1.1,0,0,1,680.67,183.35Zm-93.56-2.17H678.5a.1.1,0,0,0,.09-.1V43.91a.09.09,0,0,0-.09-.09H587.11a.09.09,0,0,0-.09.09V181.08A.1.1,0,0,0,587.11,181.18Z" style="fill:#ebebeb"></path><rect x="595.37" y="51.34" width="75.03" height="122.22" rx="0.09" style="fill:#fff"></rect><rect x="611.74" y="85.99" width="42.13" height="49.38" rx="0.06" style="fill:#ebebeb"></rect><path d="M650.54,129.33c.05.15-2,1.07-6,.6a14.5,14.5,0,0,1-6.72-2.69,13.63,13.63,0,0,1-5.22-8.21,11.82,11.82,0,0,1,4-11.24,10.5,10.5,0,0,1,3-1.77,8.12,8.12,0,0,1,3.79-.44,6.73,6.73,0,0,1,3.79,1.66,5,5,0,0,1,1.5,4.41,7.23,7.23,0,0,1-2.09,3.79,13.52,13.52,0,0,1-3.17,2.34,17.43,17.43,0,0,1-7.57,2.16,15.07,15.07,0,0,1-8.07-1.83,14.77,14.77,0,0,1-5.94-6.16,12.58,12.58,0,0,1-1.06-8.62,12.79,12.79,0,0,1,4.54-7.1,11.15,11.15,0,0,1,3.81-1.93,9.56,9.56,0,0,1,4.29-.13,7,7,0,0,1,3.89,2.2,6.45,6.45,0,0,1,1.53,4.16,7.94,7.94,0,0,1-1,4,10.85,10.85,0,0,1-2.4,2.89,16.31,16.31,0,0,1-6,3.17,15.32,15.32,0,0,1-6.28.48,12.82,12.82,0,0,1-5.46-2.09,11.82,11.82,0,0,1-5.22-8.27,10,10,0,0,1,1.93-7.09A8.49,8.49,0,0,1,618,90.73c1-.38,1.54-.36,1.57-.27s-.45.35-1.25.88a9.5,9.5,0,0,0-2.78,3,8.91,8.91,0,0,0-1.14,6.06,10,10,0,0,0,4.64,6.5,11.45,11.45,0,0,0,9.58.91,13.54,13.54,0,0,0,4.79-2.71,5.91,5.91,0,0,0,2.23-4.49,3.23,3.23,0,0,0-2.88-3.19,6.27,6.27,0,0,0-2.75.13,8.11,8.11,0,0,0-2.6,1.36,9.51,9.51,0,0,0-3.28,5.23,9.14,9.14,0,0,0,.8,6.26,11.33,11.33,0,0,0,4.54,4.71,11.77,11.77,0,0,0,6.23,1.45,14.22,14.22,0,0,0,6.14-1.68,10.57,10.57,0,0,0,2.45-1.72,4.16,4.16,0,0,0,1.24-2,1.78,1.78,0,0,0-.5-1.62,3.7,3.7,0,0,0-2-.9,5.17,5.17,0,0,0-2.39.21,7.35,7.35,0,0,0-2.23,1.22,9.25,9.25,0,0,0-3.39,8.59,11.84,11.84,0,0,0,4,7.11,14.19,14.19,0,0,0,5.77,2.88C648.37,129.44,650.51,129,650.54,129.33Z" style="fill:#e0e0e0"></path></g><g id="freepik--Floor--inject-150"><path d="M693.64,463.21c0,.15-142.67.26-318.62.26s-318.66-.11-318.66-.26S199,463,375,463,693.64,463.07,693.64,463.21Z" style="fill:#263238"></path></g><g id="freepik--Plant--inject-150"><path d="M87.94,425.41s-5.45-37.49-5-59.31,0-46.36,0-46.36h2.51s-1.7,43.31.15,69.42,6.73,36.25,6.73,36.25H87.94" style="fill:#263238"></path><path d="M104.19,277.56a6.71,6.71,0,0,0-2.29-3.36c-1.59-1-3.68-.59-5.46,0-7.6,2.69-14.33,16.85-17.4,24.29l10.08,34C107.32,315.62,110.47,293.47,104.19,277.56Z" style="fill:#455a64"></path><path d="M101.31,275.58a2.36,2.36,0,0,1-.15.44c-.12.33-.29.74-.49,1.24-.44,1.07-1.06,2.62-1.8,4.55-1.49,3.86-3.38,9.25-5.07,15.33S91,308.81,90.24,312.88c-.36,2-.63,3.69-.8,4.83-.09.54-.16,1-.21,1.32a1.55,1.55,0,0,1-.11.45,3.17,3.17,0,0,1,0-.46l.14-1.33c.12-1.15.35-2.81.67-4.85A146.11,146.11,0,0,1,93.4,297a148.43,148.43,0,0,1,5.19-15.33c.78-1.91,1.44-3.45,1.93-4.5.23-.5.42-.89.57-1.21A1.73,1.73,0,0,1,101.31,275.58Z" style="fill:#263238"></path><path d="M84.64,340.65c-9.45-5.23-15-15-15.54-25.83-.36-7.54,2-14.94,4.58-22a2.83,2.83,0,0,1,1.07-1.6,2.7,2.7,0,0,1,2.57.4c6.87,3.91,11,11.37,13.24,18.95a38.15,38.15,0,0,1,1.56,15.58,25.87,25.87,0,0,1-7.48,14.51" style="fill:#455a64"></path><path d="M84.64,340.65a2.77,2.77,0,0,1,0-.46c0-.34,0-.78,0-1.3,0-1.14,0-2.77-.14-4.79a129.2,129.2,0,0,0-1.76-15.69c-1-6.09-2.32-11.54-3.25-15.47-.46-1.93-.84-3.51-1.12-4.67L78,297a2.92,2.92,0,0,1-.08-.45,1.52,1.52,0,0,1,.16.43l.37,1.25c.31,1.09.74,2.67,1.24,4.63,1,3.93,2.33,9.37,3.38,15.48a112.92,112.92,0,0,1,1.64,15.75c.06,2,.06,3.66,0,4.8,0,.53,0,1,0,1.3A1.7,1.7,0,0,1,84.64,340.65Z" style="fill:#263238"></path><g style="opacity:0.30000000000000004"><path d="M84.64,340.65c-9.45-5.23-15-15-15.54-25.83-.36-7.54,2-14.94,4.58-22a2.83,2.83,0,0,1,1.07-1.6,2.7,2.7,0,0,1,2.57.4c6.87,3.91,11,11.37,13.24,18.95a38.15,38.15,0,0,1,1.56,15.58,25.87,25.87,0,0,1-7.48,14.51"></path></g><path d="M95.3,398c9.3,2,17,8.6,25.93,11.79,5.94,2.11,12.65,2.86,17.39,7-1.14-2.88-3.83-4.79-6.45-6.42a115.74,115.74,0,0,0-23.5-11.22c-4.22-1.46-8.8-2.68-13.11-1.48" style="fill:#455a64"></path><path d="M81.86,406.3c-11.65-.19-23.91-10.1-35.51-10.69,12.14-3.92,29.51-.72,35.51,10.69" style="fill:#455a64"></path><path d="M86.41,378.36c5.91-2.13,12.41-2.23,18.62-1.27a112.8,112.8,0,0,1,18.17,5c-.59-4.05-3.87-7.08-6.94-9.77a47.69,47.69,0,0,0-7.3-5.61,16.24,16.24,0,0,0-8.75-2.47,13.77,13.77,0,0,0-9.66,4.87,16,16,0,0,0-4.14,9.3" style="fill:#455a64"></path><path d="M62.5,365.5c-7.33-6.26-18.43-5.64-28.07-5.43A229.22,229.22,0,0,1,78,387.2C78.36,380.39,71.77,373.41,62.5,365.5Z" style="fill:#455a64"></path><g style="opacity:0.30000000000000004"><path d="M62.5,365.5c-7.33-6.26-18.43-5.64-28.07-5.43A229.22,229.22,0,0,1,78,387.2C78.36,380.39,71.77,373.41,62.5,365.5Z"></path></g><path d="M89.71,356.86A80.54,80.54,0,0,1,101,350.31c3.86-1.75,7.46-4.55,11.19-6.57,4.83-2.61,9-6.25,13.45-9.49s9.31-6.18,14.74-7A29,29,0,0,0,127,328a86.61,86.61,0,0,0-12.63,4.91c-5.71,2.58-11.53,5.22-16.21,9.4s-8.9,8.31-8.4,14.56" style="fill:#455a64"></path><path d="M121,406.3a1.48,1.48,0,0,1-.37-.16l-1-.52c-.87-.47-2.13-1.16-3.72-2-.78-.41-1.65-.85-2.6-1.29s-2-.92-3-1.39a44.87,44.87,0,0,0-7.17-2.5,15.33,15.33,0,0,0-7.47-.18,20.74,20.74,0,0,0-3.17.94,16.22,16.22,0,0,0-5.76,4c-.68.72-1,1.16-1,1.14a1.33,1.33,0,0,1,.21-.34c.15-.22.38-.53.7-.91a15.88,15.88,0,0,1,5.76-4.18,21.59,21.59,0,0,1,3.21-1,15.55,15.55,0,0,1,7.65.16,42.44,42.44,0,0,1,7.23,2.55c1.08.48,2.09.95,3,1.43s1.8.91,2.58,1.34c1.57.83,2.81,1.56,3.66,2.07l1,.6A1.66,1.66,0,0,1,121,406.3Z" style="fill:#263238"></path><path d="M73.17,400.53a2.56,2.56,0,0,1,.73.21,17.86,17.86,0,0,1,1.9.83,23,23,0,0,1,9.73,9.35,16.38,16.38,0,0,1,.9,1.86,2.48,2.48,0,0,1,.24.72c-.07,0-.5-1-1.4-2.44a25.74,25.74,0,0,0-9.61-9.23C74.15,401,73.14,400.6,73.17,400.53Z" style="fill:#263238"></path><path d="M47.4,364.92a2.18,2.18,0,0,1,.5.14l1.39.5,2.21.81c.86.32,1.79.8,2.85,1.26a67.35,67.35,0,0,1,15.16,9.66,74.26,74.26,0,0,1,7.07,7,79.66,79.66,0,0,1,5,6.36c1.33,1.89,2.34,3.45,3,4.54l.79,1.25a2.82,2.82,0,0,1,.26.45,2.5,2.5,0,0,1-.32-.4c-.21-.27-.5-.68-.87-1.21-.73-1.06-1.77-2.6-3.13-4.46s-3.06-4-5.07-6.27a77.36,77.36,0,0,0-7.05-6.9,70.58,70.58,0,0,0-15-9.71c-1-.48-2-1-2.81-1.31l-2.17-.88-1.37-.57A3,3,0,0,1,47.4,364.92Z" style="fill:#263238"></path><path d="M103.88,371.82a5.2,5.2,0,0,1-.93-.12l-1.07-.2c-.41-.08-.9-.08-1.43-.14a14.46,14.46,0,0,0-11.64,4.28,15.82,15.82,0,0,0-2.34,2.9,24.21,24.21,0,0,0-1.6,3,3.06,3.06,0,0,1,.23-.9,13.32,13.32,0,0,1,1.12-2.31,15.16,15.16,0,0,1,2.32-3,14.16,14.16,0,0,1,11.94-4.3c.54.07,1,.1,1.44.2l1.07.27A3.58,3.58,0,0,1,103.88,371.82Z" style="fill:#263238"></path><path d="M115.59,335.5a2.35,2.35,0,0,1-.44.27l-1.3.71c-1.13.61-2.76,1.51-4.73,2.67s-4.29,2.63-6.75,4.39a56.38,56.38,0,0,0-7.53,6.31,19.4,19.4,0,0,0-3.08,4c-.77,1.47-1.5,2.88-2.17,4.24a78.18,78.18,0,0,0-3.23,7.37,47.21,47.21,0,0,0-1.58,5.18c-.29,1.25-.4,1.95-.44,1.95a2,2,0,0,1,0-.52c.05-.33.12-.83.25-1.46a37.49,37.49,0,0,1,1.45-5.25,71.23,71.23,0,0,1,3.17-7.44c.66-1.37,1.39-2.79,2.14-4.26a19.69,19.69,0,0,1,3.15-4.09,54.74,54.74,0,0,1,7.61-6.33c2.49-1.76,4.83-3.18,6.82-4.33s3.65-2,4.8-2.56l1.34-.64A3,3,0,0,1,115.59,335.5Z" style="fill:#263238"></path><path d="M82.93,370.77a4.68,4.68,0,0,1-.23-1c-.14-.71-.31-1.61-.51-2.69a75.65,75.65,0,0,0-2.2-8.74A76.44,76.44,0,0,0,76.66,350l-1.13-2.5a5.27,5.27,0,0,1-.38-.93,3.94,3.94,0,0,1,.52.86c.31.57.74,1.4,1.26,2.44a61.74,61.74,0,0,1,3.45,8.38,60.23,60.23,0,0,1,2.1,8.81c.18,1.15.31,2.08.38,2.72A4.75,4.75,0,0,1,82.93,370.77Z" style="fill:#263238"></path><path d="M82.09,344.27a31.63,31.63,0,0,0-3.79-12.58,41.54,41.54,0,0,0-28.13-21l26,38.83,3.37,6.92C81.87,352.7,82.38,348.67,82.09,344.27Z" style="fill:#455a64"></path><rect x="58.88" y="420.78" width="60.57" height="10.73" style="fill:#EBFF05"></rect><polygon points="63.41 429.38 68.56 462.69 108.77 462.69 114.93 429.38 63.41 429.38" style="fill:#EBFF05"></polygon><path d="M119.42,431.52c0,.12-13.66.22-30.51.22s-30.52-.1-30.52-.22,13.66-.21,30.52-.21S119.42,431.41,119.42,431.52Z" style="fill:#263238"></path></g><g id="freepik--character-3--inject-150"><polygon points="557.14 211.25 561.43 219.75 571.38 219.43 572.53 218.42 567.32 211.97 557.14 211.25" style="fill:#ffbf9d"></polygon><path d="M636.91,451.69v1.13s-19.12,7.9-19.29,11.54l38.12-.56L655,451.13A21.8,21.8,0,0,1,636.91,451.69Z" style="fill:#263238"></path><path d="M655.74,463.8l-.17-3.05-36.47,1.66s-1.69.76-1.48,1.95Z" style="fill:#455a64"></path><path d="M636.78,452.93c0,.19.94.26,1.87.84s1.42,1.36,1.59,1.29-.12-1.15-1.25-1.84S636.74,452.76,636.78,452.93Z" style="fill:#fff"></path><path d="M632.81,454.64c0,.19.77.49,1.41,1.27s.84,1.61,1,1.6.29-1.07-.53-2S632.81,454.47,632.81,454.64Z" style="fill:#fff"></path><path d="M630.61,459.46c.17,0,.41-.89-.08-1.91s-1.37-1.4-1.44-1.24.47.69.86,1.53S630.42,459.45,630.61,459.46Z" style="fill:#fff"></path><path d="M664.16,440.2l-16.23,4.54,4.06,9.2-4.21,23.29a2.64,2.64,0,0,0,1.83,3,2.68,2.68,0,0,0,2.73-.78c3.59-4,16.69-18.86,16.38-20.67L668.2,454a37.26,37.26,0,0,0-1.08-3.61Z" style="fill:#263238"></path><path d="M650.09,480.34l18.47-23.23.1,1.06a2.93,2.93,0,0,1-.75,2.43c-1.45,2.34-5.57,7.65-15.49,18.86a2.65,2.65,0,0,1-2.33.88Z" style="fill:#455a64"></path><path d="M655,468.88a7.79,7.79,0,0,0-2.42-1.74,8.52,8.52,0,0,0-3-.28c0-.05.28-.28.87-.42a4.26,4.26,0,0,1,2.34.19,4.09,4.09,0,0,1,1.87,1.37C655,468.49,655,468.86,655,468.88Z" style="fill:#fff"></path><path d="M653.44,472.4a21.69,21.69,0,0,0-2.37-.87,20.63,20.63,0,0,0-2.54-.08,3,3,0,0,1,2.65-.46C652.73,471.28,653.57,472.32,653.44,472.4Z" style="fill:#fff"></path><path d="M658,464.28a27.18,27.18,0,0,0-3.57-1.58,25.44,25.44,0,0,0-3.89-.51,6,6,0,0,1,4.05,0A5.89,5.89,0,0,1,658,464.28Z" style="fill:#fff"></path><path d="M651.8,450.77a16.8,16.8,0,0,1,.19,3.14h0v0c-.21,1.35-.49,3.07-.82,4.94-.38,2.22-.76,4.22-1.06,5.66a11.24,11.24,0,0,1-.58,2.32,11.21,11.21,0,0,1,.24-2.37c.22-1.46.54-3.47.93-5.69.33-1.87.65-3.59.91-4.93v0A16.8,16.8,0,0,1,651.8,450.77Z" style="fill:#455a64"></path><path d="M674.89,300.85c1.28-6.18,4.52-17.33,3.24-22.47-3-11.91-8.14-18.8-15.24-33.92h-5.26L607,243.58l-4.14,9.17c-4.59,12.37-7.73,19.76-9,28.81-1.49,10.42,1.12,25.52,6.91,40.77,12.5,32.9,19.49,59.22,20,66.31s1.23,14.42,7.8,36.87c4.8,16.38,8.35,26.18,8.35,26.18,5,2.81,10.27,3.57,15.08.84l14.68-5.67s-4.5-38.65-9.75-48.9c-3.78-7.38-10-10.89-7.08-20.51S671,319.79,674.89,300.85Z" style="fill:#263238"></path><path d="M615.69,269.64l.2.25.56.78c.49.71,1.21,1.73,2.14,3.05l8,11.53,0,0v0c-.39,4.32-.53,9.34-.8,14.92S625.27,312,625,318.6s-.72,13.66-1.1,21-.82,15.12-1.56,23.07c-.77,6.62-1.45,13.11-.89,19.36a46.47,46.47,0,0,0,.63,4.61,30.55,30.55,0,0,0,1.09,4.41c1,2.8,2.27,5.52,3.42,8.16,4.67,10.56,9,20,12.68,27.94s6.61,14.34,8.67,18.79c1,2.21,1.8,3.93,2.35,5.11.25.58.45,1,.6,1.34s.18.46.18.46l-.23-.44-.64-1.31c-.57-1.18-1.39-2.89-2.43-5.08l-8.81-18.72c-3.68-7.92-8.09-17.35-12.78-27.91-1.16-2.65-2.38-5.34-3.45-8.2a30.44,30.44,0,0,1-1.12-4.47,46.87,46.87,0,0,1-.64-4.65c-.57-6.3.11-12.84.88-19.45.74-7.92,1.12-15.66,1.57-23.05s.78-14.44,1.14-21,.65-12.75.94-18.33.46-10.61.88-14.93l0,.1-7.91-11.62-2.08-3.08c-.22-.35-.4-.61-.52-.8A1.51,1.51,0,0,1,615.69,269.64Z" style="fill:#455a64"></path><path d="M622.43,161.59l3.1-7.85,18.51-1,7.56,1,.84,2.17,5.13,90.79s-17.93,3.62-26.9,2.36-19.5-5.35-19.5-5.35V192.08Z" style="fill:#f5f5f5"></path><path d="M650.29,165.28s0,.06-.13.16l-.4.45c-.36.39-.89,1-1.58,1.64a64.89,64.89,0,0,1-6.06,5.3l-.09.07-.07-.08a69.5,69.5,0,0,1-5.56-6.95c-.19-.28-.37-.55-.55-.8h.22c-1.58,2.14-3.08,4.16-4.45,6a2.8,2.8,0,0,1-.61.63,1.2,1.2,0,0,1-.86.23,1.37,1.37,0,0,1-.75-.42,7.05,7.05,0,0,1-.51-.6l-1.75-2.2-2.52-3.18c-.28-.36-.51-.65-.67-.87a2.12,2.12,0,0,1-.23-.32,2.33,2.33,0,0,1,.27.28c.18.22.41.5.71.84l2.58,3.14,1.79,2.17c.31.39.64.85,1.11.93s.92-.34,1.25-.78l4.42-6,.12-.15.11.16.54.79a70.73,70.73,0,0,0,5.52,6.94H642a73.13,73.13,0,0,0,6.11-5.21c.71-.68,1.25-1.22,1.63-1.59l.42-.43Z" style="fill:#263238"></path><g style="opacity:0.30000000000000004"><path d="M629.14,171s2.35,2.9,3,2.17,4.13-6.11,4.55-6.33,4.62,7.32,6.27,6.79,7.53-6.4,7.53-6.4l.11-2.32-8.56,7.8L636,165l-5.11,6.66S629.76,172.5,629.14,171Z"></path></g><path d="M633.07,249.61a6.15,6.15,0,0,1,0-.85c0-.61,0-1.42.07-2.44.09-2.17.22-5.22.37-9,.32-7.57.74-18,1.14-29.57s.7-22,.9-29.58c.11-3.75.2-6.8.26-9,0-1,.07-1.83.09-2.44A5.3,5.3,0,0,1,636,166a6.38,6.38,0,0,1,0,.86c0,.6,0,1.41,0,2.43,0,2.17,0,5.22-.09,9-.11,7.58-.35,18-.75,29.6s-.88,22-1.29,29.56c-.22,3.75-.4,6.79-.53,9q-.12,1.53-.18,2.43A4.09,4.09,0,0,1,633.07,249.61Z" style="fill:#263238"></path><g style="opacity:0.30000000000000004"><path d="M616.77,213q-4.86,31.9-9.73,63.82l.76,6.91c.85,1,2.55.65,3.42-.31a6.92,6.92,0,0,0,1.34-3.59C616.26,257.73,618.26,235.29,616.77,213Z"></path></g><path d="M603.08,161.82a11.61,11.61,0,0,0-7.53,7.69L584,210.35l9.5,28,8.8-12.78,8.5-65.51Z" style="fill:#EBFF05"></path><path d="M603.07,230.58h0c0,.72.07,1.12.07,1.12l-19,42.43c4.23,7.56,15.7,11.1,23.78,13,0,0,8.18-58,8.71-70.78s8.74-62.48,8.74-62.48l-8.94,5.31-11,2.15" style="fill:#EBFF05"></path><path d="M586.49,269.36a.7.7,0,0,1,.07-.19l.23-.56c.22-.5.53-1.22.92-2.14l3.47-7.94L603,231.65l0,.06c-.08-2.89-.19-5.89-.34-9-.31-6.91-.7-13.5-.95-19.5s-.4-11.39-.45-15.93,0-8.21,0-10.75c0-1.26.05-2.24.06-2.92,0-.32,0-.57,0-.76s0-.26,0-.26,0,.09,0,.26v.76c0,.68,0,1.67,0,2.92,0,2.54,0,6.21.07,10.75s.24,9.93.51,15.92.63,12.58,1,19.5c.14,3.07.25,6.07.33,9v.06L591.34,258.6l-3.54,7.91-1,2.12c-.11.23-.2.41-.26.55Z" style="fill:#263238"></path><path d="M616.07,210a.63.63,0,0,1,0-.13l-.1-.41c-.09-.38-.21-.91-.37-1.57-.28-1.38-.69-3.37-1.06-5.85s-.74-5.44-1-8.75-.52-6.94-.7-10.76c-.07-1.43-.13-2.83-.19-4.2,0-.68-.06-1.36-.09-2,0-.34,0-.67,0-1v-.74s0-.09,0-.13a.44.44,0,0,1,0-.1l0,0a.13.13,0,0,1,.14,0c.1.05.07.06.1.08l-.19,0,2.94-2.05,0,.21-3.2-1.49-.08,0,0-.09c.48-1.82,1.06-3.43,1.56-4.86s1-2.65,1.37-3.66.71-1.8.93-2.33l.26-.61a.71.71,0,0,1,.1-.2,1,1,0,0,1-.07.21l-.22.62-.88,2.35c-.37,1-.82,2.26-1.31,3.68s-1.06,3.05-1.52,4.85l-.06-.13,3.2,1.48.19.09-.17.12-2.93,2.07-.19-.05s.09-.06.09-.06,0,0,0,0l0,0h0v.37l0,.48,0,1,.09,2c.06,1.37.13,2.77.19,4.2.18,3.81.4,7.45.68,10.75s.62,6.26,1,8.74.73,4.48,1,5.85c.13.68.24,1.21.31,1.59,0,.17.06.3.08.41S616.08,210,616.07,210Z" style="fill:#263238"></path><path d="M671.28,237l7-70.65-19.67-7.21s-4.61-4.24-7.07-6.44l-.86,11.09S648,209.18,652.2,232s3.59,22.07,6.66,36.92c2.23,10.81,2.59,20.26,5.95,21.21s20.37-5.26,20.37-5.26Z" style="fill:#EBFF05"></path><path d="M678.27,166.39s6,2.92,6.85,11.25c.79,7.33,2.08,52.3,1.92,55.93s-3.29,13.88-8.91,14.24c-8.86.56-11.31-6.28-11.31-6.28l2.39-23Z" style="fill:#EBFF05"></path><path d="M655.71,207.62a.64.64,0,0,1,0-.14c0-.1,0-.23.07-.39q.11-.56.3-1.5c.23-1.31.59-3.19.93-5.55.7-4.69,1.3-11.23,1.64-18.46.08-1.71.16-3.38.24-5,0-.8.07-1.6.1-2.37l.07-1.16c0-.18,0-.37,0-.56v-.27a.53.53,0,0,0,0-.13.2.2,0,0,0,0,0v0l0,0a.08.08,0,0,0,.08,0s.08,0,.07,0h0l-.18,0-2.93-2.06-.17-.12.19-.08,3.2-1.48-.06.12a39,39,0,0,1-.65-3.9c-.15-1.15-.29-2.14-.45-3a17.58,17.58,0,0,0-.46-1.83l-.15-.47c0-.11-.05-.16,0-.16a.64.64,0,0,1,.07.15c0,.1.11.25.18.46a13.34,13.34,0,0,1,.51,1.83c.18.81.34,1.8.51,2.95a39.06,39.06,0,0,0,.69,3.87l0,.09-.08,0-3.19,1.5v-.2l2.94,2-.18,0,0,0a.22.22,0,0,1,.1,0,.14.14,0,0,1,.1,0s0,0,0,0a.06.06,0,0,1,0,0,.22.22,0,0,1,0,.1.76.76,0,0,1,0,.15v.29c0,.19,0,.38,0,.57,0,.38,0,.76-.05,1.15,0,.78-.07,1.57-.11,2.37-.07,1.62-.15,3.28-.23,5a176.45,176.45,0,0,1-1.72,18.48c-.36,2.35-.75,4.24-1,5.54-.15.63-.26,1.13-.35,1.49l-.1.39C655.73,207.57,655.72,207.62,655.71,207.62Z" style="fill:#263238"></path><g style="opacity:0.30000000000000004"><path d="M626.78,244.58s-1.34,1.75,1.61,2.28,36.42-1.93,36.42-1.93l6.36,3.69-.83-2.67-5.3-5.66Z"></path></g><path d="M667,188.92l-42.14,2.15A1.93,1.93,0,0,0,623,192.9l-2.8,50a1.94,1.94,0,0,0,2,2l40.88-2.13A2,2,0,0,0,665,241l4-50A2,2,0,0,0,667,188.92Z" style="fill:#263238"></path><path d="M675.84,178a3.59,3.59,0,0,1-.07.45c-.06.31-.14.74-.25,1.27-.22,1.14-.53,2.73-.92,4.69-.77,4-1.77,9.44-2.74,15.52s-1.69,11.61-2.18,15.61c-.24,2-.43,3.6-.57,4.74-.06.55-.12,1-.16,1.29a2,2,0,0,1-.07.45,3,3,0,0,1,0-.45c0-.32.06-.75.11-1.3.1-1.12.26-2.75.48-4.75.44-4,1.14-9.55,2.1-15.63s2-11.56,2.82-15.52c.41-2,.76-3.57,1-4.67l.3-1.26A2.88,2.88,0,0,1,675.84,178Z" style="fill:#263238"></path><path d="M667.86,221.65s2.42.14,4.57,3.73l4.11,2.62s3.59,5.64,0,10.91-7.94.8-7.94.8-4.33,2.15-5.55,1.77a86,86,0,0,1-10.64-5.81c-.35-.3-3-3.34-3-3.34s-3.67-.79-4.09-1.63-.45-2.77,2-2.58c0,0-2.4-.72-2.68-1.94s0-2.79,4.27-2.19,12.43,2.88,13.38,2.65a.59.59,0,0,0-.1-1.07c-.3-.14-9.93-3.89-11.48-4.31s-1.91-4.18,1.54-3.3,14.7,3.6,14.7,3.6Z" style="fill:#ffbf9d"></path><path d="M661.51,235.94a15.21,15.21,0,0,1-1.78-.54c-1.1-.36-2.61-.84-4.29-1.33s-3.22-.9-4.33-1.19a12.86,12.86,0,0,1-1.8-.5,1.57,1.57,0,0,1,.5.06c.32.05.78.14,1.34.26,1.13.24,2.68.61,4.37,1.1s3.19,1,4.27,1.42c.54.2,1,.37,1.27.5S661.52,235.92,661.51,235.94Z" style="fill:#ff9a6c"></path><path d="M662.89,231.47a2.31,2.31,0,0,1-.63,0c-.4,0-1-.12-1.7-.23-1.44-.21-3.41-.55-5.58-1s-4.11-1-5.5-1.35c-.7-.2-1.26-.36-1.65-.49a2.2,2.2,0,0,1-.59-.22,3.16,3.16,0,0,1,.62.12l1.67.4c1.4.35,3.35.81,5.51,1.28s4.13.83,5.55,1.09l1.69.32A3,3,0,0,1,662.89,231.47Z" style="fill:#ff9a6c"></path><path d="M674.57,230.51a1.43,1.43,0,0,1,0,.45,7.87,7.87,0,0,1-.16,1.19,10.5,10.5,0,0,1-1.53,3.66,10.69,10.69,0,0,1-2.75,2.84,7.49,7.49,0,0,1-1,.62c-.25.12-.4.18-.41.16s.54-.33,1.33-.93a11.56,11.56,0,0,0,4.21-6.4C674.48,231.13,674.52,230.51,674.57,230.51Z" style="fill:#ff9a6c"></path><path d="M675.93,240.29s.53-.58,1.17-1.65a9.83,9.83,0,0,0,1.35-4.6,9.68,9.68,0,0,0-1.06-4.67c-.57-1.11-1.1-1.69-1.06-1.72a2,2,0,0,1,.38.39,8.24,8.24,0,0,1,.85,1.24,9.14,9.14,0,0,1-.3,9.46,7.86,7.86,0,0,1-.92,1.18A1.71,1.71,0,0,1,675.93,240.29Z" style="fill:#263238"></path><path d="M685.42,222.35c0,.05-.68-.46-1.87-1a13.45,13.45,0,0,0-2.16-.82,14.3,14.3,0,0,0-2.79-.5,14.57,14.57,0,0,0-2.83.08,14,14,0,0,0-2.26.49c-1.26.4-2,.8-2,.75a2.56,2.56,0,0,1,.49-.3,5.81,5.81,0,0,1,.61-.3c.25-.1.52-.23.84-.33a12.58,12.58,0,0,1,2.29-.56,14.23,14.23,0,0,1,2.88-.1,13.92,13.92,0,0,1,2.84.53,11.87,11.87,0,0,1,2.17.89,8.89,8.89,0,0,1,.79.45,5.26,5.26,0,0,1,.56.39A2.68,2.68,0,0,1,685.42,222.35Z" style="fill:#263238"></path><g style="opacity:0.30000000000000004"><path d="M657.88,160.08s3.56,8.29,3.06,9-2.36,1.18-2.36,1.18,3.06,1.32,3,2.5c0,2.33-3.28,16.18-3.28,16.18l.81-16.91L656.23,170l3.19-1.48Z"></path></g><path d="M585.1,202.45l-6.69,17.29-7.19-8.07-9.62,6.78,11.3,18.11c3.55,4.56,6.94,7.65,10.8,7.16a11.25,11.25,0,0,0,2.28-.55c5.3-1.81,8.95-5.36,10.33-10.79l6.1-23.77Z" style="fill:#EBFF05"></path><path d="M586.84,233.38a3.49,3.49,0,0,1-.15-.71c-.08-.47-.22-1.13-.41-1.95s-.45-1.79-.79-2.84-.77-2.2-1.28-3.38-1.08-2.26-1.62-3.22-1.09-1.81-1.57-2.5-.87-1.25-1.16-1.62a5.42,5.42,0,0,1-.42-.6,6.26,6.26,0,0,1,.49.55,19.93,19.93,0,0,1,1.22,1.58c.49.68,1,1.53,1.61,2.49a36.12,36.12,0,0,1,1.64,3.24,33.9,33.9,0,0,1,1.28,3.4c.33,1.06.58,2,.75,2.87s.28,1.5.34,2A5.53,5.53,0,0,1,586.84,233.38Z" style="fill:#263238"></path><path d="M583.56,185.76s23.2,26.3,27.87,31.14a54.86,54.86,0,0,0,7,5.47l-7.32.6Z" style="fill:#e0e0e0"></path><polygon points="581.2 182.33 542.13 178.88 541.06 182.96 577.07 224.94 612.25 227 615.47 224.11 581.2 182.33" style="fill:#e0e0e0"></polygon><path d="M540.76,182.92a3.8,3.8,0,0,0,.74.13l2.14.28,8,.94,26.94,3-.17-.09,4.48,5.36L603.34,217c2.62,3.07,4.75,5.58,6.25,7.35.73.83,1.3,1.5,1.72,2l.46.51c.11.11.16.17.17.16a.89.89,0,0,0-.13-.19l-.42-.54c-.4-.51-.95-1.19-1.64-2l-6.12-7.46-20.37-24.49-4.48-5.37-.07-.08h-.1l-27-2.84-8-.79-2.15-.18A6,6,0,0,0,540.76,182.92Z" style="fill:#263238"></path><path d="M542,179.87a3.89,3.89,0,0,0,.75.12l2.18.23,8.08.8,27.37,2.52-.18-.09,4.68,5.78c8,9.85,15.53,18.57,21,24.82,2.76,3.12,5,5.62,6.58,7.34l1.82,2,.48.5c.11.11.17.17.18.16s0-.07-.14-.19-.26-.33-.44-.54l-1.75-2-6.45-7.46c-5.43-6.3-12.88-15.06-20.9-24.9l-4.69-5.78-.07-.08h-.1L553,180.68l-8.1-.64-2.18-.15A5.44,5.44,0,0,0,542,179.87Z" style="fill:#263238"></path><path d="M613.8,225.29s0-.07-.13-.19l-.42-.54-1.68-2.05-6.25-7.45-20.77-24.45-4.89-5.72-.07-.09h-.1l-26.88-2.49-7.94-.68-2.14-.16a3.75,3.75,0,0,0-.74,0,5.79,5.79,0,0,0,.73.11l2.13.25,7.93.84,26.86,2.66-.17-.09,4.88,5.73L605,215.3l6.38,7.34c.74.84,1.32,1.5,1.76,2,.18.21.34.37.46.51A1.11,1.11,0,0,0,613.8,225.29Z" style="fill:#263238"></path><path d="M565.58,197.11a1.8,1.8,0,0,0-1.89-1.87c-.58,0-1.33.07-2.25.16-2.39.24-9.46,3.71-9.65,5.12a3,3,0,0,0,.76,2.85s-1.38,1.83-.87,3.35c.44,1.29,2.51,1.74,2.51,1.74s-1.53,1.79.06,3.07c.55.44,1.66,1.29,1.91,1.57a4.82,4.82,0,0,0,.44,1.11,4.19,4.19,0,0,0,3,1.74l.4,0a3.06,3.06,0,0,0,2.14-.62c2.76-2.11,10.58-8.23,10.73-9.93,0,0,1.49-1.16.9-2.38s-2.8-.68-2.8-.68a1.84,1.84,0,0,0,.56-2.1c-.52-1.27-4.46-1.16-6.25-.93-1.43.19-5.41.84-5.41.84s5.3-1.82,5.61-2.72A1.35,1.35,0,0,0,565.58,197.11Z" style="fill:#ffbf9d"></path><path d="M572.9,205.44a3.06,3.06,0,0,1-.53.32c-.35.2-.86.47-1.51.79-1.29.64-3.1,1.44-5.15,2.23s-3.92,1.42-5.29,1.86l-1.62.49a5.24,5.24,0,0,1-.61.16,3,3,0,0,1,.59-.23l1.6-.56c1.35-.46,3.22-1.12,5.26-1.9s3.86-1.57,5.16-2.17l1.53-.73A4.26,4.26,0,0,1,572.9,205.44Z" style="fill:#ff9a6c"></path><path d="M571.24,202.33a4.1,4.1,0,0,1-.58.13c-.37.07-.91.17-1.58.32-1.33.29-3.14.79-5.12,1.42-1,.31-1.94.58-2.79.88s-1.6.6-2.22.87-1.13.5-1.47.67a4.26,4.26,0,0,1-.54.24.63.63,0,0,1,.13-.09l.37-.22c.34-.19.83-.44,1.45-.73s1.37-.6,2.22-.91,1.8-.59,2.79-.9a49.22,49.22,0,0,1,5.15-1.37c.67-.13,1.22-.21,1.6-.26A5,5,0,0,1,571.24,202.33Z" style="fill:#ff9a6c"></path><path d="M559.9,200.19a4.5,4.5,0,0,1-.85.45c-.54.25-1.3.57-2.14.92s-1.58.68-2.12.93a7.57,7.57,0,0,1-.88.39,4,4,0,0,1,.82-.52c.52-.28,1.27-.64,2.11-1l2.15-.86A5.2,5.2,0,0,1,559.9,200.19Z" style="fill:#ff9a6c"></path><path d="M570.41,208.54a2.91,2.91,0,0,1-.36.42c-.25.25-.62.61-1.09,1-.94.87-2.31,2-3.78,3.23-.37.31-.71.63-1.08.92a12,12,0,0,1-1.08.77,7.78,7.78,0,0,1-2.06.9,4.31,4.31,0,0,1-1.51.13,2.67,2.67,0,0,1-.41,0l-.14,0a4.52,4.52,0,0,1,.55,0,5,5,0,0,0,1.47-.2,7.16,7.16,0,0,0,2-.92A11.63,11.63,0,0,0,564,214c.36-.28.7-.6,1.07-.92,1.48-1.26,2.86-2.35,3.82-3.18l1.12-1A2.91,2.91,0,0,1,570.41,208.54Z" style="fill:#ff9a6c"></path><path d="M614.43,109.4s-4.84,18.1-5.26,30.91l-.14,4.27s10.68,8.87,19.65,9.41l7.51-18.46Z" style="fill:#263238"></path><path d="M661.88,120.5c-2-8.83-2.82-19.11-10.17-24.86-5.44-4.27-11.65-5.47-18.57-5.18-3.41.15-7.25,1.72-10.22,3.4-4.07,2.3-5.79,7-7.75,11.21-3.94,8.5-3.44,20-.77,23.21L649.91,147c7.09-3.7,11.54-5.17,12.67-14.62A34.4,34.4,0,0,0,661.88,120.5Z" style="fill:#263238"></path><path d="M651.34,102.65,629,96.06c-7.2-1-12.35,7.66-13.1,14.9-.82,8-1.51,17.89-.79,24,1.44,12.17,10.65,14.07,10.65,14.07s-.06,4.89-.06,4.89l10.18,10.81,15.56-10.39L655,107.12A4.26,4.26,0,0,0,651.34,102.65Z" style="fill:#ffbf9d"></path><path d="M618,123.46a1.56,1.56,0,0,0,1.44,1.63,1.48,1.48,0,0,0,1.65-1.34,1.55,1.55,0,0,0-1.43-1.62A1.49,1.49,0,0,0,618,123.46Z" style="fill:#263238"></path><path d="M617.36,118.25c.19.21,1.4-.61,3.07-.54s2.85,1,3,.76-.09-.46-.6-.87a4.26,4.26,0,0,0-2.43-.86,4.15,4.15,0,0,0-2.45.69C617.46,117.8,617.27,118.16,617.36,118.25Z" style="fill:#263238"></path><path d="M632.32,123.46a1.56,1.56,0,0,0,1.43,1.63,1.5,1.5,0,0,0,1.66-1.34,1.56,1.56,0,0,0-1.44-1.62A1.48,1.48,0,0,0,632.32,123.46Z" style="fill:#263238"></path><path d="M633.78,118.45c.19.21,1.4-.61,3.07-.54s2.86,1,3,.75-.08-.46-.6-.87a4.34,4.34,0,0,0-2.43-.85,4.08,4.08,0,0,0-2.45.68C633.88,118,633.69,118.36,633.78,118.45Z" style="fill:#263238"></path><path d="M627.28,129.27a11.51,11.51,0,0,0-2.69-.59c-.43-.06-.83-.16-.89-.46A2.22,2.22,0,0,1,624,127l1.39-3.2c1.93-4.55,3.35-8.3,3.16-8.37s-1.9,3.55-3.83,8.1l-1.34,3.22a2.41,2.41,0,0,0-.28,1.66,1.05,1.05,0,0,0,.67.65,2.62,2.62,0,0,0,.72.13A10.39,10.39,0,0,0,627.28,129.27Z" style="fill:#263238"></path><path d="M625.69,149a30.75,30.75,0,0,0,16.37-3.68s-4.34,8.3-16.4,6.7Z" style="fill:#ff9a6c"></path><path d="M632.69,133a2.41,2.41,0,0,0-2-1.17,3.12,3.12,0,0,0-2.93,1.31,1.9,1.9,0,0,0-.18,1.4c.09.25,0,.13.2.3A5.54,5.54,0,0,0,630,136.3a2.35,2.35,0,0,0,2.53-.82A2.38,2.38,0,0,0,632.69,133Z" style="fill:#ff9a6c"></path><path d="M632.45,130.69c-.27,0-.36,1.79-2,3s-3.53.93-3.55,1.19.41.37,1.23.43a4.57,4.57,0,0,0,3-.89,3.94,3.94,0,0,0,1.53-2.52C632.75,131.15,632.57,130.69,632.45,130.69Z" style="fill:#263238"></path><path d="M633.15,112.34c.12.47,1.8.42,3.73.84s3.45,1.11,3.75.73c.14-.18-.1-.63-.69-1.13a6.62,6.62,0,0,0-5.7-1.2C633.5,111.8,633.1,112.12,633.15,112.34Z" style="fill:#263238"></path><path d="M617.5,113.76c.38.33,1.6-.24,3.12-.48s2.87-.16,3.11-.6c.1-.21-.16-.55-.78-.83a4.78,4.78,0,0,0-2.63-.24,4.68,4.68,0,0,0-2.38,1.11C617.45,113.19,617.33,113.6,617.5,113.76Z" style="fill:#263238"></path><path d="M628.91,94.75l-.06.27,0,0C628.9,94.94,628.9,94.85,628.91,94.75Z" style="fill:#263238"></path><path d="M646.57,153.3a2,2,0,0,1-2.54-1.6,24.89,24.89,0,0,1-.06-7.36c.39-3.36,2.67-6.88,2.95-10.25.55-6.43,0-10-.74-15.43a12.81,12.81,0,0,1-7.87-4.54c-2.42-2.83-3.89-6.33-5.32-9.78a16.4,16.4,0,0,0,3.29,9.41,4.42,4.42,0,0,1-3.77-1.23,9.78,9.78,0,0,1-2.21-3.43,26.91,26.91,0,0,1-2.14-9.68,34.71,34.71,0,0,0,1.58,14.13,6,6,0,0,0-2.63.1,2.87,2.87,0,0,1-2.5-.53,3.15,3.15,0,0,1-.69-1.62,36.1,36.1,0,0,1-.4-12.31,38,38,0,0,0-2.78,6.82,13.34,13.34,0,0,0,0,7.28,1.06,1.06,0,0,1-1.5,0,2.63,2.63,0,0,1-.66-1.52,18.63,18.63,0,0,1,.4-6.13c-1.21,2.14-1.61,4.63-2.28,7s-1.73,4.8-3.79,6.15a32.27,32.27,0,0,1,.3-9.29,28.34,28.34,0,0,1,2.72-7.37,21.71,21.71,0,0,1,4.91-6.82c3.56-3.12,5.05-1.78,7.33-.59l.27.11s0-.11,0-.17l.11-.48a34.21,34.21,0,0,1,18,.84c4.29,1.4,4.68,10.64,5.73,6.25.63-2.66,4.08-.23,4.12-.16,5.06,9.13,10.42,23.61,10.67,46.49h0Z" style="fill:#263238"></path></g><g id="freepik--character-2--inject-150"><rect x="378.66" y="371.27" width="11.46" height="61.28" transform="translate(768.79 803.82) rotate(180)" style="fill:#e0e0e0"></rect><path d="M425.38,361.4c-.19,0-35.26,11-35.26,11H378.66l-40.2-11Z" style="fill:#e0e0e0"></path><path d="M433.05,454.29s-5.3-16.19-12.61-20.1c-11.74-6.29-38.81-9.3-38.81-9.3l-3,7.66s36.1,1.42,41.78,8.7a152.18,152.18,0,0,1,9.06,13Z" style="fill:#e0e0e0"></path><path d="M420.9,456.14a7.67,7.67,0,1,0,7.67-7.66A7.66,7.66,0,0,0,420.9,456.14Z" style="fill:#263238"></path><path d="M335.21,454s5.3-16.18,12.61-20.09c11.74-6.29,38.81-9.31,38.81-9.31l3,7.66s-36.1,1.42-41.78,8.71a148.53,148.53,0,0,0-9.06,13Z" style="fill:#e0e0e0"></path><path d="M345.57,456a7.67,7.67,0,1,1-7.66-7.67A7.67,7.67,0,0,1,345.57,456Z" style="fill:#263238"></path><polyline points="388.34 429 386.66 449.82 381.93 450.76 381.93 429" style="fill:#e0e0e0"></polyline><path d="M392.06,456.14a7.67,7.67,0,1,1-7.67-7.66A7.66,7.66,0,0,1,392.06,456.14Z" style="fill:#263238"></path><path d="M378.93,372.65a62.23,62.23,0,0,0,10.92,0,62.23,62.23,0,0,0-10.92,0Z" style="fill:#263238"></path><path d="M378.71,426.19a11.77,11.77,0,0,0,11,.29,24.28,24.28,0,0,1-5.54.75A25,25,0,0,1,378.71,426.19Z" style="fill:#263238"></path><path d="M327.82,194.63h78.85a11.51,11.51,0,0,1,11.51,11.51V326.4a23,23,0,0,1-23,23H339.33a23,23,0,0,1-23-23V206.14a11.51,11.51,0,0,1,11.51-11.51Z" transform="translate(734.49 544.05) rotate(180)" style="fill:#455a64"></path><path d="M430.45,361.4H323.64a7.33,7.33,0,0,1-7.33-7.33h0a7.33,7.33,0,0,1,7.33-7.34H430.45a7.33,7.33,0,0,1,7.33,7.34h0A7.33,7.33,0,0,1,430.45,361.4Z" style="fill:#455a64"></path><path d="M420.66,347.14c0-.14-22.41-.26-50.06-.26s-50.06.12-50.06.26,22.41.27,50.06.27S420.66,347.29,420.66,347.14Z" style="fill:#263238"></path><path d="M415.44,429l-8.91,20.07S423.32,465,422,468.85l-38.36-16L396.31,421Z" style="fill:#455a64"></path><path d="M395.36,442.44a1.73,1.73,0,0,0-1.83,1.4,1.65,1.65,0,0,0,1.32,1.85,1.81,1.81,0,0,0,1.92-1.48c.05-.85-.74-1.87-1.57-1.78" style="fill:#e0e0e0"></path><path d="M383.67,452.83l1.39-3.16,36.26,16.54s1.4,1.48.71,2.64Z" style="fill:#263238"></path><path d="M407.23,449.17c-.08.19-1.05-.11-2.22.12s-2,.84-2.13.7.58-1.15,2-1.41S407.35,449,407.23,449.17Z" style="fill:#fff"></path><path d="M410.57,452.56c0,.21-1,.2-1.94.75s-1.5,1.34-1.68,1.25.13-1.23,1.35-1.89S410.64,452.38,410.57,452.56Z" style="fill:#fff"></path><path d="M410.85,458.48c-.18,0-.06-1.1.85-2s1.95-.91,2-.72-.76.54-1.49,1.25S411.05,458.54,410.85,458.48Z" style="fill:#fff"></path><path d="M408.77,444.37c-.15.14-.9-.48-2-.85s-2-.37-2.08-.58,1-.56,2.32-.11S408.93,444.26,408.77,444.37Z" style="fill:#fff"></path><path d="M378.28,436.88l.19,26.6,6.06,20.94a2.76,2.76,0,0,1-2,3.45h0a2.56,2.56,0,0,1-2.35-.61c-4.06-3.73-18.58-17.76-18.71-19.18-.2-2.24-2.16-28.34-2.16-28.34Z" style="fill:#455a64"></path><path d="M382.56,487.87,361.3,466l0,1.13a4.31,4.31,0,0,0,1,2.62c1.7,1.92,6.51,7.11,17.77,17.54a2.59,2.59,0,0,0,2.43.61Z" style="fill:#263238"></path><g style="opacity:0.6000000000000001"><path d="M366.36,457.19a1.66,1.66,0,0,1,.5,2.13,1.53,1.53,0,0,1-2.06.55,1.76,1.76,0,0,1-.52-2.26,1.58,1.58,0,0,1,2.2-.33" style="fill:#fff"></path></g><path d="M376.3,476.49c.15.07.7-1.35,2.21-2.16a8.19,8.19,0,0,1,3-.7c0-.07-.32-.26-.93-.32a4,4,0,0,0-2.3.51,4.24,4.24,0,0,0-1.7,1.7C376.27,476.08,376.24,476.47,376.3,476.49Z" style="fill:#fff"></path><path d="M378.25,480c.13.11.93-.79,2.26-1.24a23.09,23.09,0,0,1,2.52-.43c.07-.14-1.19-.65-2.7-.12S378.12,479.91,378.25,480Z" style="fill:#fff"></path><path d="M372.74,472.07a25.29,25.29,0,0,1,3.36-2.15,26.65,26.65,0,0,1,3.81-1.07,5.72,5.72,0,0,0-4,.54A6,6,0,0,0,372.74,472.07Z" style="fill:#fff"></path><path d="M372,464c.08.16,1.49-.51,3.35-.66s3.34.26,3.4.09a5.1,5.1,0,0,0-3.44-.67A5.16,5.16,0,0,0,372,464Z" style="fill:#fff"></path><path d="M371.77,456.19a8.23,8.23,0,0,1,6.93,0c0-.06-.25-.38-.86-.71a5.6,5.6,0,0,0-5.2,0C372,455.8,371.73,456.13,371.77,456.19Z" style="fill:#fff"></path><path d="M375.15,453.92a2.45,2.45,0,0,0,0-1,7.15,7.15,0,0,0-.86-2.6,3,3,0,0,0-1.34-1.43,1.06,1.06,0,0,0-1.19.29,1.81,1.81,0,0,0-.38,1.22,3.77,3.77,0,0,0,3.39,3.43,4.38,4.38,0,0,0,4.21-2.51,1.6,1.6,0,0,0,0-1.29,1,1,0,0,0-1.11-.52,3.66,3.66,0,0,0-1.68,1,8.06,8.06,0,0,0-1.71,2.14,2.61,2.61,0,0,0-.37.93,13.05,13.05,0,0,1,2.33-2.75A3.46,3.46,0,0,1,378,450a.53.53,0,0,1,.6.28,1,1,0,0,1-.07.85,3.92,3.92,0,0,1-3.66,2.13,3.26,3.26,0,0,1-2.92-2.87,1.35,1.35,0,0,1,.22-.87.59.59,0,0,1,.66-.17,2.76,2.76,0,0,1,1.15,1.19A10.45,10.45,0,0,1,375.15,453.92Z" style="fill:#fff"></path><path d="M406.51,314.87h0c7,5.25,31.66,28.92,38.81,35.32,5.23,4.7,7.91,13.69,5.07,19.81-11.82,25.41-40.48,75.86-40.48,75.86l-24.7-7.08,29.28-72.64-33-22.25L352.09,304Z" style="fill:#263238"></path><path d="M364.67,310s25.91,41.91,25.39,49.64c-.7,10.41-6.38,102.55-6.38,102.55l-27-.11L351,365.2l-20.31-32.72L330,316,336,299.72Z" style="fill:#263238"></path><path d="M371.53,322.44a3.62,3.62,0,0,0,.16.34l.52,1,2,3.69c1.76,3.21,4.32,7.83,7.42,13.59,1.55,2.88,3.23,6,5,9.47.85,1.71,1.76,3.49,2.53,5.37a7.63,7.63,0,0,1,.47,3c0,1,0,2.11,0,3.18-.29,8.63-1.11,18.11-1.81,28.06-.34,5-.68,9.84-1,14.53s-.53,9.23-.78,13.55c-.49,8.62-.93,16.39-1.29,22.93s-.63,11.78-.83,15.47c-.08,1.8-.15,3.21-.2,4.2,0,.46,0,.82,0,1.1a1.75,1.75,0,0,0,0,.37,1.49,1.49,0,0,0,.05-.37c0-.27,0-.63.09-1.09.07-1,.17-2.4.3-4.2.24-3.68.57-8.95,1-15.46s.88-14.3,1.41-22.92c.26-4.32.53-8.85.81-13.54s.67-9.56,1-14.53c.7-10,1.5-19.43,1.76-28.09,0-1.08,0-2.15,0-3.21,0-.53-.05-1.06-.1-1.59a5,5,0,0,0-.42-1.54c-.79-1.91-1.7-3.68-2.57-5.4-1.75-3.42-3.46-6.57-5-9.44-3.14-5.74-5.75-10.34-7.57-13.51-.91-1.56-1.62-2.78-2.11-3.65l-.57-.93A2.55,2.55,0,0,0,371.53,322.44Z" style="fill:#455a64"></path><path d="M424.93,359.28a44.31,44.31,0,0,0-5.8,3.66,45.72,45.72,0,0,0-5.5,4.1,43.78,43.78,0,0,0,5.8-3.66A44.51,44.51,0,0,0,424.93,359.28Z" style="fill:#455a64"></path><path d="M397,143.53c-4.07-1.38-8.45,2.18-12.64,1.23-2.55-.57-4.42-2.67-6.66-4A13.15,13.15,0,0,0,366,140c-3.53,1.67-5.82,3.49-6.41,7.34-3.11-1.9-8.5,1.93-10.41,5.73s-1.57,7.77-.66,11.92a55.89,55.89,0,0,0,8.7,20c.37.53,1,1.13,1.56.87a1.41,1.41,0,0,0,.64-1.12c.71-3.75.34-7.61.12-11.42s-.26-7.73,1-11.32,4.23-6.81,8-7.44a12.09,12.09,0,0,1,8,2c2.41,1.45,4.52,3.36,6.82,5a15.47,15.47,0,0,0,7.69,3.24c2.82.2,5.87-1,7.14-3.55s0-6.18-2.71-6.84A5.54,5.54,0,0,0,397,143.53Z" style="fill:#263238"></path><path d="M393.11,188.47c0-5.22-.78-16-1.63-25.7a20.16,20.16,0,0,0-20.21-18.39h-1c-11.24.73-15.59,11.12-14.54,22.33l1.17,35.84,20.56,19.66,4.28-11.77.87-9.47S393.05,199.28,393.11,188.47Z" style="fill:#ffbf9d"></path><path d="M382.57,201a25.63,25.63,0,0,1-14.43-3.86s3.41,7.56,14.19,6.52Z" style="fill:#ff9a6c"></path><path d="M386.57,174.05a1.55,1.55,0,0,1-1.48,1.57,1.48,1.48,0,0,1-1.6-1.38,1.53,1.53,0,0,1,1.47-1.57A1.49,1.49,0,0,1,386.57,174.05Z" style="fill:#263238"></path><path d="M389.19,168.07c-.19.21-1.37-.65-3-.64s-2.87.86-3.05.66.1-.46.63-.85a4.21,4.21,0,0,1,2.44-.77,4.1,4.1,0,0,1,2.41.76C389.11,167.62,389.28,168,389.19,168.07Z" style="fill:#263238"></path><path d="M371.36,174.05a1.54,1.54,0,0,1-1.48,1.57,1.48,1.48,0,0,1-1.6-1.38,1.55,1.55,0,0,1,1.48-1.57A1.48,1.48,0,0,1,371.36,174.05Z" style="fill:#263238"></path><path d="M372.86,168.49c-.19.21-1.37-.65-3-.63s-2.87.85-3.05.65.1-.46.63-.85a4.21,4.21,0,0,1,2.45-.77,4.15,4.15,0,0,1,2.41.76C372.78,168,373,168.4,372.86,168.49Z" style="fill:#263238"></path><path d="M373.35,183.2c.27,0,.71,1.34,2.06,2.31s2.82,1,2.84,1.29-.35.31-1,.31a4.26,4.26,0,0,1-2.42-.83,4,4,0,0,1-1.49-2C373.14,183.62,373.22,183.22,373.35,183.2Z" style="fill:#263238"></path><path d="M379,180.77a11.36,11.36,0,0,1,2.7-.5c.42-.05.82-.14.89-.43a2.12,2.12,0,0,0-.29-1.25c-.4-1-.83-2.1-1.28-3.22-1.77-4.59-3.05-8.36-2.87-8.43s1.77,3.59,3.55,8.18c.42,1.13.83,2.21,1.22,3.24a2.48,2.48,0,0,1,.23,1.66,1.07,1.07,0,0,1-.69.63,2.88,2.88,0,0,1-.72.1A10.59,10.59,0,0,1,379,180.77Z" style="fill:#263238"></path><path d="M373,160c-.16.45-1.82.25-3.77.5s-3.52.79-3.78.39c-.12-.2.15-.62.79-1.07a6.32,6.32,0,0,1,2.79-1,6.47,6.47,0,0,1,3,.33C372.68,159.41,373,159.77,373,160Z" style="fill:#263238"></path><path d="M388.55,163.27c-.29.38-1.44,0-2.82,0s-2.54.27-2.81-.13c-.12-.19.06-.57.57-.93a4.09,4.09,0,0,1,4.53.11C388.51,162.7,388.67,163.09,388.55,163.27Z" style="fill:#263238"></path><path d="M356.17,174.23c-.19-.08-8.3-2.08-8,5.31s7.44,5.36,7.65,5.36C357.19,184.94,356.17,174.23,356.17,174.23Z" style="fill:#ffbf9d"></path><path d="M353.44,182.19s-.13.1-.34.21a1.31,1.31,0,0,1-1,0,3.19,3.19,0,0,1-1.59-2.8,4.31,4.31,0,0,1,.29-1.86,1.5,1.5,0,0,1,.93-1,.66.66,0,0,1,.78.32c.1.21.06.35.1.37s.15-.13.08-.44a.82.82,0,0,0-.31-.45.94.94,0,0,0-.71-.16,1.8,1.8,0,0,0-1.3,1.2,4.26,4.26,0,0,0-.37,2.08c.1,1.48.92,2.85,2,3.11a1.35,1.35,0,0,0,1.17-.24C353.43,182.37,353.46,182.2,353.44,182.19Z" style="fill:#ff9a6c"></path><path d="M391.54,152.69a14.13,14.13,0,0,0-4.58-5.2,24.06,24.06,0,0,0-14-4.9,19.56,19.56,0,0,0-13.71,5.29,20.65,20.65,0,0,0-5.62,10.48,36.5,36.5,0,0,0-.49,13.17c.32,1.74,1.31,2.36,2.54,3.63.76.79,2.08,1.31,2.95.63a2.93,2.93,0,0,0,.84-1.71c1.39-5.71,2.75-11.86.62-17.34a17.08,17.08,0,0,1,5.06-4.71,8.76,8.76,0,0,1,6.71-1c3.3,1,5.35,4.18,8,6.39a15.62,15.62,0,0,0,13.89,3Z" style="fill:#263238"></path><path d="M348,162.37c0-.08.79,0,2-.08a13.43,13.43,0,0,0,4.68-1.25,13.57,13.57,0,0,0,3.93-2.84c.86-.91,1.29-1.57,1.35-1.53a5,5,0,0,1-1.1,1.75,12,12,0,0,1-8.85,4.2A5.19,5.19,0,0,1,348,162.37Z" style="fill:#e0e0e0"></path><path d="M348.08,166c0-.08.84-.16,2.16-.5a16.4,16.4,0,0,0,8.76-5.65c.85-1.07,1.27-1.81,1.34-1.77a6.87,6.87,0,0,1-1.08,2,14.44,14.44,0,0,1-3.92,3.73,14.67,14.67,0,0,1-5,2.05A6.81,6.81,0,0,1,348.08,166Z" style="fill:#e0e0e0"></path><path d="M397.33,156.74a2.43,2.43,0,0,1-.41,1.24,5.94,5.94,0,0,1-2.2,2.27,6,6,0,0,1-3.05.83,2.4,2.4,0,0,1-1.28-.24,8.07,8.07,0,0,1,1.27-.09,6.63,6.63,0,0,0,5-2.94C397.07,157.17,397.26,156.72,397.33,156.74Z" style="fill:#e0e0e0"></path><path d="M398.2,158.26a2.47,2.47,0,0,1-.42,1.19,6.86,6.86,0,0,1-4.83,3.42,2.46,2.46,0,0,1-1.25,0,11.75,11.75,0,0,0,3.78-1.55A11.5,11.5,0,0,0,398.2,158.26Z" style="fill:#e0e0e0"></path><path d="M307,288.92s-10.24-8.44-6.59-17.7c3-7.53,14.52-25.73,14.52-26.49s11.45-24.83,16-26.55,6.11,24.25,6.11,24.25l-1.71,13.3L325,272l10.06,4.9-4.42,17.76C331,294.86,313.74,290.94,307,288.92Z" style="fill:#EBFF05"></path><path d="M475.81,199.33a33.4,33.4,0,0,1-3,6c-1.36,1.78-2.79,2.15-3.58,5.26s-1.79,6.41-1.79,6.41-6.31,5.18-6,5.28,6.09,9.87,6.09,9.87L478.21,222l13.77-8.6,5.53-10.25-.48-.82.56-2s-1.15-2.26-2.91-.49c0,0,.17-2.74-2.61-.79s-7.76,7-8.17,7.06-5.51,2.27-5.51,2.27l-2.52-.17a6.68,6.68,0,0,0,2.31-3.37c.46-2,1.71-3.29.54-4.83A2.37,2.37,0,0,0,475.81,199.33Z" style="fill:#ffbf9d"></path><path d="M475.45,215.1a7.35,7.35,0,0,0,.8-.39,12.2,12.2,0,0,1,2.29-.75,34.76,34.76,0,0,1,8.12-.67h.08l.06,0,1.5-1.09.74-.55.06,0,0-.07,1-3.45a2.21,2.21,0,0,1,.76-1.25,1.35,1.35,0,0,1,1.26-.12l-.1-.17c.14,3.48.43,5.75.57,5.73s0-.57-.08-1.57-.09-2.43-.12-4.17v-.12l-.1,0a1.75,1.75,0,0,0-1.64.13,2.58,2.58,0,0,0-.94,1.47c-.33,1.08-.67,2.23-1,3.42l.08-.11-.74.54-1.49,1.1.14,0a31.6,31.6,0,0,0-8.22.83,10.85,10.85,0,0,0-2.29.9A2.92,2.92,0,0,0,475.45,215.1Z" style="fill:#ff9a6c"></path><path d="M486.44,208.1a38.38,38.38,0,0,0,4.19-4,39.12,39.12,0,0,0,3.88-4.35,73.91,73.91,0,0,0-8.07,8.4Z" style="fill:#ff9a6c"></path><path d="M492.89,206.44c.06,0,.25-.28.53-.79a11.25,11.25,0,0,1,1.21-1.85,4.37,4.37,0,0,1,1.73-1.27c.51-.21.88-.22.88-.29s-.38-.16-1,0a3.9,3.9,0,0,0-2,1.28,7.21,7.21,0,0,0-1.16,2C492.92,206.07,492.83,206.42,492.89,206.44Z" style="fill:#ff9a6c"></path><path d="M483,207.34a12.09,12.09,0,0,1,2.71,1.53,11.85,11.85,0,0,1,1.91,2.46c.06,0,0-.39-.22-.94a5.42,5.42,0,0,0-3.44-3C483.39,207.27,483,207.29,483,207.34Z" style="fill:#ff9a6c"></path><path d="M356.55,200.46l12.93,10.23L376,221.78,378.6,211l3.58-7.7,3.24,3.62L393.05,226l4.47,89s-17.44,5.54-26.36,5.62-22.92-3.2-22.92-3.2l2.83-47.32-2.25-47.15,7.15-17.6Z" style="fill:#f5f5f5"></path><path d="M353.64,206.7l-3.17,3.85-19,7.22c-4.52,4.77-7.41,9.87-8.54,15.31l12.14,15.67,4.23,34.15L322.85,338s20.55,5.86,22.1,4.15c.65-.72,3.57-6.82,5.17-11.17,3.64-9.88,4.83-17.85,6.37-26.95a161.18,161.18,0,0,0,2.16-28.2c-.37-15-1.71-34.13-2.68-44.09-.63-6.45.26-28.54.26-28.54Z" style="fill:#EBFF05"></path><path d="M398.79,314.82s8.74.9,12,3.5,8.08,7.31,8.08,7.31l-9.7-36.85.85-50.15-.13-24.88-17.64-3.05-6.79-3.82,3.83,9.36,4.32,61.13s4.95,31.85,5.22,37.45" style="fill:#EBFF05"></path><path d="M409.52,213.65l33.39,22.51h0l23.48-20.44,12.74,11.13L450.55,255.9c-3.61,3.09-10.83,2.49-14.46,1l-28-12.13L405.85,236Z" style="fill:#EBFF05"></path><path d="M375.75,221.39a5.66,5.66,0,0,1-.64-.65l-1.67-1.88-5.65-6.51h.26a7.38,7.38,0,0,0-1.75,3.21,7.15,7.15,0,0,0-.26,1.92v.42l-.31-.28c-2.9-2.65-5.22-5.22-7-7-.87-.89-1.57-1.59-2.06-2.07a6.92,6.92,0,0,1-.74-.77,5.43,5.43,0,0,1,.83.67c.52.45,1.25,1.13,2.14,2,1.79,1.72,4.15,4.26,7,6.88l-.3.13a8,8,0,0,1,.27-2,7.78,7.78,0,0,1,1.85-3.36l.14-.14.13.14,5.55,6.6c.65.79,1.19,1.44,1.6,1.95A4.3,4.3,0,0,1,375.75,221.39Z" style="fill:#263238"></path><path d="M384.6,208.42a2.08,2.08,0,0,1,0,.57c0,.37-.08.9-.17,1.57a32.85,32.85,0,0,1-1.21,5.38l-.14.44-.19-.43a13.23,13.23,0,0,0-2.14-3.35c-.25-.29-.51-.56-.76-.81l.3-.08a51.55,51.55,0,0,1-2.6,7.06c-.4.86-.75,1.54-1,2a3.85,3.85,0,0,1-.42.7,4.16,4.16,0,0,1,.3-.76l.89-2.05a64.64,64.64,0,0,0,2.48-7.06l.08-.3.22.22c.27.25.53.53.79.82a13.3,13.3,0,0,1,2.18,3.46l-.32,0a40.22,40.22,0,0,0,1.33-5.3C384.46,209.2,384.56,208.42,384.6,208.42Z" style="fill:#263238"></path><path d="M443.59,246.36a40.89,40.89,0,0,0,.23-5.34,42.68,42.68,0,0,0-1-5.26,11,11,0,0,1,1.47,5.22A10.76,10.76,0,0,1,443.59,246.36Z" style="fill:#263238"></path><path d="M409.68,227.05a3.29,3.29,0,0,1,0,.58c0,.44,0,1,0,1.67,0,1.53,0,3.61,0,6.15,0,5.26-.06,12.4-.09,20.29s-.18,15-.25,20.28c-.05,2.54-.1,4.63-.13,6.15,0,.68-.05,1.23-.06,1.67a2.23,2.23,0,0,1-.06.58,2.65,2.65,0,0,1-.05-.58l0-1.68c0-1.52,0-3.6,0-6.14,0-5.26.05-12.4.09-20.29s.18-15,.24-20.28c.06-2.54.1-4.62.14-6.15,0-.68,0-1.23.06-1.67A2.23,2.23,0,0,1,409.68,227.05Z" style="fill:#263238"></path><path d="M379,298.85a6.81,6.81,0,0,1,0-.79l.12-2.24c.13-1.94.27-4.75.41-8.22.29-7,.42-16.57,0-27.17s-1.46-20.17-2.37-27.06c-.45-3.45-.84-6.24-1.14-8.16-.13-.93-.24-1.66-.32-2.22a4.55,4.55,0,0,1-.07-.78,5.62,5.62,0,0,1,.18.76c.1.55.24,1.29.41,2.21.36,1.91.81,4.69,1.31,8.14,1,6.89,2,16.47,2.52,27.09s.28,20.25-.1,27.2c-.19,3.48-.39,6.29-.58,8.23-.09.93-.16,1.67-.22,2.23A3.82,3.82,0,0,1,379,298.85Z" style="fill:#263238"></path><path d="M332.23,230c.15,0,1.29,8.06,2.56,18s2.18,18.09,2,18.11-1.29-8.06-2.56-18S332.09,230,332.23,230Z" style="fill:#263238"></path><path d="M356.71,249.9a8.47,8.47,0,0,1-.66-1.42c-.39-.92-.94-2.27-1.59-3.95a95.69,95.69,0,0,1-4.23-13.42,47.22,47.22,0,0,1-1.13-14,31.29,31.29,0,0,1,.63-4.22c.1-.5.22-.87.29-1.13a1.49,1.49,0,0,1,.13-.38,10.45,10.45,0,0,1-.22,1.54,40.28,40.28,0,0,0-.46,4.22A50.56,50.56,0,0,0,350.74,231a112.28,112.28,0,0,0,4.06,13.41c.59,1.63,1.07,3,1.44,4A10.33,10.33,0,0,1,356.71,249.9Z" style="fill:#263238"></path><path d="M392.48,253.93a13.07,13.07,0,0,1,.22-1.71c.19-1.18.45-2.74.76-4.63a114.21,114.21,0,0,0,1.64-15.37,51.26,51.26,0,0,0-1.78-15.28,41.15,41.15,0,0,0-1.54-4.41,11.74,11.74,0,0,1-.64-1.6,2,2,0,0,1,.24.37c.13.26.35.64.58,1.14a32.63,32.63,0,0,1,1.71,4.4,48.19,48.19,0,0,1,1.95,15.39,97.25,97.25,0,0,1-1.8,15.42c-.36,1.95-.68,3.52-.92,4.61A9.34,9.34,0,0,1,392.48,253.93Z" style="fill:#263238"></path><path d="M309.84,279.1a1.87,1.87,0,0,1,.2-.71,9.11,9.11,0,0,1,.91-1.79,12,12,0,0,1,11.42-5.52,9.56,9.56,0,0,1,2,.4,2,2,0,0,1,.68.29c0,.09-1-.23-2.68-.32a12.92,12.92,0,0,0-6.24,1.22,13.09,13.09,0,0,0-4.85,4.13C310.29,278.15,309.93,279.13,309.84,279.1Z" style="fill:#263238"></path><path d="M340.28,276.22s5.88.12,8.49,1.1,3.45,1.48,3.52,2.46a9.22,9.22,0,0,1-.34,3c-.15.11.33,3.44.13,4a2.74,2.74,0,0,1-.55.9l-2.87-1.62-2.37-4.77-6-3.22Z" style="fill:#ffbf9d"></path><polygon points="330.08 264.11 354.52 290.5 355.95 294.5 352.49 292.56 327.55 266.53 330.08 264.11" style="fill:#263238"></polygon><path d="M351.26,284.27a2.72,2.72,0,0,0-1.47-1.88c-2.19-1.12-9.49-4.88-9.74-5.29s-3.86-3.81-6-4.07a6.81,6.81,0,0,0-3.77,1.21,5.24,5.24,0,0,0-2.5,3.42,3.22,3.22,0,0,0-.05,1.19s-2.53,1.44-1.39,5.11l.36,1s-.72,1.62.66,4.45c0,0,1.39,4.57,3.32,5.24s10.11.42,11.61,0a3.09,3.09,0,0,0,2-1.45s2.35,0,3.37-1.22c0,0,3.46,1.94,4.32-.28s-2.82-4.52-2.82-4.52a2.37,2.37,0,0,0,2.11-1.8A2.94,2.94,0,0,0,351.26,284.27Z" style="fill:#ffbf9d"></path><path d="M349.13,287.21a14,14,0,0,1-2.7-.9c-1.65-.64-3.89-1.59-6.33-2.71s-4.62-2.2-6.19-3a14.93,14.93,0,0,1-2.49-1.41,16.31,16.31,0,0,1,2.65,1.07l6.25,2.87,6.25,2.84A16.94,16.94,0,0,1,349.13,287.21Z" style="fill:#ff9a6c"></path><path d="M331.34,285.77a11.66,11.66,0,0,1,2.43.73c1.48.51,3.52,1.25,5.75,2.1s4.25,1.65,5.7,2.25a11.77,11.77,0,0,1,2.3,1.07,12.24,12.24,0,0,1-2.44-.73c-1.48-.51-3.51-1.25-5.74-2.1s-4.25-1.65-5.69-2.25A12.09,12.09,0,0,1,331.34,285.77Z" style="fill:#ff9a6c"></path><path d="M344.44,293.56a27.69,27.69,0,0,1-12.32-2.62c.05-.15,2.72.8,6.12,1.51S344.45,293.41,344.44,293.56Z" style="fill:#ff9a6c"></path><path d="M350.54,286.69s.15-.18.33-.52a2.25,2.25,0,0,0,.2-1.56,3.25,3.25,0,0,0-1.27-1.95,14.21,14.21,0,0,0-2.64-1.51c-2-1-3.74-1.89-5-2.57a10.45,10.45,0,0,1-2-1.21,11,11,0,0,1,2.18.88c1.31.59,3.11,1.45,5.08,2.43a13.37,13.37,0,0,1,2.72,1.61,3.58,3.58,0,0,1,1.33,2.26,2.37,2.37,0,0,1-.4,1.73C350.78,286.62,350.55,286.71,350.54,286.69Z" style="fill:#ff9a6c"></path><path d="M327.55,322.44l2.18-7.46H416l1.75,6.64S346.56,324.14,327.55,322.44Z" style="opacity:0.30000000000000004"></path></g><g id="freepik--character-1--inject-150"><path d="M264.92,194.11l.61,9.54s.88,55.79-.49,61.92c-1.45,6.45-14.58,5.84-14.52,5.78l-18.26-33L240.4,128l5.73,1.62,20.36,7.26Z" style="fill:#EBFF05"></path><path d="M239.13,429.11l-1.23,22.4s22.36,8.77,22.54,12.93l-43.52-.82.48-35Z" style="fill:#263238"></path><path d="M224.48,449.37a1.78,1.78,0,0,0-1.26,2,1.7,1.7,0,0,0,2,1.27,1.87,1.87,0,0,0,1.33-2.13,1.78,1.78,0,0,0-2.2-1.1" style="fill:#e0e0e0"></path><path d="M216.92,463.62l.19-3.52,41.65,2.1s1.92.88,1.68,2.24Z" style="fill:#455a64"></path><path d="M238.61,451.3c0,.21-1.07.29-2.13.95s-1.63,1.55-1.83,1.46.15-1.31,1.45-2.09S238.66,451.11,238.61,451.3Z" style="fill:#fff"></path><path d="M243.14,453.28c.05.2-.88.55-1.62,1.43s-1,1.83-1.18,1.82-.32-1.22.62-2.3S243.14,453.07,243.14,453.28Z" style="fill:#fff"></path><path d="M245.63,458.79c-.19,0-.47-1,.1-2.18s1.57-1.6,1.66-1.42-.54.79-1,1.74S245.84,458.77,245.63,458.79Z" style="fill:#fff"></path><path d="M238.33,446.17c-.1.19-1.06-.12-2.27-.06s-2.14.42-2.25.23.81-.92,2.22-1S238.43,446,238.33,446.17Z" style="fill:#fff"></path><path d="M186.45,426.9l-2.36,27,4.3,21.92a2.78,2.78,0,0,1-2.38,3.3h0a2.79,2.79,0,0,1-2.39-.87c-3.88-4.23-18.07-19.86-17.79-21.83.33-2.28.6-28.68.6-28.68Z" style="fill:#263238"></path><path d="M186,479.16,166,454.63l-.07,1.15a4.17,4.17,0,0,0,.81,2.77c1.59,2.13,6.11,7.92,16.85,19.73a2.77,2.77,0,0,0,2.47.88Z" style="fill:#455a64"></path><g style="opacity:0.6000000000000001"><path d="M172.07,446.25a1.68,1.68,0,0,1,.32,2.22,1.62,1.62,0,0,1-2.2.34,1.79,1.79,0,0,1-.33-2.36,1.69,1.69,0,0,1,2.33-.09" style="fill:#fff"></path></g><path d="M180.58,466.93a8.39,8.39,0,0,1,2.51-2,8.27,8.27,0,0,1,3.16-.39c0-.07-.3-.3-.93-.43a4.43,4.43,0,0,0-2.46.27,4.25,4.25,0,0,0-1.92,1.55C180.58,466.5,180.52,466.9,180.58,466.93Z" style="fill:#fff"></path><path d="M182.28,470.68a20.67,20.67,0,0,1,2.47-1,19.74,19.74,0,0,1,2.67-.17c.09-.14-1.18-.8-2.8-.41S182.14,470.6,182.28,470.68Z" style="fill:#fff"></path><path d="M177.29,462.05c.12.14,1.53-1.14,3.71-1.82s4.06-.5,4.08-.68a6.23,6.23,0,0,0-4.26.11C178.49,460.4,177.16,462,177.29,462.05Z" style="fill:#fff"></path><path d="M177.32,453.77c.06.17,1.6-.36,3.55-.31s3.46.62,3.53.46a6.92,6.92,0,0,0-7.08-.15Z" style="fill:#fff"></path><path d="M177.81,445.82a13.29,13.29,0,0,1,3.69-.42,13.41,13.41,0,0,1,3.53,1.13c.05,0-.23-.41-.83-.81a6,6,0,0,0-5.42-.54C178.11,445.46,177.77,445.75,177.81,445.82Z" style="fill:#fff"></path><path d="M181.54,443.88a2.29,2.29,0,0,0,.11-1,7.3,7.3,0,0,0-.64-2.74,3.21,3.21,0,0,0-1.26-1.59,1.12,1.12,0,0,0-1.27.17,1.78,1.78,0,0,0-.51,1.19,3.94,3.94,0,0,0,3.2,3.85,4.58,4.58,0,0,0,4.63-2.09,1.56,1.56,0,0,0,.15-1.31,1.09,1.09,0,0,0-1.1-.65,4,4,0,0,0-1.85.81,7.78,7.78,0,0,0-2,2,2.31,2.31,0,0,0-.48.91,12.39,12.39,0,0,1,2.7-2.55,3.73,3.73,0,0,1,1.62-.67.59.59,0,0,1,.61.35,1.08,1.08,0,0,1-.16.86,4.08,4.08,0,0,1-4,1.77,3.42,3.42,0,0,1-2.76-3.23,1.23,1.23,0,0,1,.32-.85.6.6,0,0,1,.7-.1,2.82,2.82,0,0,1,1.09,1.33A10.39,10.39,0,0,1,181.54,443.88Z" style="fill:#fff"></path><path d="M255.48,235.84s4.59,16.07,3.39,31.64C258.41,273.5,242,442,242,442H214.56l7.72-156.61-2.25.49s-15,66.79-16.2,77.61c-1.1,9.72-13.74,80.34-13.74,80.34l-25.09.28,8-93.4,9.32-89.63L185.85,235Z" style="fill:#263238"></path><path d="M218,269.4a5.47,5.47,0,0,0,1.14.64,13,13,0,0,0,3.4,1.19,7.13,7.13,0,0,0,2.53,0,5.16,5.16,0,0,0,2.64-1.27,6.28,6.28,0,0,0,1.61-2.8c.32-1.07.51-2.18.73-3.3.88-4.52,1.47-8.65,1.82-11.65.17-1.49.28-2.71.35-3.55a5.47,5.47,0,0,0,0-1.31,5.56,5.56,0,0,0-.26,1.29c-.14,1-.32,2.13-.53,3.52-.45,3-1.11,7.08-2,11.59-.44,2.22-.74,4.49-2.13,5.82a5.72,5.72,0,0,1-4.74,1.24,16,16,0,0,1-3.38-1A6,6,0,0,0,218,269.4Z" style="fill:#263238"></path><path d="M226.21,248.16s-.18-.15-.57-.17a2.46,2.46,0,0,0-1.53.49A2.77,2.77,0,0,0,223,250.6a2.72,2.72,0,0,0,4.64,1.74,2.75,2.75,0,0,0,.52-2.36,2.53,2.53,0,0,0-.83-1.38c-.31-.23-.53-.27-.54-.24a3,3,0,0,1,1,1.7,2.38,2.38,0,0,1-.52,1.93,2.22,2.22,0,0,1-3.69-1.39,2.35,2.35,0,0,1,.87-1.79A3.06,3.06,0,0,1,226.21,248.16Z" style="fill:#263238"></path><path d="M182.72,259.45a3.08,3.08,0,0,0,.94.15,17.18,17.18,0,0,0,2.57,0,25,25,0,0,0,15.41-6.49,17.26,17.26,0,0,0,1.77-1.86,3.07,3.07,0,0,0,.55-.77c-.08-.07-1,.94-2.59,2.32a27.66,27.66,0,0,1-15.17,6.39C184.06,259.43,182.73,259.35,182.72,259.45Z" style="fill:#263238"></path><path d="M258.87,210.27c.44-1.28,16.81-26.82,16.81-26.82l-14.13-14.84-2.82-34.1s8.77,2.71,9.5,3.4c3.24,3.12,25.82,37.45,27.44,40.07,2.56,4.12-.46,12.06-2,14.62s-18.08,27.3-18.08,27.3Z" style="fill:#EBFF05"></path><path d="M204.59,241.46s15,5.91,27.61,5.91c26.67,0,23.93-8.83,23.93-8.83l-3.86-56.95-10.15-49.54-2.23-5.33-1.59-.78-26.25-1.42-2.19,7.94Z" style="fill:#ebebeb"></path><path d="M210.7,126.86l-6.33,4L184,139.52l2.52,69.31-17.58,65.93s28.54,11.41,35.22,7,15.31-29.42,17.5-41.47a166.72,166.72,0,0,0-.58-63.78c-4.29-21.66-7.47-35.39-7.47-35.39Z" style="fill:#EBFF05"></path><path d="M229.39,144.27l-8.87,8.36s-5.53-6.8-6.64-10.26" style="fill:#ebebeb"></path><path d="M213.88,142.37c.07,0,.55,1.26,1.75,3.11a84.4,84.4,0,0,0,5.07,7l0,0-.38,0c2.45-2.31,4.69-4.38,6.33-5.86a22.13,22.13,0,0,1,2.72-2.31,25.19,25.19,0,0,1-2.47,2.58c-1.57,1.54-3.77,3.65-6.22,6l-.21.2-.17-.22,0,0a62.58,62.58,0,0,1-5-7.09,18.54,18.54,0,0,1-1.17-2.36A3.21,3.21,0,0,1,213.88,142.37Z" style="fill:#263238"></path><polygon points="232.74 142.37 229.39 144.27 223.95 149.65 227.2 153.54 232.08 153.94 235.84 144.87 232.74 142.37" style="fill:#EBFF05"></polygon><path d="M227.38,153.37s.39,39.36.8,49c.49,11.41.65,42.53.65,42.53l8.48,6.42L243,240.93s-3.28-21.25-3.63-30.22-6.9-56.93-6.9-56.93Z" style="fill:#EBFF05"></path><path d="M229.39,144.27s2.63-1.42,3.35-1.9a28.09,28.09,0,0,1,7.89,7.7c1.61-5.9,3.55-12.92.46-20.9" style="fill:#ebebeb"></path><path d="M241.09,129.17a6.14,6.14,0,0,1,.57,1.31c.16.43.31,1,.51,1.6s.34,1.36.46,2.18a25.81,25.81,0,0,1,.26,5.8,40,40,0,0,1-1.19,7c-.26,1.06-.55,2.09-.82,3.09l-.15.54-.32-.47a28.84,28.84,0,0,0-7.75-7.7h.17l-2.52,1.34a5.92,5.92,0,0,1-.92.43,4,4,0,0,1,.84-.58l2.43-1.45.09-.06.08.06a27.19,27.19,0,0,1,8,7.69l-.46.07c.27-1,.55-2,.81-3.08a41.33,41.33,0,0,0,1.22-6.9,26.85,26.85,0,0,0-.14-5.7A42.84,42.84,0,0,0,241.09,129.17Z" style="fill:#263238"></path><path d="M262.2,212.17a60.1,60.1,0,0,1-7.69,2.36s.19,3.86-.78,5-10.74,10-10.48,11.61c.21,1.29.84,1.52,3.3,0s5.47-5.07,7.08-5-5.21,9.16-5.11,11.89a2.14,2.14,0,0,0,2,2.12s.63,2.31,2.49,1.58,9.93-12.88,9.29-11.31-2,4.81-2.79,6.07-4.49,5.15-2.78,5.87,2.68-.75,4.17-2.32,7-9.83,7.28-9.93a35.23,35.23,0,0,0,6.31-11.08Z" style="fill:#c17560"></path><path d="M258.83,228.86c.11.1-1.84,2.58-4.12,5.72s-4.06,5.74-4.19,5.67a33.13,33.13,0,0,1,3.77-6A33.58,33.58,0,0,1,258.83,228.86Z" style="fill:#6f4439"></path><path d="M202.73,260.25a47.55,47.55,0,0,0-1.16,9.35c-.19,5.27,3.58,4.52,3.58,4.52a9.31,9.31,0,0,0,3.12,5.76c.51.36-.35,7.79,1.16,8.81s3.23,1.13,3.23-1.58.24-8.25,1.16-10.51,2-2,2-2-2.2,16.27-.81,17.28,2.89,1.25,3.58-1.35,1.64-13.33,2.55-15.59.11-2.6,1-2.82,3.23,6.08,7.28,7.27,4-1.74,3.24-3-3.7-4-4-6.21-.23-2.83-1.62-4.86-6.59-8.81-7.28-10.05-2.12-4-2.12-4l-16,5.67Z" style="fill:#c17560"></path><path d="M209.84,272.16c.14,0-.41,2.06-.82,4.6s-.54,4.62-.69,4.62a13.43,13.43,0,0,1,.18-4.71A13,13,0,0,1,209.84,272.16Z" style="fill:#6f4439"></path><path d="M205.42,269.12a6.19,6.19,0,0,1,.15,2.52,6.41,6.41,0,0,1-.38,2.49,6.06,6.06,0,0,1-.14-2.52A6.35,6.35,0,0,1,205.42,269.12Z" style="fill:#6f4439"></path><path d="M184.3,139.42s-10.31,5.71-9.82,19.82c.27,7.92,0,53.57,1.22,56.59s21.05,43.42,21.05,43.42l21.92-7.82-20-42.69-.6-43.68" style="fill:#EBFF05"></path><path d="M198.07,165.06s0,.26,0,.78,0,1.29.06,2.28c0,2,.1,5,.17,8.73.13,7.59.31,18.51.53,31.89l0-.08c5.69,12.1,12.54,26.67,20.05,42.66l.11.25-.26.09-21.91,7.84-.22.08-.1-.21-2.83-5.78L183,231.76l-5-10.41c-.81-1.7-1.63-3.38-2.39-5.08a5.19,5.19,0,0,1-.36-1.38c-.06-.47-.09-.93-.14-1.38-.1-.92-.11-1.83-.17-2.73-.32-7.21-.36-14.06-.43-20.48s-.06-12.38-.09-17.84-.07-10.38-.09-14.72A23.81,23.81,0,0,1,177,147.41a20.14,20.14,0,0,1,4.34-5.74,29.14,29.14,0,0,1,2.45-1.89,4.39,4.39,0,0,1,.51-.36l-.47.4a29.36,29.36,0,0,0-2.41,1.92,20.38,20.38,0,0,0-4.23,5.76,23.66,23.66,0,0,0-2.56,10.25c.06,4.32.14,9.26.17,14.71s.1,11.43.15,17.84.15,13.26.47,20.46c.07.89.08,1.8.18,2.7.05.45.08.91.14,1.35a4.43,4.43,0,0,0,.34,1.27c.74,1.67,1.56,3.36,2.38,5.06l5,10.4c3.45,7.05,7,14.35,10.67,21.82,1,2,1.93,3.95,2.83,5.78l-.33-.13,21.92-7.82-.14.34-19.95-42.7,0,0v0c-.15-13.38-.27-24.29-.35-31.88,0-3.78-.05-6.72-.07-8.74v-2.28C198.05,165.32,198.07,165.06,198.07,165.06Z" style="fill:#263238"></path><path d="M265,145c.14,0,.31,12.17.37,27.18s0,27.2-.15,27.2-.31-12.17-.37-27.19S264.89,145,265,145Z" style="fill:#263238"></path><path d="M275.6,219.9a1.48,1.48,0,0,1-.33-.15l-.94-.49-3.49-1.93-12.09-6.85-.22-.12.13-.22,5.92-9.47,10.94-17.32,0-.06.06,0a13.73,13.73,0,0,1,7.28-.44c.85.16,1.5.34,1.94.46a3.06,3.06,0,0,1,.66.23,2.93,2.93,0,0,1-.69-.12c-.44-.09-1.1-.23-1.95-.36a14,14,0,0,0-7.12.59l.1-.08L265,201c-2.1,3.34-4.11,6.54-5.95,9.45l-.08-.34,12,7,3.42,2.05.9.56C275.51,219.81,275.61,219.89,275.6,219.9Z" style="fill:#263238"></path><path d="M223.5,211.46a4.56,4.56,0,0,1-.28-.78c-.17-.56-.41-1.31-.7-2.26-.6-2-1.45-4.85-2.48-8.34l-8-27.56c-3.14-10.76-5.65-20.64-6.7-27.93-.56-3.63-.85-6.6-1-8.65-.07-1-.08-1.83-.1-2.37a4.65,4.65,0,0,1,0-.82,4.87,4.87,0,0,1,.1.82c0,.54.09,1.33.2,2.35.18,2.05.52,5,1.12,8.62,1.14,7.25,3.7,17.07,6.85,27.83L220.39,200l2.32,8.39c.26.95.46,1.72.61,2.29A5.27,5.27,0,0,1,223.5,211.46Z" style="fill:#263238"></path><path d="M246.13,129.57a3.54,3.54,0,0,1,.22.61l.54,1.8c.46,1.56,1.08,3.84,1.79,6.67A197,197,0,0,1,253,161c.56,4.42.91,8.65,1.1,12.5s.16,7.33,0,10.25c0,1.46-.16,2.77-.24,3.93s-.18,2.15-.28,2.95-.17,1.39-.23,1.87a2.85,2.85,0,0,1-.12.64,3.22,3.22,0,0,1,0-.65c0-.49.08-1.11.14-1.87s.15-1.81.19-3,.15-2.47.16-3.92c.09-2.91,0-6.38-.13-10.22s-.58-8.05-1.14-12.46c-1.15-8.8-2.83-16.67-4.16-22.34-.67-2.83-1.24-5.12-1.64-6.7-.18-.75-.33-1.35-.44-1.82A2.62,2.62,0,0,1,246.13,129.57Z" style="fill:#263238"></path><path d="M192.59,152.81a15.22,15.22,0,0,0-2-4.54,14.89,14.89,0,0,0-3.69-3.31,3,3,0,0,1,1.41.54A8.84,8.84,0,0,1,191,148a8.93,8.93,0,0,1,1.48,3.34A3,3,0,0,1,192.59,152.81Z" style="fill:#263238"></path><path d="M221,63.64A5,5,0,0,1,226.1,61a6.82,6.82,0,0,1,8.41,0,6.08,6.08,0,0,1,9.27,4.78,5.08,5.08,0,0,1,4.61,8.46,4.88,4.88,0,0,1-1.86,9.54L222,69.33A5,5,0,0,1,221,63.64Z" style="fill:#263238"></path><path d="M247.26,84.43a20.72,20.72,0,0,0-21-18.62l-1.07,0c-11.55.92-17.22,11.24-16,22.75l3.16,39.23.19.4,16.64,16,3.59-1.85,5.78-9.62-.2-8.85s11.08-2,11-13.07C249.26,105.46,248.27,94.41,247.26,84.43Z" style="fill:#c17560"></path><path d="M238.3,123.92a26.89,26.89,0,0,1-14.54-4s3.66,8,14.62,6.82Z" style="fill:#7c4236"></path><path d="M243.32,95.92a1.58,1.58,0,0,1-1.5,1.63,1.51,1.51,0,0,1-1.66-1.4,1.59,1.59,0,0,1,1.49-1.63A1.53,1.53,0,0,1,243.32,95.92Z" style="fill:#263238"></path><path d="M245.11,90.48c-.19.21-1.41-.66-3.12-.62s-2.94.92-3.13.72.1-.47.64-.88a4.36,4.36,0,0,1,2.5-.83,4.14,4.14,0,0,1,2.49.75C245,90,245.21,90.38,245.11,90.48Z" style="fill:#263238"></path><path d="M228.4,96.39A1.59,1.59,0,0,1,226.9,98a1.51,1.51,0,0,1-1.66-1.4A1.57,1.57,0,0,1,226.73,95,1.52,1.52,0,0,1,228.4,96.39Z" style="fill:#263238"></path><path d="M228.77,90.57c-.19.21-1.41-.65-3.12-.61s-2.94.92-3.13.71.1-.46.64-.87a4.36,4.36,0,0,1,2.5-.83,4.16,4.16,0,0,1,2.49.75C228.68,90.11,228.87,90.48,228.77,90.57Z" style="fill:#263238"></path><path d="M234.66,103.11a11.69,11.69,0,0,1,2.76-.55c.44-.06.85-.15.92-.45a2.29,2.29,0,0,0-.32-1.29c-.43-1-.89-2.14-1.36-3.29-1.89-4.69-3.26-8.55-3.08-8.63s1.88,3.67,3.77,8.36c.45,1.16.89,2.26,1.3,3.31a2.51,2.51,0,0,1,.26,1.71,1.07,1.07,0,0,1-.7.65,3.14,3.14,0,0,1-.74.12A10.8,10.8,0,0,1,234.66,103.11Z" style="fill:#263238"></path><path d="M228.69,85.7c-.19.44-1.67.08-3.45.14s-3.27.47-3.46,0c-.09-.21.2-.62.82-1a5.39,5.39,0,0,1,2.64-.75,5.06,5.06,0,0,1,2.63.62C228.49,85.09,228.78,85.48,228.69,85.7Z" style="fill:#263238"></path><path d="M244.63,85.8c-.26.42-1.47.14-2.88.26s-2.57.53-2.89.15c-.14-.18,0-.58.49-1a4.18,4.18,0,0,1,4.65-.34C244.54,85.22,244.74,85.6,244.63,85.8Z" style="fill:#263238"></path><path d="M246.08,79.35s-3.07-6.9-6.46-8.45c-4.1-1.88-5.76,2.61-9.65,1.61s-7.82-2.81-11.71.27c-4.26,3.36-2.19,5.62-2.35,10.55-.68,20-4.21,25.74-5.44,16.35-.14-1-3-1.79-3.53-6.14-.67-5.64-1-12.5.15-16.54,1-3.4,2.88-5.77,6.28-8.42,5.37-4.18,12.86-4.42,18-4S246.37,70.63,246.08,79.35Z" style="fill:#263238"></path><path d="M211.17,99.36a3,3,0,0,0-3.32-2.84c-2.06.24-4.35,1.47-4.12,5.75.4,7.59,7.94,5.62,7.94,5.4S211.37,102.54,211.17,99.36Z" style="fill:#c17560"></path><path d="M209.87,104.9s-.13.1-.35.22a1.32,1.32,0,0,1-1,.07,3.27,3.27,0,0,1-1.66-2.86,4.25,4.25,0,0,1,.27-1.91,1.54,1.54,0,0,1,.94-1.07.68.68,0,0,1,.8.32c.11.21.07.36.11.38s.16-.14.08-.45a.88.88,0,0,0-.32-.46A1,1,0,0,0,208,99a1.89,1.89,0,0,0-1.32,1.25,4.42,4.42,0,0,0-.34,2.14c.13,1.53,1,2.92,2.1,3.18a1.43,1.43,0,0,0,1.2-.26C209.86,105.09,209.89,104.92,209.87,104.9Z" style="fill:#7c4236"></path><path d="M211,84.64a7.19,7.19,0,0,0,3.24,1.42,2.49,2.49,0,0,0,2.72-1.8c.08-.53-.07-1.14.27-1.56s1.18-.36,1.81-.3a4.86,4.86,0,0,0,5-3.58,2,2,0,0,0,2.73.2,11.27,11.27,0,0,0,2-2.26,3.12,3.12,0,0,1,2.58-1.36,6.88,6.88,0,0,0,1.66.33c1-.11,1.45-1.28,1.59-2.28s.22-2.15,1-2.7,1.8-.25,2.72-.14,2.1-.12,2.32-1a1.8,1.8,0,0,0-.37-1.37,4.94,4.94,0,0,0-5.85-1.75,6.67,6.67,0,0,0-12.28-1,6.78,6.78,0,0,0-10.77,2.69,4.91,4.91,0,0,0-5.38,7.25,4.68,4.68,0,0,0-2.49,3.77c0,1.57,1.57,3.11,3.08,2.66a2.72,2.72,0,0,0,4.76,2.61" style="fill:#263238"></path><path d="M230.49,105.92a.71.71,0,0,0-.51-.09.7.7,0,0,0-.29.36,3.85,3.85,0,0,0,.43,3.67l0,0a2.54,2.54,0,0,0,4.29-.55l.59-1.28Z" style="fill:#7c4236"></path><path d="M234,110c.07,0-.5.78-1.88.94a2.1,2.1,0,0,1-1.11-.18A2.47,2.47,0,0,1,230,110a4.59,4.59,0,0,1-.76-2.78,7,7,0,0,1,.06-.77,1.12,1.12,0,0,1,.45-.76,1,1,0,0,1,.88,0l.59.3,2,1a8.06,8.06,0,0,1,1.79,1.07,8.59,8.59,0,0,1-1.94-.76l-2.06-1c-.36-.15-.85-.47-1-.33s-.25.66-.26,1.12a4.32,4.32,0,0,0,.63,2.49,2.09,2.09,0,0,0,.85.66,1.8,1.8,0,0,0,.93.21A4.55,4.55,0,0,0,234,110Z" style="fill:#263238"></path><path d="M206.09,81.8a1.88,1.88,0,0,0,.51,1.45,2.46,2.46,0,0,0,1.54.87,2.62,2.62,0,0,0,2.15-.67l-.32,0a7.83,7.83,0,0,0,1.55,1.86,4.3,4.3,0,0,0,1.41.83,2.89,2.89,0,0,0,1.53.11,3,3,0,0,0,2.17-1.3,4.58,4.58,0,0,0,.58-1.59c.07-.39.07-.61,0-.62a2.43,2.43,0,0,0-.21.58,5.12,5.12,0,0,1-.67,1.46,3.11,3.11,0,0,1-4.56.2,7.58,7.58,0,0,1-1.49-1.75l-.13-.22-.19.18a2.31,2.31,0,0,1-1.82.62,2.23,2.23,0,0,1-1.39-.7A4,4,0,0,1,206.09,81.8Z" style="fill:#455a64"></path><path d="M220.09,64.15s.2,0,.54.18a2.62,2.62,0,0,1,1.2,1l.1.15.1-.15a9.62,9.62,0,0,1,3.61-3.05,7.51,7.51,0,0,1,3-.72,6.3,6.3,0,0,1,3.24.86,6.51,6.51,0,0,1,1.95,1.77,5.19,5.19,0,0,1,.88,2.28l0,.24.23-.07a4.23,4.23,0,0,1,3.16.32,4.13,4.13,0,0,1,1.77,1.81A5.79,5.79,0,0,1,240.4,71a1.36,1.36,0,0,0,.08-.62,4.26,4.26,0,0,0-.38-1.72,4.35,4.35,0,0,0-1.82-2,4.62,4.62,0,0,0-3.45-.41l.26.17a5.47,5.47,0,0,0-.93-2.47,6.62,6.62,0,0,0-5.55-2.81,7.46,7.46,0,0,0-3.13.8,9.15,9.15,0,0,0-3.65,3.26h.2a2.52,2.52,0,0,0-1.36-1A1,1,0,0,0,220.09,64.15Z" style="fill:#455a64"></path></g><g id="freepik--Table--inject-150"><rect x="203.75" y="293.56" width="60.56" height="1.53" style="fill:#e0e0e0"></rect><rect x="302.99" y="293.56" width="60.56" height="1.53" style="fill:#e0e0e0"></rect><path d="M363.55,295.09s0-.14,0-.4,0-.65,0-1.13l.05.06c-6.05.11-30.87.2-60.56.2h0l.26-.26h0v1.51l-.26-.26,42.79.1,13,.08,3.54,0,.93,0,.33,0-.29,0-.89,0-3.49,0-12.91.08-43,.11h-.26v-1.77h0l.26-.26h0c29.69,0,54.51.09,60.56.21h.06v.05c0,.5,0,.88,0,1.17A1.54,1.54,0,0,1,363.55,295.09Z" style="fill:#263238"></path><rect x="539.05" y="264.96" width="10.7" height="7.63" style="fill:#fafafa"></rect><rect x="493.63" y="264.68" width="45.54" height="8.19" style="fill:#EBFF05"></rect><path d="M538.84,265.24h11.5a.29.29,0,0,0,.28-.28h0a.29.29,0,0,0-.28-.28h-11.5Z" style="fill:#EBFF05"></path><path d="M538.84,272.87h11.5a.28.28,0,0,0,.28-.28h0a.28.28,0,0,0-.28-.27h-11.5Z" style="fill:#EBFF05"></path><path d="M549.75,266.41s-2.37.06-5.29.06-5.29,0-5.29-.06,2.37-.06,5.29-.06S549.75,266.37,549.75,266.41Z" style="fill:#e0e0e0"></path><path d="M549.75,267.85s-2.37.07-5.29.07-5.29,0-5.29-.07,2.37-.06,5.29-.06S549.75,267.82,549.75,267.85Z" style="fill:#e0e0e0"></path><path d="M549.75,269.3s-2.37.06-5.29.06-5.29,0-5.29-.06,2.37-.07,5.29-.07S549.75,269.26,549.75,269.3Z" style="fill:#e0e0e0"></path><path d="M549.75,270.74s-2.37.06-5.29.06-5.29,0-5.29-.06,2.37-.06,5.29-.06S549.75,270.71,549.75,270.74Z" style="fill:#e0e0e0"></path><rect x="540.45" y="273.6" width="10.92" height="20.7" style="fill:#ebebeb"></rect><rect x="489.18" y="272.87" width="51.27" height="22.44" style="fill:#455a64"></rect><path d="M552.23,295.31H539.05v-1.46h13.18a.73.73,0,0,1,.73.73h0A.73.73,0,0,1,552.23,295.31Z" style="fill:#455a64"></path><path d="M552.23,274.32H539.05v-1.45h13.18a.73.73,0,0,1,.73.73h0A.73.73,0,0,1,552.23,274.32Z" style="fill:#455a64"></path><path d="M551.37,276.37s-2.44.06-5.46.06-5.46,0-5.46-.06,2.45-.06,5.46-.06S551.37,276.34,551.37,276.37Z" style="fill:#e0e0e0"></path><path d="M551.37,279s-2.44.06-5.46.06-5.46,0-5.46-.06,2.45-.07,5.46-.07S551.37,279,551.37,279Z" style="fill:#e0e0e0"></path><path d="M551.37,281.68s-2.44.06-5.46.06-5.46,0-5.46-.06,2.45-.06,5.46-.06S551.37,281.65,551.37,281.68Z" style="fill:#e0e0e0"></path><path d="M551.37,284.33s-2.44.07-5.46.07-5.46,0-5.46-.07,2.45-.06,5.46-.06S551.37,284.3,551.37,284.33Z" style="fill:#e0e0e0"></path><path d="M551.37,287s-2.44.06-5.46.06-5.46,0-5.46-.06,2.45-.06,5.46-.06S551.37,287,551.37,287Z" style="fill:#e0e0e0"></path><path d="M551.37,289.64s-2.44.07-5.46.07-5.46,0-5.46-.07,2.45-.06,5.46-.06S551.37,289.61,551.37,289.64Z" style="fill:#e0e0e0"></path><path d="M551.37,292.3s-2.44.06-5.46.06-5.46,0-5.46-.06,2.45-.07,5.46-.07S551.37,292.26,551.37,292.3Z" style="fill:#e0e0e0"></path><path d="M504.26,289a1.78,1.78,0,0,0,.69-.12.74.74,0,0,0,.35-.71v-5.71a.72.72,0,0,0-.33-.7,1.78,1.78,0,0,0-.71-.13v-.3h4.12v.3a1.8,1.8,0,0,0-1,.2c-.16.11-.24.41-.24.87v5.58a.56.56,0,0,0,.21.52,1.62,1.62,0,0,0,.8.13,3.27,3.27,0,0,0,1.79-.47,3.71,3.71,0,0,0,1.24-1.83h.35l-.48,2.67h-6.83Z" style="fill:#fff"></path><path d="M512.13,289a.93.93,0,0,0,.69-.38,5.15,5.15,0,0,0,.47-1l2.63-6.47h.33l2.63,6.21a9.54,9.54,0,0,0,.66,1.34.7.7,0,0,0,.62.29v.3h-3.82V289a2.18,2.18,0,0,0,.76-.1c.12-.05.18-.17.18-.38a1.58,1.58,0,0,0-.09-.42c0-.11-.09-.24-.16-.4l-.3-.71h-2.65l-.33.91a2.63,2.63,0,0,0-.16.67c0,.16.12.29.34.36a1.92,1.92,0,0,0,.61.07v.3h-2.41Zm4.43-2.48-1.13-2.73h-.1l-1.07,2.73Z" style="fill:#fff"></path><path d="M522.82,281.31v.28a2,2,0,0,0-.58.12c-.11.06-.16.18-.16.37a.62.62,0,0,0,0,.18.8.8,0,0,0,0,.21l1.44,4.13h0l1.35-3.45a2.83,2.83,0,0,0-.17-.53,5.4,5.4,0,0,0-.24-.62.89.89,0,0,0-.29-.29,1.54,1.54,0,0,0-.58-.12v-.28h3.69v.28a3.33,3.33,0,0,0-.68.11.31.31,0,0,0-.17.31,2.23,2.23,0,0,0,0,.23c0,.11.07.26.13.45l1.36,3.8h0l1.28-3.88a.79.79,0,0,0,.06-.22,1.12,1.12,0,0,0,0-.27.43.43,0,0,0-.25-.43,1.76,1.76,0,0,0-.57-.1v-.28h2.16v.28a1.21,1.21,0,0,0-.42.14,1.17,1.17,0,0,0-.41.62l-2.36,7.13h-.31l-2-5.54h-.08L523,289.48h-.33l-2.5-7.13a1.39,1.39,0,0,0-.32-.59,1.12,1.12,0,0,0-.5-.17v-.28Z" style="fill:#fff"></path><path d="M506,266.59l.4.1a.34.34,0,0,0,.17-.05.25.25,0,0,0,.11-.15h.13l.06,1.4h-.15a2,2,0,0,0-.32-.68,1.26,1.26,0,0,0-1-.48,1.33,1.33,0,0,0-1.07.52,2.18,2.18,0,0,0-.42,1.42,1.94,1.94,0,0,0,.44,1.33,1.42,1.42,0,0,0,1.11.5,1.82,1.82,0,0,0,.89-.23,3,3,0,0,0,.51-.4l.12.12a2.12,2.12,0,0,1-.52.46,2.07,2.07,0,0,1-1.13.33,2,2,0,0,1-1.59-.64,2.07,2.07,0,0,1-.55-1.48,2.16,2.16,0,0,1,.58-1.53,2,2,0,0,1,1.57-.64A2.35,2.35,0,0,1,506,266.59Z" style="fill:#263238"></path><path d="M507.68,268.25a1.29,1.29,0,0,1,1-.42,1.36,1.36,0,0,1,1,.39,1.46,1.46,0,0,1,.39,1.06,1.54,1.54,0,0,1-.38,1.05,1.22,1.22,0,0,1-1,.44,1.32,1.32,0,0,1-1-.42,1.52,1.52,0,0,1-.4-1.08A1.46,1.46,0,0,1,507.68,268.25Zm.49-.08a1.21,1.21,0,0,0-.31.95,2.07,2.07,0,0,0,.25,1,.75.75,0,0,0,.68.47.56.56,0,0,0,.52-.31,1.56,1.56,0,0,0,.19-.82,2.13,2.13,0,0,0-.24-1,.73.73,0,0,0-.68-.47A.57.57,0,0,0,508.17,268.17Z" style="fill:#263238"></path><path d="M510.37,270.59a.35.35,0,0,0,.38-.46v-1.55a.82.82,0,0,0,0-.27c0-.08-.12-.11-.24-.11h-.13v-.11l.59-.19.29-.09h0a.07.07,0,0,1,0,.05v.44a3.92,3.92,0,0,1,.44-.36,1,1,0,0,1,.49-.14.6.6,0,0,1,.37.11,1,1,0,0,1,.33.83v1.42a.44.44,0,0,0,.09.31.35.35,0,0,0,.29.1v.09H512v-.09a.53.53,0,0,0,.31-.12.6.6,0,0,0,.09-.4v-1.3a.91.91,0,0,0-.09-.43.38.38,0,0,0-.36-.17.65.65,0,0,0-.36.12,1.5,1.5,0,0,0-.27.23v1.7c0,.15,0,.24.1.29a.47.47,0,0,0,.3.08v.09h-1.32Z" style="fill:#263238"></path><path d="M513.69,269.72h.1a1.6,1.6,0,0,0,.19.53.68.68,0,0,0,.62.34.52.52,0,0,0,.36-.12.43.43,0,0,0,.13-.33.42.42,0,0,0-.07-.24.82.82,0,0,0-.27-.24l-.34-.19a2,2,0,0,1-.55-.4.72.72,0,0,1-.18-.49.68.68,0,0,1,.25-.55.85.85,0,0,1,.61-.22,1.22,1.22,0,0,1,.35.06l.22.06.08,0a.11.11,0,0,0,0-.05h.07l0,.85h-.09a1.74,1.74,0,0,0-.16-.46.62.62,0,0,0-.55-.3.42.42,0,0,0-.33.13.45.45,0,0,0-.12.31c0,.18.14.35.41.5l.41.21c.43.24.64.51.64.82a.76.76,0,0,1-.26.59,1.08,1.08,0,0,1-.71.23,1.62,1.62,0,0,1-.41-.06l-.27-.06a.08.08,0,0,0-.07,0l0,.06h-.08Z" style="fill:#263238"></path><path d="M517.37,267.88v.22h-.62v1.75a1.08,1.08,0,0,0,0,.35.28.28,0,0,0,.28.21.29.29,0,0,0,.19-.06.64.64,0,0,0,.19-.16l.08.07-.07.09a1,1,0,0,1-.34.3.72.72,0,0,1-.34.09.47.47,0,0,1-.48-.32,1.28,1.28,0,0,1-.07-.48V268.1h-.33l0,0v0s0,0,0,0,0,0,.09-.08a3,3,0,0,0,.3-.28l.43-.57h0s0,0,0,.05v.75Z" style="fill:#263238"></path><path d="M517.64,270.59a.72.72,0,0,0,.41-.11c.06-.05.09-.2.09-.43V268.6a.9.9,0,0,0,0-.28.19.19,0,0,0-.19-.12h-.07l-.18.05v-.09l.13,0,.74-.27.11,0v2.23c0,.23,0,.37.08.43a.59.59,0,0,0,.38.11v.09h-1.48Zm.48-4.06a.33.33,0,0,1,.23-.09.29.29,0,0,1,.22.09.3.3,0,0,1,.1.22.34.34,0,0,1-.1.23.29.29,0,0,1-.22.09.31.31,0,0,1-.32-.32A.31.31,0,0,1,518.12,266.53Z" style="fill:#263238"></path><path d="M520.83,267.88v.22h-.62v1.75a1.08,1.08,0,0,0,0,.35.27.27,0,0,0,.28.21.29.29,0,0,0,.19-.06.64.64,0,0,0,.19-.16l.08.07-.07.09a1,1,0,0,1-.34.3.72.72,0,0,1-.34.09.47.47,0,0,1-.48-.32,1.28,1.28,0,0,1-.07-.48V268.1h-.33l0,0v0s0,0,0,0,0,0,.09-.08a3,3,0,0,0,.3-.28l.43-.57h.05s0,0,0,.05v.75Z" style="fill:#263238"></path><path d="M521.94,267.86v1.95a.75.75,0,0,0,.06.33.41.41,0,0,0,.41.23.71.71,0,0,0,.41-.13,2.09,2.09,0,0,0,.23-.21v-1.67a.39.39,0,0,0-.09-.31.85.85,0,0,0-.37-.09v-.1h1V270a.42.42,0,0,0,.08.29.45.45,0,0,0,.31.07v.08l-.24.07-.27.08-.35.14s0,0,0,0a0,0,0,0,1,0,0v-.49a2,2,0,0,1-.37.36.92.92,0,0,1-.55.19.82.82,0,0,1-.5-.19.74.74,0,0,1-.24-.63v-1.58a.4.4,0,0,0-.1-.32A.66.66,0,0,0,521,268v-.09Z" style="fill:#263238"></path><path d="M525.68,267.88v.22h-.62v1.75a1.08,1.08,0,0,0,0,.35.28.28,0,0,0,.29.21.33.33,0,0,0,.19-.06.79.79,0,0,0,.18-.16l.08.07-.07.09a1,1,0,0,1-.33.3.75.75,0,0,1-.34.09.49.49,0,0,1-.49-.32,1.28,1.28,0,0,1-.07-.48V268.1h-.33l0,0a0,0,0,0,1,0,0s0,0,0,0,0,0,.09-.08a3,3,0,0,0,.3-.28l.44-.57h0s0,0,0,.05v.75Z" style="fill:#263238"></path><path d="M525.94,270.59c.22,0,.36,0,.41-.11s.09-.2.09-.43V268.6a.9.9,0,0,0,0-.28.18.18,0,0,0-.19-.12h-.06l-.19.05v-.09l.13,0c.36-.12.6-.21.74-.27l.11,0a.06.06,0,0,1,0,0v2.19a.75.75,0,0,0,.08.43.59.59,0,0,0,.38.11v.09h-1.48Zm.49-4.06a.29.29,0,0,1,.22-.09.33.33,0,0,1,.23.09.29.29,0,0,1,.09.22.31.31,0,0,1-.32.32.29.29,0,0,1-.22-.09.33.33,0,0,1-.09-.23A.31.31,0,0,1,526.43,266.53Z" style="fill:#263238"></path><path d="M528.1,268.25a1.26,1.26,0,0,1,1-.42,1.35,1.35,0,0,1,1,.39,1.42,1.42,0,0,1,.4,1.06,1.55,1.55,0,0,1-.39,1.05,1.22,1.22,0,0,1-1,.44,1.32,1.32,0,0,1-1-.42,1.57,1.57,0,0,1-.4-1.08A1.43,1.43,0,0,1,528.1,268.25Zm.48-.08a1.24,1.24,0,0,0-.3.95,2.18,2.18,0,0,0,.24,1,.75.75,0,0,0,.68.47.59.59,0,0,0,.53-.31,1.66,1.66,0,0,0,.18-.82,2.25,2.25,0,0,0-.23-1A.75.75,0,0,0,529,268,.6.6,0,0,0,528.58,268.17Z" style="fill:#263238"></path><path d="M530.78,270.59a.53.53,0,0,0,.3-.1.52.52,0,0,0,.09-.36v-1.55a.58.58,0,0,0,0-.27c0-.08-.12-.11-.24-.11h-.12v-.11l.59-.19.28-.09h0v.49a3.92,3.92,0,0,1,.44-.36,1,1,0,0,1,.49-.14.65.65,0,0,1,.38.11,1,1,0,0,1,.32.83v1.42a.44.44,0,0,0,.09.31.37.37,0,0,0,.29.1v.09h-1.29v-.09a.56.56,0,0,0,.31-.12c.06-.06.08-.19.08-.4v-1.3a.91.91,0,0,0-.09-.43.38.38,0,0,0-.36-.17.65.65,0,0,0-.36.12,1.5,1.5,0,0,0-.27.23v1.7c0,.15,0,.24.1.29a.5.5,0,0,0,.31.08v.09h-1.33Z" style="fill:#263238"></path><polygon points="429.73 295.49 426.64 285.35 474.71 285.35 480.32 295.49 429.73 295.49" style="fill:#263238"></polygon><polygon points="426.64 285.35 421.33 295.49 429.73 295.49 426.64 285.35" style="fill:#455a64"></polygon><path d="M436.81,289.1h.94l2.17,3.35H442l.51.78h-3Z" style="fill:#fff"></path><path d="M445.2,292.35h-1.91l.22.88h-1l-.92-4.13h.93l4.62,4.13h-1Zm-.79-.73L442.7,290l.41,1.58Z" style="fill:#fff"></path><path d="M450.67,289.1l1.6,4.13h-1l-2.86-2.8,1,2.8h-1l-4.17-4.13h1l2.92,2.9-1-2.9h.87l3,2.93-1.11-2.93Z" style="fill:#fff"></path><path d="M454.41,289.87l.8,1.09h1.89l.57.77h-1.9l1.1,1.5h-1l-3-4.13H456l.57.77Z" style="fill:#fff"></path><path d="M456.62,289.1h.93l3.09,4.13h-1Z" style="fill:#fff"></path><path d="M464.25,293.23l-1.67-1.15h-.87l.87,1.15h-1l-3.11-4.13h1.76a3.38,3.38,0,0,1,1.07.18,4,4,0,0,1,1,.52,3.94,3.94,0,0,1,.83.8,1.73,1.73,0,0,1,.39.79.5.5,0,0,1-.23.51l1.94,1.33Zm-2.66-3.17a1.72,1.72,0,0,0-.78-.18H460l1.09,1.44h.77c.29,0,.45-.06.51-.19s0-.3-.19-.53A1.91,1.91,0,0,0,461.59,290.06Z" style="fill:#fff"></path><path d="M469.72,293.23l-2-2.48.41,2.05h-.43l-2.76-2,1.89,2.42H466l-3.19-4.13h.77l3.53,2.57-.52-2.57h.77l3.3,4.13Z" style="fill:#fff"></path><rect x="524.56" y="309.84" width="12.16" height="153.37" style="fill:#e0e0e0"></rect><path d="M536.72,463.21s0-.27,0-.8,0-1.3,0-2.3c0-2,0-5,0-8.85,0-7.7,0-18.82-.08-32.63,0-27.6-.07-65.9-.11-108.79l.26.26H524.56l.26-.26c-.08,69.56-.14,129.05-.17,153.37l-.09-.1,9,.06,2.34,0,.8,0-.77,0-2.31,0-9.08.06h-.1v-.1c0-24.32-.09-83.81-.16-153.37v-.26H537v.26c-.05,43-.08,81.33-.11,109,0,13.78-.06,24.89-.08,32.57,0,3.81,0,6.77,0,8.79,0,1,0,1.74,0,2.27S536.72,463.21,536.72,463.21Z" style="fill:#263238"></path><rect x="149.77" y="298.16" width="12.16" height="165.05" style="fill:#e0e0e0"></rect><path d="M161.93,463.21s0-.29,0-.86,0-1.4,0-2.48c0-2.19,0-5.4,0-9.53,0-8.28-.05-20.27-.08-35.13,0-29.71-.07-70.94-.11-117l.26.26H149.77l.26-.26c-.08,75.48-.14,139.9-.17,165l-.09-.09,9.06.05,2.31,0,.79,0-.76,0-2.29,0-9.11.05h-.1v-.1c0-25.15-.09-89.57-.16-165v-.26h12.68v.26c-.05,46.19-.08,87.48-.11,117.24,0,14.84-.06,26.8-.08,35.07,0,4.11,0,7.29,0,9.47,0,1.07,0,1.89,0,2.45S161.93,463.21,161.93,463.21Z" style="fill:#263238"></path><rect x="102.76" y="295.09" width="484.25" height="19.89" style="fill:#6f4439"></rect><rect x="149.77" y="314.98" width="12.16" height="7.24" style="opacity:0.30000000000000004"></rect><rect x="524.31" y="314.98" width="12.16" height="7.24" style="opacity:0.30000000000000004"></rect></g></svg>
