<svg width="341" height="681" viewBox="0 0 341 681" xmlns="http://www.w3.org/2000/svg" xmlns:xlink="http://www.w3.org/1999/xlink"><defs><filter x="-.9%" y="-.5%" width="101.8%" height="100.9%" filterUnits="objectBoundingBox" id="filter-2"><feMorphology radius="1" in="SourceAlpha" result="shadowSpreadInner1"/><feGaussianBlur stdDeviation="1" in="shadowSpreadInner1" result="shadowBlurInner1"/><feOffset in="shadowBlurInner1" result="shadowOffsetInner1"/><feComposite in="shadowOffsetInner1" in2="SourceAlpha" operator="arithmetic" k2="-1" k3="1" result="shadowInnerInner1"/><feColorMatrix values="0 0 0 0 0 0 0 0 0 0 0 0 0 0 0 0 0 0 0.5 0" in="shadowInnerInner1"/></filter><filter x="-14.8%" y="-.5%" width="129.6%" height="101.1%" filterUnits="objectBoundingBox" id="filter-4"><feGaussianBlur stdDeviation="2" in="SourceAlpha" result="shadowBlurInner1"/><feOffset dx="3" in="shadowBlurInner1" result="shadowOffsetInner1"/><feComposite in="shadowOffsetInner1" in2="SourceAlpha" operator="arithmetic" k2="-1" k3="1" result="shadowInnerInner1"/><feColorMatrix values="0 0 0 0 0 0 0 0 0 0 0 0 0 0 0 0 0 0 0.6 0" in="shadowInnerInner1"/></filter><filter x="-14.8%" y="-.5%" width="129.6%" height="101.1%" filterUnits="objectBoundingBox" id="filter-6"><feGaussianBlur stdDeviation="2" in="SourceAlpha" result="shadowBlurInner1"/><feOffset dx="3" in="shadowBlurInner1" result="shadowOffsetInner1"/><feComposite in="shadowOffsetInner1" in2="SourceAlpha" operator="arithmetic" k2="-1" k3="1" result="shadowInnerInner1"/><feColorMatrix values="0 0 0 0 0 0 0 0 0 0 0 0 0 0 0 0 0 0 0.6 0" in="shadowInnerInner1"/></filter><filter x="-57.1%" y="-3%" width="214.3%" height="106%" filterUnits="objectBoundingBox" id="filter-8"><feOffset dx="1" in="SourceAlpha" result="shadowOffsetInner1"/><feComposite in="shadowOffsetInner1" in2="SourceAlpha" operator="arithmetic" k2="-1" k3="1" result="shadowInnerInner1"/><feColorMatrix values="0 0 0 0 1 0 0 0 0 1 0 0 0 0 1 0 0 0 0.401268116 0" in="shadowInnerInner1" result="shadowMatrixInner1"/><feGaussianBlur stdDeviation=".5" in="SourceAlpha" result="shadowBlurInner2"/><feOffset dy="2" in="shadowBlurInner2" result="shadowOffsetInner2"/><feComposite in="shadowOffsetInner2" in2="SourceAlpha" operator="arithmetic" k2="-1" k3="1" result="shadowInnerInner2"/><feColorMatrix values="0 0 0 0 0.125490196 0 0 0 0 0.125490196 0 0 0 0 0.129411765 0 0 0 1 0" in="shadowInnerInner2" result="shadowMatrixInner2"/><feGaussianBlur stdDeviation=".5" in="SourceAlpha" result="shadowBlurInner3"/><feOffset dy="-2" in="shadowBlurInner3" result="shadowOffsetInner3"/><feComposite in="shadowOffsetInner3" in2="SourceAlpha" operator="arithmetic" k2="-1" k3="1" result="shadowInnerInner3"/><feColorMatrix values="0 0 0 0 0.125490196 0 0 0 0 0.125490196 0 0 0 0 0.129411765 0 0 0 1 0" in="shadowInnerInner3" result="shadowMatrixInner3"/><feMerge><feMergeNode in="shadowMatrixInner1"/><feMergeNode in="shadowMatrixInner2"/><feMergeNode in="shadowMatrixInner3"/></feMerge></filter><filter x="-57.1%" y="-3%" width="214.3%" height="106%" filterUnits="objectBoundingBox" id="filter-10"><feOffset dx="1" in="SourceAlpha" result="shadowOffsetInner1"/><feComposite in="shadowOffsetInner1" in2="SourceAlpha" operator="arithmetic" k2="-1" k3="1" result="shadowInnerInner1"/><feColorMatrix values="0 0 0 0 1 0 0 0 0 1 0 0 0 0 1 0 0 0 0.401268116 0" in="shadowInnerInner1" result="shadowMatrixInner1"/><feGaussianBlur stdDeviation=".5" in="SourceAlpha" result="shadowBlurInner2"/><feOffset dy="2" in="shadowBlurInner2" result="shadowOffsetInner2"/><feComposite in="shadowOffsetInner2" in2="SourceAlpha" operator="arithmetic" k2="-1" k3="1" result="shadowInnerInner2"/><feColorMatrix values="0 0 0 0 0.125490196 0 0 0 0 0.125490196 0 0 0 0 0.129411765 0 0 0 1 0" in="shadowInnerInner2" result="shadowMatrixInner2"/><feGaussianBlur stdDeviation=".5" in="SourceAlpha" result="shadowBlurInner3"/><feOffset dy="-2" in="shadowBlurInner3" result="shadowOffsetInner3"/><feComposite in="shadowOffsetInner3" in2="SourceAlpha" operator="arithmetic" k2="-1" k3="1" result="shadowInnerInner3"/><feColorMatrix values="0 0 0 0 0.125490196 0 0 0 0 0.125490196 0 0 0 0 0.129411765 0 0 0 1 0" in="shadowInnerInner3" result="shadowMatrixInner3"/><feMerge><feMergeNode in="shadowMatrixInner1"/><feMergeNode in="shadowMatrixInner2"/><feMergeNode in="shadowMatrixInner3"/></feMerge></filter><filter x="-57.1%" y="-5.7%" width="214.3%" height="111.4%" filterUnits="objectBoundingBox" id="filter-12"><feOffset dx="1" in="SourceAlpha" result="shadowOffsetInner1"/><feComposite in="shadowOffsetInner1" in2="SourceAlpha" operator="arithmetic" k2="-1" k3="1" result="shadowInnerInner1"/><feColorMatrix values="0 0 0 0 1 0 0 0 0 1 0 0 0 0 1 0 0 0 0.401268116 0" in="shadowInnerInner1" result="shadowMatrixInner1"/><feGaussianBlur stdDeviation=".5" in="SourceAlpha" result="shadowBlurInner2"/><feOffset dy="2" in="shadowBlurInner2" result="shadowOffsetInner2"/><feComposite in="shadowOffsetInner2" in2="SourceAlpha" operator="arithmetic" k2="-1" k3="1" result="shadowInnerInner2"/><feColorMatrix values="0 0 0 0 0.125490196 0 0 0 0 0.125490196 0 0 0 0 0.129411765 0 0 0 1 0" in="shadowInnerInner2" result="shadowMatrixInner2"/><feGaussianBlur stdDeviation=".5" in="SourceAlpha" result="shadowBlurInner3"/><feOffset dy="-2" in="shadowBlurInner3" result="shadowOffsetInner3"/><feComposite in="shadowOffsetInner3" in2="SourceAlpha" operator="arithmetic" k2="-1" k3="1" result="shadowInnerInner3"/><feColorMatrix values="0 0 0 0 0.125490196 0 0 0 0 0.125490196 0 0 0 0 0.129411765 0 0 0 1 0" in="shadowInnerInner3" result="shadowMatrixInner3"/><feMerge><feMergeNode in="shadowMatrixInner1"/><feMergeNode in="shadowMatrixInner2"/><feMergeNode in="shadowMatrixInner3"/></feMerge></filter><filter x="-57.1%" y="-1.9%" width="214.3%" height="103.8%" filterUnits="objectBoundingBox" id="filter-14"><feOffset dx="1" in="SourceAlpha" result="shadowOffsetInner1"/><feComposite in="shadowOffsetInner1" in2="SourceAlpha" operator="arithmetic" k2="-1" k3="1" result="shadowInnerInner1"/><feColorMatrix values="0 0 0 0 1 0 0 0 0 1 0 0 0 0 1 0 0 0 0.401268116 0" in="shadowInnerInner1" result="shadowMatrixInner1"/><feGaussianBlur stdDeviation=".5" in="SourceAlpha" result="shadowBlurInner2"/><feOffset dy="2" in="shadowBlurInner2" result="shadowOffsetInner2"/><feComposite in="shadowOffsetInner2" in2="SourceAlpha" operator="arithmetic" k2="-1" k3="1" result="shadowInnerInner2"/><feColorMatrix values="0 0 0 0 0.125490196 0 0 0 0 0.125490196 0 0 0 0 0.129411765 0 0 0 1 0" in="shadowInnerInner2" result="shadowMatrixInner2"/><feGaussianBlur stdDeviation=".5" in="SourceAlpha" result="shadowBlurInner3"/><feOffset dy="-2" in="shadowBlurInner3" result="shadowOffsetInner3"/><feComposite in="shadowOffsetInner3" in2="SourceAlpha" operator="arithmetic" k2="-1" k3="1" result="shadowInnerInner3"/><feColorMatrix values="0 0 0 0 0.125490196 0 0 0 0 0.125490196 0 0 0 0 0.129411765 0 0 0 1 0" in="shadowInnerInner3" result="shadowMatrixInner3"/><feMerge><feMergeNode in="shadowMatrixInner1"/><feMergeNode in="shadowMatrixInner2"/><feMergeNode in="shadowMatrixInner3"/></feMerge></filter><filter x="-46.2%" y="-19.2%" width="192.3%" height="138.3%" filterUnits="objectBoundingBox" id="filter-18"><feGaussianBlur stdDeviation=".525" in="SourceGraphic"/></filter><filter x="-46.2%" y="-19.2%" width="192.3%" height="138.3%" filterUnits="objectBoundingBox" id="filter-19"><feGaussianBlur stdDeviation=".525" in="SourceGraphic"/></filter><filter x="-4.8%" y="-18.5%" width="109.6%" height="174.1%" filterUnits="objectBoundingBox" id="filter-22"><feOffset dy="1" in="SourceAlpha" result="shadowOffsetOuter1"/><feGaussianBlur stdDeviation=".5" in="shadowOffsetOuter1" result="shadowBlurOuter1"/><feColorMatrix values="0 0 0 0 1 0 0 0 0 1 0 0 0 0 1 0 0 0 0.217589447 0" in="shadowBlurOuter1"/></filter><path d="M58.06 0h216.733c39.804 0 58.058 18.872 58.058 58.058v561.135c0 37.855-19.551 58.058-58.058 58.058H58.06C18.255 677.25 0 658.379 0 619.193V58.058C.001 18.872 18.255.001 58.06.001zm190.994 25.2c0 7.558-5.571 16.8-18.39 16.8h-127.69c-12.82 0-18.39-9.242-18.39-16.538 0-3.636 0-7.087-6.044-7.087H53.055C31.757 18.375 18.9 31.22 18.9 52.5v570.675c0 21.28 12.857 34.125 34.155 34.125H280.32c21.298 0 34.155-12.845 34.155-34.125V52.5c0-21.28-12.857-34.125-34.155-34.125h-25.223c-6.043 0-6.043 3.45-6.043 6.825z" id="path-1"/><path d="M295.06.472c16.262 6.948 23.615 21.941 23.615 46.507v560.14c0 23.103-7.604 38.27-23.063 45.718 1.64-4.643 17.287-12.295 17.287-43.095V44.307c0-32.491-18.322-40.018-17.84-43.835z" id="path-3"/><path d="M.01.525c16.262 6.954 23.615 21.963 23.615 46.553v560.7c0 23.126-7.604 38.307-23.063 45.764 1.64-4.648 17.287-12.308 17.287-43.139v-566C17.849 11.88-.473 4.345.009.525z" id="path-5"/><path d="M1.667 110.74c-.542.147-1.191.522-1.538 1.056-.071.11-.128.457-.128.558v46.1c0 .108.08.65.128.782.281.757.769.94 1.538 1.379h.952c0-1.38.016-48.526 0-49.875h-.952z" id="path-7"/><path d="M1.667 48.265c-.542.147-1.191.522-1.538 1.056-.071.11-.128.457-.128.558v46.1c0 .108.08.65.128.782.281.757.769.94 1.538 1.379h.952c0-1.38.016-48.526 0-49.875h-.952z" id="path-9"/><path d="M1.667.49C.747.49.001 1.312.001 2.327v22.575c0 1.015.746 1.838 1.666 1.838h.952c0-1.38.016-24.9 0-26.25h-.952z" id="path-11"/><path d="M339.243 64.54c-.542.147-1.192.522-1.538 1.056-.072.11-.128.457-.128.558v75.5c0 .108.08.65.128.782.28.757.768.94 1.538 1.379h.951c0-1.38.017-77.926 0-79.275h-.951z" id="path-13"/><linearGradient x1="50%" y1="100%" x2="50%" y2="0%" id="linearGradient-15"><stop stop-color="#1F1F1F" offset="0%"/><stop stop-color="#0F0F0F" offset="100%"/></linearGradient><ellipse id="path-16" cx="2.995" cy="3.143" rx="2.625" ry="2.626"/><rect id="path-20" x="0" y="0" width="41.5" height="5.396" rx="2.698"/></defs><g id="Symbols" stroke="none" stroke-width="1" fill="none" fill-rule="evenodd"><g id="iPhone-XR/Black" transform="translate(0 2)"><g id="iPhone-XR" transform="translate(.5 -.075)"><g id="body"><g id="shape" transform="translate(3.7 .075)"><g id="Combined-Shape"><use fill="#000" xlink:href="#path-1"/><use fill="#000" filter="url(#filter-2)" xlink:href="#path-1"/><path stroke="#202021" stroke-width="1.575" d="M58.06-.787h216.733c40.007 0 58.846 18.99 58.846 58.845v561.135c0 38.532-20.145 58.845-58.846 58.845H58.06c-40.008 0-58.846-18.99-58.846-58.845V58.058C-.786 18.204 18.052-.787 58.06-.787zM249.842 25.2c0 9.573-7.375 17.588-19.179 17.588H102.975c-11.759 0-19.18-7.983-19.18-17.325 0-4.985-.753-6.3-5.255-6.3H53.055c-20.863 0-33.367 12.493-33.367 33.337v570.675c0 20.845 12.504 33.338 33.367 33.338H280.32c20.863 0 33.368-12.493 33.368-33.338V52.5c0-20.844-12.505-33.337-33.368-33.337h-25.223c-4.414 0-5.251 1.344-5.255 5.819v.218z"/></g></g><g id="glass" transform="translate(11.05 11.1)"><g id="glass-right"><use fill-opacity=".78" fill="#FFF" xlink:href="#path-3"/><use fill="#000" filter="url(#filter-4)" xlink:href="#path-3"/></g><g id="glass-left" transform="rotate(-180 11.812 327.034)"><use fill-opacity=".78" fill="#FFF" xlink:href="#path-5"/><use fill="#000" filter="url(#filter-6)" xlink:href="#path-5"/></g></g><g id="border-marks" transform="translate(2.125 63.026)" fill="#000" opacity=".45"><g id="l" transform="translate(0 .075)"><path id="l2" d="M0 545.45h5.25v4.727H0z"/><path id="l1" d="M0 .5h5.25v4.727H0z"/></g><g id="r" transform="translate(330.225 .075)"><path id="r2" d="M.523 545.45h5.25v4.727H.523z"/><path id="r1" d="M.523.5h5.25v4.727H.523z"/></g></g><g id="buttons" transform="translate(.023 89.885)"><g id="l3"><use fill="#404041" xlink:href="#path-7"/><use fill="#000" filter="url(#filter-8)" xlink:href="#path-7"/></g><g id="l2"><use fill="#404041" xlink:href="#path-9"/><use fill="#000" filter="url(#filter-10)" xlink:href="#path-9"/></g><g id="l1"><use fill="#404041" xlink:href="#path-11"/><use fill="#000" filter="url(#filter-12)" xlink:href="#path-11"/></g><g id="r1" transform="matrix(-1 0 0 1 677.778 0)"><use fill="#404041" xlink:href="#path-13"/><use fill="#000" filter="url(#filter-14)" xlink:href="#path-13"/></g></g><g id="top" transform="translate(149.123 20.55)"><g id="cam" transform="translate(51.605 .008)"><circle id="Oval-" fill="url(#linearGradient-15)" cx="5.096" cy="5.242" r="4.725"/><g id="camera" transform="translate(2.1 2.1)"><mask id="mask-17" fill="#fff"><use xlink:href="#path-16"/></mask><use id="Mask" fill="#070D1D" opacity=".388" xlink:href="#path-16"/><path d="M3.415-.78C2.35-.256 1.577 1.302 1.577 3.143c0 1.84.773 3.399 1.838 3.922a1.773 1.773 0 01-.788.189c-1.45 0-2.625-1.84-2.625-4.111S1.177-.97 2.627-.97c.275 0 .54.066.788.189z" id="Combined-Shape" fill="#0D569A" filter="url(#filter-18)" mask="url(#mask-17)"/><path d="M2.622 7.065c1.065-.523 1.837-2.082 1.837-3.922 0-1.841-.772-3.4-1.837-3.923.249-.123.513-.189.787-.189 1.45 0 2.625 1.841 2.625 4.112 0 2.27-1.175 4.11-2.625 4.11-.274 0-.538-.065-.787-.188z" id="Combined-Shape" fill="#0D569A" filter="url(#filter-19)" mask="url(#mask-17)"/></g></g><g id="sound" opacity=".801" transform="translate(.002 2.625)"><mask id="mask-21" fill="#fff"><use xlink:href="#path-20"/></mask><g id="s"><use fill="#000" filter="url(#filter-22)" xlink:href="#path-20"/><use fill="#1D1C1C" xlink:href="#path-20"/></g><g id="sound-grid" opacity=".056" mask="url(#mask-21)" stroke="#FFF" stroke-width=".525"><g transform="translate(-26.25 -4.2)"><path d="M1.165.065l14.853 14.852" id="Stroke-1"/><path d="M3.916.065l14.852 14.852" id="Stroke-3"/><path d="M6.666.065l14.853 14.852" id="Stroke-5"/><path d="M9.416.065L24.27 14.917" id="Stroke-7"/><path d="M12.167.065L27.02 14.917" id="Stroke-9"/><path d="M14.917.065L29.77 14.917" id="Stroke-11"/><path d="M17.668.065l14.853 14.852" id="Stroke-13"/><path d="M20.418.065l14.853 14.852" id="Stroke-15"/><path d="M23.169.065l14.853 14.852" id="Stroke-17"/><path d="M25.92.065l14.852 14.852" id="Stroke-19"/><path d="M28.67.065l14.853 14.852" id="Stroke-21"/><path d="M31.42.065l14.853 14.852" id="Stroke-23"/><path d="M34.17.065l14.854 14.852" id="Stroke-25"/><path d="M36.921.065l14.853 14.852" id="Stroke-27"/><path d="M39.672.065l14.852 14.852" id="Stroke-29"/><path d="M42.422.065l14.853 14.852" id="Stroke-31"/><path d="M45.173.065l14.852 14.852" id="Stroke-33"/><path d="M47.923.065l14.853 14.852" id="Stroke-35"/><path d="M50.674.065l14.852 14.852" id="Stroke-37"/><path d="M53.424.065l14.853 14.852" id="Stroke-39"/><path d="M56.175.065l14.852 14.852" id="Stroke-41"/><path d="M58.925.065l14.853 14.852" id="Stroke-43"/><path d="M61.676.065l14.852 14.852" id="Stroke-45"/><path d="M75.428.065L60.576 14.917" id="Stroke-47"/><path d="M72.678.065L57.825 14.917" id="Stroke-49"/><path d="M69.927.065L55.075 14.917" id="Stroke-51"/><path d="M67.177.065L52.324 14.917" id="Stroke-53"/><path d="M64.426.065L49.574 14.917" id="Stroke-55"/><path d="M61.676.065L46.823 14.917" id="Stroke-57"/><path d="M58.925.065L44.073 14.917" id="Stroke-59"/><path d="M56.175.065L41.322 14.917" id="Stroke-61"/><path d="M53.424.065L38.572 14.917" id="Stroke-63"/><path d="M50.674.065L35.82 14.917" id="Stroke-65"/><path d="M47.923.065L33.071 14.917" id="Stroke-67"/><path d="M45.173.065L30.32 14.917" id="Stroke-69"/><path d="M42.422.065L27.57 14.917" id="Stroke-71"/><path d="M39.672.065L24.819 14.917" id="Stroke-73"/><path d="M36.921.065L22.07 14.917" id="Stroke-75"/><path d="M34.17.065L19.319 14.917" id="Stroke-77"/><path d="M31.42.065L16.568 14.917" id="Stroke-79"/><path d="M28.67.065L13.817 14.917" id="Stroke-81"/><path d="M25.92.065L11.066 14.917" id="Stroke-83"/><path d="M23.169.065L8.316 14.917" id="Stroke-85"/><path d="M20.418.065L5.566 14.917" id="Stroke-87"/><path d="M17.668.065L2.815 14.917" id="Stroke-89"/><path d="M14.917.065L.065 14.917" id="Stroke-91"/></g></g></g></g></g></g></g></g></svg>