<svg width="165" height="56" viewBox="0 0 165 56" fill="none" xmlns="http://www.w3.org/2000/svg"><path d="M151.806 0H13.142c-.505 0-1.005 0-1.509.003-.422.003-.84.01-1.266.017-.926.011-1.85.093-2.762.244a9.187 9.187 0 00-2.62.864 8.874 8.874 0 00-3.856 3.86A9.099 9.099 0 00.268 7.61a17.91 17.91 0 00-.247 2.76c-.013.422-.014.846-.021 1.269V43.5c.007.428.008.842.02 1.27.012.925.094 1.848.248 2.76.151.913.442 1.799.861 2.624a8.555 8.555 0 001.624 2.225 8.648 8.648 0 002.231 1.625c.825.42 1.709.713 2.62.87.914.15 1.837.231 2.763.243.426.01.844.015 1.266.015.505.003 1.004.003 1.51.003h138.663c.496 0 .999 0 1.494-.003.42 0 .851-.005 1.271-.015a18.302 18.302 0 002.757-.243 9.378 9.378 0 002.63-.87 8.648 8.648 0 002.229-1.624 8.825 8.825 0 001.629-2.226 9.096 9.096 0 00.853-2.624 18.63 18.63 0 00.256-2.76c.005-.428.005-.843.005-1.27.011-.501.011-1 .011-1.508V13.145c0-.505 0-1.006-.011-1.505 0-.423 0-.847-.005-1.27a18.633 18.633 0 00-.256-2.76 9.121 9.121 0 00-.853-2.623 8.913 8.913 0 00-3.858-3.859 9.326 9.326 0 00-2.63-.864 17.977 17.977 0 00-2.757-.244c-.42-.006-.851-.015-1.271-.017C152.805 0 152.302 0 151.806 0z" fill="#fff"/><path fill-rule="evenodd" clip-rule="evenodd" d="M102.936 40.077c-2.253 0-3.902-1.114-4.092-2.812h-2.622c.165 3.096 2.728 5.055 6.524 5.055 4.057 0 6.607-2.006 6.607-5.208 0-2.504-1.458-3.915-4.97-4.745l-1.886-.463c-2.206-.545-3.108-1.257-3.108-2.467 0-1.519 1.412-2.562 3.475-2.562 2.064 0 3.476 1.031 3.631 2.74h2.586c-.084-2.954-2.563-4.982-6.181-4.982-3.654 0-6.227 2.028-6.227 4.981 0 2.386 1.459 3.855 4.602 4.615l2.218.534c2.218.545 3.155 1.34 3.155 2.67 0 1.53-1.553 2.644-3.712 2.644zm-44.625-2.669h-6.525l-1.567 4.626h-2.763l6.18-17.116h2.871l6.18 17.116h-2.81l-1.566-4.626zm-5.847-2.133h5.172l-2.55-7.509h-.071l-2.551 7.509zm18.363 6.889c3.132 0 5.208-2.492 5.208-6.37 0-3.867-2.088-6.37-5.255-6.37a4.427 4.427 0 00-3.974 2.206h-.047v-2.076h-2.48v16.608h2.562V39.98h.06a4.23 4.23 0 003.926 2.183zm2.576-6.37c0-2.526-1.306-4.187-3.298-4.187-1.958 0-3.274 1.696-3.274 4.188 0 2.514 1.316 4.198 3.274 4.198 1.992 0 3.297-1.649 3.297-4.198zm11.155 6.37c3.133 0 5.209-2.492 5.209-6.37 0-3.867-2.088-6.37-5.256-6.37a4.427 4.427 0 00-3.973 2.206h-.047v-2.076h-2.48v16.608h2.562V39.98h.059a4.23 4.23 0 003.926 2.183zm2.575-6.37c0-2.526-1.306-4.187-3.298-4.187-1.957 0-3.273 1.696-3.273 4.188 0 2.514 1.316 4.198 3.273 4.198 1.992 0 3.298-1.649 3.298-4.199zm27.75-9.19v2.953h2.373v2.028h-2.373v6.88c0 1.069.475 1.567 1.518 1.567a8.03 8.03 0 00.843-.06v2.017a7.037 7.037 0 01-1.423.118c-2.527 0-3.512-.949-3.512-3.369v-7.153h-1.814v-2.028h1.814v-2.953h2.574zm9.667 2.798c-3.606 0-5.918 2.467-5.918 6.394 0 3.937 2.289 6.394 5.918 6.394 3.631 0 5.92-2.457 5.92-6.394 0-3.927-2.301-6.394-5.92-6.394zm3.312 6.395c0-2.693-1.234-4.283-3.31-4.283s-3.31 1.602-3.31 4.283c0 2.705 1.234 4.282 3.31 4.282s3.31-1.578 3.31-4.282zm7.162-6.243h-2.443v12.48h2.562v-7.402a2.58 2.58 0 012.669-2.871c.389-.012.778.04 1.151.154V29.52a3.954 3.954 0 00-.878-.095 2.977 2.977 0 00-3.002 2.255h-.059v-2.125zm15.752 8.816c-.345 2.265-2.551 3.82-5.374 3.82-3.63 0-5.883-2.433-5.883-6.335 0-3.914 2.265-6.453 5.776-6.453 3.452 0 5.623 2.372 5.623 6.156v.877h-8.814v.155a3.253 3.253 0 003.357 3.535 2.824 2.824 0 002.882-1.755h2.433zm-2.421-3.726h-6.239a3.163 3.163 0 013.178-3.167 3.002 3.002 0 013.061 3.167zM81.454 11.631h1.225v8.63h-1.225v-8.63zm-26.412 1.532a3.638 3.638 0 00-2.902-1.128h-2.971v8.225h2.97c2.45 0 3.87-1.51 3.87-4.138a3.638 3.638 0 00-.967-2.96zM52 19.098h-1.55v-5.9H52a2.593 2.593 0 012.712 2.942A2.586 2.586 0 0152 19.098zm5.45-1.942a2.94 2.94 0 115.854 0 2.941 2.941 0 11-5.854 0zm2.928-2.133c1.061 0 1.666.787 1.666 2.132 0 1.35-.605 2.137-1.666 2.137-1.064 0-1.663-.781-1.663-2.137 0-1.346.599-2.132 1.663-2.132zm10.707 5.238h-1.27l-1.283-4.572h-.097l-1.277 4.572H65.9l-1.71-6.207h1.242l1.111 4.736h.092l1.276-4.736h1.175l1.276 4.736h.097l1.107-4.736h1.225l-1.705 6.207zm4.325-6.207h-1.18v6.207h1.225V16.63a1.423 1.423 0 011.482-1.573c.906 0 1.34.496 1.34 1.493v3.71h1.225v-4.017a2.019 2.019 0 00-2.149-2.309 1.858 1.858 0 00-1.852 1.106h-.091v-.986zm10.348.321a2.94 2.94 0 00-1.377 2.779 2.941 2.941 0 105.855 0 2.94 2.94 0 00-4.478-2.779zm3.22 2.78c0-1.346-.605-2.132-1.666-2.132-1.065 0-1.664.787-1.664 2.132 0 1.356.6 2.137 1.664 2.137 1.06 0 1.665-.786 1.665-2.137zm4.858-.5c-1.477.09-2.309.735-2.309 1.852a1.875 1.875 0 002.07 1.857 2.088 2.088 0 001.864-.974h.096v.872h1.18v-4.24c0-1.312-.878-2.086-2.434-2.086-1.408 0-2.41.684-2.536 1.75h1.186c.136-.44.61-.69 1.293-.69.838 0 1.271.37 1.271 1.025v.536l-1.681.097zm1.68 1.32v-.519L94 17.553c-.855.057-1.242.348-1.242.895 0 .559.484.884 1.15.884a1.463 1.463 0 001.608-1.357zm5.404-4.024c-1.568 0-2.576 1.242-2.576 3.204 0 1.966.997 3.208 2.576 3.208a2.154 2.154 0 001.949-1.083h.097v.98h1.174v-8.629h-1.225v3.409h-.092a2.044 2.044 0 00-1.903-1.089zm-1.307 3.205c0 1.317.621 2.109 1.659 2.109 1.032 0 1.67-.804 1.67-2.103 0-1.294-.645-2.109-1.67-2.109-1.031 0-1.659.797-1.659 2.103zm10.973-2.779a2.94 2.94 0 00-1.377 2.779 2.943 2.943 0 004.479 2.783 2.939 2.939 0 001.375-2.783 2.94 2.94 0 00-4.477-2.779zm3.219 2.778c0-1.346-.604-2.132-1.665-2.132-1.065 0-1.663.787-1.663 2.132 0 1.356.599 2.137 1.663 2.137 1.061 0 1.665-.786 1.665-2.137zm4.077-3.102h-1.179v6.207h1.225v-3.63a1.423 1.423 0 011.482-1.574c.906 0 1.34.496 1.34 1.494v3.71h1.224v-4.018a2.018 2.018 0 00-2.148-2.308 1.858 1.858 0 00-1.852 1.106h-.092v-.986zm11.021-1.544v1.574h1.345v1.031h-1.345v3.192c0 .65.268.935.878.935.156 0 .312-.01.467-.029v1.02c-.22.04-.443.061-.667.063-1.362 0-1.904-.479-1.904-1.676v-3.505h-.986v-1.032h.986V12.51h1.226zm4.225-.878h-1.214v8.63h1.225v-3.625a1.45 1.45 0 011.563-1.574c.865 0 1.327.502 1.327 1.494v3.705h1.226v-4.008a2.046 2.046 0 00-2.137-2.313 1.911 1.911 0 00-1.893 1.112h-.097v-3.42zm11.271 6.953a2.519 2.519 0 01-2.689 1.795 2.818 2.818 0 01-2.867-3.203 2.864 2.864 0 012.862-3.243c1.727 0 2.768 1.18 2.768 3.129v.427h-4.382v.069a1.638 1.638 0 001.653 1.778 1.487 1.487 0 001.476-.752h1.179zm-1.173-1.999h-3.135a1.587 1.587 0 011.607-1.608 1.498 1.498 0 011.528 1.608zM32.137 10.818a6.984 6.984 0 01-1.598 5.003 5.875 5.875 0 01-4.639 2.194 6.646 6.646 0 011.64-4.818 7.106 7.106 0 014.597-2.379zm5.697 10.648a7.093 7.093 0 00-3.378 5.951 6.855 6.855 0 004.184 6.306 15.711 15.711 0 01-2.176 4.432c-1.282 1.918-2.626 3.792-4.76 3.826-1.014.024-1.7-.268-2.413-.572-.744-.317-1.52-.648-2.734-.648-1.287 0-2.098.341-2.88.67-.675.285-1.329.56-2.25.598-2.032.075-3.585-2.047-4.913-3.946-2.656-3.88-4.724-10.934-1.952-15.733a7.619 7.619 0 016.412-3.91c1.152-.024 2.258.42 3.227.81.742.297 1.403.563 1.945.563.476 0 1.12-.255 1.87-.552 1.18-.47 2.625-1.043 4.097-.888a7.261 7.261 0 015.72 3.093z" fill="#000"/></svg>