<svg width="165" height="56" viewBox="0 0 165 56" fill="none" xmlns="http://www.w3.org/2000/svg"><path d="M151.865 0H13.201c-.506 0-1.005 0-1.509.003-.422.003-.84.01-1.267.017C9.5.031 8.576.113 7.663.264a9.187 9.187 0 00-2.62.864 8.874 8.874 0 00-3.855 3.86A9.099 9.099 0 00.326 7.61a17.91 17.91 0 00-.247 2.76c-.012.422-.014.846-.02 1.269V43.5c.006.428.008.842.02 1.27.011.925.094 1.848.247 2.76.152.913.443 1.799.862 2.624a8.555 8.555 0 001.624 2.225 8.648 8.648 0 002.231 1.625c.825.42 1.708.713 2.62.87.914.15 1.837.231 2.762.243.426.01.845.015 1.267.015.504.003 1.003.003 1.509.003h138.664c.495 0 .999 0 1.494-.003.42 0 .851-.005 1.271-.015a18.29 18.29 0 002.756-.243 9.384 9.384 0 002.631-.87 8.665 8.665 0 002.229-1.624 8.797 8.797 0 001.628-2.226 9.098 9.098 0 00.854-2.624c.153-.913.239-1.835.256-2.76.005-.428.005-.843.005-1.27.011-.501.011-1 .011-1.508V13.145c0-.505 0-1.006-.011-1.505 0-.423 0-.847-.005-1.27a18.768 18.768 0 00-.256-2.76 9.123 9.123 0 00-.854-2.623 8.91 8.91 0 00-3.857-3.859 9.333 9.333 0 00-2.631-.864A17.964 17.964 0 00154.63.02c-.42-.006-.851-.015-1.271-.017C152.864 0 152.36 0 151.865 0z" fill="#fff"/><path fill-rule="evenodd" clip-rule="evenodd" d="M57.242 31.61v2.199h5.278a4.606 4.606 0 01-1.222 2.773 5.4 5.4 0 01-4.069 1.613 5.865 5.865 0 010-11.73 5.62 5.62 0 013.996 1.577l1.551-1.552a7.685 7.685 0 00-5.534-2.285 8.076 8.076 0 100 16.14 7.33 7.33 0 005.632-2.26 7.331 7.331 0 001.906-5.156 7.175 7.175 0 00-.122-1.38l-7.416.06zm13.548-1.601a5.193 5.193 0 105.205 5.192 5.12 5.12 0 00-5.218-5.192h.013zm6.206 5.209a5.193 5.193 0 015.168-5.21 5.119 5.119 0 015.217 5.193 5.193 5.193 0 01-10.385.017zm2.105 1.352a3.152 3.152 0 003.065 1.785 3.005 3.005 0 002.932-3.152A3.152 3.152 0 1079.1 36.57zm-11.383.008a3.152 3.152 0 003.073 1.776h-.013a3.006 3.006 0 002.933-3.152 3.152 3.152 0 10-5.993 1.376zm40.433-6.568a4.886 4.886 0 014.447 3.311l.257.55-6.952 2.871a2.64 2.64 0 002.517 1.577 2.966 2.966 0 002.553-1.442l1.772 1.222a5.167 5.167 0 01-4.325 2.297 5.081 5.081 0 01-5.156-5.193 4.888 4.888 0 014.887-5.193zm-2.641 5.047a2.844 2.844 0 012.712-3.03 2.016 2.016 0 011.931 1.1l-4.643 1.93zm-3.358 5.033h-2.285V24.818h2.285V40.09zm-6.022-8.92h-.085a3.666 3.666 0 00-2.737-1.221 5.205 5.205 0 000 10.397 3.543 3.543 0 002.736-1.222h.074v.746c0 1.991-1.063 3.054-2.774 3.054a2.871 2.871 0 01-2.614-1.845l-1.992.831a4.948 4.948 0 004.606 3.067c2.676 0 4.888-1.576 4.888-5.413v-9.249H96.13v.856zm-2.62 7.185h.005-.013.009zm2.06-.98a2.908 2.908 0 01-2.06.98 3.164 3.164 0 01.005-6.304 2.933 2.933 0 012.773 3.152 2.908 2.908 0 01-.718 2.172zm27.732-12.56h-5.461v15.273h2.284v-5.791h3.189a4.753 4.753 0 100-9.481h-.012zm-3.188 7.332h3.189l.048.037a2.62 2.62 0 100-5.242h-3.237v5.205zm17.276-2.197a4.277 4.277 0 00-4.069 2.333l2.028.843a2.164 2.164 0 012.078-1.124 2.2 2.2 0 012.443 1.967v.16a5.046 5.046 0 00-2.382-.587c-2.187 0-4.399 1.222-4.399 3.433a3.534 3.534 0 003.788 3.36 3.213 3.213 0 002.932-1.466h.073v1.222h2.2v-5.877c0-2.676-2.029-4.228-4.631-4.228l-.061-.036zm-2.062 7.073c0 .916 1.039 1.295 1.784 1.295l.061.036a2.762 2.762 0 002.676-2.443 4.058 4.058 0 00-2.077-.513c-1.149 0-2.444.403-2.444 1.625zm14.77-6.707l-2.615 6.622h-.073l-2.713-6.622h-2.443l4.068 9.262-2.321 5.143h2.383l6.255-14.405h-2.541zm-18.254 9.774h-2.285V24.818h2.285V40.09zM83.468 12.93a3.958 3.958 0 000 5.437 3.812 3.812 0 005.376 0 3.946 3.946 0 000-5.437 3.787 3.787 0 00-5.376 0zm-27.536 5.46a3.312 3.312 0 00.917-2.443c0-.185-.017-.369-.05-.55h-3.555v.88h2.652a2.31 2.31 0 01-.611 1.49 2.883 2.883 0 01-4.887-2.114 2.835 2.835 0 012.846-2.932c.767-.042 1.51.28 2.004.868l.648-.648a3.017 3.017 0 00-1.149-.819 3.787 3.787 0 00-1.503-.305 3.665 3.665 0 00-2.7 1.1 3.848 3.848 0 002.7 6.56 3.556 3.556 0 002.688-1.087zm3.214-5.496h3.299v-.905h-4.276v7.331h4.276v-.904h-3.299v-2.321h3.006v-.88h-3.006v-2.321zm7.305 6.426h-.941v-6.426h-2.053v-.905h5.095v.905h-2.101v6.426zm5.694-7.33v7.33h.94v-7.33h-.94zm5.122 7.33h-.941v-6.427h-2.053v-.904h5.034v.904h-2.04v6.427zm6.899-1.566a2.822 2.822 0 003.983 0 3.128 3.128 0 000-4.203 2.822 2.822 0 00-3.983 0 3.128 3.128 0 000 4.203zm7.092-5.765v7.331h.953v-5.975l3.726 5.975h.978v-7.33h-.941v5.705l-3.568-5.706h-1.148z" fill="#000"/><path d="M83.468 18.367l-.09.084.004.002.086-.086zm0-5.437l-.087-.086-.002.002.089.084zm5.376 5.437l.086.086.002-.002-.088-.084zm0-5.437l.088-.085-.002-.001-.086.086zm-31.995 3.017h-.123v.005l.123-.005zm-.917 2.443l.088.085-.088-.085zm.868-2.993l.12-.022-.018-.1H56.8v.122zm-3.556 0v-.122h-.122v.122h.122zm0 .88h-.122v.122h.122v-.122zm2.652 0l.122.004.004-.127h-.126v.123zm-.611 1.49l.085.088.005-.005-.09-.083zm-3.149.573l.049-.112-.049.112zm-1.738-2.687l.122.002v-.006l-.122.005zm.799-2.072l.087.085-.087-.085zm2.047-.86v.123h.007l-.007-.123zm2.004.868l-.093.078.085.102.094-.094-.086-.086zm.648-.648l.086.086.08-.08-.074-.086-.092.08zm-1.149-.819l-.048.113h.003l.045-.112zm-1.503-.305l-.002.122h.003v-.122zm-2.7 1.1l.087.086-.087-.086zm-.828 4.177l.112-.047-.113.047zm3.528 2.384l.005-.123h-.004v.123zm9.2-6.584v.122h.123v-.122h-.122zm-3.298 0v-.123h-.122v.123h.122zm3.299-.905h.122v-.122h-.122v.122zm-4.276 0v-.122h-.123v.122h.123zm0 7.331h-.123v.122h.123v-.122zm4.276 0v.122h.122v-.122h-.122zm0-.904h.122v-.122h-.122v.122zm-3.299 0h-.122v.122h.122v-.122zm0-2.321v-.122h-.122v.122h.122zm3.006 0v.122h.122v-.122h-.122zm0-.88h.122v-.122h-.122v.122zm-3.006 0h-.122v.122h.122v-.122zm6.364 4.105h-.122v.122h.122v-.122zm.94 0v.122h.123v-.122h-.122zm-.94-6.426h.122v-.123h-.122v.123zm-2.053 0h-.122v.122h.122v-.122zm0-.905v-.122h-.122v.122h.122zm5.095 0h.122v-.122h-.122v.122zm0 .905v.122h.122v-.122h-.122zm-2.101 0v-.123h-.123v.123h.123zm5.694 6.426h-.123v.122h.122v-.122zm0-7.33v-.123h-.123v.122h.122zm.94 7.33v.122h.123v-.122h-.123zm0-7.33h.123v-.123h-.123v.122zm3.241 7.33h-.122v.122h.122v-.122zm.94 0v.122h.123v-.122h-.122zm-.94-6.427h.122v-.122h-.122v.122zm-2.053 0h-.122v.123h.122v-.123zm0-.904v-.122h-.122v.122h.122zm5.034 0h.122v-.122h-.122v.122zm0 .904v.123h.122v-.123h-.122zm-2.04 0v-.122h-.122v.122h.122zm10.882 4.861l.086.087.004-.005-.09-.082zm-3.983 0l-.091.082.004.005.087-.087zm3.983-4.203l.09-.082-.004-.004-.086.086zm-3.983 0l-.087-.086-.004.004.09.082zm7.092 5.769h-.122v.122h.122v-.122zm0-7.33v-.123h-.122v.122h.122zm.953 7.33v.122h.122v-.122h-.122zm0-5.975l.103-.064-.225-.362v.426h.122zm3.726 5.975l-.103.065.035.057h.068v-.122zm.978 0v.122h.122v-.122h-.122zm0-7.33h.122v-.123h-.122v.122zm-.941 0v-.123h-.122v.122h.122zm0 5.705l-.104.065.226.36v-.425h-.122zm-3.568-5.706l.104-.065-.036-.057h-.068v.122zm-8.85 6.294a3.836 3.836 0 010-5.27l-.177-.167a4.08 4.08 0 000 5.605l.178-.168zm5.201-.003a3.69 3.69 0 01-5.203 0l-.172.173a3.934 3.934 0 005.548 0l-.173-.173zm-.002-5.266a3.824 3.824 0 010 5.268l.177.169a4.069 4.069 0 000-5.606l-.177.169zm-2.6-1.081c.977 0 1.914.39 2.602 1.083l.173-.172a3.91 3.91 0 00-2.774-1.156v.245zm-2.6 1.083a3.665 3.665 0 012.6-1.083v-.245a3.91 3.91 0 00-2.774 1.156l.174.172zm-26.828 2.936a3.189 3.189 0 01-.883 2.354l.177.169c.65-.68.993-1.595.95-2.534l-.244.011zm-.047-.534c.03.175.047.352.047.529h.244a3.23 3.23 0 00-.05-.572l-.242.043zm-3.436.101H56.8v-.244h-3.556v.244zm.123.758v-.88h-.245v.88h.245zm2.529-.123h-2.652v.245h2.652v-.245zm-.521 1.696c.395-.429.624-.986.643-1.57l-.244-.007a2.187 2.187 0 01-.579 1.411l.18.166zm-3.287.603a3.005 3.005 0 003.282-.598l-.17-.176a2.761 2.761 0 01-3.015.55l-.097.224zm-1.813-2.801a3.005 3.005 0 001.813 2.8l.097-.224a2.761 2.761 0 01-1.665-2.573l-.245-.003zm.834-2.156a2.957 2.957 0 00-.834 2.162l.245-.009a2.713 2.713 0 01.764-1.983l-.175-.17zm2.136-.897a2.956 2.956 0 00-2.136.897l.175.17a2.713 2.713 0 011.96-.823l.001-.244zm2.097.911a2.566 2.566 0 00-2.104-.91l.013.243a2.321 2.321 0 011.904.824l.187-.157zm.467-.655l-.647.647.172.173.648-.648-.173-.172zm-1.107-.62c.424.172.801.441 1.102.786l.184-.16a3.14 3.14 0 00-1.195-.852l-.091.227zm-1.457-.296c.5-.001.995.1 1.454.296l.096-.225a3.909 3.909 0 00-1.551-.315v.244zm-2.613 1.063a3.543 3.543 0 012.61-1.063l.005-.244a3.787 3.787 0 00-2.79 1.136l.175.171zm-.803 4.045a3.726 3.726 0 01.802-4.044l-.173-.172a3.97 3.97 0 00-.855 4.31l.225-.094zm3.416 2.308a3.726 3.726 0 01-3.416-2.308l-.227.093a3.97 3.97 0 003.641 2.46l.002-.245zm2.6-1.05a3.433 3.433 0 01-2.596 1.05l-.009.245a3.678 3.678 0 002.78-1.125l-.176-.17zm6.6-5.534h-3.299v.245h3.299v-.245zm-.122-.782v.905h.244v-.905h-.244zm-4.154.123h4.276v-.245h-4.276v.245zm.122 7.208v-7.33h-.245v7.33h.245zm4.154-.122h-4.276v.244h4.276v-.244zm-.122-.782v.904h.244v-.904h-.244zm-3.177.122h3.299v-.244h-3.299v.244zm-.122-2.443v2.321h.244v-2.321h-.244zm3.128-.122h-3.006v.244h3.006v-.244zm-.123-.758v.88h.245v-.88h-.245zm-2.883.122h3.006v-.244h-3.006v.244zm-.122-2.443v2.321h.244v-2.321h-.244zm6.486 6.548h.94v-.244h-.94v.244zm-.122-6.548v6.426h.244v-6.426h-.244zm-1.93.122h2.052v-.245h-2.053v.245zm-.123-1.027v.905h.244v-.905h-.244zm5.217-.122h-5.095v.245h5.095v-.245zm.122 1.027v-.905h-.244v.905h.244zm-2.223.122h2.101v-.245h-2.101v.245zm.122 6.304v-6.426h-.245v6.426h.245zm5.694 0v-7.33h-.245v7.33h.245zm.818-.122h-.94v.244h.94v-.244zm-.122-7.209v7.331h.245v-7.33h-.245zm-.819.122h.941v-.244h-.94v.244zm4.182 7.331h.94v-.244h-.94v.244zm-.122-6.549v6.427h.244v-6.427h-.244zm-1.93.123h2.052v-.245h-2.053v.245zm-.123-1.027v.904h.245v-.904h-.245zm5.156-.122h-5.034v.244h5.034v-.244zm.122 1.026v-.904h-.244v.904h.244zm-2.162.123h2.04v-.245h-2.04v.245zm.122 6.304v-6.427h-.244v6.427h.244zm10.674-1.652a2.7 2.7 0 01-3.811 0l-.173.173a2.945 2.945 0 004.156 0l-.172-.173zm-.005-4.034a3.005 3.005 0 010 4.038l.181.164a3.25 3.25 0 000-4.367l-.18.165zm-3.806.004a2.7 2.7 0 013.81 0l.173-.173a2.945 2.945 0 00-4.156 0l.173.173zm.004 4.034a3.006 3.006 0 010-4.039l-.18-.164a3.25 3.25 0 000 4.367l.18-.164zm7.124 1.648v-7.33h-.244v7.33h.244zm.83-.122h-.952v.244h.953v-.244zm-.121-5.853v5.975h.244v-5.975h-.244zm3.952 5.91l-3.727-5.974-.207.13 3.727 5.974.207-.13zm.874-.057h-.978v.244h.978v-.244zm-.123-7.209v7.331h.245v-7.33h-.245zm-.818.122h.94v-.244h-.94v.244zm.122 5.584v-5.706h-.244v5.706h.244zm-3.793-5.641l3.567 5.706.207-.13-3.567-5.705-.207.129zm-1.045.057h1.148v-.244h-1.148v.244z" fill="#000"/><path d="M11.664 12.648c-.398.478-.6 1.09-.562 1.71v27.026a2.443 2.443 0 00.562 1.71l.086.087 15.137-15.126V27.7L11.75 12.563l-.086.085z" fill="url(#paint0_linear)"/><path d="M31.896 33.101l-5.01-5.046v-.354l5.01-5.058.11.06 5.999 3.41c1.71.965 1.71 2.553 0 3.53L32.03 33.04l-.134.061z" fill="url(#paint1_linear)"/><path d="M32.044 33.027l-5.156-5.156-15.224 15.224c.72.632 1.787.663 2.541.073l17.85-10.141" fill="url(#paint2_linear)"/><path d="M32.044 22.716l-17.85-10.141a1.992 1.992 0 00-2.542.073l15.236 15.224 5.156-5.156z" fill="url(#paint3_linear)"/><path opacity=".2" d="M31.897 32.919l-17.704 10.08a2.04 2.04 0 01-2.443 0l-.086.085.086.086a2.03 2.03 0 002.443 0l17.85-10.141-.146-.11z" fill="#000"/><path opacity=".12" fill-rule="evenodd" clip-rule="evenodd" d="M31.894 32.917l6.11-3.458a2.273 2.273 0 001.221-1.588 2.138 2.138 0 01-1.222 1.76l-5.999 3.396-.11-.11zM11.1 41.45c.02.538.218 1.056.565 1.473l.086.098-.086.085a2.444 2.444 0 01-.565-1.656zm0 0l.003-.054v-.184a2.37 2.37 0 00-.003.238z" fill="#000"/><path opacity=".25" d="M14.193 12.747l23.813 13.537a2.273 2.273 0 011.222 1.589 2.138 2.138 0 00-1.222-1.76L14.193 12.576c-1.71-.965-3.103-.159-3.103 1.796v.183c.037-1.967 1.405-2.773 3.103-1.808z" fill="#fff"/><defs><linearGradient id="paint0_linear" x1="20.257" y1="-5.8" x2="-3.982" y2=".647" gradientUnits="userSpaceOnUse"><stop stop-color="#00A0FF"/><stop offset=".01" stop-color="#00A1FF"/><stop offset=".26" stop-color="#00BEFF"/><stop offset=".51" stop-color="#00D2FF"/><stop offset=".76" stop-color="#00DFFF"/><stop offset="1" stop-color="#00E3FF"/></linearGradient><linearGradient id="paint1_linear" x1="40.241" y1="15.409" x2="10.686" y2="15.409" gradientUnits="userSpaceOnUse"><stop stop-color="#FFE000"/><stop offset=".41" stop-color="#FFBD00"/><stop offset=".78" stop-color="orange"/><stop offset="1" stop-color="#FF9C00"/></linearGradient><linearGradient id="paint2_linear" x1="11.217" y1="19.963" x2="-8.254" y2="52.715" gradientUnits="userSpaceOnUse"><stop stop-color="#FF3A44"/><stop offset="1" stop-color="#C31162"/></linearGradient><linearGradient id="paint3_linear" x1="-.223" y1="8.44" x2="8.468" y2="23.066" gradientUnits="userSpaceOnUse"><stop stop-color="#32A071"/><stop offset=".07" stop-color="#2DA771"/><stop offset=".48" stop-color="#15CF74"/><stop offset=".8" stop-color="#06E775"/><stop offset="1" stop-color="#00F076"/></linearGradient></defs></svg>