<svg width="480" height="480" viewBox="0 0 480 480" fill="none" xmlns="http://www.w3.org/2000/svg"><g clip-path="url(#clip0_77_258)"><g clip-path="url(#clip1_77_258)"><path d="M70.184 0h339.634v480H70.184V0z" fill="#fff"/><path d="M-99.632 0H70.185v480H-99.632V0zm509.45 0h169.816v480H409.819l-.001-480zM120.971 231.947l-13.188 4.507 61.365 53.856c4.641 13.841-1.612 17.921-5.597 25.181l66.619-8.456-1.734 67.042 13.798-.396-3.009-66.486 66.684 7.905c-4.127-8.716-7.8-13.343-3.982-27.279l61.326-51.024-10.732-3.885c-8.775-6.771 3.792-32.61 5.687-48.917 0 0-35.807 12.314-38.154 5.87l-9.119-17.517-32.575 35.784c-3.559.854-5.075-.562-5.91-3.57l15.049-74.78-23.831 13.403c-1.995.853-3.99.118-5.304-2.207l-22.922-45.994-23.635 47.765c-1.781 1.712-3.565 1.91-5.045.747l-22.691-12.73 13.621 74.197c-1.083 2.944-3.678 3.773-6.731 2.179l-31.14-35.379c-4.073 6.527-6.834 17.19-12.218 19.58-5.385 2.238-23.419-4.522-35.506-7.16 4.129 14.902 17.04 39.658 8.869 47.772l.005-.008z" fill="#BF0A30"/></g></g><defs><clipPath id="clip0_77_258"><rect width="480" height="480" rx="240" fill="#fff"/></clipPath><clipPath id="clip1_77_258"><path fill="#fff" transform="translate(-80)" d="M0 0h640v480H0z"/></clipPath></defs></svg>