<svg width="480" height="480" viewBox="0 0 480 480" fill="none" xmlns="http://www.w3.org/2000/svg"><g clip-path="url(#clip0_77_258)"><g clip-path="url(#clip1_77_258)"><path d="M-240.64 0h962.579v481.289H-240.64V0z" fill="#006"/><path d="M-240.64 0v53.81l854.963 427.48h107.616v-53.807L-133.024 0H-240.64zm962.579 0v53.808L-133.024 481.29H-240.64v-53.808L614.323 0h107.616z" fill="#fff"/><path d="M160.434 0v481.289h160.43V0h-160.43zM-240.64 160.43v160.43h962.579V160.43H-240.64z" fill="#fff"/><path d="M-240.64 192.516v96.258h962.579v-96.258H-240.64zM192.521 0v481.289h96.256V0h-96.256zM-240.64 481.289L80.22 320.86h71.744l-320.859 160.429h-71.745zm0-481.289L80.22 160.43H8.475L-240.64 35.874V0zm569.975 160.43L650.194 0h71.745l-320.86 160.43h-71.744zm392.604 320.859L401.079 320.86h71.745l249.115 124.557v35.872z" fill="#C00"/></g></g><defs><clipPath id="clip0_77_258"><rect width="480" height="480" rx="240" fill="#fff"/></clipPath><clipPath id="clip1_77_258"><path fill="#fff" transform="translate(-80)" d="M0 0h640v480H0z"/></clipPath></defs></svg>