<svg width="480" height="480" viewBox="0 0 480 480" fill="none" xmlns="http://www.w3.org/2000/svg"><g clip-path="url(#clip0_77_258)"><path d="M-80 0h640v160H-80V0z" fill="#F93"/><path d="M-80 160h640v160H-80V160z" fill="#fff"/><path d="M-80 320h640v160H-80V320z" fill="#128807"/><path d="M240 304c35.346 0 64-28.654 64-64 0-35.346-28.654-64-64-64-35.346 0-64 28.654-64 64 0 35.346 28.654 64 64 64z" fill="#008"/><path d="M240 296c30.928 0 56-25.072 56-56s-25.072-56-56-56-56 25.072-56 56 25.072 56 56 56z" fill="#fff"/><path d="M240 251.2c6.186 0 11.2-5.014 11.2-11.2 0-6.186-5.014-11.2-11.2-11.2-6.186 0-11.2 5.014-11.2 11.2 0 6.186 5.014 11.2 11.2 11.2zm55.156-1.114a2.8 2.8 0 10.729-5.554 2.8 2.8 0 00-.729 5.554z" fill="#008"/><path d="M240 296l1.92-33.6-1.92-16-1.92 16L240 296z" fill="#008"/></g><defs><clipPath id="clip0_77_258"><rect width="480" height="480" rx="240" fill="#fff"/></clipPath></defs></svg>