<svg width="480" height="480" viewBox="0 0 480 480" fill="none" xmlns="http://www.w3.org/2000/svg"><g clip-path="url(#clip0_77_258)"><g clip-path="url(#clip1_77_258)"><path fill-rule="evenodd" clip-rule="evenodd" d="M.004 0h640v480h-640V0z" fill="#00247D"/><path d="M.004 0L364.09 219.417.004 0zm0 219.417L364.09 0z" fill="#000"/><path d="M.004 219.417L364.09 0M.004 0L364.09 219.417.004 0z" stroke="#fff" stroke-width="39.972"/><path d="M.004 0L364.09 219.417.004 0zm0 219.417L364.09 0z" fill="#000"/><path d="M.004 219.417L364.09 0M.004 0L364.09 219.417.004 0z" stroke="#CC142B" stroke-width="26.648"/><path d="M151.707-.002v79.37H.004v60.68h151.703v79.37h60.682v-79.37h151.703v-60.68H212.389V-.002h-60.682z" fill="#fff"/><path d="M163.844.002v91.502H.004v36.408h163.84v91.502h36.408v-91.502h163.84V91.504h-163.84V.002h-36.408z" fill="#CC142B"/></g></g><defs><clipPath id="clip0_77_258"><rect width="480" height="480" rx="240" fill="#fff"/></clipPath><clipPath id="clip1_77_258"><path fill="#fff" d="M0 0h640v480H0z"/></clipPath></defs></svg>