<svg width="480" height="480" viewBox="0 0 480 480" fill="none" xmlns="http://www.w3.org/2000/svg"><g clip-path="url(#clip0_77_258)"><g clip-path="url(#clip1_77_258)" fill-rule="evenodd" clip-rule="evenodd"><path d="M-80 0h912v37H-80V0zm0 73.9h912v37H-80v-37zm0 73.8h912v37H-80v-37zm0 73.8h912v37H-80v-37zm0 74h912v36.8H-80v-36.8zm0 73.7h912v37H-80v-37zm0 73.8h912v37H-80v-37z" fill="#BD3D44"/><path d="M-80 37h912v36.9H-80V37zm0 73.8h912v36.9H-80v-36.9zm0 73.8h912v37H-80v-37zm0 73.9h912v37H-80v-37zm0 73.8h912v37H-80v-37zm0 73.8h912v37H-80v-37z" fill="#fff"/><path d="M-80 0h364.8v258.5H-80V0z" fill="#192F5D"/><path d="M-49.6 11l3.4 10.3h10.6l-8.6 6.3 3.3 10.3-8.7-6.4-8.6 6.3 3.2-10.2-8.7-6.3h10.9l3.2-10.3zm60.8 0l3.3 10.3h10.8l-8.7 6.3 3.2 10.3-8.6-6.4-8.7 6.3 3.3-10.2-8.6-6.3H7.8L11.2 11zM72 11l3.3 10.3H86l-8.6 6.3 3.3 10.3-8.7-6.4-8.7 6.3 3.3-10.2-8.7-6.3h10.8L72 11zm60.8 0l3.3 10.3h10.8l-8.7 6.3 3.3 10.3-8.7-6.4-8.7 6.3 3.4-10.2-8.8-6.3h10.7l3.4-10.3zm60.8 0l3.3 10.3h10.7l-8.6 6.3 3.3 10.3-8.7-6.4-8.7 6.3 3.3-10.2-8.6-6.3h10.7l3.3-10.3zm60.8 0l3.3 10.3h10.8l-8.8 6.3 3.4 10.3-8.7-6.4-8.7 6.3 3.4-10.2-8.8-6.3h10.8l3.3-10.3zM-19.2 37l3.3 10.2H-5l-8.7 6.2 3.2 10.3-8.5-6.3-8.7 6.3 3.1-10.3-8.4-6.2h10.7l3.1-10.2zm60.8 0L45 47.2h10.7l-8.8 6.2 3.4 10.3-8.7-6.3-8.7 6.3 3.3-10.3-8.7-6.2h10.8L41.6 37zm60.8 0l3.3 10.2h10.8l-8.7 6.2 3.3 10.3-8.7-6.3-8.7 6.3L97 53.4l-8.6-6.2H99l3.4-10.2zm60.8 0l3.4 10.2h10.7l-8.8 6.2 3.4 10.3-8.7-6.3-8.6 6.3 3.2-10.3-8.7-6.2H160l3.2-10.2zm60.8 0l3.3 10.2h10.8l-8.7 6.2 3.3 10.3-8.7-6.3-8.7 6.3 3.3-10.3-8.6-6.2h10.7L224 37zM-49.6 62.6l3.4 10.4h10.6l-8.6 6.3 3.3 10.2-8.7-6.3-8.6 6.3 3.2-10.2-8.7-6.3h10.9l3.2-10.4zm60.8 0L14.5 73h10.8l-8.7 6.3 3.2 10.2-8.6-6.3-8.7 6.3 3.3-10.3-8.6-6.3H7.8l3.4-10.3zm60.8 0l3.3 10.3H86l-8.6 6.3 3.3 10.2-8.7-6.3-8.7 6.3 3.3-10.3-8.7-6.3h10.8L72 62.6zm60.8 0l3.3 10.3h10.8l-8.7 6.3 3.3 10.2-8.7-6.3-8.7 6.3 3.4-10.3-8.8-6.3h10.7l3.4-10.2zm60.8 0l3.3 10.3h10.7l-8.6 6.3 3.3 10.2-8.7-6.3-8.7 6.3 3.3-10.3-8.6-6.3h10.7l3.3-10.2zm60.8 0l3.3 10.3h10.8l-8.8 6.3 3.4 10.2-8.7-6.3-8.7 6.3 3.4-10.3-8.8-6.3h10.8l3.3-10.2zm-273.6 26l3.3 10.2H-5l-8.7 6.3 3.3 10.3-8.7-6.4-8.7 6.3 3.3-10.2-8.6-6.3h10.7l3.2-10.2zm60.8 0L45 98.8h10.7l-8.8 6.3 3.4 10.3-8.7-6.4-8.7 6.3 3.3-10.2-8.7-6.3h10.8l3.3-10.2zm60.8 0l3.3 10.2h10.8l-8.7 6.3 3.3 10.3-8.7-6.4-8.7 6.3 3.3-10.2-8.6-6.3H99l3.4-10.2zm60.8 0l3.4 10.2h10.7l-8.7 6.3 3.3 10.3-8.7-6.4-8.6 6.3 3.2-10.2-8.7-6.3H160l3.2-10.2zm60.8 0l3.3 10.2h10.8l-8.7 6.3 3.3 10.3-8.7-6.4-8.7 6.3 3.3-10.2-8.6-6.3h10.7l3.3-10.2zm-273.6 25.9l3.4 10.2h10.6l-8.6 6.3 3.3 10.3-8.7-6.4-8.6 6.3L-55 131l-8.7-6.3h10.9l3.2-10.2zm60.8 0l3.3 10.2h10.8l-8.7 6.3 3.2 10.2-8.6-6.3-8.7 6.3L5.8 131l-8.6-6.3H7.8l3.4-10.2zm60.8 0l3.3 10.2H86l-8.6 6.3 3.3 10.3-8.7-6.4-8.7 6.3 3.3-10.2-8.7-6.3h10.8l3.3-10.2zm60.8 0l3.3 10.2h10.8l-8.7 6.3 3.3 10.3-8.7-6.4-8.7 6.3 3.4-10.2-8.8-6.3h10.7l3.4-10.2zm60.8 0l3.3 10.2h10.7L199 131l3.3 10.3-8.7-6.4-8.7 6.3 3.3-10.2-8.6-6.3h10.7l3.3-10.2zm60.8 0l3.3 10.2h10.8l-8.8 6.3 3.4 10.3-8.7-6.4-8.7 6.3L249 131l-8.8-6.3H251l3.4-10.2zm-273.6 25.8l3.3 10.3H-5l-8.7 6.2 3.3 10.3-8.7-6.4-8.7 6.4 3.3-10.3-8.6-6.3h10.7l3.2-10.2zm60.8 0l3.4 10.3h10.7l-8.8 6.2 3.4 10.3-8.7-6.4-8.7 6.4 3.3-10.3-8.7-6.3h10.8l3.3-10.2zm60.8 0l3.3 10.3h10.8l-8.7 6.2 3.3 10.3-8.7-6.4-8.7 6.4 3.3-10.3-8.6-6.3H99l3.4-10.2zm60.8 0l3.4 10.3h10.7l-8.7 6.2 3.3 10.3-8.7-6.4-8.6 6.4 3.2-10.3-8.7-6.3H160l3.2-10.2zm60.8 0l3.3 10.3h10.8l-8.7 6.2 3.3 10.3-8.7-6.4-8.7 6.4 3.3-10.3-8.6-6.3h10.7l3.3-10.2zm-273.6 25.8l3.4 10.3h10.6l-8.6 6.3 3.3 10.1-8.7-6.2-8.6 6.2 3.2-10.2-8.7-6.3h10.9l3.2-10.2zm60.8 0l3.3 10.3h10.8l-8.7 6.3 3.3 10.1-8.7-6.2-8.7 6.2 3.4-10.2-8.7-6.3H7.8l3.4-10.2zm60.8 0l3.3 10.3H86l-8.6 6.3 3.3 10.1-8.7-6.2-8.7 6.2 3.3-10.2-8.7-6.3h10.8l3.3-10.2zm60.8 0l3.3 10.3h10.8l-8.7 6.3 3.3 10.1-8.7-6.2-8.7 6.2 3.4-10.2-8.8-6.3h10.7l3.4-10.2zm60.8 0l3.3 10.3h10.7l-8.6 6.3 3.3 10.1-8.7-6.2-8.7 6.2 3.3-10.2-8.6-6.3h10.7l3.3-10.2zm60.8 0l3.3 10.3h10.8l-8.8 6.3 3.4 10.1-8.7-6.2-8.7 6.2 3.4-10.2-8.8-6.3h10.8l3.3-10.2zM-19.2 192l3.3 10.2H-5l-8.7 6.3 3.3 10.3-8.7-6.4-8.7 6.3 3.3-10.2-8.6-6.3h10.7l3.2-10.2zm60.8 0l3.4 10.2h10.7l-8.8 6.3 3.4 10.3-8.7-6.4-8.7 6.3 3.3-10.2-8.7-6.3h10.8l3.3-10.2zm60.8 0l3.3 10.2h10.8l-8.7 6.3 3.3 10.3-8.7-6.4-8.7 6.3 3.3-10.2-8.6-6.3H99l3.4-10.2zm60.8 0l3.4 10.2h10.7l-8.7 6.3 3.3 10.3-8.7-6.4-8.6 6.3 3.2-10.2-8.7-6.3H160l3.2-10.2zm60.8 0l3.3 10.2h10.8l-8.7 6.3 3.3 10.3-8.7-6.4-8.7 6.3 3.3-10.2-8.6-6.3h10.7L224 192zm-273.6 25.9l3.4 10.2h10.6l-8.6 6.3 3.3 10.2-8.7-6.3-8.6 6.3 3.2-10.3-8.7-6.3h10.9l3.2-10.1zm60.8 0l3.3 10.2h10.8l-8.7 6.3 3.3 10.2-8.7-6.3-8.7 6.3 3.4-10.3-8.7-6.3H7.8l3.4-10.1zm60.8 0l3.3 10.2H86l-8.4 6.3 3.3 10.2-8.7-6.3-8.7 6.3 3.3-10.3-8.7-6.3h10.8l3.1-10.1zm60.8 0l3.3 10.2h10.8l-8.7 6.3 3.3 10.2-8.7-6.3-8.7 6.3 3.4-10.3-8.8-6.3h10.7l3.4-10.1zm60.8 0l3.3 10.2h10.7l-8.6 6.3 3.3 10.2-8.7-6.3-8.7 6.3 3.3-10.3-8.6-6.3h10.7l3.3-10.1zm60.8 0l3.3 10.2h10.8l-8.8 6.3 3.4 10.2-8.7-6.3-8.7 6.3 3.4-10.3-8.8-6.3h10.8l3.3-10.1z" fill="#fff"/></g></g><defs><clipPath id="clip0_77_258"><rect width="480" height="480" rx="240" fill="#fff"/></clipPath><clipPath id="clip1_77_258"><path fill="#fff" transform="translate(-80)" d="M0 0h640v480H0z"/></clipPath></defs></svg>