<svg width="355" height="354" viewBox="0 0 355 354" fill="none" xmlns="http://www.w3.org/2000/svg"><path fill-rule="evenodd" clip-rule="evenodd" d="M354.403 348.829c0-3.448-1.164-5.172-3.492-5.172-14.355 0-25.218-.94-32.59-2.82-6.983-1.881-12.997-5.642-18.04-11.283-4.656-5.955-10.281-15.828-16.877-29.618-7.371-15.044-27.352-60.802-59.941-137.275-32.59-76.472-54.898-128.97-66.925-157.49C155.374 1.724 152.852 0 148.973 0L97.761 77.57l60.523 141.976 6.983 16.924 27.934 64.877c5.044 11.596 7.566 19.275 7.566 23.035 0 6.269-4.074 10.97-12.221 14.104-7.76 2.821-20.563 4.545-38.409 5.171-2.716 0-4.074 1.724-4.074 5.172 0 3.447 1.358 5.171 4.074 5.171h200.774c2.328 0 3.492-1.724 3.492-5.171z" fill="#36363C"/><path d="M47.62 354c-12.8 0-23.894-4.336-33.282-13.009-8.96-9.085-13.44-20.029-13.44-32.831 0-12.39 4.48-22.921 13.44-31.593 9.388-9.086 20.482-13.628 33.283-13.628 13.227 0 24.321 4.542 33.282 13.628 9.387 8.672 14.081 19.203 14.081 31.593 0 12.802-4.694 23.746-14.081 32.831C71.943 349.664 60.848 354 47.621 354z" fill="#36363C"/></svg>