<svg width="622" height="235" viewBox="0 0 622 235" fill="none" xmlns="http://www.w3.org/2000/svg"><path d="M0 140L38.4 0h41.8l38.4 140H93.8l-8.4-32H33.2l-8.4 32H0zm38.8-54h41L61 15h-3.4L38.8 86zm139.163 56.8c-12.8 0-23.334-2.8-31.6-8.4-8.267-5.6-13.267-13.8-15-24.6l21.199-5.4c.934 5.067 2.6 9.067 5 12s5.334 5 8.801 6.2c3.6 1.2 7.466 1.8 11.6 1.8 6.266 0 10.933-1.133 13.999-3.4 3.2-2.267 4.8-5.133 4.8-8.6 0-3.6-1.533-6.267-4.599-8-2.934-1.733-7.467-3.2-13.601-4.4l-6.199-1c-6.8-1.333-13.001-3.133-18.601-5.4-5.6-2.4-10.133-5.6-13.599-9.6-3.334-4.133-5-9.333-5-15.6 0-9.6 3.533-17 10.599-22.2 7.2-5.2 16.6-7.8 28.2-7.8 11.067 0 20.201 2.467 27.401 7.4 7.2 4.933 11.866 11.533 14 19.8l-21.2 6.4c-1.067-5.6-3.4-9.533-7-11.8-3.6-2.4-8.001-3.6-13.201-3.6-5.333 0-9.466.933-12.4 2.8-2.799 1.867-4.199 4.533-4.199 8 0 3.467 1.466 6.067 4.399 7.8 2.934 1.733 6.867 3 11.8 3.8l6.2 1.2c7.334 1.333 13.934 3.067 19.8 5.2 6 2.133 10.734 5.2 14.201 9.2 3.466 4 5.2 9.4 5.2 16.2 0 10.267-3.734 18.2-11.2 23.8-7.334 5.467-17.267 8.2-29.8 8.2zm105.078 0c-12.8 0-23.334-2.8-31.6-8.4-8.267-5.6-13.267-13.8-15-24.6l21.2-5.4c.933 5.067 2.6 9.067 5 12s5.333 5 8.8 6.2c3.6 1.2 7.466 1.8 11.6 1.8 6.266 0 10.933-1.133 14-3.4 3.2-2.267 4.8-5.133 4.8-8.6 0-3.6-1.534-6.267-4.6-8-2.934-1.733-7.467-3.2-13.6-4.4l-6.2-1c-6.8-1.333-13-3.133-18.6-5.4-5.6-2.4-10.134-5.6-13.6-9.6-3.334-4.133-5-9.333-5-15.6 0-9.6 3.533-17 10.6-22.2 7.2-5.2 16.6-7.8 28.2-7.8 11.066 0 20.2 2.467 27.4 7.4 7.2 4.933 11.866 11.533 14 19.8l-21.2 6.4c-1.067-5.6-3.4-9.533-7-11.8-3.6-2.4-8-3.6-13.2-3.6-5.334 0-9.467.933-12.4 2.8-2.8 1.867-4.2 4.533-4.2 8 0 3.467 1.466 6.067 4.4 7.8 2.933 1.733 6.866 3 11.8 3.8l6.2 1.2c7.333 1.333 13.933 3.067 19.8 5.2 6 2.133 10.733 5.2 14.2 9.2 3.466 4 5.2 9.4 5.2 16.2 0 10.267-3.734 18.2-11.2 23.8-7.334 5.467-17.267 8.2-29.8 8.2zm94.097 0c-6.934 0-13.201-1.2-18.801-3.6-5.6-2.533-10.066-6.133-13.399-10.8-3.201-4.667-4.8-10.4-4.8-17.2 0-6.667 1.599-12.267 4.8-16.8 3.333-4.533 7.866-7.933 13.6-10.2 5.733-2.4 12.266-3.6 19.6-3.6h28.599v-6c0-5.2-1.6-9.4-4.799-12.6-3.201-3.333-8.201-5-15-5-6.667 0-11.734 1.6-15.2 4.8-3.334 3.067-5.534 7.067-6.6 12l-21.2-7c1.6-5.2 4.133-9.933 7.6-14.2 3.6-4.267 8.333-7.667 14.199-10.2 5.867-2.667 13.067-4 21.6-4 12.934 0 23.067 3.267 30.401 9.8 7.466 6.4 11.2 15.733 11.2 28V115c0 4 1.866 6 5.6 6h8.4v19h-16.2c-4.8 0-8.734-1.2-11.8-3.6-3.067-2.4-4.601-5.667-4.601-9.8v-.4h-3.399c-.801 1.867-2.201 4.133-4.201 6.8-2 2.667-5.066 5-9.199 7-4 1.867-9.467 2.8-16.4 2.8zm3.8-18.8c7.6 0 13.8-2.133 18.6-6.4 4.8-4.4 7.199-10.267 7.199-17.6v-2h-27.199c-4.934 0-8.934 1.067-12 3.2-3.067 2.133-4.6 5.267-4.6 9.4 0 4 1.599 7.267 4.799 9.8 3.2 2.4 7.601 3.6 13.201 3.6zm81.029 16V41.2h22.6V55h3.4c1.734-3.733 4.867-7.267 9.4-10.6 4.534-3.333 11.4-5 20.6-5 7.6 0 14.334 1.733 20.2 5.2 5.867 3.467 10.4 8.267 13.6 14.4 3.334 6.133 5 13.4 5 21.8V140h-23V82.6c0-8-2-13.933-6-17.8-3.866-4-9.4-6-16.6-6-8.133 0-14.533 2.733-19.2 8.2-4.666 5.333-7 13-7 23v50h-23zm137.247 2.8c-5.067 0-9.333-1.667-12.8-5-3.333-3.333-5-7.6-5-12.8 0-5.067 1.667-9.267 5-12.6 3.467-3.333 7.733-5 12.8-5 5.067 0 9.267 1.667 12.6 5s5 7.6 5 12.8c0 5.2-1.667 9.467-5 12.8-3.333 3.2-7.533 4.8-12.6 4.8z" fill="#000"/><path d="M24.64 234.12c-6.667 0-11.973-1.92-15.92-5.76-3.947-3.893-5.92-9.547-5.92-16.96v-12.8c0-7.413 1.973-13.04 5.92-16.88 3.947-3.893 9.253-5.84 15.92-5.84 6.613 0 11.68 1.84 15.2 5.52 3.573 3.68 5.36 8.72 5.36 15.12v.4h-6.64v-.64c0-4.213-1.147-7.653-3.44-10.32-2.24-2.72-5.733-4.08-10.48-4.08-4.747 0-8.453 1.467-11.12 4.4-2.667 2.88-4 6.933-4 12.16v13.12c0 5.227 1.333 9.307 4 12.24 2.667 2.88 6.373 4.32 11.12 4.32 4.747 0 8.24-1.333 10.48-4 2.293-2.72 3.44-6.187 3.44-10.4v-1.28h6.64v1.04c0 6.4-1.787 11.44-5.36 15.12-3.52 3.68-8.587 5.52-15.2 5.52zM63.728 233v-56h6.72v49.92h28.32V233h-35.04zM111 233l17.28-56h11.84l17.28 56h-6.96l-4.32-14.16h-23.84L117.96 233H111zm12.96-20.24h20.4l-9.6-31.68h-1.12l-9.68 31.68zm68.236 21.36c-4.053 0-7.68-.72-10.88-2.16-3.2-1.44-5.733-3.6-7.6-6.48-1.813-2.933-2.72-6.587-2.72-10.96v-1.68h6.64v1.68c0 4.64 1.36 8.107 4.08 10.4 2.72 2.24 6.214 3.36 10.48 3.36 4.374 0 7.707-.987 10-2.96 2.294-1.973 3.44-4.453 3.44-7.44 0-2.08-.533-3.733-1.6-4.96-1.013-1.227-2.453-2.213-4.32-2.96-1.866-.8-4.053-1.493-6.56-2.08l-4.16-1.04c-3.253-.853-6.133-1.893-8.64-3.12-2.506-1.227-4.48-2.827-5.92-4.8-1.386-2.027-2.08-4.613-2.08-7.76 0-3.147.774-5.867 2.32-8.16 1.6-2.293 3.814-4.053 6.64-5.28 2.88-1.227 6.187-1.84 9.92-1.84 3.787 0 7.174.667 10.16 2 3.04 1.28 5.414 3.2 7.12 5.76 1.76 2.507 2.64 5.68 2.64 9.52v3.36h-6.64v-3.36c0-2.72-.586-4.907-1.76-6.56-1.12-1.653-2.693-2.88-4.72-3.68-1.973-.8-4.24-1.2-6.8-1.2-3.68 0-6.64.827-8.88 2.48-2.24 1.6-3.36 3.893-3.36 6.88 0 1.973.48 3.573 1.44 4.8.96 1.227 2.32 2.24 4.08 3.04 1.76.747 3.867 1.413 6.32 2l4.16 1.04c3.254.693 6.16 1.653 8.72 2.88 2.614 1.173 4.694 2.8 6.24 4.88 1.547 2.027 2.32 4.693 2.32 8 0 3.307-.826 6.187-2.48 8.64-1.653 2.453-4 4.373-7.04 5.76-2.986 1.333-6.506 2-10.56 2zm57.063 0c-4.054 0-7.68-.72-10.88-2.16-3.2-1.44-5.734-3.6-7.6-6.48-1.814-2.933-2.72-6.587-2.72-10.96v-1.68h6.64v1.68c0 4.64 1.36 8.107 4.08 10.4 2.72 2.24 6.213 3.36 10.48 3.36 4.373 0 7.706-.987 10-2.96 2.293-1.973 3.44-4.453 3.44-7.44 0-2.08-.534-3.733-1.6-4.96-1.014-1.227-2.454-2.213-4.32-2.96-1.867-.8-4.054-1.493-6.56-2.08l-4.16-1.04c-3.254-.853-6.134-1.893-8.64-3.12-2.507-1.227-4.48-2.827-5.92-4.8-1.387-2.027-2.08-4.613-2.08-7.76 0-3.147.773-5.867 2.32-8.16 1.6-2.293 3.813-4.053 6.64-5.28 2.88-1.227 6.186-1.84 9.92-1.84 3.786 0 7.173.667 10.16 2 3.04 1.28 5.413 3.2 7.12 5.76 1.76 2.507 2.64 5.68 2.64 9.52v3.36h-6.64v-3.36c0-2.72-.587-4.907-1.76-6.56-1.12-1.653-2.694-2.88-4.72-3.68-1.974-.8-4.24-1.2-6.8-1.2-3.68 0-6.64.827-8.88 2.48-2.24 1.6-3.36 3.893-3.36 6.88 0 1.973.48 3.573 1.44 4.8.96 1.227 2.32 2.24 4.08 3.04 1.76.747 3.866 1.413 6.32 2l4.16 1.04c3.253.693 6.16 1.653 8.72 2.88 2.613 1.173 4.693 2.8 6.24 4.88 1.546 2.027 2.32 4.693 2.32 8 0 3.307-.827 6.187-2.48 8.64-1.654 2.453-4 4.373-7.04 5.76-2.987 1.333-6.507 2-10.56 2zm38.422-1.12v-56h6.72v56h-6.72zm47.772 1.12c-6.667 0-11.974-1.92-15.92-5.76-3.947-3.893-5.921-9.547-5.921-16.96v-12.8c0-7.413 1.974-13.04 5.921-16.88 3.946-3.893 9.253-5.84 15.92-5.84 6.613 0 11.679 1.84 15.199 5.52 3.574 3.68 5.361 8.72 5.361 15.12v.4h-6.641v-.64c0-4.213-1.146-7.653-3.44-10.32-2.24-2.72-5.733-4.08-10.479-4.08-4.747 0-8.454 1.467-11.121 4.4-2.666 2.88-4 6.933-4 12.16v13.12c0 5.227 1.334 9.307 4 12.24 2.667 2.88 6.374 4.32 11.121 4.32 4.746 0 8.239-1.333 10.479-4 2.294-2.72 3.44-6.187 3.44-10.4v-1.28h6.641v1.04c0 6.4-1.787 11.44-5.361 15.12-3.52 3.68-8.586 5.52-15.199 5.52zm86.196 0c-4.053 0-7.68-.72-10.88-2.16-3.2-1.44-5.733-3.6-7.6-6.48-1.813-2.933-2.72-6.587-2.72-10.96v-1.68h6.64v1.68c0 4.64 1.36 8.107 4.08 10.4 2.72 2.24 6.214 3.36 10.48 3.36 4.374 0 7.707-.987 10-2.96 2.294-1.973 3.44-4.453 3.44-7.44 0-2.08-.533-3.733-1.6-4.96-1.013-1.227-2.453-2.213-4.32-2.96-1.866-.8-4.053-1.493-6.56-2.08l-4.16-1.04c-3.253-.853-6.133-1.893-8.64-3.12-2.506-1.227-4.48-2.827-5.92-4.8-1.386-2.027-2.08-4.613-2.08-7.76 0-3.147.774-5.867 2.32-8.16 1.6-2.293 3.814-4.053 6.64-5.28 2.88-1.227 6.187-1.84 9.92-1.84 3.787 0 7.174.667 10.16 2 3.04 1.28 5.414 3.2 7.12 5.76 1.76 2.507 2.64 5.68 2.64 9.52v3.36h-6.64v-3.36c0-2.72-.586-4.907-1.76-6.56-1.12-1.653-2.693-2.88-4.72-3.68-1.973-.8-4.24-1.2-6.8-1.2-3.68 0-6.64.827-8.88 2.48-2.24 1.6-3.36 3.893-3.36 6.88 0 1.973.48 3.573 1.44 4.8.96 1.227 2.32 2.24 4.08 3.04 1.76.747 3.867 1.413 6.32 2l4.16 1.04c3.254.693 6.16 1.653 8.72 2.88 2.614 1.173 4.694 2.8 6.24 4.88 1.547 2.027 2.32 4.693 2.32 8 0 3.307-.826 6.187-2.48 8.64-1.653 2.453-4 4.373-7.04 5.76-2.986 1.333-6.506 2-10.56 2zm38.423-1.12v-56h6.72v24.88h26.24V177h6.72v56h-6.72v-25.04h-26.24V233h-6.72zm80.82 1.12c-6.667 0-12-1.92-16-5.76-3.947-3.893-5.92-9.547-5.92-16.96v-12.8c0-7.413 1.973-13.04 5.92-16.88 4-3.893 9.333-5.84 16-5.84 6.72 0 12.053 1.947 16 5.84 4 3.84 6 9.467 6 16.88v12.8c0 7.413-2 13.067-6 16.96-3.947 3.84-9.28 5.76-16 5.76zm0-6c4.853 0 8.613-1.44 11.28-4.32 2.667-2.933 4-6.987 4-12.16v-13.28c0-5.173-1.333-9.2-4-12.08-2.667-2.933-6.427-4.4-11.28-4.4-4.8 0-8.533 1.467-11.2 4.4-2.667 2.88-4 6.907-4 12.08v13.28c0 5.173 1.333 9.227 4 12.16 2.667 2.88 6.4 4.32 11.2 4.32zm41.196 4.88v-56h21.44c3.36 0 6.346.667 8.959 2 2.667 1.28 4.774 3.12 6.32 5.52 1.547 2.4 2.321 5.307 2.321 8.72v1.04c0 3.36-.801 6.267-2.401 8.72-1.546 2.4-3.653 4.24-6.319 5.52-2.667 1.28-5.627 1.92-8.88 1.92h-14.721V233h-6.719zm6.719-28.64h14c3.574 0 6.4-.88 8.48-2.64 2.08-1.813 3.121-4.347 3.121-7.6v-.8c0-3.253-1.041-5.76-3.121-7.52-2.026-1.813-4.853-2.72-8.48-2.72h-14v21.28z" opacity=".5" fill="#000"/></svg>