<svg width="643" height="145" viewBox="0 0 643 145" fill="none" xmlns="http://www.w3.org/2000/svg"><path d="M90.616 110.528H37.412l-9.4 26.696H0L48.88 6h30.268l48.692 131.224H99.828l-9.212-26.696zm-7.144-20.116L63.92 34.388 44.368 90.412h39.104zm96.463-58.656c12.659 0 22.811 3.196 30.456 9.588 7.645 6.392 12.408 14.915 14.288 25.568h-24.816c-1.003-5.013-3.259-9.024-6.768-12.032-3.509-3.008-8.084-4.512-13.724-4.512-4.512 0-8.021 1.065-10.528 3.196-2.507 2.13-3.76 5.013-3.76 8.648 0 2.883 1.003 5.201 3.008 6.956 2.005 1.755 4.512 3.133 7.52 4.136 3.008 1.003 7.332 2.193 12.972 3.572 7.896 1.755 14.288 3.635 19.176 5.64 5.013 1.88 9.275 4.95 12.784 9.212 3.635 4.136 5.452 9.776 5.452 16.92 0 8.899-3.509 16.105-10.528 21.62-6.893 5.515-16.231 8.272-28.012 8.272-13.536 0-24.377-3.008-32.524-9.024-8.147-6.141-13.097-14.852-14.852-26.132h25.38c.627 5.139 2.883 9.212 6.768 12.22 3.885 2.883 8.961 4.324 15.228 4.324 4.512 0 7.959-1.065 10.34-3.196 2.381-2.256 3.572-5.139 3.572-8.648 0-3.008-1.065-5.452-3.196-7.332-2.005-1.88-4.575-3.321-7.708-4.324-3.008-1.003-7.332-2.193-12.972-3.572-7.771-1.755-14.1-3.51-18.988-5.264-4.763-1.88-8.899-4.825-12.408-8.836-3.384-4.01-5.076-9.525-5.076-16.544 0-9.024 3.447-16.356 10.34-21.996 6.893-5.64 16.419-8.46 28.576-8.46zm103.591 0c12.659 0 22.811 3.196 30.456 9.588 7.645 6.392 12.408 14.915 14.288 25.568h-24.816c-1.003-5.013-3.259-9.024-6.768-12.032-3.509-3.008-8.084-4.512-13.724-4.512-4.512 0-8.021 1.065-10.528 3.196-2.507 2.13-3.76 5.013-3.76 8.648 0 2.883 1.003 5.201 3.008 6.956 2.005 1.755 4.512 3.133 7.52 4.136 3.008 1.003 7.332 2.193 12.972 3.572 7.896 1.755 14.288 3.635 19.176 5.64 5.013 1.88 9.275 4.95 12.784 9.212 3.635 4.136 5.452 9.776 5.452 16.92 0 8.899-3.509 16.105-10.528 21.62-6.893 5.515-16.231 8.272-28.012 8.272-13.536 0-24.377-3.008-32.524-9.024-8.147-6.141-13.097-14.852-14.852-26.132h25.38c.627 5.139 2.883 9.212 6.768 12.22 3.885 2.883 8.961 4.324 15.228 4.324 4.512 0 7.959-1.065 10.34-3.196 2.381-2.256 3.572-5.139 3.572-8.648 0-3.008-1.065-5.452-3.196-7.332-2.005-1.88-4.575-3.321-7.708-4.324-3.008-1.003-7.332-2.193-12.972-3.572-7.771-1.755-14.1-3.51-18.988-5.264-4.763-1.88-8.899-4.825-12.408-8.836-3.384-4.01-5.076-9.525-5.076-16.544 0-9.024 3.447-16.356 10.34-21.996 6.893-5.64 16.419-8.46 28.576-8.46zm108.479 0c8.773 0 16.293 2.068 22.56 6.204 6.267 4.136 10.716 9.713 13.348 16.732v-21.62h26.32v104.152h-26.32v-21.808c-2.632 7.019-7.081 12.659-13.348 16.92-6.267 4.136-13.787 6.204-22.56 6.204-8.773 0-16.669-2.131-23.688-6.392-7.019-4.261-12.533-10.403-16.544-18.424-3.885-8.147-5.828-17.672-5.828-28.576s1.943-20.367 5.828-28.388c4.011-8.147 9.525-14.35 16.544-18.612 7.019-4.261 14.915-6.392 23.688-6.392zm8.272 23.124c-8.272 0-14.915 2.695-19.928 8.084-5.013 5.39-7.52 12.784-7.52 22.184s2.507 16.795 7.52 22.184c5.013 5.264 11.656 7.896 19.928 7.896 8.021 0 14.601-2.695 19.74-8.084 5.264-5.515 7.896-12.847 7.896-21.996 0-9.275-2.632-16.607-7.896-21.996-5.139-5.515-11.719-8.272-19.74-8.272zm141.899-23.312c12.032 0 21.62 3.948 28.764 11.844 7.144 7.896 10.716 18.988 10.716 33.276v60.536h-26.32V79.696c0-8.272-2.131-14.664-6.392-19.176-4.261-4.637-10.089-6.956-17.484-6.956-7.52 0-13.536 2.444-18.048 7.332-4.512 4.888-6.768 11.907-6.768 21.056v55.272h-26.508V33.072h26.508V53.94c2.757-7.019 7.269-12.47 13.536-16.356 6.392-4.01 13.724-6.016 21.996-6.016zm86.68 78.02v27.636H600.28v-27.636h28.576z" fill="#fff"/></svg>