<svg version="1.1" id="Layer_1" xmlns="http://www.w3.org/2000/svg" x="0" y="0" viewBox="0 0 1933 1400" xml:space="preserve"><style>.st7{fill:#3297f5}.st20{fill:#00de91}.st26{fill:#00a76d}.st37{fill:#0058b0}.st41{fill:#186acb}.st61{fill:#3f3618}.st99{fill:#96a7b9}.st100{fill:#cbd3dc}.st123{fill:#3a80d2}.st341{fill:#14ae78}.st359{fill:#dee4e9}.st362{fill:#ebeef1}.st369{fill:#d2d9e1}.st387{fill:#b9c4d0}.st388{fill:#a7b5c4}.st413{fill:#2fb788}.st414,.st415{fill:#0064b9}.st415{opacity:.2}.st416{fill:#c6a06d}.st418{fill:#d1af7c}.st424{fill:#f5b942}.st425{fill:#96724b}.st427{fill:#8c6a48}.st433{opacity:.1;fill:#3f3618}</style><path d="M1849.8 642.6h-247.1c-4.9 0-8.8-3.9-8.8-8.8s3.9-8.8 8.8-8.8h247.1c4.9 0 8.8 3.9 8.8 8.8 0 4.8-4 8.8-8.8 8.8zm0 77.8h-247.1c-4.9 0-8.8-3.9-8.8-8.8s3.9-8.8 8.8-8.8h247.1c4.9 0 8.8 3.9 8.8 8.8s-4 8.8-8.8 8.8zm34.9 46.9h-247.1c-4.9 0-8.8-3.9-8.8-8.8s3.9-8.8 8.8-8.8h247.1c4.9 0 8.8 3.9 8.8 8.8 0 4.8-3.9 8.8-8.8 8.8z" fill="#e9f3fe"/><path d="M1918.5 681.5h-247.1c-4.9 0-8.8-3.9-8.8-8.8s3.9-8.8 8.8-8.8h247.1c4.9 0 8.8 3.9 8.8 8.8 0 4.8-3.9 8.8-8.8 8.8z" fill="#fff1c4"/><path class="st362" d="M890.7 325.6H511.2c-8.8 0-15.9-7.1-15.9-15.9v-84.2c0-8.8 7.1-15.9 15.9-15.9h379.6c8.8 0 15.9 7.1 15.9 15.9v84.2c-.1 8.8-7.2 15.9-16 15.9z"/><path class="st359" d="M525.3 325.6h-14.2c-8.8 0-15.9-7.1-15.9-15.9v-84.2c0-8.8 7.1-15.9 15.9-15.9h13.6m329 66.4H563.6c-3.4 0-6.1-2.7-6.1-6.1 0-3.4 2.7-6.1 6.1-6.1h290.1c2 0 3.7 1.6 3.7 3.7v4.8c0 2-1.7 3.7-3.7 3.7zm-221.9-22.9h-71.9c-1.3 0-2.4-1.1-2.4-2.4 0-1.3 1.1-2.4 2.4-2.4h71.9c.8 0 1.4.6 1.4 1.4v1.9c0 .8-.6 1.5-1.4 1.5z"/><path class="st100" d="M567.9 232.4h-2.7c-1.6 0-2.8-1.3-2.8-2.8 0-1.6 1.3-2.8 2.8-2.8h2.7c1.6 0 2.8 1.3 2.8 2.8 0 1.5-1.3 2.8-2.8 2.8zm14.7 0h-2.7c-1.6 0-2.8-1.3-2.8-2.8 0-1.6 1.3-2.8 2.8-2.8h2.7c1.6 0 2.8 1.3 2.8 2.8 0 1.5-1.3 2.8-2.8 2.8z"/><path class="st359" d="M553.1 232.4h-2.7c-1.6 0-2.8-1.3-2.8-2.8 0-1.6 1.3-2.8 2.8-2.8h2.7c1.6 0 2.8 1.3 2.8 2.8.1 1.5-1.2 2.8-2.8 2.8z"/><path class="st362" d="M890.7 464.5H511.2c-8.8 0-15.9-7.1-15.9-15.9v-84.2c0-8.8 7.1-15.9 15.9-15.9h379.6c8.8 0 15.9 7.1 15.9 15.9v84.2c-.1 8.8-7.2 15.9-16 15.9z"/><path class="st359" d="M525.3 464.5h-14.2c-8.8 0-15.9-7.1-15.9-15.9v-84.2c0-8.8 7.1-15.9 15.9-15.9h13.6m329 66.4H563.6c-3.4 0-6.1-2.7-6.1-6.1 0-3.4 2.7-6.1 6.1-6.1h290.1c2 0 3.7 1.6 3.7 3.7v4.8c0 2.1-1.7 3.7-3.7 3.7zM631.8 392h-71.9c-1.3 0-2.4-1.1-2.4-2.4 0-1.3 1.1-2.4 2.4-2.4h71.9c.8 0 1.4.6 1.4 1.4v1.9c0 .9-.6 1.5-1.4 1.5z"/><path class="st100" d="M567.9 371.3h-2.7c-1.6 0-2.8-1.3-2.8-2.8 0-1.6 1.3-2.8 2.8-2.8h2.7c1.6 0 2.8 1.3 2.8 2.8 0 1.6-1.3 2.8-2.8 2.8zm14.7 0h-2.7c-1.6 0-2.8-1.3-2.8-2.8 0-1.6 1.3-2.8 2.8-2.8h2.7c1.6 0 2.8 1.3 2.8 2.8 0 1.6-1.3 2.8-2.8 2.8z"/><path class="st359" d="M553.1 371.3h-2.7c-1.6 0-2.8-1.3-2.8-2.8 0-1.6 1.3-2.8 2.8-2.8h2.7c1.6 0 2.8 1.3 2.8 2.8.1 1.6-1.2 2.8-2.8 2.8z"/><path class="st341" d="M356.6 964c.1-26.6-.5-52 2.2-78.4 1.5-14.1 3.9-28.3 7.3-42.2 2.9-12.5 3.9-25.4 6.8-37.6 7.1-29.7 16.3-59.4 25.5-88.3 6.8-21.5 16-46.9 27.8-66.8 8.2-14.1 21.9-37.1 34.9-46.4 13.2 71.7-9.6 148.1-29.1 216.6-13.1 46.2-21 96.3-41.7 139.6-1.2 2.6-2.9 5.3-3.9 8.1-9.2-3.8-21.9 2.2-29.8-4.6z"/><path class="st26" d="M429.2 658.1c6.4 2.4 14.6 5.5 22.6 3.7l.5 2.9c-8.7 2-17.3-1.3-24.3-3.7l1.2-2.9zm-6.4 18.6c7.8 3.7 17.5 4.3 25.1 1.8l.9 2.8c-8.2 2.8-18.7 2.4-27.2-1.7l1.2-2.9zm-1.7 19.8l1.4-2.8c6.3 3.3 11.2 2.8 17.2 2.1 3.8-.4 7.5-.8 11.7-.4l-.4 3c-4.2-.4-7.7.1-11.1.4-5.9.8-11.6 1.4-18.8-2.3zm-5.4 17.2c8.7 4.2 25.8 7.2 33.7 4.4l.9 2.8c-9.4 3.4-28.1-.4-36-4.5l1.4-2.7zm-3.9 20.1c9 2.6 29.3 4.9 31.3 2.3l2.3 1.8c-3.8 5.1-28.8.4-34.4-1.3l.8-2.8zm-2.6 22.2l1.6-2.4c5.1 3.2 22.5 6.6 30.7 2.9l1.3 2.7c-9.2 4.1-25.8.8-32.5-2.7-.7-.2-1.1-.5-1.1-.5zm-7.5 10c5.5.8 10.9 3 16.2 5.1 5.4 2.2 11.3 4.4 17 5.3l-.4 3c-6.2-1.1-12.1-3.3-17.7-5.6-5.4-2.2-10.5-4.2-15.6-5.1l.5-2.7zm-3.9 17.8c3.9 1.1 8.1 2.1 12.6 3 6.2 1.1 12.9 2.5 18.7 4.9l-1.1 2.7c-5.6-2.3-12-3.6-18.2-4.7-4.6-.9-8.9-1.6-13-2.9l1-3zm-5.1 19.5c7.7 3.4 22.6 6.4 29.4 2.5l1.6 2.6c-7.6 4.3-23.3 1.2-32.1-2.4l1.1-2.7zm-4 18c9.7 4.7 22.5 6.1 32.5 3.8l.5 2.9c-10.7 2.4-24.3.7-34.5-4l1.5-2.7zm-5.2 22.6l1.8-2.3c5.6 4.1 18.7 6.1 30.3 4.2l.5 2.9c-9.6 1.5-22.5.7-30.2-3.2-.9-.5-1.6-.9-2.4-1.6zm-4.4 18.1l1.6-2.4c8.2 5.2 16 5.6 24.9 6.1l3.2.2v2.9l-3.2-.2c-8.4-.2-15.8-.8-23.5-4.8-1-.5-1.8-1.2-3-1.8zm-6.8 16.6l1.6-2.4c4.6 3 9.6 3.2 14.9 3.6 4 .3 8.2.7 12.2 2.2l-1.1 2.7c-3.5-1.2-7.2-1.4-11.2-1.7-4.8-.4-9.9-.7-14.8-3.3-.5-.3-1-.5-1.6-1.1zm-3.7 16.9l1.6-2.4c8.6 5.6 16.2 5.7 26.6 5.5l.2 3c-9.6.3-16.9.1-24.8-4-1.2-.5-2.2-1.4-3.6-2.1zm.5 18.9l1.6-2.4c5.8 3.6 12.5 5.6 20 5.3v2.9c-6.8 0-13.1-1.5-18.5-4.2-1-.5-2.1-1.1-3.1-1.6z"/><path class="st26" d="M389.5 963.1c6.2-63 16-126.5 33.3-187.5 6.3-22 15-43.6 26.4-63.4 9.6-17 23.6-27.5 35.9-42.1 3.1 60.9-9.1 124.8-26.8 183.5-9.7 31.6-14.7 88.6-38.5 112.5-7.5-2.7-22.9-1.8-30.3-3z"/><path class="st413" d="M479.3 715.1c-6.7-1-15.1-2-21.3-7.3l1.7-2.2c5.7 4.8 13.6 5.8 19.9 6.5l-.3 3zm-2.7 17.7c-8.6-.3-17.2-4.4-22.7-10.1l1.9-1.9c5 5.3 13.2 8.9 21.1 9.2l-.3 2.8zm-6.7 13.9c-7.4 0-11.7-2.9-16.3-6.1-2.6-1.7-5.3-3.6-8.8-5.1l1-2.6c3.6 1.5 6.5 3.4 9.3 5.3 4.5 3.1 8.4 5.5 14.8 5.6v2.9zm-3 19.2c-8.1 0-24.9-4.9-31.1-11.6l1.9-1.9c5.3 5.5 20.3 10.4 29.2 10.7v2.8zm-5.8 17.7c-5.3-1-27.5-7.8-28.5-13.5l2.6-.5c.5 2.9 17.9 9.7 26.3 11.4l-.4 2.6zm-7.7 16.5c-7 0-21.8-4.4-27.5-11.6l2.2-1.7c5 6.5 20.6 11.1 26.1 10.6l.2 2.6c-.1.1-.5.1-1 .1zm2.1 13.7c-4.5-1.5-9.6-2-14.9-2.5-5.5-.5-11.3-1.2-16.8-2.9l1-2.6c5 1.7 10.8 2.4 16 2.9s10.5 1 15.3 2.7l-.6 2.4zm-4.1 16.5c-3.8-.7-7.7-1.9-11.7-3.2-5.5-1.7-11.3-3.4-16.8-3.9l.2-2.6c5.8.5 11.7 2.2 17.2 3.9 4.1 1.2 7.9 2.2 11.5 2.9l-.4 2.9zm-3.9 17.7c-8.6-.7-22.8-4.9-27-11.6l2.4-1.4c3.8 6 17.2 9.9 24.9 10.4l-.3 2.6zm-4.2 16.5c-10.3-.5-22-4.9-29.7-11.4l1.7-2.2c7.2 6 18.2 10.4 28 10.6v3zm-8 18c-7.9 0-18.7-4.9-25.8-10.2l1.7-2.2c8.6 6.5 20.1 10.4 26.3 9.4l.5 2.6c-1 .4-1.7.4-2.7.4zm-4.6 16.5c-7.9 0-14.1-2.7-21.1-6.1l-2.6-1.2 1.2-2.4 2.6 1.2c7.4 3.4 13.9 6.3 22.7 5.6l.2 2.6c-1 .1-2 .3-3 .3zm0 16.3c-5 0-9.3-2-13.4-3.6-3.4-1.5-6.5-2.9-9.8-3.4l.2-2.6c3.8.5 7.4 1.9 10.8 3.4 4.5 1.9 8.6 3.9 13.6 3.4l.2 2.6c-.7.2-1.1.2-1.6.2zm-6.3 15.3c-8.1 0-14.1-2.9-21.8-7.3l1.4-2.4c8.4 4.6 14.6 7.7 23.9 6.8l.2 2.6c-1.3.1-2.5.3-3.7.3zm-7.7 14.9c-5.5 0-11.3-1.5-16.8-4.4l1.2-2.4c6 3.4 12.2 4.6 18.4 4.1l.2 2.6c-.9.1-2.1.1-3 .1z"/><path class="st341" d="M342.5 962.9c-5.8-63.1-15.1-126.6-31.9-187.8-6.2-22.1-14.7-43.7-25.9-63.6-9.5-17.1-23.4-27.6-35.6-42.3-3.6 60.9 8.2 124.9 25.5 183.7 9.5 31.7 14.1 88.7 37.7 112.8 7.2-2.6 22.6-1.6 30.2-2.8z"/><path d="M254.5 714.3c6.7-.9 15.1-1.9 21.4-7.1l-1.7-2.2c-5.8 4.8-13.7 5.7-19.9 6.4l.2 2.9zm2.6 17.7c8.6-.2 17.3-4.3 22.8-10l-1.9-1.9c-5.1 5.3-13.2 8.8-21.1 9l.2 2.9zm6.6 14c7.4 0 11.8-2.8 16.3-5.9 2.6-1.7 5.3-3.6 8.9-5l-.9-2.6c-3.6 1.4-6.5 3.3-9.4 5.2-4.6 3.1-8.4 5.5-14.9 5.5v2.8zm2.6 19.2c8.1 0 24.9-4.7 31.2-11.4l-1.9-1.9c-5.3 5.5-20.4 10.2-29.3 10.4v2.9zm5.7 17.7c5.3-.9 27.6-7.6 28.6-13.3l-2.6-.5c-.5 2.9-18 9.5-26.4 11.2l.4 2.6zm7.6 16.6c7 0 21.8-4.2 27.6-11.4l-2.2-1.7c-5.1 6.5-20.7 11-26.2 10.5l-.2 2.6h1zm-2 13.6c4.6-1.4 9.6-1.9 14.9-2.3 5.5-.5 11.3-1.2 16.8-2.8l-.9-2.6c-5 1.7-10.8 2.4-16.1 2.8-5.3.5-10.5.9-15.3 2.6l.6 2.3zm3.8 16.6c3.8-.7 7.7-1.9 11.8-3.1 5.5-1.7 11.3-3.3 16.8-3.8l-.2-2.6c-5.8.5-11.8 2.1-17.3 3.8-4.1 1.2-7.9 2.1-11.5 2.8l.4 2.9zm4 17.7c8.6-.7 22.8-4.7 27.1-11.4l-2.4-1.4c-3.9 6-17.3 9.8-25 10.2l.3 2.6zm4.1 16.6c10.3-.4 22.1-4.7 29.8-11.2l-1.7-2.2c-7.2 6-18.3 10.2-28.1 10.4v3zm7.8 18c7.9 0 18.7-4.7 25.9-10l-1.7-2.2c-8.7 6.4-20.2 10.2-26.4 9.3l-.5 2.6c.8.3 1.7.3 2.7.3zm4.5 16.5c7.9 0 14.2-2.6 21.1-5.9l2.6-1.2-1.2-2.4-2.6 1.2c-7.4 3.3-13.9 6.2-22.8 5.4l-.2 2.6c1.2.1 2.1.3 3.1.3zm-.1 16.3c5 0 9.4-1.9 13.4-3.5 3.4-1.4 6.5-2.9 9.8-3.3l-.2-2.6c-3.8.5-7.4 1.9-10.8 3.3-4.6 1.9-8.6 3.8-13.7 3.3l-.2 2.6c.5.2 1.3.2 1.7.2zm6.2 15.4c8.1 0 14.2-2.8 21.8-7.1l-1.4-2.4c-8.4 4.5-14.6 7.6-24 6.6l-.2 2.6c1.4.1 2.6.3 3.8.3zm7.6 14.9c5.5 0 11.3-1.4 16.8-4.3l-1.2-2.4c-6 3.3-12.2 4.5-18.5 4l-.2 2.6c1 .1 1.9.1 3.1.1z" fill="#30b789"/><path class="st26" d="M282.4 965.6c3.7-42.4-26.5-82.3-42-119.5-7.8-18.7-17.6-36.7-26.2-54.7-7.6-16.1-19.1-29.1-26.4-45.4 21.3-.9 40.9 26.3 54.3 39.7 17.2 17.3 34.4 35.4 46.1 57.4C307 878.2 320.3 924 318 963.8c-11.4-.8-23.9.9-35.6 1.8z"/><path d="M202.1 764.2l-.9-2.6c1.9-.7 3.6-2.1 4.8-3.6l2.2 1.7c-1.5 1.9-4 3.6-6.1 4.5zm3.8 7l-.5-2.6c2.2-.5 4.6-1.9 7-3.3 1-.5 1.7-1 2.4-1.4l1.2 2.4c-.7.2-1.4.7-2.2 1.2-2.6 1.3-5.3 3-7.9 3.7zm7.9 7.2l-1.2-2.4c2.4-1.2 4.6-3.1 6.7-5 .7-.5 1.2-1.2 1.9-1.7l1.7 2.2c-.7.5-1.2 1.2-1.9 1.7-2.2 1.9-4.6 4-7.2 5.2zm5 7.4l-1.7-2.2c2.9-2.1 7.2-5.2 11.3-6.9l1.2 2.4c-4.1 1.7-8.2 4.6-10.8 6.7zm2.8 8l-.9-2.6c3.1-.9 10.6-3.8 14.6-7.9l1.9 1.9c-4.3 4.5-12.2 7.4-15.6 8.6zm6 10.3l-.5-2.6c4.6-.9 10.3-5.2 12-9.5l2.4 1.2c-1.9 4.7-8.4 9.7-13.9 10.9zm5.7 8.2l-.7-2.6c7-1.9 12.5-5.7 14.9-10.3l2.4 1.4c-2.9 5-9.1 9.3-16.6 11.5zm5 12.4h-.7l.2-2.6c4.3.5 9.4-5 13-9.1 1-1 1.7-1.9 2.4-2.9l1.9 1.9c-.7.7-1.4 1.7-2.4 2.6-3.8 4.4-9.1 10.2-14.4 10.1zm5.7 11.1l-.2-2.6c5.8-.7 13.7-6.9 16.8-12.4l2.4 1.4c-3.9 6-12 12.9-19 13.6zm4.3 11h-.5v-2.6c6 .3 13.9-6.4 19-10.7l1.2-1.2 1.7 2.2-1.2 1.2c-5.1 4.2-13.3 11.1-20.2 11.1zm6.7 10.1l-.5-2.6c6.2-1.2 12.5-5.7 18-9.5 1.2-1 2.4-1.7 3.6-2.6l1.4 2.2c-1.2.7-2.4 1.7-3.6 2.4-5.7 4.2-12.2 8.7-18.9 10.1zm7.6 13.9h-.5v-2.6c6.7.3 17-6.2 20.9-11.7l2.2 1.7c-4.1 5.8-14.9 12.7-22.6 12.6zm9.3 14.5h-1l.2-2.6c5.8.5 11.5-3.8 16.8-7.6 1.7-1.2 3.1-2.1 4.6-3.1l1.4 2.4c-1.4 1-2.9 1.9-4.3 3.1-5.5 3.5-11.5 7.8-17.7 7.8zm5.5 9.6H275v-2.6c3.8 0 6.7 0 9.8-.7 2.6-.7 4.6-1.9 7-3.3.7-.5 1.7-1 2.4-1.4.7-.5 1.4-1.2 1.9-1.7.5-.7 1.2-1.4 2.4-1.2 1 .2 1.2 1.4 1.2 1.9l-2.6.5s.2.2.7.5c.5.2 1 0 1-.2l-.5.5c-.5.7-1.4 1.4-2.6 2.1-.7.5-1.7 1-2.4 1.4-2.4 1.4-4.6 2.9-7.7 3.6-2.7.3-5.6.6-8.2.6zm8.3 17.2c-1.4 0-3.1-.3-4.6-1l1.2-2.4c5 2.7 12.7-2.6 17.3-5.7 1-.7 1.9-1.2 2.6-1.7l1.4 2.4c-.7.5-1.4 1-2.4 1.7-3.8 2.7-10 6.8-15.5 6.7zm4.5 10.8h-1l.2-2.6c3.6.3 7.4-1.4 11-2.8 2.9-1.2 5.8-2.4 8.2-2.6v2.6c-1.9 0-4.3 1.2-7.2 2.4-3.3 1.4-7.4 3.1-11.2 3zm-.5 12.5h-1v-2.6c6.7.3 11.5-1.9 17.5-4.5l.5-.2 1.2 2.4-.5.2c-6 2.6-11 4.7-17.7 4.7zm5.2 15.6c-1.9 0-3.8-.3-5.7-.7l.5-2.6c6.5 1.5 11 .3 16.3-1.9l.9 2.6c-4.3 1.7-8.2 2.6-12 2.6z" fill="#2bb686"/><path class="st26" d="M335.4 961.7c-7.3-27.8-7.7-65.2-11.2-95.2-3.7-30.2-5.1-60.2-9.7-90.2-4.7-29.7-1.5-57-1.8-86.8-.2-19.9-5.6-46.8 3.4-65.7 12.4 28.8 19.4 65 25.3 95.7 6.4 32.9 12.9 65.2 18.6 98.1 8.7 49.9 16.4 102.2 8.8 152.2-14.3-.4-22-2.1-33.4-8.1z"/><path class="st413" d="M324.3 647.9c-3.4 0-6.5.2-9.6.9l.7 2.6c2.9-.7 6-.9 8.9-.9v-2.6zm3.7 14.2l-.5-2.6-1.4.2c-3.4.5-7 1.2-10.3 1.4l.2 2.6c3.6-.2 7.2-.7 10.8-1.4l1.2-.2zm1.9 12l-.9-2.6c-4.1 1.4-9.8 1.2-10.3.4l-2.2 1.4c.7 1.2 2.4 1.7 4.3 1.9 3.1.3 7.2-.4 9.1-1.1zm.9 10.3c-4.6.7-8.9 1.2-13.4.4l-.2 2.6h1c4.6.5 8.9 0 13.2-.7l-.6-2.3zm3.8 10.8c-2.4 1.9-10.6 2.8-15.6 1.9l-.5 2.6c.5 0 1.2.2 1.9.2 5.5.5 12.9-.4 16.1-2.6l-1.9-2.1zM320.7 709l-.5 2.6c.7.2 1.7.2 2.9.5 4.1.5 10.3.3 14.9-2.6l-1.4-2.4c-3.9 2.4-9.7 3.1-15.9 1.9zm15.8 14.2l-1.2-2.4c-4.8 2.1-13.9 3.8-15.1 2.6l-2.2 1.7c.7 1 1.9 1.4 3.4 1.5 5 .2 12.9-2.4 15.1-3.4zm2.1 9.9c-4.3 2.4-10.1 2.4-15.8 2.3H318l.2 2.6h4.8c5.8 0 12.5 0 17.3-2.6l-1.7-2.3zm2.5 17.2l-1.2-2.4c-6.2 2.9-10.8 2.6-16.5.9l-.7 2.6c2.2.5 4.1 1 6.2 1.2 3.9.6 7.7-.1 12.2-2.3zm3.1 14.2l-.5-2.6-2.2.5c-5.5 1.2-11 2.4-16.8 1.4l-.5 2.6c.7 0 1.4.2 1.9.2 5.5.5 10.5-.4 15.8-1.6l2.3-.5zm6.4 13.2l-1.4-2.4c-4.1 2.6-11.8 3.8-17.5 2.6l-.5 2.6c1 .2 1.7.2 2.6.5 5.3.7 12.3-.2 16.8-3.3zm-7.7 17c3.1-.5 6.2-.9 9.4-.9v-2.6c-3.4 0-6.7.5-9.8.9-4.1.7-7.9 1.4-12.2.7l-.5 2.6c.5 0 1 .2 1.7.2 3.7.5 7.6-.2 11.4-.9zm10 14.6l-.9-2.6-.7.2c-7.2 2.6-14.4 5.2-21.8 4l-.5 2.6c.7.2 1.4.2 1.9.2 7.4.7 14.6-1.9 21.3-4.2l.7-.2zm-3.6 14.4c1.7-.5 3.4-.9 5-1.4l-.7-2.6c-1.7.5-3.4.9-5 1.4-5.5 1.4-11 3.1-16.8 2.1l-.5 2.6c.7 0 1.2.2 1.9.2 5.5.8 11-.9 16.1-2.3zm6.6 10.1c-9.4 2.6-17.3 3.3-24.5 2.3l-.5 2.6c1 .2 1.9.2 3.1.5 6.7.7 14.1-.2 22.5-2.6l-.6-2.8zm-16.8 19.6c-1.7-.2-3.1-.5-4.6-.5l-.2 2.6c1.4.2 2.9.2 4.6.5 1.7.2 3.1.5 4.8.5 4.6.5 9.3.3 13.7-1.9l-1.4-2.4c-4.9 2.9-11.1 1.9-16.9 1.2zm-1.2 14.4c-.5-.2-.7-.5-.7-.5h-2.6c0 .7.2 2.2 2.1 3.1 1.2.5 2.9 1 4.8 1.2 7.7.7 20.4-1.1 24-4l-1.7-2.2c-3.7 2.7-21.2 4.8-25.9 2.4zm22.2 18.7l-.5-2.6c-4.6.9-19.9 3.3-27.6-.8l-1.2 2.4c2.4 1.2 5.7 1.9 9.1 2.4 7.5.5 16.1-.7 20.2-1.4zm-22.6 12.6c10.3 1 18.9 1.5 28-.1l-.5-2.6c-8.6 1.6-17 1.1-27.1.1l-.4 2.6zm-2 16.3l-1.2 2.4c2.6 1.4 6.2 2.2 9.6 2.7 6.7.7 14.1-.4 19.2-2.6l-1.2-2.4c-6.7 2.9-19.2 3.6-26.4-.1zm16 19.8c3.1-.5 6.2-.9 8.4-.9v-2.6c-2.6 0-5.5.5-8.9.9-6.5.9-13.7 1.9-17-.3l-1.4 2.4c1.4 1 3.4 1.5 5.5 1.7 4.1-.1 8.9-.8 13.4-1.2zm13.2 10.5c-6.5 1.9-24.4.6-28.7-3.5l-1.9 1.9c2.6 2.6 8.9 4.1 15.3 4.6 6.2.5 12.7.3 16.1-.7l-.8-2.3z"/><path d="M376.4 954.7c-20.9-.1-41.7-.6-62.5-1.4-16.3-.8-31.2-.4-47.5.1-3.1 0 7.1 78.2 8.6 85.1 4 20.9 10.1 45.1 21.1 64.1 6.4 10.8 9.3 15.1 20.8 17.6 13.7 2.9 28.8 1.3 42.7 1.4 10.1 0 21.8 1.5 31.4-.8 11-2.8 13.9-10.7 20-21.5 12.5-23.4 24.2-52.4 26.9-79 1.2-12 2-24.4 2.5-36.4.3-6 3.5-26.6.1-31.4.2-.7 0-1.4-.2-2.4-23.2-1.3-41.6 4.6-63.9 4.6z" fill="#007049"/><path class="st26" d="M1161.7 920.8c-4.9 2.6-9.1 6.3-13.3 9.9-1.7 1.5-3.4 3-4.6 4.8s-1.8 4.2-1.2 6.3c.8 2.6 3.2 4.3 5.4 5.8 7.4 5 15 10 23.6 12.5 4.7 1.4 9.7 1.9 14.4 3.1 4.1 1 8.1 2.6 12.2 3.6 4.8 1.3 9.9 1.9 14.9 1.8 2.5 0 5.3-.3 7.2-2 1.7-1.4 2.5-3.5 2.9-5.6 1.4-7.8-3-15.4-8.1-21.5-3.8-4.6-8.1-8.8-12.8-12.4-2.9-2.3-5.6-3.7-9.2-4.2-3.4-.4-6-2-9.3-3.2-7.1-2.4-15.1-2.5-22.1 1.1zm273.8-238.2c.1-17.1 7.4-34 19.8-45.8 1.3-1.3 2.8-2.5 4.4-3.4 2-1 4.1-1.3 6.3-1.7 8.7-1.4 17.5-2.8 26.2-2 6.6.6 12.9 2.5 19.4 3.7 14.5 2.7 29.5 2 44 4.3 11.2 1.8 21.9 5.3 32.7 8.8 2.3.8 4.7 1.6 6.2 3.5 1.2 1.5 1.7 3.6 1.8 5.5.5 6.2-1.7 12.6-5.8 17.3-3.9 4.4-9.2 7.2-13.9 10.7-6 4.4-11.1 10-17 14.5-9.1 6.9-20.1 11-31.3 13.7-19.2 4.5-39.4 4.7-58.6.6-6.2-1.3-12.5-3.2-17.1-7.5"/><path class="st414" d="M1458.4 536.1c.8-6.6 2.4-13.1 4.7-19.4 2.8-7.6 6.7-14.9 7.3-22.9.9-11.4-5.5-22.7-14.9-29.3-4.2-2.9-16.3-9.8-21.6-7.4-7 3.2-1.8 13.2.2 18.3 7.8 20.3 16.2 40.5 24.3 60.7z"/><path class="st415" d="M1461.9 535.2c.8-6.6 2.4-13.1 4.7-19.4 2.8-7.6 6.7-14.9 7.3-22.9.9-11.4-5.5-22.7-14.9-29.3-4.2-2.9-16.3-9.8-21.6-7.4-7 3.2-1.8 13.2.2 18.3 7.9 20.4 16.2 40.5 24.3 60.7z"/><path class="st416" d="M1482.4 572.3c-2.8 32.6-10.8 67-34.8 89.2-.9.9-1.9 1.8-2.2 3-.3 1.4.4 2.8 1.1 4.1 8 14.8 7.4 12.9 15.3 27.7 4.5 8.3 9 16.7 15.2 23.9 11.3 13 27.3 21 39 33.6 32.9-21.6 62.8-50.7 75.6-87.9.5-1.3.9-2.7.9-4.2-.1-2.3-1.4-4.3-2.4-6.4-5.2-10.2-9.2-22.2-8.6-33.6.4-7.3 6.4-30.4 11-44"/><path d="M1476.9 720.3c11.3 13 27.3 21 39 33.6 32.9-21.6 62.8-50.7 75.6-87.9.5-1.3.9-2.7.9-4.2-.1-2.3-1.4-4.3-2.4-6.4-5.2-10.2-9.2-22.2-8.6-33.6.4-7.6 5.2-29 11-44.3-7.4 9.5-17.8 24.2-25.3 33.6-28.3 35.6-40.7 48.1-66 60.4-12.7 6.2-32.1 8.5-54.8-2.9 2 11.3 23.3 43.2 30.6 51.7z" opacity=".3" fill="#c6a06d"/><path class="st418" d="M1455.1 470.8c2 23-6.1 41.2-8.4 55-4.4 26.9 4.4 41.8 10.8 68.2 2.7 10.9 5.8 22.1 12.8 30.9 10.7 13.4 30.3 19 46.6 13.4 7.4-2.6 40.6-27.1 50.4-35.3 7-5.9 13.9-12 19.5-19.2 10.3-13.3 15.4-29.7 20.2-45.8 8-26.4 16.1-53.2 16.4-80.7 0-4-.1-8-1.6-11.7-1.2-2.9-3.3-5.4-5.3-7.8-5.6-6.6-11.4-13.2-18.6-18-19.3-12.7-44.5-10.2-67.4-13.9-41-6.6-78.3 32-75.4 64.9z"/><path class="st416" d="M1455.6 470.8c1.9 16.1.6 24.2-4.5 40.1 13.2 12.2 33.2 13 51.1 11.1 17.9-1.8 36.4-5.6 53.5 0 5 1.7 9.9 4.1 13.7 7.8 9.4 9.1 11.1 23.7 9.1 36.7-2.9 18.8-17.2 39.3-31.4 52 34-25.6 44.4-32.2 53.7-62.6 8-26.4 22.4-71 22.7-98.6 0-4-.1-8-1.6-11.7-1.2-2.9-3.3-5.4-5.3-7.8-5.6-6.6-11.4-13.2-18.6-18-19.3-12.7-44.5-10.2-67.4-13.9-25.7-4.2-51.6 9.6-65.7 30.8-6.4 9.6-10.9 21.3-9.4 32.9 0 .5.1.8.1 1.2z"/><path class="st414" d="M1489.9 352.6c-22.9-9.9-51.7-4.8-69 13.1-6.3 6.5-11.2 14.7-12.9 23.6-1.7 8.9-.2 18.6 5.1 26 4.7 6.6 12.5 11.8 13.6 19.8.8 5.5-1.8 11-2.1 16.5-.8 12.7 12.8 24 25.1 21-5.2 1.3 9.4 18.5 11.3 19.7 5.2 3.1 11.3 4.3 17.3 4.7 10.2.8 20.5-.3 30.4-3.1 8.7-2.5 17.6-6.5 26.5-4.7 6.2 1.2 11.6 4.7 17.6 6.4 7.1 1.9 14.3 2.8 21.7 2 6.1-.6 12.6-2.1 18 .6 4.7 2.4 7.4 7.7 8.2 13 .7 5.3-.3 10.6-1.3 15.8-1.3 6.8-2.5 13.5-3.8 20.3-.7 3.6-.7 8.5 2.8 9.7 1.5.5 3.1.1 4.6-.6 4.1-1.8 7.5-4.9 11.5-7s9-3.3 12.8-1c4.8-12.9 9.7-26.1 19-36.2 4.6-5 10.1-9.2 14.8-14.1 5.5-5.8 9.9-12.7 12.7-20.2 5.6-14.8 1.5-40.4-14.8-47.2 2.4-23.1-8.5-47.2-27.5-60.5-7.9-5.5-19.7-11.4-29.7-10.9-8.7.4-18 5.2-26.9 6.7-22.2 3.7-45.9 5.2-66.9-4.3-6-2.7-11.5-6.3-17.5-8.9-.4-.1-.5-.2-.6-.2z"/><path class="st415" d="M1489.9 352.6c-17.3-7.5-38.1-6.4-54.7 2.4-14 7.4-23.6 25.9-13.9 40.6 6.1 9.3 18.2 14.4 21.6 24.9 2.7 8.3-.3 19.1 6.1 25 4.3 3.9 11 3.9 15.5 7.6 4.8 4 5.6 11.4 10.3 15.5 2.1 1.8 4.7 2.8 7.4 3.4 16.3 3.9 32.7-4.5 48.8-9.2 16.9-5 35-6 52.3-2.9 7.7 1.4 15.4 3.6 21.7 8.1 6.4 4.5 11.3 11.6 11.6 19.4.4 8-3.9 16.1-1.6 23.7.3 1.2.9 2.3 1.8 3.1 2.6 2.1 6.4.3 9-1.7 7-5.2 13.1-11.4 19-17.9 7.8-8.7 15.3-18.6 16.7-30.2 1.4-11.6-5.8-24.9-17.4-26.3 1.7-5.6.8-11.7-.7-17.5-4.6-17.6-14.7-34.1-29.6-44.4-15.8-10.9-31.6-11.3-49.7-8.4-18.2 2.9-39.5 1.5-56.4-6.2-6-2.7-11.5-6.3-17.5-8.9-.1 0-.2-.1-.3-.1z"/><path class="st416" d="M1611.2 537.7c-4.6 2.9-8.7 6.8-12 11.1-3.1 4.1-5.6 8.8-7.5 13.6-1.5 3.9-3.9 8.8-4 12.9-.1 2.6.8 5.3 2.6 7.1 2.6 2.5 6.7 2.7 10.1 1.5 3.4-1.2 6.1-3.7 8.7-6.1 3.3-3.1 6.2-6.4 9-9.9 2.9-3.6 7.6-6 11.2-8.8 4-3.2 7.8-7.3 9.1-12.3 1.3-5-.5-11.1-5.2-13.3-2-1-4.4-1.1-6.6-1-5.5.4-10.7 2.3-15.4 5.2z"/><path class="st20" d="M1651.3 660.7c12 1.9 36.5 19.5 46.6 34.5 14.5 21.6 17.9 44.6 31.2 67 6.6 11.1 15.3 20.6 22.8 31.1 20.3 28.4 31.5 63.6 57.2 87.1 5.6 5.1 12 9.8 15.9 16.3 3.3 5.5 4.5 11.9 5.1 18.2 1.7 19.2-3.5 40-17.7 53.1-12.6 11.5-35.8 16.3-49.9 4.7-13.4-11-28.1-19.6-42.6-29.5-29.7-20.2-59.6-43.8-96-49.9-42.6 54.6-67.3 159.7-69.4 228.9-108.1 1.3-206.8 0-321.3 0-1.3-30.6-1.4-61.3.3-91.9.9-15.1 2.2-30.2 4.1-45.2 1.2-9.5 1.5-19.2 2.8-28.7.2-1.6 2.3-20.9 2.1-20.8-40.7 23.8-110.2 7.5-104.3-50 .7-7.1 3-14 5.2-20.7 10.7-32.8 21.5-65.6 32.2-98.5 1.9-5.7 3.8-11.5 7-16.5 3.8-5.8 9.1-10.3 14.4-14.7 38.1-32.4 73.2-68.6 108.8-103.5 24.5-24 46.5-40.1 82.5-33.2 23.9 4.6 58.2 32.2 71.9 33.3 0 0-30.5 37.4 28 67.6 31.5 16.3 75.9-11.6 96.4-30.5 7.4-6.8 9.7-20.2 9.7-20.2 16.5.1 26.2 7.1 57 12z"/><path d="M1606 755.6c17.4 7.7 32.4 28.4 48 39.3l37.2 25.8c23.8 16.5 47.7 33.1 68.3 53.5 20.6 20.4 37.8 45 45.4 72.9 7.4 27.1-19.9 44.7-42.2 26.3-13.4-11-28.1-19.6-42.6-29.5-29.7-20.2-59.6-43.8-96-49.9-22.1 28.3-39.4 60.4-51.2 94.4-5.9 17-10.4 34.4-13.5 52.1-.6 3.7-7 81.2-4.3 82.5-11.2-5.3-24.1 0-36.4 0-48.8-.1-97.5.1-146.3 0-12.8 0-25.8-3.2-38.2 0 5.1-30.2 10.2-98.7 15.3-129 3.2-18.9 6.4-37.9 12-56.2 5.5-17.9 13.3-35 21.7-51.7 24.7-49.4 67-106.5 116.8-130.4 12.6-6 67.3-16.1 102.2-1.8 1.2.5 2.5 1.1 3.8 1.7z" opacity=".2" fill="#00a76d"/><path d="M1466 631.8s-7.4 2.8-11.9 14.7c-4.5 12 12.4 51.9 50.1 56.6 37.8 4.7 77.3-30.9 80.3-34.3 3-3.4 9.4-14.6 9.2-18.1-.1-3.6-4-3.5-4-3.5l-.3-1.7s5.1-.3 7.5 3.9c2.4 4.2-5.4 19.6-16.5 28.1s-38.4 34.3-76.1 32.6c-37.7-1.7-54.4-34-55.4-53.8-.7-12.7 9.3-24.3 9.3-24.3s2.4-2.6 7.8-.2z" fill="#5ceab9"/><path class="st99" d="M1847.7 1128.9H122.5c-6.2 0-11.2-5-11.2-11.2 0-6.2 5-11.2 11.2-11.2h1725.2c6.2 0 11.2 5 11.2 11.2 0 6.2-5 11.2-11.2 11.2z"/><path class="st418" d="M1197.3 892.1c10 .4 20 2.9 29 7.5 3.8 1.9 7.5 4.3 10.3 7.5.7.8 1.3 1.6 1.4 2.7.1 1-.2 2-.6 3-3.7 9.4-7.3 18.7-11 28.1-2.9 7.5-3.9 15.1-6.6 22.4-3.3 9-8.8 17.7-13.6 26-4 6.9-8.8 18.9-15 23.9-13.4 19.7-23.7 40-27.5 63.7-2.5 15.6-6.6 29.4-17.1 41.4-11.3 13-27.6 20.1-41.5 30.1-2.9 2.1-6.3 4.4-9.9 3.8-3.9-.6-6.8-4.5-7.1-8.5-.3-4 1.6-7.8 4.1-10.9 2.5-3.1 5.6-5.7 8.4-8.5 4.9-4.9 8.7-10.5 11.7-16.6-15.2-1-31-1.4-46.3-1-14.3.3-26.9 2.8-40.4 7.1-11.9 3.8-22.4 15.4-33.5 21.4-21.5 11.5-30.1-2.7-30.1-2.7.5-3.2 9.1-10.4 9.1-10.4-1.4-2.2-4.3-6.5-5.4-8.9-1.1-2.4 16.2-16.5 16.2-16.5-2.5-1.6-4.6-3.2-6-5.9-.3-.6-2.6-7.2-1.6-7.6 23.3-10.2 32-29.7 90.2-31.6 27.6-.9 55.9-7.5 69.1-34 7.5-15 9.7-32 11.7-48.6 2.4-19.1 5.9-37.6 7.8-56.8.3-2.6.6-5.2 2-7.3 1.1-1.6 2.8-2.7 4.5-3.7 11.4-6.6 24.6-9.6 37.7-9.1z"/><path class="st416" d="M1066 1106.7c-14.3.3-26.9 2.8-40.4 7.1-16 5.1-27.7 22.3-44.9 25.5-6.6 1.3-10.1.4-16.2-4 8.7 2.7 13.6.2 20.7-4.7 8.9-6.1 17.8-15.3 27.3-20.5 5.1-2.8 10.1-4.5 15.8-5.7 11.4-2.5 21.1-4.5 32.6-5.9 16.3-2 29.8-3.1 45.5-7.9 1.8-.6 7.4-3.6 7.4-3.6 1 3.4.9 6.3.3 9.9-.1.9-2 12-1.9 12-11.8-1-30.9-2.6-46.2-2.2zm-42.9-16.3c1.8-.5 13.7-3.7 22.3-4.6 7-.8 20.5-2.6 20.5-2.6-21-3.5-46.1.9-49.1 1.6-6.9 1.7-33.4 20.2-38.6 25.1-2.9 2.7-8.3 5.3-11.8 4.6 1.3 3.4 4.6 7.6 4.6 7.6-.7-.6 36.5-27.4 52.1-31.7z"/><path class="st416" d="M981.8 1096.7s28.2-19 36.4-21.7l43.2-4.4s-34.2-.4-44.1 1.9c-9.9 2.4-28.4 19.2-42.6 15.3.1 0 .7 6.5 7.1 8.9z"/><path d="M1142.1 940.5c23.6-10.8 53.7-5.1 71.8 13.4 3.4 3.5 6.6 8 6 12.8 2.3 1.5 4.7-1.9 5.4-4.5 3.6-13.6 7.2-27.1 10.9-40.7.6-2.1 1.2-4.3 1.1-6.6-.1-2.9-1.1-5.6-2.5-8.2-6.8-12.4-20.9-19.4-35-21-13.7-1.6-42.5-.7-53.1 10-9.6 9.7-7.4 33.3-4.6 44.8z" fill="#33e4a7"/><path class="st7" d="M342 1108s-.1-39.8-.1-40.9c-.1-14.3-44.8-25.5-99.8-25s-99.6 12.5-99.5 26.8c0 1 .1 40.9.1 40.9s38.1 10.6 102.3 10.7c60.2-.1 97-12.5 97-12.5z"/><ellipse class="st123" cx="243.2" cy="1065" rx="80" ry="16.6"/><path transform="rotate(-142.672 169.659 594.144)" class="st7" d="M159.5 440.5h20.4v307.4h-20.4z"/><path transform="rotate(147.413 156.266 854.54)" class="st7" d="M146.2 700.9h20.2v307.4h-20.2z"/><path transform="rotate(-180 242.03 1025.798)" class="st7" d="M231.9 989.8h20.3v71.9h-20.3z"/><path transform="rotate(131.652 228.705 456.715)" class="st41" d="M218.4 446.4H239V467h-20.6z"/><path class="st7" d="M295.9 471.8s-19-16.9-20-17.8c-13.7-12.2-34.6-10.9-46.7 2.7s-10.9 34.6 2.7 46.7l20 17.8"/><path class="st123" d="M225 461.8c-7.8 13.3-5.4 30.7 6.6 41.4l20 17.8s10.1-13.2 8.6-17.7c-13.1-39.2-35.2-41.5-35.2-41.5z"/><path class="st7" d="M403.1 515.7s-41-36.5-43.3-38.5c-29.5-26.3-74.8-23.6-101 5.9s-23.6 74.8 5.9 101c2 1.8 43.3 38.5 43.3 38.5"/><path class="st123" d="M254.1 488.4c-22.6 35.1-15.2 72.6 10.7 95.7 2 1.8 43.3 38.5 43.3 38.5l47.3-53.2s-35.1 5.9-61.6-14c-41.3-30.9-39.7-67-39.7-67z"/><ellipse transform="rotate(-48.348 355.613 569.161)" class="st123" cx="355.6" cy="569.1" rx="71.6" ry="14.3"/><path d="M372.3 546.3c-.3-.2-2.4-2.1-5.1-4.5 18.6-17.6 34.3-27.6 38.7-23.7 4.9 4.3-5.6 24.4-24.2 47.9-.4-7.3-3.6-14.4-9.4-19.7zM310.8 625c-4.4-3.9 3.7-20.7 19-41.2 2.6 2.4 4.8 4.2 5.1 4.5 5.9 5.2 13.4 7.5 20.6 7-21.2 21.4-39.9 34.1-44.7 29.7z" fill="#ffe626"/><path d="M347.6 562.1c6.6-7.5 13.3-14.3 19.6-20.3 2.7 2.4 4.8 4.3 5.1 4.5 5.9 5.2 9.1 12.4 9.4 19.7.3 7.1-2 14.3-7.1 20-5.1 5.7-12 8.9-19.1 9.4-7.3.5-14.8-1.8-20.6-7-.3-.3-2.4-2.2-5.1-4.5 5.2-7 11.2-14.4 17.8-21.8z" fill="#fff9e0"/><circle class="st41" cx="242.3" cy="989.1" r="20.1"/><circle class="st7" cx="242.3" cy="989.1" r="14.7"/><circle class="st41" cx="78.3" cy="720.6" r="20.1"/><circle class="st7" cx="78.3" cy="720.6" r="14.7"/><path d="M383.7 1110.7c0 3.7 19.3 6.8 43.1 6.8 23.8.1 43.2-2.8 43.2-6.5l19.1-116.8-123.8-.4 18.4 116.9z" fill="#296690"/><path class="st41" d="M489.2 994.2c0 5.3-27.7 9.5-61.9 9.4-34.2-.1-61.9-4.5-61.8-9.8s27.7-9.5 61.9-9.4 61.8 4.5 61.8 9.8"/><path transform="rotate(-11.507 391.573 941.383)" class="st20" d="M388.1 917.3h6.8v47.9h-6.8z"/><path transform="rotate(-11.507 399.815 982.142)" class="st26" d="M392.6 931h14.3v101.8h-14.3z"/><path class="st20" d="M394.2 943.1v-.5c0-1 .7-2 1.8-2.2l1.9-.4h.5c1 0 2 .7 2.2 1.8l7.1 35.1 4.5-.9-7.1-35.1c-.7-3.2-3.5-5.4-6.6-5.5-.5 0-.9 0-1.4.1l-1.9.4c-3.2.7-5.4 3.5-5.5 6.6 0 .5 0 .9.1 1.4l4.4-.8z"/><path transform="rotate(-19.48 379.866 1001.156)" class="st41" d="M374.1 946.2h11.5V1056h-11.5z"/><path transform="rotate(-78.44 441.78 964.603)" fill="#6db2f8" d="M366.4 950.9h150.8v27.5H366.4z"/><path d="M468.7 901.5l-6.1-1.2-.5 2.2 6.1 1.2m-1 5.1l-6.1-1.2-.5 2.2 6.2 1.3m-1.1 5.1l-6.1-1.3-.5 2.2 6.2 1.3m-1.1 5.1l-13.5-2.8-.4 2.3 13.5 2.7m-1.1 5.1l-6.1-1.2-.5 2.2 6.2 1.2m-1.1 5.1l-6.1-1.2-.5 2.2 6.2 1.3m-1.1 5.1l-6.1-1.3-.5 2.2 6.2 1.3m-1.1 5.1l-13.4-2.8-.5 2.3 13.5 2.7m-1.1 5.1l-6.1-1.2-.5 2.2 6.2 1.2m-1.1 5.1l-6.1-1.2-.5 2.2 6.2 1.3m-1.1 5.1l-6.1-1.3-.5 2.2 6.2 1.3m-1.1 5.1l-13.4-2.8-.5 2.3 13.5 2.7m-1.1 5.1l-6.1-1.2-.5 2.2 6.2 1.2" fill="#93c5fa"/><path d="M449.2 996.7l-6.1-1.2-.5 2.2 6.2 1.3m-1.1 5.1l-13.4-2.8-.5 2.2 13.5 2.8" fill="#2e5078"/><path transform="rotate(-67.325 474.876 994.712)" fill="#66ebbd" d="M423.6 989.1H526v11.2H423.6z"/><path transform="rotate(-73.406 467.797 975.28)" class="st7" d="M416.6 969.7H519v11.2H416.6z"/><path class="st37" d="M383.7 1110.7c0 3.7 19.3 6.8 43.1 6.8 23.8.1 43.2-2.8 43.2-6.5l19.1-116.8-123.8-.4 18.4 116.9z"/><path d="M1350 1038.6H724c-15.7 0-28.4-12.7-28.4-28.4v-717c0-10 8.1-18.1 18.1-18.1h646.7c10 0 18.1 8.1 18.1 18.1v716.9c-.1 15.7-12.8 28.5-28.5 28.5z" opacity=".5" fill="#dce2e7"/><path d="M766.9 772.5L724 700.3c-15.7 0-28.4-12.7-28.4-28.4V293.4c0-10 8.1-18.1 18.1-18.1h53.2v497.2z" opacity=".3" fill="#cbd3dc"/><path d="M1360.4 275.2H713.7c-10 0-18.1 8.1-18.1 18.1v43.8h682.8v-43.8c0-10-8.1-18.1-18-18.1z" fill="#536171"/><path opacity=".2" fill="#96a7b9" d="M696.2 324.9h682.3v13.2H696.2z"/><path class="st369" d="M1313.5 553.8H817.3c-12.3 0-22.3-10-22.3-22.3V403.9c0-12.3 10-22.3 22.3-22.3h496.2c12.3 0 22.3 10 22.3 22.3v127.6c0 12.3-10 22.3-22.3 22.3z"/><path class="st99" d="M847.3 553.8H817c-12.3 0-22.3-10-22.3-22.3V403.9c0-12.3 10-22.3 22.3-22.3h30.3v172.2z"/><ellipse class="st99" cx="814.3" cy="455" rx="4.2" ry="4.4"/><ellipse class="st99" cx="826.5" cy="455" rx="4.2" ry="4.4"/><ellipse class="st99" cx="814.3" cy="468.5" rx="4.2" ry="4.4"/><ellipse class="st99" cx="826.5" cy="468.5" rx="4.2" ry="4.4"/><ellipse class="st99" cx="814.3" cy="482.5" rx="4.2" ry="4.4"/><ellipse class="st99" cx="826.5" cy="482.5" rx="4.2" ry="4.4"/><path class="st387" d="M893.7 433.8c-.5-.3-1.3-.8-1.5-1.2-.2-.4-.3-1.1-.3-1.5 0-.4.1-1.1.3-1.5.2-.4 1-.9 1.5-1.2.3-.2.4-.5.2-.8l-1.3-2.4c-.2-.3-.5-.4-.8-.2-.5.3-1.3.8-1.7.7-.4 0-1.1-.3-1.4-.5-.3-.2-.9-.7-1.1-1.1-.2-.4-.2-1.3-.3-1.9 0-.3-.3-.6-.6-.6H884c-.3 0-.6.3-.6.6 0 .6 0 1.6-.3 1.9-.2.4-.8.9-1.1 1.1-.3.2-.9.5-1.4.5-.4 0-1.2-.4-1.7-.7-.3-.2-.6-.1-.8.2l-1.3 2.4c-.2.3-.1.6.2.8.5.3 1.3.8 1.5 1.2.2.4.3 1.1.3 1.5 0 .4-.1 1.1-.3 1.5-.2.4-1 .9-1.5 1.2-.3.2-.4.5-.2.8l1.3 2.4c.2.3.5.4.8.2.5-.3 1.3-.8 1.7-.7.4 0 1.1.3 1.4.5.3.2.9.6 1.1 1 .2.4.2 1.3.3 1.9 0 .3.3.6.6.6h2.7c.3 0 .6-.3.6-.6 0-.6 0-1.6.3-1.9.2-.4.8-.8 1.1-1 .3-.2.9-.5 1.4-.5.4 0 1.2.4 1.7.7.3.2.6.1.8-.2l1.3-2.4c.2-.3.1-.6-.2-.8zm-8.4 1.1c-2 0-3.6-1.7-3.6-3.8 0-2.1 1.6-3.8 3.6-3.8s3.6 1.7 3.6 3.8c.1 2.1-1.6 3.8-3.6 3.8zm209.3.4h-188c-2 0-3.6-1.6-3.6-3.6v-.1c0-2 1.6-3.6 3.6-3.6h188c2 0 3.6 1.6 3.6 3.6v.1c0 2-1.6 3.6-3.6 3.6z"/><path class="st388" d="M1186.6 495.7H922.7c-10.8 0-19.6-8.8-19.6-19.6v-.8c0-10.8 8.8-19.6 19.6-19.6h263.9c10.8 0 19.6 8.8 19.6 19.6v.8c0 10.8-8.8 19.6-19.6 19.6z"/><path class="st387" d="M1311.7 417.7h-88c-2 0-3.6-1.6-3.6-3.6v-.1c0-2 1.6-3.6 3.6-3.6h88c2 0 3.6 1.6 3.6 3.6v.1c-.1 2-1.7 3.6-3.6 3.6z"/><path class="st369" d="M1313.5 751.4H817.3c-12.3 0-22.3-10-22.3-22.3V601.5c0-12.3 10-22.3 22.3-22.3h496.2c12.3 0 22.3 10 22.3 22.3v127.6c0 12.3-10 22.3-22.3 22.3z"/><path class="st99" d="M847.3 751.4H817c-12.3 0-22.3-10-22.3-22.3V601.5c0-12.3 10-22.3 22.3-22.3h30.3v172.2z"/><ellipse class="st99" cx="814.3" cy="652.6" rx="4.2" ry="4.4"/><ellipse class="st99" cx="826.5" cy="652.6" rx="4.2" ry="4.4"/><ellipse class="st99" cx="814.3" cy="666.1" rx="4.2" ry="4.4"/><ellipse class="st99" cx="826.5" cy="666.1" rx="4.2" ry="4.4"/><ellipse class="st99" cx="814.3" cy="680.1" rx="4.2" ry="4.4"/><ellipse class="st99" cx="826.5" cy="680.1" rx="4.2" ry="4.4"/><path class="st387" d="M893.7 631.4c-.5-.3-1.3-.8-1.5-1.2-.2-.4-.3-1.1-.3-1.5 0-.4.1-1.1.3-1.5.2-.4 1-.9 1.5-1.2.3-.2.4-.5.2-.8l-1.3-2.4c-.2-.3-.5-.4-.8-.2-.5.3-1.3.8-1.7.7-.4 0-1.1-.3-1.4-.5-.3-.2-.9-.7-1.1-1.1-.2-.4-.2-1.3-.3-1.9 0-.3-.3-.6-.6-.6H884c-.3 0-.6.3-.6.6 0 .6 0 1.6-.3 1.9-.2.4-.8.9-1.1 1.1-.3.2-.9.5-1.4.5-.4 0-1.2-.4-1.7-.7-.3-.2-.6-.1-.8.2l-1.3 2.4c-.2.3-.1.6.2.8.5.3 1.3.8 1.5 1.2.2.4.3 1.1.3 1.5 0 .4-.1 1.1-.3 1.5-.2.4-1 .9-1.5 1.2-.3.2-.4.5-.2.8l1.3 2.4c.2.3.5.4.8.2.5-.3 1.3-.8 1.7-.7.4 0 1.1.3 1.4.5.3.2.9.6 1.1 1 .2.4.2 1.3.3 1.9 0 .3.3.6.6.6h2.7c.3 0 .6-.3.6-.6 0-.6 0-1.6.3-1.9.2-.4.8-.8 1.1-1 .3-.2.9-.5 1.4-.5.4 0 1.2.4 1.7.7.3.2.6.1.8-.2l1.3-2.4c.2-.3.1-.6-.2-.8zm-8.4 1.1c-2 0-3.6-1.7-3.6-3.8s1.6-3.8 3.6-3.8 3.6 1.7 3.6 3.8c.1 2.1-1.6 3.8-3.6 3.8zm209.3.4h-188c-2 0-3.6-1.6-3.6-3.6v-.1c0-2 1.6-3.6 3.6-3.6h188c2 0 3.6 1.6 3.6 3.6v.1c0 2-1.6 3.6-3.6 3.6z"/><path class="st388" d="M1186.6 693.3H922.7c-10.8 0-19.6-8.8-19.6-19.6v-.8c0-10.8 8.8-19.6 19.6-19.6h263.9c10.8 0 19.6 8.8 19.6 19.6v.8c0 10.8-8.8 19.6-19.6 19.6z"/><path class="st387" d="M1311.7 615.3h-88c-2 0-3.6-1.6-3.6-3.6v-.1c0-2 1.6-3.6 3.6-3.6h88c2 0 3.6 1.6 3.6 3.6v.1c-.1 2-1.7 3.6-3.6 3.6z"/><path d="M741.1 309.3c-1.4-1.4-2.3-3.4-2.2-5.5 0-2.1.9-4.1 2.3-5.5 1.2-1.2 1.2-3.1 0-4.3-1.2-1.2-3.1-1.2-4.3 0-2.5 2.5-4.1 6-4.1 9.8 0 3.8 1.5 7.3 4 9.8 1.2 1.2 3.1 1.2 4.3 0 1.2-1.2 1.2-3.1 0-4.3z" fill="#f8d774"/><path d="M741.1 298.3c1.4-1.4 3.4-2.3 5.5-2.2 2.1 0 4.1.9 5.5 2.3 1.2 1.2 3.1 1.2 4.3 0 1.2-1.2 1.2-3.1 0-4.3-2.5-2.5-6-4.1-9.8-4.1-3.8 0-7.3 1.5-9.8 4-1.2 1.2-1.2 3.1 0 4.3 1.2 1.2 3.1 1.2 4.3 0z" fill="#5db0e0"/><path d="M752.1 309.3c-1.4 1.4-3.4 2.3-5.5 2.2-2.1 0-4.1-.9-5.5-2.3-1.2-1.2-3.1-1.2-4.3 0-1.2 1.2-1.2 3.1 0 4.3 2.5 2.5 6 4.1 9.8 4.1s7.3-1.5 9.8-4c1.2-1.2 1.2-3.1 0-4.3-1.2-1.2-3.1-1.2-4.3 0z" fill="#db666b"/><path d="M741.1 298.3c-1.2 1.2-3.1 1.2-4.3 0-1.2-1.2-1.2-3.1 0-4.3 1.2-1.2 3.1-1.2 4.3 0 1.2 1.2 1.2 3.1 0 4.3z" fill="#4a89bf"/><path d="M741.1 313.6c-1.2 1.2-3.1 1.2-4.3 0-1.2-1.2-1.2-3.1 0-4.3 1.2-1.2 3.1-1.2 4.3 0 1.2 1.2 1.2 3.1 0 4.3z" fill="#c45161"/><path d="M1102.1 707.5l-.1-.2c.2 0 .3.1.3.1l-7-9.4-3.2-4.4c0-.3 0-.6-.1-.8-.2-1.4-1-2.7-1.7-4-1.3-2.3-2.7-4.6-4.1-6.8-1-14.2-5.1-33.2-4.6-39.3.2-2.2.5-4.5-.3-6.6-.8-2.1-2.6-3.6-4.3-5l-34.7-25.8c-.8-.8-1.9-1.6-3-1.5-.7.1-1.3.6-1.8 1.1-2.9 3.1-1.8 7.3-1.3 9.5.1.6.3 1.1.4 1.6l-6.4-8.9-.9.6-5.8-3.9-5.7-4 1.4 6.8 1.2 6.8-.9.6 8.9 14.5c-3.6 1.2-5.7 5.7-7 9-2.8 4.9-5.6 9.9-8.4 14.8-2.1 3.7-4.3 7.5-5.5 11.6-3.1 10.4-4.4 21.6-6.4 32.3-2.6 14.1-10.3 26.9-7.5 41.4 1.5 8 4.4 15.8 4.5 24 .1 5.4-28.9 57.8-50.9 99.5-2-2.8-4.1-5.6-6.2-8.3 1.2-2.8 2.4-5.9 3.3-8.9.8-2.8 1.4-5.5 1.6-8.2 0-.2 0-.3.1-.5v-.3c.1-.4.1-.8.1-1.2.1-.7.1-1.3.2-1.9.1-1.4.1-2.7.1-3.8 0-.4 0-.9-.1-1.3v-.4c-.1-.8-.2-1.6-.4-2.2 0-.1-.1-.2-.1-.4 0-.1-.1-.2-.1-.3 0 0 0-.1-.1-.1-.1-.4-.3-.7-.5-1.1l-.1-.1c-.4-.7-.8-1.2-1.3-1.7-1.3-1.3-2.9-2.1-4.6-3.1-.4-.3-.9-.5-1.3-.9-.2-.1-.3-.2-.5-.4-15.7-12.5-17.4-20.8-30.9-35.6-1.4-1.5-2.8-3.1-4.1-4.7-.8-1-1.7-2-2.5-3-.5-.6-1.1-1.3-1.6-1.9-.3-.4-.7-.9-1-1.3-7.9-9.8-15.1-20-22.7-29.9-12.5-16.1-27.9-30.3-48.7-32.8-6.1-.7-12.2-.8-18.4-.8-5.1 0-10.2.9-15.2.6h-.4c-11.5-.6-23.2-1.6-34.1-5.3.4.4.7.7 1.1 1-.9-.6-1.8-1.3-2.7-2.1-3.6-3.2-6.9-8-11.7-7.5.9-2.4.3-5.3-1.5-7.2-1.8-1.8-4.8-2.5-7.2-1.5-3 .3-6.1.5-9.2.7-2.4-11.7-3.7-23.6-4.9-35.6 1.9.7 3.9 1.4 5.9 2 4 1.3 8.4 2.4 12.5 1.4 4.1-1.1 7.3-4.2 10.2-7.3 21.7-23.6 35.6-53.9 40.2-85.5 2.2-14.8-1-30 .5-44.5 1.5-2.4 2.3-5.1 2.5-7.9 5.2-.4 10.5-.5 15.8-1 2.2.6 4.5 1 6.8 1.3 19.8 2.6 40.6-7.4 51-24.4 1.5-2.5 2.4-6.5-.3-7.6-2.1-.9-4.3 1.1-5.8 2.9-7.2 8.3-16.7 14.5-27.1 17.9 4-3.4 7.5-7.4 10.6-11.7 14.5-20.2 19.1-48 9-70.7-4.4-9.8-11.2-18.3-18.3-26.4-3.8-4.4-7.8-8.6-12.3-12.3-19.7-15.8-43.4-15.4-67-13.4-25.1 2.2-49.1 13.5-68.1 29.8-4.7 4-9.1 8.3-14.4 11.4-9.7 5.6-21.7 8.1-32 13.1-11.3 5.4-22.3 11.8-32.2 19.6-16.4 12.9-30 30.3-35.2 50.6-1.8 7.1-2.6 14.4-3 21.8-.5 8.5-.6 17.1 0 25.7-77.4 35.5-127.6 118.5-117.5 206.5 2.1 18 6.5 35.9 14.5 52.2 4.3 8.7 9.5 16.6 15.4 23.8-.7 2.2-1.5 4.3-2.4 6.4-6.8 16.7-18.5 32.1-18.9 50.3-.1 2.7.1 5.5-.9 7.9-.6 1.4-1.6 2.6-2.1 4-1.3 3.7.6 7.7 2.6 11.1.8 3.5 3.2 6.7 5.7 9.4 4.7 5 10.1 9.1 16.1 12.4-.6 5.2-1.2 9.8-1.5 13.3-2.6 23.2 14.5 40.7 23.6 47.3 12 8.8 32.6 8.2 57.2 2.1 8.9 27.5 15.9 55.5 22.6 83.6-15.8 14.6-38.2 60.2-47.9 75.6-19.9 31.8-13.4 124.6-13.9 124.6 17.2.2 36.1 6.5 53.3 11.8 2.1.8 4.1 1.6 6.2 2.4 12.5 4.9 32 10.2 44.5 1.5.3-.2.6-.4.8-.6 5.1-.2 9.4-.3 12.3-.2 83.8 4.7 150.3 13.3 226.3-21.3-4.4-68.5-20.3-151.2-32-196.1.4-24.9-.2-50 .6-74.2.2-4.7.3-9.4.6-14.2 1.7-11.9 3.6-23 5.7-33.6 1.2-2.6 3-5.3 5.1-8 3.2 3.2 6.4 6.1 9.5 8.1 10.2 6.5 15.3 14.9 24.1 16.8 0-.1-.1-.3-.1-.5 1.1.4 2.4.2 3.6-.2 4.6-1.5 7.3-6.1 9.6-10.3.9-1.6 1.8-3.3 2.7-4.9 22.2 15.6 59 36.5 80.6 33.4 18.1-2.6 34.4-48.6 37.9-61.7 0-.1 0-.1.1-.2.2-.6.3-1.2.4-1.6 5.9-27.7 11.9-55.4 17.8-83.2 2.9-13.5 9.9-65.7 14.7-75.8 2.9-6 8-10.5 12.7-15.1 6-6 11.6-12.4 16.7-19.2 1.1-1.4 2.2-2.9 3.3-4.3l3 5s0-.1.1-.2l1 1.7c2.9 4.7 8.9 6.4 13.9 3.9 5.6-3.3 7.4-10.8 3.6-16.1zm-65.6-65.9l20 32.4c-1.4 1.5-3.1 2.5-5.1 3-4.8 1-9.8-2.3-12-6.7-2.2-4.4-2.3-9.6-1.8-14.5.3-2.7.7-5.5.2-8.3-.2-1.5-.8-2.9-1.6-4.1.1-.5.2-1.1.3-1.8zm-415.9-17c-.4 3.2-.9 6.4-1.4 9.6v.2c-.3 1.6-.6 3.3-1 4.9l-.6 2.7c-.1.5-.3 1-.4 1.4-.1.3-.2.6-.2.9-1 3.7-2.3 7.3-3.8 10.9-.8 1.9-1.6 3.7-2.5 5.5-11.1-16.2-18.3-35-20.5-54.4.1-.9.3-1.8.4-2.7.4-2.3.9-4.6 1.6-6.9 3 4.3 6.2 8.4 9.7 12.2 5.5 6.2 11.9 11.6 18.7 15.7zM595 650.8c1.5 3.4 3.2 6.7 5 9.9 1.8 3.1 3.7 6.1 5.8 9-.3.6-.7 1.2-1 1.8-3.9-6.6-7.2-13.6-9.8-20.7z" opacity=".1" fill="#0058b0"/><path class="st424" d="M929 844c1.7-5.6 2.4-11.2.5-15.8-2.5-6-10.5-14.3-16.8-12.7-4.3 1.1-10.3 5.7-13.7 8.6-4.1 3.5-6.9 8.5-9.3 13.2-3.3 6.4-6.5 12.8-9.5 19.3-4.2 8.9-8.2 18-10 27.6-.9 5-1.2 10.2-2.4 15.2-.8 3.7-2.1 7.3-3.2 10.9-2.4 8-3.9 16.4-4.1 24.8-.1 4.7.1 9.5.8 14.2.3 2.5 1.1 5.4 3.4 6.4 1.2.5 2.7.4 4 0 4.6-1.5 7.3-6.1 9.6-10.3 9.1-16.6 18.1-33.2 27.1-49.9 6.2-11.4 12.3-22.9 17.2-35 1.7-4.4 4.6-10.4 6.4-16.5z"/><path class="st425" d="M832.7 820.1c-5.8 8.2-6.7 19.1-5.3 29.1 2.8 20 13.5 38 24.2 55.1 15.9 25.3 9.8 17.6 32 37.6 8.8 7.9 63.3 32.5 75.1 31.3 9.1-.9 0 0 5.2-7.5 18.9-27.1 6.5-42.2-8.5-68.3-26.9-46.8-64.6-87.4-101.2-126.7-11.8 19.2-22.9 38.8-33.3 58.8-2 3.9-4 7.9-4.8 12.2-.7 3.9-.3 7.8.1 11.7 1.2 11.5 2.4 23 3.5 34.5"/><path d="M1039.2 694.7c11.5-8.8 18.1-23 19.9-37.4.5-4.4.7-8.9-.5-13.1-1-3.3-2.8-6.4-4.9-9.2-7.2-9.4-18.8-15.5-30.6-16-.8-.8-1.9-1.6-3-1.5-.7.1-1.3.6-1.8 1.1-2.9 3.1-1.8 7.3-1.3 9.5 1.2 6.1 3.9 8.6 8.2 13 4 4.1 9.3 7.1 14.1 10.2 1.9 1.2 4.2 2.2 5 4.1 1.4 3.1.9 8.8.2 12-1 4.3-4.1 8.5-8.4 9.4-4.8 1-9.8-2.3-12-6.7s-2.3-9.6-1.8-14.5c.3-2.7.7-5.5.2-8.3-.4-2.7-1.9-5.5-4.4-6.7-3.3 2.4-6.6 4.9-9.3 8-5.7 6.6-7.9 16-5.8 24.4 2.1 8.4 8.5 15.7 16.6 18.8 3.5 1.4 7.3 2 10.7 3.7 1.7.8 3.3 2 5.2 2.1 3.7.3 6.6-2.9 8.9-5.9" fill="#7c5937"/><path class="st425" d="M1032.2 751.5c-4.8 10.1-11.8 62.2-14.7 75.8-5.9 27.7-11.9 55.4-17.8 83.2-2.1 9.7-7.1 14.4-10.8 23.6-7.1 17.9-22.8 36.8-22.8 36.8-6 3.6-14.4-.6-21.5-.8-9.4-.2-22.1-11.3-27.3-19.1-5.2-7.8-13-29.4-8.8-41.9 7.9-23.4 74.2-139.1 74.1-147.3-.1-8.2-3-16-4.5-24-2.8-14.5 4.9-27.3 7.5-41.4 2-10.7 3.3-21.9 6.4-32.3 1.2-4.1 3.4-7.9 5.5-11.6 3.6-6.2 7.1-12.5 10.7-18.7 1.2-2.2 2.7-4.6 5.2-5.2 2.9-.8 5.9 1.5 7 4.2 1.1 2.8.7 5.9.2 8.8-1.5 7.6-4.2 14.9-8 21.7-.6 1.1-1.3 2.2-1.4 3.4-.1 1 .3 2 .6 3 1.2 3.7 2.5 7.3 3.7 11 .3.9.6 1.8 1.3 2.5 1 1 2.5 1.2 3.8 1.3 9.2.6 18.5-3.5 24.2-10.7 1-1.2 1.8-2.5 3-3.5 2.6-2.1 6.4-2.4 9.6-1.2s5.8 3.4 8.1 6c3.7 4.1 6.5 8.9 9.2 13.7.7 1.3 1.5 2.5 1.7 4 .5 3.1-1.5 6.1-3.3 8.7-8.9 12.1-17.8 24.3-28.4 34.9-4.5 4.6-9.6 9.1-12.5 15.1z"/><path class="st427" d="M970.4 910.9c5.2-15.2 8.9-31 12.8-46.5 7-28.4 14.3-56.7 22-84.9 2.7-10 5.5-20.1 10.4-29.2 10.4-19.7 29.2-33.4 47.3-46.3 3.5-2.5 7.1-5 11.3-5.7-8.1 13.9-17.8 26.7-29.2 38.1-4.7 4.7-9.8 9.2-12.7 15.1-4.8 10.1-11.8 62.2-14.7 75.8-5.9 27.7-11.9 55.4-17.8 83.2-2.1 9.7-19.2 60.7-38.3 63.5-31.9 4.6-96.5-42.9-99.3-49-7.5-16.3-8.8-34.8-9.7-52.7-1.6-31.9-2.2-64.8 8.9-94.7 4 14.6 10.7 28.3 17.5 41.9 5.5 11 10.9 22 16.4 33 10.1 20.3 20.3 40.8 35.8 57.3 5 5.3 22.4 24.2 31.3 21.4l8-20.3z"/><path class="st425" d="M1026.9 605.4c-.8-.8-1.9-1.6-3-1.5-.7.1-1.3.6-1.8 1.1-2.9 3.1-1.8 7.3-1.3 9.5 1.2 6.1 3.9 8.6 8.2 13 4.4 4.5 18.6 12.8 19.1 13.4 1.4 1.8 2.3 23-6.4 36.1-.4.7 7.8-3.8 7.8-3 0 .9-.5 1.8-1 2.6-3.4 5.4-6.7 10.9-10.1 16.3-.6.9-1.2 2.1-.6 3 .3.5.8.8 1.3 1.1l21 11.4c2.9-5.2 6.4-10 10.3-14.4 2.7-11.9-5-43.3-4.2-51.5.2-2.2.5-4.5-.3-6.6-.8-2.1-2.6-3.6-4.3-5"/><path class="st37" d="M1069 719.3l-64.8-105.2 10.7-6.8 71.9 100.1c3.8 5.3 2 12.8-3.9 15.8-5 2.5-11 .8-13.9-3.9z"/><path class="st37" d="M1002.3 600l5.8 4 5.9 4-4.5 2.8-4.5 2.9-1.2-6.9zm58 105.4l7.5 12.4s3-5.3 6.7-7.8c6.8-4.4 12.4-2.7 12.4-2.7l-8.8-11.8-17.8 9.9z"/><path class="st7" d="M1056.4 678.7l-40.3-59.9-1.9 1.1 39.6 60.2z"/><path class="st425" d="M1020.8 643.4c-.5 2.5-2.8 8.4-3.8 10.7-.4.8-11.2-15.8-11.1-16 1.4-3.4 3.5-8.5 7.6-9.5 2.9-.8 5.9 1.5 7 4.2 1 2.7.9 7.7.3 10.6z"/><path class="st424" d="M582.2 705.6c-3.8-5.1-6.6-11-8.1-17.1-.4-1.7-.8-3.5-.1-5.2 1.1-2.7 7.8-4.2 10.8-4.2 23.7-.2 41.2-.1 63.3 3.7 22.1 3.9 49.9 3.2 72.3 1.2 3.5-.3 2.9 0 4.8 2.1.8.9.1 2.3.2 3.5.5 6-5.5 9.1-10.4 12.5-9.6 6.7-20.5 11.1-31.6 14.7-9.7 3.1-19.6 5.6-29.6 7.5-14.2 2.7-29.7 3.9-42.4-3.1"/><path class="st425" d="M776.9 469.4c-5.5-13.8-14.8-26.1-26.2-35.5-16.1-13.4-36.2-21.5-56.9-25.2-12-2.2-24.4-2.9-36.4-.3-26 5.6-47.1 26.9-56.3 51.9-9.2 25-7.6 53 .1 78.5 16 52.4 58.7 95.8 110.9 112.5 4 1.3 8.4 2.4 12.5 1.4 4.1-1.1 7.3-4.2 10.2-7.3 21.7-23.6 35.6-53.9 40.2-85.5 2.3-15.5-1.3-31.3.7-46.5 2.2-16.2 7.8-27.5 1.2-44z"/><path class="st424" d="M465.8 877.8c-4.5.7-9.1 1.7-12.9 4.2-3.9 2.4-6.9 6.5-7 11.1-.1 4.7 2.8 8.9 6 12.3 11.3 12.1 27.4 19 43.8 21.6 16.4 2.7 33.1 1.4 49.5-.7-2.4-10.1-5.7-20-9.7-29.5-2.7-6.4-6.3-13.2-12.7-15.9-4.2-1.8-9-1.5-13.5-2.6-5.1-1.2-9.5-4.2-14.1-6.6-9.7-5.1-20.6-8-31.6-8.4"/><path class="st425" d="M484.4 814.1c-6.8 25.3-15.4 93.6-18 116.9-2.6 23.2 14.5 40.7 23.6 47.3 48.5 35.4 236.3-81.6 266.5-99.9-21.5-20.3-43.7-39.8-66.7-58.5-4.5-3.6-9.1-7.3-14.4-9.4-4.8-1.9-10-2.4-15.1-2.9-15.1-1.6-30.2-3.1-45.3-4.7"/><path d="M556.2 871.7c1.9-11.9 4.2-23.8 3.2-35.7-1.1-12.8 5.2-23.2 8.9-35.1 2.7-8.9 3.5-18.3 4-27.6 1.3-25 .2-50-3.3-74.7-10.6-3.7-28.6 3-38.8 6.6-12.4 4.4-24.6 10.8-33.5 21.2-10.8 12.6-15.9 29.7-19.3 46.4-3.4 16.8-5.6 34-12 49.7-6.8 16.7-18.5 32.1-18.9 50.3-.1 2.7.1 5.5-.9 7.9-.6 1.4-1.6 2.6-2.1 4-1.3 3.7.7 7.8 2.6 11.2 6.8-4.9 15.2-6.2 23.3-5.7 8.1.6 15.9 2.9 23.7 4.8 20.1 4.9 41.3 6.8 61.4 2.1 2.1-.5 4.2-1.1 6.3-1.7-3.6-8.2-6-14.7-4.6-23.7z" fill="#ffea9a"/><path d="M556.2 871.7c1.9-11.9 4.2-23.8 3.2-35.7-1.1-12.8 5.2-23.2 8.9-35.1 2.7-8.9 3.5-18.3 4-27.6.7-13.8 6.9-71.7-10-74.3-21.1-3.3-49.2 17.8-59.7 34.2-16.8 26.1-13.8 60.4-26.3 88.8-3.2 7.2-7.4 14-10.8 21.1-7.6 15.6-12.3 33.3-15.5 50.2 4.1-3.7 14.2-3.2 19.5-2.8 8.1.6 15.9 2.9 23.7 4.8 20.1 4.9 41.3 6.8 61.4 2.1 2.1-.5 4.2-1.1 6.3-1.7-3.7-8.5-6.1-15-4.7-24z" fill="#ffe274"/><path class="st425" d="M602.7 639.3c5.7-25.9 3.8-52.7 1.7-79.1 30.7-6.9 61.3-13.9 92-20.8l9 100.2c2.1 23.9 4.4 48.1 12.9 70.5-14.9 3.3-28.2 11.2-42.2 17.4-24.5 10.8-84.5 26.2-101.8-5-6.9-12.4.4-26.9 7.1-37.6 9.1-14.9 17.4-28.2 21.3-45.6z"/><path class="st427" d="M602.7 639.3c2.9-13.1 3.8-26.5 3.8-39.9 0-13.2-2.3-26.6-1.9-39.7 8.6-1.5 17.5-5.7 25.8-8.6 2.9-1 5.9-2 8.6-3.6 3.5-2 6.5-4.8 9.8-7.2 6.7-5 14.6-8.2 21.3-13.3 8.5-6.4 14.7-15.4 23.1-21.9 9.5-7.4 21.1-11.1 32.7-13.3 14.8-2.9 26.7-11 41.8-2.2 3.1 1.8 6 4.2 7.9 7.2 3.9 6 3.5 14.5-1 20.1-14.3 3.5-22.7 18.2-27.1 32.3-4.3 14.1-6.6 29.4-15.6 41-6 7.6-14.3 12.9-21.8 19.1-23 19.1-38.2 47.8-49.1 75.1-9.1 22.9-8.6 49.7-8.2 73.9.1 4.4 16 1.6 11.6 2.5-27.7 5.4-36.7-23.4-69.5-38.8-9.9-4.6-20.4-10.6-30.3-15.2 15.6-19.2 32.7-42.9 38.1-67.5z"/><path d="M847.7 871.9c-24.2 51.1-32 120.5-38.3 230-.7 12.9-5.9 25.7-14.2 35.7-5.6 6.8-13.2 11.6-21.1 15.5-27 13.2-58.2 16.3-88 12-29.7-4.3-58.1-15.6-84.6-29.8-6.1-3.3-12.4-7-16.2-12.8-2.7-4.1-3.9-9-5-13.8-11.8-49.2-22.3-98.9-39.4-146.7-7.9-21.9-16.4-43.7-29.8-62.7-11.9-16.8-18.5-37.7-18.8-58.7-.4-29.3 1.6-59.7 11.6-87.5 8.6-23.8 26.2-52 51.3-60.8.5-.2 1-.3 1.6-.5 2.6-.8 5.3-1.4 7.6-2.9 1.7-1.1 3.1-2.6 4.6-3.9 4.3-3.7 10-5.8 15.7-5.9-2.8.3-4.7 3.3-4.8 6.1-.5 9.9 21.4 24.7 50.8 25.1 15.8.2 30.8.1 63-7.1 9.1-2 24.3-4.8 33.6-3.5 3.2.4 32.5 10.2 50.4 14.6 13.8 3.3 28.4 4.4 41.3 10.4 23.4 10.8 22.2 41.5 25.2 64.6 3.6 27.7 15.2 57.9 3.5 82.6z" fill="#ffdf64"/><path d="M846.9 873v2.6c-.2 13.5-1.3 27.1-5.2 40-2.5 8.3-13.9 18.1-16.3 26.4-4.3 14.6-4.8 30.1-5.4 45.4-1.4 43.2 1.5 89.1-4.5 131.9-4.3 30.5-34.8 40.4-61.3 44.3-23.2 3.4-46.8 3.8-70.1 1.1 17.6-1.5 31.4-15.5 41.2-30.2 19.9-30 29-66.7 26.8-102.5-2.5-39.9-20.2-65.3-42.1-97.2-31.8-46.5-44.5-75.7-55-131-5.1-26.6-2.8-71.5-.5-94.2 0 0 29.4-4.8 39.3-9.1 13.1-5.7 18.1-6.8 25.9-13.3 1-.8 1.7-2.6.6-3 2.4-.9 5.3-.3 7.2 1.5 1.8 1.8 2.4 4.8 1.5 7.2 4.8-.5 8.2 4.3 11.7 7.5 5 4.5 11.7 6.5 18.1 8.4 9.9 2.8 19 7 29.1 8.9 10.4 2 21.5 3.5 31.2 8.3 23 11.3 23.1 39.2 21.6 61.1-1.8 28.2 6.2 57 6.2 85.9z" fill="#ffe47d"/><path class="st61" d="M748.5 496.7c17.7-2.8 34.4 8.6 52.1 10.9 19.8 2.6 40.6-7.4 51-24.4 1.5-2.5 2.4-6.5-.3-7.6-2.1-.9-4.3 1.1-5.8 2.9-9.9 11.4-24.1 18.9-39.1 20.6-15 1.7-30.6-2.3-42.8-11.1"/><path class="st61" d="M586.3 608.9c6.4 7 13.7 13 21.5 17.3 5 2.8 10.6 3.6 15.7 6 4.8 2.2 8 5.2 13.6 5.9 21 2.6 37.9-19.2 47.7-34.9 5.3-8.5 8.6-17.3 12.5-26.3 4.7-10.5 5.8-22.3 11-32.6.9-1.7 1.9-3.4 3.6-4.4 3.3-2 7.8-.4 10.3 2.6s3.3 6.9 4.1 10.7c2.8 1.8 6.7-.1 8.4-3s1.8-6.4 2.3-9.7c1.9-12.1 9.9-22.1 20.4-28 17.5-9.7 38.1-1.3 55.8-12.4 6.3-4 11.5-9.5 15.9-15.5 14.5-20.2 19.1-48 9-70.7-4.4-9.8-11.2-18.3-18.3-26.4-3.8-4.4-7.8-8.6-12.3-12.3-19.7-15.8-43.4-15.4-67-13.4-25.1 2.2-49.1 13.5-68.1 29.8-4.7 4-9.1 8.3-14.4 11.4-9.7 5.6-21.7 8.1-32 13.1-11.3 5.4-22.3 11.8-32.2 19.6-16.4 12.9-30 30.3-35.2 50.6-1.8 7.1-2.6 14.4-3 21.8-1.1 18.9 0 38.1 5.4 56.3 4.5 15.5 13.5 31.7 25.3 44.5z"/><path d="M757.9 707.6c2.9 18.3 5.8 36.9 7.9 55.3 2.7 23.8.6 47.8 5 71.6 4.2 22.4 12.5 44.5 27.2 61.8 4.3 5 9 9.6 13.9 14.1 8.5 7.9 19.2 23 29 29.3 10.2 6.5 15.3 14.9 24.1 16.8-2.1-7 14.8-75.1 21.4-90.2 11.2-25.7 31.5-42.3 42.3-38 1.7 1.1 1.9 5.1 1.7 8.8 2.7-18.2-3.2-16.8-8.4-20.9-15.7-12.5-17.4-20.8-30.9-35.6-10.9-12-20.8-26.3-31.2-38.8-10.3-12.5-33.7-33.5-49.9-32.9-36 1.4-52.1-1.3-52.1-1.3z" fill="#ffe78a"/><path d="M922 816.1c-15.7-12.5-17.4-20.8-30.9-35.6-11.7-12.8-21.4-27.2-32-40.8-12.5-16.1-27.9-30.3-48.7-32.8-6.1-.7-12.2-.8-18.4-.8-5.1 0-10.2.9-15.2.6h-.4c-11.5-.6-23.2-1.6-34.1-5.3 4.6 4.5 11.4 5.7 17.5 7.9 9.5 3.4 40.1 5.3 46.4 6.8 14.2 3.3 24.9 11 33.2 20.9 13.6 16.3 23.7 40.9 30.9 60.8 9.3 25.7 12.5 34.2 24.5 53.3 12.6-18.3 38-29.4 35.7-14.1 2.6-18.2-3.3-16.8-8.5-20.9" fill="#ffeda7"/><path class="st433" d="M647.6 552.7c-18.9 9.7-44 11.2-63.7 6.3-6.3 12.8-2.6 28.8 6.1 40 8.8 11.2 21.8 18.3 35.2 23.2 3.6 1.3 7.4 2.5 11.2 2.4 20.7-.6 35.1-17.3 39.2-36.5.7-3.3 1.1-6.8 2.5-9.9 3.5-8.1 12.4-12.3 19.6-17.4 6.1-4.3 11.4-9.6 15.6-15.7 4.6-6.6 4.7-14 8.6-20.9 5.1-9.1 14-15.7 23.7-19.6 28.9-11.6 65 1 82.7-31.7 9-16.7 8.3-37.6.9-55.2-9.9-23.5-32.1-42.9-57.4-48.1-11.9-2.4-27.7-.5-39.6 1.8-14.3 2.8-27.9 8.5-39.9 16.9-2.3 1.6-4.7 3.7-4.5 6.4 10.2-1.3 19.4-6.4 29.2-9.3 11.7-3.5 24.3-4 36.3-1.7 9.7 1.8 19.2 5.5 26.8 11.8 7.6 6.3 13.1 15.5 13.7 25.3 2.2 33.8-35.3 49.6-60 60.7-26.4 11.9-50.2 31.2-67 54.8-4.6 7-11.4 12.4-19.2 16.4z"/><path class="st427" d="M717.3 581.2c-2.7 4.3-8.5 6.2-13.5 5-5-1.2-9.1-4.9-11.6-9.4s-3.6-9.6-4.2-14.7c-.8-7.4-.4-15.5 4.1-21.4 4.4-5.8 12.5-8.4 19.5-6.3 7 2.1 12.3 8.7 12.8 16v-1.7"/><path d="M652.7 823.9c4.8-37.5-35.4-40.2-60.6-49.1-3-1.1-6-1.9-9.2-2.2-23.4-2.1-42.2 12.9-59.5 26.5-21.8 17.2-15 50.5-7.1 74.2 7.5 22.7 19.7 43.6 30.2 65.1 17.7 36.1 31 74.4 39.5 113.7-11.8-54.7-15.5-114.7 21-160.8 13.9-17.6 30.3-33.2 41-53.1 2.4-4.3 4.1-9.2 4.7-14.3z" fill="#ffd840"/><path class="st61" d="M614 517.2c-109.2 13.3-188.5 114.4-176.1 223.1 2.1 18 6.5 35.9 14.5 52.2 25.5 51.8 82.4 76.4 138.5 67 25.3-4.3 49.8-17.4 64.2-38.7 14.5-21.2 17.4-50.8 4.2-72.8-8.6-14.3-22.7-24.2-35.3-35.2-31.5-27.4-56.4-68.1-49-109.2 5.7-31.6 29-56.7 51.3-79.8"/><path class="st61" d="M582.1 570.3c-16.5 27-13.3 63 2.6 90.4 15.8 27.4 42.6 47.1 71.1 60.8 6.5 3.1 13.6 6.4 17.2 12.6 4.2 7.3 4.2 18.9 12.3 21.1 5.5-13.2-2.2-28.7-13.3-37.7-11.1-9.1-25-13.8-37.5-20.7-39.6-21.9-64.3-68.3-60.2-113.4.4-4.3 1-8.8-.7-12.8s-6.6-7-10.4-4.9"/><path class="st37" d="M692.5 1092.2c46.6.7 90-4.8 126.2-33.3 11.8 44.3 28.2 128.9 32.7 198.8-76 34.6-142.4 26-226.3 21.3-10.9-.6-43.1 2.8-53.6-.1-19.8-5.5-42.9-14.6-63.5-14.8.5 0-6-92.7 13.9-124.6 10.1-16.1 34.2-65.5 50.1-77.6 0 0 28.8 16.1 47.7 21.6 32.4 9.4 48.2 8.3 72.8 8.7z"/><path d="M691.5 1092.4c15.7.5 38.7-.3 54.6-3.4-8.1 26-29 51-41 64.1-36.8 40.1-68.8 63-86.2 114.6-1.5 4.5-3 9.4-6.9 12-12.5 8.7-31.9 3.4-44.5-1.5-18.4-7.3-39.6-14-59.5-14.2.5 0-6-92.7 13.9-124.6 10.1-16.1 34.2-65.5 50.1-77.6 0 0 28.8 16.1 47.7 21.6 23.7 7 47.2 8.2 71.8 9z" opacity=".2" fill="#0058b0"/><path class="st433" d="M523.3 658.8c.5 17.5 4.6 34.7 6.1 52.1s.1 36-9.5 50.7c-3.2 4.9-7.3 9.3-12.6 11.7-8.7 3.8-19.1 1.3-26.9-4.1-7.8-5.3-13.6-13.1-19.2-20.8-4.4 12.4-.4 26.4 6 37.9 12.3 22.2 33.2 39.4 57.4 47.1s51.3 5.7 74.1-5.4c15.5-7.5 29.9-20.6 32.5-37.6 3.2-20.7-11.1-39.4-23.5-56.3-15.8-21.4-29.8-44.6-37.7-70-7.9-25.4-9.3-53.4-.1-78.4 4.9-13.4 15.7-23.9 20.9-36.3-14.8-9-42.2 30.1-48.7 40.8-12.5 20.7-19.5 44.6-18.8 68.6z"/><path class="st418" d="M1535.5 837.4c18.3 9.2 36.6 18.5 55.9 25.4 16.4 5.9 35.1 4.1 48.2 15.9 19.2 17.4 37 36.3 53.3 56.5 16.6 20.6 33.6 43.8 59.1 50.7 13.6 3.6 28 2.1 41.9.5 9.3-1.1 19.3-2.5 25.8-9.3 3.9-4.1 5.9-9.5 7-15 3.2-14.8 1-30.9-7.4-43.4-6.3-9.4-15.7-16.2-25-22.6-25.3-17.3-51.9-32.6-78.7-47.5-18.4-10.3-36.8-20.4-54.3-32.2-16-10.7-29.2-24.6-44.6-35.7-9.3-6.7-15.1-11.8-26.3-14.5-22.2-5.4-48.3 5.8-64.8 21.6-7 6.7-13.9 15.1-13.2 24.7.8 11.8 12.5 19.6 23.1 24.9z"/><path class="st416" d="M1550.4 844.9c13.6 7.2 25.7 13.2 40.9 14.6 13.9 1.3 29.5 8.3 40.3 17.1 5.8 4.8 10.7 10.6 15.5 16.4 6.6 8 13.2 15.9 19.8 23.9 15.2 18.3 30.6 36.8 49.8 51 19.2 14.1 42.8 23.6 66.5 21.4 15.9-1.5 32.7-10 37.2-25.3 2.1-6.9 1.3-14.3.6-21.5-1.1-11.1-2.5-22.7-9.2-31.6 8 11.7 4.6 28.7-5.4 38.7-10 10-25 13.6-39.1 12.6-14.6-1.1-28.8-6.8-40.1-16.2-7.5-6.2-13.6-13.9-19.7-21.5l-22.5-28.2c-6.9-8.7-14-17.5-17.8-27.9-3.4-9.1-4.3-19.3-10.1-27-14.4-18.9-38.3-9.9-57.7-11.3-8.4-.6-16-5-23.6-8.6s-16.1-6.8-24.4-4.8-15.1 11.2-11.7 18.9c1.8 4.3 6.3 7 10.7 9.3z"/><path class="st369" d="M1636.2 1117.6l-452.4-203.9c-11.2-5.1-16.2-18.3-11.2-29.5l81-175.8c5.1-11.2 18.3-16.2 29.5-11.2l452.4 203.9c11.2 5.1 16.2 18.3 11.2 29.5l-81 175.8c-5.1 11.2-18.3 16.2-29.5 11.2z"/><path class="st99" d="M1211.1 926l-27.6-12.4c-11.2-5.1-16.2-18.3-11.2-29.5l81-175.8c5.1-11.2 18.3-16.2 29.5-11.2l27.6 12.4-99.3 216.5z"/><ellipse transform="rotate(-65.739 1250.316 762.864)" class="st99" cx="1250.3" cy="762.9" rx="4.4" ry="4.2"/><ellipse transform="rotate(-65.739 1261.44 767.878)" class="st99" cx="1261.5" cy="767.9" rx="4.4" ry="4.2"/><ellipse transform="rotate(-65.739 1244.77 775.17)" class="st99" cx="1244.8" cy="775.2" rx="4.4" ry="4.2"/><ellipse transform="rotate(-65.739 1255.892 780.184)" class="st99" cx="1255.9" cy="780.2" rx="4.4" ry="4.2"/><ellipse transform="rotate(-65.739 1239.01 787.95)" class="st99" cx="1239" cy="788" rx="4.4" ry="4.2"/><ellipse transform="rotate(-65.739 1250.132 792.964)" class="st99" cx="1250.2" cy="793" rx="4.4" ry="4.2"/><path class="st387" d="M1331.4 776.2c-.3-.5-.8-1.3-.9-1.7 0-.5.2-1.1.4-1.5.2-.3.5-1 .9-1.3.3-.3 1.2-.4 1.9-.5.3 0 .5-.3.5-.6l-.2-2.8c0-.3-.3-.5-.6-.5-.6.1-1.5.1-1.9 0-.4-.2-.8-.7-1.1-1-.2-.3-.5-1-.5-1.5 0-.4.3-1.3.6-1.9.1-.3 0-.6-.3-.8l-2.5-1.1c-.3-.1-.6 0-.8.3-.3.6-.7 1.4-1 1.7-.4.3-1.1.5-1.5.6-.4 0-1.1.1-1.5-.1-.4-.2-.9-.9-1.3-1.4-.2-.3-.5-.3-.8-.1l-2.2 1.7c-.3.2-.3.6-.1.8.3.5.8 1.3.9 1.7 0 .5-.2 1.1-.4 1.5-.2.3-.5 1-.9 1.3-.3.3-1.2.4-1.9.5-.3 0-.5.3-.5.6l.2 2.8c0 .3.3.5.6.5.6-.1 1.5-.1 1.9 0 .4.2.8.7 1.1 1 .2.3.6.9.6 1.4 0 .4-.3 1.3-.6 1.9-.1.3 0 .6.3.8l2.5 1.1c.3.1.6 0 .8-.3.3-.6.7-1.4 1-1.7.4-.3 1.1-.4 1.4-.5.4 0 1.1-.1 1.5.1.4.2.9.9 1.3 1.4.2.3.5.3.8.1l2.2-1.7c.2-.2.3-.6.1-.8zm-8.1-2.5c-1.8-.8-2.6-3.1-1.8-5s3.1-2.8 4.9-2c1.8.8 2.6 3.1 1.8 5-.9 2-3.1 2.9-4.9 2zm190.7 86.4l-171.4-77.3c-1.8-.8-2.6-2.9-1.8-4.7l.1-.1c.8-1.8 2.9-2.6 4.7-1.8l171.4 77.3c1.8.8 2.6 2.9 1.8 4.7l-.1.1c-.8 1.9-2.9 2.7-4.7 1.8z"/><path class="st388" d="M1573 953l-240.6-108.4c-9.9-4.5-14.3-16.1-9.8-26l.3-.8c4.5-9.9 16.1-14.3 26-9.8l240.6 108.4c9.9 4.5 14.3 16.1 9.8 26l-.3.8c-4.5 9.8-16.2 14.2-26 9.8zm-28.3 62.6l-240.6-108.4c-9.9-4.5-14.3-16.1-9.8-26l.3-.8c4.5-9.9 16.1-14.3 26-9.8L1561.2 979c9.9 4.5 14.3 16.1 9.8 26l-.3.8c-4.5 9.9-16.1 14.3-26 9.8z"/><path class="st387" d="M1719.1 933.2l-80.2-36.2c-1.8-.8-2.6-2.9-1.8-4.7l.1-.1c.8-1.8 2.9-2.6 4.7-1.8l80.2 36.2c1.8.8 2.6 2.9 1.8 4.7l-.1.1c-.8 1.9-3 2.7-4.7 1.8z"/><path class="st418" d="M1577.5 765.4c-18.2-.2-36.5-.5-54.7-.7-2.9 0-12.3.9-14.7 2.5-7 4.9-36.1 62.7-31.1 65.7 2.4 1.5 5.5-.6 7.7-2.3 5.3-4.2 9.9-9.3 13.4-15.1 5-8.2 16.7-26.9 16.7-26.9s10.8-.6 16.8-1.4c12.8-1.7 25.7-3.4 38.5-5.1"/><path class="st416" d="M1531.6 787.1c3.4-.4 38.3-5.8 38.5-4.2-.2-2.2 1.4-4.7.1-6.4-.7-.9-2-1.1-3.1-1.2-16.6-1.9-33.4.8-49.7 4.6-1.3.3-2.6.6-3.8 1.3-1.5.9-2.6 2.2-3.7 3.6-8.1 10.6-13.3 23.2-19.9 34.8-3.1 5.5-6.8 11-12.5 13.8 4.8.9 7.2-2.6 10.4-5.4 4-3.6 7.4-7.8 10.2-12.4 5-8.2 16.7-26.9 16.7-26.9s10.8-.8 16.8-1.6z"/><path class="st418" d="M1572 774.3c-13.7 3.9-27.5 7.8-41.2 11.7-3.2.9-6.5 1.9-9.3 3.6-4.8 3-7.9 8.1-10.5 13.2-3.9 7.6-7.1 15.5-9.5 23.6-.9 2.8-1.6 5.7-1.7 8.7-.1 2.8.5 5.6 1.1 8.3 2.1 9.1 5.1 18 9.1 26.5.3.6.6 1.3 1.3 1.6.5.2 1 .1 1.5 0 3.7-.8 6.7-3.6 8.4-7s2.2-7.2 2.4-10.9c.2-4-.1-8.1-.7-12.1-.3-2.2-.8-4.4-.5-6.5.2-1.5.8-3 1.5-4.4 2.9-5.9 6.9-11.1 10.8-16.3 1.5-2 3-3.9 4.9-5.5 2.3-1.9 5-3.3 7.7-4.6 6.8-3.3 13.6-6.6 20.4-9.8"/><path class="st416" d="M1521.1 864.5c1.7-3.4 2.2-7.2 2.4-10.9.2-4-.1-8.1-.7-12.1-.3-2.2-.8-4.4-.5-6.5.2-1.5.8-3 1.5-4.4 2.9-5.9 6.9-11.1 10.8-16.3 1.5-2 3-3.9 4.9-5.5 2.1-1.8 4.2-2.4 6.6-3.5 3-1.3 5.7-3.7 8.4-5.7 6.2-4.5 12.3-9.2 18.3-14-11.3 5.1-23.9 6.9-35.1 12.2-2.9 1.4-5.7 3-8.1 5.1-1.9 1.6-3.5 3.5-5 5.5-10.2 13.7-13.8 31.9-9.7 48.4.7 2.7 1.5 5.4 1.1 8.1-.4 2.7-2.1 5.1-4.5 6.4 1.2-.7 3.4-.5 4.9-1.6 2.1-1.3 3.6-3.2 4.7-5.2z"/><path class="st418" d="M1594.8 800.4c-3.3 1-6.2 2.9-9.1 4.8-6.4 4.2-12.9 8.3-19.3 12.5-5 3.2-10 6.5-14.3 10.6-6.3 6.1-9.3 11.7-9.3 11.7-1.7 7.4-1.7 26.2-4 33.4-2.3 7.2-8.3 14.1-15.8 14.1-5.6-.4-1.2-58.7-.4-60.2 1-1.8 13.5-23.4 22.4-28.1 3.2-1.7 27.2-13.9 36.8-15.3.4-.1.9-.1 1.1-.5.2-.3-.1-1-.5-.8"/><path class="st416" d="M1561.6 813.9c-1.2 1.5-2.3 2.9-3.5 4.4-4.1 5.2-8.1 10.5-11.8 16.1-3 4.6-4.1 7.4-4.6 12.7-.8 8.6-.3 18-3 26.2-1.9 5.9-5.8 11-11.8 13 3.9-5.6 4.1-10.7 3.7-17.4-.7-13.9-1.4-28.1 2.2-41.5 1.1-3.9 2.6-7.9 5.1-11.1 1.7-2.1 3.7-3.8 5.8-5.5 12.1-9.6 25-17.5 39.5-22.7-7.4 8.5-14.6 17-21.6 25.8z"/><path class="st418" d="M1606 829.4c-6.1 1.9-12.8 1.1-18.8-1.1s-11.4-5.7-16.5-9.6c-1 5.5-2.8 10.8-5.3 15.7-1.2 2.4-2.7 4.7-4.2 6.8-1.3 1.8-3.8 3.5-3.3 5.8 1.2 5.3 4 10.4 3.3 15.9-.8 6.5-3.6 6.4-8.7 10.5-.9.7-2.1 1.5-3.1.8-.4-.3-.6-.8-.8-1.3-2.7-8-5.4-16.1-8.1-24.1-.7-2.1-1.4-4.2-1.6-6.4-.2-2.4 16.1-34.1 17.7-36.4 1.6-2.3 15.5-12.2 26-19.6"/></svg>