<svg width="1207" height="1299" viewBox="0 0 1207 1299" fill="none" xmlns="http://www.w3.org/2000/svg"><circle opacity=".5" cx="604" cy="650" r="448" fill="#EEEFFB"/><path d="M682.6 1133c1.6 20.7 3.2 41.4 4.9 62 .1 1.2.3 2.5 1.3 3.2.7.5 1.6.4 2.5.4 12.7-.7 25.3-1.4 38-2 .4-23.5.9-47 1.3-70.5" fill="#DBECFE"/><path d="M733.9 1213.8c5.1-11 0-29.6-4.7-32.1-3.2 5.1-10.4 7.9-15.7 4.2-2-1.4-3.5-3.4-5-5.4-5.6-7.4-13.2-14.7-22.4-14.6-3.8 0-7.8 1.6-9.8 4.8-2 3.2-1.2 8.2 2.2 9.9-16.5 14.2-33 28.4-49.5 42.7-5 4.3-13.5 11.8-10.9 17.8 1.4 3.3 4.9 6.9 8.3 8.3 16.9 7 36.8 8.9 52-1.2 24.8-16.7 49.7-21.9 55.5-34.4z" fill="#3297F5"/><path d="M801.3 1131.5c3.2 20.5 6.3 41 9.5 61.5.2 1.2.5 2.5 1.5 3.1.7.4 1.7.3 2.5.2 12.6-1.6 25.1-3.2 37.7-4.9-1.3-23.5-2.6-46.9-4-70.4" fill="#DBECFE"/><path d="M850.6 1220.1c.9-.5 1.8-1.1 2.5-1.9.5-.6.9-1.4 1.3-2.1 4.9-9.5 5.2-22.3-2.3-30-4.3 4.6-11.5 7.1-16.7 1.9-1.7-1.7-2.8-4-3.9-6.2-4.1-8.3-10.2-16.9-19.3-18.6-10.6-1.9-10.5 5.7-13.5 13.1-.8 2-2.3 3.6-3.8 5.2-14.4 15.1-29.8 29-45.5 42.8-4.2 3.7-8.5 7.5-11.1 12.4-2.6 4.9-3.2 11.4.1 15.9 2.7 3.8 7.5 5.5 12 6.7 4.7 1.2 9.5 2.1 14.4 2.5 2.9.3 5.8.4 8.6.1 7-.9 13.2-4.7 19.3-8.4 18.6-11.4 37.6-22.4 56.8-32.8.5-.3.8-.4 1.1-.6z" fill="#3297F5"/><path d="M728.6 355.6c-.5.2-1 .5-1.5.7-10.5 5.2-19.8 12.7-29.9 18.8-7.6 4.6-15.6 8.3-24 11.2-5.4 1.9-11 3.3-16.1 5.9-23.3 11.5-42.8 35.1-33.9 62.3.9 2.8 2.4 5.8 5.1 7.1 2 .9 4.3.7 6.5.3 6.6-1.2 56.2-13.5 64.3-15 12.8-2.3 24.9-7.5 36.6-13.2 13.1-6.4 26.2-13.7 35.3-25.1 9.1-11.4 13.4-27.6 7.2-40.8-3.4-7.1-9.6-12.9-17-15.5-10.6-3.8-22.4-1.4-32.6 3.3z" fill="#CAE3FC"/><path d="M543.3 399.4c3.6-4.2 5.3-9.9 4.5-15.4-.3-1.8-.8-3.6-1.9-5-1.6-2.2-2.8-4.1-5.3-5.1-.9-.4-.3-1-1.2-.8-.7.1-4.4 1.6-5 2-6.8 4.4-10 12.8-16.3 17.8-4.4 3.5-5.5 5.9-4.9 8.3 1 4.1 6.6 5.7 10.8 6.1 2 .2 4.2.3 6.1-.5 2.2-.9 3.9-2.8 5.5-4.6 2.3-2.7 4.6-5.3 6.9-8" fill="#93C5FA"/><path d="M561.8 420.7c.9-.4 1.8-.8 2.6-1.3 5.6-3.5 8.3-10.6 7.9-17.2-.7-10.2-9.5-13.3-17.5-17.1-8.8-4.3-17.5-9-25-15.4-10.5-8.9-18.3-20.6-26.7-31.5-1.8-2.4-3.8-4.8-6.5-6-1.9-.8-4.1-1-6.1-1.1-6.3-.3-12.6-.3-18.9-.1 1.6 8.5 3.2 17 4.7 25.5 1 5.5 2.1 11 4.5 16s6.4 9.5 11.6 11.4c2.2.8 11.3 1 13.4 2 2.6 1.2 4.9 4.5 6.8 6.6 3.7 4.2 7.3 8.5 10.9 12.8 3.2 3.9 8.6 6.5 13 9.1 4.4 2.6 6 5.9 11 6.9 4.8 1 9.9 1.1 14.3-.6z" fill="#9E7744"/><path d="M656.4 440.7c-1.7 10-15.9 23.2-30.1 21.1-13.9-2-51.3-13.5-62.2-19.4-15.5-8.4-29.3-22.1-32.5-29.8-.2-.5 2.1-10.5 6.6-14.1 2.1-1.7 4.4-3.3 6.4-5.1 1.9-1.7 5.1-7.1 7.4-8.4 4.6-2.7 22.3 2.7 32.2 7.4 13.4 6.4 50.9 12.1 53.7 14.7 5.8 5.6 20 24.4 18.5 33.6z" fill="#CAE3FC"/><path d="M557.3 384.5c-5-3.8-4.1-4-7.7-6.3-2.6-1.7-5.1-3.7-8.1-4.3.8.6 1.3 1.5 1.7 2.4 1.3 3.7 2.6 6.7 1.3 10.4s-3.9 6.8-6.6 9.6c-3.1 3.2-6.5 6.2-10.5 8-4.1 1.8-8.9 2.3-12.9.4 6.3 2.9 14.2 6.4 19.3 11.1.5.4 2.5 1.1 3 1 3.2-.4 6.3-1.1 9.1-2.7 3.8-2.1 4.6-5.1 6.9-8.8 3.4-5.5 3-19.7 4.5-20.8z" fill="#B5D7FB"/><path d="M542 376c1.3 1.7 1 4.6.9 6.8-.5 9.1-8.1 16.4-16.3 20.2-2.7 1.3-5.8 2.3-8.7 1.5-2.9-.7-5.4-3.9-4.4-6.7-2.2 2.2-.8 6.3 1.9 7.8s6.1 1 9.1.1c8.1-2.5 15.3-8 19.8-15.2 2.1-3.3 3.6-7.3 2.9-11.1-.9-4.5-6.2-8.3-10.4-5.3 2.5-.5 4.1.4 5.2 1.9z" fill="#DBECFE"/><path opacity=".63" d="M659.3 61.1l-105 71.8-143.1-25.5 95.4-72 152.7 25.7z" fill="#ABD4FB"/><path d="M578.8 116.3l-24.5 16.6-143.1-25.5 96.1-72.1 71.5 81z" fill="#A3D0FB"/><path d="M659.3 61.1l-105 71.8-31.9 149.5 86.7 99.6 100.7-77.9 23.7-148.8-74.2-94.2z" fill="#3297F5"/><path d="M522.4 282.4l31.9-149.5-143.1-25.5-32.4 149.3 143.6 25.7z" fill="#82C0F9"/><path d="M522.4 282.4l87.1 99.4-143.7-25.6-87-99.5 143.6 25.7z" fill="#53A8F7"/><path d="M495.3 363.4c-1.7-4.1-5.4-6.8-8.9-9.2l-.3-10.1c0-1-.1-2.1-.2-3.1-.6-4.3-3.8-9.1-8.1-9.4-.5 0-1.1 0-1.4.5-.3.4-.3 1-.2 1.5.1 1.9.3 3.8.4 5.7-.5-2.2-1-4.5-1.9-6.5-1-2-2.5-3.8-4.5-4.5-1.2-.4-2.6-.4-3.6.3s-1.7 2.4-1.1 3.6c-2.4-1.1-5.6-1.7-7.5.4-1.6 1.8-1.5 4.5-1.3 6.9-.9-.6-2.1-1.3-3.1-.8-1.4.6-1.7 2.6-1.7 4.2l-.6 21.5c0 .8 0 1.7.2 2.4.5 1.9 2.3 2.9 3.9 3.7 4.1 2.1 8.1 4.2 12.2 6.3 1.1.6 2.2 1.1 3.4 1.2.4 0 .7 0 1.1.1.6.2 1.1.8 1.6 1.3 2.4 2.5 6.8 2.2 9.1-.6.8 2.1 3.3 2.8 5.3 2.1 2-.7 3.6-2.4 5-4.1 1.5.3 3.1-.5 4.3-1.5 1.2-1.1 2.2-2.4 3.2-3.7 2.2-2.7 4.7-5 7.5-6.9" fill="#9E7744"/><path d="M476.8 339.3s1.2 10.8 1.9 16.3 4.2 23.3 4.2 23.3l-7.3-23.4s-1.9-17.5-4.5-22.8c-2.6-5.3-4.9-3.2-4.9-3.2s2.6-3.9 6.5.2c3.6 3.9 4.1 9.6 4.1 9.6zm-5.4 37.8l-6.6-19.1.8-25.7s-2.4-1.8-5.6-.8c0 0 2.6 2.4 2.8 5.6.2 3.2-1.7 16.6-.8 21.3 1 4.5 9.4 18.7 9.4 18.7zm-15.5-37.4l-.3 19.9 9.4 15.1s-9.7-11-10.6-14.3c-.9-3.3.3-21.3-.8-21.6.1 0 2.3-.7 2.3.9z" fill="#916B3D"/><path d="M729.1 357.2c-1.5.5-2.9 1.2-4.2 2-4 2.6-6.7 6.8-9.1 10.9-3 5-5.8 10-8.5 15.1-5.2 9.9-9.8 20.2-16.1 29.5-6.2 9.3-14.3 17.7-24.6 22.2-3.2 1.4-6.5 2.4-9.9 3.1-3.7.7-7.6.5-11.2 1.3-7.1 1.5-13.5 2-20.8 1.2-9.1-1.1-18-3.1-26.7-6-22.9-7.7-36.8-11.6-59.9-18.9 6.9 14.5 31.7 25.4 55.7 34 12.6 4.5 35.6 9.3 39.6 8.3 16.9-4.1 52-10.5 65.9-13.1 12.8-2.3 24.9-7.5 36.6-13.2 13.1-6.4 26.2-13.7 35.3-25.1 6.3-7.8 8.4-16.2 10.3-25.8 1.7-8.8-4-15.7-11.8-19.9-6.7-3.6-14.3-4.9-21.7-6-6.4-.8-13.1-1.5-18.9.4z" fill="#C1DEFC"/><path d="M696.3 601.9c.4 25.4-43.6 215.2-40.7 264 1.8 29.6 4.2 80.2 6.4 109.8 2.9 38.9 14 114.6 16.9 153.5.2 2 .4 4.2 1.7 5.7 1.5 1.6 3.8 1.9 5.9 2.2 19.5 2.9 27.8-2.9 45.9 1.6 2.9-63.6-5.5-201.4-4-265.1.7-28.4 62.2-106.8 61.5-198.6 0-4-15.9-21.4-17.7-25-1.7-3.3-4.7-5.8-7.6-8.2-11.7-9.6-23.4-19.3-35.2-28.9" fill="#0058B0"/><path d="M732.5 1138.8c2.9-63.6-5.5-201.4-4-265.1.3-13.9 9.1-28.4 14.9-40.6 10.1-21.4 20.4-42.7 28.6-65 9.6-26.3 16-53.4 17.8-81.5 1.3-21.5-26.6-48.7-41.2-63.5-11.5-11.7-24.6-22-39.5-29 8.8 24.4 9 51.2 5 76.8-3.9 25.6-11.9 50.5-19 75.4-13.6 47.4-24.5 96-23.9 145.3.2 18 1.9 35.9 3.7 53.8 6.2 64.4 12.5 128.9 18.7 193.3 2.6-.7 39.1-3.4 38.9.1z" fill="#044CA3"/><path d="M835.1 619.1c18.2 30.7 17.8 68.4 17.4 104-1.3 131.2-13.9 287.8-1.3 418.4-21.6-5.6-28.5-2.6-50.7-1.2-18.4-127.9-40-269.4-40.8-275.6-2.1-15.8-15.1-161.1-25.7-234.9" fill="#0058B0"/><path d="M738.7 1123.4c-.8 8-1.5 16.1-2.3 24.1-5.4-3.2-12.1-2.1-18.3-1.5-12.9 1.2-40.6-4.8-41.7-4.4-1.1.3-3.8-21.3-2.1-33.1 10.2 1.3 20.5 1.6 30.7.8 12-1 35.5-4.2 33.7 14.1zm113.4 24.2c-7.6-3.6-16.5-2.3-24.9-1.6-7.9.7-15.8.7-23.7.1-1.3-.1-2.7-.2-3.8-.8-1.2-.6-2.1-1.6-2.9-2.7-6-8.7-2.1-20.8-5-30.9 10.3 3 21.2 3.8 31.8 2.3 6.6-.9 25.7-7.2 30-.1 2.1 3.5 1.1 11.3 1 15.1-.2 6.3-1 12.5-2.5 18.6z" fill="#186ACB"/><path d="M832.1 605.7c2.1 3.2 4.2 6.5 6.3 9.7 1 1.6 2.1 3.2 2.2 5.1.1 2.4-20.9 28.9-52.6 35.8-68.6 14.9-97.4-21.7-97.8-22.9-.3-.8-.3-1.6-.4-2.4-.7-9.6-1.4-19.1-2.1-28.7 14.7.2 29.4.3 44.1.5" fill="#D4E8FD"/><path d="M744.8 205c-1.6 8-1.3 13.7 5.9 27.6 6.6 12.7 9.4 22.7 16.3 30.3 7.8-10.2 9-11.7 16.9-21.9.8-1 1.6-2.1 1.5-3.4-.1-1.1-.7-2-1.4-2.8-5.1-6.4-11.4-11.8-18.4-16.1" fill="#473A22"/><path d="M760.8 368.9c-3.1-9.8-2.8-20.6.7-30.2.3-.7.5-1.4 1-1.9.7-.9 1.8-1.5 2.8-2 2.2-1.1 4.6-2 6.9-2.7 4.5-1.4 9.3-2 13.9-2.5 17.3-2.1 34.5-4.3 51.8-6.4 1.8-.2 3.6-.4 5.3.3 1.2.5 2.1 1.6 2.9 2.7 1.7 2.6 2.5 5.7 2.8 8.8.7 7.4-1.4 15-5.6 21.1-4.2 6.1-10.6 10.6-17.8 12.6-5.7 1.6-11.8 1.5-17.6 2.5-3.6.6-7.1 1.6-10.7 2-3.5.4-7.1.2-10.6.1-6.3-.3-12.6-.6-18.8-.9-.6 0-1.3-.9-.7-.9" fill="#93C5FA"/><path d="M830.4 287.3c-4.4 12-7.8 24.5-7.5 37.2.3 12.7 4.9 25.8 14.4 34.2-8.6 7.7-17.3 15.6-27.8 20.3-10.5 4.7-23.2 6-33.4.5-8.4-4.5-13.8-12.9-18.9-21 3.2-.1 9-6.8 10.1-9.9 2.8-7.9 4.5-16 4.6-24.4 0-2.8-.1-5.6 1-8.2.8-2 2.1-4 3.6-5.5 8.2-8.3 13.7-12.2 24-17.7" fill="#9E7744"/><path d="M757.2 358.6c3.2-.1 9-6.8 10.1-9.9 2.8-7.9 4.5-16 4.6-24.4 0-2.8-.1-5.6 1-8.2.8-2 2.1-4 3.6-5.5 4.1-4.1 8.3-8 13.1-11.2 4.8-3.3 9.3-2.1 14.4-4.7 2.6-1.4 5.1-3.1 7.8-4.3 2.6-1.2 5.4-2 8.2-2.7 2.5-.7 5-1.3 7.6-2 4.4-1.1 3.7 11.1 3.1 13.9-1.4 7.4-.4 9-7.3 12.1-10.9 5.1-23.5 14.1-29.1 19.2-5.6 5.1-5.7 11.3-3.2 18.4 1.8 5.1 6.5 8.7 11.6 10.4 3.6 1.3 7.2 1.3 11 1.9 2.7.4 5.5 2.3 8.3 1.6 1.7-.5 3.4-1.2 5-.6.3.1.6.3.7.6.1.3-.1.6-.3.8-2.9 4-6.1 7.8-9.4 11.3-2.5 2.7-5.2 5.4-8.5 7.1-9.3 5.1-21 3.2-30-1.3-4.9-2.5-9-5.1-12.8-9.3-1.4-1.5-8.5-13.2-9.5-13.2z" fill="#916B3D"/><path d="M757.2 358.6c3.2-.1 9-6.8 10.1-9.9 2.7-7.8 4.6-16.1 4.6-24.4-.1-6.9 1.9-13.3 7.9-17.5 2.9-2 6.4-3.2 9.1-5.5-4.3 8.9-7.9 18.2-8.8 28.1-.9 9.9.8 20.1 6.4 28.3 2.5 3.6 5.7 6.7 9 9.7 5.2 4.6 11 9 17.8 10.5.8.2-4.8 5.4-5.6 5.7-2.4 1.1-5.2 1.1-7.7 1.5-6.9 1-14.3-1-20.5-4.1-4.9-2.5-9-5.1-12.8-9.3-1.4-1.4-8.5-13.1-9.5-13.1z" fill="#916B3D"/><path d="M867.6 386c11.5 7.9 17.4 22.2 17.8 36.2.4 13.9-4.1 27.6-10.1 40.2-5.5 11.7-12.7 22.5-18.5 33.9-5.9 11.6-9.3 25.6-12.8 38.1-7.3 26.1-10 34.1-12.1 61.1-.6 8-1.1 16.4-5.1 23.4-3.9 6.7-10.6 11.3-17.5 14.7-32.2 16.1-74 10.6-101-13.2-24.3-21.4-31.6-33.7-31.7-64.7-.1-31.7 3.7-63 7.4-94.4 3.3-28.1 13.1-55 22.9-81.5 1.5-4.2 3.1-8.5 5.8-12 8.1-10.9 23.4-12.8 37-13.7 3.2-.2 6.6-.4 9.6.9 2.2 1 4 2.7 5.9 4.3 8.3 7.1 11.3 19.7 22.1 21.8 8.2 1.7 23.8-5.8 32.1-6.9 10.3-1.3 20.7-4 30.9-2.1 10.2 1.8 20.3 10 19.8 20.4" fill="#DBECFE"/><path d="M867.6 386c11.5 7.9 17.4 22.2 17.8 36.2.4 13.9-4.1 27.6-10.1 40.2-5.5 11.7-12.7 22.5-18.5 33.9-5.9 11.6-9.3 25.6-12.8 38.1-3.8 13.5-6.6 47.8-7.8 61-2.5 28.2-15.6 35.2-39.3 46.7-22.1 10.7-67.5 11.9-97.1-11.2-30.7-23.9-23.1-41.1-23.2-75.2-.1-31.7 3.7-63 7.4-94.4 3.3-28.1 13.1-55 22.9-81.5 1.5-4.2 3.1-8.5 5.8-12 8.1-10.9 23.4-12.8 37-13.7 3.2-.2 6.6-.4 9.6.9 2.2 1 4 2.7 5.9 4.3 8.3 7.1 11.3 19.7 22.1 21.8 8.2 1.7 23.8-5.8 32.1-6.9 10.3-1.3 20.7-4 30.9-2.1 10.2 1.8 20.3 10 19.8 20.4" fill="#DBECFE"/><path d="M871.3 464.3c-.1.3-.2.7-.2 1-.3 2.1.1 4.2-.5 6.4-2.4 9.3-9.5 16.3-13.7 24.7-5.9 11.6-17.2 44.6-19.5 57.4-2 11.1-2.6 22.4-4.7 33.4-3.9 20-16.1 38.4-33.4 49.2 5.6-24.6 2.9-50.3-.3-75.3-1.2-9-14.1-23.8-18.8-31.7-4.4-7.5-10.3-13.9-15.7-20.7-22.3-27.7-37.3-61.2-43.1-96.3-2.4-14.6-3.1-30.2 2.9-43.7.3 6 4.4 11.2 8.2 15.9 3.2 4 10.9 5.3 15.7 6.3 6.2 1.3 12.6 1.6 19 1 5.9-.6 11.9-2 17.6-.3 3.2 1 6 2.9 8.8 4.8 3.1 2.1 6.2 4.2 9.3 6.4 4 2.7 8.7 5.5 13.2 4.2 4.3-1.3 6.7-5.8 9-9.7 3.8-6.5 8.6-12.5 14.2-17.7 3-2.8 6.4-5.4 10.4-6.1 5.9-1.1 11.8 2.2 16.1 6.4 11 10.9 13.8 27.4 15.2 42.8.6 7 1.1 14-.2 20.9-1 5.6-3.2 11-6.4 15.7-1.3 1.8-2.6 3.1-3.1 5z" fill="#D4E8FD"/><path d="M871.6 456.4c1.9 3 2.5 6.9 1 11.8-1.7 5.2-5.4 9.5-8.8 13.9-13.6 17.8-29.4 58.3-31.5 80.6-.6-9.8 5.4-30.8 4.5-40.5-.1-.9-.2-1.7-.6-2.5-1.5-2.3-5-1-7.4.1-7.9 3.5-17.1 3.2-25.3.5s-15.5-7.7-22.1-13.2c-30.6-25.4-49.6-64.3-50.8-104.1-.2-7.9.2-15.8-1.3-23.5 18.3 26.2 37.5 54.8 63.3 74.3 11.9 9 27 16 41.4 12.1 5.8-1.6 11-4.9 16.7-6.8 7.6-2.8 17.1-8.4 20.9-2.7z" fill="#BCDBFC"/><path d="M822.6 355.2c1-.9 2-1.8 2.9-2.7 6.5-6.1 12-13.3 16.2-21.1.9-1.6 1.7-3.3 1.6-5.1-.1-1.8-1.6-3.6-3.4-3.4 4.4.1 14.8 5 11.4 10.7 4.5 2.2 7.8 6.7 7 11.9 7.7 5.3 20.4 11.9 22.1 24.1-16.6 9.6-34.4 13-53.6 13.3-11.9.2-36 3-38.6-2.4 2.4-5.7 10.5-8.9 15.6-11.6 6.4-3.4 13-8.6 18.8-13.7z" fill="#DEEEFE"/><path d="M822.6 355.2c1-.9 2-1.8 2.9-2.7 6.5-6.1 12-13.3 16.2-21.1 2.2-4.1 2-9.9-4.4-8.4 2.9-.3 6.2-.5 8.5 1.3 1.8 1.4 2.7 3.7 2.7 5.9.1 2.2-.6 4.5-1.4 6.5-3.4 8.8-9.7 16.5-17.6 21.7-6.3 4.2-13.5 6.7-20.4 9.8-7 3.1-13.2 6.9-18.4 12.5-.9-5.7 9-9.7 12.9-11.8 6.6-3.4 13.2-8.6 19-13.7z" fill="#E5F1FE"/><path d="M757.8 337.2c-2.2 1.7-4.1 3.9-5.1 6.4-.2.4-.3.8-.5 1.1-.2.4-.6.7-.9.9-2.5 2.3-5.2 4.8-8.5 5.7-4 1.2-8.4 2.5-10.8 6.4 1.1 7.1 6 13.5 12.5 16.3 2.6 1.1 5.4 1.7 8.2 2.3 11 2.1 34.2 15.2 35.2 3.9-1.8-3.9-7-7.8-9.8-11.5-3.1-4.2-6.5-8.2-9.5-12.6s-6.9-8-5.9-13.9c.8-4.5 4.3-8.3 8.7-9.5-3.8.2-7.6.9-11 2.7-.9.6-1.8 1.1-2.6 1.8z" fill="#DBECFE"/><path d="M849.4 259.1c-5 16.2-16.1 24.2-25.6 38.2-5.6 8.3-12.5 15.7-17 18-9.5 4.9-13.2 5.1-23.5 8.4-8.2 2.6-18.5 2.7-22.1.4-5.3-3.3-5-13.3-5.7-19.4-2.9-28.1-4.6-48 6.9-70.8 2.5-4.9 10-20.5 14.2-24 3.3-2.7 7.3-4.4 11.5-5.5 12.9-3.3 27.1-.3 38.1 7.2 11 7.6 18.7 19.4 22.1 32.3" fill="#9E7744"/><path d="M765.9 230.4c3.9-1.7 8.4-2.3 12.6-2.1 5.6.2 11 1.8 16.3 3.8 8.7 3.3 17.4 8.5 21.4 16.9 2.4 4.9 3 10.4 4.3 15.7 1.7 5.8 4.6 11 6.7 16.7-7.5 3.1-17.4 6.3-22.5-2.2-2.9-4.8-2.5-11.4-6.2-15.6-2-2.3-5-3.5-7.8-4.7-10.1-4.1-20.3-8.3-30.4-12.4-.7-.3-1.5-.6-2-1.3-.8-1.1 2.1-6.3 2.7-7.8 1-2.5 2.3-5.9 4.9-7z" fill="#916B3D"/><path d="M757 360.6c1.2-1.4 1.9-3.4 1.8-5.3-.1-1.9-1.1-3.9-2.9-4.5-.8-.3-1.8-.2-2.6-.1-3.5.5-6.8 2-9.9 3.6-5.8 3.1-14.6 6-19.3 10.5-1.1 1.1-2.2 2.2-3.1 3.5-.8 1.3-1.4 2.8-1.5 4.4-.1.9 3.3 2.8 3.7 3.6.5.8 1.3 1.4 2.2 1.7 1.9.6 3.9.3 5.8-.2 4.1-1.1 7.9-2.8 11.4-5.1" fill="#93C5FA"/><path d="M696.1 275c-.8 14.6-1.7 29.7 1.6 44.1 1.4 6.3 1.1 12.9 4.8 18.2 3.6 5.2 9.7 8.3 9.7 8.3 12.1 23.6 9.9 23.3 17.9 48.6 3.9 12.2 57-.4 51.3-8-5.3-7.1-44-46.9-46.1-57.3-2-10.1-.9-19 1.3-29.1 1.2-5.4 2.3-8.9 1.3-14.3-1.9-10.8-11.8-20.1-21.9-24.3-4.3-1.8-9.3-3.2-13.4-1.1-5 2.6-6.2 9.2-6.5 14.9z" fill="#9E7744"/><path d="M731.6 384.8c2 5.7 6.2 12.9 5 19.2.6-3 2.9-5.5 5.9-6.2-7.5-15-12.8-31-18.1-46.9-1-3.1-2-6.1-3.1-9.2-1.6-4.9-3.3-9.8-4.4-14.9-2.5-11.8-6.5-25.4-6.1-37.2.2-4-.1-8.4-2.5-11.6-2.4-3.2-7.8-4.5-10.5-1.5-1.6 1.7-1.9 4.2-2.1 6.5-.9 12.3-.7 24.1 2 36.2 1.4 6.3 3.8 12.4 7.4 17.7 3.6 5.2 7.8 4.6 10.7 10.4 6.2 12 11.3 24.6 15.8 37.5z" fill="#916B3D"/><path d="M703.1 282.5c2.3.4 4.6 1.2 6.6 2.6 1.8 1.2 3.4 2.8 4.3 4.8.8 1.6 1.2 3.4 1.5 5.2.2 1.2.4 2.5.2 3.7-.2 1.2-.7 2.3-1.3 3.3-2.7 4.4-7.7 6.8-12.5 6.8-1.6-8.5-2.5-17.2-2.8-26 .4.2.7.3 1.1.5" fill="#916B3D"/><path d="M659.3 61.1l-105 71.8-31.9 149.5 86.7 99.6 100.7-77.9 23.7-148.8-74.2-94.2z" fill="#3297F5"/><path d="M735.8 279.7c-3.4-8.1-6.8-16.1-10.1-24.2-.5-1.3-2.7-5.2-3.9-6-3.5-2.1-34.4-3.9-34.8-1.1-.2 1.3 1.3 2.3 2.5 2.9 2.9 1.5 6 2.6 9.2 3 4.6.6 15 2.2 15 2.2s2.4 4.6 3.8 7.1l9.6 15.9" fill="#9E7744"/><path d="M717.4 263.7c.8 1.4 9.9 15.7 9.2 16.1.9-.5 2.3-.3 2.8-1.2.3-.5.1-1.1-.1-1.6-2.4-7.7-6.8-14.5-11.5-20.9-.4-.5-.8-1-1.3-1.4-.7-.5-1.5-.7-2.3-.9-6.2-1.5-12.7-1.4-19.1-2.1-3-.3-6.1-.9-8.4-2.8.5 2.3 2.5 2.7 4.4 3.5 2.4 1.1 4.9 1.8 7.4 2.1 4.6.6 15 2.2 15 2.2s2.4 4.5 3.9 7z" fill="#916B3D"/><path d="M730.8 279c-4.3-5.3-8.7-10.6-13-15.9-1-1.2-2.1-2.5-3.4-3.4-2.2-1.5-5.1-1.9-7.8-2.1-4.1-.3-8.1-.1-12.2.3-1.4.2-2.8.4-4.2.9-1.2.5-2.4 1.3-3.4 2.1-3.6 2.7-6.9 5.7-9.9 9.1-.2.2-.4.5-.4.9 0 .2.1.5.3.6 1 1.5 2.9 2.3 4.7 2.4 1.8.1 3.6-.4 5.3-1 1.8-.7 3.5-1.6 5.2-2.6.9-.6 1.8-1.2 2.8-1.5.7-.2 1.5-.2 2.2-.2 3.1.1 6.2.9 9.2 1.6 1.1.3 2.3.6 3.4 1.1 1.3.6 2.4 1.6 3.5 2.5 2.7 2.4 5.5 4.7 8.2 7.1" fill="#9E7744"/><path d="M681.5 273.9c1.8.1 3.6-.4 5.3-1 1.8-.7 3.5-1.6 5.2-2.6.9-.6 1.8-1.2 2.8-1.5.7-.2 1.5-.2 2.2-.2 3.1.1 6.2.9 9.2 1.6 1.1.3 2.3.6 3.4 1.1 1.2.6 1.9 1.4 2.8 2.2 1.2 1.1 2.7 1.8 4.1 2.6l9.6 5.4c-4.4-4-7.6-9.2-12.1-13.1-1.1-1-2.4-1.9-3.8-2.6-1.1-.5-2.2-.9-3.4-1.1-7.9-1.9-16.7 0-23.1 5-1 .8-2.1 1.7-3.3 2-1.3.3-2.7.1-3.7-.7.5.4.9 1.4 1.6 1.9.9.6 2.1.9 3.2 1z" fill="#916B3D"/><path d="M723.7 294c-1.1-1.2-2.5-2.2-3.9-3.1-3.1-2-6.1-4.1-9.2-6.1-2.4-1.6-4.8-3.2-7.4-4.2-3.9-1.6-6.9-1.9-6.9-1.9-3.6.7-11.8 4.3-15.4 4.6-3.6.4-7.8-.9-9.2-4.3-.9-2.5 25.6-11.8 26.4-11.7 1 .1 12.9 1.5 16.6 4.5 1.4 1.1 11.3 9.3 13.7 13.2.1.2.2.4.4.4s.4-.2.3-.4" fill="#9E7744"/><path d="M772.1 174.7c1.9-1.6 3.6-3.3 5.7-4.7 3.7-2.5 8.3-3.7 12.8-3.3 7 .6 13.3 6.4 18.7 10.5 7.1 5.3 13.4 11.6 21.4 15.7 6.9 3.5 14.5 5.1 21.7 7.7 7.2 2.7 14.4 6.8 17.9 13.7 3 5.7 3.1 12.5 6.2 18.1 4.1 7.3 8.8 13.7 9 22.5.2 7.9-3.1 16-9.3 21-5.5 4.4-13.1 6.8-16.7 12.9-1.5 2.5-2.1 5.3-3.1 8-3.8 10.9-11.7 20.1-23.4 22.1-3 .5-7.2 1.8-10.1.9.1-11 .7-24 1.4-26.2.9-2.7 1.9-16.4-.8-18.4-1.6-1.2-1.2-1.3-2.8-.1-2.2 1.6-2 5.7-4.7 6.2-1.7.3-6.4-1.5-6.8-3.3-.4-1.7.1-3.5.5-5.2.9-3.8 1.5-7.7 1.8-11.7.2-3.6 0-7.6-2.8-10-2-1.7-4.7-1.9-7.3-2.2-16.2-1.5-31.6-4.1-44.3-15.2-9.1-8-15.4-19.6-16.1-31.7-.3-5.3.5-10.8 3.5-15.2 2.2-3.2 5.6-5.6 9.3-6.6 4.5-1.3 9.5-.7 13.8-2.7 1.7-.7 3.1-1.7 4.5-2.8z" fill="#473A22"/><path d="M798.2 173.9c4.9 4.5 4.3 12.6-1.7 16.2-3.4 2.1-7.7 2-11.5 3.1s-7.7 4.6-6.7 8.5c.8 3 4.2 4.5 7.2 5.4 8.8 2.5 18.1 2.9 26.9 5.3 8.8 2.5 17.6 7.6 21 16.1 1.9 4.8 2 10.3 4.8 14.6 2.2 3.4 5.8 5.6 9.5 7.2 2.3 1 4.7 1.9 7.2 1.9s5.1-1 6.6-3c2.2-3.1 1.6-8 4.7-10.1 2.4-1.6 5.6-.6 7.9 1.1 4.1 3 6.6 7.9 6.9 13 .4 6.3-2.5 14.1-7.9 17.7-2.1 1.4-4.5 2.2-6.8 3.3-1.9.9-3.6 2-5.3 3.2-1.4 1-3 1.6-4.5 2.5-3.4 2.1-6.7 4.6-8.9 8.1-1.3 2-2.1 4.2-3.1 6.3-2.7 5.4-6.8 10-11.9 13.2-.9.6-9.7 4.1-9.7 4.1.4-.6 1.1-24.3 1.5-29.8.2-1.9.7-5.2-.6-6.8-1.3-1.5-3.6-2.3-4.9-3.9-4-4.7-1.7-11.8-3.9-17.2-2.4-5.9-8.7-7.3-14.7-8.3-5.7-.9-11.4-1.9-17.1-2.8-9.5-1.5-18.7-6.7-25.2-13.8-6.5-7.1-11.3-14.5-13.1-23.9-.9-4.6-.1-11.4 2.4-15.4 6.6-10.4 18.7-3.9 27.5-8.6 5.3-2.8 7.6-10.2 13.5-11.2 3.6-.8 7.2 1.5 9.9 4z" fill="#3A2D1A"/><path d="M880.3 369.5c7.8 5.3 14 12.9 17.5 21.5 6.6 16 4.1 34.6-2.9 50.4-7 15.8-18.2 29.3-29.4 42.5-5.8 6.9-11.8 13.8-19 19.3-7.2 5.5-15.8 9.5-24.8 9.7-9.7.2-33.5-3.9-69.3-58.6-11-16.7-20.3-40.1-21.8-60.1 5.7 2.7 12.4 2.8 18.5 1.3 5.5-1.4 10.4-4.2 15.1-7.3 4.5-3 9.6-5 14.2-8.1 9.9 6.9 18.6 15.7 25.4 25.7 1.1 1.6 2.1 3.2 3.5 4.5 2.1 2 4.8 3.1 7.5 4.3.1-1.5 1.3-2.9 2.8-3.2 1.5-.3 3.1.7 3.7 2.1 5-13.7 14.5-26.5 23.7-37.7 2.5-3 5.1-6 8.5-8.1 8.1-5 19.1-3.3 26.8 1.8z" fill="#E0EFFE"/><path d="M897 390c8.6 15.4 4.7 36.2-2.1 51.5-7 15.8-18.2 29.3-29.4 42.5-5.8 6.9-11.8 13.8-19 19.3-7.2 5.5-15.8 9.5-24.8 9.7-9.7.2-33.5-3.9-69.3-58.6-11-16.7-20.3-40.1-21.8-60.1 5.6 2.6 12.4 1.6 18.5 2.1-5.4 1.3-10.9 2.2-16.4 2.5 1.8 15.9 8 31.2 16.5 44.8 8.5 13.6 19.1 25.8 30.3 37.3 7 7.2 14.4 14.3 23.3 19 8.9 4.7 19.6 6.9 29.1 3.8 8.2-2.6 14.8-8.7 20.8-14.9 12.5-13 23.7-27.4 33.3-42.7 2.9-4.7 5.7-9.4 7.7-14.6 5-13.2 4.2-27.6 3.3-41.6z" fill="#DBECFE"/><path d="M880.3 369.5c10.3 7 14.7 16 19.1 27.1-4.4-8.8-14.7-16-23.9-12.4-5.4 2.1-8.9 7.3-11.7 12.3C855.1 412.3 850 430 849 448c-3.1-2.8-7.7-3.8-11.7-2.4-3.9 1.4-7 5-7.7 9.1-5.5-8.6-19.3-10.2-26.6-3-3.5 3.4-6.1 8.6-11 8.8-4 .2-7.3-3.4-8.3-7.3-1-3.9-.3-7.9.1-11.9 1.2-12.2-.8-24.7-5.7-35.9-2.9-6.8-7.2-13.4-13.6-16.9 1.1-1.4 12.8-9 13.7-8.4 9.9 6.9 18.6 15.7 25.4 25.7 1.1 1.6 2.1 3.2 3.5 4.5 2.1 2 4.8 3.1 7.5 4.3.1-1.5 1.3-2.9 2.8-3.2 1.5-.3 3.1.7 3.7 2.1 5-13.7 14.5-26.5 23.7-37.7 2.5-3 5.1-6 8.5-8.1 8.3-5 19.3-3.3 27 1.8z" fill="#E5F1FE"/><path d="M758.7 353.9c-.1 2.5-.4 5.1-1.5 7.4-1 1.9-2.5 3.5-4.1 5-3.3 3.1-6.8 6-10.5 8.6-2.4 1.7-5 3.4-7.9 4.1-6.3 1.5-13.5-2.1-15.9-8.1.5 3.6 2.7 6.8 4.6 9.9 3.2 5.3 5.7 11.1 7.3 17.1.2.8.4 1.6.9 2.2.3.5.8.9 1.3 1.3 3.1 2.3 7.2 2.6 11 2.4 4.9-.3 9.9-1.1 14.4-3 4.6-1.9 8.7-4.9 11.6-8.9 2.2-3.1 3.8-6.8 7-8.8.9-.6 2.1-.8 3-1.4-1.8-2.2-4.3-3.9-6.2-6-2-2.1-3.9-4.4-5.7-6.7-3.8-4.7-6.9-9.8-9.3-15.1z" fill="#CCE4FC"/><path d="M757.3 356.6c-.6 1.8-9.3 11.7-12.9 14.7-3.7 3.1-7.8 5.9-12.6 6.4s-10.2-2-11.4-6.6c-.2-.9-.2-2.1.6-2.4-1.4-.2-2.6 1.3-2.5 2.7.1 1.4 1.4 4.7 2.5 5.6 5.6 5.1 14.1 3.9 20.9.5 6.5-3.2 16.9-16.6 17.6-18.7.7-2.1.5-4.5-.5-6.4-.9-1.8-3.3-3.3-4.9-2 3 1 4.4 2.7 3.2 6.2z" fill="#DBECFE"/><path d="M815.9 283.5c3.3-12.1 9-11.3 13.2-11.2 1.5 0 3.1.3 4.4 1.2 2.9 2 3.3 6.1 2.8 9.5-.5 3.4-1.7 6.7-3.8 9.4-2.1 2.7-5.3 4.6-8.7 4.9-3.4.3-7-1.3-8.8-4.2" fill="#9E7744"/><path d="M873.4 237.9c1.3-.5 2.8-.1 4.2.5 5.2 2.3 9 7.5 9.8 13.1.2 1.4.6 3.2 2 3.4 1.4.1 2.1-1.6 2.2-3 .3-5.1-2-10.3-5.9-13.7-3.9-3.4-9.2-4.9-14.4-4.5m-114.3-.4c-6.2-4.4-12.4-8.9-17.4-14.7-5-5.8-8.5-13.1-8.4-20.7 0-.6 0-1.2.4-1.7.8-1.2 2.9-.8 3.7.4.8 1.2.9 2.8 1 4.2.9 8.7 7.5 15.7 13.7 21.9.9.9 2.1 1.9 3.3 1.4" fill="#473A22"/><path d="M711.4 282c-.9-.2-1.7-.5-2.6-.7-3.1-.8-6.2-1.6-9.3-2.1-2.6-.4-4-.4-6.5.4-3.9 1.3-8 3.3-12.1 3.7-2.9.3-6-.4-8-2.7 3.2.6 5.5-.3 8.3-1.7 6-3 12.1-6 18.6-6.9 1.9-.3 3.9-.4 5.8.1 1.2.3 2.4.9 3.5 1.5 6.5 3.5 12.5 7.6 17.5 13-4.9-1.7-10-3.2-15.2-4.6z" fill="#916B3D"/><path d="M713.1 304.5c-2-2.3-2.9-5.4-3.1-8.4-.2-3 .3-6.1 1-9.1-2.6.6-5.3.8-7.9.7-1.3-.1-2.6-.3-3.8-.6-1-.2-2.2-1-3.2-.3-2.1 1.5-3.8 3.7-6.3 4.5-3 .9-3.5-.4-6.3-1.8-.5-.3-1.1-.7-.9-1.2.1-.2.3-.4.4-.6 3-2.7 6-5.4 9-8.2.8-.7 1.6-1.4 2.5-1.9 1-.5 18 .5 19.4.8 1.3.3 8.3 4.5 13.6 7.7" fill="#9E7744"/><path d="M324.1 46.1l26.8 31.4 39.6 12-31.5 26.8-11.9 39.5-26.8-31.4-39.6-12 31.4-26.8 12-39.5zM552 746.9l13.4 15.7 19.8 6-15.7 13.4-6 19.8-13.4-15.8-19.8-5.9 15.7-13.4 6-19.8zm254.7-698l4.1 26.9 17.9 20.4-26.9 4.1-20.4 17.9-4.1-26.9-18-20.4 26.9-4.1 20.5-17.9z" fill="#FFD840"/><path d="M293.5 282.8c10.328 0 18.7-8.372 18.7-18.7s-8.372-18.7-18.7-18.7-18.7 8.372-18.7 18.7 8.372 18.7 18.7 18.7zm597.9-257c7.124 0 12.9-5.776 12.9-12.9 0-7.124-5.776-12.9-12.9-12.9-7.124 0-12.9 5.776-12.9 12.9 0 7.124 5.776 12.9 12.9 12.9zM176 134.2c7.124 0 12.9-5.775 12.9-12.9 0-7.124-5.776-12.9-12.9-12.9-7.125 0-12.9 5.776-12.9 12.9 0 7.125 5.775 12.9 12.9 12.9z" fill="#00DE91"/><path d="M300 1246.9c-2.9.1-4.9 3.4-4.4 6.2.6 2.8 3 5 5.8 5.9 2.7.9 5.7.9 8.5.9 6.3-.1 12.5-.1 18.8-.2 23.5-.3 47.5-.6 69.6-8.5 3.2-1.1 6.6-2.7 7.9-5.8 1.7-3.8-.9-8.5-4.5-10.5-3.7-2-8.1-2-12.2-1.6" fill="#005491"/><path d="M367.5 695.7c-3.3 4.6-9 6.8-14.5 7.6-2.7-7.3-13.9-35.3 1.3-37.2 12.7-1.6 19.3 21.2 13.2 29.6z" fill="#6DB2F8"/><path d="M248.8 387.4c-13.6 1.9-36.9 2.5-47.2 11.5-14.9 13.2-22.6 35.6-30 53.5-8.6 20.5-15.8 41.5-21.5 62.9-1.4 5.3-2.7 10.9-1.1 16.1 1 3.3 3.1 6.1 5.5 8.6 9.9 10.8 23.9 17.2 38.3 20.3 14.3 3.2 29.1 3.4 43.8 3.6 1.3 0 2.7 0 3.5-1 .9-1 .7-2.5.5-3.9-3.3-19.9-9.9-38.1-13.5-58.1-5.7-31.7-8.1-64.5-1.9-96.1" fill="#00DE91"/><path opacity=".2" d="M259.5 389.6c-13.6 1.9-36.9 2.5-47.2 11.5-7.1 6.3-11.3 15-15.4 23.6-8.6 18-15.2 37.1-21.8 55.9-5.4 15.3-20.3 42.8-11.5 58.5 3.9 7 10.9 11.9 18.1 15.5 15.1 7.6 32.5 10.6 49.3 8.7 1.5-.2 3.1-.4 4.3-1.4 1-.8 1.6-2 2.1-3.2 9.8-23.4 1.6-47.5-1.9-71.2-4-26.4-4.5-54 .7-80.3" fill="#00DE91"/><path d="M386.774 308.479c1.013-11.665-6.597-21.853-16.996-22.756-10.4-.903-19.651 7.821-20.664 19.486-1.013 11.665 6.596 21.854 16.996 22.757 10.399.903 19.651-7.822 20.664-19.487z" stroke="#FFE272" stroke-width="2.589" stroke-miterlimit="10"/><path d="M282.8 315.2c-1 23.8-9.2 47.2-23.1 66.6-2.1 3-4.5 6.4-3.7 9.9.3 1.4 1.1 2.6 1.9 3.7 7.6 11.2 18.8 20.5 32 23.5s28.4-1.2 36.4-12.1c-4.9-5.3-6.2-12.9-6.2-20.1 0-12.3 3-24.5 8.8-35.4" fill="#C5A872"/><path d="M267.8 413.1c-3.7 0-14.1-23.1-8.1-31.4 13.9-19.3 22.1-42.8 23.1-66.6.1-2.1.3-2 2-3.3 1.7-1.2 3.8-1.6 5.9-1.9 3-.5 5.9-1 8.9-1.4 4.3-.7 9.7-1 12.1 2.7 2 3.2.4 7.4-1.2 10.9-14.4 30.2-19.1 62-42.7 91z" fill="#C0A064"/><path d="M280.5 297.4c.9 9.4 1.7 19.1 6.7 27.3 5 8.1 11.9 14.8 18.6 21.3 4.5 4.4 9.1 8.8 14.3 12.2 6.9 4.5 16.9 8.6 23.9 3.2 4.8-3.7 7.5-10.9 10-16.4 4.8-10.9 9-23.7 9.4-36 .2-6.2-.3-12.1.8-18.3 1.5-8.9 2.7-16.6-.4-25.5-2-5.6-4.7-11.3-9.4-14.8-4.6-3.5-10.5-4.3-16-4-13.4.7-26.1 7.6-34.2 18.6" fill="#C5A872"/><path d="M344 361.4c4.8-3.7 7.5-10.9 10-16.4 4.8-10.9 9-23.7 9.4-36 .2-6.2-.3-12.1.8-18.3 1.5-8.9 2.7-16.6-.4-25.5-2-5.6-4.7-11.3-9.4-14.8-10.2-7.6-26.1-5.5-36.5-1.4 7.5 1.4 15.3 2.9 21.4 7.9 6.4 5.3 9.9 13.7 11.3 22 1.4 8.3 1.2 16.7 1.7 25.1.4 7.2 1.4 14.3 1.2 21.5-.4 12.1-4.4 23.8-11.4 33.1-1.7 2.3-3.8 4.5-6.5 5.1 3.1-.7 5.6-.1 8.4-2.3z" fill="#CEB587"/><path d="M265.6 231.7c20.8-20.6 55.6-22.8 83.5-14.8 8.4 2.4 23.6 12.2 26.9 30.2 3.3 18-1.6 23.6-9.4 28.2-4.8 2.9-8.4 4.7-12.4 8.8-3.4 3.5-5.6 10.9-7.9 15.3-1 2.1-2 4.3-3.4 6.1-1.4 1.8-3.5 3.2-5.8 3.1-4.7-.1-3.9-5.7-7.7-7.1-2.4-.8-4.6 1.2-6 3.2-2.9 4.3-4.6 9.5-4.8 14.9-.1 5 1 9.9 1.4 14.9.4 5 .1 10.3-2.6 14.2-2.3 3.4-6.2 5.3-10 6.5-7.5 2.3-15.7 2.4-23.4.1-4.3-1.3-36.2-21.5-40.6-25.7-11.7-11.5-19.1-27.9-20-44.4-.9-16.5 4.3-34.5 16.1-44.8 5.7-4.7 16.9-7.8 26.1-8.7z" fill="#634F17"/><path d="M375.6 272.4c6.1-4.6 9.9-12.8 8-22.9-2-10.4-11.2-18.1-20.7-22.1-3-1.3-6.6-2.9-7.3-6.2 7 2.4 14.1 5 20.3 9.4 6.2 4.4 11.4 10.9 12.9 18.5.7 3.4.5 6.9-.1 10.2-1.4 6.7-5.3 12.4-9.9 16.9-4.8 4.8-13.6 5.4-19.8 7.5-6.6 2.2-13.2 5.3-17.7 10.8-.8 1-2.3 2-3.1.9-.3-.5-.2-1.1-.1-1.7 1.7-6.7 8.4-10.3 14.5-12.7 7.3-2.7 16.5-3.7 23-8.6zm-108-40.8c-7.2-2.3-14.8-1.1-22 .7-7.2 1.7-14.4 3.9-20.6 8-.6.4-1.3.9-1.6 1.7-.3.8.2 1.8.9 1.9.4.1.8-.2 1.2-.4 9.7-6.5 21.7-9.3 33.4-7.8" fill="#634F17"/><path opacity=".2" d="M232.5 281.7c-.6 14.4 5.2 29.2 15.4 39.5 4.2 4.3 9.1 7.7 14 11.1 3.9 2.7 7.8 5.5 11.7 8.2 3.3 2.3 6.6 4.6 10.2 6.2 3.1 1.3 6.3 2 9.6 2.1 2.5.1 5.1-.2 7.3-1.6 3.1-1.9 4.7-5.6 5.8-9.2 2.3-7.2 3.6-14.8 6.3-21.8 2.8-7 7.5-13.5 14.3-15.9 1.7-.6 3.6-.9 5.2-1.8 4-2.2 5.6-7.3 8.2-11.1 3.5-5.1 9.1-8.1 13.7-12.1 4.7-3.9 8.8-9.8 7.6-16.2-1.6-1.1-3.5.3-4.7 1.6-10.3 10.1-22 18.6-34.8 25.1-6.6 3.3-13.5 6.2-20.8 7.2-7.3 1-15.1.1-21.8-3.8-6.9-4-12.3-11.1-14.4-19-2.1-7.9-1-16.6 3.1-23.3.8-1.3 1.5-3.2.3-4.1-.4-.3-1-.3-1.5-.4-20.6-.6-33.8 18.8-34.7 39.3z" fill="#634F17"/><path d="M327.4 299.2l61.6 8.2" stroke="#FFE272" stroke-width="2.589" stroke-miterlimit="10" stroke-linecap="round"/><path d="M331.8 303.5c-1.8-2-3.8-4.1-6.4-4.7-3.9-.9-7.7 2-9 5.8-1.3 3.8-.5 8.2 1 12.1.4 1.2 1 2.3 1.7 3.3 1.7 2.4 4.7 3.8 7.5 3.4 2.8-.4 5.2-2.4 6-5.2" fill="#C5A872"/><path d="M309.8 664.2c2.5.1 5 .3 7.6.4-9.7 37.1-19.3 74.1-29 111.2-8.9 34.1-20.6 103.1-23.2 114.2-2.3 10-125.5 221.3-137.6 225.7-12.1 4.4-34-10.7-32.4-16.3 10.3-36 72.5-177.5 80.2-191.1 3.7-6.5 7.4-13.1 9.3-20.4 1.6-6.3 1.9-12.8 2.1-19.3 1.9-44.9.7-61.2 8.8-105.4.6-3.4 1.3-7 .6-10.4-.6-2.8-2.1-5.3-3.4-7.9C177 715.1 180 676 200 649.1c11.8-15.9 33.5-17.4 53-20.5 6-1 12.1-1.8 18-.7 14.6 2.7 24.3 16.4 32.3 29 5.4 8.4 10.8 19.3 5.4 27.7" fill="#0058B0"/><path opacity=".1" d="M95.2 1099.4c10.3-36 72.5-177.5 80.2-191.1 3.7-6.5 7.4-13.1 9.3-20.4 1.6-6.3 1.9-12.8 2.1-19.3 1.9-44.9.7-61.2 8.8-105.4.6-3.4 1.3-7 .6-10.4-.6-2.8-2.1-5.3-3.4-7.9-12.6-23.8-13.3-53.4-2.9-78.1 10.6-25.1 39.7-36.9 66.1-37.8-44.5 56.8-48.8 136.2-43.6 205.5 1.5 19.1 3.9 39.3-4.2 56.6-8.8 18.9-20 35.9-31.7 53.2-33 49.1-58.7 103.1-76 159.7 1.9-6.3-6.8.6-5.3-4.6z" fill="#0058B0"/><path d="M250.4 651c-21.3 30.1-22.7 73.6-3.4 105 3.6 5.9 7.9 11.5 11.5 17.4 16.8 28.2 45.6 80.8 46.3 103.6 2.6 86.6-15.2 202.8-.7 288.2.5 2.7 1.1 5.6 3.3 7.1 1.9 1.2 4.3 1 6.5.8 7.2-.9 14.4-1.7 21.6-2.6 10.5-47.6 15.7-128.7 22.7-176.6 6.8-46.1 15.2-78.9 20.4-120.6 7-56.5-6.9-147-23.9-219.2" fill="#0058B0"/><path d="M354.7 654.1c1.1 2 1.9 4.1 2.5 6.3 5.8 23.4 9.4 48.3 13.3 72.2 7.4 45.8 14 94.2 8.2 140.6-5.2 41.7-13.7 74.5-20.4 120.6-5.1 35-7.9 70.3-12 105.5-2 17.7-4.2 35.5-7.3 53.1-1.5 8.5-.7 15.7-8.3 18.5-6.3 2.3-11.8-.4-18.2 3.7-15.3-96.4 37.7-186.7 38.1-282.3.1-16.6-1.4-33.3-3-49.8-1.8-20.1-3.7-40.2-5.5-60.2-2.1-23.1-4.3-46.3-7.8-69.2-4.5-29.2-11.9-59.3-31.1-81.8 17.5-1 42.6 6.4 51.5 22.8z" fill="#0F62B5"/><path d="M307.4 402.1c4.6-.9 9.8-2.1 12.3-6 10.8 7.3 19.1 21.6 31.5 25.4 5 1.6 10.2 6.1 14.1 9.8 6.3 5.9 10.2 4.1 9.8 12.7-2 44.7-21.7 91.3-30 135.2-3.7 19.5 16.6 51.4 24.3 74.6 5.9 17.7 0 38 0 38 3-8.3-19.4-19.7-28.1-18-14.5 2.8-33.1 35.4-47.5 47.2-12 9.8-27.8 14.2-43.4 14.2-40.7.1-73.5-51.6-73.7-55.7-.2-4 24.3-50.1 36.2-71.8 5.2-9.4-7.5-57.6-14.7-92.1-7.8-37.6-12.9-83 8.9-114.6 5.8-8.4 18.1-12.1 48.4-16 0 0-7.3 12.7 19.9 19.2 11.4 2.7 20.8 0 32-2.1z" fill="#00DE91"/><path opacity=".68" d="M339.6 437.9c4 12.2.7 42.5 8.5 52.7 9.7 12.7 13 25.2 9 40.6-4.1 16-12.9 34.8-11.8 61.4 0 0-21.1-37.2-24.7-52.1-9.1-38.7 2.9-86 19-102.6z" fill="#24E2A1"/><path d="M254.6 440.6c0 .1-.1.2-.1.3-6.9 15.7-11.2 32.6-12.5 49.7-.8 10.8-.5 21.6-.1 32.4.5 13.6 1 27.3 3.4 40.8 2.6 14.4 7.4 28.4 9 43 1.9 16.8-4.7 29.8-13.4 44.3-14.9 24.8-21.8 39.3-21.6 75.5-5.7-6.2-20.4-16.2-28.7-26.1-4-4.8-13.6-14.2-14-21-.2-4 24.3-50.1 36.2-71.8 5.2-9.4-7.5-57.6-14.7-92.1-7.8-37.6-12.9-83 8.9-114.6 5.8-8.4 18.1-12.1 48.4-16 0 0-7.3 12.7 19.9 19.2-2.3-.6-18.6 31.7-20.7 36.4z" fill="#33E4A7"/><path d="M257.9 397.7c2.7 3.3 5.8 6.3 9.6 8 3.1 1.4 6.5 1.9 9.9 2.1 6 .4 12.1.1 18.1-.9 11.6-2 23-6.7 34.6-5 0-4-2.5-7.4-5-10.6-.6-.8-1.3-1.7-2.2-2.3-1.8-1.2-4.2-.9-6.4-.7-9.8 1.2-19.8 1.4-29.5-.4-9.7-1.8-19.1-5.8-26.5-12.4-1.1-1-10.4 7.3-10.4 9.5.2 4.1 5.4 9.8 7.8 12.7z" fill="#0DDF97"/><path d="M299 1224.8c-2.9 6.8-5.7 16.1-2.9 22.9 3.9 9.3 15.6 8.4 25.7 7.7 17.9-1.2 35.8-2.5 53.7-3.8 7.3-.5 14.7-1.1 21.5-3.7 5.3-2 10.8-6.4 9.9-12-1.1-6.6-9.6-8.4-16.3-9-16.1-1.4-32-5.3-47-11.3-2.5-1-5.2-2.2-6.7-4.5-1.3-2-1.4-4.6-1.5-7-.3-13.7.3-27.5 1.8-41.1-4.4-1.2-11-1.3-18-1.2-8.3.1-15.2 3.5-15.2 3.5.8 16.6 1.7 44.2-5 59.5zM124.6 1104c.9.8 1.8 1.6 2.6 2.4 1.1 1.2 4.6 4.6 5 6.2.9 3-.7 6.1-2.1 8.9-3 6.9-12.1 22-12.6 30.4-.5 9 .4 18.4 3.3 27 6.4 19 17 37.7 25.2 56.1 1.1 2.5 2.2 5.1 2 7.8-.6 6-8 9.2-13.8 7.7-5.8-1.5-10.2-6.1-14.3-10.5-16.8-18.2-32.9-37-49.1-55.7-2.7-3.1-5.4-6.2-6.8-10.1-3.5-9.5.2-22.2 12-34.2 4.4-4.5 11.8-23.9 16.4-38.1.5-1.7 1.1-3.5 2.5-4.6 1.4-1.2 3.4-1.5 5.3-1.6 8.6-.4 17.6 2.6 24.4 8.3z" fill="#04427F"/><path d="M68.9 1186.5c16.6 20.2 34.1 39.7 52.2 58.5 3.4 3.6 7.3 7.3 12.2 8 3.2.4 7.1-1.3 7.3-4.5.1-1.8-1-3.5-2-5-7-9.8-13.9-19.5-20.9-29.3-8.1-11.4-16.2-22.7-24.3-34.1-3.6-5.1-7.5-10.4-13-13.4-4.6-2.4-13.3-3.4-16.7 1.7-3.8 5.7 1.7 13.9 5.2 18.1z" fill="#005491"/><path d="M436.4 445.2l-107 79.5 123.3 50.8L559.6 496l-123.2-50.8z" fill="#84C1F9"/><path d="M436.4 445.2l-107 79.5 123.3 50.8-16.3-130.3z" fill="#72B7F8"/><path d="M343.3 635.6l106.9-79.5 123.2 50.8-230.1 28.7z" fill="#5BACF7"/><path d="M346.4 660.6l123.2 50.8-16.9-135.9-123.3-50.8 17 135.9z" fill="#3297F5"/><path d="M576.6 631.8l-107 79.6-16.9-135.9L559.6 496l17 135.8z" fill="#59ABF7"/><path d="M422.6 457.2c-2.6-4-5.8-8.5-10.5-8.9-2.9-.3-5.7 1.1-8.4 2.5-3.1 1.6-24.5 12.7-22.4 16.7 1.4 2.5 13.9-.9 17.7 1.8 2.5 1.8 4.1 4.6 5.6 7.4.4-.1 4.6 8.5 5.1 9.3 1.6 2.9 3.1 5.7 5.1 8.2 1.1 1.3 2.3 2.5 3.7 3.4 1.5.8 3.2 1.2 4.8.8.3-.1.6-.2.8-.5.2-.4-2.9-9.3-4.3-13.3 1 1.6 1.9 3.3 2.9 4.9 2.7 4.1 6.1 2.1 6.4 1.9.6-.5.4-1.5.2-2.3-2.1-6.8-4.2-13.7-7.8-19.8 1.9 1.8 3 4.2 4.4 6.4 1.4 2.2 3.3 4.3 5.9 4.7.7.1 3.4-1.1 3.3-1.9 0-.2-5.6-10.2-8.5-14.8-1.3-2.2-2.6-4.4-4-6.5z" fill="#C5A872"/><path d="M418.4 460.4c-.5-.6-1-1.2-1.6-1.7-.9-.8-2.1-1.4-3.3-1.3 1.6.3 2.6 1.9 3.4 3.4 2.1 4 4.4 7.9 6.8 11.7 1.9 3 4.1 7.2 8 7.8.8.1 3.3-.8 3.1-1.8-.2-.7-1.6-.4-2.2-.5-.8-.2-1.5-.6-2.2-1.1-1.2-.9-2-2.1-2.9-3.4-2.8-4-5.6-7.9-8.4-11.9-.2-.5-.4-.8-.7-1.2zm-4.9 4.3l-.3-.3c-1.6-1.6-4-2-6.3-2.1 1.6.4 3.4.9 4.5 2.1.7.7 1 1.6 1.4 2.5 2.2 5.3 4.4 10.6 6.7 15.9.1.3.3.6.4.9.9 2.3 1.8 4.7 3.6 6.6 1.1 1.2 5.2 3 6 .5-1 .3-2 0-2.8-.7-.8-.7-1.2-1.6-1.7-2.6-3.3-6.8-6.6-13.6-9.9-20.3-.5-.8-.9-1.7-1.6-2.5zm-7.7 4.4c-1.2-1.7-2.5-3.3-3.9-4.8-.5-.5-1.1-1.1-1.8-1.3-.5-.1-1.1-.1-1.6 0-4.9.7-9.7 1.4-14.6 2.2-.9.1-1.8.3-2.4 1-1.7 2 1.6 2.2 2.7 2.3 1.7.1 3.4 0 5.1-.1 2.9-.1 7.2-.8 9.7 1 2.5 1.8 4.1 4.6 5.6 7.4.4-.1 4.6 8.5 5.1 9.3 1.6 2.9 3.1 5.7 5.1 8.2 1.1 1.3 2.3 2.5 3.7 3.4.7.4 6.4 2 5.5 0-.7.5-1.6.4-2.4 0-.7-.4-1.3-1.1-1.8-1.8-3.1-4.2-5.8-8.8-7.8-13.6-.7-1.7-1.3-3.5-2-5.2-1-3-2.4-5.6-4.2-8z" fill="#C0A064"/><path d="M452.7 535.5c9.6 3 54.5 17.1 61.2 18.6 5.2 1.1 12.9 2.5 17.8.5 0 0-.5-9.4 2.2-14.5 1.8-3.6 11-15.8 12.2-18.1 1.4-2.6 2.8-5.1 4.2-7.7.2-.4.4-.7.8-.9.9-.4 1.8.8 2 1.8.8 4.1-1.2 8.1-2 12.1-.9 4.4-.4 9 1.3 13.1 2.7-2.9 5.3-5.9 7.6-9.1 1.7-2.3 3.3-5 2.9-7.8 2.7.2 5.8.6 7.3 2.9.6.9.8 2 .9 3.1.4 3.1.1 6.2-.8 9.2 1.6-.5 3.3.7 3.9 2.3.6 1.6.5 3.3.4 4.9-.1 1.7-.1 3.4.8 4.8.3.6.8 1 1 1.6.4 1 .2 2.1-.2 3.1-.7 2.3-1.8 4.5-3.2 6.5-.4.6-.9 1.2-1.1 1.9-.2.7-.1 1.4-.1 2.2-.1 2.9-2.1 5.4-4 7.6-7.2 8-20.4 2-31 3.9-6.5 1.1-25.3 5.1-27.8 5.6-4 .7-39 9.7-74.5.3" fill="#C5A872"/><path d="M509.1 583.1c-5.2.9-10.4 2.1-15.7 2.8-10.4 1.5-21 2-31.5 1.5-6.3-.3-12.7-1-18.9-2.2-4.8-.9-8.2-2.6-11.9-5.7-1.5-1.3-2.2-2.5-2.8-4.5-.2-.6-1.2-7.7-.6-7.6 33.5 3.4 67.4 6.8 100.8 2.2 5.1-.7 10.1-1.6 15.2-1.3 5.2.2 10.4 1.6 15.4.2 5-1.4 8.8-5.3 12.2-9.1 1.5-1.7 2.9-4.5 1.1-5.9-1.6 1.8-3.5 3.4-5.5 4.7 4.4-3.7 5.6-10.7 2.5-15.6-2.2 2.3-4.6 4.3-7.3 6 6.5-6.3 6.8-17.9.7-24.5 2.5-.5 6 .1 7.4 2.3.6.9.8 2 .9 3.1.4 3.1.1 6.2-.8 9.2 1.6-.5 3.3.7 3.9 2.3.6 1.6.5 3.3.4 4.9-.1 1.7-.1 3.4.8 4.8.3.6.8 1 1 1.6.4 1 .2 2.1-.2 3.1-.7 2.3-1.8 4.5-3.2 6.5-.4.6-.9 1.2-1.1 1.9-.2.7-.1 1.4-.1 2.2-.1 2.9-2.1 5.4-4 7.6-7.2 8-20.4 2-31 3.9-6.4 1.1-25.1 5.2-27.7 5.6z" fill="#C0A064"/><path d="M327.5 479.9c7.7 23.5 17 46.9 32.4 66.2 4.3 5.4 8.7 16.9 14.2 21.1 21.3 16.8 49.9 19.9 76.9 22.4 2.5.2 5.1.4 7.4-.6 1.6-.8 3.2-8.6 4.4-9.9 5.8-6.9 10.2-15.1 12.7-23.7.6-1.9 1-3.9.5-5.8-.6-2-2.3-3.5-3.9-4.9-4.4-3.7-9.2-6.6-14-9.7-3.8-2.5-8.4-5-12.6-3.5-1.2.4-2.3 1.2-3.5 1-1-.1-1.9-.9-2.7-1.6-16.8-16-24.4-36.8-34.8-56.7-9.5-18.3-23-34.4-40.6-45.4-3.9-2.5-8.2-4.7-12.8-5.1-7.2-.6-14.3 3.5-18.9 9.1-11.7 14.5-10.2 30.3-4.7 47.1z" fill="#00DE91"/><path opacity=".2" d="M327.5 479.9c2.2 7.6 5.2 15.1 8.2 22.6 6.2 15.5 13.8 30.5 24.3 43.6 4.3 5.4 8.4 16.1 13.8 20.4 21.3 16.8 49.5 21 76.5 23.4 2.5.2 6.3-6.3 8.5-7.4 2.2-1.1 3.6-3 5.1-4.9.8-1 4.1-6.7 5.3-6.8-28.5 1.9-57.5-5.1-82-19.8-4.5-2.7-8.8-5.6-12.8-9-6.2-5.3-11.5-11.7-16.4-18.3-15.4-21-27.1-44.7-34.3-69.7-.2 9.1 1.4 17.6 3.8 25.9z" fill="#00DE91"/><path d="M360 427.5c12.5 6.8 23 17.2 30 29.6 2.5 4.5 4.6 9.3 6.7 14.1 4.3 9.8 8.6 19.7 12.8 29.5 2.9 6.7 5.8 13.4 10 19.4 4.1 6 9.6 11.3 16.4 14 8.5 3.4 18.6 2.7 26 8.1-5.4-4-6.5-14.3-16.2-10.7-1.2.4-2.3 1.2-3.5 1-1-.1-1.9-.9-2.7-1.6-16.8-16-24.4-36.8-34.8-56.7-5.1-9.8-11.3-19-18.8-27.2-7-7.5-15.9-16.8-25.9-19.5z" fill="#42E6AE"/><path d="M441.1 531.6c-.2-.2-.4-.4-.7-.6 1-1.6 8.5-2.8 15.4-.1 3.8 1.5 7.8 3 11.3 5.2 6.9 4.3 12 10.5 14 18.4 3.9 15.2-1.1 28-11.7 37.6-.8.7-6.1.7-7.1 1-.9.3-1.9.2-2.9.1-6.5-.8-13.1-1.5-19.6-2.3 1.6-1.1 2.1-3.1 2.6-5 3.5-14.7 5.3-30 2.9-44.9-.6-3.7-1.6-7-4.2-9.4z" fill="#36E5A8"/><path d="M958.3 454.6c-6.5-.4-19.1 0-22.2-5.7-1.9-3.5-3-14.4-2.9-18.3.4-30.1 3.6-48.9 15.2-71 3.8-7.3 8.1-14.4 14-20.1 5.9-5.7 28.5-4.4 36.8-4.5 8.2-.1 16 3.7 22.8 8.2 5.9 3.9 11.5 8.6 15 14.8 3.1 5.4 4.4 11.6 5.4 17.8 3.1 19.4 2.8 39.3-.7 58.6-1.5 8.2-3.7 16.5-8.2 23.6-4.5 7.1-11.7 12.8-20 13.8-5.1 11.5-6.6 24.7-4.2 37.1-6.1-4.1-13.4-6.5-20.8-6.7-14.8-.5-29.8-.4-40.4-12.4 0-.3 7.5-23.4 10.2-35.2z" fill="#D8C08B"/><path d="M658.3 543.6c.1 1.1 6.5 4.7 7.6 5.5 2.7 1.9 5.4 3.9 8.1 5.8 3.9 2.8 12.7 6.8 12.6 12.3-.1 5.6-6.2 4.9-9.9 3.4-5-2-9.2-6-12.3-10.3-3.5-4.9-5.8-10.7-6.1-16.7z" fill="#907032"/><path d="M835.6 716.7c-11.6 3.9-20.2 13.9-26.9 24.2-2.8 4.3-7.1 6-5.5 10.9 3.2 9.8 11.1 11.7 23 14.6 6.4 1.6 174.1-28.7 179.2-32.4 14.3-10.5 37.6-7.8 37.3-18.3-.2-8.3-2.8-12.3-8.7-18.1-6.2-6-15.3-7.7-23.9-8.7-33.7-4-69.4-1.9-98.9 14.7" fill="#FFB200"/><path d="M1064.1 1119.7c6 25.3 15.6 60.6 5 84.8-4 9.3-9.9 17.8-17.7 24.3-2.4 2-5 3.9-6.5 6.6-1.5 2.8-1.3 6.7 1.3 8.5 1.8 1.2 4.3 1 6.5.5 10-2.2 18.7-8.2 26.4-14.9 5.1-4.4 9.9-9.1 14.4-14.2 4.2-4.7 9.4-3.5 10.7-9.6 1.5-7-2-20.5-3.6-27.5-1.5-6.8-1.9-13.7-3-20.5-1.2-7.5 1-55.5-.4-63" fill="#D8C08B"/><path d="M918.3 783c-2.1 66.9 24 131.6 56.4 190.2 32.4 58.6 59.9 115.2 87.8 176 12.1 3.8 35.3-5.8 44.9-7.4-.3-7.9-.7-15.9-1.2-23.8-2.5-37.6-7.6-75.3-18.6-111.4-5.7-18.7-33.1-64.4-35.4-70.7-3.1-8.5-26.2-107.6-25.2-112.3.6-2.8 1.7-5.5 2.7-8.1 12.3-32.7 13.9-71.3-4.1-101.2-3.6-6-8.1-11.7-14.1-15.5-8-5-18.9-4.9-28-6.4-10.8-1.7-21.5-5-32.1-.4-10.3 4.5-16.6 14.7-20.3 24.8-4.4 11.8-9.2 24-10.3 36.7-1.3 14.7-4.3 29-3 44" fill="#186ACB"/><path d="M918.3 783c-2.1 66.9 24 131.6 56.3 190.1 19.4 35.1 37.7 70.7 55.2 106.7 8.9 18.3 17.6 36.7 26.1 55.2 4.6 10 5.1 14.9 16.6 14.9 9.8 0 19.3-2.1 27.8-7-4.7-45.8-9.6-92.3-27.2-134.9-11.5-27.8-28.2-53.1-39.6-80.9-13.4-32.4-19.3-67.9-17.3-102.9-1.8 2.2-3.7 4.4-5.5 6.6 16.4-18.4 18.8-45.1 19-69.8.1-13.9-.4-28.2-6-40.9-9.9-22.3-49.6-38.2-72.4-28.2-10.3 4.5-16.6 14.7-20.3 24.8-4.4 11.8-9.2 24-10.3 36.7-1.3 14.7-4.3 29-3 44" fill="#186ACB" opacity=".15"/><path d="M1105.9 1221.5c2.6-2.4 5.4-4.8 6.8-8 .9-2.1 2.2-5.6 2-7.9-.3-5.5-.7-15.9-13.6-19.3 2.6 7.9-5.5 18.2-11 26.9-7.2 11.3-15.7 22.5-27.8 28.2-2.8 1.3-6 2.3-8.8 1.3-5.1-1.8-3.5-5.9-1-8.8-12.7 7.1-18.8 11.2-27.7 16.3-8.2 4.7-3.5 15.9 2.6 17.7 5.6 1.7 24.8-1.7 28.5-2.3 4.1-.7 8.4-1.5 11.7-4 2.3-1.8 32.3-34.7 38.3-40.1zm-232.3 18.2c-8.6 2.3-41 3.8-48.6 3-5.4-.6-9.7-1.9-12.7-6.4-.4-.6-.8-1.3-1.5-1.4-.4-.1-.7.1-1.1.2-7.6 2.6-32.9 9.5-34.4 13.2-1.2 3-.2 6.4 1.7 9 4.7 6.4 13.7 7.5 21.6 7.9 24.8 1.2 49.6.6 74.3-1.3 5.3-.4 10.6-.9 15.9-.1 2 .3 4 .7 5.9 0 1.9-.7 3.1-2.5 4.1-4.3 2.8-4.9 4.8-10.4 5.3-16 .4-3.9-2-17.2-5.9-19.8-3.6-2.4-6.8 2.1-9.6 4-4.9 3.3-9.1 10.4-15 12z" fill="#0058B0"/><path d="M1105.9 1215.6c2.6-2.4 5.4-4.8 6.8-8 .9-2.1 2.2-5.6 2-7.9-.3-5.5-.7-15.9-13.6-19.3 2.6 7.9-5.5 18.2-11 26.9-7.2 11.3-15.7 22.5-27.8 28.2-2.8 1.3-6 2.3-8.8 1.3-5.1-1.8-3.5-5.9-1-8.8-12.7 7.1-18.8 11.2-27.7 16.3-8.2 4.7-3.5 15.9 2.6 17.7 5.6 1.7 24.8-1.7 28.5-2.3 4.1-.7 8.4-1.5 11.7-4 2.3-1.9 32.3-34.7 38.3-40.1z" fill="#0058B0"/><path d="M873.6 1107c.5 24.6-3 49.3-10.3 72.9-5 16.2-6.1 30.9-20.7 39.6-13.3 7.9-40 13.6-54.5 19 17.4 23.7 73.1 3.4 106.7-5.3-.9-11.6.4-23.3 1.5-34.9 2.3-23.8 3.8-47.8 4.4-71.7" fill="#D8C08B"/><path d="M873.6 1233.8c-8.6 2.3-41 3.8-48.6 3-5.4-.6-9.7-1.9-12.7-6.4-.4-.6-.8-1.3-1.5-1.4-.4-.1-.7.1-1.1.2-7.6 2.6-32.9 9.5-34.4 13.2-1.2 3-.2 6.4 1.7 9 4.7 6.4 13.7 7.5 21.6 7.9 24.8 1.2 49.6.6 74.3-1.3 5.3-.4 10.6-.9 15.9-.1 2 .3 4 .7 5.9 0 1.9-.7 3.1-2.5 4.1-4.3 2.8-4.9 4.8-10.4 5.3-16 .4-3.9-2-17.2-5.9-19.8-3.6-2.4-6.8 2.1-9.6 4-4.9 3.3-9.1 10.4-15 12z" fill="#0058B0"/><path d="M861.5 1160.4c.8-33.7-2.6-106-4.1-123.8-4.7-54.4-28.7-118.7-34.4-173-5.7-54.3-4.4-88.1 7.3-141.4.8-3.6 19.7-3.2 21.9-6.2 2.2-2.9 5.4-4.8 8.6-6.6 13.9-7.9 28.4-14.9 43.1-21.1 6.4-2.7 13.7-5.2 20.2-2.7 3.9 1.5 7 4.6 9.9 7.6l20.8 21.4c2.4 2.5 15.6-4.4 17.2-1.3 2.4 4.4 14 14 14 29.2 0 67.9-28.1 96.4-28.1 96.4-5.6 17.2-11.4 34.7-15.6 53.4-4.9 21.6-13.9 65.9-13.9 65.9.3 23.2 3.6 46.2 4.1 69.3 1 44-14.9 87.7-27.6 129.8-1.6 5.9-44 9-43.4 3.1z" fill="#186ACB"/><path d="M861.5 1160.4c.8-33.7-2.6-106-4.1-123.8-4.7-54.4-28.7-118.7-34.4-173-5.7-54.3-4.4-88.1 7.3-141.4.8-3.6 19.7-3.2 21.9-6.2 2.2-2.9 5.4-4.8 8.6-6.6 13.9-7.9 28.4-14.9 43.1-21.1 6.4-2.7 13.7-5.2 20.2-2.7 3.9 1.5 7 4.6 9.9 7.6 6.9 7.1-72.9 83.5-72.9 83.5-5.6 17.2-5.2 60-2.4 93.3 1.9 22.1 25.1 125.9 25.6 149.1 1 44 1.3 82.6-11.3 124.7-1.8 5.7-12.1 22.5-11.5 16.6z" fill="#337CD1" opacity=".85"/><path d="M954.9 454.7c8.2-2.2 15.2-7.5 20.5-14.1 5.3-6.6 8.8-14.4 11.5-22.4 1.3-3.8 2.4-7.8 2.2-11.9-.2-4-1.8-8.2-5.1-10.6-2.7-2-6.4-2.5-9.6-1.3-3.2 1.1-9 7.3-9.9 10.6 1.3-15.3-1.3-22.2-3.2-28.9-1-3.3-3.1-9.5-16.3-10.7 0 0 1-2.6 1.6-10.2 4.2-1.9 3.5 0 8.1 0 4.4 0 9-.1 13.1 1.6 3.4 1.4 6.3 3.8 9 6.3 3.7 3.5 7.2 7.2 9.9 11.5 6.8 10.8 8 24.2 8.1 37 .1 7.4-.2 15-2.1 22.2-2.1 7.8-6.1 15-10 22.1-3.7 6.7-7.5 13.4-12.2 19.5-3.2 4.2-13.9 14.2-18.6 6.2-1.9-3.3.3-8.1 1-11.5 1.1-5 1.8-10.2 2-15.4z" fill="#D8C08B"/><path d="M990.4 474.4c-12.6-4.7-56 .9-67.8 7.3-17.4 9.4-15.9 21.5-26.3 37.7-12.4 19.4-23.4 39.6-34.4 59.8-12.5 23-24.9 46-34 70.6-8.6 23.5-24.7 50.2-26.7 75.2-.7 9-.9 18.3 2 26.8 0 0 7.2-20.4 40.7 9.6 17.1 15.4 74.7 23.8 95.9 10.8 14.8-9.1 26.3-22.6 39.6-33.7 13.3-11.1 47.2-32.6 62-18.5 5.6-8.4 6.6-19.3 4.6-29.3-1.9-9.9-6.5-19.2-11.2-28.2-1.6-3.1-3.3-6.2-4.2-9.6-1-3.6-6.5-9.9-6.4-13.7.3-33.5 7-66 3.6-99.3-3.1-29.8-7.8-54.4-37.4-65.5z" fill="#FFD840"/><path d="M990.2 474.8c-4.6-3.2-9.4-5.8-14.8-7-19.4-4.5-39 10.8-46.6 29.3-7.5 18.5 14.5 19.1 15.6 39 2.9 52-18 126.2-39.2 173.8-10.3 23.1-25.3 43.8-40.1 64.3 13.2 2.1 25.9 4 39.2 4.3 7 .2 14.1 0 20.9-1.3 4.2-.8 10.8-5.1 14.6-5.1 14.8-9.1 26.3-22.6 39.6-33.7 13.3-11.1 47.2-32.6 62-18.5 5.6-8.4 6.6-19.3 4.6-29.3-1.9-9.9-6.5-19.2-11.2-28.2-1.6-3.1-3.3-6.2-4.2-9.6-1-3.6-6.5-9.9-6.4-13.7.4-34.1 6.9-67.6 4.2-101.7-.8-10.5-2.3-21.2-7.1-30.6-5.2-10.1-13.8-18-22.5-25.2-2.7-2.4-5.6-4.7-8.6-6.8z" fill="#FFD840" opacity=".2"/><path d="M703.1 588.9c-8.3-.4-16.3-.6-24.5-2.2-2.3-.4-6.3-5.2-6.7-5.7 0 0-2.4-1.3-2.9-1.6-3.7-2.7-3.5-7-3.7-7.6 0 0-2.9-1.8-4.3-3-4.1-3.6-6.7-12.6-8.4-17.7-2.7-8.3-4.5-16.9-5.1-25.6 0-.5-.1-1.1.2-1.5.7-1.1 2.3-.6 3.3.1 3.3 2.5 4.8 6.6 6.1 10.4 2.5 7.2 5 14.4 7.5 21.5.3.8.6 1.7 1.2 2.4.5.6 1.3 1 2 1.4 7.2 3.9 13.3 6 21.6 6 9.3-8.8-22.9-26.8-15.6-31.7 9.1.3 14 10.7 21.6 15.8 5.8 3.9 14.9 3.5 21.3 6.2 10.1 4.3 17.7 13.2 27.4 18.4 10.5 5.8 22 9.6 33.6 12.7 18.6 4.9 37.6 7.9 55.7 14.3 5.1 1.8 10.4 4.1 13.1 8.8 1.9 3.3 2.1 7.3 2 11.1-.1 8.7-1.3 17.3-3.6 25.7-17.5-1.3-34.8-6.2-50.4-14.3-18.4-9.6-34.3-23.4-51-35.6-5.7-4.2-12.3-8.8-19.5-10.2-6.9-1.3-13.7 2.3-20.9 1.9z" fill="#D8C08B"/><path d="M703.1 588.9c-8.3-.4-16.3-.6-24.5-2.2-2.3-.4-6.3-5.2-6.7-5.7 0 0-2.4-1.3-2.9-1.6-3.7-2.7-3.5-7-3.7-7.6 0 0-2.9-1.8-4.3-3-4.1-3.6-6.7-12.6-8.4-17.7-2.7-8.2-4.9-17-4.6-25.7 3.3 10.4 6.5 20.9 9.8 31.3 1.4 4.4 3 9.1 6.7 11.8 1.4 1 3 1.7 4.1 3.1.8 1 1.2 2.2 1.8 3.2.8 1.2 2.1 2.1 3.3 2.9 5.3 3.4 11.5 5.5 17.7 6 15.5 1.2 31.7-7 46.1-1.3 8.3 3.3 14.1 10.5 20.4 16.7 22.9 22.7 57.2 35 88.5 27.1 1.6-.4-.9 14.9-1.4 16.2-1.3 3.2-1.6 4.2-4.8 4.5-2.9.2-6.5-.9-9.4-1.4-12.7-2.3-25-6.6-36.4-12.5-18.4-9.6-34.3-23.4-51-35.6-5.7-4.2-12.3-8.8-19.5-10.2-6.8-1.5-13.6 2.1-20.8 1.7z" fill="#CCB079"/><path d="M893.9 515.3c-6.2 13.9-9.4 28.9-14.3 43.3-5.2 15.4-13.8 26.3-22.9 39.6-2.1 3.1-4.4 6.3-7.8 8-10.6 5.1-24.5-8.2-34.2-1.4-2.9 2-13 24.6-16.5 32.6-.5 1.2-1.1 2.6-.8 3.9.3 1.3 1.4 2.3 2.4 3.2 6.8 5.8 52.6 38.2 68.1 33.6 35.1-10.4 64.5-86.4 71.9-105.4 8.3-21.3 13.1-89.1-4.7-94.1-18.4-5.1-39.1 31.6-41.2 36.7z" fill="#FFD840"/><path d="M924.7 606.5c-7.6 17.5-20 32.8-35.5 43.8-4.4 3.1-9.2 6-14.5 6.9-5.9 1.1-12.1-.3-17.6-2.8-5.5-2.5-10.4-6-15.4-9.4-11.7-8.1-24.3-16.1-38.4-17.5-2.3 2.9-4.7 5.9-5.4 9.5-1.5 7.5 6.9 11.6 12.1 15.2 6.3 4.4 12.8 8.6 19.4 12.5 9.6 5.6 26.4 17 38.3 13.5 14.1-4.2 24.7-16.8 33-28.3 5.1-7.1 9.6-14.5 13.9-22.1 2.1-3.8 3.8-7.8 6.1-11.5 2-3.3 2.5-6.3 4-9.8z" fill="#F9C932"/><path d="M893.9 515.3c-6.2 13.9-9.4 28.9-14.3 43.3-5.2 15.4-13.8 26.3-22.9 39.6-2.1 3.1-4.4 6.3-7.8 8-7.2 3.5-15.3-1.2-22.4-2.7-9.2-2-13.8 2.8-16.4 11.6 1.1-4.1 5.9-6.1 10.1-5.9 4.2.3 8.1 2.2 12 3.7 4.9 1.9 10.1 3 15.3 3.4 2.9.2 5.8.2 8.5-.6 3.6-1.1 6.6-3.4 9.3-6 6.3-6.3 10.6-14.3 14.4-22.3 10.3-21.8 17.5-44.9 26.2-67.4 4.1-10.5 8.6-21 15.5-29.9 2.8-3.5 6.2-6.9 10.5-7.9s9.7 1.4 10.5 5.8c-4-7.2-7.6-11.8-16.1-9-5.8 2-10.7 6.4-14.9 10.8-7 7.4-13.4 16.3-17.5 25.5z" fill="#FFE274"/><path d="M964.7 306.7c-8.2-2.3-16.8-3.2-25.3-2.2-5.5.7-11.2 2.3-15.3 6.2-2.5 2.4-4.2 5.4-5.6 8.6-3.5 8.3-4.6 17.8-1.5 26.3 3.1 8.4 11 15.3 19.9 15.9 9.4.6 18.2-5.3 23.4 5.5 3 6.2 6.4 14 6.7 20.9.4 8.6-2.2 15.2-2.5 17.2-.1 1 1.2 1.7 2.2 2 2.3.5 3.7-2.4 5.9-3.3 2.1-.9 4.6.5 5.7 2.5 1.2 2 1.3 4.3 1.4 6.6.6 12.2-1.8 25.9-8.8 36.4-4.7 8.5-11 16.3-13 25.8-1.1 5.5-.7 11.3.2 16.9 1.2 7.1 3.2 14.1 6.6 20.4 3.8 7.1 9.3 13.2 13.9 19.8 5.6 8 8.5 15.3 10.5 24.6 2.1 9.7 3.2 19.6 6.8 28.9 6.1 15.9 19.3 28.9 35.3 34.7 16 5.8 34.5 4.3 49.4-4 18.9-10.5 30.6-30.3 39.6-50 10.8-23.5 19.3-48.6 20.6-74.5 1.3-25.9-5-52.8-21.1-73.1-7.5-9.5-17-17.3-27.2-23.8-7.9-5-16.4-9.4-23.4-15.7-13.5-12.3-22.5-44.4-33.6-54.7-12-11.2-31-8.9-39.9-7-1.8.4-3.6.9-5.4.6-1.9-.3-3.7-1.4-5.3-2.4-6.1-4-13-7.1-20.2-9.1z" fill="#0058B0"/><path d="M945.3 331.2c-.6-.7-1.2-1.4-1.7-2.2-2.8-4.1-4.9-10-9.8-10.5-1.6-.2-3.3.3-4.6 1.2-5.7 3.5-6.6 11.6-4.8 18.1 1.7 6.1 5.6 12 11.5 14.4 4.2 1.7 8.8 1.4 13.2 2.4 15.7 3.8 21.7 20.7 25.8 34.4 4.3 14.3 8.9 28.9 9 44 .2 15.5-10.1 28.1-15.3 42.5-2 5.6-3.8 11.3-3.7 17.2 0 14.5 10.4 26.8 21 36.8 2.1 2 4.2 4 5.6 6.5 1 1.9 1.6 3.9 2.1 6 2.7 10.8 4.6 21.7 8.2 32.2 3.6 10.5 9.1 20.6 17.5 27.7 8.5 7.1 20.3 10.8 31 7.7 8.4-2.5 15.1-9 19.8-16.4 6.4-10.2 9.3-22.5 8.2-34.4 3.6 1.2 7.4-1.1 10.2-3.6 11.7-10.4 18.1-25.7 21-41.1 1.8-9.9 2.3-20.3-.2-30.1-3.6-13.8-13.2-19.4-22-29.2-3.3-26.6-23-50.5-48.6-58.9-5.3-1.7-10.9-2.9-15.8-5.6-15-8.5-21.2-27-27.4-41.8-1.7-4.2-3.7-8.6-7.4-11.1-8.4-5.7-19.7 1-29.8.2-5.1-.5-9.8-2.8-13-6.4z" fill="#0058B0" opacity=".2"/><path d="M970.7 406.2c.2-1.2.9-1.9 2-2.7 1.4-1 4.3-1.7 6-1.4 2.4.4 4.5 2.7 5.1 5.2 1 4.4.2 8.1-1.1 12.5-.8 2.6-2.8 5.5-4.6 7.5-1.8 2-4.3 4.3-7 3.8-.2 0-.4-.1-.6-.2-.4-.3-.4-.9-.6-1.4" fill="#D8C08B"/><path d="M947.6 481.4c-5.5 18.1-3.4 37.6 2.9 55.5.5 1.5 2.8 1 2.5-.6-.7-5.1-2-10.1-2.9-15.1-3.9-22.7 1.4-47 14.6-65.9 3.4-4.9 11.1-12.2 14.2-17.3 1.7-2.8 3.7-13.6.8-8.4-.9 1.6-23.7 24.2-32.1 51.8z" fill="#0058B0"/><path d="M838.8 606.8c-4.6-2.3-10.4-.9-14.3 2.3-4 3.2-6.4 8-8.2 12.8-2.4 6.6-3.8 13.6-4.1 20.6-.2 6 1.1 13.2 6.6 15.6-4.8 2.3-10.3-1.2-14.5-4.5-2.8-2.2-5.7-4.4-8.5-6.7-3-2.4-6.2-4.9-7.9-8.4-3.1-6.3-.5-13.8 2-20.4 3-7.5 6.3-15.5 13.1-19.9 6-3.9 13.9-4.1 20.7-2 6.9 2.1 12.9 6.2 18.5 10.7-3.7-.7-7.4-1.5-11.1-2.2" fill="#FFE272"/></svg>