<svg width="1055" height="970" fill="none" xmlns="http://www.w3.org/2000/svg"><g clip-path="url(#a)"><path d="M338.2 38.2H87.4c-15 0-27.3 12.2-27.3 27.3v182.2c0 15 12.2 27.3 27.3 27.3h250.8c15 0 27.2-12.2 27.2-27.3V65.5c0-15-12.2-27.3-27.2-27.3z" fill="#E6F7FF"/><path d="M319.7 38.5H87.4c-15 0-27.3 12.2-27.3 27.3V234c0 15 12.2 27.3 27.3 27.3h232.3c15 0 27.3-12.2 27.3-27.3V65.7c0-15-12.2-27.2-27.3-27.2z" fill="#00DE77"/><path d="M692 558.6l-590-2.7v380a34 34 0 0034 34h507.3c35.1 0 48.2-17.6 48.2-43.2l.4-368.1z" fill="#E6F7FF"/><path d="M171.7 195.8c.4-22.2-16.3-27-16.3-27l-2.7-25.6s8-2.8 8-16V110h-10.4v8.6h-8V110h-10.8v8.6h-8V110h-10.3v17.3c0 13.1 8 16 8 16l-2.8 25.6s-16.7 4.8-16.3 27h69.6zm46.9 24.2c.3-14.9-11-18.1-11-18.1l-1.8-17.3s5.3-1.9 5.3-10.7h-32c0 8.8 5.4 10.7 5.4 10.7l-1.9 17.3s-11.2 3.2-11 18.2h47zm-23.4-49.1a12 12 0 100-24 12 12 0 000 24z" fill="#fff"/><path d="M285 195.8c.4-22.2-16.2-27-16.2-27l-2.8-25.6s9.4-2.1 8-11.8h-47.6c-1 10 8 11.8 8 11.8l-2.7 25.6s-16.6 4.9-16.3 27H285zM250.2 91.2a8.8 8.8 0 100-17.5 8.8 8.8 0 000 17.5z" fill="#fff"/><path d="M250.2 126.2s14.9 2.7 18.2-13.5c2.8-13.5-18.2-27-18.2-27s-21 13.5-18.2 27c3.4 16.2 18.2 13.5 18.2 13.5z" fill="#fff"/><path d="M483 362.8L0 360.2v403.2A10.6 10.6 0 0010.6 774h461.3a10.6 10.6 0 0010.6-10.6l.5-400.6z" fill="#A6DFFF"/><path d="M482.5 363.3H0V353a15 15 0 0115-15h452.4a15 15 0 0115.1 15v10.4z" fill="#004DDD"/><path d="M24.4 354a3.8 3.8 0 10-3-7 3.8 3.8 0 003 7z" fill="#7CF"/><path d="M41 354a3.8 3.8 0 10-3-7 3.8 3.8 0 003 7z" fill="#FFD900"/><path d="M57.6 354a3.8 3.8 0 10-2.9-7 3.8 3.8 0 003 7z" fill="#0D7"/><path d="M457.7 388.8H25.1v154.7h432.6V388.8zm-9.1 200.1H34.2c-5 0-9.1 4-9.1 9v.1c0 5 4 9.1 9.1 9.1h414.4a9.1 9.1 0 000-18.3zm0 52.3H34.2a9.1 9.1 0 000 18.3h414.4c5 0 9.1-4.1 9.1-9.2 0-5-4-9.1-9.1-9.1zm0 52.3H34.2a9.1 9.1 0 000 18.3h414.4c5 0 9.1-4.1 9.1-9.2 0-5-4-9.1-9.1-9.1z" fill="#7CF"/><path d="M532.6 439.9l-483-2.7v403.3A10.6 10.6 0 0060.2 851h461.4a10.6 10.6 0 0010.6-10.6l.4-400.6z" fill="#E6F7FF"/><path d="M532.2 440.4H49.6V430a15 15 0 0115.1-15.1h452.4a15 15 0 0115 15v10.5z" fill="#004DDD"/><path d="M74 431a3.8 3.8 0 10-2.9-7 3.8 3.8 0 003 7z" fill="#7CF"/><path d="M90.6 431a3.8 3.8 0 10-2.9-7 3.8 3.8 0 003 7z" fill="#FFD900"/><path d="M107.3 431a3.8 3.8 0 10-3-7 3.8 3.8 0 003 7z" fill="#0D7"/><path d="M507.4 465.9H74.7v154.6h432.7V466zM498.2 666H84c-5 0-9.2 4-9.2 9 0 5.1 4.1 9.2 9.2 9.2h414.3c5 0 9.2-4.1 9.2-9.1s-4.1-9.2-9.2-9.2zm0 52.2H84c-5 0-9.2 4.1-9.2 9.2 0 5 4.1 9.1 9.2 9.1h414.3a9.1 9.1 0 100-18.3zm0 52.4H84c-5 0-9.2 4-9.2 9v.1c0 5 4.1 9.1 9.2 9.1h414.3a9.1 9.1 0 100-18.3z" fill="#A6DFFF"/><path d="M760 248.8H659v101h101v-101z" fill="#008CFF"/><path d="M659 248.8H558v101h101v-101z" fill="#004DDD"/><path d="M961.6 248.8h-101v101h101v-101z" fill="#008CFF"/><path d="M860.6 248.8h-101v101h101v-101z" fill="#004DDD"/><path d="M558 248.8H457v101h101v-101z" fill="#008CFF"/><path d="M457 248.8H355.8v101h101v-101z" fill="#004DDD"/><path d="M557.5 449.9h101v-101h-101v101z" fill="#008CFF"/><path d="M658.5 449.9h101v-101h-101v101z" fill="#004DDD"/><path d="M355.9 449.9h101v-101H356v101z" fill="#008CFF"/><path d="M457 449.9h101v-101H457v101z" fill="#004DDD"/><path d="M759.5 449.9h101v-101h-101v101z" fill="#008CFF"/><path d="M860.6 449.9h101v-101h-101v101z" fill="#004DDD"/><path d="M760 449.9H659v101h101V450z" fill="#008CFF"/><path d="M659 449.9H558v101h101V450z" fill="#004DDD"/><path d="M961.6 449.9h-101v101h101V450z" fill="#008CFF"/><path d="M860.6 449.9h-101v101h101V450z" fill="#004DDD"/><path d="M558 449.9H457v101h101V450z" fill="#008CFF"/><path d="M457 449.9H355.8v101h101V450z" fill="#004DDD"/><path d="M557.5 651h101V550h-101v101z" fill="#008CFF"/><path d="M658.5 651h101V550h-101v101z" fill="#004DDD"/><path d="M355.9 651h101V550H356v101z" fill="#008CFF"/><path d="M457 651h101V550H457v101z" fill="#004DDD"/><path d="M759.5 651h101V550h-101v101z" fill="#008CFF"/><path d="M860.6 651h101V550h-101v101z" fill="#004DDD"/><path d="M760 651H659v101h101V651z" fill="#008CFF"/><path d="M659 651H558v101h101V651z" fill="#004DDD"/><path d="M961.6 651h-101v101h101V651z" fill="#008CFF"/><path d="M860.6 651h-101v101h101V651z" fill="#004DDD"/><path d="M558 651H457v101h101V651z" fill="#008CFF"/><path d="M457 651H355.8v101h101V651z" fill="#004DDD"/><path d="M557.5 852.1h101v-101h-101v101z" fill="#008CFF"/><path d="M658.5 852.1h101v-101h-101v101z" fill="#004DDD"/><path d="M355.9 852.1h101v-101H356v101z" fill="#008CFF"/><path d="M457 852.1h101v-101H457v101z" fill="#004DDD"/><path d="M759.5 852.1h101v-101h-101v101z" fill="#008CFF"/><path d="M860.6 852.1h101v-101h-101v101z" fill="#004DDD"/><path d="M880.2 245.3a2.2 2.2 0 10-1.7-4.2 2.2 2.2 0 001.7 4.2z" fill="#0039C5"/><path d="M658.5 551H558v100h100.5V551zm0-1H558v1h100.5v-1z" fill="#004DDD"/><path d="M658.5 551v100h31.8l.1-100h-31.9z" fill="#0039C6"/><path d="M690.4 550H659v1h31.4v-1zm-31.4 0h-.5v1h.5v-1zm-202 1H355.8v100h101V551zm0-1H355.8v1h101v-1z" fill="#004DDD"/><path d="M557.5 551H456.9v100h100.6V551zm0-1H456.9v1h100.6v-1zm.5 1h-.5v100h.5V551zm0-1h-.5v1h.5v-1z" fill="#004DDD"/><path d="M659 651v100.1h31.2v-100H659z" fill="#007BFF"/><path d="M658.5 651H558v100.1h101v-100h-.5zm-101 0H456.9v100.1H558v-100h-.5z" fill="#004DDD"/><path d="M457 651H355.8v100.1h101v-100zm201.5 101H558v100.1h100.5v-100z" fill="#004DDD"/><path d="M658.5 751.1H558v1h100.5v-1z" fill="#004DDD"/><path d="M659 752h-.5v100.1h31.6v-100h-31z" fill="#0039C6"/><path d="M690.2 751.1H659v1h31.2v-1zm-31.2 0h-.5v1h.5v-1zm-202 .9H355.8v100.1h101v-100z" fill="#004DDD"/><path d="M457 751.1H355.8v1h101v-1zm100.5.9H456.9v100.1h100.6v-100z" fill="#004DDD"/><path d="M557.5 751.1H456.9v1h100.6v-1zm.5.9h-.5v100.1h.5v-100z" fill="#004DDD"/><path d="M558 751.1h-.5v1h.5v-1z" fill="#004DDD"/><path d="M690.4 550l-.4-66.2c0-11.3-8.2-19.5-19.1-19.5H659V550h31.4z" fill="#007BFF"/><path d="M659 550v-85.7H558V550h101z" fill="#0039C6"/><path d="M558 550v-85.7H457V550h101z" fill="#007BFF"/><path d="M457 464.3H355.8V550h101v-85.7z" fill="#0039C6"/><path d="M396 758.7a13 13 0 01-11.4 12.9h-97a12.8 12.8 0 010-25.7H385a12.9 12.9 0 0111 12.8z" fill="#FFDA00"/><path d="M287 119.2a30 30 0 00-2.8 18.7c1.3 6.3 5 12.8 2.4 18.5-3.3 7-13.8 8-16.9 14.9-2.9 6.5 1.4 14 0 20.8-1.3 7-7 12.9-9.5 19.5-2.4 6.7-3.3 14-1 20.7 1.4 4 3.6 7.6 6.4 10.7 10.8 12.4 27.6 16.9 42.8 21.3 20.3 6 41.7 7.2 62.8 6.8 23.7-.4 47.5-2.6 70-9.9a85.9 85.9 0 0038.3-22.6C488.8 228 495 213.4 508 208c-7.1-9-21.1-11-27.1-20.8-7.4-12.3 1.6-30-6.9-41.7-3-4.2-8-6.7-11.8-10.2-8.7-7.7-11.8-19.7-17.7-29.7a63.6 63.6 0 00-43-29.1c-29.3-5.7-39.7 11.2-41.4 10.4-12.2-6-26.6-9.1-39.3-2.6-5.7 3-8 7.3-12.2 11.5-5.5 5.6-12.2 9.4-17 15.8a41.6 41.6 0 00-4.7 7.6z" fill="#5C2C06"/><path d="M386.8 116.5a149.6 149.6 0 01-57.3 36c-13.9 4.7-28.7 8.1-40.8 16.8a45.7 45.7 0 00-14.3 18.4 39.6 39.6 0 00-4 13.3 25.8 25.8 0 008 19.6c7.9 7.7 19.8 11.3 25 20.9 1.5 2.7 2.3 5.6 3.4 8.4a28 28 0 0013.4 15.3c4.7 2.2 10 2.7 15.2 3 39.6 2.3 83.7-1.4 117.8-23.8 7.6-5 14.9-11.1 18.7-19.4 6-13 2.1-28.9-6.1-40.5-8.3-11.6-20-20.3-32-28l-14-14a3.5 3.5 0 001-3.7 40.6 40.6 0 00-9-12.4c-4.7-4-11-5.6-17-7-6-1.4-12.5-2.7-17.8.3" fill="#5C2C06" style="mix-blend-mode:multiply" opacity=".4"/><path d="M386.8 116.5a149.6 149.6 0 01-57.3 36c-13.9 4.7-28.7 8.1-40.8 16.8a45.7 45.7 0 00-14.3 18.4 39.6 39.6 0 00-4 13.3 25.8 25.8 0 008 19.6c7.9 7.7 19.8 11.3 25 20.9 3 5.4 4.5 11.3 7.9 16.5-3-5.7-1.7-12.6-3-19a29 29 0 00-7.5-13.8c-4.6-5-11-9.6-11-16.4 0-4 2.6-7.7 5.8-10.1 3.2-2.4 7.1-3.7 11-4.9 12.8-3.8 26-6.5 38.4-11.9a56.7 56.7 0 0029.7-25.8c1.8-4.1 3.3-8.5 4.4-12.9l6.5-23.2c-4 3-7.5 6.4-10.5 10.3" fill="#44260E" style="mix-blend-mode:multiply" opacity=".2"/><path d="M351.6 206c1.5 11.9 2.6 24 .6 35.7-2.7 16.5-11.1 31.5-19.7 45.9 8.4 4.2 17 8.3 26.3 10.1 10.3 2 21 1 31.5-.6 14.9-2 30.1-5.3 42.4-13.8-6-3.6-9.5-10.2-12.5-16.5a83 83 0 01-9.7-33.7c0-3 .2-6.1.5-9.2l2.1-24.2-3.6-.7" fill="#A2743A"/><path d="M351.6 206c1.5 11.9 2.6 24 .6 35.7-2.7 16.5-11.1 31.5-19.7 45.9 14 7 28 12.6 43.9 12.9-4.2 1.4-8.9-2.1-10-6.4-1.1-4.4.5-8.9 2.7-12.8 5.3-9.3 14.2-16.1 22.3-23.1 8.2-7 15.4-7.5 18.3-20.2.1-.4-.9-15 2.9-27.1 1.1-3.9 1.5-8.2 2.2-12.2l-1.9-.6" fill="#92632F"/><path d="M434.2 170c-.7-2.6-2.6-5.6-5.2-5-.8.2-1.4.6-1.9 1.2-.8-8-4.9-15.6-7-23.4a28.2 28.2 0 00-5.4-11.6 24.6 24.6 0 00-13.4-6.7 65.4 65.4 0 00-58 17.5 40 40 0 00-5.2 7.2 47 47 0 00-5.7 21.5c-1.5-1.3-2.7-3.3-4.7-3.4-2.6-.3-4.1 3-4.5 5.6-.8 7.1.9 14.2 4.7 20.2 1.4 2.2 3.2 4 5.5 5.4 1 .6 2.3.9 3.5 1 6 17.5 17.2 33.6 30.7 41.3 9.8 5.5 18.4 5.2 24.1 2.4 12.4-6.1 23.6-23.5 30-45a8 8 0 006-1.4 15 15 0 004.7-6.1c3-6.5 3.6-13.8 1.8-20.7z" fill="#B2864B"/><path d="M434.6 169.9c-1.1-2.8-3-5.5-5.6-4.9-.8.2-1.4.6-1.9 1.2-.8-8-4.9-15.6-7-23.4a28.2 28.2 0 00-5.4-11.6 24.6 24.6 0 00-13.4-6.7 65.4 65.4 0 00-58 17.5 40 40 0 00-5.2 7.2 47 47 0 00-5.7 21.5c-1.5-1.3-2.7-3.3-4.7-3.5-8.2-.7-4 18.5-2.3 22.2 7.3-1.7 14.6-2.2 19.4-3.3 29.8-6.4 43-20.6 59.3-41a31.1 31.1 0 0017.6 26.8c1.8.9 4.6 4.2 6.1 5.8 3 3.2 5.3 7.2 5.2 11.6 0-2 1.8-4.7 2.2-6.8.6-2.7.7-5.5.5-8.3-.2-1.5-.6-3-1.1-4.3z" fill="#A2743A"/><path d="M360 168.9c-2.4.8-4.8 1.5-7.3 2-9.4 2.2-18.9 1.5-28.4 1.9-11 .5-21 5.3-32 6.3-10.4 1-23.3 15-21 30.4-8.8-4 1.6-20.9.4-25.8-.5-1.8-.6-3.8-.4-5.7.4-2 1.3-3.8 2.6-5.3C282 162 298 161 308 152.2c9.3-8.3 14.1-20.4 22.7-29.4a91.3 91.3 0 0134.3-22.7c10.7-4 22.4-5.6 33.4-3 14.5 3.4 23 12.8 28.6 26 3.6 8.3 8.7 16 15 22.6 8.6 9.2 20 16 27.5 25.8a64.5 64.5 0 0113.5 33.6c1 12.4-4.3 22.2-12.8 30.6a57.8 57.8 0 01-32.8 17.4c10-6 21.4-20.2 24.2-31.6 2.8-11.4 0-24.3-7.9-33-8.8-9.6-22.3-13-31.6-22.2-8-7.7-17-19-17.4-30.5 0 .6-7.4 6.8-8.2 7.6A93.3 93.3 0 01360 169z" fill="#5C2C06"/><path d="M293.9 254.8c-27.4 8.4-35.3 42.8-50.1 63.4-21.7 30.4-47.8 55-64.1 89.5-7.5 15.9-13.1 34.3-7 50.8 5.6 15 19.8 25.1 34.1 32.3 20.1 10.1 38.3 10.5 60 14 23 4 46.3 7.3 69.5 10 45.6 5 91.6 7 137.3 11.7 19.1 2 38.5 4.4 57.5 1.3 19-3 38-12.4 47.8-29 8.5-14.3 9-32 7.5-48.6a141.9 141.9 0 00-7.6-35.9c-12.5-33.6-30.4-59.5-40-94-5-17.4-14.7-39-24.4-54.2-8-12.9-29.6-27-44.8-27.1-17.2-.2-37.9 13-51.4 23.4 0 0 1.3 3.6 0 10.2a30 30 0 01-16.9 19.7c-27 11.5-68.2-5.6-58-24.3.1-.1-33.9-18-49.4-13.2z" fill="#7CF"/><path opacity=".6" d="M418.2 262.3a432 432 0 0131.8-14c14-3.8 30.2-1.2 37.4 4.7 15 12.1 21.7 27.3 28.2 44 6.6 16.7 9.6 34.5 15.4 51.5 12.6 37.3 38 69.8 46.9 108 .5 2.3 7.5-4 8-4.8 1.8-3.4.1-6.4-.4-9.9-1.5-9.4-3.4-18.6-6.7-27.5-12.4-33.6-30.3-59.5-40-94-4.8-17.4-14.6-39-24.3-54.2-8-12.9-29.6-27-44.8-27.1-17.3-.3-38 13-51.5 23.3z" fill="#4AB4FF"/><path d="M293.9 254.8c-22.6 6.4-39.7 45.4-51.2 66-14 24.9-26.2 51.2-40.8 75.7-13 21.9-25.4 39.2-23.5 66.3.4 5.9 1.4 11.8 4 17 4.9 9.4 15 16.5 25.6 17.2 12.5.7 25 2.1 37.4 4.2a1407 1407 0 0091 13.5c26.7 0 53.2 5.5 79.5 10.3 2 .3 4 .6 5.8-.4 1.4-.9 2.2-2.5 2.9-4l11.2-25.8a90 90 0 007.1-20.7c1.6-9.7 0-19.5-1.4-29.2a100 100 0 00-4.5-19.5c-2.1-5.2-4.7-10.2-7.6-15-3.7-6.2-7.3-12.5-11.4-18.6-10.6-15.7-23.8-29.5-34.6-45.1-10.7-15.6-19-34-17.7-52.9-6.4-2.2-14-4.8-19-9.8a15.8 15.8 0 01-4.8-8.4c0-.7.6-8.2 1.5-7.7 0 0-34-17.9-49.5-13z" fill="#05A2FF"/><path d="M247.5 433.7a194.6 194.6 0 01-16.5 37.9c-5.9 10.4-15.6 21.5-27.8 19.3-5.2-1-9.7-4.4-12.9-8.5-6-8-7.7-18.4-6.4-28 1.2-9.8 5-18.9 8.9-27.8 19.2-44.2 44.3-89.5 88-111.7l-2 3.8" fill="#B2864B"/><path d="M332.7 199.8a3.2 3.2 0 100-6.4 3.2 3.2 0 000 6.4zm95.2-1.6a3.2 3.2 0 100-6.4 3.2 3.2 0 000 6.4z" fill="#fff"/><path d="M342.4 112.8c2.7-1.1 5.4-2.1 8.2-3 15.1-4.6 28.8-9.2 45-7.6 7 .7 16.4 3.2 19.9 10.2a13.3 13.3 0 01-.4 12.2c2.6-3.6 4-7.8 4.2-12.2a14.5 14.5 0 00-5.1-11.6c-2.6-2-5.8-2.9-9-3.5-3.7-.8-7.6-1.2-11.4-1.3-15.9-.6-32 4.2-47.4.3-2.8-.7-5.7-1.7-8.6-1.8a14.3 14.3 0 00-12 6c-2.2 3.2-3 7.2-5.5 10.2-4.8 6-14 5.8-20.4 10.2a16.4 16.4 0 00-6.8 11.9c-.4 3.7.6 7.4.8 11 .3 5.9-3 10.2-6.2 14.6 6.3-4.3 12-9.3 17.2-15 3.5-3.8 6.8-8 10.4-11.8 7.7-8 17-14.4 27.1-18.8z" fill="#5C2C06" style="mix-blend-mode:multiply" opacity=".2"/><path d="M417 147a34.8 34.8 0 0019.4 13.8c3 .9 6.1 1.5 9.2 2.4a36.5 36.5 0 0121.8 50.2c1.7-.3 2.8-2 3.6-3.5a40 40 0 001.7-23c-1.1-7.8-2.9-15.5-2-23.2.5-4 1.5-8.3-.7-11.6-1.2-1.8-3.3-3-5.2-4-2-1.1-4-2-6-2.7-5.2-1.4-10.7-.2-16 0a41 41 0 01-20.2-4.5c-2-1-4-2.3-5.5-4-2.3-2.8-2.6-6-3-9.4-4.3 4.3.3 15.4 3 19.5z" fill="#44260E" style="mix-blend-mode:multiply" opacity=".2"/><path d="M547.8 486.6c0-20 17.4-36.4 38.8-36.4s38.9 16.3 38.9 36.4" fill="#fff"/><path d="M615 486.6c0-20-29.2-36.4-28.4-36.4 21.4 0 38.8 16.3 38.8 36.4" fill="#C9D3DD"/><path d="M570.4 432.4c-2.4 1.7-5.4 2.9-8 4.2-1.9.8-3.6 2-5.2 3.4a16 16 0 00-3.4 6.7c-1.5 5.4-2.4 11.2-6 15.6a48.8 48.8 0 00-3.4 4 5.2 5.2 0 00-.6 5c1.2 2.5 4.7 2.6 7.3 1.8 6-1.8 8.4-6.5 10.7-11.6 2-5 12-12.2 17-7.3 2.4 2.3 2.8 6 2.8 9.2 0 3.4-.5 6.8.6 10 1 3 4.2 5.9 7.4 5a29.9 29.9 0 004.6-19.2c1.4 3.3 2.1 6.7 2.3 10.3 0 3.3-.3 6.8 1 10 1.2 3 5 5.5 8 3.8 3.5-2.1 2.3-7.6 4.2-11.2a7.5 7.5 0 003 7.5 10.8 10.8 0 008 1.7c.5 0 .9-.1 1.2-.4a2.3 2.3 0 00.5-1.8c0-2.6-.1-5.1-.4-7.7-.3-4.3-2-8.6-.7-12.6 2.7 4.2 5.8 8.1 9.3 11.7a14 14 0 005.9 4c2.3.8 5.1 0 6.3-2-9-9-15-20.3-22.7-30.4a53.4 53.4 0 00-26-20.4c-6.3-1.8-11.6 1-16.6 4.6-2.2 1.6-3.8 3.5-5.8 5.2l-1.3 1z" fill="#B2864B"/><path d="M619.2 444.5c1.2 3.8 1.1 8 1 12 0 .8 0 1.8.3 2.7.5 1.7 1.6 3.3 3 4.6 2.3 2.3 4.8 4.3 7.1 6.6a14 14 0 005.8 4.1c2.3.7 3.5 0 5.4-1a9.7 9.7 0 01-8-2.7 79.5 79.5 0 01-11.9-20.5c-.6-2-1.3-4.1-2.7-5.8zm-46.5 7.3c-1 .2-2.1.5-3.1.9a35 35 0 00-13.1 10.4 15 15 0 01-3.2 3.1 4.5 4.5 0 01-4.4.5 2.7 2.7 0 01-1.1-3.8c-1.4.9-2.5 2-3.4 3.4a5.2 5.2 0 00-.6 5c1.2 2.5 4.7 2.7 7.3 1.9 6-1.8 8.4-6.5 10.7-11.7 1.2-3 3.6-4.7 6.3-6.4 1.7-1.1 3.6-2 5.6-2.3a5.4 5.4 0 015.3 2.2 5 5 0 00-4.1-3.2h-2.2z" fill="#A2743A"/><path d="M355.7 201.2c12 0 21.7-9.3 21.7-20.7 0-11.4-9.7-20.7-21.7-20.7s-21.6 9.3-21.6 20.7c0 11.4 9.7 20.7 21.6 20.7zm50.8 0c12 0 21.7-9.3 21.7-20.7 0-11.4-9.7-20.7-21.7-20.7s-21.6 9.3-21.6 20.7c0 11.4 9.7 20.7 21.6 20.7zm-30.4-27.7h10.3" stroke="#FFDA00" stroke-width="1.9" stroke-miterlimit="10"/><path d="M588 440.2c3.3 4.1 8.3 33.5 8.9 37.3.1 1.6.6 3 1.6 4.3 1.2 1.4 3.2 1.8 5 2a3 3 0 01-2.2-1.8 9 9 0 01-.6-2.8c-.8-7.3-2.4-26.6-2.7-29a78.8 78.8 0 00-2.8-10.8c-.4-.4-.8-.6-1.3-.8-6.7-2.5-13.7-1-20.7-1.6 3.8 1.1 14.4 2.7 14.8 3.2z" fill="#A2743A"/><path d="M605.6 438l1.6 1c.6 1 1 2.1.8 3.2.3 9.2 0 18.4.7 27.6.1 2.2.6 4.3 1.3 6.4.7 2 2.3 3.8 4.2 4.7-2.5-5.3-1.9-11.5-1.6-17.4.4-7.1.3-14.3-.4-21.4 0-.9-.3-1.8-.7-2.7-.5-.7-1-1.3-1.8-1.8a50.7 50.7 0 00-24.9-5.4 90.4 90.4 0 0120.9 5.9z" fill="#A2743A"/><path d="M283.8 473.8a38 38 0 0018.3-21c2-4.9 4.2-17.4 3.7-22.6-2-20-16.1-60.3-19.1-73.1-5-21.3-2.8-51.6 5.5-86.7-2.4-.3-5.7-1.1-8.1-.9-2.4.3-5.1 2.3-6.8 3.6l-4.6 3.8c-4.7 4.2-6.4 11.3-8.2 16.8A333.3 333.3 0 00250 444.2a42 42 0 008.4 23.1c5.8 6.6 17.2 10.6 25.3 6.5z" fill="#B2864B"/><path d="M283.8 473.8a32.8 32.8 0 0018.3-34.5c-3.3-30.6-32.5-50.4-37.4-80.4-2.4-15.1-.1-1.6 8.9-14 2-2.7 6.7-15.3 8.7-17.8 2.5-3.3 4.5-28.8 5-33 .1-.7 0-1.4-.2-2-.7-1.9-3.3-2.3-4-4-1.5 5.8-2.8 3.2-4.3 9.1-1.2 4.8-9.3 5.6-9.5 5.2-17 21-22.3 97-22.1 105.2.3 13.7 1 28 3.6 41.6 2.8 14.3 16 33 33 24.6z" fill="#A2743A"/><path d="M516.3 487.6H228.6l-21.8-149.4a15.7 15.7 0 0115.5-18h296a15.7 15.7 0 0115.5 17.5l-17.5 149.9z" fill="#E6F7FF"/><path opacity=".8" d="M516.3 487.6H228.6l-8.8-75.4s13-31 54.8-41c69.5-16.7 104.5 41.7 153.6 59.6 64.6 23.5 97.9-26.5 97.9-26.5l-9.8 83.3z" fill="#D3EFFF"/><path d="M373 417.1a15.2 15.2 0 100-30.3 15.2 15.2 0 000 30.3z" fill="#7CF"/><path d="M318 226c.9-.6 1.9-1 2.9-1.4 1.4-.4 2.9-.5 4.4-.4 8.3 0 16.6-.8 24.8-2.5 1.4-.3 2.8-.7 4.2-.8.3-.1.5 0 .8 0a1 1 0 01.3 1c-.3 3.3-3.8 5.4-7 6.6-7 2.8-14.5 4.4-22 4.7a5.5 5.5 0 00-4.9 2.1 29.5 29.5 0 01-18.8 8.2c-1.7.1-3.5 0-5.2-.3-.6-.1-2-.3-2.1-1.1-.2-.6.6-1 1-1.4 3.3-2.3 6.5-4.9 9.8-7.2 3.3-2.4 6.9-4.7 10.5-6.8l1.3-.8z" fill="#B2864B"/><path d="M319.4 229l1.3-.5c1.6-.4 3.4-.7 5-.7 5.3-.1 10.6.4 15.8 0 5.3-.6 10.6-2.2 14.1-6a8 8 0 01-1 2.5l-.9 1a14.8 14.8 0 01-5.3 3.3c-7 2.7-14.4 4.3-22 4.6a5.5 5.5 0 00-4.8 2.2 29.5 29.5 0 01-21.4 8.2l-1.4-.5-2-.7-1.7-1.2a170 170 0 0024.3-12.2z" fill="#A2743A"/><path d="M317.4 261.6l-1 .3a18.1 18.1 0 01-1 7.3c-4.4 10.2-13.3 17.7-20.4 26.2a25.8 25.8 0 01-4.6 4.7c-2.7 2-6.2 2.6-9.5 2.9-7 .5-14.7-.6-16.9-6.2a296.4 296.4 0 0120.8-52.8c1.7-3 3.6-6.3 6.7-8 2.8-1.3 9-.6 12.2-.4l22.1 1c1 0 2 .2 3 .6 1 .6 1.8 1.5 2.4 2.5l3 5.2a41 41 0 014.3 13.4 28.9 28.9 0 01-.5 10c-.4 1-.5 2-1.5 2.5a2.6 2.6 0 01-2.9-.3l-.9 3.6c0 .5-.3 1-.7 1.3a2.2 2.2 0 01-2.2-.1 7.3 7.3 0 01-4.2-6.2l-.1-3.7a8.6 8.6 0 00-2.4-3.6l-2-2.2c-1.1.8-2.4 1.5-3.7 2z" fill="#B2864B"/><path d="M317.4 261.6l-1 .3a18.1 18.1 0 01-1 7.3c-4.4 10.2-13.3 17.7-20.4 26.2a25.8 25.8 0 01-4.6 4.7 17.3 17.3 0 01-8.1 2.7l-3.2.1a26.4 26.4 0 01-11.7-1.6 7.5 7.5 0 007.6-.7 13 13 0 004.6-6.4c.9-2.4 1.4-5 2.1-7.6a76.3 76.3 0 0113.2-23.6c1.7-1.6 4.1-2.2 6.4-2.8 4.8-1.3 9.5-3 14-5 1.7-.6 3.6-1.4 5.3-.8 1.5.4 2.5 1.8 3.4 3l4.5 6.2c.5.7 1 1.4 1.2 2.3 0 1 0 1.9-.2 2.8a8.4 8.4 0 002 7.1 3 3 0 01-2.3-.7l-1.7-1.5a7.3 7.3 0 01-2-4.5v-3.7a8.6 8.6 0 00-2.4-3.6l-2-2.2c-1.1.8-2.4 1.5-3.7 2z" fill="#A2743A"/><path d="M333.7 270.5c.3-4 .3-8 0-12 0 0-5.7-9.6-9.7-12-4-2.5-18.2-.3-18.2-.3s13.8-5.3 19.8-2.7c6 2.6 9.4 10.3 10.4 13.1 1 2.8-1.5 11.6.5 14.2a2 2 0 01-2.8-.3z" fill="#A2743A"/><path d="M316.8 262a65.6 65.6 0 01-16.4 3 14 14 0 01-7.4 9l.9 2.6.3.4a10.7 10.7 0 011.7 3.7c.5 1.8.8 3.6.6 5.4-.3 3.3-1.2 6.5-2.6 9.5 6.8-3 13-7.2 17.4-13a27.7 27.7 0 005.6-20.4" fill="#92632F"/><path d="M659.3 512.5l-557.8-2.8v422.1a11.1 11.1 0 0011.1 11.1h535.1a11.1 11.1 0 0011.1-11.1l.5-419.3z" fill="#fff"/><path d="M658.9 513H101.5v-10.8a15.8 15.8 0 0115.8-15.8h525.8a15.8 15.8 0 0115.8 15.8V513z" fill="#004DDD"/><path d="M127 503.2a4 4 0 10-3-7.4 4 4 0 003 7.4z" fill="#7CF"/><path d="M144.5 503.2a4 4 0 10-3.1-7.4 4 4 0 003 7.4z" fill="#FFD900"/><path d="M161.9 503.2a4 4 0 10-3-7.4 4 4 0 003 7.4z" fill="#0D7"/><path d="M632.9 539.7h-505v186.6h505V539.7zm-9.6 223.2h-486a9.6 9.6 0 100 19h486a9.6 9.6 0 100-19zm0 54.7h-486a9.6 9.6 0 100 19.1h486a9.6 9.6 0 100-19zm0 54.8h-486a9.6 9.6 0 100 19.1h486a9.6 9.6 0 100-19.1z" fill="#E5F6FF"/><path d="M300.7 882.3a13.6 13.6 0 01-11.9 13.6h-67.4a13.5 13.5 0 01-9.5-23 13.4 13.4 0 019.5-4h67.8a13.5 13.5 0 0111.5 13.4z" fill="#008CFF"/><path d="M360 827.2a13.6 13.6 0 01-11.8 13.5H149.5a13.4 13.4 0 110-26.9h199.1a13.5 13.5 0 0111.5 13.4z" fill="#00DE77"/><path d="M203.6 771.9a13.6 13.6 0 01-11.8 13.5h-42.3a13.4 13.4 0 110-26.9H192a13.5 13.5 0 0111.5 13.4z" fill="#FFDA00"/><path d="M998.5 664.8h-36.9v-53.2h36.9a2.6 2.6 0 001.8-.9l.8-1.1.3-1.4V218.3a3 3 0 00-3-2.9H786v-53.2h212.5a56.2 56.2 0 0156.2 56v390a56.4 56.4 0 01-56.1 56.6z" fill="#7CF"/><path d="M961.6 611.6H588.7l28-30.5a26.2 26.2 0 00-38.4-35.5l-74 80.5a26.1 26.1 0 001.6 37l74 67.6a26.2 26.2 0 1035.3-38.7l-29.9-27.2h376.3v-53.2z" fill="#7CF"/><path d="M858 0h17.7a22.8 22.8 0 0122.8 22.8v256.9h-129V0H858z" fill="#E6F7FF"/><path d="M898.5 215.5H786v-53.3h112.6v53.3z" fill="#4AB4FF"/><path d="M713.8 248.8v65a14.6 14.6 0 0014.7 14.6h31v-79.6h-45.7zm146.8 79.6h23.3a14.6 14.6 0 0014.6-14.7v-65h-38v79.7z" fill="#007BFF"/><path d="M860.6 248.8H760v79.6h100.6v-79.6z" fill="#0039C6"/><path d="M760 248.8h-.5v79.6h.5v-79.6z" fill="#004DDD"/><path d="M881.2 8.8L720.8 7v294.5a7 7 0 007.1 7h146a7 7 0 007-7l.3-292.7z" fill="#A6DFFF"/><path d="M846.9 250.3h-95.7a3.7 3.7 0 100 7.4h95.6a3.7 3.7 0 100-7.4zm0 22.1h-95.7a3.7 3.7 0 100 7.3h95.6a3.7 3.7 0 100-7.3z" fill="#E6F7FF"/><path d="M870.9 0H729.3a14.6 14.6 0 00-14.6 14.6v285.1a14.6 14.6 0 0014.6 14.7H871a14.6 14.6 0 0014.6-14.7v-285A14.6 14.6 0 00871 0zm8.2 298.4a9.6 9.6 0 01-9.6 9.6H730.7a9.6 9.6 0 01-9.6-9.6V17.7a9.9 9.9 0 019.8-9.8h138.4a9.8 9.8 0 019.8 9.8v280.7z" fill="#004DDD"/><path d="M756 7h88v9.3a5 5 0 01-5 5h-78a5 5 0 01-5-5V7.1z" fill="#004DDD"/><path d="M806.2 147.7c0-13 29.8-8 39-45 7.4-30-1-33-1-33h-88.3s-9 3.2-1 33c10 37 39 32 39 45 0 17-28 8-39 45-8.8 29.6 1 33 1 33h88.3s8.5-3 1-33c-8.2-33-39-28-39-45z" fill="#E6F7FF"/><path d="M808.3 147.8c0-5.1-.7-10.3-2.3-15.2a52.8 52.8 0 00-6.5-12c-4.8-7-10.1-13.7-16-19.9-4.2-4.5-8.8-8.9-12-14.2-3.2-5.4-5-12-3.1-18-1.6.5-3.2 1.1-4.6 2-1 .7-2.7 1.6-3 2.9-.9 2.7-1.3 5.6-1.3 8.4 0 7 1.6 14 3.4 20.8 10 37 39 32 39 45 0 17-28 8-39 45.2-8.8 29.5 1 33 1 33h56.7c2 0 4.2-.3 6.2.1s4 .4 5.9 0l7.6-.7c-1-9.7-7.3-18-13.7-25.5-6.4-7.5-13.3-15-16.3-24.3-2.8-8.8-1.8-18.3-2-27.6z" fill="#E6F7FF"/><path d="M847.3 86.5h-95c-5.3 0-9.5-3.5-9.5-8V72c0-4.4 4.2-8 9.4-8h95.1c5.2 0 9.4 3.5 9.4 8v6.5c0 4.5-4.3 8-9.4 8zm0 145.3h-95c-5.3 0-9.5-3.5-9.5-8v-6.5c0-4.4 4.2-8 9.4-8h95.1c5.2 0 9.4 3.5 9.4 8v6.5c0 4.5-4.3 8-9.4 8z" fill="#007BFF"/><path d="M842.1 86.5c1.2 3.2-3.3 22.8-8.9 31.1-6 9.1-31.2 20.5-33.8 20.3-2.6-.3-23.4-11.4-31.8-21.1-7.5-8.6-9.9-30.3-9.9-30.3h84.4zM758 209.2c-1.2-3.1 3.2-22.8 8.8-31 6-9.1 31.2-20.5 33.9-20.3 2.6.3 23.3 11.4 31.8 21 7.5 8.6 9.8 30.3 9.8 30.3H758z" fill="#00DE77"/></g><defs><clipPath id="a"><path fill="#fff" d="M0 0h1054.6v969.8H0z"/></clipPath></defs></svg>