<svg width="278" height="238" viewBox="0 0 278 238" fill="none" xmlns="http://www.w3.org/2000/svg"><path d="M129.13 12.15a114.229 114.229 0 00-20.805 15.988c-22 21.326-38.086 48.688-62.618 67.043-19.982 14.951-39.392 24.817-44.338 51.268-11.513 61.571 51.84 97.13 105.131 78.361 26.249-9.245 48.062-30.05 75.473-34.867 14.355-2.523 29.134-.403 43.639-1.838 22.659-2.241 49.038-20.948 51.929-44.944 3.205-26.609-20.885-47.353-35.837-69.596-16.042-23.864-24.671-55.51-50.395-68.36-19.737-9.86-42.672-4.685-62.179 6.945z" fill="url(#paint0_linear)"/><path d="M223.533 49.323L59.209 59.407c-14.987.47-31.786 7.734-31.662 20.126l-.032 79.366c.12 15.61 12.67 25.457 29.711 27.839l120.465 11.621L223.927 238l10.381-61.741 6.663-39.623 9.457-56.24c2.519-14.979-11.908-31.542-26.895-31.073z" fill="#00AF60"/><path d="M221.911 49.066L53.269 54.35c-14.988.47-27.037 10.896-26.914 23.287l.793 79.302c.123 12.391 10.93 23.469 24.138 24.743l120.464 11.622 46.237 39.641 10.381-61.741 6.662-39.624 9.457-56.24c2.52-14.98-7.588-26.742-22.576-26.273z" fill="#00E881"/><path d="M86.76 181.114l-14.78 49.139s38.425 0 62.071-19.951c23.645-19.951-47.292-29.188-47.292-29.188z" fill="#99C9FA"/><path d="M112.73 98.608c4.151-1.239 6.66-5.089 10.42-6.997 3.705-1.88 5.733-4.448 5.373-9.056a10.974 10.974 0 00-5.165-8.388c-2.212-1.341-4.817-1.842-7.229-2.778a59.497 59.497 0 0010.286-4.079c.528-.268 1.072-.562 1.411-1.047.34-.485.401-1.219-.023-1.632-.463-.452-1.219-.323-1.847-.165l-18.561 4.705c-4.542 1.152-8.392 5.096-10.146 9.333-.793 1.914-1.172 3.97-1.803 5.944-1.975 6.167-6.313 11.248-10.547 16.148-.566.655 6.213 7.636 7.37 8.023 4.05 1.355 8.038-3.834 9.854-6.809.291-.477.572-.977 1.001-1.335a3.83 3.83 0 011.572-.695c2.632-.647 5.438-.397 8.034-1.172z" fill="#B99653"/><path d="M112.746 98.707c3.675-.696 7.852-5.801 10.403-7.096 3.705-1.88 5.733-4.448 5.373-9.056a10.974 10.974 0 00-5.165-8.388c-1.701-1.134-3.884-1.631-5.799-2.286a2.596 2.596 0 00-1.14-.206 2.564 2.564 0 00-1.025.453 85.176 85.176 0 00-8.588 6.253c-2.045 1.694-4.153 3.76-4.34 6.408-.123 1.732.616 3.404 1.434 4.936a41.474 41.474 0 005.212 7.593c.32.41.709.763 1.151 1.039a3.596 3.596 0 002.484.35z" fill="#A07735"/><path d="M132.076 63.231l-22.392 16.536c-.934.69-1.915 1.438-2.336 2.522-.732 1.884.478 3.917 1.635 5.575l5.075 7.273c1.326 1.9 2.932 3.975 5.235 4.232 1.537.172 3.023-.528 4.398-1.237a117.205 117.205 0 0021.142-13.983c.502-.417.634-1.585.022-1.356" fill="#fff"/><path d="M131.144 121.87c.468 5.038-1.738 10.038-4.951 13.951-8.227 10.023-19.287 14.507-31.889 15.881-10.354 1.129-19.637 1.388-28.975-3.226-2.301-1.138-3.857-1.982-5.172-4.188-2.457-4.119-2.323-8.181-1.232-12.562 1.193-4.784 3.588-10.61 6.158-14.778 5.573-9.039 12.282-16.42 21.675-21.675.73-.408-1.574.002-.739 0 1.18-.003 4.75 1.474 5.665 2.217 2.142 1.736.46 3.356 1.97 5.664.68 1.039 6.921-2.524 6.392-1.397-1.466 3.121.452 3.004.041 4.464-1.518 5.389-4.848 10.716-7.883 15.363 9.332-4.883 14.74-7.638 25.096-7.592 2.967.012 9.289-1.169 11.33.985 1.327 1.4 2.318 4.902 2.506 6.822l.008.071z" fill="#86BFF9"/><path d="M131.578 121.839c.353 4.864-2.838 10.879-5.385 13.982-8.227 10.023-19.287 14.507-31.889 15.881-10.354 1.129-19.637 1.388-28.975-3.227-2.301-1.137-3.857-1.981-5.172-4.187-2.457-4.119-2.323-8.182-1.232-12.562 1.193-4.784 3.588-10.61 6.158-14.778 4.906-7.957 11.284-15.703 19.53-20.337.648-.364 1.335-.72 2.078-.758 2.044-.108 3.373 2.053 4.232 3.91L75.06 124.844c-1.399 2.211-2.804 4.434-3.834 6.839-1.344 3.139-1.89 7.129.37 9.689 1.911 2.167 5.281 2.517 8.022 1.6 2.741-.916 5-2.857 7.168-4.769 9.463-8.346 18.965-17.191 30.756-21.681 2.18-.83 4.473-1.509 6.803-1.408 2.329.101 4.72 1.094 6.027 3.025a7.468 7.468 0 011.206 3.7z" fill="#7CBAF9"/><path d="M76.261 100.586c3.624 1.405 6.98 4.622 10.12 6.827l11.579 8.13c1.452-1.704 9.157-8.636 7.718-10.849-.484-.744-1.362-1.11-2.177-1.463a39.473 39.473 0 01-14.7-11.055c-1.04-1.262-2.055-2.891-1.507-4.432a35.313 35.313 0 00-11.643 12.624c.204.066.408.139.61.218z" fill="#98C9FA"/><path d="M167.028 119.311a14.007 14.007 0 002.881-3.796c.295-.573.455-1.421.234-2.044-.309-.872-1.287-1.09-2.234-1.359a62.863 62.863 0 00-27.363-1.566c-2.446.409-4.969.969-7.425.382-.724-.173-1.427-.444-2.161-.562-.734-.119-1.275-.47-2.42-.056-.529.192-.362 1.247-.495 1.762a4.213 4.213 0 00.521 3.348 4.12 4.12 0 003.071 1.834" fill="#4E97EE"/><path d="M136.87 89.845a46.488 46.488 0 01-14.575 30.332c-.561.521 2.56 2.104 2.289 2.82-.237.628-.196 1.324-.124 1.991a24.791 24.791 0 0010.4 17.491c8.002-.968 16.217-2 23.325-5.803 2.878-1.539 5.721-3.811 6.365-7.01.243-1.206 1.809-5.763 1.714-6.991-1.067-13.854-.541-16.816 6.265-42.617" fill="#B99653"/><path d="M136.868 89.846a46.491 46.491 0 01-14.574 30.332c-.562.521 2.559 2.104 2.289 2.82-.237.628-7.04 6.995-6.37 6.96 23.171-1.197 42.736-18.275 55.832-41.255l-14.1-12.684-23.077 13.827z" fill="#B18A40" opacity=".29"/><path d="M197.634 145.151c-2.289-5.155-7.032-8.802-11.958-11.551-4.927-2.748-16.817-12.561-21.425-15.815 0 0-13.926 7.048-19.447 6.548-2.967-.269-5.533-1.079-8.179-2.096 0 0-8.714 11.993-9.463 11.58 0 0 3.977-8.436 5.26-13.267.27-1.013-2.238-1.912-2.901-2.754-.57-.725-.301-4.041.604-4.223-7.837 1.579-8.369 1.58-15.288 5.84-7.524 4.632-12.648 16.347-16.01 24.138-5.748 13.324-9.39 28.052-13.576 41.407l86.499 8.345 7.409 6.353c5.769-8.423 12.042-16.713 15.883-26.244 3.27-8.114 6.31-19.883 2.592-28.261z" fill="#99C9FA"/><path d="M142.242 160.088c-5.107-1.014-10.044-3.656-13.253-8.553a265.115 265.115 0 00-13.015 38.04l8.426 5.314c2.067 1.304 4.159 2.619 6.461 3.229 2.494.661 5.141.472 7.754.234a2.03 2.03 0 001.115-.337c.298-.268.543-.589.723-.947a526.252 526.252 0 0010.091-18.024c3.123-5.842 6.203-10.529 7.761-17.461-1.558-.233-13.765-1.038-16.063-1.495z" fill="#A0CDFA"/><path d="M170.794 125.252l.017.024c1.758 2.47 14.671 12.549 17.632 17.359a18.434 18.434 0 011.794 4.052c1.886 5.883 1.811 12.281.469 18.312-1.342 6.03-6.256 16.255-9.269 21.649 2.38-.781 4.729.626 7.108-.155.52-.171 1.251-.029 1.651-.403.309-.29 2.696-7.714 2.891-8.09 2.809-5.403 3.972-10.693 5.144-16.569 1.066-5.34 1.565-11.1-.704-16.213-2.639-5.944-8.431-9.332-13.412-13.031-6.177-4.588-12.336-8.741-17.843-14.197 1.817 1.799 3.006 5.119 4.522 7.262z" fill="#BDDDFC"/><path d="M170.142 113.473s1.555 3.088 1.12 7.635c0 0-6.824 2.434-9.879 3.198-7.784 1.948-10.385 6.95-17.937 9.521 0 0-2.284-5.729-4.37-9.656l-3.008-1.698s.525-2.476 4.909-2.983c4.383-.507 13.644 2.83 29.165-6.017zm-37.698 7.059s1.061-1.852-.446-3.87c-1.506-2.019-3.182-5.118-2.692-6.573a6.056 6.056 0 00-4.949 4.202s.9 3.102.462 4.092c-.439.991-4.29 4.764-4.29 4.764s6.332 1.469 11.915-2.615z" fill="#CCE4FC"/><path d="M145.2 130.71a1.043 1.043 0 100-2.086 1.043 1.043 0 000 2.086zm-20.552-8.148a1.043 1.043 0 100-2.086 1.043 1.043 0 000 2.086z" fill="#77AFF2"/><path d="M136.369 106.624c-5.213.026-8.506-1.542-12.104-5.315-1.065-1.118-1.877-2.516-2.113-4.042-.193-1.245 0-2.514.194-3.759l2.261-14.572c.689-4.445 1.423-9.015 3.728-12.878.886-1.484 1.989-2.836 2.797-4.364 2.84-5.375 1.637-12.037 3.67-17.766 2.385-6.723 9.261-11.326 16.37-11.904 7.546-.613 13.316 2.659 18.743 7.307 5.323 4.56 11.689 6.54 14.985 13.334 2.612 5.382 2.272 11.838.275 17.478-1.997 5.64-11.864 9.185-15.521 13.921-5.003 6.478-7.339 11.286-16.084 18.616-1.96 1.643-4.155 5.053-6.75 5.162-5.106.215-6.122-1.24-10.451-1.218z" fill="#B99653"/><path d="M143.001 95.421a49.043 49.043 0 007.926-16.365c.972-3.598 1.45-7.72-.63-10.813-2.102-3.123-6.091-4.2-9.549-5.688a31.91 31.91 0 01-6.79-3.982c-.425-.325-.862-.69-1.03-1.199a2.795 2.795 0 01-.068-1.058l.4-6.395c8.047 2.626 16.898 1.706 24.999 4.16a31.309 31.309 0 0116.247 11.649c.789 1.103 1.522 2.301 1.72 3.642.155 1.045-.026 2.11-.265 3.138a28.133 28.133 0 01-2.778 7.244c-.135.28-.322.532-.553.742-.325.26-.755.342-1.163.433-3.873.868-6.444 9.46-9.07 14.187-1.927 3.47-6.583 6.583-10.639 9.362-1.679 1.15-3.272.627-5.055 1.607-1.246.685 1.098-3.81-.31-3.615-1.804.248-6.489.737-7.283-1.585-.612-1.787 2.883-4.106 3.891-5.464z" fill="#B18A40"/><path d="M186.326 83.316c2.54-1.587 4.896-3.427 6.885-5.738 2.21-2.567 3.915-5.588 4.707-8.895 1.593-6.66-1.219-14.56-7.418-17.47 1.19-3.091-.097-6.557-1.65-9.482-1.259-2.37-2.721-4.663-4.651-6.526-3.681-3.554-8.749-5.257-13.73-6.43-4.981-1.172-10.116-1.942-14.767-4.074-4.337-1.987-8.227-5.144-12.913-6.036-4.67-.889-9.712.746-13.076 4.105a15.745 15.745 0 00-4.17 7.708c-.545 2.453-.954 5.624-.879 8.134.084 2.81 1.058 5.667 3.062 7.638.551.542 1.197 1.049 1.449 1.78.167.483.139 1.008.187 1.518.22 2.3 1.982 4.145 3.841 5.518 4.606 3.4 14.669 5.584 20.25 6.858 6.671 1.524 8.292 7.99 5.555 16.322-.834 2.54 1.474 1.836 2.702 1.544 1.09-.258 1.52-1.44 2.383-2.155.893-.739 2.317-.456 3.162.337 3.405 3.191 2.56 6.21 1.591 9.876a72.782 72.782 0 00-2.283 17.309c15.211-10.398 16.468-19.784 19.763-21.841z" fill="#4F300E"/><path d="M126.162 41.84a8.954 8.954 0 01-2.167-2.64c-1.484-2.707-1.82-6.19-.906-9.375.978-3.408 3.236-6.27 5.431-9.011-.677-.805-1.96.074-2.675.961-2.421 3.007-4.265 6.63-4.88 10.461-.616 3.831.076 7.863 2.219 10.732 2.037 2.726 5.148 4.204 8.195 5.488.946.4 1.891.733 2.953.638-.006-3.532-1.821-3.823-4.513-5.087-1.355-.638-2.59-1.278-3.657-2.167zm33.653 46.154c.016-.051-3.779 11.255-6.248 14.686-2.299 3.195-2.805 4.596-7.796 6.299-3.726 1.271-20.337 2.197-26.412-7.44-1.713-2.717-1.89-5.751-1.209-8.89.682-3.14 4.371-6.431 5.775-9.32 3.004-.645 5.894-.087 10.528 2.104 1.88.888 4.898 3.445 6.534 4.727 2.135 1.674 4.559 3.585 6.62 3.316 3.562-.466 5.765-2.046 7.764-6.148 1.969-4.041 4.473-11.384 5.724-15.701 1.684.535 5.659 4.6 4.899 5.434-1.984 2.176-2.731 2.381-6.179 10.933z" fill="#4F300E"/><path d="M195.175 67.17a15.624 15.624 0 01-6.397 11.083c-1.456 1.038-3.124 1.849-4.251 3.237-.72.886-1.171 1.953-1.645 2.99-3.015 6.615-9.459 8.796-16.196 17.034.126-7.528 2.125-9.64 2.175-13.682.028-2.228-.137-4.484-.703-6.645-.241-.919.914-4.51-.155-4.427-.537.042-1.505-.263-2.902.92-2.451 2.077-4.053 5.323-5.384 8.247-1.474 3.236-3.418 8.652-4.771 11.94-.822 1.998-2.673 7.785-9.893 10.209-3.075 1.032-9.059.636-12.278.234-3.953-.494-9.333-2.924-11.666-6.153-1.994-2.76-3.26-5.672-2.122-9.072.544-1.623 2.366 2.48 8.3 4.618 6.502 2.342 13.153 8.411 20.291 3.049 1.129-.849 5.175-5.7 5.975-6.863 2.44-3.545 4.213-7.498 5.973-11.425 1.012-2.261 2.03-4.535 2.632-6.938 1.568-6.26.302-12.484-5.906-15.517-4.231-2.067-9.261-1.65-13.714-3.184a16.466 16.466 0 01-8.594-6.893c-.34-.554-.646-1.129-1.018-1.663-.526-.756-1.174-1.42-1.761-2.13a16.495 16.495 0 01-3.482-13.086c1.137-6.02 5.72-11.792 11.943-12.735.867-.132 1.788-.257 2.594.086.806.343 1.4 1.345.988 2.119-.253.473-.782.717-1.256.969-3.133 1.666-5.15 5.135-5.308 8.68-.158 3.544 1.45 7.072 4.052 9.485 4.907 4.55 12.267 4.87 18.506 7.29 5.461 2.118 10.141 5.927 14.011 10.324 1.903 2.162 3.91 4.644 6.759 5.066a5.634 5.634 0 005.108-1.998c1.697-2.106.668-3.856.879-6.11.151-1.616 1.234-3.054 2.956-2.56 4.786 1.37 6.65 9.404 6.26 13.5z" fill="#422509"/><path d="M163.274 81.525c1.621-2.456 2.286-4.81 4.313-5.742 3.31-1.521 7.296 1.057 7.176 5.456-.122 4.473-3.921 8.624-5.328 9.767-1.407 1.142-3.953 1.644-5.755 1.446-2.129-.233-2.597-1.701-2.752-3.63" fill="#B18A40"/><path d="M127.163 133.816s-11.956 13.305-19.346 33.995c-7.389 20.69-16.627 60.592-16.627 60.592l4.434-.739s6.651-37.316 15.148-58.006c8.498-20.69 17.736-31.404 19.952-33.621 2.216-2.217 8.353-11.867 8.353-11.867l1.9-4.682s-2.967.654-13.814 14.328z" fill="#A2CEFA"/><path d="M176.907 145.373c-4.068 3.322-7.33 7.953-10.182 12.449-1.915 3.018-19.891 30.441-21.548 29.488-12.228-8.86-18.976-24.391-34.157-27.627-7.513-1.601-12.414 7.555-12.809 8.128-1.344 1.952-2.635 5.518-1.354 7.513 4.812 7.497 31.886 42.402 38.031 44.589 2.56.91 5.222 1.733 7.936 1.61 2.232-.102 4.38-.839 6.488-1.578 11.752-4.118 22.804-11.886 31.044-21.222 8.701-9.857 15.41-19.848 18.719-32.267 1.528-5.733.779-12.773-1.131-18.391-.877-2.577-2.501-5.006-4.902-6.289-2.356-1.257-5.21-1.281-7.809-.67-3.127.736-5.873 2.263-8.326 4.267z" fill="#B0D6FB"/><path d="M186.456 141.555c3.612 1.755 5.805 5.692 6.337 9.673s-.375 8.016-1.615 11.836c-4.45 13.708-13.208 25.738-23.696 35.622-5.356 5.049-11.583 9.769-18.882 10.718-6.973.905-14.03-1.829-19.68-6.015s-10.115-9.738-14.48-15.251c-5.721-7.225-11.548-14.825-13.528-23.826-2.098 2.662-6.524 7.165-4.054 11.013 4.814 7.499 31.887 42.402 38.031 44.589 2.56.911 5.222 1.733 7.936 1.61 2.232-.102 4.38-.839 6.489-1.578 11.751-4.118 22.803-11.886 31.043-21.222 8.701-9.857 15.411-19.848 18.72-32.267 1.527-5.733.779-12.773-1.132-18.391-.877-2.577-2.501-5.006-4.902-6.289-2.009-1.071-4.469-.984-6.587-.222z" fill="#A6D0FB"/><path d="M94.442 164.636l.76.049a28.317 28.317 0 00-9.324-7.26c-2.231-1.079-4.593-1.859-6.947-2.636l-9.973-3.291c-1.88-.62-3.765-1.242-5.705-1.639-1.888-.386-3.864-.572-5.564-1.479-1.311-.701-2.369-1.788-3.358-2.898a56.366 56.366 0 01-6.158-8.493c-1.473-2.444-3.52-5.049-4.022-7.869a69.262 69.262 0 01-1.022-9.484c-.039-1.02-.034-2.117.547-2.957.581-.839 1.963-1.18 2.615-.395.043-1.07 1.381-1.723 2.4-1.394 1.02.329 1.694 1.309 2.073 2.311.38 1.001.544 2.077.97 3.059.108.25.4 1.236.383 1.508-.004.076.412-.546.978-.59 1.809-.143 2.791 2.177 3.743 3.723a26.701 26.701 0 0014.435 11.32c6.143 1.974 13.095 1.746 18.525 5.232a22.55 22.55 0 014.271 3.716 41.556 41.556 0 017.47 11.304c.134.302-.048.861-.29.636" fill="#B99653"/><path d="M69.659 136.273a10.03 10.03 0 004.483-.305c.718-.219 1.464-.565 1.816-1.228.482-.909.044-2.023-.468-2.915a18.593 18.593 0 00-3.56-4.45c-1.051-.964-2.228-1.822-3.042-2.994a6.414 6.414 0 01-1.116-4.15c.111-1.352.86-2.826 2.19-3.089.923-.183 1.87.28 2.55.93.681.649 1.163 1.472 1.723 2.227 4.092 5.505 12.11 7.094 15.885 12.821 2.639 4.004 2.606 9.123 3.618 13.811l-.752-.277" fill="#B99653"/><path d="M50.59 116.5c.447.863.771 1.785.963 2.738a95.944 95.944 0 005.574 17.401 30.415 30.415 0 01-4.613-2.019c-.893-5.529-1.96-11.028-3.066-16.519-.418-2.076-.982-3.155-.982-3.155.012-.208 1.447.295 2.124 1.554zm4.854 6.184a37.8 37.8 0 002.77 3.962c5.368 6.318 10.362 9.916 14.42 10.686-1.589-.545-1.136 1.329-2.614.53-4.76.178-10.392-5.51-14.513-13.655a9.465 9.465 0 00-2.394-2.986c.013-.208 1.655.203 2.331 1.463zm-7.972-5.244c.448.864.772 1.786.964 2.739 1.299 5.96 1.467 11.535 3.872 17.141a30.52 30.52 0 01-4.612-2.019c-.894-5.529-.258-10.769-1.365-16.259-.418-2.076-.982-3.155-.982-3.155.012-.209 1.447.294 2.123 1.553z" fill="#A07735"/><path d="M52.325 138.962c3.478 1.493 6.476 3.222 10.311 3.793 4.416.658 11.937.806 14.614-3.618.868-1.433.848-3.497-.399-4.617a.403.403 0 00-.192-.113c-.21-.036-.336.215-.423.409-.402.892-1.376 1.366-2.302 1.683-6.555 2.239-12.853-.754-18.736-3.494-6.531-3.042-12.187-8.141-19.22-9.703-1.244-.277-2.578-.429-3.765.035-.534.209-1.053.583-1.214 1.134-.282.966.62 1.839 1.435 2.431 4.825 3.509 9.978 6.539 15.133 9.542a44.08 44.08 0 004.758 2.518z" fill="#B99653"/><path d="M85.422 161.442c1.426 3.349 2.568 7.477 8.85 12.404 2.437 1.911 19.351-12.876 19.118-13.363a37.361 37.361 0 00-4.686-7.394c-1.134-1.395-3.718-3.012-5.446-3.911-.077-.04-2.384 4.398-3.568 5.455-3.745 3.346-9.47 5.32-14.268 6.809z" fill="#CCE4FC"/><defs><linearGradient id="paint0_linear" x1="69.947" y1="220.183" x2="177.602" y2="102.848" gradientUnits="userSpaceOnUse"><stop stop-color="#D7F0FA"/><stop offset=".382" stop-color="#DDF2FB"/><stop offset=".911" stop-color="#EFF9FD"/><stop offset="1" stop-color="#F3FAFD"/></linearGradient></defs></svg>