<svg width="839" height="577" viewBox="0 0 839 577" fill="none" xmlns="http://www.w3.org/2000/svg"><g clip-path="url(#clip0)"><path d="M357.192 518.994c109.427 91.126 421.153 94.43 478.132-132.337 13.138-52.288-6.953-117.912-47.617-155.143-40.993-37.533-94.569-53.454-148.676-60.693-78.269-10.47-201.443-3.408-275.2-34.981C281.424 100.56 198.7 35.217 113.5 84.379c-62.082 35.822-102.622 108.5-42 188 37.946 49.764 109.638 72.566 139.252 97.6 51.3 43.368 84.106 97.094 146.445 149.009" fill="url(#paint0_linear)"/><path d="M357.192 518.994c109.427 91.126 421.153 94.43 478.132-132.337 13.138-52.288-6.953-117.912-47.617-155.143-40.993-37.533-94.569-53.454-148.676-60.693-78.269-10.47-201.443-3.408-275.2-34.981C281.424 100.56 198.7 35.217 113.5 84.379c-62.082 35.822-102.622 108.5-42 188 37.946 49.764 109.638 72.566 139.252 97.6 51.3 43.368 84.106 97.094 146.445 149.009" fill="#E9F7FF"/><path d="M341.859 262.749a112.346 112.346 0 01-44.4-68.641c-.528-2.644-.984-5.37-2.352-7.692-2.782-4.716-8.568-6.628-13.93-7.729-16.563-3.4-34.1-2.742-49.754-9.14a12.603 12.603 0 00-4.513-1.281 3.774 3.774 0 00-3.741 2.314 4.644 4.644 0 00-.035 2.055c1.212 7.851 7.811 13.525 13 19.541 4.116 4.774 7.557 10.159 12.187 14.437 5.385 4.978 12.105 8.213 18.668 11.484a681.198 681.198 0 0156.978 31.9c1.252.782 2.672 1.913 2.451 3.373l15.442 9.376" fill="#BA9857"/><path d="M259.413 179.39l-4.713 15.679c2.206 5.3 7.585 8.65 13.059 10.393 5.474 1.743 11.272 2.23 16.806 3.775.26.078.529.123.8.131a.88.88 0 00.751-.318c.157-.279.21-.605.15-.919-.46-6.082-1.565-12.394-5.229-17.271-5-6.647-13.6-9.253-21.618-11.47" fill="#A78041"/><path d="M308.931 281.47c-3.35-3.744-4.529-11.544-3.025-16.337 2.886-9.2 9.09-30.068 10.858-33.733a4.84 4.84 0 012.1-2.409c1.854-.877 3.991.336 5.587 1.625 11.074 8.941 14.687 17.211 15.33 31.43.177 3.889-18.681 33.027-30.85 19.424z" fill="#47A1FF"/><path d="M118.561 30.649c14.13 58.87 21.024 136.2 22.9 172.427a21.338 21.338 0 0010.169 17.094c21.394 13.145 71.265 44.62 92.923 62.921a17.732 17.732 0 004.937 2.22c-5.989 3.266-13.411 5.32-19.333 1.524-21.664-18.3-71.529-49.77-92.924-62.916a21.355 21.355 0 01-10.145-17.092C125.226 170.6 123.121 98.4 108.99 39.533c-.536-5.64 4.143-11.949 9.76-17.247a31.694 31.694 0 00-.189 8.363z" fill="#007CFF"/><path d="M131.171 12.779c2.967-1.82 4.895-1.508 4.895-1.508s89.842 62.707 96.2 66.481c8.854 39.049 27.517 157.851 28.517 198.594a40.358 40.358 0 01-7.678 6.749 42.699 42.699 0 01-3.62 2.216 17.732 17.732 0 01-4.937-2.22c-21.659-18.3-71.53-49.776-92.924-62.921a21.33 21.33 0 01-10.169-17.094c-1.873-36.226-8.767-113.557-22.9-172.427a31.651 31.651 0 01.19-8.363 80.037 80.037 0 0112.426-9.507z" fill="#007CFF"/><path d="M262.662 271.548a9.78 9.78 0 01-15.562 6.812c-27.6-20.478-73.695-50.218-92.554-62.09a17.828 17.828 0 01-8.323-14.674c-.381-16.028-1.037-33.886-1.079-35.03l-.017-.39c-2.242-32.69-5.794-84.032-18.282-143.091a9.77 9.77 0 018.636-11.759 9.773 9.773 0 015.324 1.004C176.592 30.367 231.73 60.14 247.3 68.767a9.814 9.814 0 014.822 6.494 609.385 609.385 0 0113.852 115.491 613.962 613.962 0 01-3.312 80.796z" fill="#1A8CFF"/><path d="M163.578 123.146l-1.5-.627a530.592 530.592 0 011.723 24.382c.491.212.983.42 1.472.633a532.61 532.61 0 00-1.695-24.388zm2.122 51.419l-1.425-.642c-.122 7.908-.494 15.669-1.147 23.186.462.211.925.42 1.386.632.663-7.517 1.047-15.274 1.186-23.176zm-9.393-104.54c-.516-.19-1.038-.376-1.556-.565a621.646 621.646 0 014.05 25.055c.509.2 1.019.4 1.526.595a620.64 620.64 0 00-4.02-25.085zm-1.978-10.402a520.882 520.882 0 00-3.59-16.548c-.531-.18-1.068-.358-1.6-.537 1.84 7.776 3.636 16.275 5.311 25.287.517.188 1.042.371 1.557.56a625.005 625.005 0 00-1.678-8.762zm-3.981-18.198c-2.012-8.438-4.073-16.019-6.086-22.464a199.353 199.353 0 00-1.923-5.856l-1.534-.774c-.1-.053-.208-.1-.312-.144a291.074 291.074 0 018.252 28.713c.532.175 1.074.346 1.603.525zm12.645 157.2c-.677 7.331-1.629 14.415-2.889 21.16l1.305.83c1.293-6.81 2.272-13.958 2.968-21.352l-1.384-.638zM160.555 96.74c-.507-.2-1.021-.4-1.53-.6a592.974 592.974 0 012.9 24.757c.5.207 1 .418 1.5.626a598.292 598.292 0 00-2.87-24.783zm5.202 71.099c0-6.185-.153-12.441-.419-18.716-.484-.211-.973-.417-1.458-.627.284 6.488.441 12.953.441 19.343 0 1.512-.01 3.019-.029 4.522.476.213.953.423 1.428.636.022-1.714.034-3.433.037-5.158zm11.21-89.626c-.525-.222-1.046-.447-1.573-.668a642.677 642.677 0 014.074 25.552c.512.226 1.031.448 1.541.675a643.244 643.244 0 00-4.042-25.559zm-6.008-29.288c-1.627-6.941-3.271-13.251-4.868-18.762a243.248 243.248 0 00-1.742-5.75l-1.811-.942c2.17 6.671 4.5 15.1 6.8 24.834.538.208 1.086.411 1.621.62zm10.278 56.52c-.508-.227-1.023-.451-1.534-.677 1.12 8.208 2.1 16.64 2.908 25.168l1.5.7a606.147 606.147 0 00-2.874-25.191zm-4.57-28.923a637.91 637.91 0 00-1.162-6.219 552.24 552.24 0 00-4.149-19.671c-.54-.213-1.079-.426-1.622-.638 1.838 7.893 3.652 16.6 5.353 25.872.526.219 1.057.434 1.58.656zm8.212 107.058c-.146 7.952-.544 15.757-1.233 23.313.462.23.919.464 1.38.694.7-7.557 1.112-15.359 1.273-23.3-.474-.238-.945-.473-1.42-.707zm-1.379 24.849a221.427 221.427 0 01-3.593 24.091l1.293.84a220.55 220.55 0 003.674-24.241c-.456-.23-.911-.461-1.374-.69zm.767-76.142c-.5-.233-1-.465-1.5-.7a530.268 530.268 0 011.7 24.686c.49.234.982.465 1.47.7a532.075 532.075 0 00-1.67-24.686zm2.115 44.126c0-5.89-.14-11.841-.38-17.809-.486-.234-.97-.469-1.458-.7.26 6.2.4 12.392.4 18.512 0 1.867-.014 3.726-.041 5.578.478.233.949.471 1.426.706.035-2.088.052-4.184.053-6.287zm18.685-33.878l-1.508-.78a534.74 534.74 0 011.627 24.908c.49.258.975.518 1.463.777-.328-8.31-.868-16.64-1.582-24.905zm-2.967-27.172c-.515-.26-1.026-.52-1.544-.778a630.31 630.31 0 012.855 25.481c.5.257 1.007.51 1.5.767a615.722 615.722 0 00-2.811-25.47zm-11.791-58.332c.553.247 1.094.5 1.644.748a435.236 435.236 0 00-4.025-16.426 305.62 305.62 0 00-1.481-5.342l-1.766-.934a297.437 297.437 0 011.86 6.647 428.391 428.391 0 013.768 15.307zm7.275 28.904c-.3-1.672-.592-3.335-.893-4.969a591.912 591.912 0 00-4.343-21.431c-.546-.248-1.089-.5-1.639-.744 1.8 8.006 3.591 16.888 5.281 26.379.535.253 1.062.51 1.594.765zm7.887 108.211c-.189 7.962-.637 15.774-1.381 23.333.458.246.913.494 1.369.741.76-7.557 1.224-15.36 1.429-23.314-.471-.254-.945-.506-1.417-.76zm1.241-25.046c-.486-.259-.973-.518-1.46-.775.21 5.572.327 11.129.327 16.635 0 2.537-.025 5.061-.075 7.573.474.253.947.507 1.419.761.06-2.763.091-5.541.092-8.334 0-5.25-.115-10.547-.303-15.86zm-2.778 49.927a209.895 209.895 0 01-4.349 26.413l1.274.845a208.67 208.67 0 004.444-26.516l-1.369-.742zm-2.06-105.388a673.065 673.065 0 00-3.985-25.965l-1.588-.762a672.51 672.51 0 014.021 25.946c.522.259 1.033.521 1.552.781zm9.805-46.365c.548.28 1.107.558 1.651.839a532.288 532.288 0 00-3.556-15.584c-.4-1.65-.8-3.226-1.193-4.74l-1.723-.922c.495 1.89 1.002 3.89 1.521 6a527.981 527.981 0 013.3 14.407zm14.348 138.432c-.254 7.934-.771 15.713-1.594 23.228.452.267.906.533 1.355.8.84-7.508 1.377-15.27 1.649-23.189-.469-.281-.939-.56-1.41-.839zm-4.664-81.768c.515.287 1.042.573 1.554.86a708.07 708.07 0 00-3.85-26.261c-.535-.292-1.059-.586-1.6-.878a705.038 705.038 0 013.896 26.279zm4.857 69.549c0 3.55-.048 7.077-.144 10.581.472.278.94.556 1.41.835.112-3.777.169-7.582.17-11.416 0-4.233-.064-8.488-.193-12.764-.489-.289-.972-.578-1.464-.866.142 4.562.216 9.105.221 13.63zm-7.452-96.754a675.606 675.606 0 00-5.053-26.796l-1.649-.855a682.38 682.38 0 015.1 26.788c.534.288 1.07.575 1.602.863zm7.177 81.432c.487.284.978.567 1.461.851a528.9 528.9 0 00-1.429-25c-.5-.291-1.01-.58-1.514-.869a529.287 529.287 0 011.482 25.018zm-1.63-26.758c.506.289 1.01.578 1.513.869a634.391 634.391 0 00-2.684-25.694c-.518-.292-1.034-.585-1.555-.876a639.28 639.28 0 012.726 25.701zm-.06 79.093a196.093 196.093 0 01-5.172 28.062l1.257.859a195.121 195.121 0 005.27-28.118l-1.355-.803zm22.616-28.518c0 4.994-.096 9.942-.287 14.845l1.4.924a378.444 378.444 0 00.233-24.061c-.485-.322-.967-.644-1.457-.967.065 3.095.111 6.185.111 9.259zm-2.256 39.482c.449.3.892.59 1.337.884.951-7.407 1.587-15.079 1.955-22.919-.462-.309-.924-.618-1.391-.927-.348 7.858-.969 15.546-1.901 22.962zm2.105-50.478c.484.317.978.633 1.457.95-.192-8.326-.609-16.7-1.207-25.012-.5-.325-1.008-.65-1.511-.976a518.321 518.321 0 011.261 25.038zm-2.307 52.067A181.145 181.145 0 01238.355 272l1.228.881a180.195 180.195 0 006.162-28.943c-.442-.297-.886-.592-1.332-.885zm.915-78.898c.506.325 1.01.65 1.511.975a640.967 640.967 0 00-2.478-25.814c-.521-.332-1.034-.664-1.559-1a637.11 637.11 0 012.526 25.839zm-2.747-27.665c.521.328 1.05.655 1.567.983a739.975 739.975 0 00-3.644-26.482c-.538-.333-1.067-.666-1.609-1a747.055 747.055 0 013.686 26.499zm-4.9-34.013c.311 1.862.62 3.749.925 5.66.538.328 1.073.656 1.606.983a762.426 762.426 0 00-4.765-27.079c-.553-.329-1.1-.658-1.656-.986a776.541 776.541 0 013.89 21.422zm-2.606-22.328a666.302 666.302 0 00-4.347-20.434l-1.686-.914a653.793 653.793 0 014.379 20.383c.55.322 1.108.643 1.654.965zm-26.868 139.559c-.909-.5-1.833-.992-2.748-1.488-.052.516-.1 1.035-.156 1.549.736.4 1.481.8 2.213 1.2a593.483 593.483 0 0116.739 9.529c.06-.52.121-1.039.178-1.562a604.075 604.075 0 00-16.226-9.228z" fill="#47A1FF"/><path d="M225.788 229.733c-.058.523-.116 1.046-.178 1.566 6.559 3.9 12.85 7.833 18.8 11.754.07-.528.136-1.059.2-1.589a488.627 488.627 0 00-18.822-11.731zm-40.762-22.146c-.047.512-.1 1.022-.149 1.532a685.794 685.794 0 0119.057 9.908c.053-.514.1-1.031.156-1.548a687.682 687.682 0 00-19.064-9.892zm60.719 36.347c6.554 4.353 12.682 8.69 18.29 12.966.047-.567.095-1.133.14-1.7-5.605-4.245-11.711-8.543-18.223-12.852-.068.53-.135 1.06-.207 1.586zm-82.619-46.825a717.172 717.172 0 00-17.223-7.615l.046 1.583a724.524 724.524 0 0117.044 7.548c.046-.504.089-1.01.133-1.516zm1.386.632c-.045.507-.088 1.016-.135 1.522a720.113 720.113 0 0119.126 9.166c.049-.511.097-1.023.143-1.536a726.86 726.86 0 00-19.134-9.152z" fill="#47A1FF"/><path d="M163.126 197.109c-.044.506-.087 1.012-.133 1.516l1.384.638c.047-.506.09-1.015.135-1.522-.461-.212-.924-.421-1.386-.632zm20.52 9.784c-.046.513-.094 1.025-.143 1.536.46.229.915.46 1.374.69l.149-1.532c-.461-.23-.918-.464-1.38-.694zm20.444 10.586c-.051.517-.1 1.034-.156 1.548l1.369.742c.054-.514.1-1.033.156-1.549-.459-.247-.911-.495-1.369-.741zm20.343 11.455c-.057.523-.118 1.042-.178 1.562l1.355.8c.062-.52.12-1.043.178-1.566l-1.355-.796zm20.182 12.53c-.066.53-.132 1.061-.2 1.589.447.294.891.588 1.332.881.072-.526.139-1.056.207-1.586-.447-.294-.89-.589-1.339-.884zm-35.537-47.013c-.712-.387-1.438-.77-2.155-1.155-.011.537-.021 1.074-.035 1.61.5.27 1.007.537 1.5.807a564.459 564.459 0 0117.635 9.993c.018-.545.034-1.091.049-1.638a569.98 569.98 0 00-16.994-9.617zm18.359 12.093a472.542 472.542 0 0119.079 11.958c.025-.557.046-1.116.068-1.675a476.194 476.194 0 00-19.1-11.924c-.014.547-.028 1.097-.047 1.641zm-63.145-34.183a650.924 650.924 0 00-19.3-8.242l.11 1.593a631.518 631.518 0 0119.174 8.211l.016-1.562zm20.613 9.63A651 651 0 00165.72 173c-.007.523-.013 1.046-.022 1.568a648.339 648.339 0 0119.181 9.015c.01-.531.019-1.061.026-1.592zm1.426.709c-.009.529-.021 1.057-.032 1.586a623.19 623.19 0 0119.172 9.863c.013-.536.023-1.074.033-1.611a621.652 621.652 0 00-19.173-9.838zm61.576 36.729c6.328 4.225 12.257 8.437 17.7 12.588.025-.583.049-1.166.071-1.749-5.461-4.134-11.383-8.32-17.7-12.517-.019.561-.045 1.119-.071 1.678z" fill="#47A1FF"/><path d="M165.72 173c-.475-.213-.952-.423-1.428-.636-.006.521-.011 1.043-.019 1.562.476.213.951.427 1.425.642.009-.525.015-1.048.022-1.568zm19.185 8.991l-.026 1.589c.475.234.946.469 1.42.7.011-.529.023-1.057.032-1.586-.477-.232-.948-.47-1.426-.703zm20.595 10.544c-.01.537-.02 1.075-.033 1.611.472.254.946.506 1.417.76.014-.536.024-1.073.035-1.61a155.9 155.9 0 00-1.419-.761zm20.576 11.533c-.015.547-.032 1.093-.049 1.638.472.279.942.559 1.41.838.019-.546.033-1.094.049-1.641-.47-.279-.938-.557-1.41-.835zm20.44 14.432c.467.309.929.618 1.391.927.026-.559.052-1.117.076-1.678-.464-.308-.932-.616-1.4-.924-.021.561-.042 1.12-.067 1.675zm-19.053-37.777c6.747 3.98 13.2 7.993 19.3 12l-.039-1.737c-6.114-4-12.552-7.99-19.314-11.97.015.569.037 1.138.053 1.707zM206.712 169.1a544.29 544.29 0 0119.287 10.755c-.018-.564-.034-1.128-.054-1.692a538.047 538.047 0 00-19.3-10.725c.025.555.047 1.109.067 1.662zm-1.526-2.437a597.386 597.386 0 00-19.248-9.688c.024.544.042 1.086.064 1.629a575.925 575.925 0 0119.25 9.723c-.021-.555-.043-1.109-.066-1.664zm-20.718-10.387a602.14 602.14 0 00-19.193-8.742c.024.53.041 1.059.063 1.589a590.997 590.997 0 0119.206 8.778c-.022-.541-.051-1.083-.076-1.625zm63.748 37.414c6.395 4.242 12.394 8.473 17.927 12.647v-1.8a367.889 367.889 0 00-17.966-12.6c.014.584.028 1.169.039 1.753zM163.8 146.9a598.37 598.37 0 00-20.71-8.463l.127 1.587a577.843 577.843 0 0120.66 8.471c-.02-.53-.049-1.062-.077-1.595z" fill="#47A1FF"/><path d="M165.275 147.534c-.489-.213-.981-.421-1.472-.633.025.532.054 1.064.077 1.595.485.21.974.416 1.458.627-.022-.53-.038-1.059-.063-1.589zm20.663 9.441c-.488-.234-.98-.465-1.47-.7.025.542.054 1.084.076 1.625.488.234.972.469 1.458.7-.022-.539-.04-1.081-.064-1.625zm19.248 9.688c.023.555.045 1.109.066 1.664.488.257.975.516 1.46.775l-.063-1.662c-.488-.259-.973-.519-1.463-.777zM226 179.857c.492.288.975.577 1.464.866-.016-.569-.038-1.138-.057-1.707-.483-.284-.974-.567-1.461-.851l.054 1.692zm20.759 12.866c.49.323.972.645 1.457.967-.011-.584-.025-1.169-.039-1.754-.479-.317-.973-.633-1.457-.95l.039 1.737zm-20.782-38.704a461.43 461.43 0 0119.482 11.929c-.044-.6-.085-1.2-.131-1.793a477.996 477.996 0 00-19.5-11.879c.049.582.102 1.161.149 1.743zm-43.366-24.083a556.573 556.573 0 00-19.184-8.41c.051.54.102 1.08.151 1.62a541.704 541.704 0 0119.186 8.444l-.153-1.654zm-20.684-9.036a541.175 541.175 0 00-21.215-8.234l.164 1.588a522.879 522.879 0 0121.2 8.265c-.047-.54-.097-1.08-.149-1.619zm85.043 46.024c6.631 4.329 12.861 8.654 18.635 12.924-.026-.61-.05-1.221-.077-1.831-5.8-4.263-12.03-8.558-18.689-12.887.045.598.089 1.196.131 1.794zm-41.903-24.389a509.009 509.009 0 0119.4 10.615c-.048-.582-.1-1.162-.148-1.743a539.428 539.428 0 00-19.4-10.574l.148 1.702zm-1.655-2.469a550.46 550.46 0 00-19.3-9.433c.051.551.102 1.102.151 1.654a542.04 542.04 0 0119.292 9.468c-.045-.563-.092-1.127-.143-1.689z" fill="#47A1FF"/><path d="M163.427 121.526c-.5-.208-1-.419-1.5-.626.052.539.103 1.078.153 1.619l1.5.627c-.053-.54-.104-1.08-.153-1.62zm20.689 9.107l-1.5-.7c.052.55.103 1.101.153 1.654.5.232 1 .464 1.5.7l-.153-1.654zm20.799 10.2c-.5-.257-1-.51-1.5-.767.051.562.1 1.126.147 1.689l1.508.78-.155-1.702zm19.548 12.317c.5.289 1.013.578 1.514.869-.047-.582-.1-1.161-.149-1.743-.502-.29-1.006-.58-1.513-.869.049.581.1 1.161.148 1.743zm20.996 12.798c.5.326 1.013.651 1.511.976l-.131-1.794c-.501-.325-1.004-.65-1.511-.975.046.597.087 1.195.131 1.793zm-1.098-26.632c6.916 4.408 13.413 8.808 19.49 13.2-.055-.631-.113-1.262-.17-1.892-6.093-4.359-12.604-8.741-19.533-13.147.073.607.141 1.223.213 1.839zm-21.217-12.734a463.725 463.725 0 0119.658 11.739c-.072-.613-.148-1.22-.221-1.831a487.496 487.496 0 00-19.664-11.692c.075.595.153 1.187.227 1.784zM158.8 94.515a514.754 514.754 0 00-21.125-7.7c.07.531.137 1.059.206 1.587a494.86 494.86 0 0121.143 7.738c-.074-.54-.147-1.084-.224-1.625zm20.668 8.585a520.36 520.36 0 00-19.141-7.987c.076.544.154 1.084.228 1.63a498.645 498.645 0 0119.148 8.028c-.076-.564-.157-1.116-.235-1.671zm22.632 12.263a494.926 494.926 0 0119.488 10.343l-.226-1.768a509.724 509.724 0 00-19.489-10.3c.078.575.154 1.15.227 1.725zm-1.778-2.505a516.435 516.435 0 00-19.313-9.086c.077.557.153 1.114.228 1.673a494.013 494.013 0 0119.32 9.14c-.077-.579-.157-1.151-.235-1.727z" fill="#47A1FF"/><path d="M160.327 95.11c-.507-.2-1.017-.4-1.526-.595.076.541.149 1.086.224 1.628.509.2 1.023.4 1.53.6-.074-.549-.155-1.089-.228-1.633zm20.682 8.662c-.51-.227-1.029-.449-1.541-.675.078.558.159 1.11.235 1.671.511.226 1.026.45 1.534.677l-.228-1.673zm20.865 9.867c-.519-.26-1.03-.522-1.552-.781.078.576.158 1.148.235 1.727.518.258 1.029.518 1.544.778-.075-.575-.15-1.15-.227-1.724zm19.715 12.067c.521.291 1.037.584 1.555.876-.074-.6-.152-1.189-.227-1.784-.512-.287-1.039-.573-1.554-.86l.226 1.768zm21.211 12.615c.525.331 1.038.663 1.559 1-.072-.614-.14-1.232-.213-1.843-.517-.328-1.046-.655-1.567-.983.075.605.151 1.213.221 1.826zm-2.3-27.33a438.635 438.635 0 0120.231 13.273c-.087-.644-.179-1.288-.267-1.932a441.796 441.796 0 00-20.256-13.212c.102.62.199 1.246.292 1.871zm-86.052-43.166a487.96 487.96 0 00-20.567-6.952c.086.529.167 1.052.251 1.58a468.749 468.749 0 0120.619 7.007c-.1-.549-.202-1.091-.303-1.635zm64.619 30.712a451.344 451.344 0 0119.828 11.456c-.1-.616-.192-1.244-.289-1.856a473.102 473.102 0 00-19.838-11.4c.1.594.2 1.198.299 1.8zM196.3 86.912c-.1-.586-.208-1.161-.311-1.742a489.823 489.823 0 00-19.323-8.648c.1.557.2 1.13.3 1.691a464.082 464.082 0 0119.334 8.699zm-21.213-11.046a490.789 490.789 0 00-19.082-7.481l.3 1.64a469.333 469.333 0 0119.087 7.52c-.101-.563-.202-1.123-.305-1.679zm42.382 21.793c-.1-.6-.2-1.192-.305-1.789a478.106 478.106 0 00-19.58-9.935l.305 1.739a470.086 470.086 0 0119.58 9.985z" fill="#47A1FF"/><path d="M156.005 68.385c-.515-.189-1.04-.372-1.557-.56l.3 1.635c.518.189 1.04.375 1.556.565-.097-.55-.198-1.094-.299-1.64zm20.662 8.137c-.523-.22-1.054-.437-1.58-.656l.307 1.679c.527.221 1.048.446 1.573.668-.101-.561-.199-1.134-.3-1.691zm21.222 11.152c-.101-.582-.202-1.162-.305-1.739-.532-.255-1.059-.512-1.594-.765.1.581.208 1.156.311 1.742l1.588.762zm21.178 10.863l-.3-1.8c-.532-.288-1.069-.575-1.6-.863.1.6.2 1.187.305 1.789.536.288 1.06.582 1.595.874zm19.833 11.456c.542.332 1.071.665 1.609 1-.1-.625-.194-1.251-.292-1.871-.533-.328-1.069-.656-1.606-.983.089.61.189 1.238.289 1.854zm-5.109-28.934a628.87 628.87 0 00-.37-1.875 463.536 463.536 0 00-20.091-11.071c.128.6.256 1.212.385 1.824a429.308 429.308 0 0120.076 11.122zm-43.082-22.268c-.133-.595-.267-1.174-.4-1.76a461.34 461.34 0 00-19.35-8.106c.133.565.267 1.134.4 1.707a436.53 436.53 0 0119.35 8.159zm21.357 10.291c-.129-.611-.258-1.208-.387-1.808a457.104 457.104 0 00-19.726-9.5c.132.582.263 1.165.4 1.756a444.69 444.69 0 0119.713 9.552zm-42.332-19.088c-.133-.567-.267-1.13-.4-1.689a470.013 470.013 0 00-18.99-6.88c.131.547.261 1.1.391 1.65a443.63 443.63 0 0118.999 6.919zM148.745 40.9a484.706 484.706 0 00-19.5-6.033c.1.531.2 1.058.306 1.587a456.28 456.28 0 0119.59 6.086 556.35 556.35 0 01-.396-1.64zm86.702 41.145A430.557 430.557 0 01256.1 95.097c-.121-.659-.246-1.317-.369-1.975a475.73 475.73 0 00-20.656-12.973l.372 1.896z" fill="#47A1FF"/><path d="M150.348 41.425c-.529-.179-1.071-.35-1.6-.527.133.543.264 1.09.392 1.64.534.179 1.071.357 1.6.537-.131-.555-.261-1.103-.392-1.65zm21.008 9.207c-.133-.574-.267-1.143-.4-1.707-.535-.209-1.083-.412-1.621-.62.133.558.267 1.121.4 1.689.542.212 1.081.425 1.621.638zm20.992 8.903c-.132-.591-.263-1.174-.4-1.756-.55-.249-1.091-.5-1.644-.748.133.586.267 1.165.4 1.76.555.247 1.096.496 1.644.744zm21.367 10.402l-.385-1.824c-.544-.281-1.1-.559-1.651-.839.129.6.258 1.2.387 1.808.553.284 1.101.57 1.649.855zm21.732 12.108a699.22 699.22 0 00-.372-1.9c-.546-.322-1.1-.643-1.654-.965.123.619.247 1.246.37 1.875.557.332 1.103.661 1.656.99z" fill="#47A1FF"/><path d="M342.466 289.655l-22.159-12.937a119.996 119.996 0 00-12.912-6.851c-11.666-5.025-25.359-6.619-34.5-15.436-8.423-8.124-10.933-20.462-16.73-30.627a52.17 52.17 0 00-25.157-22.172c-4.249-1.758-9.3-3.489-10.795-7.838-1.357-3.948 1.27-8.51 5.084-10.211 3.814-1.701 8.353-.984 12.084.89s6.818 4.787 9.864 7.642c4.823 4.519 9.833 9.09 15.969 11.548 8 3.2 17.131 2.5 25.179 5.582 9.16 3.507 15.774 11.415 22.185 18.838 13.067 15.128 27.4 29.791 45.333 38.622a4.734 4.734 0 01-3.467 2.11" fill="#BA9857"/><path d="M320.307 276.718a119.996 119.996 0 00-12.912-6.851c-11.666-5.025-25.359-6.619-34.5-15.436-8.423-8.124-10.933-20.462-16.73-30.627a52.178 52.178 0 00-25.158-22.173c-7.151-2.958-15.2-7.822-8.975-16.4.37 3.012 2.648 5.5 5.283 7.007 2.635 1.507 5.637 2.206 8.549 3.057 7.2 2.1 14.213 5.3 19.774 10.33 11.8 10.68 15.492 27.974 26.561 39.407 15.25 15.749 40.9 17.006 56.973 31.917a15.662 15.662 0 014.594 6.418c2.531 7.892-3.633 4.926-7.514 2.66a32895.44 32895.44 0 00-15.945-9.309z" fill="#B5904A"/><path d="M314.752 283.118a15.621 15.621 0 009.05-8.588c5.428-11.5 7.126-41.541-4.266-45.911 3.992-1.045 8.148.68 11.8 2.589 7.837 4.095 111.725 50.969 116.361 53.662a22.683 22.683 0 007.912 2.3c2.886.118 5.693-.85 8.42-1.805 24.226-8.478 44.675-16.4 68.5-25.923 25.054-10.012 108.614-43.042 126.671-43.97 18.057-.928 3.975 99.987-14.575 107.18a851.162 851.162 0 01-102.136 32.37c-28.054 6.983-63.93 21.013-92.683 13.013-9.572-2.664-93.532-55.1-131.54-77.856a27.566 27.566 0 01-9.332-8.709 4.958 4.958 0 005.822 1.648" fill="#B2DEFF"/><path d="M314.752 283.118c2.886-1.274 9.05-8.588 12.987-25.735 14.488 2.4 24.614 17.073 35.517 26.91 10.903 9.837 20.548 21.061 32.023 30.224a117.724 117.724 0 0040.942 21.123c12.918 3.7 26.709 5.141 39.831 2.254 17.563-3.865 32.555-15.08 45.992-27.032a349.368 349.368 0 0032.182-32.652c8.883-10.283 17.224-21.144 27.527-30 15.39-13.233 34.472-21.4 53.719-27.841 7.185-2.4 15.493-4.492 21.978-.574 7.889 4.765 8.863 15.665 8.536 24.875a309.738 309.738 0 01-3.868 39.018c-1.824 11.146-4.456 22.818-10.9 32.3-6.629 9.759-19.436 11.606-30.167 15.406a850.805 850.805 0 01-78.568 23.629c-28.054 6.983-63.93 21.013-92.683 13.013-9.572-2.664-93.532-55.1-131.54-77.856a27.566 27.566 0 01-9.332-8.709 4.956 4.956 0 005.822 1.648" fill="#8BCBFF"/><path d="M76.361 308.226c-17.486-9.133-36.404-17.976-56.754-26.529a10.892 10.892 0 01-6.673-9.984c-.026-5-.1-9.767-.424-14.232-1.846-25.733-4.264-48.573-7.176-69.352-.023-.172-.04-.344-.056-.515-2.639 2.442-5.59 6.351-5.326 9.338 1.766 20.2 4.69 38.517 4.985 66.368.049 4.385-.606 9.712-.583 14.634.026 3.628 2.662 7.578 7.8 9.813 20.4 8.871 33.617 15.346 51.764 23.065 5.976 2.544 10.93.986 14.92-1.675a10.91 10.91 0 01-2.477-.931z" fill="#FCBB00"/><path d="M12.51 257.481c.322 4.465.4 9.235.424 14.232a10.894 10.894 0 006.673 9.984c20.317 8.539 39.235 17.382 56.754 26.529.784.41 1.616.722 2.476.931a39.953 39.953 0 006.25-5.436 10.128 10.128 0 01-10.349.564c-16.293-8.509-33.893-16.736-52.8-24.68a10.131 10.131 0 01-6.161-9.3c-.026-4.646-.1-9.088-.4-13.241-1.726-23.921-3.973-45.165-6.685-64.5a10.13 10.13 0 017.206-11.128l-.142-.053a49.173 49.173 0 00-9.045 5.015c-.451.34-.939.754-1.436 1.214.015.171.032.343.056.515 2.915 20.781 5.333 43.62 7.179 69.354z" fill="#FFD85F"/><path d="M17.519 187.82c17.355 6.648 33.617 16.925 56.2 31.226 2.212 19.185 3.446 36.594 4.4 50.082a145.008 145.008 0 004.506 25.6l4.289 7.133c-.558.557-1.166 1.191-1.824 1.865a10.143 10.143 0 004.482-8.156c.31-12.133.1-23.457-.6-33.3-.872-12.318-1.98-27.919-3.851-45.154a10.145 10.145 0 00-4.8-7.57c-21.072-12.836-41.471-21.533-57.7-27.768-.094-.046-.29-.1-.556-.192a10.087 10.087 0 00-6.16-.146c5.324 1.918.884 6.128 1.614 6.38z" fill="#FFDA00"/><path d="M9.158 187.843a10.16 10.16 0 00-.462 4.724c2.711 19.332 4.958 40.575 6.685 64.5.3 4.152.371 8.594.4 13.24a10.124 10.124 0 006.162 9.3c18.906 7.944 36.506 16.171 52.8 24.68a10.128 10.128 0 0010.349-.564c.658-.674 1.266-1.309 1.824-1.865l-4.289-7.133a145.008 145.008 0 01-4.506-25.6c-.954-13.488-2.188-30.9-4.4-50.082-22.581-14.3-38.843-24.578-56.2-31.226-.73-.252 3.71-4.462-1.618-6.381a10.11 10.11 0 00-6.745 6.407z" fill="#FFDA00"/><path d="M48.335 459.285c5.7-28.222 10.413-58.334 14.139-90.335a15.898 15.898 0 0111.285-13.412c6.993-2.065 13.651-4.109 19.779-6.375 35.323-13.039 66.36-25.7 94.305-38.227.231-.1.466-.2.7-.287-4.5-2.708-11.176-5.258-15.255-3.674-27.6 10.679-52.09 22.219-91.013 33.944-6.128 1.852-13.86 3.1-20.751 5.128-5.076 1.509-9.541 6.808-10.588 14.918-4.15 32.2-7.859 53.358-11.309 81.934-1.139 9.409 3.058 15.721 8.409 20.234-.057-1.29.043-2.582.299-3.848z" fill="#00C459"/><path d="M93.538 349.163c-6.128 2.266-12.785 4.31-19.779 6.375a15.9 15.9 0 00-11.285 13.412c-3.719 31.948-8.432 62.06-14.139 90.335a15.887 15.887 0 00-.3 3.848 58.321 58.321 0 0010.158 6.555A14.792 14.792 0 0153.2 455.41c5.31-26.297 9.695-54.311 13.152-84.041a14.776 14.776 0 0110.536-12.415c6.5-1.924 12.7-3.83 18.4-5.935 32.833-12.137 61.7-23.915 87.7-35.568a14.777 14.777 0 0118.527 5.581l.016-.222a71.819 71.819 0 00-10.7-10.642 26.377 26.377 0 00-2.284-1.52c-.235.092-.47.184-.7.287-27.947 12.523-58.986 25.189-94.309 38.228z" fill="#00C459"/><path d="M203.769 332.585c.026-.15.021-.447.043-.857a14.719 14.719 0 00-2.3-8.694 14.781 14.781 0 00-18.527-5.581c-26 11.652-54.866 23.431-87.7 35.567-5.7 2.106-11.9 4.012-18.4 5.936a14.778 14.778 0 00-10.536 12.415c-3.458 29.733-7.842 57.747-13.153 84.04a14.794 14.794 0 004.994 14.278c1.212.649 2.35 1.245 3.356 1.8-1.007-.556-2.144-1.151-3.356-1.8a14.807 14.807 0 0013.254 2.972c17.135-4.5 32.923-9.393 46.434-14.363 16.914-6.226 38.333-14.115 61.734-23.739a14.798 14.798 0 008.662-9.805c9.44-34.754 13.346-66.884 15.495-92.169zm-19.187 42.741a678.573 678.573 0 01-3.084 11.659 1347.765 1347.765 0 01-3.443 12.335 2270.687 2270.687 0 01-3.775 13.132c1.311-4.525 2.57-8.902 3.775-13.132s2.353-8.342 3.443-12.335a735.31 735.31 0 003.084-11.659c1.446-5.682 2.747-11.158 3.886-16.5-1.139 5.342-2.44 10.818-3.886 16.5zm15.424-48.213zm1-1.55c-.035.092-.084.156-.123.242.043-.086.092-.15.127-.242h-.004z" fill="#00D981"/><path d="M590.266 239.855c1.708-8.9-4.557-7.873 3.813-11.335a24.405 24.405 0 018.333-1.451c27.12-1.155 55.485-6.136 80.377 4.69a20.297 20.297 0 015 2.771c3.343 2.777 4.614 7.517 4 11.819-.614 4.302-2.878 8.209-5.587 11.607a45.702 45.702 0 01-14.9 12.168c-16.915 8.635-37.3 5.922-55.674 1.117-7.837-2.048-15.668-4.476-22.642-8.594-6.974-4.118-13.095-10.093-16.091-17.618l13.374-5.174" fill="#47A1FF"/><path d="M612.667 177.3a123.47 123.47 0 01-20.9 82.254c-2.722 3.952-5.77 7.963-6.438 12.715-.528 3.762.511 7.552 1.655 11.175 7.45 23.559 23.636 48.136 48.22 50.613 16.32 1.643 32.257-7.355 43.08-19.679 10.823-12.324 17.438-27.688 23.881-42.771-27.053-32.288-34.8-79.616-19.451-118.843L612.667 177.3z" fill="#B18A40"/><path d="M693.338 259.489a111.312 111.312 0 008.824 12.115c.324-.757-7.85-10.615-8.824-12.115zm-3.285-5.55l.01.019-.01-.019zm-.152-.275l.049.088-.049-.088zm-.148-.27l.083.152-.083-.152zm-.228-.418l.2.363-.2-.363zm-12.053-33.136l.009.043-.009-.043zm-.058-.28l.019.089-.019-.089zm-.057-.282l.028.139-.028-.139zm-.054-.272zm-.052-.259l.04.2-.04-.2zm-1.075-6.3zm-.032-.228l.032.225a17.39 17.39 0 01-.032-.225zm-.034-.238l.03.211-.03-.211zm-.032-.231l.027.195-.027-.195zm-.031-.229l.023.172-.023-.172zm-.031-.229l.019.144-.019-.144zm-.032-.233l.017.125-.017-.125zm-.029-.225l.012.092-.012-.092zm-.031-.238l.01.076-.01-.076zm-.03-.232l.007.055-.007-.055zm-.029-.236v.038-.038z" fill="#D5D8CA"/><path d="M585.212 275.308l-.081.105a2.295 2.295 0 00-.473 2.841 316.5 316.5 0 004.008 10.119 112.584 112.584 0 01-1.685-4.932 33.65 33.65 0 01-1.769-8.133" fill="#7FB1CA"/><path d="M622.887 330.767l-.155.052a41.246 41.246 0 0012.322 3.22 40.012 40.012 0 01-12.167-3.272" fill="#D5D8CA"/><path d="M605.582 317.7a48.258 48.258 0 0017.15 13.118l.155-.052a51.585 51.585 0 01-17.3-13.066" fill="#7FB1CA"/><path d="M683.237 239.386a118.51 118.51 0 006.288 13.59 119.12 119.12 0 01-6.288-13.59zm-.083-.214l.078.2-.078-.2zm-.084-.218l.064.167-.064-.167zm-.083-.218l.053.14-.053-.14zm-.084-.219l.041.108-.041-.108zm-.082-.218l.029.079-.029-.079zm-.083-.22l.018.048-.018-.048zm-.083-.22l.007.018-.007-.018z" fill="#418CCA"/><path d="M656.689 180.7a80.524 80.524 0 01-6.451 5.924c-6.633 5.635-14.052 10.117-22.455 11.975-.867.273-1.758.539-2.675.8-4.295 14.825-11.419 28.936-18.458 42.772-6.156 12.1-13.227 22.442-21.438 33.136a33.65 33.65 0 001.769 8.133c.52 1.642 1.082 3.286 1.685 4.932 4.334 10.338 9.68 20.928 16.916 29.328a51.585 51.585 0 0017.3 13.066 40.012 40.012 0 0012.167 3.272l.147.015c1.288.13 2.582.195 3.876.194 14.941 0 29.239-8.527 39.2-19.873 10.822-12.325 17.438-27.688 23.881-42.771a111.409 111.409 0 01-8.824-12.115l-.019-.031a116.666 116.666 0 01-3.256-5.5l-.01-.019-.1-.187-.049-.088-.065-.118-.083-.152-.03-.055-.2-.363a118.51 118.51 0 01-6.288-13.59v-.012l-.078-.2-.02-.051-.064-.167-.03-.078-.053-.14-.043-.111-.041-.108-.053-.139-.029-.079-.065-.172-.018-.048-.076-.2-.007-.018a122.53 122.53 0 01-5.174-17.976l-.009-.043-.039-.191-.019-.089-.029-.143-.028-.139-.019-.1a10.944 10.944 0 01-.035-.176l-.012-.058-.04-.2-.007-.036c-.41-2.08-.766-4.168-1.068-6.265l-.032-.225v-.027l-.03-.211v-.036l-.027-.195-.008-.057-.023-.172-.012-.085-.019-.144-.015-.108-.017-.125-.017-.133-.012-.092-.021-.162-.01-.076-.023-.177-.007-.055-.025-.2v-.038l-.028-.222v-.006a122.655 122.655 0 01-.885-17.9c-.37.04-.741.059-1.113.059-6.069 0-12.736-5.133-17.149-11.351" fill="#A27833"/><path d="M691.6 550.664c2.621-37.146 20.276-88.184 28.205-105.956 5.258-11.786 31.215-70.542 35.35-98.4 1.612-10.853 2.994-21.868 1.762-32.771-1.232-10.903-5.329-21.818-13.261-29.4-6.989-6.681-15.7-12.159-23.267-18.262-2.482-2-25.436-18.272-24.885-20.066a10.919 10.919 0 00-7.434-10.983c2.494 4.021 1.429 9.347-.8 13.52-3.67 6.865-10.073 11.918-16.963 15.539-17.686 9.3-39.6 9.474-57.776 1.429-10.6-4.69-21.986-16.016-19.986-28.6.667-4.2 3.444-8.271 7.532-9.429-8.165-.464-15.194 5.389-21.078 11.069a376.654 376.654 0 00-34.589 38.312c-16.26 20.7-23.93 47.591-31.409 72.527a646.45 646.45 0 00-22.437 106.949c-3.138 25.6-4.754 51.371-8.535 76.891a322.005 322.005 0 01-7.379 36.55c68.506 13.538 148.755 9.699 216.95-18.919z" fill="#B2DEFF"/><path d="M691.6 550.664c2.621-37.146 20.276-88.184 28.205-105.956 5.258-11.786 31.215-70.542 35.35-98.4 1.612-10.853 2.994-21.868 1.762-32.771-.951-8.407-3.487-17.976-9.1-24.576a10.317 10.317 0 00-3.654-2.813c-3.835-1.746-8.082-3.3-12.05-4.71a54.727 54.727 0 00-33.854-.5c-14.933 4.524-27.734 14.745-37.178 27.165-14.066 18.5-20.951 41.352-26.883 63.823-11.807 44.733-22.082 92.429-53.388 126.493-26.8 29.166-66.393 45.08-93.213 73.5 65.52 10.627 140.06 5.581 204.003-21.255z" fill="#8BCBFF"/><path d="M439.947 274.318a86.838 86.838 0 0188.817 37.713 86.843 86.843 0 01-90.323 132.625 86.839 86.839 0 01-54.083-133.902 86.852 86.852 0 0155.589-36.436z" fill="#0050D5"/><path d="M524.269 470.446c-7.807 5.2-19.959 11.99-29.344 13.771 13.825-8.962 29.1-21.232 38.736-32.878 8.183-3.787 18.667-8.374 25.066-12.048-9.591 10.994-22.233 23.021-34.458 31.155z" fill="#ADCBF1"/><path d="M381.046 443.119a136.398 136.398 0 01-15.079-23.173c8.747 2.141 16.735 3.8 23.132 5.143a229.064 229.064 0 0031.137 3.97 250.18 250.18 0 003.678 8.363c6.465 14.008 13.478 25.6 20.9 34.564-10.764.044-23.933.249-34.643-.829-12.071-7.139-20.338-17.115-29.125-28.038z" fill="#00D981"/><path d="M459.226 382.568l-8.075-42.555a197.954 197.954 0 0046.558-16.806c2.192 8.134 3.7 14.663 4.569 18.4.23.987.421 1.808.574 2.453.25 1.037 1.367 7.051 2.062 10.874.117.615.206 1.4.345 2.318.453 3.016.875 5.988 1.268 8.916-13.805 6.553-31.316 13.044-47.301 16.4z" fill="#1A8CFF"/><path d="M511.056 258.5a75.736 75.736 0 01-3.212 3.636 119.128 119.128 0 01-23.83 19.219c-7.125-15.42-14.818-27.772-23.081-37.056a86.081 86.081 0 0011.569-7.223 120.473 120.473 0 0138.554 21.424z" fill="#FFDA00"/><path d="M460.528 243.549a155.769 155.769 0 01-26.112 7.819l-4.045-21.317c10.535.985 20.646 5.508 30.157 13.498z" fill="#00D981"/><path d="M400.47 297.374a148.506 148.506 0 0041.718-.3l7.849 41.37c-16.968 2.73-36.1 1.82-49.1-.021a314.536 314.536 0 01-.991-41.116l.524.067z" fill="#B2DEFF"/><path d="M429.778 227.512a133.964 133.964 0 00-24.9 255.95c.722.291 1.448.569 2.177.847.263.1.524.207.789.306A133.965 133.965 0 00526.35 472.34a133.958 133.958 0 0018.143-212.652 133.95 133.95 0 00-114.714-32.173l-.001-.003zm127.055 208.832a161.32 161.32 0 01-17.943 10.139c13.93-19.634 18.971-40.926 20.222-59.455 7.454-5.539 15.982-12.271 24.286-19.7.476-.424.944-.847 1.41-1.269a130.026 130.026 0 01-22.391 66.479 581.344 581.344 0 01-5.584 3.806zm-179.712 27.5a129.906 129.906 0 01-41.527-51.943 272.412 272.412 0 0029.415 9.27c7.439 16.429 19.149 34.272 38.131 47.8-5.222-.728-10.052-1.584-14.286-2.53l-5.342-1.18c-2.012-.443-4.159-.916-6.391-1.413v-.004zm-50.309-80.273a130.864 130.864 0 01-2.3-24.315 120.877 120.877 0 0026.347 13.347c.413 2.842 2.153 11.331 2.222 11.695a202.9 202.9 0 0010.106 32.691 253.353 253.353 0 01-29.5-9.676 130.91 130.91 0 01-6.875-23.738v-.004zm27.929-9.553a279.31 279.31 0 0040.272 10.487c3.213.613 6.838 1.165 10.739 1.631a343.706 343.706 0 0013.223 41.064 203.025 203.025 0 01-26.681-3.483c-6.691-1.393-15.291-3.186-24.721-5.58a196.62 196.62 0 01-11-34.648c-.003-.032-1.179-5.862-1.832-9.467v-.004zm154.492-116.225c-5.591 7.058-13.878 14.491-25.031 21.236l-.122-.271c-6.434-14.02-13.386-25.116-20.855-33.287a74.112 74.112 0 0011.294-7.016 105.338 105.338 0 0134.714 19.338zm-76.779-25.525c8.683.686 16.92 4.723 24.713 12.11a104.325 104.325 0 01-21.157 6.629l-3.556-18.739zm8.282 62.869a132.637 132.637 0 01-38.279.4c-.528-.073-1.059-.15-1.592-.231 1.063-15.638 3.686-28.531 7.87-38.679 8.169.457 16.363-.027 24.421-1.442l7.58 39.952zm4.189 2.856a138.328 138.328 0 0037.634-13.852 303.805 303.805 0 0113.259 37.967 172.161 172.161 0 01-43.318 15.836l-7.575-39.951zm36.024-17.056a134.768 134.768 0 01-36.692 13.537l-7.58-39.949a107.25 107.25 0 0023.185-7.428c7.455 7.928 14.443 18.979 20.963 33.153l.271.6-.147.087zm-20.312-38.169a52.928 52.928 0 00-14.387-10.4 137.3 137.3 0 0124.031 4.75 74.791 74.791 0 01-9.644 5.65zm-28.149 8.9a104.037 104.037 0 01-22.2 1.463c4.626-9.635 10.84-16.364 18.643-20.188l3.557 18.725zm-26.01 1.2a72.183 72.183 0 01-11.912-2.041 140.388 140.388 0 0123.027-14.239 52.245 52.245 0 00-11.115 16.282v-.002zm-15 .8a72.822 72.822 0 0013.532 2.644c-4.059 10.267-6.626 23.065-7.7 38.395-10.977-2-22.541-5.661-31.408-11.163a105.886 105.886 0 0125.242-29.982c.115.038.219.076.332.109l.002-.003zm10.515 45.41a136.414 136.414 0 0039.413-.425l7.579 39.95c-16.342 2.783-35.02 1.862-47.392.052a292.52 292.52 0 01-.938-39.771c.453.071.904.137 1.336.197l.002-.003zm4.659 75.707l-.229-.993c-.456-2.4-1.717-8.765-1.869-9.85l-.164-1.113a429.215 429.215 0 01-2.465-20.516c12.665 1.772 31.325 2.609 47.728-.191l7.585 39.974c-15.3 2.63-33.733 2.37-48.611.782a459.484 459.484 0 01-1.977-8.09l.002-.003zm46.522-33.326a177.009 177.009 0 0043.626-15.791c2.125 7.82 3.578 14.1 4.395 17.634.2.879.4 1.615.511 2.191.25 1.066 1.418 7.469 1.876 9.885.083.562.186 1.264.315 2.1.442 2.922.85 5.799 1.223 8.632-12.873 6.131-29.412 12.261-44.369 15.321l-7.584-39.972h.007zm52.028 3.2c-.138-.569-.306-1.3-.507-2.167-.854-3.687-2.394-10.337-4.662-18.606.6-.345 1.2-.69 1.776-1.037a179.788 179.788 0 0031.63-24.3 136.419 136.419 0 003.941-4.02c7.93 16.055 11.618 31.367 13.706 40.174a266.51 266.51 0 01-32.142 23.95c-2.9 1.828-6.438 3.792-10.41 5.786-.43-3.12-.815-5.671-1.092-7.5-.125-.846-.2-1.535-.31-2.11l-.014-.069c-.069-.349-1.591-8.717-1.918-10.097l.002-.004zM530.913 296a176.125 176.125 0 01-31 23.8c-.286.172-.583.346-.882.521a304.563 304.563 0 00-13.362-38c9.714-5.884 19.358-13.7 26.232-22.185a105.702 105.702 0 0112.434 13.417 119.84 119.84 0 0111.3 17.572 128.129 128.129 0 01-4.722 4.875zM477.8 235.784a47.89 47.89 0 003.982-3.938 129.37 129.37 0 0134.993 12.93 42.78 42.78 0 01-5.383 10.129 108.111 108.111 0 00-33.592-19.121zm-3.947-1.341a137.406 137.406 0 00-24.476-5.3 129.29 129.29 0 0128.254 1.9 49.683 49.683 0 01-3.779 3.4h.001zm-83.47 15.1a49.829 49.829 0 01-3.527-1.389A129.513 129.513 0 01407.361 238a136.149 136.149 0 00-16.979 11.547l.001-.004zm-3.193 2.635a108.641 108.641 0 00-24.279 29.356 35.93 35.93 0 01-7.206-6.764 130.098 130.098 0 0127.568-24.347 45.751 45.751 0 003.916 1.759l.001-.004zm-22.99 34.548a68.17 68.17 0 006.624 3.566 106.703 106.703 0 0026.274 8.016 295.777 295.777 0 00.843 39.76c-20.616-3.569-34.977-8.862-44.937-14.246a119.077 119.077 0 013.857-18.7 105.456 105.456 0 017.339-18.396zm34.065 55.025a438.089 438.089 0 002.571 21.589l.157 1.114c.207 1.4 1.844 9.719 1.91 10.07l.254 1.084a453.544 453.544 0 001.657 6.829c-3.29-.419-6.362-.9-9.122-1.428a271.933 271.933 0 01-41.575-10.989c-1.335-9.476-3.233-24.893-1.554-42.29 15.167 7.777 33.311 11.927 45.699 14.021h.003zm11.313 44.807c14.955 1.49 33.154 1.655 48.324-.962l7.58 39.95c-12.858 2.241-28.176 2.659-42.542 1.893a334.636 334.636 0 01-13.365-40.881h.003zm56.572 42.507L473.725 469a178.584 178.584 0 01-25.027 2.4c-7.594-8.191-14.75-19.542-21.467-34.053a215.194 215.194 0 01-2.77-6.259c14.147.663 29.075.182 41.686-2.023h.003zm8.248 43.47l2.754 14.52c-8.753-.695-17.092-4.759-25.017-12.192a175.42 175.42 0 0022.265-2.328h-.002zm3.518-.672a211.94 211.94 0 0021.15-5.559c-4.527 9.548-10.671 16.318-18.391 20.1l-2.759-14.541zm-.67-3.535l-7.58-39.928a226.954 226.954 0 0038.745-12.141c-.347 18.563-2.852 33.9-7.461 45.675a214.364 214.364 0 01-23.707 6.394h.003zM469 424.878l-7.58-39.948c14.83-3.033 31.2-9.031 44.184-15.11a339.786 339.786 0 012.852 42.564A225.215 225.215 0 01469 424.878zm40.029-56.7c4.541-2.233 8.566-4.442 11.824-6.482a288.048 288.048 0 0031.05-22.956c.659 3.455 1.395 7.6 1.4 7.625 1.195 8.294 3.225 22.393 2.347 38.737-8.135 6.008-14.708 10.4-17.768 12.4a179.457 179.457 0 01-25.832 13.366 347.767 347.767 0 00-3.022-42.692l.001.002zm45.093-36.157c-2.285-9.43-6.193-24.566-14.164-40.321 5.729-6.513 9.846-12.759 12.31-18.677a130.251 130.251 0 0122.712 36.3A140.894 140.894 0 01556 330.336c-.617.564-1.252 1.121-1.879 1.683l.001.002zm-15.959-43.742a122.457 122.457 0 00-10.993-16.913 109.27 109.27 0 00-13.07-14.095 45.418 45.418 0 005.876-10.695 131.374 131.374 0 018.072 5.1 130.13 130.13 0 0121.528 18.392c-2.093 5.658-5.954 11.811-11.414 18.209l.001.002zM353.37 277.59a40.288 40.288 0 007.817 7.141 108.9 108.9 0 00-7.765 19.395 121.126 121.126 0 00-3.778 17.783c-7.783-4.685-12.4-9.291-15.08-12.743a130.858 130.858 0 0118.806-31.576zm-4.212 48.31c-1.845 17.228-.195 32.638 1.151 42.684-10.375-4.049-18.95-8.603-25.725-13.662a129.43 129.43 0 018.437-41.9 58.976 58.976 0 0016.137 12.878zm34.028 118.958a123.292 123.292 0 01-13.713-22.558c8.388 2.066 16.006 3.658 22.075 4.925a210.1 210.1 0 0028.931 3.653 238.263 238.263 0 003.494 7.979c6.235 13.508 12.908 24.391 20.02 32.65a282.515 282.515 0 01-32.943-1.568 103.12 103.12 0 01-27.864-25.081zm64.021 30.178a56.782 56.782 0 0014.876 11.347c-16.094-1.704-30.507-5.745-43.239-12.122 9.435.734 18.902.993 28.363.775zm56.507-10.242a303.842 303.842 0 0022.483-8.554 126.098 126.098 0 01-31.271 23.385 56.045 56.045 0 008.788-14.831zm1.654-4.353c3.467-9.985 5.589-22.171 6.366-36.559.163-3.045.255-6.1.293-9.127a187.511 187.511 0 0027.812-14.255 388.906 388.906 0 0015.477-10.683 121.585 121.585 0 01-4.3 23.4 102.908 102.908 0 01-19.116 36.589 300.929 300.929 0 01-26.532 10.635zm53.986-78.11a198.56 198.56 0 00-2.5-36.487c-.058-.3-1.092-6.215-1.818-9.824a157.166 157.166 0 0021.526-22.732A130.74 130.74 0 01584.974 361c-8.604 8-17.663 15.314-25.62 21.331zm-174.336 86.94c1.06.232 2.084.458 3.054.678a204.383 204.383 0 0021.877 3.486c12.771 7.692 28.445 13.488 47.727 16.036a129.655 129.655 0 01-57.2-11.785 131.03 131.03 0 01-15.458-8.415zM497.6 482.245c15.716-8.652 27.591-18.743 36.493-29.509a202.205 202.205 0 0021.954-11.621 133.425 133.425 0 01-7.414 8.435 129.69 129.69 0 01-51.033 32.695z" fill="#007CFF"/><path d="M757.228 353.156a489.966 489.966 0 01-12.651 61.133c-10.894 39.717-24.993 71.2-45.472 106.937-11.751 20.507-18.015 20.1-41.86 23.559-8.493 1.232-153.667-17.807-160.34-21.634-6.673-3.827-12.26-10.513-12.509-18.2-.18-5.573-5.833-7.2-2.866-11.916 6.36-10.114 15.142-19.154 26.3-23.428 10.533-4.036 109.212 3.346 115.024 2.765 5.812-.581 11.738-3.125 14.914-8.027 2.441-3.768 11.263-57.562 16.54-80.473 5.725-24.861 16.021-58 29.645-79.707 8.656-13.794 19.1-30.189 38.982-27.76 3.676.45 25.159 4.6 31.04 24.21 8.345 27.841 4.625 42.822 3.253 52.541z" fill="#B2DEFF"/><path d="M448.935 502.514c13.685-1.114 27.77.3 39.926 7.052.522.36 1.135.565 1.768.592a3.185 3.185 0 001.31-.49 26.688 26.688 0 004.55-3.007c3.972-3.42 5.962-8.7 6.415-13.925.453-5.225-.474-10.456-1.485-15.6-10.342-.907-26.478-2.707-32.209-12.927-1.6-2.85-2.112-6.169-3.292-9.217-4.424-11.421-17.188-17.129-29.118-19.908s-24.752-4.012-34.738-11.107c-1.8-1.276-7.392-6.195-9.535-6.718-2.143-.523-5.34 8.154 2.434 13.671 8.273 5.87 22.237 12.368 31.609 15.74a1.58 1.58 0 01-.411 3.058c-3.051.264-11.474-1.807-14.77-1.815-7.861-.018-42.29-10.692-52.209-12.449-3.212-.569-12.364-1.282-13.923 4.08-.583 2.006 6.954 3.084 8.925 3.778l49.406 17.368c-1.044 2.1-3.872 2.368-6.215 2.357-6.537-.031-32.534-3.1-35.907-6.691-6 8.267 5.754 16.5 12.834 17.277 0 0 .577 6.742 11.063 10.677 0 0 4.1 6.569 5.687 7.683 7.864 5.535 23.8 12.339 36.879 12.492 7.037.083 13.991-1.4 21.006-1.971z" fill="#BA9857"/><path d="M448.935 502.514c13.685-1.114 27.77.3 39.926 7.052.522.36 1.135.565 1.768.592a3.185 3.185 0 001.31-.49 26.688 26.688 0 004.55-3.007c3.972-3.42 5.962-8.7 6.415-13.925a49.04 49.04 0 00-.41-8.924 2.944 2.944 0 00-.49-1.633 2.9 2.9 0 00-1.782-.8c-6.748-1.278-13.681-1.731-20.236-3.78-10.338-3.23-19.122-10.229-29.3-13.931a21.893 21.893 0 00-9.083-1.608 27.88 27.88 0 00-8.754 2.687c-12.43 5.385-25.9 15.036-38.816 10.938-26.675-8.466-33.038-16.128-32.5-19.588-4.008 2.378-.857 9.243 1.36 11.619a19.777 19.777 0 005.712 4.123 51.486 51.486 0 005.7 1.8c0 .008.584 6.745 11.063 10.677 0 0 4.1 6.569 5.687 7.683 7.864 5.535 23.8 12.339 36.879 12.492 7.032.077 13.986-1.406 21.001-1.977z" fill="#B28B42"/><path d="M569.67 194.675c11.691 13.811 45.992 8.842 62.838 2.272 16.846-6.57 25.885-17.292 37.094-31.228 18.048-22.437 31.248-52.016 22.63-79.578C685.3 64 665 47.354 642.506 40.254c-39.468-12.462-74.2 2.879-73.494 41.382.394 21.448-10.036 31.166-10.609 58.214-.489 23.092 7.71 50.625 11.267 54.825z" fill="#BA9857"/><path d="M623.4 199.315c19.9-2.092 34.525-19.075 46.2-33.6 18.048-22.437 31.248-52.016 22.63-79.578C685.3 64 665 47.354 642.506 40.254c-17.28-5.456-37.942-6.882-54.046 2.835-7.674 4.63-9.517 10.643-12.946 18.547a84.567 84.567 0 00-6.987 32.21c8.534-3.589 18.629-2.4 26.8 1.961s14.525 11.616 19.049 19.693c4.524 8.077 7.342 16.991 9.717 25.94 2.531 9.534 4.6 19.258 4.909 29.118.309 9.86-1.226 19.915-5.6 28.757" fill="#B18A40"/><path d="M685.7 13.3a40.007 40.007 0 00-19.256-11.61c-8.834-2.238-18.129-1.239-27.181-.185-12.779 1.487-25.776 3.122-37.5 8.429-11.5 5.21-21.167 13.687-31.883 20.372-15.814 9.865-28.039 9.829-45.356 5.982-5.63-1.25-11.9-1.485-16.788 1.579s-7.34 10.374-3.7 14.852a4.514 4.514 0 002.224 1.6c1.864.508 3.7-.763 5.582-1.191 5.752-1.3 9.981 4.97 13.374 9.794 14.234 20.235 32.731 18.875 51.7 17.514 13.281-.952 26.8-1.9 39.248 4.551a28.32 28.32 0 0113.565 15.265c2.449 6.915.266 13.739.554 20.826.084 2.068.259 4.275 1.527 5.909 2.341 3.015 7.079 2.547 10.546.948 3.467-1.599 6.729-4.067 10.543-4.2 5.42-.192 10 4.7 11.16 10 1.16 5.3-5.657 12.256-7.538 17.343-1.881 5.087-4.2 10.113-4.756 15.507-1.116 10.694 14.01 28.608 25.117 25 11.14-3.618 18.553-19.975 24.843-28.951 8.642-12.333 18.792-23.572 26.72-36.412 9.067-14.684 15.147-32.455 10.893-49.179-4.254-16.724-21.781-30.643-38.438-26.154-.544-13.694-5.949-27.8-15.2-37.588" fill="#443012"/><path d="M659.743 126.361a35.57 35.57 0 013.8 11.887c.6-1.425.783-2.992.526-4.517a13.979 13.979 0 00-4.323-7.37" fill="#A47F3A"/><path d="M521.062 39.65a18.158 18.158 0 00-6.742 1.232c-2.264.9-4.614 3.044-3.88 5.366 7.152 1.778 14.655 3.655 20.839 7.839 5.861 3.963 8.141 10.749 13.948 14.812 5.943 4.157 13.587 4.8 20.832 5.107 1.792.077 3.6.108 5.4.108 3.361 0 6.744-.106 10.126-.21 3.382-.104 6.768-.211 10.128-.211 2.839 0 5.663.075 8.455.289 9.624.738 19.1 6.766 26.291 12.857 4.724 4 9.227 8.832 10.534 14.884 1.134 5.248-.039 11.477 3.64 15.389.206.089.427.137.651.139 1.871 0 3.034-3.521 5.221-3.92.132-.024.266-.037.4-.037a4.67 4.67 0 012.579 1.11 34.891 34.891 0 0110.25 11.957 13.979 13.979 0 014.323 7.37 8.151 8.151 0 01-.526 4.517 33.3 33.3 0 01.284 4.713c-.06 5.414-1.376 10.738-1.676 16.144-.3 5.406.6 11.234 4.274 15.214a11.58 11.58 0 008.3 3.591 8.217 8.217 0 006.121-2.47c2.787-2.975 2.843-7.478 3.52-11.5 2.1-12.511 12.3-22.807 15.151-35.423a26.77 26.77 0 00-.375-12.9c-2.242-8.411-8.029-16.218-14.737-22.054a17.72 17.72 0 01-4.2-4.49 17.364 17.364 0 01-1.468-4.642c-1.956-8.637-5.467-17.228-11.9-23.319-7.993-7.572-19.391-10.308-30.345-11.438a139.075 139.075 0 00-36.417 1.046c-10.53 1.7-21.347 4.6-31.852 4.6-4.723.06-9.423-.66-13.911-2.131-6.807-2.315-12.731-6.63-19.188-9.8a32.792 32.792 0 00-14.047-3.743" fill="#3F2C10"/><path d="M644.546 128.764c3.277-4.279 6.674-8.666 11.32-11.4s10.906-3.441 15.275-.283c4.636 3.352 5.749 9.839 5.213 15.535-.582 6.163-2.75 12.336-7.019 16.818-4.269 4.482-10.829 7-16.84 5.526-.8-.195-1.743-.682-1.685-1.5" fill="#B18A40"/></g><defs><linearGradient id="paint0_linear" x1="711.097" y1="629.668" x2="21.313" y2="-297.69" gradientUnits="userSpaceOnUse"><stop stop-color="#D5ECF7"/><stop offset=".158" stop-color="#D5ECF7"/><stop offset=".624" stop-color="#E9F5FB"/><stop offset="1" stop-color="#F5FAFD"/></linearGradient><clipPath id="clip0"><path fill="#fff" d="M0 0h839v577H0z"/></clipPath></defs></svg>