<svg width="406" height="306" viewBox="0 0 406 306" fill="none" xmlns="http://www.w3.org/2000/svg"><path opacity=".05" d="M148.403 60.808c-39.169 9.206-70.116 38.295-79.17 75.688-6.75 27.831-.822 56.536 44.609 66.99 98.202 22.594 204.3 15.093 217.048-30.034 12.748-45.127-10.911-122.53-67.081-127.321-31.983-2.751-79.993 6.384-115.406 14.677zm50.496 196.199c76.277 0 138.111-7.298 138.111-16.301 0-9.003-61.834-16.301-138.111-16.301-76.276 0-138.11 7.298-138.11 16.301 0 9.003 61.834 16.301 138.11 16.301z" fill="#5346F6"/><path d="M308.391 161.245l-5.581-1.565-21.413 76.335 5.58 1.565 21.414-76.335z" fill="#E3E5EB"/><path d="M311.118 164.165a4.828 4.828 0 01-1.299-.183l-9.379-2.588a4.828 4.828 0 01-2.902-2.282 4.82 4.82 0 01-.437-3.666l1.887-6.729a4.832 4.832 0 015.948-3.35l9.359 2.629a4.83 4.83 0 013.339 5.958l-1.888 6.73a4.845 4.845 0 01-4.628 3.481zm-.487-3.045a1.814 1.814 0 002.243-1.259l1.888-6.729a1.832 1.832 0 00-.16-1.389 1.8 1.8 0 00-1.099-.864l-9.358-2.619a1.82 1.82 0 00-1.383.164 1.812 1.812 0 00-.86 1.095l-1.888 6.729a1.819 1.819 0 001.258 2.243l9.359 2.629zM297.7 241.305l4.658-16.605-27.76-7.755-4.872 17.357a14.325 14.325 0 00-.193 7.044l28.167-.041z" fill="#00C2FF"/><path d="M167.627 108.279h-14.189v134.914h14.189V108.279zm76.684 0h-14.19v134.914h14.19V108.279z" fill="#E3E5EB"/><path opacity=".08" d="M167.627 108.279h-14.189v134.914h14.189V108.279zm76.684 0h-14.19v134.914h14.19V108.279z" fill="#220D4E"/><path d="M261.17 125.027H136.639v43.929H261.17v-43.929z" fill="#E3E5EB"/><path d="M142.953 125.027l14.88 43.929h20.584l-16.91-43.929h-18.554zm38.113 0l14.88 43.929h20.584l-16.92-43.929h-18.544zm38.001 0l14.88 43.929h20.584l-16.92-43.929h-18.544z" fill="#412381"/><path d="M261.17 185.592H136.639v20.594H261.17v-20.594z" fill="#E3E5EB"/><path d="M103.53 234.626l12.444-57.266a2.559 2.559 0 014.984 0l13.58 58.22-31.008-.954z" fill="#5346F6"/><path d="M133.868 229.105h-30.064a4.486 4.486 0 00-4.486 4.486v.619a4.486 4.486 0 004.486 4.486h30.064a4.486 4.486 0 004.487-4.486v-.619a4.486 4.486 0 00-4.487-4.486z" fill="#5346F6"/><path opacity=".46" d="M133.868 229.105h-30.064a4.486 4.486 0 00-4.486 4.486v.619a4.486 4.486 0 004.486 4.486h30.064a4.486 4.486 0 004.487-4.486v-.619a4.486 4.486 0 00-4.487-4.486z" fill="#fff"/><path opacity=".08" d="M111.346 198.614l13.327-5.339 3.887 16.667-20.95 5.795 3.736-17.123z" fill="#220D4E"/><path d="M105.864 239.62s5.674-8.12-2.791-10.414c-8.465-2.294 2.03-13.246-5.846-14.697-7.877-1.451-6.567 10.15-6.567 10.15s-5.4-4.669-9.196-.711c-3.796 3.959 1.502 8.222 1.502 8.222s-7.582 2.619-2.852 7.409l25.75.041z" fill="#26BB8F"/><path d="M94.476 240.706s3.604-6.171 8.922-5.41c5.319.761 4.74 5.41 4.74 5.41H94.476z" fill="#00C2FF"/><path d="M226.507 124.438l42.63 21.569a1.873 1.873 0 002.086-.288 1.87 1.87 0 00.492-2.047l-.903-2.304a11.166 11.166 0 010-8.12c2.73-7.105 6.77-22.33-4.567-30.846-14.515-10.931-36.946-9.876-42.224 16.961a4.608 4.608 0 002.486 5.075z" fill="#5346F6"/><path opacity=".08" d="M227.675 125.027l33.484 32.317v-15.387l-33.484-16.93z" fill="#220D4E"/><path opacity=".31" d="M232.628 108.543c2.588-3.624 7.815-9.013 16.057-9.237a1.461 1.461 0 01.782 2.721 37.245 37.245 0 00-11.612 10.312 3.208 3.208 0 01-4.06 1.015 3.21 3.21 0 01-1.713-2.131 3.216 3.216 0 01.546-2.68z" fill="#fff"/><path d="M101.317 130.751a7.102 7.102 0 00-8.251-7.003 9.585 9.585 0 00-8.435-5.075h-.356c.233-.902.352-1.83.356-2.761a11.379 11.379 0 10-22.757 0c.004.931.123 1.859.356 2.761h-.355a9.591 9.591 0 000 19.173h33.261v-.071a7.106 7.106 0 006.181-7.024z" fill="#FFC107"/><path d="M333.742 76.53a9.42 9.42 0 00-9.419-9.41 9.302 9.302 0 00-1.512.133 12.692 12.692 0 00-11.165-6.69h-.467a14.92 14.92 0 00.467-3.643 15.073 15.073 0 10-30.136 0 14.87 14.87 0 00.457 3.715h-.467a12.7 12.7 0 00-12.19 12.688A12.699 12.699 0 00281.5 86.01h44.051v-.091a9.408 9.408 0 008.191-9.39z" fill="#26BB8F"/></svg>