<svg width="512" height="512" viewBox="0 0 512 512" fill="none" xmlns="http://www.w3.org/2000/svg"><g opacity=".25" fill="#000"><path d="M476 459.3L462.3 473c-3.3 3.3-8.6 3.3-12 .1l-101.5-98.7c-4.2-4.1-10.6-4.8-15.6-1.7l-15.7 9c-25.8 15-55.6 23.8-87.6 23.8h-1c0-25.1 16.1-47.5 40.1-55 51.1-16 86.2-62.5 86.2-120.3 0-57.5-34.7-103.7-85.3-120-24.4-7.8-41-30.6-41-56.2h1c96.9 0 175.7 78.8 175.7 175.7 0 44.2-16.6 84.6-43.6 115.5l114 114.1z"/><path d="M260 264.8c0-19.6-12.6-36.4-30-42.7 4.8-1.8 10-2.7 15.4-2.7 25 0 45.4 20.4 45.4 45.4s-20.4 45.4-45.4 45.4c-5.4 0-10.6-1-15.4-2.7 17.4-6.3 30-23.1 30-42.7zM74.9 439.099c0 25-18.7 45.4-41.6 45.4-4.9 0-9.7-1-14.1-2.7 16-6.3 27.5-23.1 27.5-42.7s-11.5-36.4-27.5-42.7c4.4-1.8 9.1-2.7 14.1-2.7 22.9 0 41.6 20.5 41.6 45.4z"/></g><path d="M492.5 344.499c-20.6 0-37.4-16.8-37.4-37.4 0-20.6 16.8-37.4 37.4-37.4 4.4 0 8-3.6 8-8s-3.6-8-8-8c-25.1 0-46.2 17.4-51.9 40.8l-35.8-8.7c5.8-18 8.8-36.9 8.8-56 0-101.3-82.4-183.7-183.7-183.7-101.3 0-183.7 82.4-183.7 183.7 0 56.7 25.8 107.5 66.3 141.2l-43.2 35.8c-9.8-12.8-25.2-21.1-42.5-21.1-4.4 0-8 3.6-8 8s3.6 8 8 8c20.6 0 37.4 16.8 37.4 37.4 0 20.6-16.8 37.4-37.4 37.4-4.4 0-8 3.6-8 8s3.6 8 8 8c29.4 0 53.4-24 53.4-53.4 0-6.3-1.1-12.4-3.1-18l48.5-40.1c29.7 20.5 65.6 32.6 104.3 32.6 32 0 63.7-8.6 91.6-24.8 3.8-2.2 5.1-7.1 2.9-10.9-2.2-3.8-7.1-5.1-10.9-2.9-25.5 14.8-54.4 22.7-83.5 22.7-33.7 0-65.1-10-91.5-27.2l72.9-60.3c8.3 5.3 18.1 8.4 28.7 8.4 26 0 47.8-18.7 52.5-43.5l40 9.7c-5.5 10.4-12.6 20.1-21.3 28.7-22 21.8-51.3 33.9-82.3 33.9-4.4 0-8 3.6-8 8s3.6 8 8 8c35.3 0 68.5-13.7 93.6-38.5 10.8-10.7 19.5-22.9 26-36.1l35 8.5c-6.8 15.5-16 30-27.4 43-2.8 3.2-2.6 7.9.4 10.9l108.3 108.3-10.6 10.6-110-106.9c-3.2-3.1-8.2-3-11.3.2-3.1 3.2-3 8.2.2 11.3l115.6 112.4c1.6 1.5 3.6 2.3 5.6 2.3 2 0 4.1-.8 5.7-2.3l21.8-21.8c3.1-3.1 3.1-8.2 0-11.3l-109-109.1c10.9-13.5 19.7-28.3 26.3-44l40 9.7c1.8 27.8 25 49.9 53.3 49.9 4.4 0 8-3.6 8-8s-3.5-8-8-8zm-252.4-42.1c-8.8 0-17-3.1-23.4-8.2-.3-.3-.6-.5-.9-.8-8-6.9-13.1-17-13.1-28.4 0-20.6 16.8-37.4 37.4-37.4 20.6 0 37.4 16.8 37.4 37.4 0 20.6-16.8 37.4-37.4 37.4zm53-43.7c-3.2-26.4-25.7-47-53-47-11.2 0-21.6 3.5-30.1 9.4l-61.3-72.4c-.5-.6-1.1-1.1-1.7-1.5 21.1-20.8 50.1-33.7 82.1-33.7 64.5 0 116.9 52.5 116.9 116.9 0 13.7-2.3 27-6.8 39.5l-46.1-11.2zm61.6 14.9c4.7-13.8 7.2-28.4 7.2-43.3 0-73.3-59.6-132.9-132.9-132.9-73.3 0-132.9 59.6-132.9 132.9 0 4.4 3.6 8 8 8h74.4c4.4 0 8-3.6 8-8s-3.6-8-8-8h-66.1c1.6-23.8 10.4-45.6 24.1-63.4l61.8 73c-7.2 9.1-11.6 20.6-11.6 33.1 0 13.1 4.7 25 12.5 34.3l-74.1 61.3c-38.3-30.8-62.9-78-62.9-130.8 0-92.5 75.2-167.7 167.7-167.7 92.5 0 167.7 75.2 167.7 167.7 0 17.9-2.9 35.5-8.4 52.2l-34.5-8.4zm-297.5-137.9c-10.2-9.9-15.9-23.3-16.1-37.6-.2-14.3 5.2-27.8 15.1-38 10-10.1 23.3-15.8 37.6-16 14.3-.2 27.8 5.2 38 15.1 3.2 3.1 3.2 8.1.1 11.3-3.1 3.2-8.1 3.2-11.3.1-14.8-14.4-38.5-14.1-52.9.7-6.9 7.1-10.7 16.6-10.5 26.6.1 10 4.1 19.4 11.2 26.3 3.2 3.1 3.2 8.1.1 11.3-1.6 1.6-3.6 2.4-5.7 2.4-2 0-4-.7-5.6-2.2z" fill="#000"/><path opacity=".25" d="M123.2 451.199h86.2l-43.1 43.1-43.1-43.1zM182.9 299.9c0 4.4-3.6 8-8 8h-40.8c-4.4 0-8-3.6-8-8s3.6-8 8-8h40.8c4.4 0 8 3.6 8 8zm172.6 126.3h-43c-4.4 0-8 3.6-8 8s3.6 8 8 8h43c4.4 0 8-3.6 8-8s-3.6-8-8-8zm-21.5 30h-73.8c-4.4 0-8 3.6-8 8s3.6 8 8 8H334c4.4 0 8-3.6 8-8s-3.6-8-8-8zm95.7-432.7c-4.4 0-8 3.6-8 8 0 11.4-9.3 20.8-20.8 20.8-4.4 0-8 3.6-8 8s3.6 8 8 8c20.3 0 36.8-16.5 36.8-36.8 0-4.5-3.5-8-8-8zm50 44.7c4.4 0 8-3.6 8-8s-3.6-8-8-8c-11.4 0-20.8-9.3-20.8-20.8 0-4.4-3.6-8-8-8s-8 3.6-8 8c.1 20.3 16.6 36.8 36.8 36.8zm0 5.3c-20.3 0-36.8 16.5-36.8 36.8 0 4.4 3.6 8 8 8s8-3.6 8-8c0-11.4 9.3-20.8 20.8-20.8 4.4 0 8-3.6 8-8s-3.5-8-8-8zm-78.7 0c-4.4 0-8 3.6-8 8s3.6 8 8 8c11.4 0 20.8 9.3 20.8 20.8 0 4.4 3.6 8 8 8s8-3.6 8-8c-.1-20.4-16.5-36.8-36.8-36.8zm64.4 101.7c-5.9 0-10.8 4.8-10.8 10.8 0 6 4.8 10.8 10.8 10.8 6 0 10.8-4.8 10.8-10.8 0-6-4.9-10.8-10.8-10.8zM31.4 303c-5.9 0-10.8 4.8-10.8 10.8 0 6 4.8 10.8 10.8 10.8 5.9 0 10.8-4.8 10.8-10.8 0-6-4.8-10.8-10.8-10.8zm345.4 167.4c-5.9 0-10.8 4.8-10.8 10.8 0 5.9 4.8 10.8 10.8 10.8 6 0 10.8-4.8 10.8-10.8-.1-6-4.9-10.8-10.8-10.8z" fill="#000"/></svg>