<svg width="512" height="512" viewBox="0 0 512 512" fill="none" xmlns="http://www.w3.org/2000/svg"><path d="M19.1 33.6l60.8 61-60.9-.1.1-60.9zm230.5-14.9v15.4l237.1.3V19l-237.1-.3zm174.2 50.8V54.9l61.1.1v14.6l-61.1-.1zm-26.1-.1V54.8l-61.1-.1v14.6l61.1.1zm23.5 408.7l.1-61.1 61.1.1-.1 61.1-61.1-.1zM164.3 25c-4.9 0-8.8 4-8.9 8.8 0 4.9 4 8.8 8.8 8.9 2.4 0 4.6-.9 6.2-2.6 1.7-1.7 2.6-3.9 2.6-6.3s-.9-4.6-2.6-6.3c-1.7-1.7-3.7-2.5-6.1-2.5zm-13.6 34.1c-2.4 0-4.6.9-6.3 2.6-1.7 1.7-2.6 3.9-2.6 6.3 0 4.9 4 8.8 8.8 8.9 2.4 0 4.6-.9 6.2-2.6 1.7-1.7 2.6-3.9 2.6-6.3s-.9-4.6-2.6-6.3c-1.5-1.7-3.7-2.6-6.1-2.6zm62 9.2c-4.9 0-8.8 4-8.9 8.8 0 4.9 4 8.8 8.8 8.8 2.4 0 4.6-.9 6.2-2.6 1.7-1.7 2.6-3.9 2.6-6.3s-.9-4.6-2.6-6.2c-1.5-1.5-3.7-2.5-6.1-2.5zm230 249c0 4.4-3.6 8-8 8l-88.8-.1c-4.4 0-8-3.6-8-8s3.6-8 8-8l88.8.1c4.4 0 8 3.6 8 8zm-19.2 54.4c0 4.4-3.6 8-8 8l-175.4-.2c-4.4 0-8-3.6-8-8s3.6-8 8-8l175.4.2c4.4 0 8 3.6 8 8zM38.9 186.9c-2.4 0-4.6.9-6.3 2.6-1.7 1.7-2.6 3.9-2.6 6.3 0 4.9 4 8.8 8.8 8.9 2.4 0 4.6-.9 6.2-2.6 1.7-1.7 2.6-3.9 2.6-6.3.1-4.9-3.8-8.9-8.7-8.9zm.1-43.8c-2.4 0-4.6.9-6.3 2.6-1.7 1.7-2.6 3.9-2.6 6.3 0 4.9 4 8.8 8.8 8.9 2.4 0 4.6-.9 6.2-2.6 1.7-1.7 2.6-3.9 2.6-6.3s-.9-4.6-2.6-6.3c-1.6-1.7-3.8-2.6-6.1-2.6zm440.6-8.2c0 4.4-3.6 8-8 8h-11.4v11.4c0 4.4-3.6 8-8 8s-8-3.6-8-8v-11.4h-11.4c-4.4 0-8-3.6-8-8s3.6-8 8-8h11.4v-11.4c0-4.4 3.6-8 8-8s8 3.6 8 8v11.4h11.4c4.5 0 8.1 3.6 8 8zM265.4 256c0-4.4 3.6-8 8-8l73.8.1c4.4 0 8 3.6 8 8s-3.6 8-8 8l-73.8-.1c-4.4 0-8-3.6-8-8zm-24.6 236.4l-169.6-.2c-18.1 0-32.8-14.8-32.8-32.9 0-5.7 1.6-11.4 4.5-16.4L103.8 339s30.7.8 60.6 16.5c7 3.7 21.4 5.1 34.1 5.5 14.8.5 28.4 8.6 35.8 21.5l34.9 60.6c3 5.1 4.5 10.8 4.5 16.4 0 18.2-14.8 32.9-32.9 32.9z" opacity=".25" fill="#000"/><path d="M290.1 500.4s-.1 0 0 0l-218.8-.3c-10.9 0-21.1-4.3-28.8-12-7.7-7.7-11.9-18-11.9-28.9 0-7.1 2-14.2 5.6-20.5l93.1-159.5.2-159c0-2.1.8-4.2 2.4-5.7 1.5-1.5 3.5-2.3 5.6-2.3l87.5.1c2.1 0 4.2.8 5.7 2.4 1.5 1.5 2.3 3.5 2.3 5.7l-.2 141c0 4.4-3.6 8-8 8s-8-3.6-8-8l.2-133-71.5-.1-.2 153.1c0 1.4-.4 2.8-1.1 4L49.9 446.9c-2.3 3.9-3.5 8.2-3.5 12.4 0 6.6 2.6 12.8 7.3 17.5 4.7 4.7 10.9 7.3 17.5 7.3l218.8.3c6.6 0 12.8-2.6 17.5-7.3 4.7-4.7 7.3-10.9 7.3-17.5 0-4.3-1.2-8.6-3.4-12.4L220 290.6l-39.2-.1c-4.4 0-8-3.6-8-8v-21.9c0-2.1.8-4.2 2.4-5.7 1.5-1.5 3.5-2.3 5.6-2.3h13.9v-5.9h-13.9c-4.4 0-8-3.6-8-8v-21.9c0-2.1.8-4.2 2.4-5.7 1.5-1.5 3.5-2.3 5.6-2.3h13.9v-5.9h-13.9c-4.4 0-8-3.6-8-8V173c0-4.4 3.6-8 8-8h13.9v-13.9c0-4.4 3.6-8 8-8s8 3.6 8 8V173c0 4.4-3.6 8-8 8h-13.9v5.9h13.9c4.4 0 8 3.6 8 8v21.9c0 4.4-3.6 8-8 8h-13.9v5.9h13.9c4.4 0 8 3.6 8 8v21.9c0 2.1-.8 4.2-2.4 5.7-1.5 1.5-3.5 2.3-5.6 2.3h-13.9v5.9h36.5c1.2.1 2.2.5 3.2 1s1.8 1.3 2.5 2.2c.2.3.4.5.5.8L325.1 439c3.7 6.3 5.6 13.4 5.6 20.5 0 10.9-4.3 21.1-12 28.8-7.5 7.9-17.7 12.1-28.6 12.1z" fill="#000"/></svg>