<svg width="512" height="512" viewBox="0 0 512 512" fill="none" xmlns="http://www.w3.org/2000/svg"><path d="M473.3 462.1v23.2h-22.5v-23.2h22.5zm-112.3 0v23.2h22.5v-23.2H361zm67.1.6l-.3 23.2-21.5-.2.3-23.2 21.5.2zm-111.4-1.2l-.3 23.2 21.5.2.3-23.2-21.5-.2zm-207.5 5.201c0 4.4-3.6 8-8 8H42c-4.4 0-8-3.6-8-8s3.6-8 8-8h59.2c4.5 0 8 3.6 8 8zm378.3-429.9h-175c-4.4 0-8 3.6-8 8s3.6 8 8 8h175c4.4 0 8-3.6 8-8s-3.6-8-8-8zM55.7 68.7h3.9v3.9c0 4.4 3.6 8 8 8s8-3.6 8-8v-3.9h3.9c4.4 0 8-3.6 8-8s-3.6-8-8-8h-3.9v-3.9c0-4.4-3.6-8-8-8s-8 3.6-8 8v3.9h-3.9c-4.4 0-8 3.6-8 8s3.6 8 8 8zm192.2 48.9c4.8-14.6-2.4-67.2 13.6-57.3 12.1 7.5 17.6 22.6 13.1 36.2-4.2 12.2-15 20-26.7 21.1zm-29.8 304.7c-2.6 0-5.2-.2-7.6-.5 8 10.4 20.2 18.1 38.2 18.1 34 0 47.3-27.4 50.8-48.8h-25.9c-5.6 0-10.9 3-13.7 7.8-7.8 13-20.8 23.4-41.8 23.4zM359 313c-9.4-65.1-22-151.9-87.7-167.8 39.5 31.5 37.2 153.3 37.2 153.5.4 33.2-9.2 38-40.1 38H164.1c-29.2 0-33.6 25.2-35 32.4-.2 1-.3 1.8-.5 2.6H368c-4.8-34.7-6.2-39.4-9-58.7z" opacity=".25" fill="#000"/><path d="M248.7 447.999c-39 0-52.5-26.6-57-41.5h-66.9c-4.4 0-8-3.6-8-8s3.6-8 8-8H198c3.8 0 7.1 2.7 7.9 6.5 2 10.5 10.3 35 42.9 35 32.6 0 40.9-24.5 42.9-35 .7-3.8 4-6.5 7.9-6.5h72.7c4.4 0 8 3.6 8 8s-3.6 8-8 8h-66.4c-4.6 14.8-18.1 41.5-57.2 41.5zm-120.1-68.4c-.5 0-1.1-.1-1.6-.2-4.3-.9-7.1-5.1-6.3-9.4 2.2-11 7.9-45 9.8-58.1 5.1-35.5 11.5-79.6 27.6-114.4 19.3-41.7 49.8-62.9 90.6-62.9s71.3 21.1 90.6 62.9c16.1 34.8 22.5 78.9 27.6 114.4 1.1 7.5 2 12.8 2.9 18.5 1.5 8.9 3.1 19 6.1 40.1.3 2.3-.4 4.6-1.9 6.4-1.5 1.7-3.7 2.7-6 2.7H154c-4.4 0-8-3.6-8-8s3.6-8 8-8h204.8c-2.1-14.9-3.5-23.2-4.7-30.6-.9-5.7-1.8-11.2-2.9-18.8-5-34.5-11.1-77.3-26.3-110-16.7-36.1-41.6-53.6-76.1-53.6-34.5 0-59.4 17.5-76.1 53.6-15.1 32.6-21.3 75.5-26.3 109.9-1.9 13.3-7.7 47.8-9.9 59-.8 3.9-4.1 6.5-7.9 6.5zm120.1-249.7c-21.6 0-39.1-17.5-39.1-39.1s17.5-39.1 39.1-39.1 39.1 17.5 39.1 39.1-17.5 39.1-39.1 39.1zm0-62.2c-12.7 0-23.1 10.4-23.1 23.1 0 12.7 10.4 23.1 23.1 23.1 12.7 0 23.1-10.4 23.1-23.1 0-12.7-10.3-23.1-23.1-23.1z" fill="#000"/></svg>