<svg width="512" height="512" viewBox="0 0 512 512" fill="none" xmlns="http://www.w3.org/2000/svg"><path opacity=".25" d="M24.5 332.7h57.8L24.5 448.3V332.7zm423.9-197.3h21.8v56.9h-21.8v-56.9zm-53.3-76.9v21.8h-56.9V58.5h56.9zm75.1 0v58.7h-21.8V80.3h-35.1V58.5h56.9zM135.4 474.7c0 5.9-4.8 10.8-10.8 10.8-5.9 0-10.8-4.8-10.8-10.8 0-5.9 4.8-10.8 10.8-10.8 6 .1 10.8 4.9 10.8 10.8zm329.4-121.5H449v-15.8c0-4.4-3.6-8-8-8s-8 3.6-8 8v15.8h-15.8c-4.4 0-8 3.6-8 8s3.6 8 8 8H433V385c0 4.4 3.6 8 8 8s8-3.6 8-8v-15.8h15.8c4.4 0 8-3.6 8-8s-3.6-8-8-8zM428 285.3c4.4 0 8-3.6 8-8 0-5.7 4.7-10.4 10.4-10.4s10.4 4.7 10.4 10.4c0 4.4 3.6 8 8 8s8-3.6 8-8c0-14.6-11.8-26.4-26.4-26.4-14.6 0-26.4 11.9-26.4 26.4 0 4.4 3.6 8 8 8zm-320.2-27.8c0-4.4-3.6-8-8-8H32c-4.4 0-8 3.6-8 8s3.6 8 8 8h67.8c4.4 0 8-3.6 8-8zM119 127c1.6 1.6 3.6 2.3 5.7 2.3s4.1-.8 5.7-2.3c3.1-3.1 3.1-8.2 0-11.3l-48-47.9c-3.1-3.1-8.2-3.1-11.3 0-3.1 3.1-3.1 8.2 0 11.3L119 127zM254.3 7.8c-4.4 0-8 3.6-8 8v57.8c0 4.4 3.6 8 8 8s8-3.6 8-8V15.8c0-4.4-3.6-8-8-8zM179.6 59c-2.4-.5-4.8-.1-6.8 1.2a8.9 8.9 0 00-3.9 5.7c-.5 2.4-.1 4.8 1.2 6.8s3.3 3.4 5.7 3.9c.6.1 1.3.2 1.9.2 4.2 0 7.9-2.9 8.8-7.1.5-2.4.1-4.8-1.2-6.8a8.9 8.9 0 00-5.7-3.9zm-78.4 111.4c-4.9-1.1-9.7 2-10.7 6.9-1.1 4.9 2 9.7 6.9 10.7.6.1 1.3.2 1.9.2 1.7 0 3.4-.5 4.9-1.4 2-1.3 3.4-3.3 3.9-5.7.5-2.4.1-4.8-1.2-6.8a8.9 8.9 0 00-5.7-3.9zm32 199.7l-29.5 29.5c-3.1 3.1-3.1 8.2 0 11.3 1.6 1.6 3.6 2.3 5.7 2.3s4.1-.8 5.7-2.3l29.5-29.5c3.1-3.1 3.1-8.2 0-11.3a8.15 8.15 0 00-11.4 0z" fill="#000"/><g opacity=".25" fill="#000"><path d="M253.2 415.2c0 12.9 8.1-4.7 8.1-4.7l-.3-23.3 47-21.2 20.9-9.4v29.2c4.8 3 10.5 6 17.3 8.9 47.4 20.7 76.6 34.5 81.8 93H279l-15.4 8.2s-30.2 11.7-52.5-37.8c-5.4-11.9-8.7-26.3-8.7-42.8h50.8v-.1z"/><path d="M344.6 283c-6.5 54.7-54 74.2-74.5 80.1 9.3-.1 18.3-1.6 24.9-5.4 22-12.9 0 15.9 0 15.9l-30.2 12.1V181.4c0-15.2 13.2-26.9 28.3-25.1 23.6 2.8 51.5 6.6 51.5 6.6s8.3 50.1 0 120.1z"/></g><path d="M442.1 495c0-4.4-.4-20-7.4-38.1-7.5-19.5-24.4-45.9-62-61.1-14.3-5.8-26.4-11.6-35.8-17.3v-21.9c0-2.7-1.4-5.2-3.7-6.7-2.3-1.5-5.2-1.7-7.6-.6l-3.2 1.4c2.2-1.8 4.3-3.8 6.4-5.9 14.2-14.3 22.3-31.5 26.6-43.3 2.9-8 4.4-16.4 4.4-25V154.3c0-2.6-1.3-5.1-3.5-6.6s-4.9-1.8-7.4-.9c-15.1 5.8-30 2.1-45.7-1.9-13.7-3.4-27.9-7-43.1-4.5-4.4.7-7.3 4.8-6.6 9.2.7 4.4 4.8 7.3 9.2 6.6 11.9-1.9 23.9 1.1 36.6 4.2 14.2 3.6 28.9 7.2 44.5 4.3v111.6c0 6.7-1.1 13.3-3.4 19.5-8 22.1-28.5 59.1-75.5 59.1H210c-2.2-26.1-15.1-41.4-28.8-57.4l-.1-.2c-4.6-5.4-9.3-11-13.6-17-13.1-18.3-20-39.8-20-62.3 0-59.1 48.1-107.2 107.2-107.2h.1c5.6.1 15.6.5 19.3 1 9 1.3 17.2 3.7 25.2 5.9 11.3 3.2 22.8 6.5 35.6 6.5 9 0 18.7-1.6 29.3-6.1 4.1-1.7 6-6.4 4.3-10.5-1.7-4.1-6.4-6-10.5-4.3-20.6 8.6-35.5 4.3-54.5-1-8.5-2.4-17.2-4.9-27.2-6.4-5.7-.9-18.5-1.2-21.6-1.2h-.1c-67.9 0-123.2 55.3-123.2 123.2 0 25.8 7.9 50.6 23 71.6 4.7 6.6 9.6 12.4 14.5 18l.1.2c13.9 16.3 24.8 29.2 25.3 53.4-.1.5-.2 1.1-.2 1.6 0 .6.1 1.2.2 1.7v50.5c0 17 2.4 27.6 6.7 41.1 10.3 32.1 37.5 47 58.9 47.5.4 0 .7.1 1.1.1h173.1c4.5 0 8.1-3.6 8.1-8.1-.1 0-.1-.3-.1-.5zm-22.6-33c4 10.2 5.6 19.6 6.2 25.8H286.9c0-1-.1-1.9-.5-2.9l-10.2-27.7 18.7-17.5c2.7-2.5 3.3-6.6 1.5-9.8l-6.7-11.7 42.4-19.1c1.4-.6 2.6-1.7 3.4-2.9 8.9 4.8 19.3 9.7 31.2 14.5 25.7 10.2 43.5 27.5 52.8 51.3zm-158.1-12.9l-3.6 3.4h-41.2c-.1-.4-.3-.7-.4-1.1-3.3-10.4-5.2-18.1-5.8-28.9h43.8c1.2 0 2.3-.3 3.4-.8 1 .5 2.2.8 3.4.8h12.9l5.6 9.8-18.1 16.8s.1 0 0 0zm15.4-42.6H269v-14.1l51.9-23.4v17.7l-44.1 19.8zm-19.1-26.6c-2.9 1.3-4.7 4.1-4.7 7.3v19.3h-42.7V371h54.4c5.2 0 10.2-.4 15.1-1.1l-22.1 10zm-32.5 88.6h36.1c.3 0 .6 0 .8-.1h.2c.3-.1.6-.1.9-.2l7.2 19.6h-10.2c-11.7-.3-25.4-6.8-35-19.3z" fill="#000"/></svg>