<svg width="512" height="512" viewBox="0 0 512 512" fill="none" xmlns="http://www.w3.org/2000/svg"><path d="M482.5 18.9V37h-37.8V18.9h37.8zm-2.1 426v42.4h-96.7v-42.4h96.7zM95.1 462.3c0 4.4-3.6 8-8 8H71.3v15.8c0 4.4-3.6 8-8 8s-8-3.6-8-8v-15.8H39.5c-4.4 0-8-3.6-8-8s3.6-8 8-8h15.8v-15.8c0-4.4 3.6-8 8-8s8 3.6 8 8v15.8h15.8c4.4 0 8 3.6 8 8zM47 56.2c5.5 0 9.9-4.4 9.9-9.9s-4.4-9.9-9.9-9.9-9.9 4.4-9.9 9.9 4.4 9.9 9.9 9.9zm55.3-19.8c-5.5 0-9.9 4.4-9.9 9.9s4.4 9.9 9.9 9.9 9.9-4.4 9.9-9.9-4.4-9.9-9.9-9.9zM84 300.2l68.8-68.8c6.9-6.9 18-6.9 24.8 0l5 5c6.9 6.9 6.9 18 0 24.8L113.9 330c.1 0-4.7 5.6-6.3 13.7-3.4 17.1 9.7 34.5 21.3 46.1 9.9 9.9 24.8 21.7 39.7 21.7 9.1 0 16.3-4.4 19.4-6.6.8-.5 1.5-1.1 2.1-1.8l67.3-67.3c6.9-6.9 18-6.8 24.8 0l5 5c6.9 6.9 6.9 18 0 24.8l-68.8 68.8c-.3.3-19.7 19.2-49.8 19.2-19.5 0-43.5-8-69.5-34.1-34.2-34.2-36.7-64.7-32.8-84.2 4.2-21.4 17.2-34.6 17.7-35.1zM312.3 71.9l-68.8 68.8c-6.9 6.9-6.9 18 0 24.8l5 5c6.9 6.9 18 6.9 24.8 0l68.8-68.8c0 .1 5.6-4.7 13.7-6.3 17.1-3.4 34.5 9.7 46.1 21.3 9.9 9.9 21.7 24.8 21.7 39.7 0 9.1-4.4 16.3-6.6 19.4-.5.8-1.1 1.5-1.8 2.1L348 245.2c-6.9 6.9-6.8 18 0 24.8l5 5c6.9 6.9 18 6.9 24.8 0l68.8-68.8c.3-.3 19.2-19.7 19.2-49.8 0-19.5-8-43.5-34.1-69.5-34.2-34.2-64.7-36.7-84.2-32.8-21.5 4.3-34.7 17.3-35.2 17.8z" opacity=".25" fill="#000"/><path d="M168.5 461.7c-25.7 0-51-12.3-75.2-36.4-36.7-36.7-39.3-70-35-91.4 4.7-23.5 18.5-37.8 20-39.3l80.5-80.5c3.1-3.1 8.2-3.1 11.3 0 3.1 3.1 3.1 8.2 0 11.3l-80.5 80.5c-.1.1-11.8 12-15.6 31.2-3.5 17.6-1.1 45.3 30.6 77 21.1 21.1 42.6 31.7 63.9 31.7 26.4 0 43.9-16.6 44.2-16.9l80.5-80.5c3.1-3.1 8.2-3.1 11.3 0 3.1 3.1 3.1 8.2 0 11.3L224 440.2c-.2.1-21.6 21.5-55.5 21.5zm197.6-166.9c-2 0-4.1-.8-5.7-2.3-3.1-3.1-3.1-8.2 0-11.3l80.5-80.5c.1-.1 11.8-12 15.7-31.2 3.5-17.6 1.1-45.3-30.6-77-31.6-31.6-59.3-34.1-76.9-30.5-19.1 3.8-31 15.5-31.2 15.6l-80.5 80.5c-3.1 3.1-8.2 3.1-11.3 0-3.1-3.1-3.1-8.2 0-11.3l80.5-80.5c1.6-1.6 15.8-15.3 39.3-20 21.5-4.3 54.7-1.7 91.3 34.9 36.7 36.7 39.3 70 35 91.4-4.9 24.3-19.5 38.8-20.1 39.4l-80.5 80.5c-1.4 1.5-3.5 2.3-5.5 2.3zM157.2 179.3c0-4.4-3.6-8-8-8H85.9c-4.4 0-8 3.6-8 8s3.6 8 8 8h63.3c4.4 0 8-3.6 8-8zm63.3-42.2V73.8c0-4.4-3.6-8-8-8s-8 3.6-8 8v63.3c0 4.4 3.6 8 8 8s8-3.6 8-8zm232.2 190c0-4.4-3.6-8-8-8h-63.3c-4.4 0-8 3.6-8 8s3.6 8 8 8h63.3c4.4 0 8-3.6 8-8zM326.1 432.6v-63.3c0-4.4-3.6-8-8-8s-8 3.6-8 8v63.3c0 4.4 3.6 8 8 8s8-3.6 8-8zM177.8 150.8c3.1-3.1 3.1-8.2 0-11.3L133 94.7c-3.1-3.1-8.2-3.1-11.3 0-3.1 3.1-3.1 8.2 0 11.3l44.8 44.8c1.6 1.6 3.6 2.3 5.7 2.3 2 0 4-.8 5.6-2.3zm231.1 260.9c3.1-3.1 3.1-8.2 0-11.3l-44.8-44.8c-3.1-3.1-8.2-3.1-11.3 0-3.1 3.1-3.1 8.2 0 11.3l44.8 44.8c1.6 1.6 3.6 2.3 5.7 2.3s4.1-.7 5.6-2.3z" fill="#000"/></svg>