<svg width="512" height="512" viewBox="0 0 512 512" fill="none" xmlns="http://www.w3.org/2000/svg"><path opacity=".25" d="M398.8 379.6l18.6 92.8-62.9-31.4v-95c-19.4 0-35.1-15.7-35.1-35.1 0-19.4 15.7-35.1 35.1-35.1V229c45.1 0 81.8 36.7 81.8 81.8 0 22.9-9.5 43.6-24.8 58.5-3.8 3.8-8.1 7.3-12.7 10.3z" fill="#000"/><path d="M109 190.3c-4.4 0-8-3.6-8-8s3.6-8 8-8h296v-15.4c0-4.4 3.6-8 8-8s8 3.6 8 8v23.4c0 4.4-3.6 8-8 8H109zm298.7 192.9c3.3-2.4 6.4-5.1 9.4-8 17.6-17 27.2-39.8 27.2-64.2 0-49.5-40.3-89.8-89.8-89.8s-89.8 40.3-89.8 89.8c0 5 .3 9.2 1.1 13.1.8 4.3 5 7.2 9.3 6.4 4.3-.8 7.2-5 6.4-9.3-.5-3-.8-6.3-.8-10.3 0-40.7 33.1-73.8 73.8-73.8 40.7 0 73.8 33.1 73.8 73.8 0 20-7.9 38.8-22.4 52.7-3.7 3.5-7.5 6.6-11.5 9.2-2.8 1.8-4.2 5.1-3.5 8.3l15.4 76.8-48.3-24.1c-2.3-1.1-4.9-1.1-7.2 0l-48.3 24.1 15.3-76.7c.6-3.2-.7-6.4-3.4-8.2-3.7-2.5-7.3-5.5-11.4-9.4-1.5-1.4-3.5-2.3-5.6-2.3H46.8v-75.6c0-4.4-3.6-8-8-8s-8 3.6-8 8v83.6c0 4.4 3.6 8 8 8h255.6c2.3 2.1 4.6 4 6.8 5.8l-17.5 87.7c-.6 3 .6 6.1 3 7.9 2.4 1.9 5.7 2.2 8.4.8l59.3-29.7 59.3 29.7c1.1.6 2.4.8 3.6.8 1.7 0 3.4-.6 4.9-1.6 2.4-1.9 3.6-4.9 3-7.9l-17.5-87.6zm75.4-302.4H38.8c-4.4 0-8 3.6-8 8v163.8c0 4.4 3.6 8 8 8s8-3.6 8-8V96.8h428.3v264.6h-28.4c-4.4 0-8 3.6-8 8s3.6 8 8 8h36.4c4.4 0 8-3.6 8-8V88.8c0-4.4-3.5-8-8-8zm-131 296.7c.9 0 1.7-.1 2.6-.1 17.7-.3 34.4-7.2 46.8-19.6 12.6-12.5 19.5-29.1 19.5-46.8 0-36.6-29.8-66.5-66.5-66.5S288 274.3 288 311c0 4.4 3.6 8 8 8s8-3.6 8-8c0-27.8 22.6-50.5 50.5-50.5S405 283.1 405 311s-22.2 50-50.6 50.5c-.9 0-1.9 0-2.9.1-3.8.1-7.8.3-13.7-.9-.8-.2-1.6-.2-2.4-.1-1.3.2-2.6.7-3.6 1.4-.9.6-1.6 1.5-2.1 2.4-.4.7-.7 1.4-.8 2.2v.1L316 428.5c-.6 3 .6 6.1 3 7.9 1.4 1.1 3.1 1.6 4.9 1.6 1.2 0 2.4-.3 3.6-.8l27.1-13.5 27.1 13.5c2.7 1.4 6 1.1 8.4-.8 2.4-1.9 3.6-4.9 3-7.9l-8.1-40.6c-.9-4.3-5.1-7.1-9.4-6.3-4.3.9-7.1 5.1-6.3 9.4l4.9 24.6-16-8c-2.3-1.1-4.9-1.1-7.2 0l-16 8 7.7-38.2c3.7.3 6.7.2 9.4.1z" fill="#000"/><path opacity=".25" d="M38.2 427.7l60.9 60.9H38.2v-60.9zm163.3 10.1c3.1 3.1 3.1 8.2 0 11.3-1.6 1.6-3.6 2.3-5.7 2.3s-4.1-.8-5.7-2.3l-2.7-2.7-2.7 2.7c-1.6 1.6-3.6 2.3-5.7 2.3-2 0-4.1-.8-5.7-2.3-3.1-3.1-3.1-8.2 0-11.3l2.7-2.7-2.7-2.7c-3.1-3.1-3.1-8.2 0-11.3 3.1-3.1 8.2-3.1 11.3 0l2.7 2.7 2.7-2.7c3.1-3.1 8.2-3.1 11.3 0 3.1 3.1 3.1 8.2 0 11.3l-2.7 2.7 2.9 2.7zm-97-160H32.8c-4.4 0-8 3.6-8 8s3.6 8 8 8h71.6c4.4 0 8-3.6 8-8s-3.5-8-7.9-8zm-18.2-22.9c0-4.4-3.6-8-8-8H17.6c-4.4 0-8 3.6-8 8s3.6 8 8 8h60.7c4.5 0 8-3.5 8-8zm54.9-224.5H64c-4.4 0-8 3.6-8 8s3.6 8 8 8h77.2c4.4 0 8-3.6 8-8s-3.6-8-8-8zm46.2 18.8c5.9 0 10.8-4.8 10.8-10.8 0-6-4.8-10.8-10.8-10.8-5.9 0-10.8 4.8-10.8 10.8 0 6 4.9 10.8 10.8 10.8z" fill="#000"/></svg>