<svg width="512" height="512" viewBox="0 0 512 512" fill="none" xmlns="http://www.w3.org/2000/svg"><path opacity=".25" d="M132.5 268.3h49.4v197.6h-49.4V268.3zM256 465.9h49.4v-247H256v247zm123.5-148.2v148.2h49.4V317.7h-49.4z" fill="#000"/><path d="M453.6 457.9h-16.7V317.7c0-4.4-3.6-8-8-8h-49.4c-4.4 0-8 3.6-8 8v140.2h-58.1v-239c0-4.4-3.6-8-8-8H256c-4.4 0-8 3.6-8 8v239h-58.1V268.3c0-4.4-3.6-8-8-8h-49.4c-4.4 0-8 3.6-8 8v189.6H66.4V144.8c0-4.4-3.6-8-8-8s-8 3.6-8 8v321.1c0 4.4 3.6 8 8 8h395.2c4.4 0 8-3.6 8-8s-3.6-8-8-8zm-313.1 0V276.3h33.4v181.6h-33.4zm123.5 0v-231h33.4v231H264zm123.5 0V325.7h33.4v132.2h-33.4z" fill="#000"/><path d="M52 26h80.3v37.3H52V26zm93.3.8h73.1v35.8h-73.1V26.8zM86.5 136.6c0-4.4 3.6-8 8-8h15.8v-15.8c0-4.4 3.6-8 8-8s8 3.6 8 8v15.8h15.8c4.4 0 8 3.6 8 8s-3.6 8-8 8h-15.8v15.8c0 4.4-3.6 8-8 8s-8-3.6-8-8v-15.8H94.5c-4.4 0-8-3.6-8-8zm356.8 27.9c-3.7-2.5-8.6-1.5-11.1 2.2l-54.3 80.9-116.6-101.9c-2.5-2.2-6.2-2.6-9.1-1L92.6 233c-3.9 2.1-5.3 7-3.1 10.9 2.1 3.9 7 5.3 10.9 3.1L255 161.5l119.3 104.1c1.5 1.3 3.3 2 5.3 2 .3 0 .7 0 1-.1 2.3-.3 4.3-1.6 5.6-3.5l59.4-88.4c2.4-3.7 1.4-8.7-2.3-11.1zm24.3-54.8l-79.5 44.8c-3.8 2.2-5.2 7-3 10.9 2.2 3.8 7 5.2 10.9 3l67.6-38.1v80.3c0 4.4 3.6 8 8 8s8-3.6 8-8v-94c0-2.8-1.5-5.5-4-6.9-2.5-1.3-5.5-1.4-8 0zM353 117.1c-3.1-3.1-8.2-3.1-11.3 0l-2.7 2.7-2.7-2.7c-3.1-3.1-8.2-3.1-11.3 0-3.1 3.1-3.1 8.2 0 11.3l2.8 2.8-2.8 2.8c-3.1 3.1-3.1 8.2 0 11.3 1.6 1.6 3.6 2.3 5.7 2.3s4.1-.8 5.7-2.3l2.7-2.7 2.7 2.7c1.6 1.6 3.6 2.3 5.7 2.3s4.1-.8 5.7-2.3c3.1-3.1 3.1-8.2 0-11.3l-2.8-2.8 2.8-2.8c3-3.1 3-8.2-.2-11.3zm140.6 266.7h-3.9v-3.9c0-4.4-3.6-8-8-8s-8 3.6-8 8v3.9h-3.9c-4.4 0-8 3.6-8 8s3.6 8 8 8h3.9v3.9c0 4.4 3.6 8 8 8s8-3.6 8-8v-3.9h3.9c4.4 0 8-3.6 8-8s-3.6-8-8-8zM267.7 76.5h117.4c4.4 0 8-3.6 8-8s-3.6-8-8-8H267.7c-4.4 0-8 3.6-8 8s3.6 8 8 8zm141.6-29.6h59.2c4.4 0 8-3.6 8-8s-3.6-8-8-8h-59.2c-4.4 0-8 3.6-8 8s3.6 8 8 8z" opacity=".25" fill="#000"/></svg>