<svg width="512" height="512" viewBox="0 0 512 512" fill="none" xmlns="http://www.w3.org/2000/svg"><path opacity=".25" d="M488.4 73.2L414.3 165v269.8c0 18-14.6 32.5-32.5 32.5h-77.2c-18 0-32.5-14.6-32.5-32.5V144.2c0-18 14.6-32.5 32.5-32.5h55.7c8.6 0 16.9 3.4 23 9.5l6.7 6.8c1.1 1.1 43.9-54.8 47-58.6l18.9-23.1 32.5 26.2c.1.1.2.4 0 .7zM74.7 12.3l-60.9 61v-61h60.9z" fill="#000"/><path opacity=".25" d="M505.2 429.9c0 4.4-3.6 8-8 8h-15.8v15.8c0 4.4-3.6 8-8 8s-8-3.6-8-8v-15.8h-15.8c-4.4 0-8-3.6-8-8s3.6-8 8-8h15.8v-15.8c0-4.4 3.6-8 8-8s8 3.6 8 8v15.8h15.8c4.4 0 8 3.6 8 8zm-45.6-225.5c5.9 0 10.8-4.8 10.8-10.8 0-6-4.8-10.8-10.8-10.8-5.9 0-10.8 4.8-10.8 10.8 0 6 4.8 10.8 10.8 10.8zM264.7 20.6H161.9c-4.4 0-8 3.6-8 8s3.6 8 8 8h102.8c4.4 0 8-3.6 8-8s-3.5-8-8-8zm137 0H298.9c-4.4 0-8 3.6-8 8s3.6 8 8 8h102.8c4.4 0 8-3.6 8-8s-3.5-8-8-8zm-314.9 221h-43c-4.4 0-8 3.6-8 8s3.6 8 8 8h43c4.4 0 8-3.6 8-8s-3.6-8-8-8zm-13-20c0-4.4-3.6-8-8-8h-43c-4.4 0-8 3.6-8 8s3.6 8 8 8h43c4.4 0 8-3.5 8-8zM451 254v85c0 4.4 3.6 8 8 8s8-3.6 8-8v-85c0-4.4-3.6-8-8-8s-8 3.6-8 8z" fill="#000"/><path d="M351.2 182.8c0 4.4-3.6 8-8 8H224.6c-4.4 0-8-3.6-8-8v-23.7c0-4.4 3.6-8 8-8s8 3.6 8 8v15.7h110.5c4.5 0 8.1 3.5 8.1 8zm-8 63.1H232.6v-15.7c0-4.4-3.6-8-8-8s-8 3.6-8 8v23.7c0 4.4 3.6 8 8 8h118.5c4.4 0 8-3.6 8-8s-3.5-8-7.9-8zm0 71.1H232.6v-15.7c0-4.4-3.6-8-8-8s-8 3.6-8 8V325c0 4.4 3.6 8 8 8h118.5c4.4 0 8-3.6 8-8s-3.5-8-7.9-8zm-118.6 47.4c-4.4 0-8 3.6-8 8v23.7c0 4.4 3.6 8 8 8h118.5c4.4 0 8-3.6 8-8s-3.6-8-8-8H232.6v-15.7c0-4.4-3.6-8-8-8zm-15.7-205.3c0-4.4-3.6-8-8-8h-23.7c-4.4 0-8 3.6-8 8s3.6 8 8 8h15.7v15.7c0 4.4 3.6 8 8 8s8-3.6 8-8v-23.7zm0 71.1c0-4.4-3.6-8-8-8h-23.7c-4.4 0-8 3.6-8 8s3.6 8 8 8h15.7v15.7c0 4.4 3.6 8 8 8s8-3.6 8-8v-23.7zm0 71.1c0-4.4-3.6-8-8-8h-23.7c-4.4 0-8 3.6-8 8s3.6 8 8 8h15.7V325c0 4.4 3.6 8 8 8s8-3.6 8-8v-23.7zm-8 102.8c4.4 0 8-3.6 8-8v-23.7c0-4.4-3.6-8-8-8h-23.7c-4.4 0-8 3.6-8 8s3.6 8 8 8h15.7v15.7c0 4.4 3.6 8 8 8zM388.4 205h.4c2.3-.1 4.4-1.2 5.8-3L495 77.8c2.8-3.4 2.2-8.4-1.2-11.2l-32.7-26.8c-3.4-2.8-8.5-2.3-11.3 1.1-.1.1-.2.2-.2.3l-45.3 56-38.7-38.7c-1.5-1.5-3.5-2.3-5.7-2.3H106.1c-4.4 0-8 3.6-8 8v403c0 4.4 3.6 8 8 8h308.2c4.4 0 8-3.6 8-8V216c0-4.4-3.6-8-8-8s-8 3.6-8 8v243.3H114.1v-387h242.6l37.5 37.5-9.9 12.2-21.3-21.3c-3.1-3.1-8.2-3.1-11.3 0l-10 10c-3.1 3.1-3.1 8.2 0 11.3 3.1 3.1 8.2 3.1 11.3 0l4.3-4.3 21.9 21.9c1.6 1.6 3.8 2.4 6.1 2.3 2.3-.1 4.4-1.2 5.8-3l66-81.7 20.3 16.6-89.8 111.1-54.5-54.5c-3.1-3.1-8.2-3.1-11.3 0-3.1 3.1-3.1 8.2 0 11.3l60.8 60.7c1.6 1.8 3.7 2.6 5.8 2.6z" fill="#000"/></svg>