<svg width="512" height="512" viewBox="0 0 512 512" fill="none" xmlns="http://www.w3.org/2000/svg"><path d="M370 85.2l-45.1 55.4c-7.4 9.1-6 22.5 3.1 29.9l14.8 12c9.1 7.4 10.5 20.8 3.1 29.9l-125 153.1c-7.9 9.7-22.5 10.5-31.4 1.6L108 285.7c-8.3-8.3-21.7-8.3-30 0l-15 15 128.9 128.7c8.9 8.9 23.6 8.1 31.5-1.7l224.5-278c.5-.6.4-1.4-.2-1.9L370 85.2z" fill="#000" fill-opacity=".25"/><path d="M208.5 454.1c-2.1 0-4.1-.8-5.7-2.3L57.3 306.4c-1.5-1.5-2.3-3.5-2.3-5.7 0-2.1.8-4.2 2.3-5.7l23.8-23.8c3.1-3.1 8.2-3.1 11.3 0 3.1 3.1 3.1 8.2 0 11.3l-18.1 18.1L207.9 434l229.6-284.2-48.7-39.3c-3.4-2.8-4-7.8-1.2-11.3 2.8-3.4 7.8-4 11.3-1.2l54.9 44.3c1.7 1.3 2.7 3.3 2.9 5.4.2 2.1-.4 4.2-1.7 5.9L214.8 451.1c-1.4 1.8-3.5 2.8-5.8 3h-.5zm-8.2-151c-2.1 0-4.1-.8-5.7-2.3l-60.3-60.2-18.2 18.2c-3.1 3.1-8.2 3.1-11.3 0-3.1-3.1-3.1-8.2 0-11.3l23.9-23.9c3.1-3.1 8.2-3.1 11.3 0l59.7 59.6 164-202.9c2.8-3.4 7.8-4 11.3-1.2 3.4 2.8 4 7.8 1.2 11.3L206.6 300.1c-1.4 1.8-3.5 2.8-5.8 3h-.5z" fill="#000"/><path d="M118.5 435.6c0 4.4-3.6 8-8 8h-65c-4.4 0-8-3.6-8-8s3.6-8 8-8h65c4.4 0 8 3.6 8 8zm-3-161c0-4.4-3.6-8-8-8H20.6c-4.4 0-8 3.6-8 8s3.6 8 8 8h86.8c4.5 0 8.1-3.5 8.1-8zM173 44.4c0 5-4.1 9-9 9s-9-4.1-9-9 4.1-9 9-9 9 4 9 9zm30 0c0 5-4.1 9-9 9s-9-4.1-9-9 4.1-9 9-9 9 4 9 9zm11.9 0c0-5 4.1-9 9-9s9 4.1 9 9-4.1 9-9 9-9-4-9-9zm-81.9-8H45.5c-4.4 0-8 3.6-8 8V222c0 4.4 3.6 8 8 8s8-3.6 8-8V52.4H133c4.4 0 8-3.6 8-8s-3.6-8-8-8zm120.4 16H341c4.4 0 8-3.6 8-8s-3.6-8-8-8h-87.6c-4.4 0-8 3.6-8 8s3.6 8 8 8zm234 415.2H225c-4.4 0-8 3.6-8 8s3.6 8 8 8h262.4c4.4 0 8-3.6 8-8s-3.6-8-8-8zm0-40H291.6c-4.4 0-8 3.6-8 8s3.6 8 8 8h195.8c4.4 0 8-3.6 8-8s-3.6-8-8-8zm-154.4-32c0 4.4 3.6 8 8 8h146.4c4.4 0 8-3.6 8-8s-3.6-8-8-8H341c-4.5 0-8 3.6-8 8z" fill="#000"/><path opacity=".25" d="M87.5 99.8c-8.4 0-15.2-6.8-15.2-15.2 0-8.4 6.8-15.2 15.2-15.2 8.4 0 15.2 6.8 15.2 15.2 0 8.4-6.8 15.2-15.2 15.2zm65.2-15.2c0-8.4-6.8-15.2-15.2-15.2-8.4 0-15.2 6.8-15.2 15.2 0 8.4 6.8 15.2 15.2 15.2 8.4 0 15.2-6.8 15.2-15.2zm50 0c0-8.4-6.8-15.2-15.2-15.2-8.4 0-15.2 6.8-15.2 15.2 0 8.4 6.8 15.2 15.2 15.2 8.4 0 15.2-6.8 15.2-15.2zm-50 50c0-8.4-6.8-15.2-15.2-15.2-8.4 0-15.2 6.8-15.2 15.2 0 8.4 6.8 15.2 15.2 15.2 8.4 0 15.2-6.8 15.2-15.2zm-50 0c0-8.4-6.8-15.2-15.2-15.2-8.4 0-15.2 6.8-15.2 15.2 0 8.4 6.8 15.2 15.2 15.2 8.4 0 15.2-6.8 15.2-15.2zm0 50c0-8.4-6.8-15.2-15.2-15.2-8.4 0-15.2 6.8-15.2 15.2 0 8.4 6.8 15.2 15.2 15.2 8.4 0 15.2-6.8 15.2-15.2zm384.7 50.6v125.1H362.3l125.1-125.1z" fill="#000"/></svg>