<svg width="512" height="512" viewBox="0 0 512 512" fill="none" xmlns="http://www.w3.org/2000/svg"><path opacity=".25" d="M198.5 328.4h-33.9c-11.6 0-22.5-2.5-32.4-7-6.7-3-4.6-13 2.8-13h63.6v20h-.1zm203.1-118.5h-.7c-4.4-30.4-28.6-54.5-59-58.6 0 0-9.2-79.6-88.4-79.6h-.2c-8.1 0-12.9 9.3-8.4 16 5.1 7.5 8.7 15.1 11.3 21.9 4.5 12.1 13.6 22 25.3 27.5 19 8.8 33.3 25.9 38.2 46.7.9 3.6 3.9 6.2 7.6 6.5h.1c30.4 2.9 54.1 28.9 53.5 60.1-.6 32.4-27.7 58.2-60.1 58.2h-68.2c-11.1 0-20 9-20 20V416c0 5.4-4.4 9.8-9.8 9.8h-11.3c-3.1 0-5.7 2.5-5.7 5.7v5.7c0 3.1 2.5 5.7 5.7 5.7l19.3 22.3 81.5-90.2-21-21-35 25.2v-50.6h144.5c32.5 0 59.7-25.8 60.1-58.4.5-33.3-26.3-60.3-59.3-60.3z" fill="#000"/><path d="M468.9 269.1c0 37.1-30.2 67.3-67.3 67.3H265.7v28.4l18.2-18.2c3.1-3.1 8.2-3.1 11.3 0l24 24c3.1 3.1 3.1 8.2 0 11.3l-84.9 84.9c-1.6 1.6-3.6 2.3-5.7 2.3-2 0-4.1-.8-5.7-2.3l-85-84.9c-1.5-1.5-2.3-3.5-2.3-5.7 0-2.1.8-4.2 2.3-5.7l24-24c1.5-1.5 3.5-2.3 5.7-2.3 2.1 0 4.2.8 5.7 2.3l19.7 19.7-.1-127.2c0-2.1.8-4.2 2.3-5.7 1.5-1.5 3.5-2.3 5.7-2.3H257c4.4 0 8 3.6 8 8v39.5c0 4.4-3.6 8-8 8s-8-3.6-8-8V247h-40.1l.1 138.7c0 3.2-1.9 6.2-4.9 7.4-3 1.2-6.4.6-8.7-1.7l-27.7-27.7-12.7 12.5 73.7 73.6 73.6-73.6-12.7-12.7-26.2 26.2c-2.3 2.3-5.7 3-8.7 1.7-3-1.2-4.9-4.2-4.9-7.4v-79.3c0-4.4 3.6-8 8-8s8 3.6 8 8v15.5h135.9c28.3 0 51.3-23 51.3-51.3 0-28.3-23-51.3-51.3-51.3h-.7c-4 0-7.4-2.9-7.9-6.9-3.9-26.9-25.3-48.2-52.2-51.8-4.4-.6-7.4-4.6-6.8-9 .6-4.4 4.6-7.4 9-6.8 31.7 4.3 57.4 28.1 64.6 58.8 34.2 3.2 61.2 32.1 61.2 67.2zm-289.7 67.3c4.4 0 8-3.6 8-8s-3.6-8-8-8h-14.6c-39.2 0-71-31.9-71-71 0-42.5 25.7-69.9 72.3-77.3 3.9-.6 6.7-4 6.7-7.9v-3.7c0-44.6 36.3-80.9 80.9-80.9 30.5 0 58.1 16.9 72.1 44.2 2 3.9 6.8 5.5 10.8 3.5 3.9-2 5.5-6.8 3.5-10.8-16.7-32.6-49.8-52.9-86.3-52.9-52.4 0-95.2 41.8-96.8 93.9-50.4 10.3-79.1 43.5-79.1 91.9 0 48 39 87 87 87h14.5z" fill="#000"/><path d="M21.6 433.1H38v16.4H21.6v-16.4zm0-141H38v114.4H21.6V292.1zm0 181H38v16.4H21.6v-16.4zM475 108.7l-60.9-60.9H475v60.9zM53.4 49.4c0 4.4-3.6 8-8 8h-3.9v3.9c0 4.4-3.6 8-8 8s-8-3.6-8-8v-3.9h-3.9c-4.4 0-8-3.6-8-8s3.6-8 8-8h3.9v-3.9c0-4.4 3.6-8 8-8s8 3.6 8 8v3.9h3.9c4.4 0 8 3.6 8 8zM373 120.7c0-4.4-3.6-8-8-8h-86.8c-4.4 0-8 3.6-8 8s3.6 8 8 8H365c4.4 0 8-3.6 8-8zm31.7 31c0-4.4-3.6-8-8-8h-68.2c-4.4 0-8 3.6-8 8s3.6 8 8 8h68.2c4.4 0 8-3.6 8-8zM456 461.2h-86.8c-4.4 0-8 3.6-8 8s3.6 8 8 8H456c4.4 0 8-3.6 8-8s-3.6-8-8-8zm-53.2-20.1c0-4.4-3.6-8-8-8h-57.4c-4.4 0-8 3.6-8 8s3.6 8 8 8h57.4c4.5 0 8-3.6 8-8zM115.4 112.7H99.6V96.9c0-4.4-3.6-8-8-8s-8 3.6-8 8v15.8H67.9c-4.4 0-8 3.6-8 8s3.6 8 8 8h15.8v15.8c0 4.4 3.6 8 8 8s8-3.6 8-8v-15.8h15.8c4.4 0 8-3.6 8-8s-3.7-8-8.1-8z" opacity=".25" fill="#000"/></svg>