<svg width="512" height="512" viewBox="0 0 512 512" fill="none" xmlns="http://www.w3.org/2000/svg"><path opacity=".25" d="M419.3 28.7h27.4v27.4h-27.4V28.7zM488 56.1V28.7h-27.4v27.4H488zm0 42.2V70.8h-27.4v27.4H488v.1zM89.6 109.2c0 4.4-3.6 8-8 8h-55c-4.4 0-8-3.6-8-8s3.6-8 8-8h55c4.4 0 8 3.6 8 8zm382.7 340h-92.9c-4.4 0-8 3.6-8 8s3.6 8 8 8h92.9c4.4 0 8-3.6 8-8s-3.6-8-8-8zm9.6-290.7c4.2-4.2 4.2-11 0-15.2-4.2-4.2-11-4.2-15.2 0-4.2 4.2-4.2 11 0 15.2 4.2 4.2 11 4.2 15.2 0zm.9 149.4h-3.9V304c0-4.4-3.6-8-8-8s-8 3.6-8 8v3.9H459c-4.4 0-8 3.6-8 8s3.6 8 8 8h3.9v3.9c0 4.4 3.6 8 8 8s8-3.6 8-8v-3.9h3.9c4.4 0 8-3.6 8-8s-3.6-8-8-8zm-84.6-80.8l-43.4-5c0-15.1-1.9-19.2-17-19.2-16.8 0-28.6 5.2-36.6 15.4-8 10.1-12.3 25.1-14.1 44.7-.3 2.8-.4 5.7-.4 8.6v.8c0 85.7.5 76.1-43.4 76.1H190c-60.3 0-63.2 9.6-63 39.5.1 9.9 24.4 25 34.3 25h122.2c23.2 0 42-18.8 42-42l56 1.1 32.9-30.5 18.2-71.8c2.4-17.3-17.1-40.7-34.4-42.7zm-5.4 62.6c-8.5 40.8-27.1 57.7-27.1 57.7h-30.3c11.2-28.3 16.5-63.3 18.9-88.3 23.8-8.2 47-10.2 38.5 30.6z" fill="#000"/><path d="M270.2 421.1h-95.5c-17.4 0-32.8-6.4-45.8-19-10.7-10.3-19.8-24.9-27.1-43.4C89 326.3 84 287.7 82 261v-.4c0-.9.1-1.9.4-2.7.4-1.2 1-2.2 1.8-3.1.8-.9 1.8-1.5 2.9-2 .8-.3 1.7-.5 2.6-.6H318c4.4 0 8 3.6 8 8s-3.6 8-8 8H98.7c4.4 47.1 20.1 136.8 76 136.8h95.5c19.9 0 36.5-11.5 49.3-34.1 1.4-2.5 4.1-4.1 7-4.1h39.2c21.9 0 35.7-17.6 43.5-32.3 9.5-18.1 15.4-42.9 15.4-64.7 0-39.3-38.1-39.7-39.7-39.7h-30.1c-3.5 0-6.6-2.3-7.7-5.7-3.2-10.6-13.8-13.4-19.6-13.4h-210c-12.4 0-17.4 7.4-19.4 13.6-1.4 4.2-5.9 6.5-10.1 5.1-4.2-1.4-6.5-5.9-5.1-10.1 5-15.4 18-24.6 34.6-24.6h210.1c12 0 25.9 6 32.6 19.1h24.7c4.6 0 20.5.8 34.8 11.2 9.6 7 21 20.4 21 44.5 0 24.6-6.4 51.6-17.2 72.1-14 26.8-34 40.9-57.6 40.9h-34.7c-15.7 25.4-36.1 38.3-61 38.3zm95.5-65.7h-30.3c-2.6 0-5.1-1.3-6.6-3.5s-1.8-5-.8-7.4c11.1-28 16-61.4 18.2-84.6.4-4.4 4.3-7.6 8.7-7.2 4.4.4 7.6 4.3 7.2 8.7-2 21.3-6.3 50.9-15.3 78h18.9c4.4 0 8 3.6 8 8s-3.6 8-8 8zM221.8 178.8c-3.2 0-6.2-1.9-7.4-5-9.2-23.1-.2-34.3 9.3-46.2 9.7-12.1 19.7-24.6 9.8-49.2-1.6-4.1.3-8.8 4.4-10.4 4.1-1.6 8.8.3 10.4 4.4 13.4 33.3-2 52.5-12.1 65.1-8.7 10.9-12.7 15.9-7 30.4 1.6 4.1-.4 8.8-4.5 10.4-.9.3-1.9.5-2.9.5zm-57.3 0c-3.2 0-6.2-1.9-7.4-5-9.2-23.1-.2-34.3 9.3-46.2 9.7-12.1 19.7-24.6 9.8-49.2-1.6-4.1.3-8.8 4.4-10.4 4.1-1.6 8.8.3 10.4 4.4 13.4 33.3-2 52.5-12.1 65.1-8.7 10.9-12.7 15.9-7 30.4 1.6 4.1-.4 8.8-4.5 10.4-.9.3-1.9.5-2.9.5zm114.6 0c-3.2 0-6.2-1.9-7.4-5-9.3-23-.3-34.3 9.2-46.2 9.7-12.1 19.7-24.6 9.8-49.3-1.6-4.1.4-8.8 4.5-10.4 4.1-1.6 8.8.4 10.4 4.5 13.3 33.4-2 52.5-12.2 65.2-8.8 11-12.7 15.9-6.9 30.3 1.7 4.1-.3 8.8-4.4 10.4-1 .3-2 .5-3 .5z" fill="#000"/></svg>