<svg width="512" height="512" viewBox="0 0 512 512" fill="none" xmlns="http://www.w3.org/2000/svg"><path opacity=".25" d="M321.4 284.7c0 76.9-62.2 138.9-139 138.9-67.6 0-123.8-48.2-136.4-112-2.7-14 7.9-27 22.2-27 10.7 0 20.1 7.5 22.1 18 8.5 43.6 47.2 76.5 93.4 75.8 50.5-.7 91.8-42 92.5-92.5.6-46.3-32.2-85-75.8-93.4-10.5-2-18-11.4-18-22.1 0-14.2 13-24.9 27-22.2 63.8 12.6 112 68.9 112 136.5zm76.9 84.7v-54.9h49.1v-52.2h-63.7c-14.4 0-26.1 11.7-26.1 26.1 0 12.1 8.2 22.3 19.4 25.2v1.1h-23.7c-14.4 0-26.1 11.7-26.1 26.1 0 14.4 11.7 26.1 26.1 26.1H377v3.3c-11.2 2.9-19.4 13.1-19.4 25.2 0 14.4 11.7 26.1 26.1 26.1h65.7v-52.2h-51.1v.1z" fill="#000"/><path d="M449.4 361.4h-43.1v-38.9h41.1c4.4 0 8-3.6 8-8v-52.2c0-4.4-3.6-8-8-8H326.3c-.8-4-1.8-7.9-3-11.8h35.9c4.4 0 8-3.6 8-8s-3.6-8-8-8h-73.8c-4.4 0-8 3.6-8 8s3.6 8 8 8h21.1c2.5 7.2 4.2 14.7 5.4 22.2.2 1.3.4 2.6.5 3.9.1.5.1.9.1 1.4.1 1.3.3 2.6.4 3.9.1.6.1 1.3.1 1.9.1 1.1.2 2.3.2 3.4.1 1.8.1 3.6.1 5.3v4.7c0 .8-.1 1.5-.1 2.3 0 .5-.1 1-.1 1.5 0 .6-.1 1.3-.1 1.9 0 .6-.1 1.2-.2 1.8 0 .5-.1 1-.1 1.5-.1.7-.2 1.4-.2 2.1 0 .4-.1.8-.1 1.2l-.3 2.4c0 .3-.1.5-.1.8-.1.9-.3 1.8-.4 2.7 0 .2-.1.3-.1.5-.2 1-.4 1.9-.6 2.9v.2c-12.3 59.6-65.1 104.5-128.3 104.5-72.2 0-131-58.8-131-131s58.8-131 131-131c42.2 0 82 20.5 106.6 54.8.7 1 1.6 1.8 2.6 2.3 1.4 1.1 3.2 1.8 5.1 1.8h43c4.4 0 8-3.6 8-8s-3.6-8-8-8h-39.6c-27.7-37-71.5-59-117.7-59-81.1 0-147 65.9-147 147s65.9 147 147 147c12 0 23.6-1.4 34.7-4.2 1.4 1.3 3.3 2.1 5.4 2.1h226.9c4.4 0 8-3.6 8-8v-52.2c-.2-4.1-3.8-7.7-8.2-7.7zm-125-38.6h65.9V359h-81.1c6.7-11.3 11.8-23.4 15.2-36.2zm4.3-52.4h110.7v36.2H327.8c.1-.4.1-.7.1-1.1.2-1.2.3-2.3.5-3.5.1-.5.1-1 .2-1.5.2-1.6.3-3.1.4-4.7v-.6c.1-1.4.2-2.9.2-4.3v-1.3c.1-1.6.1-3.3.1-4.9v-4.2c0-.9-.1-1.8-.1-2.6v-.8c0-.9-.1-1.8-.2-2.7v-.6c-.1-1-.2-2.1-.3-3.1v-.3zm112.7 143.2H253.1c16.5-9.1 31.2-21.3 43.3-36.2h145v36.2zM153.2 264.5c0 14 10.4 24.7 27.2 27.9 18.5 3.5 26.7 7.3 26.7 20 0 4.7-1.9 20-26 20-7.8 0-14.8-2-20.9-5.8l-11.9 11.9c-1.6 1.6-3.6 2.3-5.7 2.3-2 0-4.1-.8-5.7-2.3-3.1-3.1-3.1-8.2 0-11.3l22.6-22.6 5.7 5.7c4.1 4.1 9.3 6.1 15.8 6.1 4.9 0 7.4-.9 8.4-1.4 1.1-.6 1.5-1 1.5-2.6v-.6c-1.2-.7-4.6-2-13.7-3.7-24.4-4.7-40.2-21.8-40.2-43.6 0-19.1 11.3-34.9 29.4-41.1 4.2-1.4 8.7.8 10.2 5 1.4 4.2-.8 8.7-5 10.2-11.4 3.9-18.4 13.6-18.4 25.9zM212.3 374c-1.8-4.1.1-8.8 4.2-10.5 31.5-13.6 51.8-44.6 51.8-78.8 0-40.7-28.2-75.2-67.1-83.8v22.3c8.7 2.8 16.8 7.9 24.1 15.2l5.7 5.7-22.6 22.6c-1.6 1.6-3.6 2.3-5.7 2.3-2 0-4.1-.8-5.7-2.3-3.1-3.1-3.1-8.2 0-11.3l10.9-10.9c-5.1-3.7-10.5-6.2-16.2-7.2l-6.5-1.2v-42.5c-.3-1-.4-2-.2-3 .1-1.1.5-2.2 1-3.1 1.3-2.7 4-4.6 7.2-4.6 1.5 0 2.8.4 4 1.1 49.9 7.2 87.1 50 87.1 100.8 0 40.7-24.1 77.4-61.4 93.5-1 .4-2.1.7-3.2.7-3.2-.2-6.1-2-7.4-5zm-11.1-20.7V377c.5 4.4-2.6 8.4-7 8.9-3.9.4-7.8.7-11.8.7-56.2 0-101.8-45.7-101.8-101.8 0-49.7 35.5-91.9 84.4-100.4 4.4-.7 8.5 2.2 9.2 6.5.8 4.4-2.2 8.5-6.5 9.2-41.2 7.1-71.1 42.7-71.1 84.6 0 47.3 38.5 85.8 85.8 85.8h2.8v-29.7l6.3-1.3c14.8-3.1 23.6-13.2 23.6-26.9 0-4.4 3.6-8 8-8s8 3.6 8 8c0 19.2-11.3 34.4-29.9 40.7z" fill="#000"/><path opacity=".25" d="M35.6 413.7H13.9v-56.9h21.8v56.9h-.1zm0 18.1H13.9v58.7h56.9v-21.8H35.6v-36.9zM89 468.7v21.8h56.9v-21.8H89zM400 66.6c0 4.4-3.6 8-8 8h-15.8v15.8c0 4.4-3.6 8-8 8s-8-3.6-8-8V74.6h-15.8c-4.4 0-8-3.6-8-8s3.6-8 8-8h15.8V42.9c0-4.4 3.6-8 8-8s8 3.6 8 8v15.8H392c4.4-.1 8 3.5 8 7.9zM77.9 32c-4.4 0-8 3.6-8 8 0 11.4-9.3 20.8-20.8 20.8-4.4 0-8 3.6-8 8s3.6 8 8 8c20.3 0 36.8-16.5 36.8-36.8 0-4.4-3.6-8-8-8zm50 28.7c-11.4 0-20.8-9.3-20.8-20.8 0-4.4-3.6-8-8-8s-8 3.6-8 8c0 20.3 16.5 36.8 36.8 36.8 4.4 0 8-3.6 8-8s-3.6-8-8-8zm0 21.3c-20.3 0-36.8 16.5-36.8 36.8 0 4.4 3.6 8 8 8s8-3.6 8-8c0-11.4 9.3-20.8 20.8-20.8 4.4 0 8-3.6 8-8s-3.6-8-8-8zm-78.7 0c-4.4 0-8 3.6-8 8s3.6 8 8 8c11.4 0 20.8 9.3 20.8 20.8 0 4.4 3.6 8 8 8s8-3.6 8-8C85.9 98.5 69.4 82 49.2 82zm406.5 107.8c5.9 0 10.8-4.8 10.8-10.8 0-6-4.8-10.8-10.8-10.8-5.9 0-10.8 4.8-10.8 10.8 0 6 4.8 10.8 10.8 10.8zm10.1 264.9c-4.4 0-8 3.6-8 8 0 5.7-4.7 10.4-10.4 10.4s-10.4-4.7-10.4-10.4c0-4.4-3.6-8-8-8s-8 3.6-8 8c0 14.6 11.8 26.4 26.4 26.4 14.6 0 26.4-11.8 26.4-26.4 0-4.4-3.6-8-8-8z" fill="#000"/></svg>