<svg width="512" height="512" viewBox="0 0 512 512" fill="none" xmlns="http://www.w3.org/2000/svg"><path d="M353.9 482.8h-63.7c-16 0-28.9-12.9-28.9-28.9v-20.1c0-10.9 7.1-20.4 17.5-23.7 2.2-.7 4.5-1.5 6.8-2.5 0 0-3.3 12.2 22.9 23.7 26.3 11.4 42.6 19 45.4 51.5zm-92.8-185.3c1.7-1 46.5 5.2 46.5 5.2s4.6 27.7 0 66.6c-2.7 22.5-17.8 34.2-30.1 40.1-7.6 3.7-16.4-2-16.4-10.4v-96.9s-1.7-3.6 0-4.6zM499.7 251H436c-16 0-28.9-12.9-28.9-28.9V202c0-10.9 7.1-20.4 17.5-23.7 2.2-.7 4.5-1.5 6.8-2.5 0 0-3.3 12.2 22.9 23.7 26.3 11.4 42.6 19.1 45.4 51.5zM407 65.8c1.7-1 46.5 5.2 46.5 5.2s4.6 27.7 0 66.6c-2.7 22.5-17.8 34.2-30.1 40.1-7.6 3.7-16.4-2-16.4-10.4V70.4s-1.7-3.7 0-4.6zM210.4 245.7h-63.7c-16 0-28.9-12.9-28.9-28.9v-20.1c0-10.9 7.1-20.4 17.5-23.7 2.2-.7 4.5-1.5 6.8-2.5 0 0-3.3 12.2 22.9 23.7 26.3 11.4 42.6 19.1 45.4 51.5zM117.7 60.5c1.7-1 46.5 5.2 46.5 5.2s4.6 27.7 0 66.6c-2.7 22.5-17.8 34.2-30.1 40.1-7.6 3.7-16.4-2-16.4-10.4V65.1s-1.7-3.7 0-4.6z" opacity=".25" fill="#000"/><path d="M76 258.3h131.1c4.3 0 7.8-3.3 8-7.6.7-14.5-6.9-45.5-40.7-59.2-20.1-8.1-27-14.4-29.3-17.1 12.5-9.5 18.9-23.1 21.7-30.6 1.8-4.8 2.6-9.9 2.6-15.1V86.8c1.1.6 2.4.9 3.6.9 1.2 0 2.5-.3 3.6-.9 18.3-9.4 38-15.5 58.4-18.3 4.4-.6 7.4-4.6 6.8-9-.6-4.4-4.6-7.4-9-6.8-22.2 3-43.5 9.7-63.5 19.9V60.9c0-2.6-1.3-5.1-3.5-6.6s-4.9-1.8-7.4-.9c-7.3 2.8-14.7 1-23.2-1.2-11.7-2.9-26.3-6.6-41.6 4.3-3.6 2.6-4.5 7.6-1.9 11.2 2.6 3.6 7.6 4.5 11.2 1.9 8.8-6.3 16.6-4.8 28.5-1.8 6.7 1.7 14.1 3.5 22 3v57.9c0 3.3-.6 6.6-1.7 9.6-4.1 11.4-14.6 30.4-38.5 30.4-22.4 0-33.2-15.3-38.4-28.1-1.3-3.3-2-6.8-2-10.5V66.9c0-7.5 4.6-13.1 8.5-16.4 9.1-7.9 23.1-11.5 36.5-9.5 4.8.7 9.2 2 13.5 3.2 11.3 3.2 23 6.5 38.4.1 4.1-1.7 6-6.4 4.3-10.5-1.7-4.1-6.4-6-10.5-4.3-10.3 4.3-17.7 2.2-27.9-.7-4.6-1.3-9.8-2.8-15.5-3.6-17.9-2.7-36.8 2.4-49.3 13.2-9 7.8-14 17.9-14 28.5v63.2c0 5.7 1.1 11.2 3.1 16.4 2.8 6.9 9.2 19.4 21.3 28.2-2.1 2.4-6.9 6.8-17.9 12-56.4 21.4-51.5 62.9-51.3 64.6.5 4 3.9 6.9 7.9 6.9h40c.7 20.1 4.3 39.8 10.9 58.7 1.1 3.3 4.2 5.4 7.6 5.4.9 0 1.8-.1 2.6-.4 4.2-1.4 6.4-6 4.9-10.2-5.8-17.2-9.2-35.1-9.9-53.4zm-6.6-56.8c.1-.1.3-.1.4-.2.1 0 .2-.1.2-.1s.1 0 .1-.1c14.9-7.1 22.2-13.9 25.6-19.2 5.1 1.6 10.9 2.6 17.3 2.6 6.6 0 12.4-1 17.6-2.7 4.2 6.6 14.6 15.1 37.6 24.4 22 8.9 28.3 26 30 36H28.3c1.7-10 9.2-28.7 41.1-40.7zm349.9 172.1c-22.1 28.7-51.8 50.9-85.2 64.2 20.1 15.4 25 38.2 24.4 50-.2 4.3-3.7 7.6-8 7.6h-187c-4.3 0-7.8-3.4-8-7.7-.1-1.4-.3-13.9 8-29.9 2-3.9 6.9-5.4 10.8-3.4 3.9 2 5.4 6.9 3.4 10.8-2.8 5.5-4.4 10.4-5.2 14.2h169.4c-1.7-9.6-7.6-25.8-27.6-34.9l-2.1.6c-.7.2-1.4.3-2.1.3-3.5 0-6.8-2.4-7.7-5.9v-.1c-16.5-7.7-24.5-14.6-28.1-20.3-5.2 1.7-11 2.7-17.6 2.7-6.5 0-12.6-1-18.3-3-4.3 5.7-13.6 15.2-31.4 23.7-.3.1-.6.3-.9.4-.1 0-.1 0-.2.1-.3.1-.6.2-.9.2h-.3c-.4.1-.8.1-1.1.1-.4 0-.7 0-1.1-.1-.1 0-.2-.1-.3-.1-.3-.1-.5-.1-.8-.2h-.1c-38.8-12-72.7-35.3-98.1-67.3-2.7-3.5-2.2-8.5 1.3-11.2 3.5-2.7 8.5-2.2 11.2 1.3 22.7 28.7 52.8 49.7 87.2 61 11.1-5.7 17.6-11.6 21-15.5-8.7-6.5-15.7-15.8-20.4-27.6-2.1-5.2-3.1-10.7-3.1-16.4V304c0-10.6 5-20.7 14-28.5 12.6-10.8 31.5-15.9 49.3-13.2 5.8.9 10.9 2.3 15.5 3.6 10.2 2.9 17.6 5 27.9.7 4.1-1.7 8.8.2 10.5 4.3 1.7 4.1-.2 8.8-4.3 10.5-15.4 6.4-27.1 3.1-38.4-.1-4.3-1.2-8.8-2.5-13.5-3.2-13.4-2-27.4 1.6-36.5 9.5-3.9 3.3-8.5 8.9-8.5 16.4v63.2c0 3.6.7 7.2 2 10.5 5.2 12.8 16 28.1 38.4 28.1 23.9 0 34.4-19.1 38.5-30.4 1.1-3.1 1.7-6.3 1.7-9.6v-57.9c-7.9.5-15.2-1.3-22-3-11.9-3-19.6-4.5-28.5 1.8-3.6 2.6-8.6 1.7-11.2-1.9-2.6-3.6-1.7-8.6 1.9-11.2 15.3-10.8 29.9-7.2 41.6-4.3 8.5 2.1 15.9 4 23.2 1.2 2.5-.9 5.2-.6 7.4.9s3.5 4 3.5 6.6v67.7c0 5.2-.9 10.3-2.6 15.1-2.7 7.5-9.1 21.2-21.7 30.6 2.2 2.7 8.6 8.5 26.7 16.1 36-11.2 68.2-33.6 91.3-63.7 2.7-3.5 7.7-4.1 11.2-1.5 3.5 2.7 4.2 7.8 1.5 11.3zm44.4-176.8c-20.1-8.1-27-14.4-29.3-17.1 12.5-9.5 18.9-23.1 21.7-30.6 1.8-4.8 2.6-9.9 2.6-15.1V66.2c0-2.6-1.3-5.1-3.5-6.6s-4.9-1.8-7.4-.9c-7.3 2.8-14.7 1-23.2-1.2-11.7-2.9-26.3-6.6-41.6 4.3-3.6 2.6-4.5 7.6-1.9 11.2 2.6 3.6 7.5 4.5 11.2 1.9 8.8-6.3 16.6-4.8 28.5-1.8 6.7 1.7 14.1 3.5 22 3V134c0 3.3-.6 6.6-1.7 9.6C437 155 426.5 174 402.6 174c-22.4 0-33.2-15.3-38.4-28.1-1.3-3.3-2-6.8-2-10.5V72.1c0-7.5 4.6-13.1 8.5-16.4 9.1-7.9 23.1-11.5 36.5-9.5 4.8.7 9.2 2 13.5 3.2 11.3 3.2 23 6.5 38.4.1 4.1-1.7 6-6.4 4.3-10.5-1.7-4.1-6.4-6-10.5-4.3-10.3 4.3-17.7 2.2-27.9-.7-4.6-1.3-9.8-2.8-15.5-3.6-17.9-2.7-36.8 2.4-49.3 13.2-8.4 7.3-13.3 16.6-14 26.4-22.4-10.6-46.3-16.9-71.3-18.7-4.4-.3-8.2 3-8.5 7.4-.3 4.4 3 8.2 7.4 8.6 25.5 1.8 49.8 8.8 72.3 20.6v47.5c0 5.7 1.1 11.2 3.1 16.4 4.9 12.2 12.2 21.7 21.3 28.2-2.2 2.6-7 6.8-17.7 11.9-26 8.2-38.7 24.8-44.7 37.3-6.6 13.7-6.9 25.6-6.9 26.1 0 2.1.8 4.2 2.3 5.8 1.5 1.6 3.6 2.4 5.7 2.4h135.2c-1.1 16.5-4.3 32.6-9.7 48.2-1.4 4.2.8 8.7 4.9 10.2.9.3 1.8.4 2.6.4 3.3 0 6.4-2.1 7.6-5.4 6-17.2 9.5-35.2 10.6-53.4h35.9c4.3 0 7.8-3.3 8-7.6.8-14.5-6.8-45.5-40.6-59.1zm-3.7 50.8c-1.3-2.6-4-4.3-7.1-4.3-3.1 0-5.8 1.8-7.1 4.3H318.5c2.7-11.5 11.6-31.9 39.7-40.6h.1c.1 0 .2-.1.3-.1.2-.1.3-.1.5-.2 0 0 .1 0 .1-.1 15-7.2 22.3-14 25.8-19.3 5.4 1.7 11.2 2.6 17.3 2.6 6.6 0 12.4-1 17.6-2.7 4.2 6.6 14.6 15.1 37.6 24.4 22 8.9 28.3 26 30 36H460z" fill="#000"/><path d="M8.4 335.8h35.2v22.5H8.4v-22.5zm0 88.2h35.2v-22.5H8.4V424zm0-54.8h35.2v21.6H8.4v-21.6zM79.7 440c-14.6 0-26.4 11.8-26.4 26.4 0 14.6 11.8 26.4 26.4 26.4 14.6 0 26.4-11.8 26.4-26.4 0-14.6-11.9-26.4-26.4-26.4zm0 36.8c-5.7 0-10.4-4.7-10.4-10.4S74 456 79.7 456s10.4 4.7 10.4 10.4-4.7 10.4-10.4 10.4zm129-18.8c0 4.4-3.6 8-8 8h-69c-4.4 0-8-3.6-8-8s3.6-8 8-8h69c4.4 0 8 3.6 8 8zm297.5-300.8c0 4.4-3.6 8-8 8h-3.9v3.9c0 4.4-3.6 8-8 8s-8-3.6-8-8v-3.9h-3.9c-4.4 0-8-3.6-8-8s3.6-8 8-8h3.9v-3.9c0-4.4 3.6-8 8-8s8 3.6 8 8v3.9h3.9c4.4 0 8 3.6 8 8zM51.6 31.4c0 4.4-3.6 8-8 8h-3.9v3.9c0 4.4-3.6 8-8 8s-8-3.6-8-8v-3.9h-3.9c-4.4 0-8-3.6-8-8s3.6-8 8-8h3.9v-3.9c0-4.4 3.6-8 8-8s8 3.6 8 8v3.9h3.9c4.4 0 8 3.6 8 8zM495 436.8c0 4.4-3.6 8-8 8-11.4 0-20.8 9.3-20.8 20.8 0 4.4-3.6 8-8 8s-8-3.6-8-8c0-20.3 16.5-36.8 36.8-36.8 4.4 0 8 3.5 8 8zm-50 28.7c0 4.4-3.6 8-8 8s-8-3.6-8-8c0-11.4-9.3-20.8-20.8-20.8-4.4 0-8-3.6-8-8s3.6-8 8-8c20.3.1 36.8 16.6 36.8 36.8zm0-78.7c0 20.3-16.5 36.8-36.8 36.8-4.4 0-8-3.6-8-8s3.6-8 8-8c11.4 0 20.8-9.3 20.8-20.8 0-4.4 3.6-8 8-8s8 3.5 8 8zm50 28.7c0 4.4-3.6 8-8 8-20.3 0-36.8-16.5-36.8-36.8 0-4.4 3.6-8 8-8s8 3.6 8 8c0 11.4 9.3 20.8 20.8 20.8 4.4 0 8 3.6 8 8zM143.4 307.3c5.5 0 9.9-4.4 9.9-9.9s-4.4-9.9-9.9-9.9-9.9 4.4-9.9 9.9 4.4 9.9 9.9 9.9zM330.7 22.5c-5.5 0-9.9 4.4-9.9 9.9s4.4 9.9 9.9 9.9 9.9-4.4 9.9-9.9-4.5-9.9-9.9-9.9zm79.1 295.3h-59.2c-4.4 0-8-3.6-8-8s3.6-8 8-8h59.2c4.4 0 8 3.6 8 8s-3.6 8-8 8z" opacity=".25" fill="#000"/></svg>