<svg width="512" height="512" viewBox="0 0 512 512" fill="none" xmlns="http://www.w3.org/2000/svg"><path opacity=".25" d="M51.3 360.3c-14.6 0-26.4-11.8-26.4-26.4 0-14.6 11.8-26.4 26.4-26.4 4.4 0 8 3.6 8 8s-3.6 8-8 8c-5.7 0-10.4 4.7-10.4 10.4s4.7 10.4 10.4 10.4c4.4 0 8 3.6 8 8s-3.6 8-8 8zm98.7 75.5H70.5c-4.4 0-8 3.6-8 8s3.6 8 8 8H150c4.4 0 8-3.6 8-8s-3.5-8-8-8zm-36.5-25.5c0-4.4-3.6-8-8-8h-59c-4.4 0-8 3.6-8 8s3.6 8 8 8h59c4.5 0 8-3.6 8-8zm-53-324.7c4.2-4.2 4.2-11 0-15.2-4.2-4.2-11-4.2-15.2 0-4.2 4.2-4.2 11 0 15.2 4.2 4.2 11 4.2 15.2 0zm400.3 377.2c-4.2 4.2-4.2 11 0 15.2 4.2 4.2 11 4.2 15.2 0 4.2-4.2 4.2-11 0-15.2-4.2-4.2-11-4.2-15.2 0zm19.5-180.7h-3.9v-3.9c0-4.4-3.6-8-8-8s-8 3.6-8 8v3.9h-3.9c-4.4 0-8 3.6-8 8s3.6 8 8 8h3.9v3.9c0 4.4 3.6 8 8 8s8-3.6 8-8v-3.9h3.9c4.4 0 8-3.6 8-8s-3.6-8-8-8zm-23.6-200v-3.9h3.9c4.4 0 8-3.6 8-8s-3.6-8-8-8h-3.9v-3.9c0-4.4-3.6-8-8-8s-8 3.6-8 8v3.9h-3.9c-4.4 0-8 3.6-8 8s3.6 8 8 8h3.9v3.9c0 4.4 3.6 8 8 8s8-3.6 8-8zm-130.6 45.5h-41.3c-4.4 0-8 3.6-8 8s3.6 8 8 8h41.3c4.4 0 8-3.6 8-8s-3.6-8-8-8zm62.3 182s-9.1 2.3-.4 6.4c17.1 8.1 30.3 23.3 35.8 41.7 3.1 5.6 4.9 12.1 4.9 19s-1.8 13.4-4.9 19c-6.8 23.1-25.7 41-49.4 46.4 4.8 1.1 9.8 1.7 15 1.7 37.4 0 67.7-30.7 67.1-68.2-.5-36.8-31.3-66-68.1-66zm3-236.5c-5.9-.2-11.6.4-17 1.7 23.6 5.4 42.6 23.3 49.4 46.4 3.1 5.6 4.9 12.1 4.9 19s-1.8 13.4-4.9 19c-8.2 27.8-34 48.1-64.4 48.1h30c38.4 0 69.4-32.5 67-71.4-2.2-34.4-30.6-61.8-65-62.8zm-69.1 141.2v88.3c0 7.7 6.2 13.9 13.9 13.9s13.9-6.2 13.9-13.9v-88.3c0-7.7-6.2-13.9-13.9-13.9s-13.9 6.2-13.9 13.9z" fill="#000"/><path d="M389.4 451.8c-41.4 0-75.1-33.7-75.1-75.1v-31.3H228v31.3c0 41.4-33.7 75.1-75.1 75.1-15.6 0-30.6-4.8-43.4-13.8-3.6-2.6-4.5-7.6-1.9-11.2 2.6-3.6 7.6-4.5 11.2-1.9 10 7.1 21.8 10.9 34.1 10.9 32.6 0 59.1-26.5 59.1-59.1v-39.3c0-4.4 3.6-8 8-8h102.2c4.4 0 8 3.6 8 8v39.3c0 32.6 26.5 59.1 59.1 59.1s59.1-26.5 59.1-59.1-26.5-59.1-59.1-59.1c-4.4 0-8-3.6-8-8s3.6-8 8-8c41.4 0 75.1 33.7 75.1 75.1.1 41.4-33.6 75.1-75 75.1zm0-27.8c-26.1 0-47.3-21.2-47.3-47.3v-39.3c0-4.4 3.6-8 8-8h39.3c26.1 0 47.3 21.2 47.3 47.3 0 26.1-21.2 47.3-47.3 47.3zm-31.3-78.6v31.3c0 17.3 14 31.3 31.3 31.3s31.3-14 31.3-31.3-14-31.3-31.3-31.3h-31.3zM152.9 424c-26.1 0-47.3-21.2-47.3-47.3 0-26.1 21.2-47.3 47.3-47.3h39.3c4.4 0 8 3.6 8 8v39.3c0 26.1-21.2 47.3-47.3 47.3zm0-78.6c-17.3 0-31.3 14-31.3 31.3s14 31.3 31.3 31.3 31.3-14 31.3-31.3v-31.3h-31.3zm-58.1 72.9c-2.8 0-5.4-1.4-6.9-4a75.14 75.14 0 01-10.1-37.6c0-41.4 33.7-75.1 75.1-75.1h31.3v-86.2h-31.3c-41.4 0-75.1-33.7-75.1-75.1 0-41.4 33.7-75.1 75.1-75.1 41.4 0 75.1 33.6 75.1 75v31.3h63.8c4.4 0 8 3.6 8 8s-3.6 8-8 8H220c-4.4 0-8-3.6-8-8v-39.3c0-32.6-26.5-59.1-59.1-59.1s-59.1 26.5-59.1 59.1 26.5 59.1 59.1 59.1h39.3c4.4 0 8 3.6 8 8v102.2c0 4.4-3.6 8-8 8h-39.3c-32.6 0-59.1 26.5-59.1 59.1 0 10.4 2.7 20.6 8 29.6 2.2 3.8.9 8.7-2.9 10.9-1.3.9-2.7 1.2-4.1 1.2zm255.3-100.7c-4.4 0-8-3.6-8-8V207.3c0-4.4 3.6-8 8-8h39.3c32.6 0 59.1-26.5 59.1-59.1S422 81.1 389.4 81.1s-59.1 26.5-59.1 59.1v39.3c0 4.4-3.6 8-8 8s-8-3.6-8-8v-39.3c0-41.4 33.7-75.1 75.1-75.1 41.4 0 75.1 33.7 75.1 75.1 0 41.4-33.7 75.1-75.1 75.1h-31.3v94.2c0 4.5-3.6 8.1-8 8.1zm-27.8 0H220c-4.4 0-8-3.6-8-8s3.6-8 8-8h94.2v-86.2H228V279c0 4.4-3.6 8-8 8s-8-3.6-8-8v-71.7c0-4.4 3.6-8 8-8h102.2c4.4 0 8 3.6 8 8v102.2c.1 4.5-3.5 8.1-7.9 8.1zm67.1-130.1h-39.3c-4.4 0-8-3.6-8-8v-39.3c0-26.1 21.2-47.3 47.3-47.3 26.1 0 47.3 21.2 47.3 47.3 0 26.1-21.2 47.3-47.3 47.3zm-31.3-16h31.3c17.3 0 31.3-14 31.3-31.3s-14-31.3-31.3-31.3-31.3 14-31.3 31.3v31.3zm-165.9 16h-39.3c-26.1 0-47.3-21.2-47.3-47.3 0-26.1 21.2-47.3 47.3-47.3 26.1 0 47.3 21.2 47.3 47.3v39.3c0 4.4-3.6 8-8 8zm-39.3-78.6c-17.3 0-31.3 14-31.3 31.3s14 31.3 31.3 31.3h31.3v-31.3c0-17.2-14-31.3-31.3-31.3z" fill="#000"/></svg>