<svg width="512" height="512" viewBox="0 0 512 512" fill="none" xmlns="http://www.w3.org/2000/svg"><path d="M449.4 27.5h16.4v16.4h-16.4V27.5zM378.5 95h16.4v16.4h-16.4V95zm40.4-29.1v49h43v-49h-43zm61.5-38.4h16.4v114.4h-16.4V27.5zm-40 289v44.6h41.3v-44.6h-41.3zm41.2 110v-44.6h-41.3v44.6h41.3zm-327.1 43.1c0 4.4-3.6 8-8 8H45.4c-4.4 0-8-3.6-8-8s3.6-8 8-8h101.1c4.4 0 8 3.6 8 8zM73.4 358.9v3.9h-3.9c-4.4 0-8 3.6-8 8s3.6 8 8 8h3.9v3.9c0 4.4 3.6 8 8 8s8-3.6 8-8v-3.9h3.9c4.4 0 8-3.6 8-8s-3.6-8-8-8h-3.9v-3.9c0-4.4-3.6-8-8-8s-8 3.6-8 8zM373.9 43.3c0-4.4-3.6-8-8-8h-43c-4.4 0-8 3.6-8 8s3.6 8 8 8h43c4.4 0 8-3.5 8-8zM39 141.4c0 4.4 3.6 8 8 8s8-3.6 8-8v-15.8h15.8c4.4 0 8-3.6 8-8s-3.6-8-8-8H55V93.8c0-4.4-3.6-8-8-8s-8 3.6-8 8v15.8H23.2c-4.4 0-8 3.6-8 8s3.6 8 8 8H39v15.8zm-1.9-98.1c0-5.5 4.4-9.9 9.9-9.9s9.9 4.4 9.9 9.9-4.4 9.9-9.9 9.9-9.9-4.4-9.9-9.9zm55.3 0c0-5.5 4.4-9.9 9.9-9.9s9.9 4.4 9.9 9.9-4.4 9.9-9.9 9.9c-5.4 0-9.9-4.4-9.9-9.9zm75.2 0c0 5.5-4.4 9.9-9.9 9.9s-9.9-4.4-9.9-9.9 4.4-9.9 9.9-9.9 9.9 4.5 9.9 9.9zm314.9 405.2h-43c-4.4 0-8 3.6-8 8s3.6 8 8 8h43c4.4 0 8-3.6 8-8s-3.6-8-8-8zm-27.5 30h-93c-4.4 0-8 3.6-8 8s3.6 8 8 8h93c4.4 0 8-3.6 8-8s-3.6-8-8-8zm-52.5-163.1L336 385.6c-7.6-7.2-13.5-12.8-16.8-15.9-24-22.8-44.2-31.9-70.6-31.9-8.7 0-16.7 1-24.3 3.1-20.3 5.6-42.1-.5-56.6-15.8-28.3-29.9-16.6-78.9 22.1-92.9 18.4-6.6 38.2-10.2 58.8-10.2 66.9 0 124.9 37.9 153.9 93.4z" opacity=".25" fill="#000"/><path d="M260.2 450c-2.9 0-5.6-1.5-7.1-4.2l-12.3-23.2c-2.1-3.9-.6-8.7 3.3-10.8 3.9-2.1 8.7-.6 10.8 3.3l8.6 16.1 6.3-3.4-8.6-16.1c-1.3-2.5-1.2-5.6.3-8 1.5-2.4 2.3-5.2 2.3-8 0-8.1-6.6-14.9-14.6-15.1-2.9-.1-5.4-1.7-6.8-4.2l-46.7-87.6-13.4 7.1c-3.9 2.1-8.7.6-10.8-3.3-2.1-3.9-.6-8.7 3.3-10.8l20.4-10.9c3.9-2.1 8.7-.6 10.8 3.3l48.5 91c14.5 2.7 25.3 15.4 25.3 30.6 0 4.2-.8 8.3-2.5 12.2l10.4 19.5c1 1.9 1.2 4.1.6 6.1s-2 3.7-3.9 4.7L263.9 449c-1.2.6-2.5 1-3.7 1zm75.8-56.4c-2 0-4-.7-5.5-2.2-3.2-3-3.3-8.1-.3-11.3l128-135.2-1.8-2.4c-48.5-65.8-126.2-105-207.9-105-81.6 0-159.3 39.3-207.9 105l-1.8 2.4L167 380.1c3 3.2 2.9 8.3-.3 11.3-3.2 3-8.3 2.9-11.3-.3L22.7 251c-2.7-2.8-2.9-7.1-.6-10.3l5.8-7.8C79.4 163.1 162 121.4 248.7 121.4c86.7 0 169.2 41.7 220.7 111.5l5.8 7.8c2.3 3.1 2 7.4-.6 10.3L341.8 391.1c-1.6 1.7-3.7 2.5-5.8 2.5zM140.4 225.2c-2.9 0-5.6-1.5-7.1-4.2l-16.1-30.3c-2.1-3.9-.6-8.7 3.3-10.8 3.9-2.1 8.7-.6 10.8 3.3l16.1 30.3c2.1 3.9.6 8.7-3.3 10.8-1.1.6-2.4.9-3.7.9zm195.9-10.9c-1.3 0-2.6-.3-3.8-.9-3.9-2.1-5.4-6.9-3.3-10.8l16.1-30.3c2.1-3.9 6.9-5.4 10.8-3.3 3.9 2.1 5.4 6.9 3.3 10.8l-16.1 30.3c-1.4 2.7-4.1 4.2-7 4.2zm-99.3-19c-4.4 0-8-3.6-8-8v-34.4c0-4.4 3.6-8 8-8s8 3.6 8 8v34.4c0 4.4-3.6 8-8 8z" fill="#000"/></svg>