<svg width="512" height="512" viewBox="0 0 512 512" fill="none" xmlns="http://www.w3.org/2000/svg"><path opacity=".25" d="M256.4 448.3l-99.8-10.5c-15.9 0-30.2-6.4-40.6-16.8-10.3-10.2-16.7-24.4-16.8-40.1-.3-31.9 26.6-42.3 58.4-42.3l98.9 2.4c34.4 0 62.4-50.1 62.4-84.5v-78.3c0-34.4 27.9-51.4 62.4-51.4l26.9-11v268.7c0 27.2-22 49.2-49.2 63.9H256.4v-.1z" fill="#000"/><path d="M256.4 456.9c-57.1 0-94.1-8.4-115.2-15.5-16.4-5.5-43.8-17.3-43.8-34.5V113.6c0-1.3.3-2.4.8-3.5-.5-1.6-.8-3.3-.8-5.1 0-17.2 27.4-29 43.8-34.5 21-7.1 58.1-15.5 115.2-15.5s94.1 8.4 115.2 15.5C388 76 415.4 87.8 415.4 105s-27.4 29-43.8 34.5c-21 7.1-58.1 15.5-115.2 15.5s-94.1-8.4-115.2-15.5c-8.1-2.7-18.9-7-27.8-12.7v78.9c.3 1.8 7.5 11 35.2 19.9 19.9 6.4 54.7 14 107.8 14 53 0 87.9-7.6 107.8-14 27.5-8.9 34.8-18 35.2-19.9V147c0-4.4 3.6-8 8-8s8 3.6 8 8v159.7c-.4 17-28.1 28.7-44.5 34.2-21.1 7-58.1 15.4-114.4 15.4-56.3 0-93.3-8.4-114.4-15.4-8.3-2.8-19.5-7.1-28.5-12.9v79c.2 1.7 7.2 10.9 34.5 19.8 19.8 6.4 54.7 14.1 108.5 14.1s88.7-7.7 108.5-14.1c27.3-8.9 34.2-18.1 34.5-19.9v-58.7c0-4.4 3.6-8 8-8s8 3.6 8 8V407c0 17.2-27.4 29-43.8 34.5-21.2 7-58.3 15.4-115.4 15.4zM113.5 306.3c.3 1.8 7.5 11 35.2 19.9 19.9 6.4 54.7 14 107.8 14 53 0 87.9-7.6 107.8-14 27.5-8.9 34.8-18 35.2-19.9v-79c-9.1 5.8-20.2 10.2-28.5 12.9-21.1 7-58.1 15.4-114.4 15.4-56.3 0-93.3-8.4-114.4-15.4-8.3-2.8-19.5-7.1-28.5-12.9v79h-.2zm0-201.3c.4 1.9 7.5 11 34.5 19.8 19.8 6.4 54.7 14.1 108.5 14.1s88.7-7.7 108.5-14.1c27-8.8 34.1-17.9 34.5-19.8-.4-1.9-7.5-11-34.5-19.8-19.8-6.4-54.7-14.1-108.5-14.1S167.8 78.7 148 85.2c-27 8.8-34.1 17.9-34.5 19.8z" fill="#000"/><path opacity=".25" d="M463.9 252.6c0 4.4-3.6 8-8 8h-43c-4.4 0-8-3.6-8-8s3.6-8 8-8h43c4.4 0 8 3.6 8 8zm-29.5 22h-73.8c-4.4 0-8 3.6-8 8s3.6 8 8 8h73.8c4.4 0 8-3.6 8-8s-3.6-8-8-8zM483.5 53h-15.8V37.2c0-4.4-3.6-8-8-8s-8 3.6-8 8V53H436c-4.4 0-8 3.6-8 8s3.6 8 8 8h15.8v15.8c0 4.4 3.6 8 8 8s8-3.6 8-8V69h15.8c4.4 0 8-3.6 8-8s-3.7-8-8.1-8zM54.8 64h-3.9v-3.9c0-4.4-3.6-8-8-8s-8 3.6-8 8V64H31c-4.4 0-8 3.6-8 8s3.6 8 8 8h3.9v3.9c0 4.4 3.6 8 8 8s8-3.6 8-8V80h3.9c4.4 0 8-3.6 8-8s-3.6-8-8-8zm-4.6 139.2c-5.9 0-10.8 4.8-10.8 10.8 0 6 4.8 10.8 10.8 10.8 6 0 10.8-4.8 10.8-10.8 0-6-4.9-10.8-10.8-10.8zm0 70c-5.9 0-10.8 4.8-10.8 10.8 0 6 4.8 10.8 10.8 10.8 6 0 10.8-4.8 10.8-10.8 0-6-4.9-10.8-10.8-10.8zm0 61c-5.9 0-10.8 4.8-10.8 10.8 0 6 4.8 10.8 10.8 10.8 6 0 10.8-4.8 10.8-10.8 0-6-4.9-10.8-10.8-10.8zm408.2 95v-34.7H493v34.7h-34.6zm34.6 52.2v-34.7h-34.7v34.7H493zm-53.3 0v-34.7H405v34.7h34.7z" fill="#000"/></svg>