<svg width="512" height="512" viewBox="0 0 512 512" fill="none" xmlns="http://www.w3.org/2000/svg"><path opacity=".25" d="M145.7 388.4l220.6-264.7c9-10.7 24.9-12.2 35.7-3.2L148.9 424c-10.7-8.9-12.2-24.9-3.2-35.6zm237.4-106.8h-.1c-9.1 0-15.1 9.8-10.9 17.9 10.1 19.4 47.5 5.3 47.5 54.8 0 44.1-49.7 35.4-62.5 54.2-4.1 6-.9 14.2 6.1 16.2 6.2 1.8 12.7 2.7 19.5 2.8 40.3.3 73.5-32.5 73.6-72.9-.1-40.3-32.8-73-73.2-73zM129.2 81.8h-.1c-9.1 0-15.1 9.8-10.9 17.9 10.1 19.4 47.5 5.3 47.5 54.8 0 44.1-49.7 35.4-62.5 54.2-4.1 6-.9 14.2 6.1 16.2 6.2 1.8 12.7 2.7 19.5 2.8 40.3.3 73.5-32.5 73.6-72.9-.1-40.3-32.8-73-73.2-73z" fill="#000"/><path d="M129.5 238.7c-46.3 0-83.9-37.6-83.9-83.9 0-46.3 37.6-83.9 83.9-83.9 46.3 0 83.9 37.6 83.9 83.9 0 46.3-37.7 83.9-83.9 83.9zm0-151.8c-37.4 0-67.9 30.5-67.9 67.9 0 37.4 30.5 67.9 67.9 67.9 37.4 0 67.9-30.5 67.9-67.9 0-37.5-30.5-67.9-67.9-67.9zm0 101.2c-18.4 0-33.3-14.9-33.3-33.3s14.9-33.3 33.3-33.3 33.3 14.9 33.3 33.3-15 33.3-33.3 33.3zm0-50.6c-9.5 0-17.3 7.8-17.3 17.3s7.8 17.3 17.3 17.3 17.3-7.8 17.3-17.3c0-9.6-7.8-17.3-17.3-17.3zm253 303.6c-46.3 0-83.9-37.6-83.9-83.9 0-46.3 37.6-83.9 83.9-83.9 4.4 0 8 3.6 8 8s-3.6 8-8 8c-37.4 0-67.9 30.5-67.9 67.9 0 37.4 30.5 67.9 67.9 67.9 37.4 0 67.9-30.5 67.9-67.9 0-4.4 3.6-8 8-8s8 3.6 8 8c0 46.3-37.6 83.9-83.9 83.9zm0-50.6c-18.4 0-33.3-14.9-33.3-33.3s14.9-33.3 33.3-33.3c4.4 0 8 3.6 8 8s-3.6 8-8 8c-9.5 0-17.3 7.8-17.3 17.3s7.8 17.3 17.3 17.3 17.3-7.8 17.3-17.3c0-4.4 3.6-8 8-8s8 3.6 8 8c0 18.4-14.9 33.3-33.3 33.3zm-227.4 38.7l253.1-303.6c1.4-1.6 2-3.8 1.8-5.9-.2-2.1-1.3-4.1-3-5.4l-19.8-15.9c-3.4-2.8-8.5-2.2-11.2 1.2-2.8 3.4-2.2 8.5 1.2 11.2l13.4 10.8-242.7 291.2-26.6-22.2L369.2 93.1c2.8-3.4 2.4-8.4-1-11.3-3.4-2.8-8.4-2.4-11.3 1l-253 303.6c-1.4 1.6-2 3.7-1.8 5.8.2 2.1 1.2 4.1 2.8 5.4l38.9 32.4c1.5 1.2 3.3 1.9 5.1 1.9 2.3.1 4.6-.8 6.2-2.7z" fill="#000"/><path d="M437.8 220.6c-4.2-4.2-4.2-11 0-15.2 4.2-4.2 11-4.2 15.2 0 4.2 4.2 4.2 11 0 15.2-4.2 4.2-11 4.2-15.2 0zM72.9 337.4H69v-3.9c0-4.4-3.6-8-8-8s-8 3.6-8 8v3.9h-3.9c-4.4 0-8 3.6-8 8s3.6 8 8 8H53v3.9c0 4.4 3.6 8 8 8s8-3.6 8-8v-3.9h3.9c4.4 0 8-3.6 8-8s-3.5-8-8-8zM444.8 68.7h3.9v3.9c0 4.4 3.6 8 8 8s8-3.6 8-8v-3.9h3.9c4.4 0 8-3.6 8-8s-3.6-8-8-8h-3.9v-3.9c0-4.4-3.6-8-8-8s-8 3.6-8 8v3.9h-3.9c-4.4 0-8 3.6-8 8s3.5 8 8 8zm-60 220.9h51.5c4.4 0 8-3.6 8-8s-3.6-8-8-8h-51.5c-4.4 0-8 3.6-8 8s3.6 8 8 8zm86 34.3h-90.2c-4.4 0-8 3.6-8 8s3.6 8 8 8h90.2c4.4 0 8-3.6 8-8s-3.6-8-8-8zM252.5 447.2c-4.2 4.2-4.2 11 0 15.2 4.2 4.2 11 4.2 15.2 0 4.2-4.2 4.2-11 0-15.2-4.2-4.2-11-4.2-15.2 0z" fill="#000"/></svg>