<svg width="512" height="512" viewBox="0 0 512 512" fill="none" xmlns="http://www.w3.org/2000/svg"><path opacity=".25" d="M290.8 127.5V90.3c0-7.1 5.8-12.9 12.9-12.9h16.5v38.4c34.1 15.5 55.1 45.3 55.1 78.8v7h-41.6v-7c0-16-10.1-29.9-25.9-38.6-10.4-5.7-17-16.6-17-28.5zm67.6 140.9c-10.1-8-22.6-14.9-39.4-21.5-13.5-5.4-28.3 4.6-28.3 19.1 0 9.1 5.9 17 14.6 19.7 20.8 6.6 42.1 19.6 42.1 47.8 0 24.3-20.6 38.7-35 45.9-8.5 4.2-13.9 12.8-13.9 22.2v31.6c0 9 7.3 16.4 16.4 16.4h5.2v-32.4c50.7-15 68.9-54 68.9-83.7.1-27.5-10-48.8-30.6-65.1z" fill="#000"/><path d="M397.1 333.5c0 30.8-18.2 72.1-68.9 89.6v26.6c0 4.4-3.6 8-8 8h-21.6c-4.4 0-8-3.6-8-8s3.6-8 8-8h13.6v-24.4c0-3.5 2.3-6.7 5.7-7.7 46.6-13.8 63.2-49.6 63.2-76 0-24.9-9-44.2-27.6-58.8-16.2-12.8-39.6-22.9-78.2-33.8-30.9-8.7-51.4-18.6-62.7-30.2-10.7-11-10.7-21.2-10.7-26.6 0-27.7 26.1-45.6 66.4-45.6 40.7 0 72.7 24.1 73.4 55.1h25.6c-.4-30-19.2-56.3-50.4-70.5-2.9-1.3-4.7-4.1-4.7-7.3V85.4h-25.6v20c0 2.2-.9 4.4-2.6 5.9-1.6 1.5-3.8 2.3-6 2.1-4.1-.3-18.4-.4-22.8-.3-4.5.1-8.1-3.4-8.2-7.8-.1-4.4 3.4-8.1 7.8-8.2 3-.1 9.8 0 15.7.1V77.4c0-4.4 3.6-8 8-8h41.6c4.4 0 8 3.6 8 8v33.4c34.1 17.4 55.1 49.1 55.1 83.8v7c0 4.4-3.6 8-8 8h-41.6c-4.4 0-8-3.6-8-8v-7c0-22.5-25.2-40.1-57.4-40.1-30.6 0-50.4 11.6-50.4 29.6 0 4.3 0 9.1 6.2 15.5 9.1 9.4 27.8 18.1 55.5 25.9 40.7 11.5 65.8 22.4 83.8 36.7 22.8 17.8 33.8 41.2 33.8 71.3zm-100.5 89.6c-.1-4.4-3.6-7.9-8-7.9h-.1c-4.7.1-18.9-.1-22.9-.3-2.2-.2-4.4.6-6 2.1-1.6 1.5-2.5 3.6-2.5 5.8v18.8h-25.6V414c0-3.4-2.1-6.4-5.2-7.5-17.9-6.6-33.3-16.5-44.5-28.8-12.3-13.4-18.9-28.7-19.1-44.3h25.6c.9 30.1 41.5 56.3 87.7 56.3 55 0 79.6-28.2 79.6-56.1v-1.3c0-11.2 0-22.8-10.9-33.8-10.3-10.4-30-19.4-63.7-29.3-4.2-1.2-8.7 1.2-9.9 5.4-1.2 4.2 1.2 8.7 5.4 9.9 30.6 8.9 48.6 16.9 56.8 25.2 6 6.1 6.3 11.6 6.3 22.5v1.3c0 20-19.7 40.1-63.6 40.1-40.4 0-71.7-22.2-71.7-41.3v-7c0-4.4-3.6-8-8-8h-41.6c-4.4 0-8 3.6-8 8v7c0 20.1 8.1 39.5 23.3 56.2 11.8 12.9 27.5 23.5 45.5 30.9v30.1c0 4.4 3.6 8 8 8h41.6c4.4 0 8-3.6 8-8V431c6 .1 12.9.1 15.7.1 4.3 0 7.9-3.6 7.8-8zm-99.8-171.6c5 3.6 10.7 7.1 16.9 10.4 1.2.6 2.5.9 3.7.9 2.9 0 5.7-1.6 7.1-4.3 2-3.9.5-8.8-3.4-10.8-5.5-2.9-10.6-6-15-9.1-19.7-14.3-29.8-32.6-29.8-54.5 0-29.5 18.2-53 49.8-64.3 3.2-1.1 5.3-4.2 5.3-7.5V85.4H245c4.4 0 8-3.6 8-8s-3.6-8-8-8h-21.6c-4.4 0-8 3.6-8 8v29.4c-34.6 14.3-55.1 42.9-55.1 77.3.1 27.3 12.3 50 36.5 67.4z" fill="#000"/><path d="M33.3 125V28.9h36V125h-36zm54.7 0V28.9h36V125H88zm72 319.5c0 4.4-3.6 8-8 8H96c-4.4 0-8-3.6-8-8s3.6-8 8-8h56c4.4 0 8 3.6 8 8zm-58.2-25.2c0-4.4-3.6-8-8-8h-35c-4.4 0-8 3.6-8 8s3.6 8 8 8h35c4.4 0 8-3.6 8-8zM474 452.2c-5.9 0-10.8 4.8-10.8 10.8 0 6 4.8 10.8 10.8 10.8 5.9 0 10.8-4.8 10.8-10.8 0-6-4.9-10.8-10.8-10.8zm-33.9-175.4c0-4.4-3.6-8-8-8h-61.2c-4.4 0-8 3.6-8 8s3.6 8 8 8h61.2c4.4 0 8-3.6 8-8zm-160.5-8H229c-4.4 0-8 3.6-8 8s3.6 8 8 8h50.6c4.4 0 8-3.6 8-8s-3.6-8-8-8zm-135.8-6h91.9c4.4 0 8-3.6 8-8s-3.6-8-8-8h-91.9c-4.4 0-8 3.6-8 8s3.6 8 8 8zm289.1 107.5c-3.1 3.1-3.1 8.2 0 11.3 4.1 4.1 4.1 10.6 0 14.7s-10.6 4.1-14.7 0c-3.1-3.1-8.2-3.1-11.3 0-3.1 3.1-3.1 8.2 0 11.3 5.1 5.1 11.9 7.7 18.7 7.7 6.8 0 13.5-2.6 18.7-7.7 10.3-10.3 10.3-27 0-37.3-3.2-3.2-8.3-3.2-11.4 0zM382.1 97.4c20.3 0 36.8-16.5 36.8-36.8 0-4.4-3.6-8-8-8s-8 3.6-8 8c0 11.4-9.3 20.8-20.8 20.8-4.4 0-8 3.6-8 8s3.6 8 8 8zm78.7 0c4.4 0 8-3.6 8-8s-3.6-8-8-8c-11.4 0-20.8-9.3-20.8-20.8 0-4.4-3.6-8-8-8s-8 3.6-8 8c.1 20.3 16.6 36.8 36.8 36.8zm8 13.3c0-4.4-3.6-8-8-8-20.3 0-36.8 16.5-36.8 36.8 0 4.4 3.6 8 8 8s8-3.6 8-8c0-11.4 9.3-20.7 20.8-20.7 4.4-.1 8-3.7 8-8.1zm-86.7 8c11.4 0 20.8 9.3 20.8 20.8 0 4.4 3.6 8 8 8s8-3.6 8-8c0-20.3-16.5-36.7-36.8-36.7-4.4 0-8 3.6-8 8s3.6 7.9 8 7.9zM64 240.9c0 4.4 3.6 8 8 8s8-3.6 8-8v-15.8h15.8c4.4 0 8-3.6 8-8s-3.6-8-8-8H80v-15.8c0-4.4-3.6-8-8-8s-8 3.6-8 8v15.8H48.2c-4.4 0-8 3.6-8 8s3.6 8 8 8H64v15.8zm31.9 58.3v3.9H92c-4.4 0-8 3.6-8 8s3.6 8 8 8h3.9v3.9c0 4.4 3.6 8 8 8s8-3.6 8-8v-4h3.9c4.4 0 8-3.6 8-8s-3.6-8-8-8h-3.9v-3.9c0-4.4-3.6-8-8-8s-8 3.6-8 8.1z" opacity=".25" fill="#000"/></svg>