<svg width="512" height="512" viewBox="0 0 512 512" fill="none" xmlns="http://www.w3.org/2000/svg"><path opacity=".25" d="M447.7 174.7v115.2H427L399.7 307s15.8 17.2 2.9 30.6c0 0-11 19-30.6 2.9 0 0-.8 19-6.9 23.4-6.1 4.4-16.3 7.4-34.4-2.5 0 0 8.3 20.4-4.4 28.3-12.6 7.9-29.9-4.8-29.9-4.8s9.3 13.1.6 22.9c-8.6 9.8-35.6-4.7-45.5-18.1-9.8-13.5-16.5-8.4-16.5-8.4s-29.9 19.4-37.3 3.5c-7.4-15.9-4 3.7 21.3-16.2s79.4-62.5 79.4-62.5c21.6-20.5 19.1-51.3 3.1-76.5-15.5-24.3-39-40.7-22.7-54.7.7-.6 1.5-1.3 2.3-1.9.7.6 1.4 1.1 2.1 1.7 45.5 35.5 61.9 24.5 61 7.5-.5-8.9-15.1-21.7-21.8-32.8 5-2.3 8.3-3.7 8.3-3.7l51.2 28.9h65.8v.1z" fill="#000"/><path d="M447.7 166.7H384l-49.4-27.9c-2.6-1.5-5.7-1.3-8.1.1l-1-1.2-.1-.1c-2.1-2.6-4.4-5.5-6.7-8.5l-2.1-2.8c-.2-.2-.4-.5-.6-.7l-.3-.3c-.1-.1-.2-.3-.3-.4-6.9-8.8-22.4-9.5-47-9.5H230c-24.8 0-72.5 46.3-77.6 51.2H89c-4.4 0-8 3.6-8 8v115.2c0 4.4 3.6 8 8 8h11c4.4 0 8-3.6 8-8s-3.6-8-8-8h-3v-99.2h58.8c2.2 0 4.3-.9 5.8-2.5l1.7-1.8c22.2-22.2 55-46.9 66.6-46.9h38.4c9.3 0 31.1 0 34.4 3.3.2.2.3.4.5.6l.1.1c.3.4.6.8.9 1.1l1.9 2.4c2.4 3.1 4.7 6 6.9 8.7l7 9c10 12.5 16.1 20.7 17.9 25.8.8 2.3 1.3 3.5-2.7 7.6-.6.3-2.1.6-4.5.7-11.5-.3-29.3-9.2-39-19.5l-4-4.2c-2.8-3-7.5-3.4-10.7-.8L118.1 289.8c-.9.7-2.3 1.8-3.9 3.4-1.6 1.6-2.4 3.7-2.3 5.7-.4.8-.7 1.7-.7 2.7 0 .3-.1.6-.1.9-.6 5.3-2.4 19.4 13.7 33.3 4.3 3.7 9.6 5.5 15.4 5.5.5 0 1.1 0 1.6-.1 1.7 9.6 6.2 22.9 17.5 28 4.4 2 9.3 3 14.3 3 2.1 0 4.1-.2 6.2-.5.3 0 1.3-.2 2.7-.5 1.9 9.3 6.9 20.9 17.8 24.5 4.3 1.4 8.9 2.1 13.7 2.1 2 0 4-.1 6-.4 5-.6 8.6-1.7 10.8-3.1 3.3-2.3 7.3-5.3 11.9-8.7 1 4.7 3.5 9.1 7.1 12.4l.2.2 18.5 16c4.4 4.3 10 6.5 17 6.8h.6c6.5-.2 12.5-3 16.8-7.7 3.9-4.1 6.1-9.2 6.6-14.7 2.7 1.1 5.7 1.6 8.8 1.6h1.3c6.1-.4 11.8-3.1 15.9-7.7 4.1-4.5 6.3-10.5 6-16.8v-.3c0-.4-.1-.9-.2-1.3 3.7 2.2 7.7 3.3 11.9 3.3.8 0 1.5 0 2.3-.1 6.1-.5 11.9-3.5 15.9-8.3 3.9-4.7 5.8-10.7 5.4-17 2.9 1 5.9 1.5 9 1.5 1 0 2 0 2.9-.1 7.9-.8 15-4.6 20.1-10.6 5.1-6 7.5-13.7 6.8-21.6-.4-4.6-1.9-8.9-4.2-12.8l17.8-10.4h18.6c4.4 0 8-3.6 8-8V174.7c-.1-4.4-3.7-8-8.1-8zM291.2 402.3l-.1.1c-1.3 1.5-3.2 2.3-5.3 2.5-3.6-.2-5.1-1.3-6.1-2.3l-.4-.4-18.6-16c-1.6-1.5-2.4-3.5-2.5-5.7-.1-2.2.7-4.2 2.2-5.7l.1-.1c2-2.2 4.5-2.5 5.9-2.5 2.2 0 4.1.7 5.6 2.1.1.1.2.2.3.2l18.8 16.3c1.5 1.5 2.4 3.5 2.5 5.6-.1 2.2-.9 4.3-2.4 5.9zm32.2-20.6s0 .1 0 0c-1.3 1.5-3 2.3-5 2.5-2.2 0-3.9-.5-5.4-1.9l-.1-.1-28.8-25.3c-3.1-2.7-3.3-7.3-.6-10.4 1.3-1.5 3.3-2.4 5.4-2.4 1.8 0 3.6.7 4.9 1.9l28.9 25.2c1.1 1 2.3 2.8 2.5 5.1.1 1.6-.2 3.7-1.8 5.4zm35.5-22.9c-1.2 1.5-2.9 2.4-4.7 2.5h-.3c-2 .2-3.7-.3-5.4-1.5l-33.1-28.7-.2-.2c-1.5-1.2-2.4-2.9-2.5-4.7v-.2c-.2-1.9.4-3.8 1.6-5.3 1.2-1.5 2.9-2.4 5-2.7.4 0 .8-.1 1.1-.1 1.2 0 2.4.4 3.4 1.1 1.2 1.3 2.5 2.4 3.7 3.5l.2.1.2.2 30 25.4.1.1c1.5 1.2 2.4 2.9 2.6 4.9.2 2.2-.4 4-1.7 5.6zm37.6-26.4c-2.4 2.9-5.7 4.6-9.5 5-3.6.4-7-.7-9.9-3.1l-19.5-16-16.1-13.9c-.2-.2-.4-.5-.6-.7-3.3-5-3-11.7.9-16.4 2.3-2.8 5.6-4.6 9.3-4.9 3.6-.4 7.2.8 10 3.1l33.5 27.7c2.9 2.4 4.6 5.7 4.9 9.4.4 3.6-.7 7.1-3 9.8zm43.2-50.5H427c-1.4 0-2.8.4-4 1.1l-23.2 13.6-28.4-23.4c-6.1-5.1-13.8-7.5-21.7-6.7-7.9.7-15 4.5-20.1 10.6-5.9 7.1-8 16.4-6.2 25-1-.1-2.1-.2-3.1-.2-.8 0-1.5.1-1.9.2h-.3c-6.3.7-11.9 3.6-15.9 8.4-3.9 4.8-5.8 10.8-5.2 17 .1.7.1 1.4.3 2.1-2.6-1-5.4-1.5-8.1-1.5-6.8 0-13.1 2.9-17.5 7.8-5.1 5.7-6.8 13.3-5.4 20.2-6.6 0-12.9 2.7-17.3 7.4-2-.3-4.1.3-5.9 1.6-8.4 6.5-15.3 11.6-20.5 15.4-2.1.6-9.4 2.4-17.1-.2-5.2-1.7-7.6-13.1-7.7-17.4 23.1-17 58.6-45.9 59.4-46.7 3.2-3.1 3.3-8.1.2-11.3-3-3.1-7.8-3.3-11-.5-2.5 2.1-43.4 35.3-64.3 50.1-1.7.7-9.1 3.1-16 0-5-2.3-7.9-12.1-8.8-18.2.3-.2.6-.3.9-.5 20.6-14.6 65.1-50.5 66.6-52 3.1-3.1 3.1-8.2 0-11.3-3-3-7.8-3.1-10.9-.3-2.3 1.9-43.5 35.3-64.5 50.3-2.4 1.3-9.7 4.7-14 1-9.6-8.3-8.8-15.1-8.3-19.2.1-.5.1-.9.1-1.3l.2-.2c.1-.1.3-.2.4-.3L281 183.3c12.9 13 34.4 23.2 49.6 23.5h.5c3.4-.1 10.5-.4 15.3-5.3 12.3-12.5 9.1-23.6-1.2-38.2l32.7 18.4c1.2.7 2.6 1 3.9 1h57.8v99.2h.1z" fill="#000"/><path opacity=".25" d="M482.5 83.7c0 4.4-3.6 8-8 8-11.4 0-20.8 9.3-20.8 20.8 0 4.4-3.6 8-8 8s-8-3.6-8-8c0-20.3 16.5-36.8 36.8-36.8 4.4 0 8 3.6 8 8zm-86.8 8c11.4 0 20.8 9.3 20.8 20.8 0 4.4 3.6 8 8 8s8-3.6 8-8c0-20.3-16.5-36.8-36.8-36.8-4.4 0-8 3.6-8 8s3.6 8 8 8zm0-21.2c20.3 0 36.8-16.5 36.8-36.8 0-4.4-3.6-8-8-8s-8 3.6-8 8c0 11.4-9.3 20.8-20.8 20.8-4.4 0-8 3.6-8 8s3.6 8 8 8zm78.8 0c4.4 0 8-3.6 8-8s-3.6-8-8-8c-11.4 0-20.8-9.3-20.8-20.8 0-4.4-3.6-8-8-8s-8 3.6-8 8c0 20.3 16.5 36.8 36.8 36.8zM150 97.4h-3.9v-3.9c0-4.4-3.6-8-8-8s-8 3.6-8 8v3.9h-3.9c-4.4 0-8 3.6-8 8s3.6 8 8 8h3.9v3.9c0 4.4 3.6 8 8 8s8-3.6 8-8v-3.9h3.9c4.4 0 8-3.6 8-8s-3.6-8-8-8zm297.7 284c-4.4 0-8 3.6-8 8v3.9h-3.9c-4.4 0-8 3.6-8 8s3.6 8 8 8h3.9v3.9c0 4.4 3.6 8 8 8s8-3.6 8-8v-3.9h3.9c4.4 0 8-3.6 8-8s-3.6-8-8-8h-3.9v-3.9c0-4.4-3.6-8-8-8zM162.6 36.7H37.1c-4.4 0-8 3.6-8 8s3.6 8 8 8h125.5c4.4 0 8-3.6 8-8s-3.6-8-8-8zm308.1 437.6H345.2c-4.4 0-8 3.6-8 8s3.6 8 8 8h125.5c4.4 0 8-3.6 8-8s-3.6-8-8-8zM313 459.2h-59.2c-4.4 0-8 3.6-8 8s3.6 8 8 8H313c4.4 0 8-3.6 8-8s-3.6-8-8-8zm-233.3-107c-4.4 0-8 3.6-8 8 0 5.7-4.7 10.4-10.4 10.4s-10.4-4.7-10.4-10.4c0-4.4-3.6-8-8-8s-8 3.6-8 8c0 14.6 11.8 26.4 26.4 26.4 14.6 0 26.4-11.8 26.4-26.4 0-4.4-3.6-8-8-8zm36.7 150.5H13.8v-91.4l102.6 91.4z" fill="#000"/></svg>