<svg width="512" height="512" viewBox="0 0 512 512" fill="none" xmlns="http://www.w3.org/2000/svg"><path opacity=".25" d="M449.7 308.4v73.1h-31.6v14.7h-63.2V392c0-6.4 6.8-11.6 15.3-11.6 9 0 16.3-5.5 16.3-12.3v-82.2c0-9.7 10.4-17.6 23.2-17.6h6.6c1 0 1.8.6 1.8 1.3v55.1c0-9.7 10.4-17.6 23.2-17.6h6.6c1 0 1.8.6 1.8 1.3zm-286.2-40.2h-6.6c-12.8 0-13.2 7.9-13.2 17.6V368c0 6.8-7.3 12.3-16.3 12.3-.8 0-11.6 0-12.4.1-7.3.9-12.9 5.7-12.9 11.4v4.2h63.2V269.5c0-.7-.8-1.3-1.8-1.3z" fill="#000"/><path d="M418.7 402.8h-63.3c-4.4 0-8-3.6-8-8V268.2c0-4.4 3.6-8 8-8h31.1c4.4 0 8 3.6 8 8v100.4c0 4.4-3.6 8-8 8s-8-3.6-8-8v-92.4h-15.1v110.6h47.3V276.2h-7.8c-4.4 0-8-3.6-8-8v-15.8c0-74.1-60.3-134.5-134.5-134.5s-134.5 60.3-134.5 134.5v15.8c0 4.4-3.6 8-8 8h-7.8v110.6h47.3V276.2h-5.6v92.4c0 4.4-3.6 8-8 8s-8-3.6-8-8V268.2c0-4.4 3.6-8 8-8h21.6c4.4 0 8 3.6 8 8v126.6c0 4.4-3.6 8-8 8h-63.3c-4.4 0-8-3.6-8-8V387H70.4c-4.4 0-8-3.6-8-8v-95c0-4.4 3.6-8 8-8h11.7c4.4 0 8 3.6 8 8s-3.6 8-8 8h-3.7v79h15.7V268.2c0-4.4 3.6-8 8-8h7.8v-7.8c0-83 67.5-150.5 150.5-150.5s150.5 67.5 150.5 150.5v7.8h7.8c4.4 0 8 3.6 8 8v7.8h23.7c4.4 0 8 3.6 8 8v95c0 4.4-3.6 8-8 8h-23.7v7.8c0 4.4-3.6 8-8 8zm8-31.8h15.7v-79h-15.7v79z" fill="#000"/><path opacity=".25" d="M21.3 188.4c-4.4 0-8-3.6-8-8s3.6-8 8-8c20.3 0 36.7 16.5 36.7 36.8 0 4.4-3.6 8-8 8s-8-3.6-8-8c.1-11.5-9.2-20.8-20.7-20.8zm50 28.7c4.4 0 8-3.6 8-8 0-11.4 9.3-20.8 20.8-20.8 4.4 0 8-3.6 8-8s-3.6-8-8-8c-20.3 0-36.8 16.5-36.8 36.8 0 4.4 3.6 8 8 8zm-50-50c20.3 0 36.7-16.5 36.7-36.8 0-4.4-3.6-8-8-8s-8 3.6-8 8c0 11.4-9.3 20.8-20.7 20.8-4.4 0-8 3.6-8 8s3.6 8 8 8zM356.8 56.8h122.8c4.4 0 8-3.6 8-8s-3.6-8-8-8H356.8c-4.4 0-8 3.6-8 8s3.6 8 8 8zM100.1 167.1c4.4 0 8-3.6 8-8s-3.6-8-8-8c-11.4 0-20.8-9.3-20.8-20.8 0-4.4-3.6-8-8-8s-8 3.6-8 8c0 20.3 16.5 36.8 36.8 36.8zm222.4-139c0-4.4-3.6-8-8-8h-73.8c-4.4 0-8 3.6-8 8s3.6 8 8 8h73.8c4.4 0 8-3.6 8-8zm95.7 431.1h-31.8c-4.4 0-8 3.6-8 8s3.6 8 8 8h31.8c4.4 0 8-3.6 8-8s-3.5-8-8-8zm-290.7-28H24.2c-4.4 0-8 3.6-8 8s3.6 8 8 8h103.3c4.4 0 8-3.6 8-8s-3.6-8-8-8zm368.2-294.1H480v-15.8c0-4.4-3.6-8-8-8s-8 3.6-8 8v15.8h-15.8c-4.4 0-8 3.6-8 8s3.6 8 8 8H464v15.8c0 4.4 3.6 8 8 8s8-3.6 8-8v-15.8h15.8c4.4 0 8-3.6 8-8s-3.6-8-8.1-8zM357.5 459.2h-43c-4.4 0-8 3.6-8 8s3.6 8 8 8h43c4.4 0 8-3.6 8-8s-3.6-8-8-8zM224.8 229h-57.4c-4.4 0-8 3.6-8 8s3.6 8 8 8h57.4c4.4 0 8-3.6 8-8s-3.5-8-8-8zM92 62.6H25.4V19H92v43.6zm354.9 429.6H497v-50.1l-50.1 50.1z" fill="#000"/></svg>