<svg width="512" height="512" viewBox="0 0 512 512" fill="none" xmlns="http://www.w3.org/2000/svg"><path opacity=".25" d="M471 210c0 28.6-11.4 56.2-31.9 76.8l-183 183c-27.6-27.6-27.6-72.5 0-100.1L374 251.8c20.6-20.6 31.9-48.2 31.9-76.8 0-5.8-.3-11.4-1.5-16.6-2-13.6-6.6-26.5-13.3-37.9-4-6.8 2.8-14.8 10.1-12 14.3 5.5 27.1 14 37.8 24.7 16 16 27 36.9 30.4 60.2 1.3 5.2 1.6 10.7 1.6 16.6z" fill="#000"/><path d="M50.4 195.2c-1.2 4.9-1.3 10.5-1.3 14.7 0 26.8 10.5 52 29.6 71.1l62.1 62.1c3.1 3.1 3.1 8.2 0 11.3-1.6 1.6-3.6 2.3-5.7 2.3-2 0-4.1-.8-5.7-2.3l-62.1-62.1C45.2 270.3 33 241 33 210c0-5 .2-11.6 1.7-18.1 3.6-24.4 14.9-46.6 32.6-64.4 22.1-22.1 51.4-34.3 82.4-34.3 31 0 60.3 12.2 82.4 34.3l29.5 29.5c3.1 3.1 3.1 8.2 0 11.3-3.1 3.1-8.2 3.1-11.3 0l-29.5-29.5c-19.1-19.1-44.3-29.6-71.1-29.6-26.8 0-52 10.5-71.1 29.6-15.4 15.4-25.1 34.6-28.1 55.7 0 .3-.1.5-.1.7zm426.9-3.3c-3.6-24.4-14.9-46.6-32.6-64.4-22.1-22.1-51.4-34.3-82.4-34.3-31 0-60.3 12.2-82.4 34.3l-10 10c-3.1 3.1-3.1 8.2 0 11.3 3.1 3.1 8.2 3.1 11.3 0l10-10c19.1-19.1 44.3-29.6 71.1-29.6 26.8 0 52 10.5 71.1 29.6 15.4 15.4 25.1 34.6 28.1 55.7 0 .2.1.5.1.7 1.2 5 1.3 10.5 1.3 14.7 0 26.8-10.5 52-29.6 71.1L256 458.4l-74.6-74.6c-3.1-3.1-8.2-3.1-11.3 0-3.1 3.1-3.1 8.2 0 11.3l80.2 80.2c1.5 1.5 3.5 2.3 5.7 2.3s4.2-.8 5.7-2.3l183-183c22.1-22 34.3-51.3 34.3-82.3 0-5.1-.2-11.7-1.7-18.1z" fill="#000"/><path opacity=".25" d="M345.2 46.6c0 4.4-3.6 8-8 8-26.8 0-52 10.5-71.1 29.6l-10 10c-1.6 1.6-3.6 2.3-5.7 2.3-2 0-4.1-.8-5.7-2.3-3.1-3.1-3.1-8.2 0-11.3l10-10c22.1-22.1 51.4-34.3 82.4-34.3 4.5 0 8.1 3.6 8.1 8zm-152.9 333H26.7c-4.4 0-8 3.6-8 8s3.6 8 8 8h165.6c4.4 0 8-3.6 8-8s-3.5-8-8-8zm20.4-37.3H97c-4.4 0-8 3.6-8 8s3.6 8 8 8h115.7c4.4 0 8-3.6 8-8s-3.6-8-8-8zM487.4 50.5h-86.8c-4.4 0-8 3.6-8 8s3.6 8 8 8h86.8c4.4 0 8-3.6 8-8s-3.6-8-8-8zM126.3 429.9H68.9c-4.4 0-8 3.6-8 8s3.6 8 8 8h57.4c4.4 0 8-3.6 8-8s-3.6-8-8-8zm352.5-41H463v-15.8c0-4.4-3.6-8-8-8s-8 3.6-8 8v15.8h-15.8c-4.4 0-8 3.6-8 8s3.6 8 8 8H447v15.8c0 4.4 3.6 8 8 8s8-3.6 8-8v-15.8h15.8c4.4 0 8-3.6 8-8s-3.6-8-8-8zM31.3 64.9H47v15.8c0 4.4 3.6 8 8 8s8-3.6 8-8V64.9h15.8c4.4 0 8-3.6 8-8s-3.6-8-8-8H63V33.2c0-4.4-3.6-8-8-8s-8 3.6-8 8V49H31.3c-4.4 0-8 3.6-8 8s3.5 7.9 8 7.9zm369.3 426.5v-21.8h86.7v21.8h-86.7zm-76 0l56.9-56.9v56.9h-56.9z" fill="#000"/></svg>