<svg width="512" height="512" viewBox="0 0 512 512" fill="none" xmlns="http://www.w3.org/2000/svg"><path d="M211.4 406.4c-52.3-16.1-93.7-57.2-110.3-109.3l29.2-7.3c21.2 36.4 51.9 63.1 91.7 73.2l-10.6 43.4zM420 297.1c-16.5 52.2-58 93.3-110.5 109.4l-11.8-47.2c13.6-5.7 23.9-13.8 30.8-21.8 39.2-44.9 46.8-133.1-32.3-194.1l13.7-55.7c-1.7-.6-3.5-1.1-5.2-1.6 2.5.4 4.9.8 7.4 1.3 52.5 17 93.7 59.3 109.1 112.5l-.6-1.5-62.3 15.6c14.9 14.8 4.3 69 4.3 69l57.4 14.1zM54.5 62.2H19.8V27.5h34.7v34.7zm55.2-34.7H75v34.7h34.7V27.5zM259 475.4v12.9H21.9v-12.9H259zm-152.2-70.3c0 4.4-3.6 8-8 8h-3.9v3.9c0 4.4-3.6 8-8 8s-8-3.6-8-8v-3.9H75c-4.4 0-8-3.6-8-8s3.6-8 8-8h3.9v-3.9c0-4.4 3.6-8 8-8s8 3.6 8 8v3.9h3.9c4.4 0 8 3.6 8 8zM420.6 65.3h3.9v3.9c0 4.4 3.6 8 8 8s8-3.6 8-8v-3.9h3.9c4.4 0 8-3.6 8-8s-3.6-8-8-8h-3.9v-3.9c0-4.4-3.6-8-8-8s-8 3.6-8 8v3.9h-3.9c-4.4 0-8 3.6-8 8s3.6 8 8 8zm-.9 373.2h59.2c4.4 0 8-3.6 8-8s-3.6-8-8-8h-59.2c-4.4 0-8 3.6-8 8s3.6 8 8 8zm57.7 30.3H350.1c-4.4 0-8 3.6-8 8s3.6 8 8 8h127.3c4.4 0 8-3.6 8-8s-3.6-8-8-8zM72.3 275c0-4.4-3.6-8-8-8H44.6c-4.4 0-8 3.6-8 8s3.6 8 8 8h19.7c4.4 0 8-3.6 8-8z" opacity=".25" fill="#000"/><path d="M370.6 103.7c-79-60.6-192.5-45.6-253 33.4-60.6 79-45.6 192.5 33.4 253 32.7 25.1 71.3 37.2 109.6 37.2 54.2 0 107.9-24.3 143.4-70.6 60.5-78.9 45.5-192.4-33.4-253zM259 341.5c-52.5 0-95.2-42.7-95.2-95.2 0-41.6 26.8-77 64-89.9h.1c9.8-3.4 20.3-5.2 31.2-5.2 52.5 0 95.2 42.7 95.2 95.2-.1 52.4-42.8 95.1-95.3 95.1zM100.9 208.3l49.9 12.2c-2 8.3-3 16.9-3 25.8 0 9.9 1.3 19.4 3.7 28.6l-50.1 12.3c-6.5-25.7-6.8-52.9-.5-78.9zm266.3 12.4l53.1-13.3c6.5 26.3 6.5 54.1-.4 80.8L366.4 275c2.4-9.2 3.8-18.8 3.8-28.7 0-8.8-1.1-17.4-3-25.6zm48.1-29.9l-53.4 13.4c-11.1-26.9-32.4-48.5-59.1-60l12.8-52.3c15.9 5.6 31.2 13.8 45.2 24.6 25.8 19.7 44.1 45.7 54.5 74.3zM298.9 87l-12.6 51.6c-8.7-2.2-17.9-3.4-27.3-3.4-9.5 0-18.8 1.2-27.6 3.5L218.7 88c13.8-3.6 28-5.5 42.2-5.5 12.7 0 25.5 1.5 38 4.5zm-168.7 59.8c19.2-25.1 44.3-43.1 71.9-53.5l12.7 51c-26.5 11.5-47.7 33-58.7 59.7l-50.3-12.3c5.6-15.8 13.7-30.9 24.4-44.9zm-23.7 157l50.8-12.5c11.4 25.6 32.2 46.2 57.9 57.2l-12.8 52.2c-14.6-5.5-28.7-13.3-41.8-23.3-25.5-19.6-43.8-45.3-54.1-73.6zM219 406l12.7-51.9c8.7 2.2 17.8 3.4 27.2 3.4 9.2 0 18.1-1.1 26.6-3.2l12.9 52.6c-25.9 6.1-53.2 5.9-79.4-.9zm172.2-59c-20.2 26.3-46.9 44.9-76.1 55.1L302 348.9c26-11 47-31.6 58.5-57.4l54.1 13.3c-5.4 14.8-13.2 29-23.4 42.2z" fill="#000"/></svg>