<svg width="512" height="512" viewBox="0 0 512 512" fill="none" xmlns="http://www.w3.org/2000/svg"><path opacity=".25" d="M349.8 120h-1.1c-5.8.1-7.4 7.9-2.2 10.3 39.8 18.2 67.6 58.4 67.6 104.9 0 24.2-7.4 47.3-21.5 67-4.5 6.3-9.4 12.1-14.2 17.7-14.6 17.1-27.2 31.9-27.2 60v52.4c0 16.5-4.4 29.1-13.3 38.6l-.4.4c-6.6 6.7-4.6 18 4 21.7 3.1 1.3 5.9 2.1 8.2 2.1 11.3 0 33.5-18.4 39-24.2 9-9.5 13.3-22.1 13.3-38.6v-52.4c0-28.1 12.6-42.9 27.2-60 4.7-5.6 9.6-11.3 14.2-17.7 14.1-19.8 21.6-43.1 21.5-67.5C464.8 171 413.6 120 349.8 120z" fill="#000"/><path d="M349.8 112c-67.9 0-123.2 55.3-123.2 123.2 0 25.9 7.9 50.7 23 71.6 4.8 6.7 10 12.8 14.6 18.2 14.1 16.6 25.3 29.7 25.3 54.9v52.4c0 18.6 5.1 33.1 15.5 44.1 3.9 4.2 28.9 26.7 44.9 26.7s40.9-22.6 44.8-26.7c10.4-11 15.5-25.5 15.5-44.1v-53.4c.1-.5.2-1.1.2-1.6 0-.4 0-.8-.1-1.1 1.1-22.7 11.8-35.4 25.2-51.1l.1-.2c4.8-5.6 9.8-11.5 14.4-18 15-21 23-45.8 23-71.6.1-68-55.2-123.3-123.2-123.3zm87.3 185.5c-4.3 6-9 11.6-13.6 17l-.1.2c-13.2 15.5-25.7 30.2-28.5 54.6h-44.5c-4.4 0-8 3.6-8 8s3.6 8 8 8h43.9v48.2h-43.9c-4.4 0-8 3.6-8 8s3.6 8 8 8H392c-1.8 6.3-4.8 11.6-8.9 15.9-6.8 7.2-26.4 21.7-33.2 21.7-6.8 0-26.5-14.6-33.2-21.7-7.5-7.9-11.1-18.8-11.1-33.1v-52.4c0-31.1-14.2-47.7-29.1-65.3-4.6-5.4-9.4-11-13.8-17.1-13.1-18.3-20-39.8-20-62.3 0-59.1 48.1-107.2 107.2-107.2s107.2 48.1 107.2 107.2c0 22.5-6.9 44.1-20 62.3zm-233.8-32c0 4.4-3.6 8-8 8h-67.8c-4.4 0-8-3.6-8-8s3.6-8 8-8h67.8c4.4 0 8 3.6 8 8zm301.4-144.9l-18.9 18.9c-1.6 1.6-3.6 2.3-5.7 2.3s-4.1-.8-5.7-2.3c-3.1-3.1-3.1-8.2 0-11.3l18.9-18.9c3.1-3.1 8.2-3.1 11.3 0 3.2 3.1 3.2 8.2.1 11.3zM225.8 135c-1.6 1.6-3.6 2.3-5.7 2.3s-4.1-.8-5.7-2.3l-47.9-47.9c-3.1-3.1-3.1-8.2 0-11.3 3.1-3.1 8.2-3.1 11.3 0l47.9 47.9c3.2 3.1 3.2 8.2.1 11.3zm275 272.7c3.1 3.1 3.1 8.2 0 11.3-1.6 1.6-3.6 2.3-5.7 2.3-2 0-4.1-.8-5.7-2.3L460 389.5c-3.1-3.1-3.1-8.2 0-11.3 3.1-3.1 8.2-3.1 11.3 0l29.5 29.5zm-159-325.1V14.8c0-4.4 3.6-8 8-8s8 3.6 8 8v67.8c0 4.4-3.6 8-8 8s-8-3.6-8-8z" fill="#000"/><path opacity=".25" d="M154.6 440.2c-4.9-1.1-9.7 2-10.7 6.9-1.1 4.9 2 9.7 6.9 10.7.6.1 1.3.2 1.9.2 1.7 0 3.4-.5 4.9-1.4 2-1.3 3.4-3.3 3.9-5.7.5-2.4.1-4.8-1.2-6.8a8.9 8.9 0 00-5.7-3.9zM275.1 67c-4.9-1.1-9.7 2-10.7 6.9-1.1 4.9 2 9.7 6.9 10.7.6.1 1.3.2 1.9.2 4.2 0 7.9-2.9 8.8-7.1 1.1-4.8-2-9.6-6.9-10.7zM41.6 274.3c.6.1 1.3.2 1.9.2 1.7 0 3.4-.5 4.9-1.4 2-1.3 3.4-3.3 3.9-5.7.5-2.4.1-4.8-1.2-6.8a8.9 8.9 0 00-5.7-3.9c-4.9-1.1-9.7 2-10.7 6.9-1.1 4.8 2 9.7 6.9 10.7zm158.1-79.4c2-1.3 3.4-3.3 3.9-5.7 1.1-4.9-2-9.7-6.9-10.7-2.4-.5-4.8-.1-6.8 1.2a8.9 8.9 0 00-3.9 5.7c-.5 2.4-.1 4.8 1.2 6.8s3.3 3.4 5.7 3.9c.6.1 1.3.2 1.9.2 1.7 0 3.4-.5 4.9-1.4zm-69.4 199.5c0 4.4-3.6 8-8 8-11.4 0-20.8 9.3-20.8 20.8 0 4.4-3.6 8-8 8s-8-3.6-8-8c0-20.3 16.5-36.8 36.8-36.8 4.4 0 8 3.6 8 8zm-50 28.8c0 4.4-3.6 8-8 8s-8-3.6-8-8c0-11.4-9.3-20.8-20.8-20.8-4.4 0-8-3.6-8-8s3.6-8 8-8c20.3 0 36.8 16.5 36.8 36.8zm0-78.8c0 20.3-16.5 36.8-36.8 36.8-4.4 0-8-3.6-8-8s3.6-8 8-8c11.4 0 20.8-9.3 20.8-20.8 0-4.4 3.6-8 8-8s8 3.6 8 8zm50 28.8c0 4.4-3.6 8-8 8-20.3 0-36.8-16.5-36.8-36.8 0-4.4 3.6-8 8-8s8 3.6 8 8c0 11.4 9.3 20.8 20.8 20.8 4.4 0 8 3.6 8 8zM54.4 145l11.2-11.2-11.2-11.2c-3.1-3.1-3.1-8.2 0-11.3 3.1-3.1 8.2-3.1 11.3 0l11.2 11.2L88 111.4c3.1-3.1 8.2-3.1 11.3 0 3.1 3.1 3.1 8.2 0 11.3l-11.2 11.2L99.3 145c3.1 3.1 3.1 8.2 0 11.3-1.6 1.6-3.6 2.3-5.7 2.3s-4.1-.8-5.7-2.3l-11.2-11.2-11.2 11.2c-1.6 1.6-3.6 2.3-5.7 2.3-2 0-4.1-.8-5.7-2.3-2.8-3.1-2.8-8.2.3-11.3zm415-90.8c0 4.4-3.6 8-8 8h-3.9v3.9c0 4.4-3.6 8-8 8s-8-3.6-8-8v-3.9h-3.9c-4.4 0-8-3.6-8-8s3.6-8 8-8h3.9v-3.9c0-4.4 3.6-8 8-8s8 3.6 8 8v3.9h3.9c4.4 0 8 3.5 8 8zM234 358.8c0 4.4-3.6 8-8 8h-3.9v3.9c0 4.4-3.6 8-8 8s-8-3.6-8-8v-3.9h-3.9c-4.4 0-8-3.6-8-8s3.6-8 8-8h3.9v-3.9c0-4.4 3.6-8 8-8s8 3.6 8 8v3.9h3.9c4.5 0 8 3.6 8 8zM9.4 48.7V26.9h250v21.8H9.4zm250 446.4v-21.8H9.4v21.8h250zm-61.9-41.399l60.9-60.9v60.9h-60.9z" fill="#000"/></svg>