<svg width="512" height="512" viewBox="0 0 512 512" fill="none" xmlns="http://www.w3.org/2000/svg"><path opacity=".25" d="M106.7 323.4c-4.8 1.1-9.7 1.6-14.8 1.6h-.2c-14.8 0-28.8-7.3-37.5-19.4-9.4-13.1-13.5-28.9-13.5-45.7 0-26.1 11.4-49.5 34.2-64.7 5-3.4 10.9-5.3 17-5.3h.1c7.6 0 14.9 1.2 21.9 3.6-30.3 6.7-53.1 33.7-53.1 65.9 0 29.6 19.2 54.9 45.9 64zm75.8-115.3c1.1.9 1.1 2.6 0 3.6l-5.4 4.7c-1.9 1.6-2 4.5-.1 6.1l13.9 12.3 26.5-23.1-22.7-20.1c-18.3-18.2-42.6-28.3-68.6-28.3-3.8 0-7.5.2-11.1.6 17.6 4 33.7 12.8 46.8 25.8l20.7 18.4zm178-14.9c-6.4-2.2-13.3-3.4-20.5-3.4-17 0-32.9 6.6-44.9 18.6l-50.5 44.7.1.1-28.3 25.1-.1-.1-52.9 46.9c-15.7 15.5-36.5 25.5-59.1 28 7.3 1.7 14.9 2.5 22.7 2.5 27 0 52.4-10.5 70.7-28.7l52.9-46.9.1.1L279 255l50.5-44.7c8.7-8.7 19.4-14.5 31-17.1zM346 162.8c-3.3 0-6.6.1-9.8.4 53.6 4.5 95.6 45.8 95.6 96s-42.1 91.5-95.8 96c3.3.3 6.5.4 9.8.4 58.3 0 105.5-43.2 105.5-96.4.1-53.2-47.2-96.4-105.3-96.4zM72 32.6v21.8H15.1V32.6H72zm14.5 0v21.8h56.9V32.6H86.5z" fill="#000"/><path d="M117.6 363.7c-57.8 0-104.9-46.9-104.9-104.5 0-27.8 10.9-54 30.6-73.7 19.8-19.8 46.1-30.7 74.1-30.7h.2c27.9 0 54.2 10.8 74 30.4l22.5 19.9c1.7 1.5 2.7 3.7 2.7 6s-1 4.5-2.7 6l-27.1 24c-3.3 2.9-8.4 2.6-11.3-.7-2.9-3.3-2.6-8.4.7-11.3l20.3-18-15.9-14.1-.3-.3c-16.8-16.8-39.3-26-63.1-25.9-23.7 0-46 9.2-62.8 26-16.7 16.7-25.9 38.8-25.9 62.4 0 48.8 39.9 88.5 88.9 88.5 23.3 0 46-9.2 62.1-25.1l.3-.3 50.7-45c.4-.3.7-.6 1.2-.9l25-22.2c.3-.4.6-.7 1-1l48.2-42.6c12.9-12.9 30.1-19.9 48.5-19.9 38 0 68.8 30.8 68.8 68.6s-30.9 68.6-68.8 68.6c-18.5 0-35.5-7.1-49.2-20.5l-20.4-18c-3.3-2.9-3.6-8-.7-11.3 2.9-3.3 8-3.6 11.3-.7l20.4 18 .3.3c10.7 10.5 23.9 16.1 38.2 16.1 29.1 0 52.8-23.6 52.8-52.6s-23.7-52.6-52.8-52.6c-14.1 0-27.4 5.5-37.3 15.4-.1.1-.2.2-.4.3l-47.3 41.9c-.3.4-.6.7-1 1l-27.1 24-1.2.9-49.5 43.9c-19 18.9-45.7 29.7-73.1 29.7zm313.5-33.2c18.2-19.4 28.2-44.7 28.2-71.2 0-57.6-47.1-104.5-104.9-104.5-27.6 0-54.2 10.8-73.2 29.7l-49.5 43.8c-.4.2-.8.5-1.1.8l-27.2 24c-.5.5-1 1-1.3 1.5l-46.9 41.6-.3.3c-10 9.9-23.2 15.4-37.3 15.4-29.1 0-52.8-23.6-52.8-52.6s23.7-52.6 52.8-52.6c14.3 0 27.5 5.6 38.1 16.2 3.1 3.1 8.2 3.1 11.3 0 3.1-3.1 3.1-8.2 0-11.3-13.7-13.6-30.8-20.8-49.4-20.8-38 0-68.8 30.8-68.8 68.6S79.7 328 117.6 328c18.3 0 35.5-7 48.4-19.8l48.2-42.7c.5-.4.9-.9 1.3-1.5l24.6-21.7c.4-.2.8-.5 1.2-.9l50.7-44.9c.1-.1.2-.2.4-.3 16-16 38.6-25.2 62.1-25.2 49 0 88.9 39.7 88.9 88.5 0 22.4-8.5 43.9-23.9 60.3-3 3.2-2.9 8.3.4 11.3 1.5 1.4 3.5 2.2 5.5 2.2 2-.3 4.2-1.2 5.7-2.8zm-70.1 33c4.4-.3 7.8-4.1 7.5-8.5-.3-4.4-4.1-7.8-8.5-7.5-1.9.1-3.8.2-5.7.2-23.8 0-46.1-9.2-62.8-25.8l-.3-.3-15.9-14.1 4.4-3.9c3.3-2.9 3.6-8 .7-11.3-2.9-3.3-8-3.6-11.3-.7l-11.1 9.9c-1.7 1.5-2.7 3.7-2.7 6s1 4.5 2.7 6l22.5 19.9c19.7 19.6 46 30.3 73.9 30.3 2.2 0 4.4-.1 6.6-.2z" fill="#000"/><path opacity=".25" d="M353.8 303.7c-12 0-23-4.6-31.8-13.2l-12.1-10.7c-3.3-2.9-3.6-8-.7-11.3 2.9-3.3 8-3.6 11.3-.7l12.3 10.9.3.3c5.8 5.7 13 8.8 20.7 8.8 15.8 0 28.6-12.8 28.6-28.4 0-15.6-12.8-28.4-28.6-28.4-7.6 0-14.8 3-20.2 8.3-3.1 3.1-8.2 3.1-11.3 0-3.1-3.1-3.1-8.2 0-11.3 8.4-8.4 19.6-13 31.5-13 24.6 0 44.6 19.9 44.6 44.4s-20 44.3-44.6 44.3zm-149.7 42.7c-22.2 22-53.4 34.6-85.5 34.6-4.4 0-8 3.6-8 8s3.6 8 8 8c36.3 0 71.6-14.3 96.8-39.3 3.1-3.1 3.2-8.2.1-11.3a8.15 8.15 0 00-11.4 0zm-85.5-208.9c32.7 0 63.5 12.7 86.6 35.7l.3.3 30.6 27.1c1.5 1.3 3.4 2 5.3 2 2.2 0 4.4-.9 6-2.7 2.9-3.3 2.6-8.4-.7-11.3l-30.4-26.9c-26.1-25.9-60.8-40.2-97.7-40.2-4.4 0-8 3.6-8 8s3.6 8 8 8zm19.6 302.7H25.4c-4.4 0-8 3.6-8 8s3.6 8 8 8h112.8c4.4 0 8-3.6 8-8s-3.6-8-8-8zm333.1-92.5H358.5c-4.4 0-8 3.6-8 8s3.6 8 8 8h112.8c4.4 0 8-3.6 8-8s-3.5-8-8-8zM406.6 48.9h54.1c4.4 0 8-3.6 8-8s-3.6-8-8-8h-54.1c-4.4 0-8 3.6-8 8s3.6 8 8 8zM460.7 333c4.4 0 8-3.6 8-8s-3.6-8-8-8h-54.1c-4.4 0-8 3.6-8 8s3.6 8 8 8h54.1zM52.4 116.8c5.9 0 10.8-4.8 10.8-10.8 0-6-4.8-10.8-10.8-10.8-5.9 0-10.8 4.8-10.8 10.8 0 6 4.9 10.8 10.8 10.8zm221.8 286.8c-3.1-3.1-8.2-3.1-11.3 0l-11.2 11.2-11.2-11.2c-3.1-3.1-8.2-3.1-11.3 0-3.1 3.1-3.1 8.2 0 11.3l11.2 11.2-11.2 11.2c-3.1 3.1-3.1 8.2 0 11.3 1.6 1.6 3.6 2.3 5.7 2.3s4.1-.8 5.7-2.3l11.2-11.2 11.2 11.2c1.6 1.6 3.6 2.3 5.7 2.3s4.1-.8 5.7-2.3c3.1-3.1 3.1-8.2 0-11.3l-11.2-11.2 11.2-11.2c2.9-3.1 2.9-8.2-.2-11.3zm5.5-363.2c-4.4 0-8 3.6-8 8 0 11.4-9.3 20.8-20.8 20.8-4.4 0-8 3.6-8 8s3.6 8 8 8c20.3 0 36.8-16.5 36.8-36.8 0-4.4-3.6-8-8-8zm50 44.8c4.4 0 8-3.6 8-8s-3.6-8-8-8c-11.4 0-20.8-9.3-20.8-20.8 0-4.4-3.6-8-8-8s-8 3.6-8 8c0 20.3 16.5 36.8 36.8 36.8zm0 21.2c4.4 0 8-3.6 8-8s-3.6-8-8-8c-20.3 0-36.8 16.5-36.8 36.8 0 4.4 3.6 8 8 8s8-3.6 8-8c0-11.4 9.3-20.8 20.8-20.8zm-78.8-16c-4.4 0-8 3.6-8 8s3.6 8 8 8c11.4 0 20.8 9.3 20.8 20.8 0 4.4 3.6 8 8 8s8-3.6 8-8c0-20.3-16.5-36.8-36.8-36.8zm207.8 347.9h-3.9v-3.9c0-4.4-3.6-8-8-8s-8 3.6-8 8v3.9h-3.9c-4.4 0-8 3.6-8 8s3.6 8 8 8h3.9v3.9c0 4.4 3.6 8 8 8s8-3.6 8-8v-3.9h3.9c4.4 0 8-3.6 8-8s-3.6-8-8-8zm-94.1-318.1c-5.7 0-10.3 4.6-10.3 10.3 0 5.7 4.6 10.3 10.3 10.3 63.1 0 114.4 51.1 114.4 113.8 0 5.7 4.6 10.3 10.3 10.3 5.7 0 10.3-4.6 10.3-10.3 0-74.1-60.6-134.4-135-134.4zM146.4 288.3l26.1-23.1c1.7-1.5 2.6-3.5 2.7-5.8.1-2.2-.8-4.3-2.4-5.9l-.1-.1c-3.1-3.1-8.2-3.1-11.3 0l-.7.7-25.1 22.3-.3.3c-4.7 4.7-11 7.3-17.7 7.3-13.8 0-25-11.2-25-24.9s11.2-24.9 25-24.9c6.8 0 13 2.7 18.1 7.7 3.1 3.1 8.2 3.1 11.3 0 3.1-3.1 3.1-8.2 0-11.3-8.1-8.1-18.3-12.3-29.4-12.3-22.6 0-41 18.3-41 40.9 0 22.6 18.4 40.9 41 40.9 10.8 0 21-4.2 28.8-11.8z" fill="#000"/></svg>