<svg width="512" height="512" viewBox="0 0 512 512" fill="none" xmlns="http://www.w3.org/2000/svg"><path opacity=".25" d="M372.3 184.7c0 12.9-2.9 25.1-8.7 36.6-5.8 11.5-15.9 24.2-30.3 38.2l-18.5 17.6c-11.5 11.1-18.2 24.1-19.8 39l-.9 13.9H277c-7.6 0-13.5-6.4-13-13.9 1.7-14.9 8.3-27.9 19.8-39l18.5-17.6c14.4-14 24.5-26.7 30.3-38.2 5.8-11.5 8.7-23.7 8.7-36.6 0-28.4-8.9-50.5-26.7-66.1-14.8-12.9-34.5-20.5-59.2-22.7 4.9-.5 10-.7 15.3-.7 32.2 0 57.2 7.8 75 23.4 17.7 15.7 26.6 37.7 26.6 66.1zm-132.7-35.6c-11.3 0-20.3 3.5-27 10.4-6.8 6.9-10.3 16.5-10.6 28.7h31c.3-12.2 3.8-21.7 10.6-28.7 3.4-3.5 7.4-6.1 11.9-7.8-4.5-1.8-9.8-2.6-15.9-2.6zm26.5 215.8c-5.7 0-10.9.9-15.5 2.8 4.1 1.6 7.8 4 11 7.1 6.9 6.6 10.4 15 10.4 25.1 0 10-3.4 18.3-10.1 24.8-3.3 3.1-7 5.5-11.2 7.1 4.6 1.8 9.8 2.6 15.5 2.6 11.1 0 20-3.3 26.8-9.8 6.8-6.5 10.1-14.8 10.1-24.8 0-10.1-3.5-18.5-10.4-25.1-7-6.5-15.8-9.8-26.6-9.8z" fill="#000"/><path d="M462.3 392.8h-86.8c-4.4 0-8-3.6-8-8s3.6-8 8-8h86.8c4.4 0 8 3.6 8 8s-3.6 8-8 8zm-39.6-43.1c0-4.4-3.6-8-8-8h-57.4c-4.4 0-8 3.6-8 8s3.6 8 8 8h57.4c4.4 0 8-3.6 8-8zM104.9 57c0-4.4-3.6-8-8-8H37.7c-4.4 0-8 3.6-8 8s3.6 8 8 8h59.2c4.4 0 8-3.6 8-8z" fill="#000" fill-opacity=".25"/><path d="M39.4 429.5v35.1h35.1v21.8H17.6v-56.9h21.8zm-9.7-235.1h21.8v145.9H29.7V194.4z" opacity=".25" fill="#000"/><path d="M266.1 442.5c-13.2 0-24.1-4-32.3-12-8.4-8-12.6-18.3-12.6-30.5 0-12.4 4.3-22.8 12.9-30.9 8.4-8 19.2-12.1 32.1-12.1 12.9 0 23.7 4.1 32.1 12.1 3.2 3 3.3 8.1.3 11.3-3 3.2-8.1 3.3-11.3.3-5.4-5.2-12.3-7.7-21-7.7s-15.6 2.5-21 7.7c-5.3 5.1-7.9 11.4-7.9 19.3 0 7.8 2.5 14 7.7 19 5.3 5.1 12.2 7.5 21.2 7.5s16-2.5 21.2-7.5c5.2-5 7.7-11.2 7.7-19 0-4.4 3.6-8 8-8s8 3.6 8 8c0 12.2-4.2 22.5-12.6 30.5-8.4 7.9-19.3 12-32.5 12zm28-104.4h-.5c-4.4-.3-7.7-4.1-7.5-8.5l.9-13.9v-.4c1.9-16.7 9.4-31.5 22.2-43.9l18.5-17.6c13.7-13.3 23.3-25.4 28.7-36 5.2-10.3 7.8-21.4 7.8-33 0-26.3-7.8-45.9-23.9-60-16.2-14.2-39.6-21.4-69.7-21.4-29.7 0-53.4 7.6-70.2 22.6-15.1 13.5-23.4 31.3-25.1 54.2h50.4c1.5-10.7 5.6-19.5 12.2-26.3 8.3-8.5 19.3-12.8 32.7-12.8 28.1 0 43.6 16.5 43.6 46.6 0 9.9-2.7 19.5-8 28.4-5 8.5-14.5 18.9-29 31.8-12.8 11.4-21.6 22.9-26.3 34.4-4.1 10-6.5 23.4-7 39.8h24.4c4.4 0 8 3.6 8 8s-3.6 8-8 8h-32.6c-4.4 0-8-3.6-8-8 0-22.2 2.8-40.4 8.3-53.9 5.6-13.7 15.9-27.2 30.5-40.2 13.1-11.6 21.8-21.1 25.9-28 3.8-6.5 5.7-13.1 5.7-20.2 0-21.4-8.2-30.6-27.6-30.6-9.1 0-16 2.6-21.3 8-5.4 5.5-8.1 13.1-8.3 23.3-.1 4.3-3.7 7.8-8 7.8h-66.1c-2.1 0-4.2-.9-5.7-2.4s-2.3-3.6-2.3-5.7c.3-31.3 10.7-56.2 30.8-74.1 19.9-17.7 47.1-26.7 80.9-26.7 34.1 0 61.1 8.5 80.3 25.4 19.5 17.1 29.4 41.4 29.4 72.1 0 14.1-3.2 27.7-9.5 40.2-6.2 12.2-16.9 25.8-31.9 40.4l-18.5 17.6c-10.2 9.8-15.9 20.9-17.4 33.9l-.9 13.7c-.2 4.1-3.7 7.4-7.9 7.4z" fill="#000"/></svg>