<svg width="512" height="512" viewBox="0 0 512 512" fill="none" xmlns="http://www.w3.org/2000/svg"><path opacity=".25" d="M270 122h-1.1c-5.8.1-7.4 7.9-2.2 10.3 39.8 18.2 67.6 58.4 67.6 104.9 0 24.2-7.4 47.3-21.5 67-4.5 6.3-9.4 12.1-14.2 17.7-14.6 17.1-27.2 31.9-27.2 60v52.4c0 16.5-4.4 29.1-13.3 38.6l-.4.4c-6.6 6.7-4.6 18 4 21.7 3.1 1.3 5.9 2.1 8.2 2.1 11.3 0 33.5-18.4 39-24.2 9-9.5 13.3-22.1 13.3-38.6v-52.4c0-28.1 12.6-42.9 27.2-60 4.7-5.6 9.6-11.3 14.2-17.7 14.1-19.8 21.6-43.1 21.5-67.5C385 173 333.7 122 270 122z" fill="#000"/><path d="M128.1 412.8c-2 0-4.1-.8-5.7-2.3-3.1-3.1-3.1-8.2 0-11.3l18.9-18.9c3.1-3.1 8.2-3.1 11.3 0 3.1 3.1 3.1 8.2 0 11.3l-18.9 18.9c-1.5 1.5-3.6 2.3-5.6 2.3zm47-249.6v172.9H254c4.4 0 8 3.6 8 8s-3.6 8-8 8h-26.5v56.5c10.8 3.4 18.7 13.5 18.7 25.4 0 14.7-12 26.7-26.7 26.7s-26.7-12-26.7-26.7c0-11.9 7.9-22 18.7-25.4v-56.5h-44.4c-4.4 0-8-3.6-8-8v-68.5H63.3c-3.4 10.8-13.5 18.7-25.4 18.7-14.7 0-26.7-12-26.7-26.7s12-26.7 26.7-26.7c11.9 0 22 7.9 25.4 18.7h95.8v-52.2h-49a26.56 26.56 0 01-24.7 16.7c-14.7 0-26.7-12-26.7-26.7s12-26.7 26.7-26.7c12.6 0 23.2 8.8 26 20.6h47.7v-36.2c0-4.4 3.6-8 8-8h9.2V99.9c-10.8-3.4-18.7-13.5-18.7-25.4 0-14.7 12-26.7 26.7-26.7s26.7 12 26.7 26.7c0 11.9-7.9 22-18.7 25.4v47.3H254c4.4 0 8 3.6 8 8s-3.6 8-8 8h-78.9zm9.2-78c5.9 0 10.7-4.8 10.7-10.7 0-5.9-4.8-10.7-10.7-10.7-5.9 0-10.7 4.8-10.7 10.7 0 5.9 4.8 10.7 10.7 10.7zM96.1 197.4c0-5.9-4.8-10.7-10.7-10.7-5.9 0-10.7 4.8-10.7 10.7 0 5.9 4.8 10.7 10.7 10.7 5.9 0 10.7-4.8 10.7-10.7zm-47.6 70.1c0-5.9-4.8-10.7-10.7-10.7-5.9 0-10.7 4.8-10.7 10.7 0 5.9 4.8 10.7 10.7 10.7 5.9 0 10.7-4.8 10.7-10.7zM208.9 434c0 5.9 4.8 10.7 10.7 10.7 5.9 0 10.7-4.8 10.7-10.7 0-5.9-4.8-10.7-10.7-10.7-5.9 0-10.7 4.8-10.7 10.7zM270 114c-4.4 0-8 3.6-8 8s3.6 8 8 8c59.1 0 107.2 48.1 107.2 107.2 0 22.5-6.9 44-20 62.3-4.3 6-9 11.6-13.6 16.9l-.2.2c-13.2 15.5-25.7 30.2-28.5 54.6h-44.5c-4.4 0-8 3.6-8 8s3.6 8 8 8h43.9v48.2h-43.9c-4.4 0-8 3.6-8 8s3.6 8 8 8h41.7c-1.8 6.3-4.8 11.6-8.9 15.9-6.8 7.2-26.4 21.7-33.2 21.7-4.4 0-8 3.6-8 8s3.6 8 8 8c16 0 40.9-22.6 44.8-26.7 10.4-11 15.5-25.5 15.5-44.1v-53.4c.1-.5.2-1.1.2-1.6 0-.4 0-.8-.1-1.1 1.1-22.7 11.8-35.4 25.2-51.1l.2-.2c4.8-5.6 9.7-11.5 14.4-18 15-21 23-45.8 23-71.6C393.2 169.3 338 114 270 114zm222.7 145.5h-67.8c-4.4 0-8 3.6-8 8s3.6 8 8 8h67.8c4.4 0 8-3.6 8-8s-3.6-8-8-8zM400 139.4c2 0 4.1-.8 5.7-2.3l47.9-47.9c3.1-3.1 3.1-8.2 0-11.3-3.1-3.1-8.2-3.1-11.3 0l-47.9 47.9c-3.1 3.1-3.1 8.2 0 11.3 1.6 1.5 3.6 2.3 5.6 2.3zM270.4 92.6c4.4 0 8-3.6 8-8V16.8c0-4.4-3.6-8-8-8s-8 3.6-8 8v67.8c0 4.4 3.6 8 8 8zm121.1 287.6c-3.1-3.1-8.2-3.1-11.3 0-3.1 3.1-3.1 8.2 0 11.3l29.5 29.5c1.6 1.6 3.6 2.3 5.7 2.3 2 0 4.1-.8 5.7-2.3 3.1-3.1 3.1-8.2 0-11.3l-29.6-29.5z" fill="#000"/><path opacity=".25" d="M345.1 69.1c-4.9 1.1-8 5.9-6.9 10.7.9 4.2 4.7 7.1 8.8 7.1.6 0 1.3-.1 1.9-.2 4.9-1.1 8-5.9 6.9-10.7-1.1-4.8-5.9-8-10.7-6.9zm89.1 118.3a8.9 8.9 0 00-3.9-5.7c-2-1.3-4.4-1.7-6.8-1.2-4.9 1.1-8 5.9-6.9 10.7a8.9 8.9 0 003.9 5.7c1.5.9 3.2 1.4 4.9 1.4.6 0 1.3-.1 1.9-.2a8.9 8.9 0 005.7-3.9c1.3-2.1 1.7-4.5 1.2-6.8zM135.3 337.1c0 4.4-3.6 8-8 8h-3.9v3.9c0 4.4-3.6 8-8 8s-8-3.6-8-8v-3.9h-3.9c-4.4 0-8-3.6-8-8s3.6-8 8-8h3.9v-3.9c0-4.4 3.6-8 8-8s8 3.6 8 8v3.9h3.9c4.4 0 8 3.6 8 8zM74.8 442.3c-4.9-1.1-9.7 2-10.7 6.9-1.1 4.9 2 9.7 6.9 10.7.6.1 1.3.2 1.9.2 4.2 0 7.9-2.9 8.8-7.1.5-2.4.1-4.8-1.2-6.8-1.4-2-3.4-3.4-5.7-3.9zm72.4-334.9c0 4.4-3.6 8-8 8h-3.9v3.9c0 4.4-3.6 8-8 8s-8-3.6-8-8v-3.9h-3.9c-4.4 0-8-3.6-8-8s3.6-8 8-8h3.9v-3.9c0-4.4 3.6-8 8-8s8 3.6 8 8v3.9h3.9c4.4 0 8 3.6 8 8zM24.5 20.1l57.8 57.8-57.8 57.8V20.1zm4.3 342.599h21.8v56.9H28.8v-56.9z" fill="#000"/></svg>