<svg width="512" height="512" viewBox="0 0 512 512" fill="none" xmlns="http://www.w3.org/2000/svg"><path opacity=".25" d="M143.6 225.2c-6.1 4.4-6.1 13.5 0 18l106.3 78c3.9 2.9 9.3 2.9 13.2 0l106.3-78c6.1-4.4 6.1-13.5 0-18-3.9-2.9-9.3-2.9-13.2 0L263 293.5c-3.9 2.9-9.3 2.9-13.2 0l-93.1-68.3c-3.9-2.8-9.2-2.8-13.1 0zm0 89.1c-6.1 4.4-6.1 13.5 0 18l106.3 78c3.9 2.9 9.3 2.9 13.2 0l106.3-78c6.1-4.4 6.1-13.5 0-18-3.9-2.9-9.3-2.9-13.2 0L263 382.6c-3.9 2.9-9.3 2.9-13.2 0l-93.1-68.3c-3.9-2.9-9.2-2.9-13.1 0z" fill="#000"/><path d="M256.4 484.5c-1.7 0-3.3-.5-4.7-1.5l-167-122.5c-2.1-1.5-3.3-3.9-3.3-6.5 0-2.5 1.2-4.9 3.3-6.5l41.9-30.7c3.6-2.6 8.6-1.8 11.2 1.7 2.6 3.6 1.8 8.6-1.7 11.2L102.9 354l153.5 112.6L410 354l-52-38.1c-2.1-1.5-3.3-3.9-3.3-6.5s1.2-4.9 3.3-6.5l51.9-38.1-51.9-37.9c-2.1-1.5-3.3-3.9-3.3-6.5s1.2-4.9 3.3-6.5l51.9-38.1L256.4 63.3l-102.2 75c-3.6 2.6-8.6 1.8-11.2-1.7-2.6-3.6-1.8-8.6 1.7-11.2L251.6 47c2.8-2.1 6.6-2.1 9.5 0l167 122.5c2.1 1.5 3.3 3.9 3.3 6.5s-1.2 4.9-3.3 6.5l-51.9 38.1 51.9 38.1c2.1 1.5 3.3 3.9 3.3 6.5s-1.2 4.9-3.3 6.5l-51.9 38.1 51.9 38.1c2.1 1.5 3.3 3.9 3.3 6.5 0 2.5-1.2 4.9-3.3 6.5L261.2 483c-1.4 1-3.1 1.5-4.8 1.5zm0-89.1c-1.7 0-3.3-.5-4.7-1.5l-167-122.5c-2.1-1.5-3.3-3.9-3.3-6.5 0-2.5 1.2-4.9 3.3-6.5l41.9-30.7c3.6-2.6 8.6-1.8 11.2 1.7 2.6 3.6 1.8 8.6-1.7 11.2L103 264.9l153.5 112.6 82.7-60.7c3.6-2.6 8.6-1.8 11.2 1.7 2.6 3.6 1.8 8.6-1.7 11.2l-87.5 64.1c-1.4 1.1-3.1 1.6-4.8 1.6zm0-89c-1.7 0-3.3-.5-4.7-1.5l-167-122.5c-2.1-1.5-3.3-3.9-3.3-6.5s1.2-4.9 3.3-6.5l31-22.8c3.6-2.6 8.6-1.8 11.2 1.7 2.6 3.6 1.8 8.6-1.7 11.2L103 175.8l153.5 112.6 82.7-60.7c3.6-2.6 8.6-1.8 11.2 1.7 2.6 3.6 1.8 8.6-1.7 11.2l-87.5 64.1c-1.4 1.1-3.1 1.7-4.8 1.7z" fill="#000"/><path opacity=".25" d="M447.2 219.2h-22.9c-4.4 0-8-3.6-8-8s3.6-8 8-8h22.9c4.4 0 8 3.6 8 8s-3.6 8-8 8zm14.4 246.4c-5.9 0-10.8 4.8-10.8 10.8 0 5.9 4.8 10.8 10.8 10.8 5.9 0 10.8-4.8 10.8-10.8-.1-6-4.9-10.8-10.8-10.8zM66.4 72.6V56.8h15.8c4.4 0 8-3.6 8-8s-3.6-8-8-8H66.4V25c0-4.4-3.6-8-8-8s-8 3.6-8 8v15.8H34.7c-4.4 0-8 3.6-8 8s3.6 8 8 8h15.8v15.8c0 4.4 3.6 8 8 8s7.9-3.6 7.9-8zm378.5-34.8c0-4.4-3.6-8-8-8h-73.8c-4.4 0-8 3.6-8 8s3.6 8 8 8h73.8c4.4 0 8-3.6 8-8zm-260.5 86h-113c-4.4 0-8 3.6-8 8s3.6 8 8 8h113c4.4 0 8-3.6 8-8s-3.6-8-8-8zM81 460.1v21.8H24v-21.8h57zm-57-44.9V437h57v-21.8H24z" fill="#000"/></svg>