<svg width="512" height="512" viewBox="0 0 512 512" fill="none" xmlns="http://www.w3.org/2000/svg"><path opacity=".25" d="M471 256.2c0 23.8-10.5 37.9-24.3 37.9l-24.6 92c-11.9 47.4-27.5 60.4-72.6 60.4H248c-42.5 0-66.2-8.8-85.1-15.9-14.2-5.3-25.4-9.5-41.8-9.5H82.9c0-19.3 15.7-35 35-35h131c26.5 0 50.1-16.6 59.1-41.5l27.7-76.8c9-25 32.8-41.7 59.5-41.7h30.1c21-.1 45.7-.2 45.7 30.1zM324.5 155.9c7.8-22.5 27.1-68-1.3-81-9.9-4.5-6.3-.3-11.5 9.3L244 212.8c-5.2 9.5 1.7 21.2 12.6 21.2H277c0-.1 38.3-51.6 47.5-78.1z" fill="#000"/><path d="M479 256.2c0 27.5-12.2 41.8-25.9 45.2L429.9 388c-12.7 50.9-31.5 66.4-80.4 66.4H248c-44 0-68.4-9.1-87.9-16.4-14-5.2-24.1-9-39-9H82.9c-4.4 0-8-3.6-8-8V306.8c0-4.4 3.6-8 8-8s8 3.6 8 8V413H121c17.8 0 30.2 4.6 44.5 10 18.4 6.9 41.3 15.4 82.4 15.4h101.6c21.7 0 34.8-3.2 43.7-10.6 6.1-5.1 11-12.7 15.3-24.2h-60.1c-4.4 0-8-3.6-8-8s3.6-8 8-8h65c.3-1.2.6-2.3.9-3.6v-.1l8.3-31.1h-63.7c-4.4 0-8-3.6-8-8s3.6-8 8-8H427l9.3-34.8h-64.4c-4.4 0-8-3.6-8-8s3.6-8 8-8h73c.3 0 .6 0 .9.1.3 0 .6-.1.9-.1 9.6 0 16.3-12.3 16.3-29.9 0-13-5.1-16.9-10.1-19-7.2-3.1-17.4-3.1-27.3-3.1H260.7c-4.4 0-8-3.6-8-8s3.6-8 8-8h165c11 0 23.4 0 33.6 4.4 13.1 5.7 19.7 17 19.7 33.8zM82.9 276.7H121c21.4 0 31.2-16.4 48.8-46.1 4.7-7.9 10.5-17.7 17.1-27.9 13.4-20.6 27.4-32.9 39.8-43.7 19.9-17.4 38.8-33.9 55-82.2l1.1-3.2h15.9c16.6 0 30.1 13.5 30.1 30 0 36.9-22.5 71.8-39.4 95-2.6 3.6-1.8 8.6 1.7 11.2 3.6 2.6 8.6 1.8 11.2-1.7 18.2-24.9 42.5-62.9 42.5-104.4 0-25.4-20.7-46-46.1-46H277c-3.4 0-6.5 2.2-7.6 5.5l-2.9 8.6c-14.9 44.2-30.6 57.9-50.4 75.3-13.2 11.5-28.1 24.5-42.6 47-6.8 10.5-12.7 20.5-17.5 28.5-18.1 30.5-23.9 38.3-35.1 38.3h-38c-4.4 0-8 3.6-8 8s3.6 7.8 8 7.8z" fill="#000"/><path opacity=".25" d="M57.2 260.7h57.4c4.4 0 8 3.6 8 8s-3.6 8-8 8H57.2c-4.4 0-8-3.6-8-8s3.6-8 8-8zm-31.7 54.1H105c4.4 0 8-3.6 8-8s-3.6-8-8-8H25.5c-4.4 0-8 3.6-8 8s3.6 8 8 8zM400.6 89.2c20.3 0 36.8-16.5 36.8-36.8 0-4.4-3.6-8-8-8s-8 3.6-8 8c0 11.4-9.3 20.8-20.8 20.8-4.4 0-8 3.6-8 8s3.6 8 8 8zm78.8 0c4.4 0 8-3.6 8-8s-3.6-8-8-8c-11.4 0-20.8-9.3-20.8-20.8 0-4.4-3.6-8-8-8s-8 3.6-8 8c0 20.3 16.5 36.8 36.8 36.8zm-28.8 50c4.4 0 8-3.6 8-8 0-11.4 9.3-20.7 20.8-20.7 4.4 0 8-3.6 8-8s-3.6-8-8-8c-20.3 0-36.8 16.5-36.8 36.8 0 4.3 3.6 7.9 8 7.9zm-50-28.8c11.4 0 20.8 9.3 20.8 20.8 0 4.4 3.6 8 8 8s8-3.6 8-8c0-20.3-16.5-36.7-36.8-36.7-4.4 0-8 3.6-8 8s3.6 7.9 8 7.9zm-366-44.6c4.4 0 8-3.6 8-8 0-5.7 4.7-10.4 10.4-10.4s10.4 4.7 10.4 10.4c0 4.4 3.6 8 8 8s8-3.6 8-8c0-14.6-11.8-26.4-26.4-26.4-14.6 0-26.4 11.9-26.4 26.4 0 4.5 3.6 8 8 8zm446.4 107H377.7c-4.4 0-8 3.6-8 8s3.6 8 8 8H481c4.4 0 8-3.6 8-8s-3.6-8-8-8zM122.6 462.3H19.4c-4.4 0-8 3.6-8 8s3.6 8 8 8h103.3c4.4 0 8-3.6 8-8s-3.6-8-8.1-8zM48 218.3c0 5-4.1 9-9 9s-9-4.1-9-9 4.1-9 9-9 9 4.1 9 9zm21 9.1c-5 0-9-4.1-9-9s4.1-9 9-9 9 4.1 9 9-4 9-9 9zm21-9.1c0-5 4.1-9 9-9s9 4.1 9 9-4.1 9-9 9-9-4-9-9zm48 0c0 5-4.1 9-9 9s-9-4.1-9-9 4.1-9 9-9 9 4.1 9 9zm291.6 273l60.9-60.9v60.9h-60.9zM100 71.3V26h45.3v45.3H100zm45.3 68.1V94.1H100v45.3h45.3zm-69.6 0V94.1H30.4v45.3h45.3z" fill="#000"/></svg>