<svg width="512" height="512" viewBox="0 0 512 512" fill="none" xmlns="http://www.w3.org/2000/svg"><path opacity=".25" d="M254.2 329c0-30.9 24.7-56 55.3-56h24.6c9.2 0 16.6 7.6 16.6 16.9v177.4c0 9.3-7.4 16.8-16.6 16.8H67.5v-34.6c0-24.7 19.7-44.7 44.1-44.7l54 2.7-7.5 7.5 15.4 16 33.5-26.1h13.5c4.4 0 24.2 27.7 28 26.1 2.4-1 17.2-7.4 15-16.9-1.7-7.2-17.7-20.4-19.2-19.2-.3.1-17.3-7.5-17.3-16.9l19.7-15 19.6-19.6-12.1-14.4z" fill="#000"/><path d="M174.5 336.3l-7 7 31 31c3.1 3.1 3.1 8.2 0 11.3l-31 31 7 7 31.1-31c3.1-3.1 8.2-3.1 11.3 0l31.1 31 7-7-31.1-31c-1.5-1.5-2.3-3.5-2.3-5.7s.8-4.2 2.3-5.7l19.6-19.6c3.1-3.1 8.2-3.1 11.3 0 3.1 3.1 3.1 8.2 0 11.3l-13.9 13.9 31.1 31c1.5 1.5 2.3 3.5 2.3 5.7s-.8 4.2-2.3 5.7l-18.4 18.4c-3.1 3.1-8.2 3.1-11.3 0l-31.1-31.1-31.1 31.1c-1.6 1.6-3.6 2.3-5.7 2.3-2 0-4.1-.8-5.7-2.3l-18.4-18.4c-3.1-3.1-3.1-8.2 0-11.3l31-31-31-31c-3.1-3.1-3.1-8.2 0-11.3l18.4-18.4c3.1-3.1 8.2-3.1 11.3 0l31.1 31.1 31.1-31.1c3.1-3.1 8.2-3.1 11.3 0l18.4 18.4c3.1 3.1 3.1 8.2 0 11.3-3.1 3.1-8.2 3.1-11.3 0L248 336.3l-31.1 31c-3.1 3.1-8.2 3.1-11.3 0l-31.1-31zM159 289.1c4.4 0 8-3.6 8-8v-37.3c0-24.4 19.9-44.3 44.3-44.3s44.3 19.9 44.3 44.3c0 4.4 3.6 8 8 8s8-3.6 8-8c0-33.2-27-60.3-60.3-60.3s-60.3 27-60.3 60.3v37.3c0 4.4 3.6 8 8 8zm204-14.4v210.9c0 4.4-3.6 8-8 8H67.5c-4.4 0-8-3.6-8-8V274.7c0-4.4 3.6-8 8-8H117v-20.8c0-52 42.3-94.3 94.3-94.3s94.3 42.3 94.3 94.3v20.8H355c4.4 0 8 3.5 8 8zm-16 8h-49.5c-4.4 0-8-3.6-8-8v-28.8c0-43.2-35.1-78.3-78.3-78.3-43.2 0-78.3 35.1-78.3 78.3v28.8c0 4.4-3.6 8-8 8H75.5v194.9H347V282.7z" fill="#000"/><path d="M341 44.6V22.8h142.8v21.8H341zm0 35.9V58.7h142.8v21.8H341zM123.1 314.9c0 4.4-3.6 8-8 8h-43c-4.4 0-8-3.6-8-8s3.6-8 8-8h43c4.4 0 8 3.6 8 8zm-29.5 22H19.8c-4.4 0-8 3.6-8 8s3.6 8 8 8h73.8c4.4 0 8-3.6 8-8s-3.6-8-8-8zM54.3 165.7H70v15.8c0 4.4 3.6 8 8 8s8-3.6 8-8v-15.8h15.8c4.4 0 8-3.6 8-8s-3.6-8-8-8H86V134c0-4.4-3.6-8-8-8s-8 3.6-8 8v15.8H54.3c-4.4 0-8 3.6-8 8s3.5 7.9 8 7.9zm388.4 261.5h-3.9v-3.9c0-4.4-3.6-8-8-8s-8 3.6-8 8v3.9H419c-4.4 0-8 3.6-8 8s3.6 8 8 8h3.9v3.9c0 4.4 3.6 8 8 8s8-3.6 8-8v-3.9h3.9c4.4 0 8-3.6 8-8s-3.7-8-8.1-8zM341.5 130.1c-4.4 0-8 3.6-8 8s3.6 8 8 8c5.7 0 10.4 4.7 10.4 10.4s-4.7 10.4-10.4 10.4c-4.4 0-8 3.6-8 8s3.6 8 8 8c14.6 0 26.4-11.8 26.4-26.4 0-14.6-11.8-26.4-26.4-26.4zm-85.9-54.9H114.2c-4.4 0-8 3.6-8 8s3.6 8 8 8h141.4c4.4 0 8-3.6 8-8s-3.5-8-8-8zM76.1 40.6c0-5 4.1-9 9-9s9 4.1 9 9-4.1 9-9 9-9-4-9-9zm30 0c0-5 4.1-9 9-9s9 4.1 9 9-4.1 9-9 9-9-4-9-9zm30 0c0-5 4.1-9 9-9s9 4.1 9 9-4.1 9-9 9-9-4-9-9zM379 218c20.3 0 36.8-16.5 36.8-36.8 0-4.4-3.6-8-8-8s-8 3.6-8 8c0 11.4-9.3 20.8-20.8 20.8-4.4 0-8 3.6-8 8s3.6 8 8 8zm78.8 0c4.4 0 8-3.6 8-8s-3.6-8-8-8c-11.4 0-20.8-9.3-20.8-20.8 0-4.4-3.6-8-8-8s-8 3.6-8 8c0 20.3 16.5 36.8 36.8 36.8zM429 268c4.4 0 8-3.6 8-8 0-11.4 9.3-20.8 20.8-20.8 4.4 0 8-3.6 8-8s-3.6-8-8-8c-20.3 0-36.8 16.5-36.8 36.8 0 4.4 3.6 8 8 8zm-21.2 0c4.4 0 8-3.6 8-8 0-20.3-16.5-36.8-36.8-36.8-4.4 0-8 3.6-8 8s3.6 8 8 8c11.4 0 20.8 9.3 20.8 20.8 0 4.4 3.6 8 8 8zm73.4 35.2h-71.9c-4.4 0-8 3.6-8 8s3.6 8 8 8h71.9c4.4 0 8-3.6 8-8s-3.6-8-8-8z" opacity=".25" fill="#000"/></svg>