<svg width="512" height="512" viewBox="0 0 512 512" fill="none" xmlns="http://www.w3.org/2000/svg"><path opacity=".25" d="M386.3 169.4L347.7 208l-18.5 18.5-217.9 217.8.3-.3c4.7-5.1 2.5-12.2-2.1-16.8l-.1-.1 209.7-209.7 18.5-18.5 38.6-38.6c3.7-3.7 3.9-8.4 2.1-12.5 8.6 2.6 15.5 14 8 21.6z" fill="#000"/><path d="M396.9 156.7c-2.1-7.9-8.8-14.6-16.7-16.7-6.7-1.8-13.4 0-18.3 4.9l-35.5 35.5L87 419.8c-.2.2-.4.5-.6.7-3.3 3.7-4.8 8.7-4.3 13.9.5 5.1 2.9 9.9 6.7 13.8 4.5 4.5 10.3 6.8 15.8 6.8 4.4 0 8.6-1.5 11.9-4.4l.6-.6L335 232.1c3.1-3.1 3.1-8.2 0-11.3-3.1-3.1-8.2-3.1-11.3 0l-205 205c-.5-.8-1.1-1.6-1.7-2.3-.2-.2-.4-.4-.6-.7-.2-.2-.3-.4-.5-.5-.2-.2-.4-.4-.6-.7l-.8-.8c-.1-.1-.2-.1-.2-.2-.3-.2-.5-.4-.8-.7-.7-.6-1.5-1.2-2.3-1.7l226.5-226.5c.7-.7 1.5-1.1 2.8-.7 2.4.6 4.8 3.1 5.4 5.4.4 1.4 0 2.1-.7 2.8l-3 3c-3.1 3.1-3.1 8.2 0 11.3 3.1 3.1 8.2 3.1 11.3 0l38.6-38.6c4.8-4.9 6.6-11.5 4.8-18.2zM97.8 432.8c0-.4-.1-1.3.4-1.7.3-.3.9-.4 1.3-.4h.4c1.2.1 2.4.7 3.5 1.6l.3.3.2.2c2.3 2.3 2.4 5.1 1.7 5.8-.7.7-3.5.6-5.8-1.7-1.1-1.2-1.8-2.7-2-4.1zm282.9-269.2l-22.2 22.2c-1.9-3-4.5-5.6-7.5-7.5l22.2-22.2c.7-.7 1.5-1.1 2.8-.7 2.4.6 4.8 3.1 5.4 5.4.4 1.4 0 2.1-.7 2.8zm-80.8-28.3c1.7-4.1 6.4-6 10.5-4.3l18.7 7.7c4.1 1.7 6 6.4 4.3 10.5-1.3 3.1-4.3 4.9-7.4 4.9-1 0-2.1-.2-3.1-.6l-18.7-7.7c-4.1-1.8-6-6.5-4.3-10.5zm36.4-34.9c-1.7-4.1.2-8.8 4.3-10.5 4.1-1.7 8.8.2 10.5 4.3l7.7 18.7c1.7 4.1-.2 8.8-4.3 10.5-1 .4-2 .6-3.1.6-3.1 0-6.1-1.9-7.4-4.9l-7.7-18.7zm47.1 9.3l7.7-18.7c1.7-4.1 6.4-6 10.5-4.3 4.1 1.7 6 6.4 4.3 10.5l-7.7 18.7c-1.3 3.1-4.3 4.9-7.4 4.9-1 0-2.1-.2-3.1-.6-4.1-1.8-6-6.4-4.3-10.5zm30.3 113.6c1.7 4.1-.2 8.8-4.3 10.5-1 .4-2 .6-3.1.6-3.1 0-6.1-1.9-7.4-4.9l-7.7-18.7c-1.7-4.1.2-8.8 4.3-10.5 4.1-1.7 8.8.2 10.5 4.3l7.7 18.7zm36.4-34.9c-1.3 3.1-4.3 4.9-7.4 4.9-1 0-2.1-.2-3.1-.6L421 185c-4.1-1.7-6-6.4-4.3-10.5 1.7-4.1 6.4-6 10.5-4.3l18.7 7.7c4 1.7 5.9 6.4 4.2 10.5zm-29.2-42.1c-3.1 0-6.1-1.9-7.4-4.9-1.7-4.1.2-8.8 4.3-10.5l18.7-7.7c4.1-1.7 8.8.2 10.5 4.3 1.7 4.1-.2 8.8-4.3 10.5l-18.7 7.7c-1.1.4-2.1.6-3.1.6z" fill="#000"/><path opacity=".25" d="M156 247.6c0 4.4-3.6 8-8 8-20.3 0-36.8-16.5-36.8-36.8 0-4.4 3.6-8 8-8s8 3.6 8 8c0 11.4 9.3 20.8 20.8 20.8 4.4 0 8 3.6 8 8zm-58-36.8c-4.4 0-8 3.6-8 8 0 11.4-9.3 20.8-20.8 20.8-4.4 0-8 3.6-8 8s3.6 8 8 8c20.3 0 36.8-16.5 36.8-36.8 0-4.4-3.6-8-8-8zm107.7-66.2h-57.4c-4.4 0-8 3.6-8 8s3.6 8 8 8h57.4c4.4 0 8-3.6 8-8s-3.6-8-8-8zM69.3 260.8c-4.4 0-8 3.6-8 8s3.6 8 8 8c11.4 0 20.8 9.3 20.8 20.8 0 4.4 3.6 8 8 8s8-3.6 8-8c-.1-20.3-16.6-36.8-36.8-36.8zm403.3 195.6c4.6 2 9.9-.1 11.9-4.6 2-4.6-.1-9.9-4.6-11.9-4.6-2-9.9.1-11.9 4.7-2.1 4.5 0 9.8 4.6 11.8zM77.7 132h86.8c4.4 0 8-3.6 8-8s-3.6-8-8-8H77.7c-4.4 0-8 3.6-8 8s3.6 8 8 8zM148 260.8c-20.3 0-36.8 16.5-36.8 36.8 0 4.4 3.6 8 8 8s8-3.6 8-8c0-11.4 9.3-20.8 20.8-20.8 4.4 0 8-3.6 8-8s-3.6-8-8-8zm308.3 73.3h-86.8c-4.4 0-8 3.6-8 8s3.6 8 8 8h86.8c4.4 0 8-3.6 8-8s-3.6-8-8-8zm-10.5 134.8c-4.9 0-9 4-9 9s4 9 9 9 9-4 9-9-4.1-9-9-9zm30.4-.1c-5 0-9 4.1-9 9s4.1 9 9 9 9-4.1 9-9-4-9-9-9zm-159.3-50.7h-15.8v-15.8c0-4.4-3.6-8-8-8s-8 3.6-8 8v15.8h-15.8c-4.4 0-8 3.6-8 8s3.6 8 8 8h15.8v15.8c0 4.4 3.6 8 8 8s8-3.6 8-8v-15.8h15.8c4.4 0 8-3.6 8-8s-3.6-8-8-8zm76.8-104.6c0-4.4-3.6-8-8-8h-57.4c-4.4 0-8 3.6-8 8s3.6 8 8 8h57.4c4.4 0 8-3.5 8-8zM245.6 60.4h-3.9v-3.9c0-4.4-3.6-8-8-8s-8 3.6-8 8v3.9h-3.9c-4.4 0-8 3.6-8 8s3.6 8 8 8h3.9v3.9c0 4.4 3.6 8 8 8s8-3.6 8-8v-3.9h3.9c4.4 0 8-3.6 8-8s-3.5-8-8-8zM55.5 488.301H20.9v-34.7h34.7v34.7h-.1zM493.5 57h-34.7V22.4h34.7V57zm-52.1 0h-34.7V22.4h34.7V57z" fill="#000"/></svg>