<svg width="512" height="512" viewBox="0 0 512 512" fill="none" xmlns="http://www.w3.org/2000/svg"><path opacity=".25" d="M447.2 79.3c-20.7-20.7-53.6-39.6-90.6-43.3-4.4-.4-6.1 5.6-2 7.5 18 8.1 33.6 19.2 45.3 31 40.8 40.8 74.3 128.2 0 202.5l-99.8 99.8c-11 11-11 28.9 0 40l6.1 6.1 141-141c74.3-74.4 40.8-161.9 0-202.6zM248 125l-99.6 99.6c-11 11-11 28.9 0 39.9l6.2 6.2L295.3 130c5.4-5.4 10.7-9.7 16-13 5.9-3.8 4.1-12.9-2.8-14.2-17.5-3.5-38.7.3-60.5 22.2z" fill="#000"/><path d="M355.4 370.6c3.1 3.1 3.1 8.2 0 11.3-3.1 3.1-8.2 3.1-11.3 0l-45-45-39.3 39.3 39.3 39.3 27.2-27.2c3.1-3.1 8.2-3.1 11.3 0 3.1 3.1 3.1 8.2 0 11.3l-32.9 32.9c-1.6 1.6-3.6 2.3-5.7 2.3s-4.1-.8-5.7-2.3l-50.6-50.6c-3.1-3.1-3.1-8.2 0-11.3l50.6-50.6c.3-.3.6-.6 1-.8.2-.3.5-.7.8-1l93.7-93.7c18.2-18.2 24.7-37.7 19.2-57.8-4.5-16.5-15.8-28.8-19.2-32.2-10.6-10.4-48.7-41.3-89.9 0l-146 146.2c-3.1 3.1-8.2 3.1-11.3 0L90.9 230c-1.5-1.5-2.3-3.5-2.3-5.7s.8-4.2 2.3-5.7l50.6-50.6 45-45c3.1-3.1 8.2-3.1 11.3 0 3.1 3.1 3.1 8.2 0 11.3l-45 45-44.9 44.9 39.3 39.3 39.3-39.3-26.3-26.3c-3.1-3.1-3.1-8.2 0-11.3 3.1-3.1 8.2-3.1 11.3 0l26.3 26.3 89.8-89.8c27.2-27.2 53.6-28 71-23.8 20.6 4.9 35.9 18.3 41.5 23.8 5.3 5.3 18 19.5 23.4 39.3 4.9 17.9 4.8 45.2-23.3 73.3l-89.8 89.8 45 45.1zm78.9-90.3L363.6 351c-3.1 3.1-3.1 8.2 0 11.3 1.6 1.6 3.6 2.3 5.7 2.3 2 0 4.1-.8 5.7-2.3l70.7-70.7c3.1-3.1 3.1-8.2 0-11.3a8.15 8.15 0 00-11.4 0zm59.9-127.1c-6.2-29.8-22-59.2-43.4-80.6-24.5-24.5-59.4-41.5-93.4-45.4-30.6-3.6-76.4 1.4-120.4 45.4l-20.5 20.5c-3.1 3.1-3.1 8.2 0 11.3 3.1 3.1 8.2 3.1 11.3 0l20.5-20.5c70.1-70.1 152.8-38.4 191.2 0 38.1 38.1 60.6 106.5 20.2 166.8-2.5 3.7-1.5 8.6 2.2 11.1 1.4.9 2.9 1.4 4.4 1.4 2.6 0 5.1-1.2 6.7-3.5 21.6-32.3 29-69.1 21.2-106.5zM69.9 254.8c-4.2 4.2-4.2 11 0 15.2 4.2 4.2 11 4.2 15.2 0 4.2-4.2 4.2-11 0-15.2-4.2-4.2-11-4.2-15.2 0zm121.9 181.8c22.6 0 40.9-18.3 40.9-40.9 0-4.4-3.6-8-8-8s-8 3.6-8 8c0 13.7-11.2 24.9-24.9 24.9h-32.2c-22.6 0-40.9 18.3-40.9 40.9 0 4.4 3.6 8 8 8s8-3.6 8-8c0-13.7 11.2-24.9 24.9-24.9h32.2zm72.2-9.5c-4.4 0-8 3.6-8 8 0 13.7-11.2 24.9-24.9 24.9h-32.2c-22.6 0-40.9 18.3-40.9 40.9 0 4.4 3.6 8 8 8s8-3.6 8-8c0-13.7 11.2-24.9 24.9-24.9h32.2c22.6 0 40.9-18.3 40.9-40.9 0-4.4-3.5-8-8-8zM99.8 283.9c-4.2 4.2-4.2 11 0 15.2 4.2 4.2 11 4.2 15.2 0 4.2-4.2 4.2-11 0-15.2-4.2-4.2-11-4.2-15.2 0zm-62.6 3.7c-4.2 4.2-4.2 11 0 15.2 4.2 4.2 11 4.2 15.2 0 4.2-4.2 4.2-11 0-15.2-4.2-4.2-11-4.2-15.2 0zm29.9 31c-4.2 4.2-4.2 11 0 15.2 4.2 4.2 11 4.2 15.2 0 4.2-4.2 4.2-11 0-15.2-4.2-4.1-11-4.1-15.2 0zm2.8-31c-4.2 4.2-4.2 11 0 15.2 4.2 4.2 11 4.2 15.2 0 4.2-4.2 4.2-11 0-15.2-4.2-4.2-11-4.2-15.2 0zm-32.7 34.7c-4.2 4.2-4.2 11 0 15.2 4.2 4.2 11 4.2 15.2 0 4.2-4.2 4.2-11 0-15.2-4.2-4.2-11-4.2-15.2 0z" fill="#000"/><path d="M24.3 25.7h44.5v44.5H24.3V25.7zm68.4 0h44.5v44.5H92.7V25.7zm67.9 44.5h22.2V25.7h-22.2v44.5zM66.3 186.1c0 4.4-3.6 8-8 8h-3.9v3.9c0 4.4-3.6 8-8 8s-8-3.6-8-8v-3.9h-3.9c-4.4 0-8-3.6-8-8s3.6-8 8-8h3.9v-3.9c0-4.4 3.6-8 8-8s8 3.6 8 8v3.9h3.9c4.4 0 8 3.6 8 8zm406.9 159.5c-3.1-3.1-8.2-3.1-11.3 0l-11.2 11.2-11.2-11.2c-3.1-3.1-8.2-3.1-11.3 0-3.1 3.1-3.1 8.2 0 11.3l11.2 11.2-11.2 11.2c-3.1 3.1-3.1 8.2 0 11.3 1.6 1.6 3.6 2.3 5.7 2.3s4.1-.8 5.7-2.3l11.2-11.2 11.2 11.2c1.6 1.6 3.6 2.3 5.7 2.3s4.1-.8 5.7-2.3c3.1-3.1 3.1-8.2 0-11.3L462 368.1l11.2-11.2c3.1-3.1 3.1-8.2 0-11.3zm-26.3-81.1h43c4.4 0 8-3.6 8-8s-3.6-8-8-8h-43c-4.4 0-8 3.6-8 8s3.6 8 8 8zm43 11.9h-88.1c-4.4 0-8 3.6-8 8s3.6 8 8 8h88.1c4.4 0 8-3.6 8-8s-3.6-8-8-8zM255.5 91.5H87.8c-4.4 0-8 3.6-8 8s3.6 8 8 8h167.7c4.4 0 8-3.6 8-8s-3.5-8-8-8zm-37.7 29.2h-67.4c-4.4 0-8 3.6-8 8s3.6 8 8 8h67.4c4.4 0 8-3.6 8-8s-3.5-8-8-8zm170.8 292.5l-62.3 62.3c-3.1 3.1-3.1 8.2 0 11.3 1.6 1.6 3.6 2.3 5.7 2.3s4.1-.8 5.7-2.3l62.3-62.3c3.1-3.1 3.1-8.2 0-11.3-3.2-3.1-8.3-3.1-11.4 0z" opacity=".25" fill="#000"/></svg>