<svg width="512" height="512" viewBox="0 0 512 512" fill="none" xmlns="http://www.w3.org/2000/svg"><path opacity=".25" d="M300.6 128.1h116.6v300.6H16.4v-39.2c0-24.8 20.1-44.9 44.9-44.9h73.3c45.5 0 82.4-36.9 82.4-82.4v-50.5c0-46.1 37.4-83.6 83.6-83.6z" fill="#000"/><path d="M417.2 436.7H16.4c-4.4 0-8-3.6-8-8v-.5c-.1-1.8.5-3.6 1.7-5.1l128.1-166L24.4 151v227c0 4.4-3.6 8-8 8s-8-3.6-8-8V128.1c0-4.4 3.6-8 8-8h400.8c4.4 0 8 3.6 8 8 0 .8-.1 1.5-.3 2.2.8 2.8 0 5.9-2.2 8.1L295.4 257.1l113.8 147.4V261.3c0-4.4 3.6-8 8-8s8 3.6 8 8v167.5c0 4.4-3.6 7.9-8 7.9zM32.7 420h368.2L283.6 268.1l-61.4 57.2c-3.1 2.9-7.8 2.9-10.9 0L150 268.1 32.7 420zm-.8-283.9l184.9 172.4 184.8-172.4H31.9zM417.2 234c-4.4 0-8-3.6-8-8v-54.6c0-4.4 3.6-8 8-8s8 3.6 8 8V226c0 4.4-3.6 8-8 8z" fill="#000"/><path d="M122.7 95.9V74.1h56.9v21.8h-56.9zm-38.1 0V74.1h-57v21.8h57zm133.2 0V74.1h56.9v21.8h-56.9zm285.6-44.7c0 4.4-3.6 8-8 8h-15.8V75c0 4.4-3.6 8-8 8s-8-3.6-8-8V59.2h-15.8c-4.4 0-8-3.6-8-8s3.6-8 8-8h15.8V27.4c0-4.4 3.6-8 8-8s8 3.6 8 8v15.8h15.8c4.4 0 8 3.5 8 8zM461 252.3h-87.6c-4.4 0-8 3.6-8 8s3.6 8 8 8H461c4.4 0 8-3.6 8-8s-3.6-8-8-8zm1-35.3h-43.8c-4.4 0-8 3.6-8 8s3.6 8 8 8H462c4.4 0 8-3.6 8-8s-3.6-8-8-8zM320.3 59.2h87.6c4.4 0 8-3.6 8-8s-3.6-8-8-8h-87.6c-4.4 0-8 3.6-8 8s3.6 8 8 8zm96.9 413H239.6c-4.4 0-8 3.6-8 8s3.6 8 8 8h177.6c4.4 0 8-3.6 8-8s-3.6-8-8-8zm-235.3 8c0 5-4.1 9-9 9s-9-4.1-9-9 4.1-9 9-9 9 4 9 9zm30 0c0 5-4.1 9-9 9s-9-4.1-9-9 4.1-9 9-9 9 4 9 9zM498 369c0 14.6-11.8 26.4-26.4 26.4-14.6 0-26.4-11.8-26.4-26.4 0-14.6 11.8-26.4 26.4-26.4 14.6 0 26.4 11.9 26.4 26.4zm-16 0c0-5.7-4.7-10.4-10.4-10.4s-10.4 4.7-10.4 10.4 4.7 10.4 10.4 10.4S482 374.8 482 369z" opacity=".25" fill="#000"/></svg>