<svg width="512" height="512" viewBox="0 0 512 512" fill="none" xmlns="http://www.w3.org/2000/svg"><path opacity=".25" d="M168.6 344.4c0 25-20.4 45.4-45.4 45.4-5.4 0-10.6-1-15.4-2.7 17.5-6.3 30-23.1 30-42.7s-12.6-36.4-30-42.7c4.8-1.8 10-2.7 15.4-2.7 24.9 0 45.4 20.4 45.4 45.4zm193.1-125.6c4.8 1.8 10 2.7 15.4 2.7 25 0 45.4-20.4 45.4-45.4s-20.4-45.4-45.4-45.4c-5.4 0-10.6 1-15.4 2.7 17.5 6.3 30 23.1 30 42.7 0 19.5-12.5 36.3-30 42.7zM125.1 82.3c-5.4 0-10.6 1-15.4 2.7 17.5 6.3 30 23.1 30 42.7s-12.6 36.4-30 42.7c4.8 1.8 10 2.7 15.4 2.7 25 0 45.4-20.4 45.4-45.4s-20.4-45.4-45.4-45.4zM377 341c-5.4 0-10.6 1-15.4 2.7 17.5 6.3 30 23.1 30 42.7s-12.6 36.4-30 42.7c4.8 1.8 10 2.7 15.4 2.7 25 0 45.4-20.4 45.4-45.4 0-24.9-20.4-45.4-45.4-45.4z" fill="#000"/><path d="M377.6 333c-25.1 0-46.2 17.4-51.9 40.8L178.1 338c-1.1-9.4-4.7-18-10-25.2L342.9 217c9.3 7.7 21.2 12.4 34.2 12.4 29.4 0 53.4-24 53.4-53.4s-24-53.4-53.4-53.4c-26 0-47.7 18.7-52.4 43.3l-146.1-38.2v-.1c0-29.4-24-53.4-53.4-53.4s-53.4 24-53.4 53.4 24 53.4 53.4 53.4c23.9 0 44.1-15.7 50.9-37.4l148 38.6c1 8.2 3.8 15.8 8 22.4L156.3 301c-8.8-6.3-19.5-10.1-31.1-10.1-29.4 0-53.4 24-53.4 53.4s24 53.4 53.4 53.4c26 0 47.8-18.7 52.5-43.5L324.3 390c1.8 27.8 25 49.9 53.3 49.9 29.4 0 53.4-24 53.4-53.4S407 333 377.6 333zM125.1 165.1c-20.6 0-37.4-16.8-37.4-37.4 0-20.6 16.8-37.4 37.4-37.4 20.6 0 37.4 16.8 37.4 37.4 0 20.6-16.8 37.4-37.4 37.4zM377 138.6c20.6 0 37.4 16.8 37.4 37.4 0 20.6-16.8 37.4-37.4 37.4-10.5 0-19.9-4.3-26.7-11.2l-.9-.9c-6.1-6.7-9.8-15.5-9.8-25.2 0-20.7 16.8-37.5 37.4-37.5zM125.1 381.8c-20.6 0-37.4-16.8-37.4-37.4 0-20.6 16.8-37.4 37.4-37.4 9.4 0 17.9 3.5 24.5 9.2.3.3.6.6.9.8 7.3 6.8 11.9 16.6 11.9 27.4.1 20.6-16.7 37.4-37.3 37.4zm252.5 42c-20.6 0-37.4-16.8-37.4-37.4 0-20.6 16.8-37.4 37.4-37.4 20.6 0 37.4 16.8 37.4 37.4 0 20.6-16.8 37.4-37.4 37.4z" fill="#000"/><path d="M417.6 65.7c0-4.4 3.6-8 8-8h15.8V41.9c0-4.4 3.6-8 8-8s8 3.6 8 8v15.8h15.8c4.4 0 8 3.6 8 8s-3.6 8-8 8h-15.8v15.8c0 4.4-3.6 8-8 8s-8-3.6-8-8V73.7h-15.8c-4.5 0-8-3.6-8-8zM226.8 452.5H211v-15.8c0-4.4-3.6-8-8-8s-8 3.6-8 8v15.8h-15.8c-4.4 0-8 3.6-8 8s3.6 8 8 8H195v15.8c0 4.4 3.6 8 8 8s8-3.6 8-8v-15.8h15.8c4.4 0 8-3.6 8-8s-3.6-8-8-8zm-99.4-235.8h-43c-4.4 0-8 3.6-8 8s3.6 8 8 8h43c4.4 0 8-3.6 8-8 0-4.5-3.6-8-8-8zm-21.5 30H32.1c-4.4 0-8 3.6-8 8s3.6 8 8 8h73.8c4.4 0 8-3.6 8-8s-3.6-8-8-8zM497 437.5h-43c-4.4 0-8 3.6-8 8s3.6 8 8 8h43c4.4 0 8-3.6 8-8s-3.6-8-8-8zm-21.5 30h-73.8c-4.4 0-8 3.6-8 8s3.6 8 8 8h73.8c4.4 0 8-3.6 8-8s-3.6-8-8-8z" fill="#000" fill-opacity=".25"/><path d="M189.4 41.4V19.6h142.8v21.8H189.4zM23 41.4V19.6h142.8v21.8H23zM29.2 481h60.9l-60.9-60.9V481z" opacity=".25" fill="#000"/></svg>