<svg width="512" height="512" viewBox="0 0 512 512" fill="none" xmlns="http://www.w3.org/2000/svg"><path opacity=".25" d="M336.7 274.5l145-140.7-117.9 285.4-17.4-12.5c-43.7-31.4-48.3-94.7-9.7-132.2zm-177.9-59.9c-27.5 8.3-30.9 45.8-5.4 58.9l5.7 2.9 322.5-158.9-322.8 97.1z" fill="#000"/><path d="M495.7 119.8c0-.1 0-.2.1-.3v-.2c0-.1 0-.2.1-.3v-.3c0-.2 0-.3.1-.5v-1.6c0-.2-.1-.4-.1-.7v-.3c0-.2-.1-.4-.2-.6v-.1c0-.1-.1-.2-.1-.4 0-.1-.1-.1-.1-.2s0-.1-.1-.2c0-.1-.1-.1-.1-.2l-.3-.6s0-.1-.1-.1c-.1-.2-.2-.4-.4-.6-.1-.1-.1-.2-.2-.3l-.1-.1-.2-.2c0-.1-.1-.1-.1-.1l-.4-.4-.1-.1-.1-.1-.3-.3c-.1-.1-.2-.1-.3-.2-.1 0-.1-.1-.2-.1l-.1-.1c-.1-.1-.2-.1-.3-.2-.1-.1-.2-.1-.4-.2-.1 0-.1-.1-.2-.1 0 0-.1 0-.1-.1-.1-.1-.3-.1-.4-.2-.1 0-.2-.1-.2-.1-.2-.1-.3-.1-.5-.2h-.2c-.2 0-.4-.1-.6-.1h-3.2L64.1 198.7c-4.3.9-7.1 5.2-6.2 9.5.8 3.8 4.1 6.4 7.8 6.4.5 0 1.1-.1 1.7-.2l362.1-76.2-270.9 136.3-122.3-68c-3.9-2.1-8.7-.8-10.9 3.1-2.1 3.9-.8 8.7 3.1 10.9l126 70c2.3 1.3 5.1 1.3 7.5.2l235.1-118.3-188.3 133.7c-.2.1-.3.2-.4.3-.1 0-.1.1-.2.1l-.6.6-.1.1c-.2.2-.4.4-.5.6 0 .1-.1.1-.1.2-.1.2-.3.4-.4.6 0 .1-.1.1-.1.2l-.3.6c0 .1-.1.1-.1.2-.1.3-.2.6-.3.8l-20 73.3-15.4-80.7c-.8-4.3-5-7.2-9.4-6.4-4.3.8-7.2 5-6.4 9.4l21.9 114.8v.1c0 .1.1.3.1.4 0 .1.1.2.1.3 0 .1.1.2.1.3 0 .1.1.3.2.4 0 .1.1.2.1.3l.3.6c.1.2.3.4.4.6 0 0 0 .1.1.1.1.2.3.4.5.6 0 .1.1.1.1.2l.6.6c.1.1.1.1.2.1.2.1.3.2.5.4.1.1.2.1.2.2.2.1.4.3.6.4 0 0 .1 0 .1.1.2.1.5.2.7.3.1 0 .2.1.2.1.2.1.4.1.6.2h.2c.3.1.5.1.8.1h1.1c.4 0 .7 0 1-.1h.2c.4-.1.7-.1 1.1-.3h.1c.8-.3 1.6-.7 2.3-1.2l84.8-61.7 90.1 61.9c1.3.9 2.9 1.4 4.5 1.4.8 0 1.6-.1 2.3-.3 2.3-.7 4.2-2.4 5.1-4.7l119.5-301.5c0-.1.1-.2.1-.3.4-.3.4-.4.4-.6zM198 399.4l20.1-73.8 41.8 28.7-61.9 45.1zm166.8 7.6l-137.4-94.5 243.3-172.7L364.8 407z" fill="#000"/><path opacity=".25" d="M409.7 306.4h43c4.4 0 8 3.6 8 8s-3.6 8-8 8h-43c-4.4 0-8-3.6-8-8s3.6-8 8-8zm29.5 38c0-4.4-3.6-8-8-8h-73.8c-4.4 0-8 3.6-8 8s3.6 8 8 8h73.8c4.4 0 8-3.6 8-8zM89.5 109.6H73.8V93.8c0-4.4-3.6-8-8-8s-8 3.6-8 8v15.8H42c-4.4 0-8 3.6-8 8s3.6 8 8 8h15.8v15.8c0 4.4 3.6 8 8 8s8-3.6 8-8v-15.8h15.8c4.4 0 8-3.6 8-8s-3.6-8-8.1-8zM318 67.8c20.3 0 36.8-16.5 36.8-36.8 0-4.4-3.6-8-8-8s-8 3.6-8 8c0 11.4-9.3 20.8-20.8 20.8-4.4 0-8 3.6-8 8s3.6 8 8 8zm78.8 0c4.4 0 8-3.6 8-8s-3.6-8-8-8c-11.4 0-20.8-9.3-20.8-20.8 0-4.4-3.6-8-8-8s-8 3.6-8 8c0 20.4 16.5 36.8 36.8 36.8zm-28.8 50c4.4 0 8-3.6 8-8 0-11.4 9.3-20.8 20.8-20.8 4.4 0 8-3.6 8-8s-3.6-8-8-8c-20.3 0-36.8 16.5-36.8 36.8 0 4.5 3.6 8 8 8zm-13.2-8c0-20.3-16.5-36.8-36.8-36.8-4.4 0-8 3.6-8 8s3.6 8 8 8c11.4 0 20.8 9.3 20.8 20.8 0 4.4 3.6 8 8 8s8-3.5 8-8zm-82.7 342h-3.9v-3.9c0-4.4-3.6-8-8-8s-8 3.6-8 8v3.9h-3.9c-4.4 0-8 3.6-8 8s3.6 8 8 8h3.9v3.9c0 4.4 3.6 8 8 8s8-3.6 8-8v-3.9h3.9c4.4 0 8-3.6 8-8s-3.6-8-8-8zm196-6.4c0 14.6-11.8 26.4-26.4 26.4-14.6 0-26.4-11.8-26.4-26.4 0-14.6 11.8-26.4 26.4-26.4 14.6 0 26.4 11.9 26.4 26.4zm-16 0c0-5.7-4.7-10.4-10.4-10.4s-10.4 4.7-10.4 10.4 4.7 10.4 10.4 10.4 10.4-4.6 10.4-10.4zM77.8 319.2h-43c-4.4 0-8 3.6-8 8s3.6 8 8 8h43c4.4 0 8-3.6 8-8s-3.6-8-8-8z" fill="#000"/></svg>