<svg width="512" height="512" viewBox="0 0 512 512" fill="none" xmlns="http://www.w3.org/2000/svg"><path d="M344.8 193.7l-119 89.3s-31.8-23.6 22.1-57.9c53.9-34.3 23.6-64.7 23.6-64.7s-74.5-87-86.2-104.1c-11.8-17.1 4.4-43.6 4.4-43.6l155.1 181zm105.7 138.901v136.1c0 5.1-4.1 9.2-9.2 9.2h-14.2c-5.1 0-9.2-4.1-9.2-9.2v-150.3c0-5.1 4.1-9.2 9.2-9.2 12.9 0 23.4 10.5 23.4 23.4zm-113.4-4.3v.1c-.1 10.2-6.1 19.5-15.4 23.7-27.8 12.6-85.4 38.7-105.4 47.7-26.7 12-38 0-38 0l-83.2-63c-9.2 11.7 1.5 27.3 1.5 27.3l2.7 2.4 85 63.7c.3.2.7.3 1 .5 1.2.8 2.5 1.4 3.8 2 .4.2.8.5 1.3.6.2.1.4.1.6.1 1.9.6 3.9.9 5.9.9h.2c1.9 0 3.7-.3 5.6-.8h.2l136.7-39.1 47.7 47.7c.3.3.9.1.9-.4v-113.3l-20.4-15.3c-12.6-9.5-30.6-.6-30.7 15.2z" opacity=".25" fill="#000"/><path d="M430.7 299.1h-21.2c-11.3 0-21 6.4-25.9 15.7l-41.5-31.1c-.4-.3-.8-.5-1.1-.7-2.3-1.5-4.6-2.4-6.8-3.2h-.1c-.6-.3-1.5-.8-2.8-1.1-1.9-.4-3.7-.4-4.9-.4h-1.8c-1-.1-2.4-.1-3.9 0-.5 0-1.1 0-1.7.2l-106.2 21.2c-15.8 3.2-26.1 18.6-22.9 34.4 2.7 13.6 14.8 23.5 28.7 23.5 2 0 3.9-.2 5.8-.6l19.4-3.9-44.2 25.2-69.6-52.2c-12.9-9.7-31.3-7-40.9 5.9-4.7 6.2-6.7 13.9-5.6 21.7 1.1 7.7 5.2 14.6 11.4 19.3l85 63.7c.2.1.4.3.6.4.5.3.9.5 1.2.7 1.4.9 2.9 1.7 4.5 2.3.4.3 1.2.7 2.1 1 .5.2.9.3 1.3.3 2.4.7 4.7 1 7 1.1h.8c2.3 0 4.7-.3 7.1-.9.3 0 .6-.1.9-.2l132.1-37.8 43 43v9.1c0 16.1 13.1 29.2 29.2 29.2h21.2c16.1 0 29.2-13.1 29.2-29.2V328.4c-.1-16.2-13.2-29.3-29.4-29.3zM444 455.8c0 7.3-5.9 13.2-13.2 13.2h-21.2c-7.3 0-13.2-5.9-13.2-13.2v-12.4c0-2.1-.8-4.2-2.3-5.7L345.4 389c-1.5-1.5-3.6-2.3-5.7-2.3-.7 0-1.5.1-2.2.3l-136.2 38.9c-.1 0-.3.1-.5.1h-.2c-1.1.3-2.1.5-3.1.5h-.5c-1.1 0-2.3-.2-3.7-.6h-.2c-.3-.1-.6-.3-1-.5-.9-.4-1.7-.8-2.3-1.2-.4-.3-.8-.5-1.2-.7l-84.5-63.4c-2.8-2.1-4.7-5.2-5.2-8.7-.5-3.5.4-7 2.5-9.8 4.4-5.8 12.7-7 18.5-2.6l73.8 55.3c2.6 1.9 6 2.1 8.8.5l85.4-48.8c2.2-1.2 3.6-3.4 4-5.9.3-2.5-.5-5-2.3-6.7l-1.9-1.9c-1.9-1.9-4.6-2.7-7.2-2.2l-59.7 11.9c-.8.2-1.7.3-2.6.3-6.3 0-11.7-4.5-13-10.6-1.4-7.2 3.2-14.2 10.4-15.6L321 294.2c.4 0 .8 0 1.2-.1h1.3c.4 0 .9 0 1.3.1h2.4c.4.2.9.4 1.4.6 1.3.5 2.6 1 3.5 1.6.3.2.6.4.8.5l48.9 36.7V418c0 3.9 3.1 7 7 7s7-3.1 7-7v-87.6c.2-.6.3-1.3.3-2 0-7.3 5.9-13.2 13.2-13.2h21.2c7.3 0 13.2 5.9 13.2 13.2v127.4h.3zM225.8 291c1.7 0 3.4-.5 4.8-1.6l119-89.3c1.8-1.3 2.9-3.3 3.2-5.5.2-2.2-.4-4.4-1.9-6.1L195.7 7.5c-2.7-3.2-7.5-3.7-10.9-1.2l-119 89.3c-1.8 1.3-2.9 3.3-3.2 5.5-.2 2.2.4 4.4 1.9 6.1l155.2 181c1.6 1.8 3.8 2.8 6.1 2.8zM188.5 23.6l144.7 168.8L227 272.1 82.3 103.2l106.2-79.6zm48.4 207.9l50.9-38.2c1.8-1.3 2.9-3.3 3.2-5.5.3-2.2-.4-4.4-1.9-6.1l-49.6-57.8c-1-1.3-2-2.5-3.2-3.7l-.1-.1-46.9-54.7c-2.7-3.2-7.5-3.7-10.9-1.2l-50.9 38.2c-1.8 1.3-2.9 3.3-3.2 5.5-.2 2.2.4 4.4 1.9 6.1l49.6 57.8c1 1.3 2 2.5 3.2 3.7l.1.1 46.9 54.7c1.6 1.8 3.8 2.8 6.1 2.8 1.7 0 3.4-.5 4.8-1.6zm-68-92.5L144 110l38.1-28.6 22.8 26.6c-17.7 1.3-32.2 14.1-36 31zm22.2 25.9l-2.6-3.1c-3-4.1-4.6-8.9-4.6-14 0-13.2 10.7-23.9 23.9-23.9 6.3 0 12.2 2.4 16.7 6.8l2.6 3.1c3 4.1 4.6 8.9 4.6 14 0 13.2-10.7 23.9-23.9 23.9-6.3 0-12.3-2.4-16.7-6.8zm19.4 22.7c17.7-1.2 32.2-14.1 36.1-30.9l24.8 29-38.1 28.6-22.8-26.7z" fill="#000"/><path d="M48.5 291.7v35.2H27v-35.2h21.5zm0 63.901v35.2H27v-35.2h21.5zM471.6 289.3l-31.4-31.4 31-31 .4 62.4zM357 46.6h-59.2c-4.4 0-8-3.6-8-8s3.6-8 8-8H357c4.4 0 8 3.6 8 8s-3.5 8-8 8zm-336.2 0H80c4.4 0 8-3.6 8-8s-3.6-8-8-8H20.8c-4.4 0-8 3.6-8 8s3.5 8 8 8zm312.7 68.5c-2.9-3.4-7.9-3.7-11.3-.9-3.4 2.9-3.7 7.9-.9 11.3L398 215c1.6 1.8 3.8 2.8 6.1 2.8 1.8 0 3.7-.6 5.2-1.9 3.4-2.9 3.7-7.9.9-11.3l-76.7-89.5zM94.8 179.8L18.1 90.3c-2.9-3.4-7.9-3.7-11.3-.9-3.4 2.9-3.7 7.9-.9 11.3l76.7 89.5c1.6 1.8 3.8 2.8 6.1 2.8 1.8 0 3.7-.6 5.2-1.9 3.4-2.9 3.8-7.9.9-11.3zm373.3-81.6c-20.3 0-36.8 16.5-36.8 36.8 0 4.4 3.6 8 8 8s8-3.6 8-8c0-11.4 9.3-20.8 20.8-20.8 4.4 0 8-3.6 8-8s-3.6-8-8-8zm-78.8 0c-4.4 0-8 3.6-8 8s3.6 8 8 8c11.4 0 20.8 9.3 20.8 20.8 0 4.4 3.6 8 8 8s8-3.6 8-8c0-20.3-16.5-36.8-36.8-36.8zm28.8-50c-4.4 0-8 3.6-8 8 0 11.4-9.3 20.8-20.8 20.8-4.4 0-8 3.6-8 8s3.6 8 8 8c20.3 0 36.8-16.5 36.8-36.8 0-4.5-3.6-8-8-8zm50 44.7c4.4 0 8-3.6 8-8s-3.6-8-8-8c-11.4 0-20.8-9.3-20.8-20.8 0-4.4-3.6-8-8-8s-8 3.6-8 8c0 20.3 16.5 36.8 36.8 36.8zM148.8 272.6c4.4 0 8-3.6 8-8s-3.6-8-8-8H133v-15.8c0-4.4-3.6-8-8-8s-8 3.6-8 8v15.8h-15.8c-4.4 0-8 3.6-8 8s3.6 8 8 8H117v15.8c0 4.4 3.6 8 8 8s8-3.6 8-8v-15.8h15.8zM82.5 459.5c0 14.6-11.8 26.4-26.4 26.4-14.6 0-26.4-11.8-26.4-26.4 0-14.6 11.8-26.4 26.4-26.4 14.6 0 26.4 11.9 26.4 26.4zm-16 0c0-5.7-4.7-10.4-10.4-10.4s-10.4 4.7-10.4 10.4 4.7 10.4 10.4 10.4 10.4-4.6 10.4-10.4zm268.9-9.7h-3.9v-3.9c0-4.4-3.6-8-8-8s-8 3.6-8 8v3.9h-3.9c-4.4 0-8 3.6-8 8s3.6 8 8 8h3.9v3.9c0 4.4 3.6 8 8 8s8-3.6 8-8v-3.9h3.9c4.4 0 8-3.6 8-8s-3.6-8-8-8zm-299.8-232v3.9c0 4.4 3.6 8 8 8s8-3.6 8-8v-3.9h3.9c4.4 0 8-3.6 8-8s-3.6-8-8-8h-3.9v-3.9c0-4.4-3.6-8-8-8s-8 3.6-8 8v3.9h-3.9c-4.4 0-8 3.6-8 8s3.6 8 8 8h3.9zm240.9 224.7c-.4.1-39.1 11.1-70.8 19.4-28.4 7.5-50-16-51-17-2.9-3.3-8-3.6-11.3-.6-3.3 2.9-3.6 8-.6 11.3 1 1.1 21.7 23.9 51.6 23.9 4.9 0 10-.6 15.3-2 31.8-8.4 70.7-19.4 71.1-19.5 4.3-1.2 6.7-5.6 5.5-9.9-1.2-4.3-5.6-6.8-9.8-5.6z" opacity=".25" fill="#000"/></svg>