<svg width="512" height="512" viewBox="0 0 512 512" fill="none" xmlns="http://www.w3.org/2000/svg"><g opacity=".25" fill="#000"><path d="M193.8 264.8c-1.7.1-3.4.2-5.2.2-10.8 0-21.3-1.8-31-5l-11.9 28.7-14.2-5.9 11.9-28.8c-7.9-4-15.2-9.1-21.8-15-4.1-3.7-1.5-2.5 4-2.5h41.7c21.3 0 21.2-10.2 21.2-29.2h.1c23.4 0 42.4-19 42.4-42.4 0-41.7-24.7-33.1-36.4-39.4-3.7-2-6.1-5.9-6.1-10.2V78c0-7.4 6.5-13.1 13.9-12.1h.1c5.9.8 11.6 2.2 17.1 4l11.9-28.7 14.2 5.9-11.9 28.8c18.9 9.6 34.3 25 43.9 43.9l28.8-11.9 5.9 14.2-28.7 11.9c3.2 9.8 5 20.2 5 31 0 5.9-.5 11.7-1.5 17.3-1.2 0-2.4-.1-3.6-.1-47.3-.1-86.1 36.4-89.8 82.6z"/><path d="M283.5 182.101h-.8c-4.5 0-5.8 6.2-1.7 8.1 31.1 14.2 52.8 45.6 52.8 81.9 0 18.9-5.8 37-16.8 52.3-3.5 5-7.4 9.4-11.1 13.8-11.4 13.4-21.3 24.9-21.3 46.9v40.9c0 12.9-3.4 22.8-10.4 30.2l-.3.3c-5.1 5.2-3.6 14 3.2 16.9 2.4 1 4.6 1.7 6.4 1.7 8.8 0 26.2-14.4 30.5-18.9 7-7.4 10.4-17.3 10.4-30.2v-40.9c0-22 9.9-33.5 21.3-46.9 3.7-4.4 7.5-8.8 11.1-13.8 11-15.5 16.9-33.7 16.8-52.7-.3-49.7-40.4-89.6-90.1-89.6z"/></g><path opacity=".25" d="M22.9 296h17v195.3h-17V296zM491 55.8v-17H295.7v17H491z" fill="#000"/><path d="M219.7 164.9c0 17.1-13.9 31.1-31.1 31.1-17.1 0-31.1-13.9-31.1-31.1 0-17.2 13.9-31.1 31.1-31.1 4.4 0 8 3.6 8 8s-3.6 8-8 8c-8.3 0-15.1 6.8-15.1 15.1s6.8 15.1 15.1 15.1 15.1-6.8 15.1-15.1c0-4.4 3.6-8 8-8s8 3.6 8 8zM130.1 52.7l11.5-4.9 10.3 24.5c1.6 3.8 5.8 5.7 9.7 4.5 8.7-2.7 17.8-4 27-4 8.7 0 17.3 1.2 25.7 3.6 3.9 1.1 8.1-.9 9.6-4.7l10-24.6 4.2 1.7-10 24.6c-1.5 3.8 0 8.1 3.6 10.1 15.9 8.5 28.9 21.3 37.5 37 2 3.6 6.3 5.1 10.1 3.5l24.4-10.3 1.7 4.1-24.4 10.3c-3.8 1.6-5.7 5.8-4.5 9.7 1.7 5.7 2.9 11.6 3.5 17.6.4 4.1 3.9 7.2 7.9 7.2h.8c4.4-.4 7.6-4.4 7.1-8.8-.5-4.6-1.2-9.1-2.3-13.6l25.3-10.7c4.1-1.7 6-6.4 4.3-10.5l-8-18.9c-.8-2-2.4-3.5-4.4-4.3-2-.8-4.2-.8-6.1 0l-25.4 10.7c-8.7-13.6-20.3-25-34.1-33.6l10.4-25.5c.8-2 .8-4.2 0-6.1-.8-1.9-2.4-3.5-4.4-4.3l-19-7.7c-4.1-1.7-8.8.3-10.4 4.4l-10.4 25.5c-15.7-3.4-32.2-3.3-47.8.4l-10.7-25.5c-.8-2-2.4-3.5-4.4-4.3-2-.8-4.2-.8-6.1 0l-18.9 8c-4.1 1.7-6 6.4-4.3 10.5 2.2 4.2 6.9 6.2 11 4.4zm202.4 329.4c0 .3.1.6.1 1 0 .5 0 .9-.1 1.4V426c0 15-4.1 26.7-12.6 35.7-.2.2-21.9 21.4-36.3 21.4-14.6 0-36.1-21.2-36.3-21.4-8.5-9-12.6-20.6-12.6-35.7v-40.9c0-19-8.1-28.5-19.4-41.7-3.6-4.2-7.7-9-11.5-14.3-11.8-16.5-18.1-35.9-18.2-56.2-6.8-.2-13.6-1-20.2-2.5L154.9 296c-.8 2-2.3 3.5-4.3 4.4-1 .4-2.1.6-3.1.6s-2-.2-3-.6l-19-7.7c-4.1-1.7-6.1-6.3-4.4-10.4l10.4-25.7c-1.8-1.1-3.5-2.3-5.2-3.5h-62c-4.4 0-8-3.6-8-8s3.6-8 8-8h44c-3.9-4.4-7.5-9.1-10.7-14L72 233.9c-2 .8-4.2.8-6.1 0-2-.8-3.5-2.3-4.4-4.3l-8-18.9c-.8-2-.8-4.2 0-6.1.8-2 2.3-3.5 4.3-4.4l25.5-10.8c-1.9-8-2.8-16.2-2.8-24.5 0-7.8.8-15.6 2.5-23.2l-25.7-10.4c-4.1-1.7-6.1-6.3-4.4-10.4l7.7-19c.8-2 2.3-3.5 4.3-4.4 2-.8 4.2-.8 6.1 0L96.9 108c4.4-7 9.5-13.5 15.4-19.3 3.1-3.1 8.2-3.1 11.3 0l10.9 10.9c3.1 3.1 3.1 8.2 0 11.3-1.6 1.6-3.6 2.3-5.7 2.3s-4.1-.8-5.7-2.3l-5-5c-4.1 4.9-7.8 10.3-10.8 15.9-1.9 3.6-6.3 5.2-10.1 3.6l-24.7-10.1-1.7 4.2 24.7 10.1c3.8 1.5 5.8 5.7 4.7 9.7-2.4 8.3-3.7 17-3.7 25.7 0 9.1 1.3 18.2 4 26.8 1.2 3.9-.8 8.1-4.5 9.7l-24.6 10.4 1.7 4.1 24.6-10.4c3.8-1.6 8.1-.1 10.1 3.5 8.7 15.7 21.6 28.5 37.4 37 3.6 1.9 5.2 6.3 3.6 10.1l-10 24.7 4.2 1.7 10-24.6c1.5-3.8 5.7-5.8 9.7-4.7 7.7 2.3 15.8 3.5 23.9 3.7 2.6-16.6 9.4-31.9 19.3-44.7-5.4 2-11.2 3.1-17.3 3.1-27.8 0-50.4-22.6-50.4-50.4 0-27.8 22.6-50.4 50.4-50.4 27.8 0 50.4 22.6 50.4 50.4 0 8.3-2 16.1-5.5 22.9 14.6-8.7 31.8-13.8 50-13.8 54 0 98 44 98 98 0 20.6-6.3 40.3-18.3 57-3.7 5.2-7.6 9.7-11.3 14.2l-.1.2c-10.7 12.4-18.5 21.6-19.3 38.6zM223 164.9c0-19-15.4-34.4-34.4-34.4s-34.4 15.4-34.4 34.4 15.4 34.4 34.4 34.4 34.4-15.4 34.4-34.4zM339.6 333l.1-.2c3.5-4.2 7.2-8.5 10.5-13.1 10-14 15.3-30.5 15.3-47.7 0-45.2-36.8-82-82-82s-82 36.8-82 82c0 17.2 5.3 33.7 15.3 47.7 3.4 4.7 7.1 9 10.6 13.2 11.9 14 23.2 27.2 23.2 52.1v41c0 10.7 2.7 18.8 8.2 24.7 5.4 5.7 20.2 16.4 24.7 16.4s19.3-10.7 24.7-16.4c2.5-2.7 4.5-5.8 5.8-9.5h-30.2c-4.4 0-8-3.6-8-8s3.6-8 8-8h32.6v-34.1h-32.6c-4.4 0-8-3.6-8-8s3.6-8 8-8H317c2.6-18.7 12.4-30.1 22.6-42.1zm33.3-146.5c2 0 4.1-.8 5.7-2.3l37.4-37.4c3.1-3.1 3.1-8.2 0-11.3-3.1-3.1-8.2-3.1-11.3 0l-37.4 37.4c-3.1 3.1-3.1 8.2 0 11.3 1.5 1.5 3.5 2.3 5.6 2.3zM187.3 363.9l-37.4 37.4c-2.4 2.4-2.4 6.4 0 8.8 1.2 1.2 2.8 1.8 4.4 1.8 1.6 0 3.2-.6 4.4-1.8l37.4-37.4c2.4-2.4 2.4-6.4 0-8.8-2.4-2.4-6.3-2.4-8.8 0zM453 312.8l-31-1.2c-1.1-8.6-3.1-17.1-6.1-25.4-3.2-8.8-7.4-17.1-12.5-24.9l22.8-21.1c3.2-3 3.4-8.1.4-11.3l-15.3-16.6c-3-3.2-8.1-3.4-11.3-.4-3.2 3-3.4 8.1-.4 11.3l9.9 10.7-22.1 20.4c-3 2.8-3.4 7.4-1 10.7 6.1 8.1 10.9 17 14.4 26.6 3.3 9.1 5.3 18.6 5.9 28.1.3 4.1 3.6 7.3 7.7 7.5l30 1.2-.3 6.6-30-1.2c-4.1-.1-7.7 2.8-8.2 6.9-2.8 19.7-11.3 38.1-24.4 53.1-2.7 3.1-2.6 7.7.1 10.7l20.3 22-4.8 4.5-20.3-22c-2.8-3-7.4-3.4-10.7-1-5.3 4-11 7.4-17 10.3-4 1.9-5.7 6.7-3.7 10.7 1.9 4 6.7 5.7 10.7 3.7 4.7-2.3 9.3-4.9 13.7-7.8l21 22.7c1.4 1.6 3.4 2.5 5.6 2.6h.3c2 0 3.9-.8 5.4-2.1l16.6-15.3c3.2-3 3.4-8.1.4-11.3l-21-22.8c11.1-14.3 18.8-30.9 22.4-48.7l31 1.2c2.1.1 4.2-.7 5.7-2.1 1.6-1.4 2.5-3.4 2.6-5.6l.9-22.5c.1-4.4-3.3-8.1-7.7-8.2z" fill="#000"/><path opacity=".25" d="M408.4 484.5l84.4-84.4v84.4h-84.4zm-92.6-309.3c0 4.3-3.5 7.8-7.8 7.8h-46.4c-4.3 0-7.8-3.5-7.8-7.8s3.5-7.8 7.8-7.8H308c4.3 0 7.8 3.5 7.8 7.8zm97-91.7h-52.9c-4.4 0-8 3.6-8 8s3.6 8 8 8h52.9c4.4 0 8-3.6 8-8s-3.6-8-8-8zm56.6 299.8c1 1.6 1.4 3.5 1 5.3-.7 3.3-3.6 5.6-6.9 5.6-.5 0-1-.1-1.5-.2-3.8-.8-6.2-4.6-5.4-8.4.8-3.8 4.6-6.2 8.4-5.4 1.8.4 3.3 1.5 4.4 3.1zm-4.8-1.5c-2.9-.6-5.8 1.2-6.5 4.2-.6 2.9 1.2 5.8 4.2 6.5 2.9.6 5.8-1.2 6.5-4.2l-4.5-1 4.5 1c.6-3-1.3-5.9-4.2-6.5zm-266.9-55.6c1 1.6 1.4 3.5 1 5.3-.4 1.8-1.5 3.4-3.1 4.4-1.2.7-2.5 1.1-3.8 1.1-.5 0-1-.1-1.5-.2-3.8-.8-6.2-4.6-5.4-8.4.4-1.8 1.5-3.4 3.1-4.4 1.6-1 3.5-1.4 5.3-1 1.8.5 3.4 1.6 4.4 3.2zm-1.4.9c-.8-1.2-2-2.1-3.4-2.4-1.4-.3-2.9 0-4.1.7-1.2.8-2.1 2-2.4 3.4-.3 1.4 0 2.9.7 4.1.8 1.2 2 2.1 3.4 2.4 1.4.3 2.9 0 4.1-.7 1.2-.8 2.1-2 2.4-3.4l-4.5-1 4.5 1c.4-1.4.1-2.9-.7-4.1zm-83.8 35.8c-2.4-2.4-6.4-2.4-8.8 0l-8.7 8.7-8.7-8.7c-2.4-2.4-6.4-2.4-8.8 0-2.4 2.4-2.4 6.4 0 8.8l8.7 8.7-8.7 8.7c-2.4 2.4-2.4 6.4 0 8.8 1.2 1.2 2.8 1.8 4.4 1.8 1.6 0 3.2-.6 4.4-1.8l8.7-8.7 8.7 8.7c1.2 1.2 2.8 1.8 4.4 1.8 1.6 0 3.2-.6 4.4-1.8 2.4-2.4 2.4-6.4 0-8.8l-8.7-8.7 8.7-8.7c2.5-2.4 2.5-6.3 0-8.8zm376.9-225.6h-1.3V136c0-4.4-3.6-8-8-8s-8 3.6-8 8v1.3h-1.3c-4.4 0-8 3.6-8 8s3.6 8 8 8h1.3v1.3c0 4.4 3.6 8 8 8s8-3.6 8-8v-1.3h1.3c4.4 0 8-3.6 8-8s-3.6-8-8-8zm-307.1 315h-3v-3c0-3.5-2.8-6.2-6.2-6.2-3.4 0-6.2 2.8-6.2 6.2v3h-3c-3.5 0-6.2 2.8-6.2 6.2 0 3.4 2.8 6.2 6.2 6.2h3v3c0 3.5 2.8 6.2 6.2 6.2 3.4 0 6.2-2.8 6.2-6.2v-3h3c3.5 0 6.2-2.8 6.2-6.2 0-3.4-2.7-6.2-6.2-6.2zM69.5 43H53.7V27.2c0-4.4-3.6-8-8-8s-8 3.6-8 8V43H21.9c-4.4 0-8 3.6-8 8s3.6 8 8 8h15.8v15.8c0 4.4 3.6 8 8 8s8-3.6 8-8V59h15.8c4.4 0 8-3.6 8-8s-3.6-8-8-8z" fill="#000"/></svg>