<svg width="512" height="512" viewBox="0 0 512 512" fill="none" xmlns="http://www.w3.org/2000/svg"><path opacity=".25" d="M399.9 416.3l-57.6-24.9-35.2 51.9-12.8-43.9s-7.8-26.7 10.6-38.1c18.4-11.4 31.7-31.3 24.4-49.3-3.6-8.9-4.8-18.3-1.6-27.4-18.9 13.3-41.9 21.1-66.8 21.1-9.7 0-19.1-1.2-28.1-3.4 25.7-6.4 48-21.3 63.7-41.5l2.3 1.6c1.7 1.2 3.7 1.9 5.7 1.9s4-.6 5.7-1.8c3.4-2.5 4.8-6.8 3.5-10.8l-3.9-12.2c7.2-15.1 11.2-32 11.2-49.8 0-1.7 0-3.4-.1-5.2l19.2-14c3.4-2.5 4.8-6.8 3.5-10.8-1.3-4-5-6.7-9.2-6.7H315c-12.5-37.5-43.5-66.5-82.2-76.1 9-2.2 18.4-3.4 28.1-3.4 64.1 0 116.1 52 116.1 116.1 0 26-8.5 50-23 69.3l45.9 157.4zm-177.5-67.5c-10.7 9.1-23.7 18-26.4 12.6-4.7-9.3-13.3-14.7-30-11.9-16.7 2.8-37.4 11.9-37.4 11.9l-16 54.9 57.6-24.9 35.2 51.9 25.9-88.8c1.5-5.2-4.7-9.3-8.9-5.7z" fill="#000"/><path d="M344.7 176.9l-37.8 27.6 14.4 44.6c2.4 7.3-.2 15.2-6.4 19.7-3.1 2.2-6.6 3.4-10.4 3.4-3.8 0-7.4-1.2-10.4-3.4l-37.7-27.5-37.7 27.5c-3.1 2.2-6.7 3.4-10.4 3.4s-7.3-1.2-10.4-3.4c-6.2-4.5-8.8-12.4-6.4-19.7l14.4-44.6-37.9-27.6c-3.6-2.6-4.4-7.6-1.7-11.2 2.6-3.6 7.6-4.4 11.2-1.7l42.5 31c2.8 2 4 5.6 2.9 8.9L206.7 254c-.2.7 0 1.5.6 1.9.4.3.7.3 1 .3.4 0 .7-.1 1-.3l42.4-30.9a7.8 7.8 0 019.4 0l42.4 30.9c.4.3.7.3 1 .3.3 0 .6-.1 1-.3.6-.4.8-1.2.6-1.9l-16.3-50c-1.1-3.3.1-6.9 2.9-8.9l42.5-31.1c.6-.4.8-1.2.6-1.9-.2-.7-.9-1.1-1.6-1.1h-52.5c-3.5 0-6.5-2.2-7.6-5.5l-16.2-50c-.2-.7-.9-1.2-1.6-1.2-.7 0-1.3.5-1.6 1.1l-16.2 50c-1.1 3.3-4.1 5.5-7.6 5.5h-48.7c-4.4 0-8-3.6-8-8s3.6-8 8-8h42.9l14.4-44.5c2.4-7.3 9.1-12.2 16.8-12.2 7.7 0 14.4 4.9 16.8 12.2l14.4 44.4h46.7c7.7 0 14.4 4.9 16.8 12.2 2.5 7.5-.1 15.4-6.3 19.9zm60.5 245.4c-2.3 2-5.6 2.6-8.5 1.3l-51.5-22.3-31.5 46.4c-1.5 2.2-4 3.5-6.6 3.5-.4 0-.8 0-1.2-.1-3.1-.5-5.6-2.7-6.4-5.7l-38-130.3c-1.8.1-3.6.1-5.5.1-24.8 0-49-7.3-70.2-21.3-8.7-5.8-16.6-12.5-23.5-20L125 402.2l42-18.1c3.5-1.5 7.6-.3 9.8 2.9l25.7 37.8 27-92.9c1.2-4.2 5.7-6.7 9.9-5.4 4.2 1.2 6.7 5.7 5.4 9.9L213 445.6c-.9 3-3.4 5.2-6.4 5.7-.4.1-.8.1-1.2.1-2.6 0-5.1-1.3-6.6-3.5l-31.5-46.4-51.5 22.3c-2.8 1.2-6.1.7-8.5-1.3-2.3-2.1-3.3-5.3-2.4-8.2l45.3-155.5c-9-13.6-15.4-28.9-18.7-45.3-13.9-68.8 30.8-136.1 99.6-149.9 27.2-5.5 54.7-2.1 79.7 9.7 24.1 11.4 44.4 30.6 57.2 53.9 2.1 3.9.7 8.7-3.2 10.9-3.9 2.1-8.7.7-10.9-3.2-23.5-43-71.6-65.3-119.7-55.6-60.2 12.1-99.2 70.9-87.1 131.1 5.9 29.1 22.8 54.2 47.5 70.7 24.8 16.4 54.4 22.3 83.6 16.4 60.2-12.1 99.2-70.9 87.1-131.1-.9-4.3 1.9-8.6 6.3-9.4 4.3-.9 8.6 1.9 9.4 6.3 6.9 34.4-.8 68.4-18.8 95.5l45.3 155.7c1 2.6 0 5.8-2.3 7.8zm-17.7-20.1L350.1 274c-17.6 19.3-41.2 33.3-68.7 38.9-1.3.3-2.5.5-3.8.7L310 424.8l25.7-37.8c2.2-3.2 6.3-4.4 9.8-2.9l42 18.1z" fill="#000"/><path opacity=".25" d="M439.5 125.9c0-5.9 4.8-10.8 10.8-10.8 5.9 0 10.8 4.8 10.8 10.8 0 5.9-4.8 10.8-10.8 10.8-6-.1-10.8-4.9-10.8-10.8zM97.3 249.3H81.5v-15.8c0-4.4-3.6-8-8-8s-8 3.6-8 8v15.8H49.8c-4.4 0-8 3.6-8 8s3.6 8 8 8h15.8v15.8c0 4.4 3.6 8 8 8s8-3.6 8-8v-15.8h15.8c4.4 0 8-3.6 8-8s-3.7-8-8.1-8zM45 74.1c20.3 0 36.7-16.5 36.7-36.8 0-4.4-3.6-8-8-8s-8 3.6-8 8c0 11.4-9.3 20.8-20.7 20.8-4.4 0-8 3.6-8 8s3.6 8 8 8zm78.8-16c-11.4 0-20.8-9.3-20.8-20.8 0-4.4-3.6-8-8-8s-8 3.6-8 8c0 20.3 16.5 36.8 36.8 36.8 4.4 0 8-3.6 8-8s-3.6-8-8-8zm0 21.2c-20.3 0-36.8 16.5-36.8 36.8 0 4.4 3.6 8 8 8s8-3.6 8-8c0-11.4 9.3-20.8 20.8-20.8 4.4 0 8-3.6 8-8s-3.6-8-8-8zm-58 36.8c0 4.4 3.6 8 8 8s8-3.6 8-8c0-20.3-16.5-36.8-36.7-36.8-4.4 0-8 3.6-8 8s3.6 8 8 8c11.3 0 20.7 9.3 20.7 20.8zm401.1 317.8H463V430c0-4.4-3.6-8-8-8s-8 3.6-8 8v3.9h-3.9c-4.4 0-8 3.6-8 8s3.6 8 8 8h3.9v3.9c0 4.4 3.6 8 8 8s8-3.6 8-8v-3.9h3.9c4.4 0 8-3.6 8-8s-3.6-8-8-8zm24.4-347L430.4 26h60.9v60.9zm-21.5 285.2h-29.6V164.9h29.6v207.2zM137.4 488.6L21.8 430.8v57.8h115.6z" fill="#000"/></svg>