<svg width="512" height="512" viewBox="0 0 512 512" fill="none" xmlns="http://www.w3.org/2000/svg"><path opacity=".25" d="M488.6 171.9v179.9H177.2v56.4H74.5c-16.8 0-30.3-13.6-30.3-30.3v-44.2c0-28.2 22.9-51.1 51.1-51.1h82v-31.4c0-10.8-8.8-19.6-19.6-19.6h-44.1v-42.2c0-9.7 7.8-17.5 17.5-17.5h357.5z" fill="#000"/><path d="M493.2 126.4c-4.4 0-8 3.6-8 8v262H293.6c-4.4 0-8 3.6-8 8 0 .4 0 .8.1 1.2-.1.4-.1.8-.1 1.2V437H185.2v-25.7H266c4.4 0 8-3.6 8-8s-3.6-8-8-8h-83.6c1.7-1.5 2.8-3.6 2.8-6.1V245.9c0-12.3-10-22.3-22.3-22.3H99v-81.1h313c4.4 0 8-3.6 8-8s-3.6-8-8-8H97.5c-8 0-14.5 6.5-14.5 14.5v82.6H33.8c-12.3 0-22.3 10-22.3 22.3v215.2c0 12.3 10 22.3 22.3 22.3h129.1c12.3 0 22.3-10 22.3-22.3v-8h260.5c4.4 0 8-3.6 8-8s-3.6-8-8-8H301.6v-24.7h185.1c8 0 14.5-6.5 14.5-14.5V134.4c0-4.4-3.6-8-8-8zm-324 334.7c0 3.4-2.9 6.3-6.3 6.3H33.8c-3.5 0-6.3-2.8-6.3-6.3V245.9c0-3.5 2.8-6.3 6.3-6.3h129.1c3.5 0 6.3 2.8 6.3 6.3v23.8c-1.5-1.9-3.8-3.1-6.3-3.1H48.1c-4.4 0-8 3.6-8 8s3.6 8 8 8h114.8c2.6 0 4.9-1.2 6.3-3.1v109.9c0 2.6 1.2 4.9 3.1 6.3H48.1c-4.4 0-8 3.6-8 8s3.6 8 8 8h121.1v49.4zm230.4-84.2c0 4.9 4 8.8 8.8 8.8 4.9 0 8.8-4 8.8-8.8 0-4.9-4-8.8-8.8-8.8-4.8 0-8.8 4-8.8 8.8zm33.4 8.9c4.9 0 8.8-4 8.8-8.8 0-4.9-4-8.8-8.8-8.8-4.9 0-8.8 4-8.8 8.8-.1 4.8 3.9 8.8 8.8 8.8zm24.4 0c4.9 0 8.8-4 8.8-8.8 0-4.9-4-8.8-8.8-8.8-4.9 0-8.8 4-8.8 8.8 0 4.8 4 8.8 8.8 8.8zm-402.9 61c0-4.4 3.6-8 8-8h71.7c4.4 0 8 3.6 8 8s-3.6 8-8 8H62.5c-4.5 0-8-3.6-8-8z" fill="#000"/><path d="M19.4 33.8l60.9 60.9H19.4V33.8zm230.5-15.2V34H487V18.6H249.9zm174.3 50.5V54.5h61.1v14.6h-61.1zm-26.1 0V54.5H337v14.6h61.1zm-148.2 0V54.5H311v14.6h-61.1zm253.5 413.1c0 4.4-3.6 8-8 8H319.9c-4.4 0-8-3.6-8-8s3.6-8 8-8h175.4c4.5 0 8.1 3.5 8.1 8zM48.3 195.9c0 4.9-4 8.8-8.8 8.8-4.8 0-8.8-4-8.8-8.8 0-4.8 4-8.8 8.8-8.8 4.8 0 8.8 3.9 8.8 8.8zm0-43.8c0 4.9-4 8.8-8.8 8.8-4.8 0-8.8-4-8.8-8.8 0-4.8 4-8.8 8.8-8.8 4.8 0 8.8 3.9 8.8 8.8zm385-9.7h11.4v11.4c0 4.4 3.6 8 8 8s8-3.6 8-8v-11.4h11.4c4.4 0 8-3.6 8-8s-3.6-8-8-8h-11.4V115c0-4.4-3.6-8-8-8s-8 3.6-8 8v11.4h-11.4c-4.4 0-8 3.6-8 8s3.6 8 8 8zM251 86.7h-73.8c-4.4 0-8 3.6-8 8s3.6 8 8 8H251c4.4 0 8-3.6 8-8s-3.6-8-8-8zm-47.1-39.6c0-4.4-3.6-8-8-8H80.3c-4.4 0-8 3.6-8 8s3.6 8 8 8h115.6c4.4 0 8-3.6 8-8z" opacity=".25" fill="#000"/></svg>