<svg width="512" height="512" viewBox="0 0 512 512" fill="none" xmlns="http://www.w3.org/2000/svg"><path opacity=".25" d="M468.8 63.4s-26.5 135.3-122.5 231.3c-12.5 12.5-25.1 24.3-37.7 35.3-34.3 30.1-68.2 54.3-98.1 70.8l-2.3-2.3c-14.1-14.1-12.4-37.5 3.6-49.5 13.7-10.3 27.8-21.7 42-34.1 12.5-11 25.1-22.8 37.7-35.3 12.4-12.4 23.7-25.5 33.9-38.9 11.6 1.2 23.6-2.6 32.6-11.5 13.2-13.2 15.3-33.4 6.2-48.8 12.1-22.5 21.6-44.2 28.9-63.3 9.2-24 29.3-42.1 54.2-48.6 13.5-3.7 21.5-5.1 21.5-5.1zM177.4 403.2c-26 15.8-44.3-15.7-73.6 13.6-3.7 3.7-1.4-24.1-2.4-27.4-3.7-12.1-18.7-16.2-27.6-7.2-2.8 2.8-4.5 6.5-4.8 10.5-2.8 40.5.9 98.9 13.2 83.6 63.4-78.9 70.4-.4 138.1-61.1l-10.9-10c-8.9-8.3-22.2-9-32-2zM41.3 334.3c0 5.7 4.7 10.4 10.4 10.4 4.4 0 8 3.6 8 8s-3.6 8-8 8c-14.6 0-26.4-11.8-26.4-26.4 0-14.6 11.8-26.4 26.4-26.4 4.4 0 8 3.6 8 8s-3.6 8-8 8c-5.7 0-10.4 4.7-10.4 10.4zm348.9 7.3L334 397.8c-3.1 3.1-3.1 8.2 0 11.3 1.6 1.6 3.6 2.3 5.7 2.3s4.1-.8 5.7-2.3l56.2-56.2c3.1-3.1 3.1-8.2 0-11.3-3.2-3.1-8.3-3.1-11.4 0zM215.2 134l-41.7 41.7c-3.1 3.1-3.1 8.2 0 11.3 1.6 1.6 3.6 2.3 5.7 2.3s4.1-.8 5.7-2.3l41.7-41.7c3.1-3.1 3.1-8.2 0-11.3a8.15 8.15 0 00-11.4 0zM45.7 70.7c-4.2 4.2-4.2 11 0 15.2 4.2 4.2 11 4.2 15.2 0 4.2-4.2 4.2-11 0-15.2-4.2-4.2-11-4.2-15.2 0zm415.5 392.4c-4.2 4.2-4.2 11 0 15.2 4.2 4.2 11 4.2 15.2 0 4.2-4.2 4.2-11 0-15.2-4.2-4.2-11-4.2-15.2 0zm19.5-180.6h-3.9v-3.9c0-4.4-3.6-8-8-8s-8 3.6-8 8v3.9h-3.9c-4.4 0-8 3.6-8 8s3.6 8 8 8h3.9v3.9c0 4.4 3.6 8 8 8s8-3.6 8-8v-3.9h3.9c4.4 0 8-3.6 8-8s-3.6-8-8-8zm-307-211c4.4 0 8-3.6 8-8s-3.6-8-8-8h-3.9v-3.9c0-4.4-3.6-8-8-8s-8 3.6-8 8v3.9h-3.9c-4.4 0-8 3.6-8 8s3.6 8 8 8h3.9v3.9c0 4.4 3.6 8 8 8s8-3.6 8-8v-3.9h3.9z" fill="#000"/><path d="M474.5 57.8c-1.8-1.9-4.5-2.7-7.1-2.3-.8.1-20.2 3.6-49.7 13.2-4.2 1.4-6.5 5.9-5.1 10.1 1.4 4.2 5.9 6.5 10.1 5.1 14.8-4.8 27.1-8.1 35.5-10.1-3.5 13.6-10.4 37.801-22.1 66.501-16.7 41-46.8 100.1-95.3 148.6-12.3 12.3-24.8 24-37.3 35-31.3 27.4-62.7 50.5-91.4 66.8l-71.7-71.7c4.5-7.9 9.5-16 15-24.3l63.9 63.9c1.6 1.6 3.6 2.3 5.7 2.3s4.1-.8 5.7-2.3c3.1-3.1 3.1-8.2 0-11.3l-66-66c12.2-17.2 26.1-34.8 41.5-52.4 11.4-13 23.5-26 36.1-38.6 48.7-48.7 106.9-78.3 148.9-95.1l28.3 28.3c1.6 1.6 3.6 2.3 5.7 2.3s4.1-.8 5.7-2.3c3.1-3.1 3.1-8.2 0-11.3l-29.2-29.2c-.2-.2-.5-.4-.7-.6-1.7-3.8-6.2-5.7-10.1-4.1-43.8 16.9-107.1 48.1-159.8 100.8-12 12-23.7 24.4-34.6 36.9-37.6 3.7-96.1 41.2-114.1 54.5-1.9 1.4-3.1 3.5-3.2 5.8-.2 2.3.7 4.6 2.3 6.3l23.5 23.5c-.6.3-1.1.6-1.7 1-45.4 37.4-52.8 125.2-44.1 161.8 2.9 12.2 7.6 18.9 14.5 20.4.7.2 1.6.3 2.7.3 3.3 0 7.9-1.3 12.4-6.9 30.7-38.2 45.1-36.4 63.3-34.1 18 2.3 38.3 4.8 71.4-24l26.8 26.8c1.5 1.5 3.5 2.3 5.7 2.3h.6c2.3-.2 4.5-1.4 5.8-3.2 17.5-23.7 52.8-82.2 54.7-117 11.8-10.5 23.7-21.6 35.2-33.2 50.5-50.5 81.7-111.8 99-154.3 18.7-46 25.4-79.7 25.7-81.1.2-2.6-.6-5.2-2.5-7.1zM179 236.202c-20 24.4-37.1 48.6-50.3 71.2l-29.5-29.4c21.9-15.1 54.3-33.4 79.8-41.8zm-25.2 196.5c-20.3-2.6-41.2-5.2-77.2 39.2-2.3-5.2-5.3-18.3-4.8-40.4.9-36.7 12.3-88.1 41.4-112 .9-.8 1.6-1.7 2.1-2.7l9.4 9.4.7.7c-15.6 16.4-24.9 37.7-29.2 49.3-5.3 14.4-10 33.3-7.4 43.6 1.6 6.2 5.6 8.2 7.9 8.8.9.3 1.8.4 2.8.4 3.3 0 6.7-1.7 10-5 13.4-13.4 22.5-11.5 35.1-8.8 10.2 2.2 23 4.9 37-3.6 3.8-2.3 5-7.2 2.7-11s-7.2-5-11-2.7c-8.6 5.2-16 3.7-25.4 1.6-12-2.6-26.5-5.7-43.4 7.5 2.3-16 12.5-47.9 32.3-68.7l68.2 68.2 6.8 6.8c-27.2 23.3-42.2 21.4-58 19.4zm100.8.7l-30.9-30.9c23.4-13.7 48.5-31.5 73.6-52.3-7.6 25.4-26.4 59.5-42.7 83.2zm52.2-255.4c-12.5 12.5-12.5 32.9 0 45.5 12.5 12.5 32.9 12.5 45.5 0 12.5-12.5 12.5-32.9 0-45.5-5.2-5.2-11.9-8.4-19.2-9.2-4.4-.5-7.6-4.4-7.1-8.8s4.4-7.6 8.8-7.1c10.9 1.2 21.1 6.1 28.8 13.8 18.8 18.8 18.8 49.3 0 68.1-9.4 9.4-21.7 14.1-34.1 14.1-12.4 0-24.7-4.7-34.1-14.1-18.8-18.8-18.8-49.3 0-68.1 3.1-3.1 8.2-3.1 11.3 0 3.3 3.1 3.3 8.1.1 11.3z" fill="#000"/></svg>