<svg width="512" height="512" viewBox="0 0 512 512" fill="none" xmlns="http://www.w3.org/2000/svg"><path opacity=".25" d="M356.6 337.1c27.1-30.9 43.6-71.3 43.6-115.5 0-96.9-78.8-175.7-175.7-175.7h-1c0 25.6 16.5 48.4 41 56.2 50.6 16.3 85.3 62.5 85.3 120 0 57.8-35.1 104.3-86.2 120.3-23.9 7.5-40.1 29.9-40.1 55h1c31.9 0 61.8-8.7 87.6-23.8l15.7-9c5-3.1 11.4-2.4 15.6 1.7L444.9 465c3.3 3.2 8.7 3.2 12-.1l13.6-13.7-113.9-114.1z" fill="#000"/><path d="M448.7 480.9c-2 0-4-.8-5.6-2.3L327.5 366.3c-3.2-3.1-3.2-8.1-.2-11.3 3.1-3.2 8.1-3.2 11.3-.2l110 106.9 10.6-10.6-108.3-108.3c-3-3-3.1-7.8-.4-10.9 26.9-30.7 41.7-69.8 41.7-110.3 0-92.5-75.2-167.7-167.7-167.7-92.5 0-167.7 75.2-167.7 167.7 0 92.5 75.2 167.7 167.7 167.7 29.2 0 58.1-7.8 83.5-22.7 3.8-2.2 8.7-.9 10.9 2.9 2.2 3.8.9 8.7-2.9 10.9-27.9 16.2-59.6 24.8-91.6 24.8-101.3 0-183.7-82.4-183.7-183.7 0-101.3 82.5-183.6 183.8-183.6 101.3 0 183.7 82.4 183.7 183.7 0 41.8-14.4 82.4-40.8 115.1l108.7 108.7c1.5 1.5 2.3 3.5 2.3 5.7s-.8 4.2-2.3 5.7l-21.8 21.8c-1.5 1.5-3.6 2.3-5.6 2.3zM317.1 316.5c25.4-25.2 39.4-58.7 39.4-94.4 0-73.3-59.6-132.9-132.9-132.9-73.3 0-133 59.6-133 132.9 0 4.4 3.6 8 8 8H173c4.4 0 8-3.6 8-8s-3.6-8-8-8h-66.1c4.1-60.8 54.9-108.9 116.7-108.9 64.5 0 116.9 52.5 116.9 116.9 0 31.4-12.3 60.9-34.6 83.1-22 21.8-51.3 33.9-82.3 33.9-4.4 0-8 3.6-8 8s3.6 8 8 8c35.2-.1 68.4-13.8 93.5-38.6zM243 264.4c0-4.4-3.6-8-8-8H112.9c-4.4 0-8 3.6-8 8s3.6 8 8 8H235c4.4 0 8-3.6 8-8zm24.6 43.5c0-4.4-3.6-8-8-8H138.5c-4.4 0-8 3.6-8 8s3.6 8 8 8h121.2c4.4 0 7.9-3.6 7.9-8z" fill="#000"/><path opacity=".25" d="M437.3 51.3c0 20.3-16.5 36.8-36.8 36.8-4.4 0-8-3.6-8-8s3.6-8 8-8c11.4 0 20.8-9.3 20.8-20.8 0-4.4 3.6-8 8-8s8 3.6 8 8zm42 36.8c4.4 0 8-3.6 8-8s-3.6-8-8-8c-11.4 0-20.8-9.3-20.8-20.8 0-4.4-3.6-8-8-8s-8 3.6-8 8c0 20.3 16.5 36.8 36.8 36.8zm0 5.2c-20.3 0-36.8 16.501-36.8 36.801 0 4.4 3.6 8 8 8s8-3.6 8-8c0-11.4 9.3-20.7 20.8-20.7 4.4 0 8-3.6 8-8s-3.6-8.1-8-8.1zm-78.8 0c-4.4 0-8 3.6-8 8.001 0 4.4 3.6 8 8 8 11.4 0 20.8 9.3 20.8 20.8 0 4.4 3.6 8 8 8s8-3.6 8-8c0-20.3-16.5-36.8-36.8-36.8zM207 477.602h-87.6c-4.4 0-8 3.6-8 8s3.6 8 8 8H207c4.4 0 8-3.6 8-8s-3.6-8-8-8zm-47.8-24.3c0-4.4-3.6-8-8-8H38.4c-4.4 0-8 3.6-8 8s3.6 8 8 8h112.8c4.5 0 8-3.6 8-8zm-128.8-48.6c0-5 4.1-9 9-9s9 4.1 9 9-4.1 9-9 9-9-4-9-9zm30 0c0-5 4.1-9 9-9s9 4.1 9 9-4.1 9-9 9-9-4-9-9zm30 0c0-5 4.1-9 9-9s9 4.1 9 9-4.1 9-9 9-9-4-9-9zm387-20.801l-57.8-57.8 57.8-57.8v115.6zM87 33.2V11.4h56.9v21.8H87zM10.1 143.4h21.8V86.5H10.1v56.9zm58.7-132H10.1v56.9h21.8V33.2h36.9V11.4z" fill="#000"/></svg>