<svg width="512" height="512" viewBox="0 0 512 512" fill="none" xmlns="http://www.w3.org/2000/svg"><path opacity=".25" d="M269.6 480.301h-35.3l11.5-32.5-22.8-21.3 11-19.3-50.4-22.8v-35.2l67.9 30.7 47-21.2 20.9-9.4v29.2c4.8 3 10.5 6 17.3 8.9 47.4 20.7 76.6 34.5 81.8 93H269.6v-.1z" fill="#000"/><path opacity=".25" d="M251.3 154.501s-3.1-6.6 0-8.3c3.1-1.7 83.9 9.4 83.9 9.4s8.3 50 0 120.1c-1.3 10.6-4.1 19.9-7.9 28.1h-44.8c0-10.9-8.9-19.8-19.8-19.8-4.2 0-8.2 1.4-11.4 3.7v-133.2zm62.9 169h-51.5c-4.2 0-8.2-1.4-11.4-3.7v35.7c-18.8-1.3-36.3-6.4-36.3-6.4l2.7 8.9H215l36.6 21.8 34-13.6s22-28.8 0-15.9c-6.6 3.9-15.5 5.3-24.9 5.4 12.8-3.6 36.2-12.7 53.5-32.2z" fill="#000"/><path d="M425.3 449.4c-7.5-19.5-24.4-45.9-62-61.1-14.3-5.8-26.4-11.6-35.8-17.3v-21.9c0-2.7-1.4-5.2-3.7-6.7-2.3-1.5-5.2-1.7-7.6-.6l-3.3 1.5c4.2-3.5 8.2-7.5 11.8-11.8h7.2c24.5 0 37.7-19.4 37.7-37.7v-3c9.7-2.8 19.8-10.8 19.8-26.6v-59.3c0-20.4-16.6-27.8-27.8-27.8h-11.3V147c0-2.6-1.3-5.1-3.5-6.6s-4.9-1.8-7.4-.9c-15.1 5.8-30 2.1-45.7-1.9-20.9-5.2-44.6-11.1-69.7 6.7-3.6 2.6-4.5 7.6-1.9 11.2 2.6 3.6 7.5 4.5 11.2 1.9 19.1-13.6 36.5-9.2 56.6-4.2 14.2 3.6 28.9 7.2 44.5 4.3v24.8c-.3.9-.5 1.8-.5 2.8 0 1 .2 1.9.5 2.8V269c0 6.7-1.1 13.3-3.4 19.5-.3.9-2 3.8-2.9 5.6-.3.5-.6 1-.9 1.6h-37.8c-3.4-11.4-14.1-19.8-26.6-19.8-15.3 0-27.8 12.5-27.8 27.8s12.5 27.8 27.8 27.8h39.5c-13 10.7-28.7 16.2-46.8 16.2-46.3 0-67-34.3-75.2-54.7-2.7-6.7-4.1-13.9-4.1-21.3v-114c0-16 9.5-27.6 17.5-34.4 17.8-15.4 45.1-22.5 71-18.6 9 1.3 17.2 3.7 25.2 5.9 19.3 5.5 39.2 11.1 65 .4 4.1-1.7 6-6.4 4.3-10.5-1.7-4.1-6.4-6-10.5-4.3-20.6 8.6-35.5 4.3-54.5-1-8.5-2.4-17.2-4.9-27.2-6.4-30.4-4.6-62.6 4-83.8 22.3-14.9 12.8-23.1 29.3-23.1 46.6v114c0 9.5 1.8 18.6 5.2 27.2 4.5 11.2 12.9 27.5 27.3 40.8 4.9 4.6 10.2 8.5 15.8 11.8l-21.4-9.7c-2.5-1.1-5.4-.9-7.6.6-2.3 1.5-3.7 4-3.7 6.7V376c-7.8 4.1-16.8 8.2-27 12.4-37.6 15.2-54.4 41.6-62 61.1-8.2 21.1-7.4 38.6-7.4 39.4.2 4.3 3.7 7.6 8 7.6h.4c4.4-.2 7.8-4 7.6-8.4 0-.6-2.2-60 59.4-84.9 9.5-3.8 18.1-7.7 25.7-11.6h.1l42.4 19.1-6.7 11.7c-1.8 3.2-1.2 7.3 1.5 9.8l18.9 17.7-9.8 27.6c-.3.9-.5 1.9-.5 2.8H113.5c-4.4 0-8 3.6-8 8s3.6 8 8 8h311.2c4.3 0 7.8-3.3 8-7.6.1-.6.8-18.2-7.4-39.3zM250.9 303.7c0-6.5 5.3-11.8 11.8-11.8 6.5 0 11.8 5.3 11.8 11.8 0 4.4 3.6 8 8 8H332c.3 0 .6 0 .9-.1h.3c.3 0 .6-.1.8-.2h.1c.3-.1.7-.2 1-.4.1 0 .1-.1.2-.1.3-.1.5-.3.8-.4.1 0 .1-.1.2-.1.3-.2.5-.4.8-.6l.2-.2.6-.6.2-.2c.2-.3.4-.5.6-.8 0-.1.1-.1.1-.2.2-.3.3-.6.5-.9v-.1c.5-1.1 1.7-3.2 2.7-5 2-3.6 3.3-6 4-8 2.9-8 4.4-16.4 4.4-25v-76h11.2s3.5.1 6.7 1.8c2.4 1.3 5.1 3.6 5.1 10v59.3c0 6.4-2.7 8.7-5.1 10-3.2 1.7-6.7 1.8-6.7 1.8-4.4 0-8 3.6-8 8v9.9c0 7.5-4.5 21.7-21.7 21.7h-69.2c-6.5.2-11.8-5.1-11.8-11.6zm16.5 95.4h-7.8V385l51.9-23.4v17.7l-44.1 19.8zm-12-35.5c5.2 0 10.2-.4 15.1-1.2l-18.9 8.5L225 359c9.4 3.1 19.6 4.6 30.4 4.6zm-63.7-2.1l51.9 23.4V399h-7.8l-44.1-19.9v-17.6zm47.1 53.6h25.7l5.6 9.8-18 16.8-.5.4-18.4-17.3 5.6-9.7zm11 45.8c.3.1.5.1.8.1h1.3c.3 0 .6 0 .8-.1h.2c.3-.1.6-.1 1-.2l4.2 11.5h-12.5l4-11.4c.1.1.2.1.2.1zm27.8 19.5c0-1-.1-2-.5-2.9l-10.2-27.7 18.7-17.5c2.7-2.5 3.3-6.6 1.5-9.8l-6.7-11.7 42.4-19.1c1.4-.6 2.6-1.7 3.4-2.9 8.9 4.8 19.3 9.7 31.2 14.5 25.7 10.4 43.4 27.7 52.8 51.4 4.1 10.3 5.6 19.6 6.2 25.8H277.6v-.1z" fill="#000"/><path opacity=".25" d="M479.8 154.8v34.7h-34.7v-34.7h34.7zm-34.7-55.2v34.7h34.7V99.6h-34.7zm34.7-55.3V79h-34.7V44.3h34.7zM42.6 72.8c0-4.4 3.6-8 8-8h15.8V49.1c0-4.4 3.6-8 8-8s8 3.6 8 8v15.8h15.8c4.4 0 8 3.6 8 8s-3.6 8-8 8H82.4v15.8c0 4.4-3.6 8-8 8s-8-3.6-8-8V80.8H50.6c-4.4 0-8-3.5-8-8zm34.1 217.6c-4.4 0-8 3.6-8 8 0 11.4-9.3 20.8-20.8 20.8-4.4 0-8 3.6-8 8s3.6 8 8 8c20.3 0 36.8-16.5 36.8-36.8 0-4.4-3.6-8-8-8zm50 28.7c-11.4 0-20.8-9.3-20.8-20.8 0-4.4-3.6-8-8-8s-8 3.6-8 8c0 20.3 16.5 36.8 36.8 36.8 4.4 0 8-3.6 8-8s-3.6-8-8-8zm0 21.3c-20.3 0-36.8 16.5-36.8 36.8 0 4.4 3.6 8 8 8s8-3.6 8-8c0-11.4 9.3-20.8 20.8-20.8 4.4 0 8-3.6 8-8s-3.6-8-8-8zm-78.8 0c-4.4 0-8 3.6-8 8s3.6 8 8 8c11.4 0 20.8 9.3 20.8 20.8 0 4.4 3.6 8 8 8s8-3.6 8-8c0-20.3-16.5-36.8-36.8-36.8zM433 328.5c5.9 0 10.8-4.8 10.8-10.8 0-6-4.9-10.7-10.8-10.7s-10.8 4.8-10.8 10.8c0 6 4.9 10.7 10.8 10.7zM402.8 66c4.4 0 8-3.6 8-8s-3.6-8-8-8h-3.9v-3.9c0-4.4-3.6-8-8-8s-8 3.6-8 8V50H379c-4.4 0-8 3.6-8 8s3.6 8 8 8h3.9v3.9c0 4.4 3.6 8 8 8s8-3.6 8-8V66h3.9zm-267.7 87.1H61.3c-4.4 0-8 3.6-8 8s3.6 8 8 8h73.8c4.4 0 8-3.6 8-8s-3.6-8-8-8zm348.4 212.2h-73.8c-4.4 0-8 3.6-8 8s3.6 8 8 8h73.8c4.4 0 8-3.6 8-8s-3.6-8-8-8z" fill="#000"/></svg>