<svg width="512" height="512" viewBox="0 0 512 512" fill="none" xmlns="http://www.w3.org/2000/svg"><path opacity=".25" d="M442.3 256.3c0 99.4-80.6 179.9-179.9 179.9-95.9 0-174.3-75.1-179.7-169.7 8.6-2.9 21.3-2.3 25.5 7.8 24 58 66.5 100.6 126.3 110 50.9 8 103.3-27.9 119.8-46.7 47.4-54.4 43.1-164.9-89.8-215.4-20.3-7.7-7.9-40.9 13.8-41h.7c13.3 0 26.3 1.3 38.8 3.8 72.2 23.4 124.5 91.2 124.5 171.3zm2.5-178.8l-39.5 33.2h47.8l34.7-33.2h-43zm-370.5-26c0-14.6-11.8-26.4-26.4-26.4-14.6 0-26.4 11.9-26.4 26.4 0 14.5 11.8 26.4 26.4 26.4 14.6 0 26.4-11.8 26.4-26.4zM47.9 61.9c-5.7 0-10.4-4.7-10.4-10.4s4.7-10.4 10.4-10.4 10.4 4.7 10.4 10.4-4.6 10.4-10.4 10.4zm431.2 384.7c0 4.4-3.6 8-8 8h-55.8c-4.4 0-8-3.6-8-8s3.6-8 8-8h55.8c4.4 0 8 3.6 8 8zM89.2 462.1c0 4.4-3.6 8-8 8h-3.9v3.9c0 4.4-3.6 8-8 8s-8-3.6-8-8v-3.9h-3.9c-4.4 0-8-3.6-8-8s3.6-8 8-8h3.9v-3.9c0-4.4 3.6-8 8-8s8 3.6 8 8v3.9h3.9c4.5 0 8 3.6 8 8zm335.7 15.4c0 4.4-3.6 8-8 8H272c-4.4 0-8-3.6-8-8s3.6-8 8-8h144.9c4.5 0 8 3.6 8 8z" fill="#000"/><path d="M491.3 67.3h-39.6V27.7c0-2.5-1.1-4.6-2.8-6.1-.3-.4-.6-.8-1-1.2-3.1-3.1-8.2-3.1-11.3 0L400 57.3c-2.6 1.3-4.4 4-4.4 7.1v44.9l-7.6 7.9c-33.4-29.7-77.4-47.7-125.5-47.7-104.4 0-189.2 84.9-189.2 189.2 0 104.4 84.9 189.2 189.2 189.2 104.4 0 189.2-84.9 189.2-189.2 0-50.5-19.9-96.4-52.2-130.4l8-8.3h43.6c1.8 0 3.4-.6 4.8-1.6 1.4-.3 2.8-1 3.9-2.2l11.3-11.5c3.1-3.1 3.1-8.2-.1-11.3-3.1-3.1-8.2-3.1-11.3.1L449.4 104h-37.8V68.4l24.2-24.3v31.2c0 4.4 3.6 8 8 8h47.6c4.4 0 8-3.6 8-8s-3.7-8-8.1-8zm-55.6 191.4c0 95.5-77.7 173.2-173.2 173.2-95.5.1-173.3-77.7-173.3-173.2 0-95.5 77.8-173.2 173.3-173.2 43.8 0 83.8 16.3 114.4 43.2l-34 35.2c-21.7-18.4-49.8-29.6-80.4-29.6-68.6 0-124.4 55.8-124.4 124.4 0 68.6 55.8 124.4 124.4 124.4 68.6 0 124.4-55.8 124.4-124.4 0-32.2-12.3-61.6-32.5-83.7l34-35.2c29.3 31.1 47.3 72.9 47.3 118.9zm-124.7 0c0 26.8-21.8 48.5-48.5 48.5S214 285.4 214 258.7s21.8-48.5 48.5-48.5c10.2 0 19.7 3.2 27.5 8.6l-33.2 34.4c-3.1 3.2-3 8.2.2 11.3 1.6 1.5 3.6 2.2 5.6 2.2 2.1 0 4.2-.8 5.8-2.4l33.2-34.4c5.9 8 9.4 18 9.4 28.8zm-9.8-51.6c-10.8-8.1-24.2-12.9-38.7-12.9-35.6 0-64.5 29-64.5 64.5s29 64.5 64.5 64.5c35.6 0 64.5-29 64.5-64.5 0-15.3-5.4-29.4-14.3-40.5l30.6-31.7c17.2 19.2 27.6 44.5 27.6 72.2 0 59.8-48.6 108.4-108.4 108.4-59.8 0-108.4-48.6-108.4-108.4 0-59.8 48.6-108.4 108.4-108.4 26.3 0 50.5 9.4 69.3 25.1l-30.6 31.7z" fill="#000"/></svg>