<svg width="512" height="512" viewBox="0 0 512 512" fill="none" xmlns="http://www.w3.org/2000/svg"><path opacity=".25" d="M338.2 343.399l-6.7 26.7 57.8 57.8c-11.9 6.5-25.6 10.3-40.2 10.3-46.2 0-83.9-37.6-83.9-83.9v-.2c0-8.3 7.6-14.3 15.8-12.9 10.2 1.8 22-4.4 23.3-29.3 2-38.1 44.8-41.5 44.8-41.5 46.2 0 83.9 37.6 83.9 83.9 0 14.6-3.7 28.3-10.3 40.2l-57.8-57.8-26.7 6.7zm-67.2-55.4c-8.1-8.1-21.1-8.6-29.7-1.1l-125.5 108.5c-11.5 9.9-9.8 28.3 3.3 35.8 18.8 10.8 46 17.4 70-11.3 41.9-50 57.9-66.7 71.3-97.9l13.4-31.2-2.8-2.8zm148.7-167.9l-5.3-3.4-52.2 51.4 21.7 23.6 35.8-71.6z" fill="#000"/><path d="M71 167.999c0-15.4 3.9-30.6 11.2-44 1.2-2.2 3.4-3.7 5.9-4.1 2.5-.4 5 .5 6.8 2.3l54.6 54.6 17.7-4.4 4.4-17.7-54.6-54.6c-1.8-1.8-2.6-4.3-2.3-6.8.4-2.5 1.9-4.7 4.1-5.9 13.4-7.4 28.7-11.2 44-11.2 50.6 0 91.9 41.2 91.9 91.9 0 6.2-.7 12.4-2 18.8l14.3 14.3c3.1 3.1 3.1 8.2 0 11.3-3.1 3.1-8.2 3.1-11.3 0l-17.5-17.5c-2-2-2.8-4.9-2.1-7.7 1.7-6.5 2.6-13 2.6-19.2 0-41.8-34-75.9-75.9-75.9-9 0-18 1.6-26.4 4.7l49.7 49.7c2 2 2.8 4.9 2.1 7.6l-6.7 26.7c-.7 2.9-3 5.1-5.8 5.8l-26.7 6.7c-2.7.7-5.6-.1-7.6-2.1l-49.7-49.7c-3.1 8.4-4.7 17.4-4.7 26.4 0 41.8 34 75.9 75.9 75.9 4.4 0 8 3.6 8 8s-3.6 8-8 8c-50.7 0-91.9-41.2-91.9-91.9zm278.2 94.5c-4.4 0-8 3.6-8 8s3.6 8 8 8c41.8 0 75.9 34 75.9 75.9 0 9-1.6 18-4.7 26.4l-49.7-49.7c-2-2-4.9-2.8-7.6-2.1l-26.7 6.7c-2.9.7-5.1 3-5.8 5.8l-6.7 26.7c-.7 2.7.1 5.6 2.1 7.6l49.7 49.7c-8.4 3.1-17.4 4.7-26.4 4.7-41.8 0-75.9-34-75.9-75.9 0-4.4-3.6-8-8-8s-8 3.6-8 8c0 50.6 41.2 91.9 91.9 91.9 15.4 0 30.6-3.9 44-11.2 2.2-1.2 3.7-3.4 4.1-5.9.4-2.5-.5-5-2.3-6.8l-54.6-54.6 4.4-17.7 17.7-4.4 54.6 54.6c1.8 1.8 4.3 2.6 6.8 2.3 2.5-.4 4.7-1.9 5.9-4.1 7.4-13.4 11.2-28.7 11.2-44-.1-50.7-41.3-91.9-91.9-91.9zm-67.7 30.8c.9-2.9.2-6-2-8.1l-11.5-11.6 24.5-24.5 29.1 29.1c1.6 1.6 3.6 2.3 5.7 2.3s4.1-.8 5.7-2.3c3.1-3.1 3.1-8.2 0-11.3l-29.1-29.1 58.5-58.5 16.7 16.6c1.8 1.8 4.4 2.6 6.9 2.2 2.5-.4 4.7-2 5.9-4.3l35.1-70.2c1.5-3.1.9-6.8-1.5-9.2l-22.6-22.6c-2.4-2.4-6.2-3-9.2-1.5l-70.3 35.1c-2.3 1.1-3.9 3.3-4.3 5.9-.4 2.5.4 5.1 2.2 6.9l16.7 16.7-94.2 94.2-11.8-11.6c-2.2-2.2-5.3-2.9-8.2-1.9l-5.5 1.9c-11.6 3.9-30.4 13.4-49.2 24.9-2.1 1.3-3.5 3.4-3.8 5.9-.3 2.5.6 4.9 2.3 6.6l61.3 61.3c3.1 3.1 8.2 3.1 11.3 0 3.1-3.1 3.1-8.2 0-11.3l-54-54c17.1-9.9 30.2-15.8 37.2-18.2l.8-.3 13.7 13.8c1.5 1.5 3.5 2.4 5.7 2.4 2.1 0 4.2-.8 5.7-2.3l105.5-105.5c1.5-1.5 2.3-3.5 2.3-5.7 0-2.1-.8-4.2-2.3-5.7l-14.5-14.5 55.3-27.6 14.5 14.5-27.6 55.2-14.5-14.5c-3.1-3.1-8.2-3.1-11.3 0L251 267.999c-1.5 1.5-2.3 3.5-2.3 5.7s.8 4.2 2.3 5.7l13.8 13.8-.2.8c-7.2 21.5-39.5 79.2-78.3 117.9-10.6 10.7-22.2 16.7-34.5 17.8h-.1c-2.6.3-5.5.3-8.8 0-4.1-.4-8.2-1.2-12.3-2.6-14.9-5-25.2-15.1-25.3-15.2-.1-.1-.3-.2-.4-.4-.6-.7-1.6-1.8-2.8-3.4-.1-.1-.1-.2-.2-.2-1-1.2-2.2-2.8-3.5-4.7-5-7.5-11-19.4-11-33.2 0-14 6-27.1 17.9-39 18.8-18.8 40.9-34.8 56.1-44.8 3.7-2.4 4.7-7.4 2.3-11.1-2.4-3.7-7.4-4.7-11.1-2.3-15.8 10.5-38.9 27.1-58.6 46.9-15 15-22.6 31.9-22.6 50.3 0 17.8 7.5 32.7 13.8 42.2 1.6 2.3 3 4.2 4.3 5.8 1.6 2.1 3 3.7 3.7 4.4l.1.2c.4.6 1 1.1 1.5 1.5 3.2 3 14.5 12.9 30.7 18.3 5.2 1.8 10.6 2.9 15.9 3.4 2.1.2 4.2.3 6.1.3 2 0 3.9-.1 5.7-.3 16.1-1.5 31-9 44.3-22.4 40.6-40.5 74.5-101.4 82.2-124.2l1.8-5.9z" fill="#000"/><path opacity=".25" d="M288.1 26.4c0 20.3-16.5 36.8-36.8 36.8-4.4 0-8-3.6-8-8s3.6-8 8-8c11.4 0 20.8-9.3 20.8-20.8 0-4.4 3.6-8 8-8s8 3.6 8 8zm42 20.7c-11.4 0-20.8-9.3-20.8-20.8 0-4.4-3.6-8-8-8s-8 3.6-8 8c0 20.3 16.5 36.8 36.8 36.8 4.4 0 8-3.6 8-8s-3.6-8-8-8zm0 21.3c-20.3 0-36.8 16.5-36.8 36.801 0 4.4 3.6 8 8 8s8-3.6 8-8c0-11.4 9.3-20.8 20.8-20.8 4.4 0 8-3.6 8-8s-3.6-8-8-8zm-78.7 0c-4.4 0-8 3.6-8 8s3.6 8 8 8c11.4 0 20.8 9.3 20.8 20.801 0 4.4 3.6 8 8 8s8-3.6 8-8c-.1-20.3-16.6-36.8-36.8-36.8zm224.2 135.601h-15.8v-15.8c0-4.4-3.6-8-8-8s-8 3.6-8 8v15.8H428c-4.4 0-8 3.6-8 8s3.6 8 8 8h15.8v15.8c0 4.4 3.6 8 8 8s8-3.6 8-8v-15.8h15.8c4.4 0 8-3.6 8-8s-3.5-8-8-8zm-17.1 233.2h-3.9v-3.9c0-4.4-3.6-8-8-8s-8 3.6-8 8v3.9h-3.9c-4.4 0-8 3.6-8 8s3.6 8 8 8h3.9v3.9c0 4.4 3.6 8 8 8s8-3.6 8-8v-3.9h3.9c4.4 0 8-3.6 8-8s-3.6-8-8-8zm-396.8-177.6h-3.9v-3.9c0-4.4-3.6-8-8-8s-8 3.6-8 8v3.9H38c-4.4 0-8 3.6-8 8s3.6 8 8 8h3.9v3.9c0 4.4 3.6 8 8 8s8-3.6 8-8v-3.9h3.9c4.4 0 8-3.6 8-8s-3.6-8-8.1-8zM53.9 61.8H19.3V27.2H54v34.6h-.1zm55.3-34.6H74.5v34.7h34.7V27.2zm368 132.401H499v-56.9h-21.8v56.9zM367 25.801v21.8h56.9V25.8H367zm132-.001v58.7h-21.8V47.6h-35.1V25.8H499zM21.4 475.102v12.9h237.1v-12.9H21.4z" fill="#000"/></svg>