<svg width="512" height="512" viewBox="0 0 512 512" fill="none" xmlns="http://www.w3.org/2000/svg"><path opacity=".25" d="M497 149v220.5H58.5c-11.6 0-21-9.4-21-21V170.4c0-11.8 9.6-21.4 21.4-21.4h345.9l-15.3 15.3-35.7 35.7-116.3 116.3c-10.8 10.8-16 23.9-18.5 41.5 17.6-2.5 31.8-8.9 42.6-19.6L450.8 149H497zm-25.2-99.4c0 4.4-3.6 8-8 8H460v3.9c0 4.4-3.6 8-8 8s-8-3.6-8-8v-3.9h-3.9c-4.4 0-8-3.6-8-8s3.6-8 8-8h3.9v-3.9c0-4.4 3.6-8 8-8s8 3.6 8 8v3.9h3.9c4.4 0 7.9 3.6 7.9 8zm-393.4-8h-3.9v-3.9c0-4.4-3.6-8-8-8s-8 3.6-8 8v3.9h-3.9c-4.4 0-8 3.6-8 8s3.6 8 8 8h3.9v3.9c0 4.4 3.6 8 8 8s8-3.6 8-8v-3.9h3.9c4.4 0 8-3.6 8-8s-3.6-8-8-8zm78-25.4c-5.9 0-10.8 4.8-10.8 10.8 0 6 4.8 10.8 10.8 10.8 6 0 10.8-4.8 10.8-10.8 0-6-4.9-10.8-10.8-10.8zm220.5 29.3h-97.2c-4.4 0-8 3.6-8 8s3.6 8 8 8h97.2c4.4 0 8-3.6 8-8s-3.6-8-8-8z" fill="#000"/><path d="M476.2 234.5c0 4.4-3.6 8-8 8h-63.9c-4.4 0-8-3.6-8-8s3.6-8 8-8h63.9c4.5 0 8 3.6 8 8zm26.5-139.4c-4.4 0-8 3.6-8 8v258.3H386.1c-4.4 0-8 3.6-8 8s3.6 8 8 8h108.6V426H258.1c-4.4 0-8 3.6-8 8 0 .5.1 1 .1 1.5-.1.5-.1 1-.1 1.5v38.8H68c-4.4 0-8 3.6-8 8s3.6 8 8 8h376.5c4.4 0 8-3.6 8-8s-3.6-8-8-8H266.1V442h228.6c8.8 0 16-7.2 16-16V103.1c0-4.4-3.6-8-8-8zM48.4 391.2c5 0 9 4.1 9 9s-4.1 9-9 9-9-4.1-9-9 4-9 9-9zm30 0c5 0 9 4.1 9 9s-4.1 9-9 9-9-4.1-9-9 4-9 9-9zm30 0c5 0 9 4.1 9 9s-4.1 9-9 9-9-4.1-9-9 4-9 9-9zM232.3 434c0-4.4-3.6-8-8-8H17.8V111.1h454.7c4.4 0 8-3.6 8-8s-3.6-8-8-8H17.8c-8.8 0-16 7.2-16 16V426c0 8.8 7.2 16 16 16h206.5c4.4 0 8-3.6 8-8zm235.9-154.1h-63.9c-4.4 0-8 3.6-8 8s3.6 8 8 8h63.9c4.4 0 8-3.6 8-8s-3.5-8-8-8zM66 226.5c-4.4 0-8 3.6-8 8s3.6 8 8 8h61.8c4.4 0 8-3.6 8-8V189h229l16-16H66c-4.4 0-8 3.6-8 8s3.6 8 8 8h53.8v37.4H66v.1zm0 69.4h175.2c4.4 0 8-3.6 8-8s-3.6-8-8-8H66c-4.4 0-8 3.6-8 8s3.6 8 8 8zM468.2 173H438l21-21c5.5-5.5 7-20.3-3.2-30.9-4.4-4.5-11.5-7.4-18.4-7.4-5.5-.1-10.4 1.8-13.7 5.2L384 158.6c-3.1 3.1-3.1 8.2 0 11.3 3.1 3.1 8.2 3.1 11.3 0l39.7-39.7c.1-.1.8-.5 2.3-.5 2.8 0 5.8 1.3 7 2.6 3.5 3.6 3.1 7.7 2.8 8.9L255.9 332.5c-7.1 7.1-15.9 12.1-26.8 15.1 2.8-10.8 7.2-18.8 14-25.6l116.4-116.4c3.1-3.1 3.1-8.2 0-11.3-3.1-3.1-8.2-3.1-11.3 0L231.9 310.7c-6.5 6.5-11.4 13.9-14.9 22.7H66c-4.4 0-8 3.6-8 8s3.6 8 8 8h146.3c-.5 2.4-.9 4.8-1.2 7.3-.4 2.5.5 5 2.3 6.8 1.5 1.5 3.6 2.3 5.7 2.3.4 0 .7 0 1.1-.1 19.5-2.8 35.4-10.1 47.1-21.9L422 189h46.2c4.4 0 8-3.6 8-8s-3.5-8-8-8z" fill="#000"/></svg>