<svg width="120" height="21" viewBox="0 0 120 21" fill="none" xmlns="http://www.w3.org/2000/svg"><path d="M46.839 2.324a1.811 1.811 0 113.62 0 1.815 1.815 0 01-1.814 1.815 1.811 1.811 0 01-1.806-1.815zm-29.713 2.63c3.311 0 5.715 2.377 5.715 5.65 0 3.274-2.404 5.65-5.715 5.65-3.299 0-5.693-2.376-5.693-5.65 0-3.273 2.395-5.65 5.693-5.65zm0 8.658c1.591 0 2.664-1.21 2.664-3.007 0-1.77-1.096-3.007-2.664-3.007-1.56 0-2.643 1.238-2.643 3.007 0 1.77 1.084 3.007 2.643 3.007zm26.206-2.725l1.185 2.245 1.787 2.956h-2.4c-.904 0-1.385-.151-1.867-1.036l-1.728-3.26c-.111-.194-.354-.236-.711-.236h-.293v4.532h-3.132L36.171.982h1.475c.861 0 1.659.174 1.659 1.454v6.4h.498c.374 0 .624-.092.748-.274l2.187-3.385h3.534l-2.91 4.328a4.61 4.61 0 01-.456.568l-.105.1.1.107a2.7 2.7 0 01.431.607zm15.201-5.956h.001c2.546 0 3.89 1.457 3.89 4.214l.005 6.939h-1.48c-1.13 0-1.653-.529-1.653-1.659V9.673c0-1.323-.38-1.836-1.35-1.836-1.207 0-2.173.733-2.519 1.91-.13.39-.194.817-.194 1.308v5.029h-3.11l-.008-10.91h1.403c.848 0 1.412.352 1.58.993l.067.262.19-.193c.57-.598 1.586-1.305 3.178-1.305zm-9.846.247c1.104 0 1.637.54 1.637 1.657l-.006 9.247h-.005v.005h-.73l-.732.002-.056-.002h-1.573v-2.473l-.01-8.436h1.475zm-19.345-.223c3.307 0 5.715 2.376 5.715 5.65 0 3.273-2.408 5.65-5.715 5.65-3.302 0-5.697-2.377-5.697-5.65 0-3.274 2.395-5.65 5.697-5.65zm0 8.657c1.59 0 2.663-1.21 2.663-3.007 0-1.77-1.098-3.007-2.663-3.007-1.56 0-2.645 1.238-2.645 3.007 0 1.77 1.086 3.007 2.645 3.007zM72.737 5.15h1.445l-.011 10.006c0 3.815-3.093 5.171-5.741 5.171-1.287 0-2.71-.346-3.804-.926l-.216-.116.35-.892.246-.61c.268-.662.654-.827 1.314-.628a6.284 6.284 0 002.092.385c1.708 0 2.65-.804 2.65-2.26v-.304l-.24.18c-.62.47-1.402.7-2.392.7-2.899 0-4.925-2.268-4.925-5.514 0-3.25 1.958-5.435 4.866-5.435 1.462 0 2.362.515 2.864.95l.144.125.086-.167c.227-.43.682-.665 1.272-.665zm-3.755 7.983c.975 0 2.14-.48 2.14-2.77 0-2.429-1.316-2.712-2.303-2.712-1.988 0-2.143 1.996-2.143 2.609 0 1.39.606 2.873 2.306 2.873zM8.777 8.343c1.11.625 1.772 1.855 1.772 3.293 0 2.672-2.046 4.397-5.214 4.397H.116V2.556c.01-.85.686-1.538 1.531-1.569h.37v.001H5.27c2.85 0 4.692 1.533 4.692 3.907 0 1.552-.778 2.45-1.243 2.85l-.4.34.458.258zm-3.233 5.144c1.252 0 2.028-.765 2.03-2.055-.002-1.257-.798-2.035-2.03-2.035H3.817c-.554.078-.805.414-.805 1.061v3.027l2.532.002zM3.012 5.322V7.07h2.279c1.28 0 1.736-.99 1.736-1.837 0-1.113-.666-1.778-1.777-1.778H3.955c-.648.043-.943.375-.943 1.072v.796z" fill="#fff"/><path fill-rule="evenodd" clip-rule="evenodd" d="M75.403 14.397c0-1.004.81-1.816 1.807-1.816a1.815 1.815 0 010 3.63 1.812 1.812 0 01-1.807-1.814zm40.209-9.431h-.001c2.401 0 3.622 1.406 3.622 4.178l-.003 6.938h-1.398c-1.097 0-1.587-.49-1.587-1.589V9.64c0-1.39-.338-1.908-1.252-1.908-1.264 0-2.077 1.134-2.318 2.24-.118.395-.168.788-.168 1.314v4.797h-2.991V9.64c0-1.205-.394-1.83-1.202-1.907-1.309-.124-2.088 1.122-2.372 2.282-.106.434-.158.85-.158 1.27v4.798h-2.97l.013-10.868h1.307c.815 0 1.353.333 1.518.937l.113.42.295-.32c.45-.479 1.42-1.285 2.865-1.285 1.379 0 2.37.533 2.946 1.583l.177.32.225-.286a4.288 4.288 0 013.339-1.617zm-19.608-.011c3.308 0 5.715 2.376 5.715 5.65 0 3.273-2.407 5.65-5.715 5.65-3.301 0-5.696-2.377-5.696-5.65 0-3.274 2.395-5.65 5.696-5.65zm0 8.657c1.591 0 2.664-1.21 2.664-3.007 0-1.77-1.099-3.007-2.664-3.007-1.558 0-2.645 1.238-2.645 3.007 0 1.77 1.087 3.007 2.645 3.007zM88.59 12.31l.17-.18 1.288 2.137-.086.105c-.015.02-1.618 1.957-4.567 1.957-3.398 0-5.863-2.387-5.863-5.679 0-3.292 2.492-5.683 5.926-5.683 1.606 0 3.993.68 3.993 2.556v1.423l-1.628-.002c-.136 0-.829-.04-1.058-.803l-.014-.057c-.1-.337-.735-.537-1.293-.537-1.719 0-2.92 1.268-2.92 3.08 0 2.1 1.55 3.041 3.082 3.041 1.683 0 2.961-1.348 2.97-1.358z" fill="#fff"/></svg>