<svg width="116" height="35" viewBox="0 0 116 35" fill="none" xmlns="http://www.w3.org/2000/svg"><path fill-rule="evenodd" clip-rule="evenodd" d="M53.694 26.813h3.693c.023 0 .035 0 .058-.023 0-.012 0-.035-.012-.047l-5.024-6.17 4.382-5.27.006-.01c.009-.017.015-.028.005-.047a.089.089 0 00-.046-.024h-3.003c-.012 0-.024.012-.035.024l-2.84 3.458-2.792-3.459c-.012-.011-.024-.023-.035-.023h-3.693c-.011 0-.023.012-.035.024 0 .023 0 .034.012.058l4.627 5.69-4.686 5.75c-.011.01-.011.034-.011.046.011.012.023.023.046.023h2.957c.011 0 .023 0 .035-.011l3.178-3.88 3.178 3.88c.012.011.012.011.035.011zm20.589-6.847c.327-1.718 1.437-2.71 3.073-2.71 1.472 0 2.489 1.226 2.489 2.593v.117h-5.562zm8.424 1.776a24.28 24.28 0 00.094-1.694c0-3.073-2.127-5.305-5.445-5.305-3.634 0-6.275 2.652-6.275 6.298s2.64 6.298 6.275 6.298c1.402 0 3.19-.514 4.966-1.262.012 0 .023-.012.023-.035v-2.594c0-.035-.035-.07-.07-.047-1.904 1.017-3.26 1.45-4.534 1.45-2.068 0-3.341-1.122-3.517-3.085h8.448c.012 0 .024-.012.035-.024zM97.98 10.97c0 1.016.842 1.846 1.882 1.846s1.881-.83 1.881-1.846a1.892 1.892 0 00-1.881-1.905c-1.04 0-1.882.853-1.882 1.905zm.316 15.798c0 .035.012.046.047.046h3.026c.023 0 .047-.011.047-.046v-11.51c0-.023-.012-.047-.035-.047h-3.05c-.023 0-.035.024-.035.047v11.51zM61.209 24.84c.654.163 1.215.245 1.764.245 2.337 0 3.844-1.613 3.844-4.101 0-2.326-1.414-3.88-3.529-3.88-.654 0-1.308.105-2.068.35l-.011 7.386zm-.047-9.629c.911-.315 1.776-.467 2.64-.467 3.658 0 6.217 2.57 6.217 6.251 0 3.856-2.688 6.345-6.847 6.345-.596 0-1.216-.07-1.963-.175V32.9a7.154 7.154 0 01-3.132 1.227v-18.87a.05.05 0 01.047-.048h3.038zm29.036 9.652c.795 0 1.648-.234 2.594-.736v-6.59c-.724-.328-1.32-.48-1.94-.48-2.231 0-3.668 1.671-3.668 4.242 0 2.232 1.133 3.564 3.014 3.564zm2.594-9.722V9.123a6.911 6.911 0 013.132-1.239v18.38a6.943 6.943 0 01-2.734 1.169v-1.04c-1.262.642-2.337.934-3.482.934-3.319 0-5.726-2.617-5.726-6.216 0-3.622 2.723-6.345 6.345-6.345.795 0 1.577.117 2.465.374zm16.791 9.745c.701 0 1.484-.257 2.407-.783v-6.356c-.841-.444-1.53-.666-2.091-.666-2.115 0-3.541 1.706-3.541 4.242 0 2.231 1.204 3.563 3.225 3.563zm5.41-9.943a.13.13 0 01.129.128v11.194c-.9.655-1.858.993-2.664 1.169V25.95c-1.145 1.308-2.372 1.378-3.319 1.378-3.563 0-5.959-2.453-5.959-6.11 0-3.623 2.676-6.45 6.088-6.45.946 0 1.928.221 3.061.724h.059v-.42c0-.07.07-.13.14-.13h2.465zM43.529 23.94h-7.653v-5.772h6.508a.05.05 0 00.047-.047V15.27a.05.05 0 00-.047-.047h-6.508V11.11h6.567a6.99 6.99 0 001.075-2.898h-9.01c-.969 0-1.775.76-1.869 1.718 0 .006-.003.012-.005.017a.043.043 0 00-.006.018v15.097c0 .013.004.023.007.031.002.006.004.01.004.015.094.947.9 1.706 1.87 1.706h7.957a7.034 7.034 0 001.063-2.874zM.456 16.352l11.43-3.97 4.522-1.296-.549-1.566-1.171-1.567-3.538-4.72.008-.001-.008-.01.841-.21 8.121 7.022 4.78-1.367c.558-.151 1.187-.175 1.677-.175a13.714 13.714 0 00-7.87-7.175C11.535-1.242 3.648 2.51 1.1 9.684a13.717 13.717 0 00-.645 6.668zm.12.716c.946 4.557 4.17 8.542 8.88 10.213 7.174 2.559 15.05-1.192 17.609-8.366a13.728 13.728 0 00.023-9.173c-.42.269-1.04.63-1.647.83l-4.791 1.367-3.19 10.259-.83.269.002-.016-.013.004.677-7.829-.37-1.61-4.479 1.283-11.872 2.77z" fill="#fff"/></svg>