<svg width="111" height="37" viewBox="0 0 111 37" fill="none" xmlns="http://www.w3.org/2000/svg"><path fill-rule="evenodd" clip-rule="evenodd" d="M43.506 19.263c0-3.24-2.352-5.458-5.081-5.458-2.73 0-5.081 2.218-5.081 5.458 0 3.209 2.351 5.459 5.08 5.459 2.73 0 5.082-2.254 5.082-5.459zm3.956 0c0 5.187-4.058 9.009-9.037 9.009-4.98 0-9.037-3.822-9.037-9.009 0-5.223 4.057-9.008 9.037-9.008s9.037 3.785 9.037 9.008zm15.538 0c0-3.24-2.35-5.458-5.08-5.458s-5.081 2.218-5.081 5.458c0 3.209 2.352 5.459 5.08 5.459 2.73 0 5.082-2.254 5.082-5.459zm3.957 0c0 5.187-4.058 9.009-9.037 9.009-4.98 0-9.037-3.822-9.037-9.009 0-5.219 4.057-9.008 9.037-9.008s9.037 3.785 9.037 9.008z" fill="#fff"/><mask id="mask0" maskUnits="userSpaceOnUse" x="68" y="10" width="18" height="27"><path d="M68.37 10.255h17.269v26.087H68.37V10.255z" fill="#fff"/></mask><g mask="url(#mask0)"><path fill-rule="evenodd" clip-rule="evenodd" d="M82.162 19.296c0-3.172-2.116-5.492-4.809-5.492-2.73 0-5.015 2.32-5.015 5.492 0 3.14 2.286 5.426 5.015 5.426 2.693 0 4.81-2.287 4.81-5.426zm3.477-8.497v16.173c0 6.652-3.924 9.37-8.562 9.37-4.366 0-6.993-2.92-7.985-5.309l3.445-1.433c.613 1.466 2.116 3.196 4.536 3.196 2.969 0 4.81-1.832 4.81-5.28V26.22h-.139c-.885 1.093-2.591 2.047-4.744 2.047-4.504 0-8.63-3.923-8.63-8.971 0-5.085 4.126-9.041 8.63-9.041 2.148 0 3.854.954 4.744 2.014h.138v-1.466h3.757v-.004z" fill="#fff"/></g><mask id="mask1" maskUnits="userSpaceOnUse" x="0" y="0" width="111" height="37"><path d="M.596 36.342H110.11V.292H.596v36.05z" fill="#fff"/></mask><g mask="url(#mask1)" fill-rule="evenodd" clip-rule="evenodd" fill="#fff"><path d="M87.975 27.719h3.858V1.32h-3.858v26.399zm9.443-8.732l8.05-3.342c-.443-1.126-1.775-1.91-3.343-1.91-2.01 0-4.808 1.775-4.707 5.252zm9.451 3.241l3.071 2.047c-.991 1.466-3.38 3.993-7.506 3.993-5.117 0-8.94-3.956-8.94-9.009 0-5.357 3.855-9.008 8.497-9.008 4.675 0 6.962 3.72 7.709 5.73l.41 1.024-12.042 4.988c.922 1.807 2.356 2.729 4.366 2.729 2.014 0 3.412-.991 4.435-2.494zM14.783 16.92v-3.822h12.879c.126.666.19 1.454.19 2.307 0 2.867-.783 6.413-3.31 8.94-2.457 2.558-5.596 3.922-9.755 3.922C7.078 28.267.596 21.988.596 14.28.596 6.57 7.078.292 14.786.292c4.265 0 7.303 1.673 9.586 3.854l-2.697 2.697c-1.637-1.535-3.854-2.73-6.892-2.73-5.63 0-10.032 4.538-10.032 10.167s4.403 10.166 10.032 10.166c3.651 0 5.73-1.466 7.063-2.799 1.08-1.08 1.79-2.623 2.071-4.731l-9.134.004z"/></g></svg>