<svg width="96" height="37" viewBox="0 0 96 37" fill="none" xmlns="http://www.w3.org/2000/svg"><mask id="mask0" maskUnits="userSpaceOnUse" x="0" y="0" width="96" height="37"><path d="M.913.13h94.74v36.489H.913V.13z" fill="#fff"/></mask><g mask="url(#mask0)"><path fill-rule="evenodd" clip-rule="evenodd" d="M76.305 11.625V.13h2.357v9.877c-.64.324-1.535.939-2.357 1.618zm-4.094 3.457c.722-.867 1.47-1.748 2.356-2.492V.13H72.21v14.952zm-27.306 9.132c0 3.074 1.222 5.988 3.44 8.207 2.22 2.215 5.134 3.44 8.206 3.44 1.3 0 2.637-.278 3.583-.744v-2.356c-1.104.462-2.439.741-3.583.741-5.033 0-9.288-4.253-9.288-9.288V22.09c0-5.035 4.255-9.287 9.288-9.287 2.502 0 4.84.958 6.586 2.702 1.743 1.744 2.701 4.083 2.701 6.585v13.77h2.359V21.638a11.763 11.763 0 00-3.612-7.92c-2.186-2.11-5.042-3.273-8.034-3.273-3.072 0-5.987 1.222-8.206 3.442-2.218 2.216-3.44 5.132-3.44 8.204v2.124zm35.287-5.64c1.064-1.06 2.458-1.674 3.816-1.674 2.91 0 5.192 2.279 5.192 5.19v2.124c0 2.91-2.282 5.193-5.192 5.193-1.41 0-2.77-.774-3.837-2.174-.945-1.238-1.558-2.912-1.652-4.417l-1.91 2.332c.375 1.784 1.307 3.494 2.625 4.696 1.36 1.237 3.055 1.922 4.774 1.922 4.165 0 7.55-3.388 7.55-7.552V22.09c0-1.97-.798-3.856-2.246-5.304-1.45-1.449-3.332-2.247-5.304-2.247-1.247 0-3.23.447-5.592 2.571l-.008.009c-.633.632-2.117 2.117-3.02 3.176-1.519 1.656-3.726 4.157-5.606 6.66v3.683c2.087-2.68 3.288-4.182 5.25-6.447 1.756-2.05 3.93-4.54 5.16-5.616zM24.51 14.132v-2.79c-2.135-1.144-4.464-1.655-7.552-1.655-3.15 0-6.138 1.156-8.414 3.251-2.278 2.103-3.534 4.868-3.534 7.786v.762c0 6.087 4.882 11.038 10.886 11.038 4.884 0 6.888-1.598 7.399-2.103v-7.082h-7.971v2.358h5.763v3.548l-.02.007c-.742.296-2.282.912-5.171.912-2.29 0-4.433-.89-6.035-2.512-1.609-1.627-2.492-3.818-2.492-6.166v-.762c0-4.704 4.391-8.677 9.589-8.677 3.596 0 5.722.583 7.552 2.085zm17.176 2.77c.895 0 1.653.148 2.257.441a13.71 13.71 0 011.034-2.069c-.642-.458-2.17-.734-3.291-.734-4.304 0-7.551 3.246-7.551 7.551v13.77h2.359V22.09c0-3.057 2.135-5.19 5.192-5.19zM.913 20.722v.762c0 4.09 1.552 7.907 4.37 10.745 2.812 2.832 6.581 4.39 10.613 4.39 3.242 0 6.113-.735 8.535-2.176 1.998-1.191 2.883-2.395 2.96-2.505V19.241H15.324v2.36h9.708v9.605l-.01.008c-1.136 1.14-3.835 3.044-9.126 3.044-3.448 0-6.64-1.314-8.993-3.705-2.342-2.38-3.631-5.601-3.631-9.068v-.762c0-3.273 1.476-6.538 4.048-8.955a14.047 14.047 0 019.638-3.82c3.347 0 5.679.509 7.552 1.643V6.944c-1.95-.83-4.28-1.202-7.552-1.202C8.26 5.742.913 12.604.913 20.722zM64.102 35.86V22.09c0-4.235-3.317-7.552-7.551-7.552-1.973 0-3.855.798-5.305 2.247C49.798 18.234 49 20.12 49 22.09v2.124c0 4.092 3.46 7.552 7.55 7.552 1.122 0 2.65-.276 3.584-1.043V28.23c-.918.738-2.251 1.177-3.583 1.177-2.91 0-5.192-2.283-5.192-5.193V22.09c0-2.911 2.281-5.19 5.192-5.19 2.912 0 5.191 2.279 5.191 5.19v13.77h2.36zM41.686 12.803c1.602 0 2.988.344 4.239 1.052a21.028 21.028 0 011.624-1.773c-1.324-1.01-3.564-1.638-5.863-1.638-3.276 0-6.252 1.181-8.376 3.328-2.109 2.128-3.273 5.081-3.273 8.318v13.77h2.359V22.09c0-5.468 3.82-9.287 9.29-9.287zm50.529 1.083c-2.221-2.22-5.135-3.442-8.207-3.442-2.247 0-4.504.837-5.745 1.663-2.569 1.71-4.68 3.568-8.48 8.478v3.53c3.224-4.201 6.276-7.512 8.592-9.332 1.523-1.222 3.683-1.98 5.633-1.98 5.032 0 9.286 4.252 9.286 9.287v2.124a9.191 9.191 0 01-2.757 6.585 9.24 9.24 0 01-6.53 2.703c-4.135 0-7.776-2.839-8.765-6.716l-1.663 2.016c1.213 4.062 5.592 7.059 10.429 7.059 3.072 0 5.986-1.225 8.207-3.44 2.217-2.22 3.438-5.133 3.438-8.207V22.09c0-3.072-1.22-5.988-3.439-8.204z" fill="#fff"/></g></svg>