<svg width="61" height="43" viewBox="0 0 61 43" fill="none" xmlns="http://www.w3.org/2000/svg"><g clip-path="url(#clip0)"><path d="M.238 1.121H9.36v24.39c0 3.868 1.758 6.165 3.182 7.132-1.485 1.3-6 2.448-9.394-.333-2-1.632-2.909-4.352-2.909-6.89V1.12zm56.94 20.28v-2.57h2.788V9.855h-3.061c-1.182-5.41-6-9.429-11.758-9.429-6.636 0-12.03 5.38-12.03 11.998v20.944c1.879.272 4.152-.03 6.06-1.632 2-1.632 2.91-4.352 2.91-6.89v-.786h4.545v-8.976h-4.545v-2.72a3.048 3.048 0 013.06-3.053 3.049 3.049 0 013.061 3.053v9.006c0 6.618 5.394 11.998 12.03 11.998v-8.946c-1.697 0-3.06-1.36-3.06-3.022zM22.693 9.824v13.207c0 .756-.637 1.36-1.394 1.36-.758 0-1.394-.604-1.394-1.36V9.825h-9V25.33c0 2.78.94 6.316 5.273 7.465 4.333 1.148 6.818-1.24 6.818-1.24-.243 1.572-1.697 2.72-4.091 2.962-1.818.182-4.121-.423-5.273-.906v8.22c2.94.877 6.03 1.148 9.091.544 5.515-1.058 9-5.651 9-11.786V9.765h-9.03v.06z" fill="#fff"/></g><defs><clipPath id="clip0"><path fill="#fff" d="M0 0h61v43H0z"/></clipPath></defs></svg>