<svg width="125" height="40" viewBox="0 0 125 40" fill="none" xmlns="http://www.w3.org/2000/svg"><g clip-path="url(#clip0)"><mask id="mask0" maskUnits="userSpaceOnUse" x="-1" y="0" width="40" height="40"><path d="M-.018.732h38.775v38.775H-.018V.732z" fill="#fff"/></mask><g mask="url(#mask0)"><path fill-rule="evenodd" clip-rule="evenodd" d="M30.838 17.92c-6.25-3.712-16.558-4.053-22.524-2.243a1.813 1.813 0 11-1.052-3.47c6.848-2.079 18.232-1.677 25.427 2.593a1.813 1.813 0 01-1.851 3.12zm-.205 5.496a1.512 1.512 0 01-2.079.498c-5.21-3.202-13.155-4.13-19.319-2.26a1.513 1.513 0 01-1.886-1.006c-.241-.8.21-1.642 1.008-1.885 7.041-2.137 15.795-1.102 21.779 2.575.71.438.934 1.368.497 2.078zm-2.372 5.28a1.207 1.207 0 01-1.662.402c-4.552-2.783-10.283-3.411-17.031-1.87a1.208 1.208 0 11-.538-2.355c7.385-1.689 13.72-.962 18.83 2.16.57.349.75 1.093.4 1.662zM19.369.732C8.662.732-.018 9.412-.018 20.119c0 10.709 8.68 19.388 19.387 19.388 10.708 0 19.388-8.68 19.388-19.388C38.757 9.412 30.077.732 19.37.732z" fill="#fff"/></g><path fill-rule="evenodd" clip-rule="evenodd" d="M52.729 18.63c-3.347-.799-3.944-1.359-3.944-2.536 0-1.112 1.048-1.86 2.605-1.86 1.51 0 3.006.568 4.575 1.738a.22.22 0 00.31-.05l1.635-2.303a.22.22 0 00-.042-.298c-1.867-1.499-3.97-2.227-6.429-2.227-3.614 0-6.139 2.168-6.139 5.272 0 3.328 2.178 4.506 5.942 5.416 3.203.738 3.743 1.356 3.743 2.46 0 1.225-1.093 1.986-2.852 1.986-1.954 0-3.548-.658-5.33-2.201a.227.227 0 00-.161-.053.217.217 0 00-.15.077l-1.834 2.182a.218.218 0 00.022.303c2.075 1.852 4.626 2.83 7.379 2.83 3.895 0 6.411-2.128 6.411-5.421 0-2.784-1.663-4.324-5.741-5.315zm17.38 3.73c0 2.35-1.448 3.991-3.52 3.991-2.05 0-3.597-1.715-3.597-3.99 0-2.276 1.547-3.991 3.596-3.991 2.04 0 3.521 1.678 3.521 3.99zm-2.827-7.032c-1.688 0-3.073.665-4.215 2.028v-1.534a.22.22 0 00-.219-.22h-2.997a.22.22 0 00-.22.22v17.04c0 .12.099.22.22.22h2.997a.22.22 0 00.22-.22v-5.379c1.141 1.282 2.526 1.908 4.214 1.908 3.137 0 6.312-2.415 6.312-7.03 0-4.617-3.175-7.033-6.312-7.033zm14.452 11.048c-2.15 0-3.769-1.727-3.769-4.016 0-2.298 1.564-3.966 3.719-3.966 2.163 0 3.794 1.726 3.794 4.016 0 2.299-1.575 3.966-3.744 3.966zm0-11.048c-4.04 0-7.205 3.11-7.205 7.082 0 3.93 3.143 7.007 7.155 7.007 4.054 0 7.228-3.1 7.228-7.057 0-3.943-3.152-7.032-7.178-7.032zm15.805.274H94.24V12.23a.22.22 0 00-.219-.22h-2.997a.22.22 0 00-.22.22v3.372h-1.441a.22.22 0 00-.219.22v2.576c0 .12.098.22.219.22h1.441v6.665c0 2.694 1.34 4.06 3.985 4.06 1.075 0 1.967-.222 2.808-.7a.218.218 0 00.11-.19v-2.452a.22.22 0 00-.317-.197 3.776 3.776 0 01-1.76.425c-.961 0-1.39-.437-1.39-1.415v-6.196h3.298a.22.22 0 00.219-.22v-2.576a.22.22 0 00-.22-.22zm11.492.014V15.2c0-1.218.467-1.761 1.515-1.761.624 0 1.126.124 1.688.311a.219.219 0 00.289-.208v-2.526a.22.22 0 00-.155-.21 8.23 8.23 0 00-2.492-.359c-2.768 0-4.231 1.56-4.231 4.507v.634h-1.44a.22.22 0 00-.22.22v2.589c0 .12.099.22.22.22h1.44v10.28c0 .122.097.22.218.22h2.998a.22.22 0 00.219-.22v-10.28h2.799l4.287 10.278c-.487 1.08-.966 1.295-1.619 1.295-.528 0-1.084-.158-1.653-.469a.223.223 0 00-.174-.016.223.223 0 00-.13.118l-1.016 2.229a.218.218 0 00.095.284c1.06.574 2.017.82 3.201.82 2.213 0 3.436-1.032 4.515-3.805l5.2-13.437a.221.221 0 00-.023-.204.22.22 0 00-.181-.095h-3.12a.222.222 0 00-.208.147l-3.196 9.13-3.501-9.136a.22.22 0 00-.205-.141h-5.12zm-6.662-.014h-2.998a.22.22 0 00-.22.22V28.9c0 .121.1.22.22.22h2.998a.22.22 0 00.219-.22V15.822a.22.22 0 00-.219-.22zm-1.484-5.954a2.15 2.15 0 10-.002 4.3 2.15 2.15 0 00.002-4.3z" fill="#fff"/></g><defs><clipPath id="clip0"><path fill="#fff" d="M0 0h125v40H0z"/></clipPath></defs></svg>