<svg width="85" height="30" viewBox="0 0 85 30" fill="none" xmlns="http://www.w3.org/2000/svg"><mask id="mask0" maskUnits="userSpaceOnUse" x="0" y="0" width="23" height="30"><path d="M.096.548h22.796v29.299H.096V.548z" fill="#fff"/></mask><g mask="url(#mask0)"><path fill-rule="evenodd" clip-rule="evenodd" d="M22.884 29.31c-.079.014-.12.026-.162.026-1.328.001-2.656 0-3.984-.002-.03 0-.059-.016-.107-.03-.038-.416-.012-.835-.017-1.253-.005-.42-.001-.84-.001-1.25-.074-.054-.112-.011-.151.024-.215.197-.423.402-.646.59a10.1 10.1 0 01-4.845 2.248c-2.202.381-4.35.177-6.412-.69-2.8-1.177-4.69-3.238-5.739-6.078a11.208 11.208 0 01-.664-3.09 20.058 20.058 0 01-.058-1.423C.095 12.596.096 6.81.096 1.023V.611C.217.52.34.554.454.554 1.652.551 2.85.552 4.049.552h.334c.015.079.034.139.038.2.005.107.001.215.001.323 0 5.71.002 11.421 0 17.132 0 .725.054 1.444.21 2.154a7.58 7.58 0 00.931 2.368c.884 1.439 2.127 2.423 3.745 2.916 1.42.433 2.853.45 4.274.018 1.887-.574 3.254-1.778 4.137-3.534a7.67 7.67 0 00.782-2.755c.037-.386.059-.775.059-1.163.004-5.732.002-11.464.003-17.196 0-.139.004-.277.006-.432.066-.012.117-.029.167-.029h3.983c.042 0 .084.01.141.019.01.063.025.124.03.185.004.086 0 .173 0 .26v27.85c0 .14-.003.278-.006.443z" fill="#fff"/></g><path fill-rule="evenodd" clip-rule="evenodd" d="M37.392 26.17a6.985 6.985 0 002.98-.646c2.963-1.363 4.717-4.602 4.112-7.958-.61-3.39-3.548-5.912-6.973-5.946a7.173 7.173 0 00-3.63.91c-2.726 1.521-4.193 4.62-3.575 7.786a7.197 7.197 0 007.086 5.854zm-7.16.58c-.03.277-.016.48-.018.682-.002.215 0 .431 0 .647 0 .206.003.41-.001.616-.004.202.018.406-.018.618-.067.01-.118.022-.17.024-.643.026-3.637.008-3.9-.025-.01-.055-.03-.114-.034-.175-.006-.086-.002-.172-.002-.26L26.09.999c0-.137-.021-.278.03-.42.047-.009.088-.023.129-.023C27.565.553 28.88.554 30.212.554c.015.075.034.134.037.194.006.108.003.216.003.324v9.488c0 .123-.02.252.041.407.101-.09.18-.157.257-.228a10.326 10.326 0 014.512-2.494 10.603 10.603 0 013.272-.314c1.631.088 3.177.494 4.607 1.28 2.992 1.646 4.864 4.146 5.557 7.493a10.86 10.86 0 01-2.89 9.843c-1.63 1.657-3.598 2.688-5.885 3.11-.853.157-1.714.223-2.578.17-2.514-.154-4.714-1.063-6.579-2.765-.094-.086-.187-.175-.335-.313zm37.173-9.863c-.012-.084-.017-.157-.034-.227a7.296 7.296 0 00-.494-1.367c-1.28-2.661-3.952-4.007-6.616-3.666a6.238 6.238 0 00-2.843 1.083c-1.401.985-2.271 2.337-2.714 3.978-.017.06-.024.122-.036.184.047.02.075.043.103.043l12.496.003c.04 0 .08-.017.138-.031zm4.19 3.323h-16.99c-.008.065-.024.107-.016.145.434 2.12 1.544 3.774 3.418 4.884 1.073.636 2.244.929 3.491.932 1.345.003 2.61-.293 3.775-.98.809-.479 1.49-1.103 2.076-1.833.067-.084.136-.165.217-.263 1 .736 1.986 1.468 2.981 2.204-.032.058-.047.098-.071.13-1.685 2.177-3.862 3.577-6.565 4.135-1.235.255-2.483.29-3.737.159-1.5-.158-2.921-.577-4.237-1.313-2.835-1.585-4.607-3.974-5.32-7.143a10.98 10.98 0 01-.247-2.863c.18-4.348 2.83-8.067 6.644-9.642a10.67 10.67 0 013.196-.77c1.628-.137 3.214.052 4.74.634 2.75 1.05 4.664 2.97 5.806 5.67.432 1.02.684 2.087.803 3.189.094.862.064 1.725.067 2.588 0 .03-.014.061-.031.137zm6.485 9.128l-3.954-.001c-.051 0-.103-.012-.17-.02-.007-.063-.016-.115-.018-.166-.037-1.15-.014-20.458.026-20.763.058-.01.12-.03.18-.03h3.692c.052 0 .105.008.143.011.097.094.067.197.068.29.002.636 0 1.273.003 1.91 0 .08-.033.173.062.254.064-.087.128-.17.189-.256.667-.927 1.523-1.61 2.6-2.004a5.75 5.75 0 011.867-.356c.56-.012 1.121-.002 1.695-.002.015.057.04.107.04.156v3.56c0 .033-.01.064-.014.093-.068.084-.16.058-.243.059-.497.002-.993.003-1.49 0a4.522 4.522 0 00-1.677.302c-.961.375-1.691 1.022-2.211 1.908-.394.67-.613 1.4-.715 2.167a8.754 8.754 0 00-.064 1.163c.002 3.766.001 7.532 0 11.298 0 .128-.005.255-.009.427z" fill="#fff"/></svg>