<svg width="111" height="30" viewBox="0 0 111 30" fill="none" xmlns="http://www.w3.org/2000/svg"><path fill-rule="evenodd" clip-rule="evenodd" d="M6.214 14.008c1.538-.701 5.846-2.01 9.971-2.973 0 0-7.93 7.32-10.133 9.588l1.82-4.937c-1.415.208-2.038.29-3.973.701l2.315-2.379zm9.893-7.878c.685.335 3.22 2.058 4.123 2.694-2.89.068-8.527 1.318-10.874 2.1 1.928-1.45 5.508-4.216 6.751-4.794zm10.19 7.2l-3.704.37s-.341.71-.662 1.69c-2.77.166-7.129 1.082-9.258 1.851 1.097-1.01 8.095-8.04 8.095-8.04 2.714 1.853 5.528 4.129 5.528 4.129zm-6.178 7.378c-6.933.415-14.473 2.924-15.269 3.275l.926-2.603c2.35-1.088 8.199-3.237 15.392-3.75-.14.533-.9 2.494-1.049 3.078zM.596 29.16V.668h28.491V29.16H.596zm41.446-6.928s.903-.007 1.72-.007h6.83l-1.051 3.327H36.874v-2.86l7.657-13.15c.556-.934.854-1.657.854-1.657s-.445-.036-1.67-.036h-6.246l.905-3.385h12.141V7.41l-7.716 13.502c-.438.729-.757 1.32-.757 1.32zM55.28 5.86c1.315 0 2.365 1.08 2.365 2.423a2.416 2.416 0 01-2.421 2.423c-1.315 0-2.394-1.08-2.394-2.423s1.109-2.423 2.45-2.423zm-2.005 6.582l3.896-.873.008 14.015H53.27l.007-13.141zm7.721-7.58l3.999-.905.028 21.586h-3.998L60.997 4.86zm7.771 0l4-.905.027 21.586h-3.999L68.768 4.86zm36.663 11.09l1.138-5.341h4.027l-4.26 14.942h-3.59l-1.343-5.135c-.32-1.197-.672-2.628-.845-3.62-.116-.7-.146-.905-.234-1.488-.089.642-.117.846-.35 1.925-.292 1.285-.935 3.854-1.285 5.254l-.758 3.064h-3.65l-4.16-14.944h3.992l1.192 5.576c.379 1.722.844 4.641.844 4.641s.381-2.656 1.081-5.195l1.4-5.02h3.679l1.196 4.933a92.44 92.44 0 011.108 5.282c.089-.643.409-2.977.818-4.874zm-22.966-5.633c2.132 0 3.795.73 5.079 2.248 1.197 1.401 1.722 3.034 1.722 5.457 0 2.568-.583 4.32-1.869 5.779-1.137 1.284-2.626 2.07-4.932 2.07-4.056 0-6.712-3.033-6.712-7.732 0-4.7 2.685-7.822 6.712-7.822zm.117 12.726c1.693 0 2.423-1.518 2.423-5.05 0-2.014-.262-3.327-.788-3.999-.38-.496-.992-.788-1.692-.788-.936 0-1.694.585-2.014 1.518-.262.788-.41 1.838-.41 3.327 0 1.721.176 3.006.497 3.765.35.817 1.226 1.227 1.984 1.227z" fill="#fff"/></svg>