<svg xmlns="http://www.w3.org/2000/svg" width="59.734" height="59.852" shape-rendering="geometricPrecision" viewBox="0 0 59.734 59.852"><path fill="#36c5f0" d="M21.902 0c-3.299 0-5.973 2.68-5.973 5.985a5.979 5.979 0 005.973 5.985h5.974V5.985A5.98 5.98 0 0021.902 0m0 15.96H5.973C2.674 15.96 0 18.64 0 21.946c0 3.305 2.674 5.985 5.973 5.985h15.93c3.298 0 5.973-2.68 5.973-5.985 0-3.306-2.675-5.986-5.974-5.986"/><path fill="#2eb67d" d="M59.734 21.946c0-3.306-2.675-5.986-5.974-5.986-3.299 0-5.973 2.68-5.973 5.986v5.985h5.973a5.98 5.98 0 005.974-5.985m-15.929 0V5.985A5.98 5.98 0 0037.831 0c-3.299 0-5.973 2.68-5.973 5.985v15.96c0 3.307 2.674 5.987 5.973 5.987a5.98 5.98 0 005.974-5.985"/><path fill="#ecb22e" d="M37.831 59.852a5.98 5.98 0 005.974-5.985 5.98 5.98 0 00-5.974-5.985h-5.973v5.985c0 3.305 2.674 5.985 5.973 5.985m0-15.96h15.93c3.298 0 5.973-2.68 5.973-5.986a5.98 5.98 0 00-5.974-5.985H37.831c-3.299 0-5.973 2.68-5.973 5.985a5.979 5.979 0 005.973 5.985"/><path fill="#e01e5a" d="M0 37.906a5.979 5.979 0 005.973 5.985 5.98 5.98 0 005.974-5.985v-5.985H5.973C2.674 31.921 0 34.601 0 37.906m15.929 0v15.96c0 3.306 2.674 5.986 5.973 5.986a5.98 5.98 0 005.974-5.985V37.906a5.979 5.979 0 00-5.974-5.985c-3.299 0-5.973 2.68-5.973 5.985"/></svg>